G04*
G04 #@! TF.GenerationSoftware,Altium Limited,Altium Designer,21.8.1 (53)*
G04*
G04 Layer_Color=16711935*
%FSLAX25Y25*%
%MOIN*%
G70*
G04*
G04 #@! TF.SameCoordinates,BB14BC4D-F75F-4C2B-B3D6-E291CF296C5C*
G04*
G04*
G04 #@! TF.FilePolarity,Negative*
G04*
G01*
G75*
%ADD72C,0.02572*%
G04:AMPARAMS|DCode=73|XSize=86.74mil|YSize=70.99mil|CornerRadius=19.75mil|HoleSize=0mil|Usage=FLASHONLY|Rotation=0.000|XOffset=0mil|YOffset=0mil|HoleType=Round|Shape=RoundedRectangle|*
%AMROUNDEDRECTD73*
21,1,0.08674,0.03150,0,0,0.0*
21,1,0.04724,0.07099,0,0,0.0*
1,1,0.03950,0.02362,-0.01575*
1,1,0.03950,-0.02362,-0.01575*
1,1,0.03950,-0.02362,0.01575*
1,1,0.03950,0.02362,0.01575*
%
%ADD73ROUNDEDRECTD73*%
G04:AMPARAMS|DCode=83|XSize=55.24mil|YSize=43.43mil|CornerRadius=0mil|HoleSize=0mil|Usage=FLASHONLY|Rotation=55.000|XOffset=0mil|YOffset=0mil|HoleType=Round|Shape=Rectangle|*
%AMROTATEDRECTD83*
4,1,4,0.00195,-0.03508,-0.03363,-0.01017,-0.00195,0.03508,0.03363,0.01017,0.00195,-0.03508,0.0*
%
%ADD83ROTATEDRECTD83*%

G04:AMPARAMS|DCode=84|XSize=43.43mil|YSize=39.5mil|CornerRadius=0mil|HoleSize=0mil|Usage=FLASHONLY|Rotation=55.000|XOffset=0mil|YOffset=0mil|HoleType=Round|Shape=Rectangle|*
%AMROTATEDRECTD84*
4,1,4,0.00372,-0.02912,-0.02863,-0.00646,-0.00372,0.02912,0.02863,0.00646,0.00372,-0.02912,0.0*
%
%ADD84ROTATEDRECTD84*%

%ADD85R,0.04737X0.14580*%
%ADD86R,0.06706X0.14186*%
%ADD87R,0.16548X0.06800*%
D72*
X356000Y50500D02*
D03*
X346325Y57275D02*
D03*
D73*
X395505Y78000D02*
D03*
X395500Y70500D02*
D03*
D83*
X348761Y65902D02*
D03*
X358436Y59127D02*
D03*
X363274Y55740D02*
D03*
D84*
X365901Y48854D02*
D03*
X341391Y66016D02*
D03*
X336423Y58921D02*
D03*
X360933Y41759D02*
D03*
D85*
X347563Y86705D02*
D03*
X355437D02*
D03*
D86*
X338311Y109343D02*
D03*
X364689D02*
D03*
D87*
X448000Y59000D02*
D03*
Y39000D02*
D03*
Y49000D02*
D03*
Y89000D02*
D03*
Y79000D02*
D03*
Y69000D02*
D03*
Y99000D02*
D03*
X378000D02*
D03*
Y69000D02*
D03*
Y79000D02*
D03*
Y89000D02*
D03*
Y59000D02*
D03*
Y49000D02*
D03*
Y39000D02*
D03*
M02*
