G04*
G04 #@! TF.GenerationSoftware,Altium Limited,Altium Designer,21.8.1 (53)*
G04*
G04 Layer_Color=8388736*
%FSLAX25Y25*%
%MOIN*%
G70*
G04*
G04 #@! TF.SameCoordinates,C6FA9EFD-9857-4FC3-946E-AA1CE9A77F04*
G04*
G04*
G04 #@! TF.FilePolarity,Negative*
G04*
G01*
G75*
%ADD10C,0.00800*%
G36*
X175475Y197975D02*
X175492Y197632D01*
X175626Y196959D01*
X175888Y196325D01*
X176269Y195755D01*
X176754Y195269D01*
X177325Y194888D01*
X177959Y194626D01*
X178632Y194492D01*
X178975Y194475D01*
X178632Y194458D01*
X177959Y194324D01*
X177325Y194062D01*
X176754Y193680D01*
X176269Y193195D01*
X175888Y192625D01*
X175626Y191991D01*
X175492Y191318D01*
X175475Y190975D01*
X175475Y190975D01*
X175458Y191318D01*
X175324Y191991D01*
X175062Y192625D01*
X174680Y193195D01*
X174195Y193680D01*
X173625Y194062D01*
X172991Y194324D01*
X172318Y194458D01*
X171975Y194475D01*
Y194475D01*
X172318Y194492D01*
X172991Y194626D01*
X173625Y194888D01*
X174195Y195269D01*
X174680Y195755D01*
X175062Y196325D01*
X175324Y196959D01*
X175458Y197632D01*
X175475Y197975D01*
X175475Y197975D01*
D02*
G37*
G36*
X109376Y162221D02*
X109674Y161500D01*
X110226Y160948D01*
X110947Y160650D01*
X111337Y160611D01*
X110947Y160573D01*
X110226Y160274D01*
X109674Y159722D01*
X109376Y159001D01*
X109337Y158611D01*
X109299Y159001D01*
X109000Y159722D01*
X108448Y160274D01*
X107727Y160573D01*
X107337Y160611D01*
X107727Y160650D01*
X108448Y160948D01*
X109000Y161500D01*
X109299Y162221D01*
X109337Y162611D01*
X109376Y162221D01*
D02*
G37*
G36*
X195163Y157138D02*
X195461Y156417D01*
X196013Y155865D01*
X196734Y155566D01*
X197124Y155528D01*
X196734Y155490D01*
X196013Y155191D01*
X195461Y154639D01*
X195163Y153918D01*
X195124Y153528D01*
X195086Y153918D01*
X194787Y154639D01*
X194236Y155191D01*
X193515Y155490D01*
X193124Y155528D01*
X193515Y155566D01*
X194236Y155865D01*
X194787Y156417D01*
X195086Y157138D01*
X195124Y157528D01*
X195163Y157138D01*
D02*
G37*
G36*
X156907Y165672D02*
X157499Y165654D01*
X157553Y165636D01*
X158190Y165609D01*
X158405Y165591D01*
X158782Y165573D01*
X159069Y165556D01*
X159320Y165538D01*
X159518Y165520D01*
X159697Y165502D01*
X159841Y165484D01*
X160083Y165457D01*
X160208Y165439D01*
X160379Y165412D01*
X160531Y165367D01*
X160711Y165349D01*
X160944Y165331D01*
X161070Y165313D01*
X161509Y165268D01*
X161742Y165233D01*
X161922Y165197D01*
X162021Y165170D01*
X162137Y165143D01*
X162245Y165125D01*
X162442Y165089D01*
X162586Y165053D01*
X162828Y165026D01*
X162900Y165008D01*
X163052Y164981D01*
X163142Y164963D01*
X163241Y164936D01*
X163312Y164918D01*
X163411Y164892D01*
X163501Y164874D01*
X163600Y164847D01*
X163905Y164793D01*
X163976Y164775D01*
X164281Y164721D01*
X164353Y164703D01*
X164488Y164676D01*
X164694Y164595D01*
X164766Y164578D01*
X164892Y164560D01*
X164963Y164542D01*
X165080Y164515D01*
X165152Y164497D01*
X165241Y164479D01*
X165340Y164452D01*
X165457Y164407D01*
X165717Y164326D01*
X165842Y164290D01*
X165914Y164273D01*
X166031Y164246D01*
X166103Y164228D01*
X166740Y164021D01*
X166883Y163986D01*
X167000Y163959D01*
X167143Y163905D01*
X167368Y163806D01*
X167655Y163734D01*
X167879Y163654D01*
X168058Y163564D01*
X168319Y163483D01*
X168462Y163447D01*
X168570Y163429D01*
X168695Y163357D01*
X168731Y163322D01*
X168821Y163286D01*
X168947Y163250D01*
X169063Y163223D01*
X169207Y163169D01*
X169341Y163088D01*
X169431Y163052D01*
X169548Y163008D01*
X169646Y162981D01*
X169763Y162936D01*
X169853Y162900D01*
X169915Y162873D01*
X170185Y162747D01*
X170301Y162703D01*
X170445Y162649D01*
X170579Y162568D01*
X170902Y162425D01*
X170992Y162389D01*
X171109Y162344D01*
X171512Y162155D01*
X171853Y161994D01*
X172051Y161904D01*
X172284Y161778D01*
X172392Y161707D01*
X172463Y161689D01*
X172589Y161635D01*
X172679Y161599D01*
X172912Y161438D01*
X173002Y161402D01*
X173199Y161294D01*
X173307Y161222D01*
X173468Y161151D01*
X173666Y161043D01*
X173773Y160971D01*
X174096Y160792D01*
X174240Y160702D01*
X174329Y160666D01*
X174491Y160576D01*
X174527Y160540D01*
X174563Y160522D01*
X174599Y160487D01*
X174635Y160469D01*
X174904Y160325D01*
X174957Y160271D01*
X174993Y160253D01*
X175262Y160110D01*
X175514Y159930D01*
X175711Y159823D01*
X175747Y159787D01*
X175783Y159769D01*
X175819Y159733D01*
X175855Y159715D01*
X175980Y159625D01*
X176178Y159518D01*
X176429Y159338D01*
X176465Y159320D01*
X176689Y159150D01*
X176931Y159015D01*
X177057Y158890D01*
X177182Y158818D01*
X177353Y158701D01*
X177416Y158656D01*
X177514Y158576D01*
X177622Y158504D01*
X177685Y158441D01*
X177721Y158423D01*
X178008Y158208D01*
X178079Y158136D01*
X178115Y158118D01*
X178241Y158028D01*
X178277Y158010D01*
X178375Y157930D01*
X178402Y157903D01*
X178438Y157885D01*
X178537Y157804D01*
X178600Y157759D01*
X178672Y157687D01*
X178699Y157679D01*
X178717Y157643D01*
X178761Y157598D01*
X178995Y157472D01*
X179022Y157445D01*
X179039Y157409D01*
X179093Y157356D01*
X179102Y157329D01*
X179138Y157311D01*
X179237Y157230D01*
X179300Y157185D01*
X179425Y157060D01*
X179461Y157042D01*
X179560Y156961D01*
X179640Y156880D01*
X179676Y156862D01*
X179730Y156808D01*
X179766Y156790D01*
X179981Y156575D01*
X180017Y156557D01*
X180242Y156387D01*
X180430Y156198D01*
X180466Y156180D01*
X180609Y156037D01*
X180645Y156019D01*
X180681Y155983D01*
X180717Y155965D01*
X180753Y155929D01*
X180780Y155920D01*
X180798Y155884D01*
X180968Y155714D01*
X181004Y155696D01*
X181103Y155597D01*
X181121Y155561D01*
X181202Y155481D01*
X181237Y155463D01*
X181336Y155382D01*
X181354Y155346D01*
X181507Y155193D01*
X181543Y155175D01*
X181641Y155077D01*
X181659Y155041D01*
X181722Y154978D01*
X181758Y154960D01*
X181857Y154861D01*
X181874Y154826D01*
X182009Y154691D01*
X182045Y154673D01*
X182143Y154575D01*
X182161Y154539D01*
X182278Y154422D01*
X182314Y154404D01*
X182377Y154323D01*
X182395Y154287D01*
X182457Y154225D01*
X182493Y154207D01*
X182547Y154153D01*
X182583Y154135D01*
X182646Y154072D01*
X182664Y154036D01*
X182745Y153937D01*
X182825Y153875D01*
X182843Y153839D01*
X182879Y153803D01*
X182897Y153767D01*
X183148Y153516D01*
X183166Y153480D01*
X183247Y153381D01*
X183382Y153247D01*
X183399Y153211D01*
X183453Y153157D01*
X183471Y153121D01*
X183597Y152996D01*
X183606Y152969D01*
X183642Y152951D01*
X183687Y152888D01*
X183722Y152852D01*
X183740Y152816D01*
X183821Y152717D01*
X183884Y152655D01*
X183902Y152619D01*
X183938Y152583D01*
X183956Y152547D01*
X184010Y152493D01*
X184028Y152457D01*
X184153Y152332D01*
X184171Y152296D01*
X184297Y152134D01*
X184404Y152027D01*
X184422Y151991D01*
X184503Y151892D01*
X184548Y151847D01*
X184566Y151811D01*
X184620Y151757D01*
X184638Y151722D01*
X184727Y151632D01*
X184745Y151596D01*
X184781Y151560D01*
X184799Y151524D01*
X184835Y151488D01*
X184853Y151452D01*
X184889Y151417D01*
X184907Y151381D01*
X184961Y151327D01*
X184978Y151291D01*
X185014Y151255D01*
X185032Y151219D01*
X185086Y151165D01*
X185104Y151129D01*
X185140Y151093D01*
X185158Y151058D01*
X185194Y151022D01*
X185284Y150860D01*
X185391Y150753D01*
X185409Y150717D01*
X185463Y150663D01*
X185481Y150627D01*
X185517Y150591D01*
X185535Y150555D01*
X185705Y150331D01*
X185732Y150304D01*
X185750Y150268D01*
X185867Y150098D01*
X185939Y149990D01*
X185965Y149963D01*
X186037Y149838D01*
X186208Y149613D01*
X186234Y149586D01*
X186252Y149550D01*
X186342Y149407D01*
X186360Y149371D01*
X186414Y149317D01*
X186432Y149281D01*
X186468Y149245D01*
X186611Y148976D01*
X186647Y148940D01*
X186665Y148905D01*
X186701Y148869D01*
X186719Y148833D01*
X186755Y148797D01*
X186898Y148528D01*
X186988Y148402D01*
X187006Y148366D01*
X187123Y148196D01*
X187195Y148088D01*
X187239Y148043D01*
X187329Y147846D01*
X187401Y147720D01*
X187562Y147487D01*
X187580Y147415D01*
X187670Y147254D01*
X187742Y147182D01*
X187760Y147146D01*
X187831Y146985D01*
X187939Y146787D01*
X188047Y146626D01*
X188208Y146321D01*
X188280Y146213D01*
X188298Y146177D01*
X188406Y145926D01*
X188424Y145890D01*
X188513Y145765D01*
X188621Y145531D01*
X188657Y145442D01*
X188702Y145325D01*
X188773Y145217D01*
X188854Y145083D01*
X188881Y144984D01*
X188935Y144841D01*
X188962Y144814D01*
X189141Y144437D01*
X189186Y144320D01*
X189339Y144042D01*
X189455Y143710D01*
X189563Y143531D01*
X189599Y143441D01*
X189644Y143324D01*
X189724Y143100D01*
X189751Y143073D01*
X189769Y143037D01*
X189859Y142840D01*
X189886Y142741D01*
X189958Y142544D01*
X189994Y142454D01*
X190110Y142194D01*
X190173Y142023D01*
X190200Y141925D01*
X190236Y141835D01*
X190281Y141718D01*
X190352Y141539D01*
X190397Y141422D01*
X190424Y141324D01*
X190460Y141180D01*
X190496Y141090D01*
X190613Y140830D01*
X190630Y140759D01*
X190684Y140579D01*
X190711Y140462D01*
X190765Y140319D01*
X190864Y140095D01*
X190891Y139996D01*
X190909Y139924D01*
X190971Y139825D01*
X191016Y139781D01*
X191196Y139727D01*
X191366Y139700D01*
X191563Y139682D01*
X191797Y139664D01*
X191976Y139646D01*
X192209Y139610D01*
X192317Y139592D01*
X192550Y139556D01*
X192793Y139529D01*
X192864Y139511D01*
X193313Y139494D01*
X193385Y139476D01*
X193663Y139449D01*
X193986Y139431D01*
X194165Y139413D01*
X194309Y139395D01*
X194632Y139341D01*
X194721Y139323D01*
X194937Y139287D01*
X195080Y139269D01*
X195260Y139251D01*
X195457Y139233D01*
X195699Y139206D01*
X195825Y139189D01*
X196139Y139162D01*
X196426Y139126D01*
X196749Y139072D01*
X196928Y139036D01*
X197036Y139018D01*
X197180Y139000D01*
X197431Y138982D01*
X197610Y138964D01*
X197718Y138946D01*
X197969Y138928D01*
X198184Y138910D01*
X198346Y138892D01*
X198777Y138821D01*
X198848Y138803D01*
X198956Y138785D01*
X199046Y138767D01*
X199414Y138722D01*
X199772Y138686D01*
X199844Y138668D01*
X200158Y138641D01*
X200499Y138587D01*
X200858Y138516D01*
X201073Y138480D01*
X201315Y138453D01*
X201755Y138408D01*
X201845Y138390D01*
X202087Y138363D01*
X202213Y138345D01*
X202329Y138318D01*
X202419Y138300D01*
X202527Y138282D01*
X202706Y138247D01*
X203065Y138193D01*
X203558Y138130D01*
X203738Y138112D01*
X203953Y138058D01*
X204079Y138040D01*
X204150Y138022D01*
X204321Y137995D01*
X204411Y137977D01*
X204644Y137941D01*
X204886Y137915D01*
X204958Y137897D01*
X205182Y137870D01*
X205290Y137852D01*
X205362Y137834D01*
X205451Y137816D01*
X205774Y137762D01*
X205864Y137744D01*
X205963Y137717D01*
X206034Y137699D01*
X206313Y137672D01*
X206546Y137636D01*
X206761Y137601D01*
X206941Y137565D01*
X207012Y137547D01*
X207102Y137529D01*
X207174Y137511D01*
X207263Y137493D01*
X207335Y137475D01*
X207515Y137439D01*
X207676Y137421D01*
X207856Y137403D01*
X207999Y137385D01*
X208232Y137349D01*
X208340Y137331D01*
X208484Y137295D01*
X208564Y137269D01*
X208780Y137215D01*
X208995Y137179D01*
X209174Y137161D01*
X209300Y137143D01*
X209515Y137107D01*
X209659Y137071D01*
X209785Y137053D01*
X209928Y137017D01*
X210045Y136972D01*
X210143Y136946D01*
X210269Y136928D01*
X210448Y136910D01*
X210574Y136892D01*
X210978Y136829D01*
X211067Y136811D01*
X211211Y136775D01*
X211364Y136730D01*
X211489Y136694D01*
X211561Y136677D01*
X211686Y136659D01*
X211758Y136641D01*
X212000Y136614D01*
X212108Y136596D01*
X212180Y136578D01*
X212270Y136560D01*
X212341Y136542D01*
X212449Y136524D01*
X212548Y136497D01*
X212727Y136443D01*
X212871Y136407D01*
X213077Y136380D01*
X213436Y136327D01*
X213526Y136309D01*
X213597Y136291D01*
X213687Y136255D01*
X213786Y136228D01*
X213911Y136192D01*
X214136Y136147D01*
X214207Y136129D01*
X214315Y136111D01*
X214548Y136075D01*
X214638Y136057D01*
X214710Y136039D01*
X214809Y136013D01*
X214925Y135968D01*
X215024Y135941D01*
X215149Y135905D01*
X215365Y135869D01*
X215437Y135851D01*
X215589Y135824D01*
X215679Y135806D01*
X215751Y135788D01*
X215849Y135761D01*
X215921Y135743D01*
X216127Y135699D01*
X216334Y135636D01*
X216405Y135618D01*
X216702Y135573D01*
X216773Y135555D01*
X216872Y135528D01*
X217267Y135403D01*
X217338Y135385D01*
X217455Y135358D01*
X217635Y135322D01*
X217742Y135304D01*
X217814Y135286D01*
X217993Y135250D01*
X218191Y135214D01*
X218397Y135115D01*
X218612Y135080D01*
X218819Y135035D01*
X219070Y134945D01*
X219276Y134882D01*
X219348Y134864D01*
X219474Y134846D01*
X219545Y134828D01*
X219752Y134783D01*
X219824Y134766D01*
X220003Y134694D01*
X220156Y134649D01*
X220514Y134559D01*
X220631Y134532D01*
X220721Y134514D01*
X220918Y134443D01*
X221017Y134398D01*
X221106Y134362D01*
X221223Y134335D01*
X221295Y134317D01*
X221510Y134281D01*
X221654Y134245D01*
X221797Y134191D01*
X222040Y134093D01*
X222111Y134075D01*
X222318Y134030D01*
X222407Y134012D01*
X222676Y133904D01*
X222748Y133886D01*
X222901Y133842D01*
X223116Y133788D01*
X223233Y133761D01*
X223376Y133707D01*
X223466Y133671D01*
X223654Y133590D01*
X223798Y133554D01*
X223923Y133519D01*
X224148Y133438D01*
X224237Y133402D01*
X224336Y133357D01*
X224426Y133321D01*
X224524Y133294D01*
X224794Y133240D01*
X224866Y133222D01*
X224955Y133187D01*
X225018Y133160D01*
X225215Y133070D01*
X225395Y133016D01*
X225466Y132998D01*
X225745Y132899D01*
X225852Y132846D01*
X225942Y132810D01*
X226086Y132756D01*
X226184Y132729D01*
X226462Y132630D01*
X226687Y132532D01*
X226866Y132478D01*
X226956Y132442D01*
X227297Y132281D01*
X227368Y132263D01*
X227548Y132209D01*
X227638Y132173D01*
X227943Y132029D01*
X228068Y131975D01*
X228230Y131904D01*
X228355Y131850D01*
X228472Y131805D01*
X228562Y131769D01*
X228849Y131661D01*
X229001Y131581D01*
X229270Y131455D01*
X229387Y131410D01*
X229477Y131374D01*
X229504Y131347D01*
X229880Y131168D01*
X230401Y130917D01*
X230518Y130872D01*
X230661Y130782D01*
X230724Y130737D01*
X230849Y130684D01*
X230966Y130639D01*
X231056Y130603D01*
X231083Y130576D01*
X231118Y130558D01*
X231226Y130486D01*
X231262Y130468D01*
X231567Y130307D01*
X231603Y130271D01*
X231980Y130073D01*
X232087Y130002D01*
X232123Y129984D01*
X232285Y129894D01*
X232410Y129822D01*
X232536Y129733D01*
X232805Y129589D01*
X232895Y129499D01*
X233164Y129356D01*
X233200Y129320D01*
X233236Y129302D01*
X233334Y129221D01*
X233361Y129194D01*
X233487Y129122D01*
X233613Y129033D01*
X233648Y129015D01*
X233684Y128979D01*
X233720Y128961D01*
X234007Y128746D01*
X234043Y128710D01*
X234079Y128692D01*
X234187Y128620D01*
X234312Y128548D01*
X234357Y128486D01*
X234438Y128405D01*
X234474Y128387D01*
X234599Y128261D01*
X234635Y128243D01*
X234725Y128154D01*
X234761Y128136D01*
X234922Y128010D01*
X235012Y127920D01*
X235048Y127902D01*
X235138Y127813D01*
X235174Y127795D01*
X235488Y127481D01*
X235506Y127445D01*
X235918Y127032D01*
X235936Y126996D01*
X236026Y126907D01*
X236044Y126871D01*
X236098Y126817D01*
X236116Y126781D01*
X236170Y126727D01*
X236187Y126691D01*
X236223Y126655D01*
X236241Y126620D01*
X236367Y126494D01*
X236385Y126458D01*
X236537Y126234D01*
X236618Y126099D01*
X236636Y126063D01*
X236726Y125920D01*
X236744Y125884D01*
X236779Y125848D01*
X236797Y125812D01*
X236833Y125776D01*
X236851Y125740D01*
X236923Y125579D01*
X236995Y125399D01*
X237013Y125364D01*
X237085Y125256D01*
X237138Y125130D01*
X237183Y125014D01*
X237291Y124709D01*
X237363Y124529D01*
X237390Y124431D01*
X237407Y124359D01*
X237425Y124126D01*
X237443Y124054D01*
X237470Y123776D01*
X237488Y123542D01*
X237497Y123175D01*
X237479Y123121D01*
X237452Y122645D01*
X237434Y122430D01*
X237417Y122268D01*
X237381Y122089D01*
X237309Y121892D01*
X237273Y121802D01*
X237228Y121649D01*
X237147Y121425D01*
X237111Y121335D01*
X236977Y121075D01*
X236941Y120985D01*
X236878Y120815D01*
X236806Y120707D01*
X236779Y120680D01*
X236762Y120644D01*
X236690Y120537D01*
X236672Y120501D01*
X236600Y120375D01*
X236421Y120124D01*
X236403Y120088D01*
X236250Y119864D01*
X236187Y119801D01*
X236170Y119765D01*
X236080Y119676D01*
X236062Y119640D01*
X236017Y119595D01*
X235990Y119586D01*
X235972Y119550D01*
X235936Y119532D01*
X235918Y119496D01*
X235882Y119460D01*
X235864Y119424D01*
X235828Y119388D01*
X235811Y119353D01*
X235784Y119326D01*
X235748Y119308D01*
X235703Y119263D01*
X235685Y119227D01*
X235299Y118841D01*
X235263Y118823D01*
X234976Y118536D01*
X234940Y118518D01*
X234878Y118456D01*
X234860Y118420D01*
X234824Y118384D01*
X234815Y118357D01*
X234779Y118339D01*
X234617Y118249D01*
X234519Y118168D01*
X234438Y118088D01*
X234402Y118070D01*
X234330Y117998D01*
X234294Y117980D01*
X234205Y117890D01*
X234169Y117872D01*
X234115Y117818D01*
X233989Y117747D01*
X233828Y117621D01*
X233774Y117567D01*
X233648Y117496D01*
X233550Y117415D01*
X233442Y117325D01*
X233415Y117298D01*
X233146Y117155D01*
X232913Y116993D01*
X232787Y116921D01*
X232662Y116832D01*
X232357Y116670D01*
X232321Y116634D01*
X232285Y116616D01*
X232249Y116580D01*
X231944Y116419D01*
X231836Y116347D01*
X231800Y116329D01*
X231711Y116276D01*
X231585Y116222D01*
X231424Y116132D01*
X231316Y116060D01*
X231280Y116042D01*
X230975Y115899D01*
X230778Y115791D01*
X230742Y115755D01*
X230616Y115701D01*
X230446Y115638D01*
X230338Y115567D01*
X230114Y115450D01*
X229997Y115405D01*
X229889Y115351D01*
X229611Y115199D01*
X229513Y115172D01*
X229342Y115091D01*
X229073Y114966D01*
X228947Y114912D01*
X228858Y114876D01*
X228660Y114768D01*
X228535Y114714D01*
X228409Y114679D01*
X228239Y114616D01*
X228176Y114589D01*
X228050Y114517D01*
X227961Y114481D01*
X227790Y114418D01*
X227691Y114392D01*
X227530Y114320D01*
X227261Y114194D01*
X227189Y114176D01*
X226965Y114095D01*
X226785Y114024D01*
X226687Y113979D01*
X226561Y113925D01*
X226489Y113907D01*
X226310Y113853D01*
X226220Y113817D01*
X225987Y113710D01*
X225628Y113602D01*
X225377Y113494D01*
X225287Y113458D01*
X225215Y113441D01*
X225162Y113423D01*
X224991Y113360D01*
X224686Y113252D01*
X224569Y113207D01*
X224480Y113171D01*
X224363Y113144D01*
X224184Y113109D01*
X224085Y113082D01*
X223888Y112992D01*
X223798Y112956D01*
X223565Y112884D01*
X223466Y112857D01*
X223376Y112839D01*
X223224Y112794D01*
X223107Y112750D01*
X223017Y112714D01*
X222919Y112669D01*
X222703Y112615D01*
X222515Y112570D01*
X222309Y112472D01*
X222237Y112454D01*
X222120Y112427D01*
X222030Y112409D01*
X221959Y112391D01*
X221860Y112364D01*
X221788Y112346D01*
X221663Y112310D01*
X221438Y112229D01*
X221322Y112185D01*
X221232Y112149D01*
X221133Y112122D01*
X221062Y112104D01*
X220972Y112086D01*
X220900Y112068D01*
X220792Y112050D01*
X220721Y112032D01*
X220631Y112014D01*
X220559Y111996D01*
X220362Y111906D01*
X220281Y111880D01*
X220156Y111862D01*
X220084Y111844D01*
X219931Y111817D01*
X219680Y111727D01*
X219608Y111709D01*
X219492Y111664D01*
X219420Y111646D01*
X219303Y111619D01*
X219214Y111601D01*
X219142Y111583D01*
X219034Y111565D01*
X218891Y111530D01*
X218738Y111485D01*
X218612Y111449D01*
X218541Y111431D01*
X218442Y111404D01*
X218236Y111341D01*
X218164Y111323D01*
X217886Y111278D01*
X217688Y111207D01*
X217374Y111108D01*
X217159Y111072D01*
X217087Y111054D01*
X216881Y111009D01*
X216809Y110991D01*
X216692Y110946D01*
X216477Y110893D01*
X216325Y110866D01*
X216181Y110830D01*
X215858Y110776D01*
X215715Y110740D01*
X215329Y110624D01*
X215257Y110606D01*
X215131Y110588D01*
X215060Y110570D01*
X214907Y110543D01*
X214728Y110507D01*
X214584Y110471D01*
X214486Y110444D01*
X214414Y110426D01*
X214306Y110408D01*
X214216Y110372D01*
X214091Y110336D01*
X214019Y110318D01*
X213741Y110292D01*
X213651Y110274D01*
X213544Y110256D01*
X213328Y110202D01*
X213229Y110175D01*
X213104Y110139D01*
X212889Y110085D01*
X212772Y110058D01*
X212664Y110040D01*
X212521Y110022D01*
X212341Y110004D01*
X212144Y109968D01*
X212027Y109924D01*
X211902Y109888D01*
X211695Y109843D01*
X211606Y109825D01*
X211534Y109807D01*
X211444Y109789D01*
X211229Y109753D01*
X210888Y109699D01*
X210798Y109681D01*
X210700Y109654D01*
X210520Y109601D01*
X210377Y109565D01*
X210188Y109538D01*
X209758Y109484D01*
X209542Y109448D01*
X209345Y109394D01*
X209130Y109341D01*
X208591Y109251D01*
X208502Y109233D01*
X208394Y109215D01*
X208053Y109161D01*
X207936Y109116D01*
X207793Y109080D01*
X207587Y109054D01*
X207353Y109018D01*
X206985Y108973D01*
X206914Y108955D01*
X206761Y108928D01*
X206671Y108910D01*
X206528Y108874D01*
X206429Y108847D01*
X206357Y108829D01*
X206178Y108811D01*
X206106Y108793D01*
X205936Y108766D01*
X205864Y108748D01*
X205756Y108730D01*
X205559Y108712D01*
X205398Y108695D01*
X205075Y108641D01*
X204895Y108605D01*
X204796Y108578D01*
X204491Y108524D01*
X204420Y108506D01*
X204061Y108470D01*
X203854Y108443D01*
X203612Y108416D01*
X203540Y108398D01*
X203370Y108372D01*
X203271Y108345D01*
X203155Y108318D01*
X202975Y108282D01*
X202733Y108255D01*
X202661Y108237D01*
X202177Y108183D01*
X202105Y108165D01*
X201908Y108147D01*
X201854Y108129D01*
X201674Y108076D01*
X201423Y108040D01*
X201118Y108004D01*
X201046Y107986D01*
X200750Y107959D01*
X200427Y107923D01*
X200194Y107887D01*
X200086Y107869D01*
X199853Y107833D01*
X199638Y107780D01*
X199494Y107762D01*
X199261Y107744D01*
X199118Y107726D01*
X198956Y107708D01*
X198812Y107690D01*
X198651Y107672D01*
X198418Y107636D01*
X198310Y107618D01*
X198131Y107582D01*
X197888Y107555D01*
X197817Y107537D01*
X197646Y107510D01*
X197538Y107492D01*
X197108Y107457D01*
X196516Y107403D01*
X196157Y107349D01*
X196067Y107331D01*
X195825Y107304D01*
X195753Y107286D01*
X195529Y107241D01*
X195385Y107223D01*
X195080Y107205D01*
X194883Y107187D01*
X194524Y107151D01*
X194363Y107134D01*
X193932Y107080D01*
X193753Y107062D01*
X193555Y107026D01*
X193456Y106999D01*
X193331Y106981D01*
X192981Y106954D01*
X192784Y106936D01*
X192550Y106918D01*
X192335Y106900D01*
X192138Y106882D01*
X191976Y106864D01*
X191797Y106846D01*
X191599Y106828D01*
X191510Y106811D01*
X191357Y106766D01*
X191232Y106748D01*
X190648Y106703D01*
X190451Y106685D01*
X190272Y106667D01*
X190056Y106649D01*
X189805Y106631D01*
X189500Y106613D01*
X189392Y106595D01*
X189321Y106577D01*
X189213Y106559D01*
X189016Y106542D01*
X188693Y106506D01*
X188549Y106488D01*
X188226Y106452D01*
X187795Y106416D01*
X187455Y106398D01*
X187203Y106380D01*
X186898Y106362D01*
X186701Y106344D01*
X186522Y106326D01*
X186414Y106308D01*
X186172Y106281D01*
X186100Y106263D01*
X185921Y106245D01*
X185795Y106228D01*
X185562Y106210D01*
X184987Y106174D01*
X184557Y106156D01*
X184503Y106138D01*
X184360Y106120D01*
X184171Y106021D01*
X184153Y105985D01*
X184099Y105860D01*
X184072Y105707D01*
X184055Y105635D01*
X184037Y105546D01*
X184019Y105474D01*
X184001Y105384D01*
X183974Y105286D01*
X183875Y105007D01*
X183794Y104855D01*
X183758Y104819D01*
X183597Y104514D01*
X183471Y104352D01*
X183364Y104245D01*
X183346Y104209D01*
X183220Y104083D01*
X183202Y104047D01*
X183121Y103949D01*
X183032Y103859D01*
X182996Y103841D01*
X182834Y103716D01*
X182727Y103608D01*
X182691Y103590D01*
X182619Y103518D01*
X182583Y103500D01*
X182484Y103419D01*
X182440Y103375D01*
X182404Y103357D01*
X182206Y103249D01*
X182108Y103168D01*
X182000Y103096D01*
X181821Y102989D01*
X181713Y102917D01*
X181650Y102872D01*
X181237Y102657D01*
X180466Y102280D01*
X180376Y102244D01*
X180260Y102199D01*
X180080Y102110D01*
X179614Y101948D01*
X179282Y101796D01*
X179165Y101769D01*
X179093Y101751D01*
X178950Y101697D01*
X178860Y101661D01*
X178717Y101607D01*
X178402Y101508D01*
X178259Y101473D01*
X178079Y101419D01*
X177900Y101347D01*
X177721Y101293D01*
X177577Y101257D01*
X177478Y101230D01*
X177407Y101212D01*
X177155Y101123D01*
X176949Y101060D01*
X176823Y101042D01*
X176752Y101024D01*
X176563Y100997D01*
X176492Y100979D01*
X176016Y100827D01*
X175873Y100791D01*
X175738Y100764D01*
X175505Y100728D01*
X175433Y100710D01*
X175325Y100692D01*
X175146Y100656D01*
X175002Y100620D01*
X174913Y100584D01*
X174814Y100557D01*
X174742Y100540D01*
X174491Y100504D01*
X174419Y100486D01*
X174294Y100468D01*
X174222Y100450D01*
X174096Y100432D01*
X174024Y100414D01*
X173854Y100387D01*
X173746Y100369D01*
X173549Y100315D01*
X173334Y100261D01*
X173226Y100243D01*
X172984Y100217D01*
X172912Y100199D01*
X172724Y100172D01*
X172562Y100154D01*
X172329Y100118D01*
X172114Y100064D01*
X171934Y100028D01*
X171826Y100010D01*
X171737Y99992D01*
X171593Y99974D01*
X171351Y99948D01*
X171279Y99929D01*
X171019Y99903D01*
X170875Y99885D01*
X170786Y99867D01*
X170687Y99840D01*
X170561Y99822D01*
X170490Y99804D01*
X170265Y99777D01*
X170176Y99759D01*
X170068Y99741D01*
X169745Y99705D01*
X169350Y99669D01*
X168812Y99616D01*
X168722Y99598D01*
X168624Y99571D01*
X168444Y99553D01*
X168372Y99535D01*
X168166Y99508D01*
X167879Y99472D01*
X167664Y99454D01*
X167430Y99436D01*
X167179Y99418D01*
X166713Y99382D01*
X166641Y99364D01*
X166542Y99337D01*
X166363Y99319D01*
X166067Y99293D01*
X165905Y99275D01*
X165546Y99239D01*
X165349Y99221D01*
X165116Y99203D01*
X164757Y99185D01*
X164506Y99167D01*
X164039Y99149D01*
X163752Y99131D01*
X163519Y99113D01*
X163357Y99095D01*
X163178Y99077D01*
X163034Y99059D01*
X162568Y99023D01*
X162326Y98997D01*
X161635Y98970D01*
X161222Y98952D01*
X160648Y98934D01*
X160253Y98916D01*
X159428Y98898D01*
X157903Y98862D01*
X156826Y98844D01*
X155041Y98835D01*
X154987Y98853D01*
X154619Y98844D01*
X154503Y98853D01*
X154485Y98835D01*
X154431Y98853D01*
X153282Y98871D01*
X152942Y98889D01*
X151587Y98916D01*
X150483Y98943D01*
X149990Y98970D01*
X149613Y98988D01*
X149380Y99006D01*
X149165Y99023D01*
X149003Y99041D01*
X148644Y99077D01*
X148429Y99095D01*
X148124Y99113D01*
X147944Y99131D01*
X147532Y99149D01*
X147227Y99167D01*
X146904Y99185D01*
X146374Y99212D01*
X146303Y99230D01*
X145944Y99248D01*
X145890Y99266D01*
X145612Y99293D01*
X145208Y99337D01*
X145136Y99355D01*
X144903Y99373D01*
X144831Y99391D01*
X144517Y99418D01*
X144338Y99436D01*
X144051Y99454D01*
X143853Y99472D01*
X143674Y99490D01*
X143477Y99508D01*
X143244Y99544D01*
X143064Y99580D01*
X142956Y99598D01*
X142867Y99616D01*
X142580Y99651D01*
X142400Y99669D01*
X142167Y99687D01*
X141916Y99705D01*
X141808Y99723D01*
X141566Y99750D01*
X141288Y99795D01*
X141216Y99813D01*
X141108Y99831D01*
X140929Y99867D01*
X140184Y99965D01*
X140112Y99983D01*
X139843Y100001D01*
X139789Y100019D01*
X139574Y100055D01*
X139502Y100073D01*
X139278Y100118D01*
X139206Y100136D01*
X139027Y100172D01*
X138785Y100199D01*
X138713Y100217D01*
X138489Y100243D01*
X138381Y100261D01*
X138291Y100279D01*
X138148Y100315D01*
X138058Y100333D01*
X137950Y100351D01*
X137735Y100405D01*
X137636Y100432D01*
X137511Y100450D01*
X137286Y100477D01*
X137071Y100513D01*
X136999Y100531D01*
X136910Y100549D01*
X136811Y100575D01*
X136739Y100593D01*
X136488Y100665D01*
X136416Y100683D01*
X136300Y100710D01*
X136084Y100746D01*
X135941Y100764D01*
X135779Y100782D01*
X135707Y100800D01*
X135501Y100898D01*
X135429Y100916D01*
X134954Y101015D01*
X134739Y101069D01*
X134559Y101141D01*
X134407Y101186D01*
X133976Y101293D01*
X133859Y101320D01*
X133788Y101338D01*
X133608Y101410D01*
X133510Y101455D01*
X133366Y101490D01*
X133177Y101535D01*
X133106Y101553D01*
X132774Y101706D01*
X132648Y101742D01*
X132576Y101760D01*
X132460Y101787D01*
X132388Y101804D01*
X132271Y101849D01*
X131966Y101993D01*
X131787Y102047D01*
X131670Y102074D01*
X131527Y102128D01*
X131500Y102154D01*
X131464Y102172D01*
X131428Y102208D01*
X131338Y102244D01*
X131114Y102325D01*
X130935Y102433D01*
X130845Y102468D01*
X130746Y102513D01*
X130630Y102558D01*
X130450Y102666D01*
X130405Y102711D01*
X130208Y102800D01*
X130082Y102854D01*
X130046Y102872D01*
X129921Y102962D01*
X129724Y103087D01*
X129562Y103177D01*
X129212Y103437D01*
X129113Y103500D01*
X129078Y103536D01*
X129042Y103554D01*
X129006Y103590D01*
X128970Y103608D01*
X128844Y103733D01*
X128808Y103751D01*
X128647Y103877D01*
X128566Y103958D01*
X128548Y103994D01*
X128423Y104119D01*
X128405Y104155D01*
X128207Y104352D01*
X128118Y104514D01*
X127992Y104675D01*
X127920Y104783D01*
X127866Y104909D01*
X127822Y105025D01*
X127777Y105124D01*
X127732Y105241D01*
X127687Y105393D01*
X127669Y105465D01*
X127633Y105680D01*
X127615Y105752D01*
X127597Y105913D01*
X127517Y106066D01*
X127391Y106120D01*
X127265Y106138D01*
X126871Y106156D01*
X126799Y106174D01*
X126350Y106192D01*
X126296Y106210D01*
X125947Y106236D01*
X125749Y106254D01*
X125498Y106272D01*
X125328Y106299D01*
X125274Y106317D01*
X125202Y106335D01*
X124969Y106353D01*
X124242Y106398D01*
X123991Y106416D01*
X123758Y106434D01*
X123399Y106452D01*
X123255Y106470D01*
X123183Y106488D01*
X123094Y106506D01*
X122878Y106524D01*
X122591Y106559D01*
X122484Y106577D01*
X122196Y106613D01*
X122017Y106631D01*
X121766Y106649D01*
X121237Y106676D01*
X121111Y106694D01*
X120931Y106712D01*
X120635Y106739D01*
X120492Y106757D01*
X120133Y106811D01*
X119622Y106873D01*
X119442Y106891D01*
X119128Y106918D01*
X118886Y106945D01*
X118518Y106972D01*
X118339Y106990D01*
X118195Y107008D01*
X117962Y107044D01*
X117854Y107062D01*
X117487Y107107D01*
X117361Y107125D01*
X117101Y107151D01*
X116993Y107169D01*
X116796Y107187D01*
X116562Y107205D01*
X116365Y107223D01*
X116221Y107241D01*
X116060Y107259D01*
X115952Y107277D01*
X115612Y107331D01*
X115396Y107367D01*
X115217Y107385D01*
X115073Y107403D01*
X114965Y107421D01*
X114822Y107439D01*
X114517Y107457D01*
X114320Y107475D01*
X114176Y107492D01*
X113961Y107528D01*
X113889Y107546D01*
X113709Y107582D01*
X113602Y107600D01*
X113512Y107618D01*
X113405Y107636D01*
X113046Y107672D01*
X112902Y107690D01*
X112660Y107717D01*
X112382Y107744D01*
X112095Y107780D01*
X111772Y107833D01*
X111682Y107851D01*
X111610Y107869D01*
X111521Y107887D01*
X111413Y107905D01*
X111171Y107932D01*
X110991Y107950D01*
X110785Y107977D01*
X110641Y107995D01*
X110444Y108013D01*
X110300Y108031D01*
X110211Y108049D01*
X110139Y108067D01*
X110031Y108084D01*
X109959Y108103D01*
X109780Y108138D01*
X109672Y108156D01*
X109439Y108192D01*
X109197Y108219D01*
X109071Y108237D01*
X108820Y108255D01*
X108766Y108273D01*
X108551Y108309D01*
X108425Y108327D01*
X108354Y108345D01*
X108237Y108372D01*
X108147Y108390D01*
X108075Y108407D01*
X107968Y108425D01*
X107600Y108470D01*
X107474Y108488D01*
X107295Y108506D01*
X107223Y108524D01*
X107035Y108551D01*
X106891Y108569D01*
X106801Y108587D01*
X106730Y108605D01*
X106631Y108632D01*
X106559Y108650D01*
X106380Y108668D01*
X106308Y108686D01*
X106138Y108712D01*
X105770Y108757D01*
X105698Y108775D01*
X105492Y108802D01*
X105420Y108820D01*
X105330Y108838D01*
X105258Y108856D01*
X105160Y108883D01*
X105034Y108919D01*
X104657Y108973D01*
X104478Y108991D01*
X104352Y109009D01*
X104074Y109054D01*
X103984Y109071D01*
X103697Y109143D01*
X103608Y109161D01*
X103500Y109179D01*
X103410Y109197D01*
X103087Y109251D01*
X102998Y109269D01*
X102854Y109287D01*
X102693Y109305D01*
X102621Y109323D01*
X102415Y109385D01*
X102343Y109403D01*
X102172Y109430D01*
X101993Y109466D01*
X101885Y109484D01*
X101652Y109520D01*
X101508Y109538D01*
X101401Y109556D01*
X101311Y109574D01*
X101168Y109610D01*
X101069Y109637D01*
X100943Y109672D01*
X100818Y109690D01*
X100746Y109708D01*
X100575Y109735D01*
X100396Y109771D01*
X100288Y109789D01*
X100145Y109807D01*
X100037Y109825D01*
X99893Y109861D01*
X99795Y109888D01*
X99615Y109942D01*
X99544Y109960D01*
X99328Y109995D01*
X99203Y110013D01*
X99131Y110031D01*
X98979Y110058D01*
X98889Y110076D01*
X98673Y110112D01*
X98530Y110148D01*
X98440Y110184D01*
X98342Y110211D01*
X98270Y110229D01*
X98099Y110256D01*
X97992Y110274D01*
X97723Y110327D01*
X97615Y110345D01*
X97543Y110363D01*
X97453Y110381D01*
X97238Y110435D01*
X97032Y110498D01*
X96960Y110516D01*
X96843Y110543D01*
X96736Y110561D01*
X96592Y110579D01*
X96484Y110597D01*
X96395Y110615D01*
X96323Y110632D01*
X96170Y110677D01*
X96099Y110695D01*
X95982Y110722D01*
X95623Y110812D01*
X95264Y110884D01*
X95192Y110902D01*
X94941Y110991D01*
X94870Y111009D01*
X94771Y111036D01*
X94645Y111054D01*
X94573Y111072D01*
X94367Y111099D01*
X94224Y111153D01*
X94071Y111198D01*
X93954Y111224D01*
X93811Y111260D01*
X93712Y111287D01*
X93497Y111341D01*
X93201Y111404D01*
X93129Y111422D01*
X93039Y111458D01*
X92968Y111476D01*
X92851Y111521D01*
X92636Y111574D01*
X92340Y111619D01*
X92268Y111637D01*
X92044Y111736D01*
X91972Y111754D01*
X91855Y111781D01*
X91765Y111799D01*
X91667Y111826D01*
X91451Y111880D01*
X91272Y111933D01*
X91093Y112005D01*
X90913Y112059D01*
X90797Y112086D01*
X90653Y112122D01*
X90563Y112140D01*
X90491Y112158D01*
X90402Y112176D01*
X90204Y112247D01*
X90106Y112292D01*
X89890Y112346D01*
X89774Y112373D01*
X89702Y112391D01*
X89415Y112498D01*
X89262Y112543D01*
X89047Y112597D01*
X88930Y112624D01*
X88787Y112660D01*
X88590Y112750D01*
X88473Y112794D01*
X88347Y112830D01*
X88132Y112884D01*
X88006Y112920D01*
X87827Y112974D01*
X87701Y113028D01*
X87612Y113064D01*
X87361Y113135D01*
X87289Y113153D01*
X87109Y113225D01*
X87073Y113243D01*
X86912Y113315D01*
X86786Y113351D01*
X86643Y113387D01*
X86526Y113432D01*
X86383Y113485D01*
X86284Y113530D01*
X86158Y113584D01*
X86042Y113611D01*
X85844Y113665D01*
X85773Y113683D01*
X85629Y113736D01*
X85423Y113835D01*
X85333Y113871D01*
X85189Y113907D01*
X85064Y113943D01*
X84938Y113997D01*
X84633Y114140D01*
X84561Y114158D01*
X84445Y114203D01*
X84301Y114257D01*
X84104Y114347D01*
X84014Y114383D01*
X83862Y114445D01*
X83763Y114472D01*
X83619Y114526D01*
X83467Y114607D01*
X83341Y114661D01*
X83117Y114741D01*
X82893Y114858D01*
X82803Y114894D01*
X82677Y114948D01*
X82561Y114992D01*
X82471Y115028D01*
X82211Y115163D01*
X81987Y115244D01*
X81888Y115306D01*
X81852Y115342D01*
X81691Y115414D01*
X81574Y115459D01*
X81403Y115540D01*
X81296Y115612D01*
X81242Y115629D01*
X81081Y115701D01*
X80883Y115809D01*
X80793Y115863D01*
X80757Y115881D01*
X80488Y116006D01*
X80327Y116096D01*
X80291Y116132D01*
X80255Y116150D01*
X80058Y116240D01*
X79986Y116258D01*
X79816Y116374D01*
X79771Y116419D01*
X79501Y116562D01*
X79376Y116652D01*
X79340Y116670D01*
X79035Y116832D01*
X78999Y116868D01*
X78963Y116885D01*
X78838Y116975D01*
X78802Y116993D01*
X78676Y117065D01*
X78577Y117146D01*
X78470Y117218D01*
X78228Y117352D01*
X78192Y117388D01*
X78156Y117406D01*
X78066Y117496D01*
X78030Y117514D01*
X77922Y117585D01*
X77887Y117603D01*
X77788Y117684D01*
X77725Y117747D01*
X77689Y117765D01*
X77564Y117854D01*
X77528Y117872D01*
X77492Y117908D01*
X77456Y117926D01*
X77366Y118016D01*
X77330Y118034D01*
X77223Y118141D01*
X77187Y118159D01*
X77151Y118195D01*
X77115Y118213D01*
X76990Y118303D01*
X76954Y118321D01*
X76855Y118402D01*
X76747Y118509D01*
X76729Y118545D01*
X76684Y118590D01*
X76649Y118608D01*
X76550Y118689D01*
X76469Y118770D01*
X76433Y118787D01*
X76173Y119048D01*
X76155Y119083D01*
X76128Y119110D01*
X76092Y119128D01*
X76030Y119191D01*
X76012Y119227D01*
X75940Y119299D01*
X75931Y119326D01*
X75895Y119344D01*
X75868Y119371D01*
X75850Y119406D01*
X75707Y119550D01*
X75689Y119586D01*
X75653Y119622D01*
X75635Y119658D01*
X75581Y119711D01*
X75563Y119747D01*
X75509Y119801D01*
X75491Y119837D01*
X75437Y119891D01*
X75419Y119927D01*
X75339Y120026D01*
X75312Y120052D01*
X75294Y120088D01*
X75240Y120142D01*
X75222Y120178D01*
X75150Y120286D01*
X75132Y120322D01*
X75043Y120411D01*
X74953Y120609D01*
X74809Y120878D01*
X74720Y121021D01*
X74702Y121093D01*
X74594Y121362D01*
X74576Y121398D01*
X74468Y121631D01*
X74433Y121757D01*
X74361Y122044D01*
X74316Y122250D01*
X74280Y122394D01*
X74199Y122564D01*
X74173Y122591D01*
X74146Y122600D01*
X74155Y123883D01*
X74190Y123901D01*
X74235Y123946D01*
X74271Y124036D01*
X74307Y124251D01*
X74352Y124457D01*
X74370Y124529D01*
X74388Y124619D01*
X74424Y124762D01*
X74496Y124960D01*
X74558Y125076D01*
X74612Y125202D01*
X74693Y125426D01*
X74729Y125516D01*
X74756Y125543D01*
X74774Y125579D01*
X74863Y125722D01*
X75025Y126027D01*
X75106Y126126D01*
X75132Y126153D01*
X75150Y126189D01*
X75312Y126494D01*
X75491Y126673D01*
X75509Y126709D01*
X75599Y126799D01*
X75617Y126835D01*
X75671Y126889D01*
X75689Y126925D01*
X75769Y127041D01*
X75805Y127059D01*
X75940Y127194D01*
X75958Y127230D01*
X76227Y127499D01*
X76245Y127535D01*
X76290Y127579D01*
X76326Y127597D01*
X76523Y127795D01*
X76559Y127813D01*
X76631Y127884D01*
X76666Y127902D01*
X76747Y127983D01*
X76765Y128019D01*
X76810Y128064D01*
X76846Y128082D01*
X76882Y128118D01*
X76918Y128136D01*
X77016Y128216D01*
X77061Y128261D01*
X77097Y128279D01*
X77187Y128369D01*
X77223Y128387D01*
X77268Y128432D01*
X77277Y128459D01*
X77303Y128468D01*
X77312Y128495D01*
X77348Y128513D01*
X77402Y128566D01*
X77438Y128584D01*
X77671Y128710D01*
X77851Y128889D01*
X78012Y128979D01*
X78066Y129033D01*
X78102Y129051D01*
X78156Y129105D01*
X78281Y129176D01*
X78407Y129266D01*
X78443Y129284D01*
X78479Y129320D01*
X78515Y129338D01*
X78658Y129428D01*
X78694Y129446D01*
X78856Y129571D01*
X78963Y129643D01*
X79161Y129751D01*
X79197Y129786D01*
X79322Y129858D01*
X79519Y129966D01*
X79860Y130181D01*
X79977Y130226D01*
X80112Y130307D01*
X80560Y130540D01*
X80704Y130630D01*
X80973Y130737D01*
X81098Y130809D01*
X81242Y130899D01*
X81475Y131007D01*
X81637Y131078D01*
X82336Y131419D01*
X82570Y131527D01*
X82875Y131670D01*
X83054Y131724D01*
X83144Y131760D01*
X83592Y131975D01*
X83817Y132056D01*
X83969Y132137D01*
X84095Y132191D01*
X84220Y132227D01*
X84445Y132307D01*
X84579Y132388D01*
X84651Y132406D01*
X84741Y132442D01*
X84938Y132496D01*
X85028Y132532D01*
X85154Y132586D01*
X85189Y132603D01*
X85423Y132711D01*
X85799Y132819D01*
X85916Y132864D01*
X86069Y132944D01*
X86194Y132980D01*
X86338Y133016D01*
X86508Y133079D01*
X86715Y133178D01*
X86804Y133213D01*
X86921Y133240D01*
X86993Y133258D01*
X87172Y133294D01*
X87244Y133312D01*
X87387Y133366D01*
X87486Y133411D01*
X87648Y133483D01*
X87863Y133537D01*
X87980Y133563D01*
X88051Y133581D01*
X88258Y133680D01*
X88437Y133734D01*
X88563Y133770D01*
X88706Y133806D01*
X88886Y133859D01*
X89065Y133931D01*
X89182Y133976D01*
X89469Y134048D01*
X89567Y134075D01*
X89639Y134093D01*
X89729Y134129D01*
X90007Y134227D01*
X90106Y134254D01*
X90231Y134290D01*
X90447Y134326D01*
X90518Y134344D01*
X90689Y134407D01*
X90806Y134451D01*
X91039Y134523D01*
X91110Y134541D01*
X91317Y134586D01*
X91460Y134622D01*
X91604Y134676D01*
X91756Y134739D01*
X91900Y134774D01*
X92026Y134792D01*
X92232Y134837D01*
X92331Y134864D01*
X92456Y134900D01*
X92555Y134927D01*
X92627Y134945D01*
X92770Y134999D01*
X92869Y135026D01*
X93156Y135098D01*
X93291Y135124D01*
X93398Y135142D01*
X93470Y135160D01*
X93667Y135232D01*
X93874Y135295D01*
X93945Y135313D01*
X94241Y135358D01*
X94313Y135376D01*
X94520Y135438D01*
X94708Y135483D01*
X94780Y135501D01*
X94879Y135528D01*
X95094Y135582D01*
X95551Y135681D01*
X95623Y135699D01*
X95767Y135752D01*
X95919Y135797D01*
X95991Y135815D01*
X96117Y135833D01*
X96287Y135860D01*
X96431Y135896D01*
X96700Y135950D01*
X96843Y135986D01*
X96996Y136030D01*
X97068Y136048D01*
X97184Y136075D01*
X97274Y136093D01*
X97489Y136129D01*
X97669Y136165D01*
X97740Y136183D01*
X97839Y136210D01*
X97929Y136246D01*
X98144Y136300D01*
X98270Y136318D01*
X98342Y136336D01*
X98512Y136363D01*
X98655Y136380D01*
X98889Y136416D01*
X98961Y136434D01*
X99059Y136461D01*
X99239Y136515D01*
X99364Y136551D01*
X99490Y136569D01*
X99562Y136587D01*
X99947Y136650D01*
X100037Y136668D01*
X100252Y136703D01*
X100342Y136721D01*
X100414Y136739D01*
X100557Y136793D01*
X100629Y136811D01*
X100719Y136829D01*
X100961Y136856D01*
X101033Y136874D01*
X101410Y136928D01*
X101481Y136946D01*
X101634Y136972D01*
X101706Y136990D01*
X101804Y137017D01*
X101930Y137053D01*
X102074Y137089D01*
X102199Y137107D01*
X102271Y137125D01*
X102522Y137143D01*
X102576Y137161D01*
X102702Y137179D01*
X102773Y137197D01*
X102962Y137224D01*
X103051Y137242D01*
X103258Y137304D01*
X103401Y137340D01*
X103653Y137376D01*
X103832Y137394D01*
X103904Y137412D01*
X104110Y137439D01*
X104325Y137475D01*
X104505Y137511D01*
X104577Y137529D01*
X104675Y137556D01*
X104747Y137574D01*
X105124Y137627D01*
X105196Y137645D01*
X105402Y137672D01*
X105689Y137708D01*
X106012Y137762D01*
X106156Y137798D01*
X106254Y137825D01*
X106326Y137843D01*
X106452Y137861D01*
X106523Y137879D01*
X106730Y137906D01*
X106909Y137924D01*
X107142Y137941D01*
X107483Y137995D01*
X107573Y138013D01*
X107717Y138049D01*
X107815Y138076D01*
X107932Y138103D01*
X108147Y138139D01*
X108389Y138166D01*
X108623Y138184D01*
X108775Y138211D01*
X108955Y138247D01*
X109188Y138282D01*
X109457Y138336D01*
X109672Y138372D01*
X109959Y138408D01*
X110282Y138444D01*
X110462Y138462D01*
X110659Y138480D01*
X110767Y138498D01*
X110839Y138516D01*
X110955Y138560D01*
X111135Y138578D01*
X111206Y138596D01*
X111431Y138623D01*
X111673Y138650D01*
X111799Y138668D01*
X112077Y138695D01*
X112364Y138731D01*
X112471Y138749D01*
X112714Y138776D01*
X112785Y138794D01*
X113010Y138839D01*
X113117Y138856D01*
X113261Y138874D01*
X113494Y138910D01*
X113638Y138928D01*
X113853Y138946D01*
X114086Y138964D01*
X114284Y138982D01*
X114445Y139000D01*
X114589Y139018D01*
X114750Y139036D01*
X114858Y139054D01*
X114948Y139072D01*
X115019Y139090D01*
X115127Y139108D01*
X115638Y139171D01*
X115764Y139189D01*
X116051Y139206D01*
X116177Y139224D01*
X116473Y139251D01*
X116652Y139269D01*
X116814Y139287D01*
X117011Y139323D01*
X117164Y139368D01*
X117800Y139431D01*
X118016Y139449D01*
X118411Y139485D01*
X118626Y139503D01*
X118931Y139520D01*
X119074Y139538D01*
X119164Y139556D01*
X119272Y139574D01*
X119451Y139592D01*
X119667Y139628D01*
X119909Y139655D01*
X119981Y139673D01*
X120295Y139700D01*
X120456Y139718D01*
X120600Y139754D01*
X120707Y139825D01*
X120770Y139870D01*
X120842Y139978D01*
X120869Y140059D01*
X120905Y140202D01*
X120931Y140355D01*
X120949Y140427D01*
X121003Y140570D01*
X121102Y140794D01*
X121174Y141046D01*
X121192Y141117D01*
X121228Y141243D01*
X121272Y141359D01*
X121407Y141656D01*
X121461Y141835D01*
X121497Y141925D01*
X121542Y142041D01*
X121586Y142140D01*
X121640Y142266D01*
X121757Y142598D01*
X121856Y142840D01*
X121927Y143019D01*
X121999Y143181D01*
X122035Y143271D01*
X122089Y143396D01*
X122107Y143432D01*
X122161Y143558D01*
X122196Y143647D01*
X122277Y143872D01*
X122430Y144150D01*
X122475Y144266D01*
X122537Y144419D01*
X122555Y144455D01*
X122663Y144652D01*
X122735Y144814D01*
X122798Y144984D01*
X122887Y145127D01*
X122968Y145262D01*
X122986Y145334D01*
X123022Y145424D01*
X123129Y145621D01*
X123273Y145926D01*
X123345Y146052D01*
X123435Y146177D01*
X123847Y146967D01*
X123937Y147110D01*
X124009Y147236D01*
X124081Y147344D01*
X124170Y147505D01*
X124242Y147613D01*
X124385Y147882D01*
X124439Y147936D01*
X124457Y147971D01*
X124529Y148097D01*
X124619Y148259D01*
X124744Y148438D01*
X124762Y148474D01*
X124834Y148600D01*
X124996Y148833D01*
X125013Y148869D01*
X125121Y149066D01*
X125292Y149290D01*
X125417Y149488D01*
X125552Y149676D01*
X125570Y149712D01*
X125839Y150089D01*
X125857Y150125D01*
X125938Y150223D01*
X125982Y150286D01*
X126018Y150322D01*
X126036Y150358D01*
X126108Y150466D01*
X126126Y150501D01*
X126252Y150663D01*
X126341Y150788D01*
X126359Y150824D01*
X126395Y150860D01*
X126413Y150896D01*
X126467Y150950D01*
X126485Y150986D01*
X126557Y151058D01*
X126575Y151093D01*
X126646Y151201D01*
X126664Y151237D01*
X126745Y151336D01*
X126826Y151417D01*
X126844Y151452D01*
X127014Y151677D01*
X127077Y151740D01*
X127095Y151775D01*
X127131Y151811D01*
X127149Y151847D01*
X127220Y151919D01*
X127238Y151955D01*
X127274Y151991D01*
X127292Y152027D01*
X127328Y152062D01*
X127346Y152098D01*
X127382Y152134D01*
X127400Y152170D01*
X127481Y152269D01*
X127669Y152457D01*
X127687Y152493D01*
X127723Y152529D01*
X127741Y152565D01*
X127848Y152673D01*
X127866Y152708D01*
X127938Y152780D01*
X127956Y152816D01*
X128046Y152906D01*
X128064Y152942D01*
X128118Y152996D01*
X128136Y153031D01*
X128369Y153265D01*
X128387Y153300D01*
X128423Y153336D01*
X128441Y153372D01*
X128620Y153552D01*
X128638Y153588D01*
X128710Y153659D01*
X128728Y153695D01*
X128925Y153893D01*
X128943Y153928D01*
X129122Y154108D01*
X129140Y154144D01*
X129293Y154296D01*
X129329Y154314D01*
X129392Y154377D01*
X129410Y154413D01*
X129912Y154915D01*
X129921Y154942D01*
X129957Y154960D01*
X130002Y155023D01*
X130037Y155041D01*
X130055Y155077D01*
X130082Y155104D01*
X130118Y155122D01*
X130513Y155517D01*
X130549Y155534D01*
X130872Y155857D01*
X130908Y155875D01*
X131069Y156037D01*
X131105Y156055D01*
X131231Y156180D01*
X131267Y156198D01*
X131320Y156252D01*
X131356Y156270D01*
X131410Y156324D01*
X131446Y156342D01*
X131509Y156405D01*
X131527Y156440D01*
X131590Y156503D01*
X131625Y156521D01*
X131661Y156557D01*
X131697Y156575D01*
X131805Y156683D01*
X131841Y156701D01*
X131930Y156790D01*
X131966Y156808D01*
X132002Y156844D01*
X132038Y156862D01*
X132110Y156934D01*
X132146Y156952D01*
X132236Y157042D01*
X132271Y157060D01*
X132379Y157167D01*
X132415Y157185D01*
X132451Y157221D01*
X132487Y157239D01*
X132594Y157347D01*
X132630Y157365D01*
X132774Y157508D01*
X132810Y157526D01*
X132846Y157562D01*
X132881Y157580D01*
X133043Y157705D01*
X133079Y157741D01*
X133115Y157759D01*
X133151Y157795D01*
X133186Y157813D01*
X133222Y157849D01*
X133258Y157867D01*
X133384Y157957D01*
X133420Y157975D01*
X133510Y158064D01*
X133545Y158082D01*
X133635Y158190D01*
X133671Y158226D01*
X133707Y158244D01*
X133815Y158316D01*
X133850Y158334D01*
X134075Y158504D01*
X134119Y158549D01*
X134155Y158567D01*
X134326Y158683D01*
X134433Y158755D01*
X134460Y158782D01*
X134496Y158800D01*
X134595Y158881D01*
X134622Y158908D01*
X134658Y158926D01*
X134730Y158997D01*
X134766Y159015D01*
X134963Y159123D01*
X135124Y159249D01*
X135160Y159284D01*
X135196Y159302D01*
X135340Y159392D01*
X135501Y159482D01*
X135537Y159518D01*
X135573Y159536D01*
X135627Y159590D01*
X135663Y159607D01*
X135860Y159715D01*
X135896Y159751D01*
X135932Y159769D01*
X135968Y159805D01*
X136003Y159823D01*
X136129Y159895D01*
X136273Y159984D01*
X136309Y160002D01*
X136344Y160038D01*
X136380Y160056D01*
X136488Y160128D01*
X136650Y160217D01*
X136685Y160253D01*
X136721Y160271D01*
X136757Y160307D01*
X136793Y160325D01*
X136937Y160415D01*
X137062Y160487D01*
X137233Y160603D01*
X137430Y160693D01*
X137529Y160756D01*
X137636Y160828D01*
X137672Y160845D01*
X137780Y160917D01*
X137870Y160953D01*
X138067Y161061D01*
X138210Y161151D01*
X138515Y161312D01*
X138964Y161545D01*
X139090Y161635D01*
X139179Y161671D01*
X139341Y161743D01*
X139718Y161922D01*
X139754Y161940D01*
X139915Y162012D01*
X140400Y162245D01*
X140597Y162353D01*
X140758Y162425D01*
X140848Y162460D01*
X140965Y162505D01*
X141261Y162658D01*
X141386Y162712D01*
X141458Y162730D01*
X141682Y162810D01*
X141709Y162837D01*
X141943Y162945D01*
X142041Y162972D01*
X142113Y162990D01*
X142292Y163061D01*
X142427Y163142D01*
X142553Y163196D01*
X142651Y163223D01*
X142723Y163241D01*
X142822Y163268D01*
X142840D01*
X142849Y163277D01*
X142992Y163331D01*
X143145Y163393D01*
X143270Y163447D01*
X143441Y163510D01*
X143647Y163573D01*
X143764Y163618D01*
X144024Y163734D01*
X144096Y163752D01*
X144221Y163770D01*
X144293Y163788D01*
X144464Y163851D01*
X144562Y163896D01*
X144688Y163950D01*
X144885Y164003D01*
X145029Y164039D01*
X145307Y164138D01*
X145459Y164201D01*
X145675Y164255D01*
X145863Y164281D01*
X145935Y164299D01*
X146114Y164371D01*
X146473Y164461D01*
X146572Y164488D01*
X146931Y164578D01*
X147047Y164604D01*
X147191Y164640D01*
X147290Y164667D01*
X147523Y164739D01*
X147595Y164757D01*
X147720Y164775D01*
X147792Y164793D01*
X147971Y164811D01*
X148025Y164829D01*
X148097Y164847D01*
X148223Y164883D01*
X148294Y164901D01*
X148429Y164927D01*
X148644Y164981D01*
X148824Y165017D01*
X148931Y165035D01*
X149174Y165062D01*
X149245Y165080D01*
X149371Y165098D01*
X149443Y165116D01*
X149559Y165143D01*
X149712Y165188D01*
X149829Y165215D01*
X150151Y165268D01*
X150367Y165286D01*
X150600Y165304D01*
X150779Y165322D01*
X150923Y165340D01*
X151138Y165376D01*
X151318Y165412D01*
X151533Y165448D01*
X151775Y165475D01*
X151901Y165493D01*
X152188Y165511D01*
X152242Y165529D01*
X152690Y165547D01*
X152762Y165565D01*
X153632Y165609D01*
X153919Y165627D01*
X154225Y165645D01*
X154565Y165663D01*
X155032Y165681D01*
X156853Y165690D01*
X156907Y165672D01*
D02*
G37*
%LPC*%
G36*
X153354Y139565D02*
X153300Y139547D01*
X150125Y139529D01*
X150071Y139511D01*
X147469Y139494D01*
X147415Y139476D01*
X145136Y139458D01*
X145083Y139440D01*
X143809Y139422D01*
X143755Y139404D01*
X142858Y139386D01*
X142804Y139368D01*
X141988Y139341D01*
X141790Y139323D01*
X140857Y139287D01*
X140462Y139269D01*
X139834Y139251D01*
X139440Y139233D01*
X138471Y139197D01*
X137897Y139180D01*
X137574Y139162D01*
X137089Y139144D01*
X136856Y139126D01*
X136658Y139108D01*
X136443Y139090D01*
X136210Y139072D01*
X135815Y139054D01*
X135654Y139036D01*
X135510Y139018D01*
X134595Y138982D01*
X134182Y138964D01*
X133644Y138946D01*
X133447Y138928D01*
X132908Y138910D01*
X132585Y138892D01*
X132370Y138874D01*
X132227Y138856D01*
X132047Y138839D01*
X131616Y138803D01*
X131419Y138785D01*
X130845Y138749D01*
X130540Y138731D01*
X130217Y138713D01*
X129930Y138695D01*
X129517Y138677D01*
X129320Y138659D01*
X128979Y138641D01*
X128781Y138623D01*
X128602Y138605D01*
X128458Y138587D01*
X128055Y138542D01*
X127929Y138525D01*
X127696Y138507D01*
X127364Y138480D01*
X127041Y138462D01*
X126700Y138444D01*
X125902Y138399D01*
X125830Y138381D01*
X125399Y138363D01*
X125346Y138345D01*
X125256Y138309D01*
X125184Y138291D01*
X124897Y138273D01*
X124314Y138228D01*
X124116Y138211D01*
X123901Y138193D01*
X123372Y138166D01*
X123192Y138148D01*
X123121Y138130D01*
X122753Y138103D01*
X122259Y138040D01*
X122187Y138022D01*
X121784Y137977D01*
X121551Y137959D01*
X121246Y137941D01*
X121066Y137924D01*
X120761Y137906D01*
X120528Y137888D01*
X120205Y137852D01*
X120097Y137834D01*
X119756Y137780D01*
X119514Y137753D01*
X119281Y137735D01*
X119155Y137717D01*
X118976Y137699D01*
X118743Y137681D01*
X118285Y137636D01*
X118141Y137619D01*
X117783Y137565D01*
X117567Y137529D01*
X117325Y137502D01*
X117029Y137457D01*
X116867Y137439D01*
X116544Y137421D01*
X116329Y137403D01*
X116150Y137385D01*
X116006Y137367D01*
X115773Y137331D01*
X115558Y137295D01*
X115468Y137277D01*
X115226Y137251D01*
X115019Y137224D01*
X114930Y137206D01*
X114768Y137188D01*
X114356Y137152D01*
X113817Y137098D01*
X113709Y137080D01*
X113440Y137026D01*
X113369Y137008D01*
X113279Y136990D01*
X113037Y136964D01*
X112965Y136946D01*
X112785Y136928D01*
X112660Y136910D01*
X112310Y136883D01*
X112148Y136865D01*
X111969Y136847D01*
X111826Y136829D01*
X111718Y136811D01*
X111646Y136793D01*
X111556Y136775D01*
X111485Y136757D01*
X111305Y136721D01*
X111063Y136694D01*
X110991Y136677D01*
X110785Y136650D01*
X110605Y136632D01*
X110390Y136614D01*
X110229Y136596D01*
X109995Y136560D01*
X109726Y136506D01*
X109654Y136488D01*
X109385Y136434D01*
X109143Y136407D01*
X108964Y136389D01*
X108721Y136363D01*
X108578Y136345D01*
X108398Y136327D01*
X108201Y136291D01*
X108129Y136273D01*
X108040Y136255D01*
X107968Y136237D01*
X107878Y136219D01*
X107555Y136165D01*
X107322Y136129D01*
X107214Y136111D01*
X107071Y136093D01*
X106730Y136039D01*
X106640Y136022D01*
X106532Y136004D01*
X106299Y135968D01*
X106209Y135950D01*
X106138Y135932D01*
X106048Y135914D01*
X105940Y135896D01*
X105698Y135869D01*
X105626Y135851D01*
X105420Y135824D01*
X105205Y135788D01*
X105133Y135770D01*
X104953Y135734D01*
X104738Y135699D01*
X104666Y135681D01*
X104568Y135654D01*
X104442Y135636D01*
X104263Y135618D01*
X104137Y135600D01*
X104065Y135582D01*
X103680Y135501D01*
X103500Y135465D01*
X103428Y135447D01*
X103339Y135429D01*
X103267Y135412D01*
X103051Y135376D01*
X102809Y135349D01*
X102630Y135331D01*
X102486Y135295D01*
X102190Y135232D01*
X102119Y135214D01*
X102020Y135187D01*
X101804Y135133D01*
X101634Y135107D01*
X101347Y135071D01*
X101078Y135017D01*
X101006Y134999D01*
X100907Y134972D01*
X100782Y134936D01*
X100674Y134918D01*
X100620Y134900D01*
X100504Y134873D01*
X100432Y134855D01*
X100190Y134828D01*
X100064Y134810D01*
X99768Y134748D01*
X99481Y134676D01*
X99382Y134649D01*
X99265Y134622D01*
X98907Y134550D01*
X98745Y134532D01*
X98602Y134514D01*
X98512Y134496D01*
X98422Y134460D01*
X98324Y134416D01*
X98180Y134380D01*
X98010Y134353D01*
X97740Y134299D01*
X97633Y134281D01*
X97453Y134245D01*
X97238Y134191D01*
X97139Y134165D01*
X97014Y134129D01*
X96798Y134075D01*
X96673Y134057D01*
X96601Y134039D01*
X96413Y134012D01*
X96260Y133967D01*
X96135Y133931D01*
X96063Y133913D01*
X95811Y133842D01*
X95507Y133788D01*
X95435Y133770D01*
X95300Y133743D01*
X95228Y133725D01*
X95112Y133680D01*
X94879Y133608D01*
X94753Y133572D01*
X94600Y133545D01*
X94385Y133510D01*
X94313Y133492D01*
X94224Y133456D01*
X94125Y133429D01*
X93874Y133357D01*
X93658Y133303D01*
X93533Y133285D01*
X93461Y133267D01*
X93326Y133240D01*
X93255Y133222D01*
X93111Y133169D01*
X92994Y133124D01*
X92923Y133106D01*
X92914Y133097D01*
X92699Y133043D01*
X92609Y133025D01*
X92393Y132989D01*
X92322Y132971D01*
X92232Y132935D01*
X92079Y132873D01*
X91954Y132837D01*
X91837Y132810D01*
X91747Y132792D01*
X91676Y132774D01*
X91586Y132756D01*
X91514Y132738D01*
X91425Y132720D01*
X91173Y132630D01*
X90913Y132550D01*
X90788Y132514D01*
X90716Y132496D01*
X90465Y132424D01*
X90393Y132406D01*
X90222Y132343D01*
X90034Y132263D01*
X89774Y132218D01*
X89684Y132200D01*
X89532Y132137D01*
X89442Y132101D01*
X89209Y132029D01*
X89137Y132011D01*
X89011Y131975D01*
X88733Y131877D01*
X88643Y131841D01*
X88527Y131796D01*
X88383Y131760D01*
X88177Y131715D01*
X88033Y131661D01*
X87944Y131626D01*
X87827Y131581D01*
X87226Y131374D01*
X87136Y131339D01*
X87037Y131294D01*
X86804Y131222D01*
X86625Y131168D01*
X86463Y131096D01*
X86338Y131042D01*
X86266Y131025D01*
X85826Y130872D01*
X85494Y130719D01*
X85423Y130701D01*
X85145Y130603D01*
X84938Y130504D01*
X84606Y130387D01*
X84517Y130352D01*
X84292Y130235D01*
X84167Y130199D01*
X83942Y130118D01*
X83718Y130002D01*
X83592Y129948D01*
X83476Y129903D01*
X83296Y129831D01*
X82929Y129661D01*
X82839Y129625D01*
X82354Y129392D01*
X82157Y129302D01*
X81906Y129158D01*
X81206Y128800D01*
X81009Y128674D01*
X80919Y128638D01*
X80883Y128620D01*
X80722Y128530D01*
X80686Y128495D01*
X80650Y128477D01*
X80524Y128405D01*
X80327Y128297D01*
X80156Y128181D01*
X79842Y128010D01*
X79789Y127956D01*
X79753Y127938D01*
X79627Y127849D01*
X79466Y127759D01*
X79430Y127723D01*
X79340Y127669D01*
X79304Y127633D01*
X79268Y127615D01*
X79098Y127499D01*
X79017Y127418D01*
X78981Y127400D01*
X78945Y127364D01*
X78909Y127346D01*
X78784Y127257D01*
X78730Y127203D01*
X78694Y127185D01*
X78640Y127131D01*
X78604Y127113D01*
X78443Y126987D01*
X78371Y126916D01*
X78335Y126898D01*
X78281Y126844D01*
X78246Y126826D01*
X78084Y126700D01*
X77958Y126575D01*
X77922Y126557D01*
X77770Y126440D01*
X77752Y126404D01*
X77671Y126305D01*
X77546Y126180D01*
X77510Y126162D01*
X77465Y126117D01*
X77447Y126081D01*
X77321Y125956D01*
X77303Y125920D01*
X77250Y125866D01*
X77232Y125830D01*
X77142Y125740D01*
X77124Y125704D01*
X77052Y125633D01*
X77034Y125597D01*
X76999Y125561D01*
X76981Y125525D01*
X76927Y125471D01*
X76909Y125435D01*
X76828Y125337D01*
X76783Y125292D01*
X76765Y125256D01*
X76622Y124987D01*
X76550Y124879D01*
X76442Y124646D01*
X76335Y124448D01*
X76263Y124287D01*
X76245Y124161D01*
X76227Y124090D01*
X76200Y123973D01*
X76182Y123901D01*
X76164Y123793D01*
X76137Y123551D01*
X76119Y123318D01*
X76137Y122959D01*
X76245Y122762D01*
X76326Y122735D01*
X76397Y122753D01*
X76622Y122923D01*
X76684Y122968D01*
X76864Y123148D01*
X76900Y123166D01*
X76972Y123237D01*
X77007Y123255D01*
X77061Y123309D01*
X77097Y123327D01*
X77151Y123381D01*
X77187Y123399D01*
X77223Y123435D01*
X77259Y123453D01*
X77294Y123488D01*
X77330Y123506D01*
X77429Y123587D01*
X77474Y123632D01*
X77510Y123650D01*
X77546Y123686D01*
X77582Y123704D01*
X77635Y123758D01*
X77671Y123776D01*
X77779Y123883D01*
X77815Y123901D01*
X77976Y123991D01*
X78147Y124108D01*
X78174Y124134D01*
X78210Y124152D01*
X78246Y124188D01*
X78281Y124206D01*
X78317Y124242D01*
X78443Y124314D01*
X78479Y124350D01*
X78515Y124368D01*
X78550Y124404D01*
X78586Y124422D01*
X78694Y124493D01*
X78820Y124565D01*
X78856Y124601D01*
X78891Y124619D01*
X79017Y124709D01*
X79286Y124852D01*
X79412Y124942D01*
X79609Y125032D01*
X79771Y125121D01*
X79807Y125157D01*
X79842Y125175D01*
X79896Y125229D01*
X80094Y125319D01*
X80129Y125337D01*
X80237Y125408D01*
X80273Y125426D01*
X80793Y125696D01*
X81063Y125839D01*
X81260Y125965D01*
X81439Y126036D01*
X81556Y126081D01*
X81834Y126234D01*
X81906Y126252D01*
X81996Y126288D01*
X82157Y126359D01*
X82354Y126467D01*
X82552Y126557D01*
X82668Y126602D01*
X82758Y126637D01*
X82875Y126700D01*
X82911Y126718D01*
X83036Y126772D01*
X83314Y126871D01*
X83404Y126907D01*
X83539Y126987D01*
X83664Y127041D01*
X83808Y127077D01*
X83978Y127140D01*
X84095Y127203D01*
X84220Y127257D01*
X84310Y127292D01*
X84481Y127355D01*
X84678Y127445D01*
X84902Y127544D01*
X84974Y127561D01*
X85100Y127597D01*
X85324Y127678D01*
X85503Y127768D01*
X85701Y127840D01*
X85773Y127858D01*
X85916Y127911D01*
X86105Y128010D01*
X86230Y128046D01*
X86302Y128064D01*
X86418Y128091D01*
X86562Y128127D01*
X86679Y128172D01*
X86930Y128279D01*
X87109Y128333D01*
X87181Y128351D01*
X87307Y128387D01*
X87423Y128432D01*
X87603Y128504D01*
X87755Y128566D01*
X87881Y128584D01*
X88024Y128620D01*
X88141Y128665D01*
X88428Y128773D01*
X88518Y128808D01*
X88724Y128871D01*
X88868Y128907D01*
X88966Y128934D01*
X89038Y128952D01*
X89182Y129006D01*
X89271Y129042D01*
X89532Y129122D01*
X89603Y129140D01*
X89729Y129176D01*
X89801Y129194D01*
X89926Y129230D01*
X90151Y129311D01*
X90303Y129356D01*
X90581Y129419D01*
X90653Y129437D01*
X90806Y129499D01*
X90931Y129553D01*
X91057Y129589D01*
X91200Y129625D01*
X91353Y129652D01*
X91443Y129670D01*
X91586Y129706D01*
X91729Y129760D01*
X91846Y129804D01*
X92062Y129858D01*
X92178Y129885D01*
X92250Y129903D01*
X92429Y129939D01*
X92537Y129957D01*
X92681Y129993D01*
X92950Y130100D01*
X93093Y130136D01*
X93183Y130154D01*
X93398Y130190D01*
X93488Y130208D01*
X93560Y130226D01*
X93757Y130298D01*
X93847Y130334D01*
X93919Y130352D01*
X94017Y130378D01*
X94170Y130405D01*
X94277Y130423D01*
X94349Y130441D01*
X94618Y130495D01*
X94690Y130513D01*
X94834Y130567D01*
X95040Y130630D01*
X95112Y130648D01*
X95237Y130666D01*
X95309Y130684D01*
X95587Y130728D01*
X95731Y130764D01*
X95910Y130836D01*
X95982Y130854D01*
X96081Y130881D01*
X96475Y130953D01*
X96547Y130971D01*
X96727Y130989D01*
X96781Y131007D01*
X96879Y131033D01*
X96969Y131069D01*
X97229Y131150D01*
X97301Y131168D01*
X97812Y131249D01*
X97956Y131285D01*
X98108Y131330D01*
X98180Y131347D01*
X98297Y131374D01*
X98368Y131392D01*
X98467Y131419D01*
X98539Y131437D01*
X98718Y131455D01*
X98844Y131473D01*
X99050Y131518D01*
X99122Y131536D01*
X99221Y131563D01*
X99400Y131617D01*
X99499Y131643D01*
X99678Y131679D01*
X100001Y131733D01*
X100288Y131769D01*
X100378Y131787D01*
X100450Y131805D01*
X100540Y131841D01*
X100683Y131877D01*
X100791Y131895D01*
X100880Y131913D01*
X100988Y131931D01*
X101257Y131984D01*
X101688Y132056D01*
X101975Y132128D01*
X102074Y132155D01*
X102145Y132173D01*
X102397Y132209D01*
X102702Y132245D01*
X102773Y132263D01*
X102962Y132289D01*
X103051Y132307D01*
X103410Y132397D01*
X103500Y132415D01*
X103644Y132433D01*
X103877Y132469D01*
X104092Y132505D01*
X104182Y132523D01*
X104505Y132577D01*
X104577Y132595D01*
X104675Y132621D01*
X104819Y132657D01*
X105196Y132711D01*
X105267Y132729D01*
X105779Y132792D01*
X105994Y132828D01*
X106281Y132899D01*
X106371Y132917D01*
X106604Y132953D01*
X106712Y132971D01*
X107196Y133025D01*
X107430Y133061D01*
X107537Y133079D01*
X107609Y133097D01*
X107699Y133115D01*
X107914Y133169D01*
X108093Y133204D01*
X108336Y133231D01*
X108407Y133249D01*
X108748Y133267D01*
X108802Y133285D01*
X109089Y133303D01*
X109161Y133321D01*
X109367Y133348D01*
X109547Y133384D01*
X109690Y133420D01*
X109870Y133456D01*
X109977Y133474D01*
X110345Y133519D01*
X110417Y133537D01*
X110749Y133563D01*
X110857Y133581D01*
X111036Y133617D01*
X111180Y133635D01*
X111287Y133653D01*
X111359Y133671D01*
X111628Y133725D01*
X111870Y133752D01*
X111996Y133770D01*
X112310Y133797D01*
X112507Y133815D01*
X112741Y133833D01*
X112938Y133868D01*
X113117Y133904D01*
X113351Y133940D01*
X113440Y133958D01*
X113656Y133994D01*
X113799Y134012D01*
X114015Y134030D01*
X114212Y134048D01*
X114391Y134066D01*
X114589Y134084D01*
X114804Y134102D01*
X114974Y134129D01*
X115028Y134146D01*
X115100Y134165D01*
X115226Y134182D01*
X115450Y134209D01*
X115540Y134227D01*
X115782Y134254D01*
X115854Y134272D01*
X116186Y134299D01*
X116365Y134317D01*
X116562Y134335D01*
X116778Y134353D01*
X116975Y134371D01*
X117047Y134389D01*
X117137Y134407D01*
X117244Y134425D01*
X117406Y134443D01*
X117549Y134460D01*
X117657Y134478D01*
X117899Y134505D01*
X118025Y134523D01*
X118339Y134550D01*
X118536Y134568D01*
X118716Y134586D01*
X118967Y134604D01*
X119110Y134622D01*
X119353Y134649D01*
X119532Y134667D01*
X119604Y134685D01*
X119855Y134721D01*
X120025Y134748D01*
X120384Y134783D01*
X120617Y134801D01*
X120923Y134819D01*
X121156Y134837D01*
X121299Y134855D01*
X121586Y134873D01*
X121784Y134891D01*
X121927Y134909D01*
X122035Y134927D01*
X122277Y134954D01*
X122349Y134972D01*
X122555Y134999D01*
X122717Y135017D01*
X122914Y135035D01*
X123201Y135053D01*
X123417Y135071D01*
X123704Y135089D01*
X123919Y135107D01*
X124098Y135124D01*
X124260Y135142D01*
X124547Y135178D01*
X124780Y135214D01*
X124942Y135232D01*
X125175Y135250D01*
X125354Y135268D01*
X125660Y135286D01*
X126180Y135322D01*
X126485Y135340D01*
X126736Y135358D01*
X127077Y135376D01*
X127525Y135412D01*
X127777Y135429D01*
X127992Y135447D01*
X128172Y135465D01*
X128414Y135492D01*
X128539Y135510D01*
X128773Y135528D01*
X128898Y135546D01*
X129392Y135573D01*
X129679Y135591D01*
X130055Y135609D01*
X130558Y135645D01*
X130773Y135663D01*
X130971Y135681D01*
X131258Y135699D01*
X131437Y135716D01*
X131509Y135734D01*
X131616Y135752D01*
X131922Y135770D01*
X132262Y135788D01*
X132585Y135806D01*
X132926Y135824D01*
X133393Y135842D01*
X133734Y135860D01*
X134613Y135896D01*
X134900Y135914D01*
X135133Y135932D01*
X135492Y135950D01*
X135672Y135968D01*
X135995Y135986D01*
X136300Y136004D01*
X136515Y136022D01*
X136748Y136039D01*
X137277Y136066D01*
X137726Y136084D01*
X138121Y136102D01*
X138973Y136129D01*
X139655Y136147D01*
X139870Y136165D01*
X140355Y136183D01*
X140678Y136201D01*
X141252Y136237D01*
X141700Y136255D01*
X141862Y136273D01*
X142185Y136291D01*
X143459Y136327D01*
X144123Y136345D01*
X145002Y136363D01*
X145989Y136380D01*
X147281Y136398D01*
X148178Y136416D01*
X149488Y136434D01*
X150151Y136452D01*
X152161Y136488D01*
X154153Y136506D01*
X156369Y136515D01*
X156422Y136497D01*
X160513Y136479D01*
X160567Y136461D01*
X162487Y136443D01*
X162541Y136425D01*
X164506Y136398D01*
X166677Y136363D01*
X167610Y136345D01*
X168256Y136327D01*
X168758Y136309D01*
X169619Y136273D01*
X169996Y136255D01*
X170337Y136237D01*
X170732Y136219D01*
X170875Y136201D01*
X171396Y136183D01*
X171755Y136165D01*
X172167Y136147D01*
X172741Y136129D01*
X173280Y136111D01*
X173782Y136093D01*
X174195Y136075D01*
X174769Y136057D01*
X174984Y136039D01*
X175343Y136022D01*
X175630Y136004D01*
X175846Y135986D01*
X176025Y135968D01*
X176222Y135950D01*
X176474Y135932D01*
X176868Y135914D01*
X177030Y135896D01*
X177478Y135878D01*
X177891Y135860D01*
X178268Y135842D01*
X178717Y135824D01*
X179452Y135788D01*
X179703Y135770D01*
X179865Y135752D01*
X180062Y135734D01*
X180224Y135716D01*
X180403Y135699D01*
X180601Y135681D01*
X180941Y135663D01*
X181103Y135645D01*
X181318Y135627D01*
X181731Y135609D01*
X182018Y135591D01*
X182816Y135546D01*
X183050Y135528D01*
X183256Y135501D01*
X183489Y135483D01*
X183705Y135465D01*
X183884Y135447D01*
X184046Y135429D01*
X184189Y135412D01*
X184386Y135394D01*
X184620Y135376D01*
X184961Y135358D01*
X185248Y135340D01*
X185553Y135322D01*
X186037Y135286D01*
X186575Y135232D01*
X186737Y135214D01*
X186934Y135196D01*
X187168Y135178D01*
X187275Y135160D01*
X187347Y135142D01*
X187589Y135115D01*
X188101Y135089D01*
X188352Y135071D01*
X188567Y135053D01*
X188962Y135017D01*
X189195Y134999D01*
X189339Y134981D01*
X189410Y134963D01*
X189518Y134945D01*
X189698Y134927D01*
X189841Y134909D01*
X190003Y134891D01*
X190146Y134873D01*
X190343Y134855D01*
X190559Y134837D01*
X190792Y134819D01*
X191079Y134801D01*
X191384Y134783D01*
X191492Y134766D01*
X191653Y134748D01*
X191833Y134730D01*
X191976Y134712D01*
X192156Y134676D01*
X192398Y134649D01*
X192470Y134631D01*
X192730Y134604D01*
X192927Y134586D01*
X193089Y134568D01*
X193340Y134550D01*
X193519Y134532D01*
X193717Y134514D01*
X193932Y134496D01*
X194076Y134478D01*
X194398Y134425D01*
X194578Y134389D01*
X194820Y134362D01*
X194892Y134344D01*
X195466Y134308D01*
X195861Y134272D01*
X196040Y134254D01*
X196166Y134236D01*
X196238Y134218D01*
X196390Y134191D01*
X196480Y134173D01*
X196695Y134138D01*
X196937Y134111D01*
X197063Y134093D01*
X197242Y134075D01*
X197529Y134057D01*
X197601Y134039D01*
X198077Y133994D01*
X198184Y133976D01*
X198364Y133940D01*
X198507Y133904D01*
X198687Y133868D01*
X199055Y133824D01*
X199288Y133806D01*
X199575Y133788D01*
X199763Y133761D01*
X199853Y133743D01*
X199997Y133725D01*
X200230Y133689D01*
X200302Y133671D01*
X200391Y133653D01*
X200607Y133617D01*
X200849Y133590D01*
X200921Y133572D01*
X201432Y133510D01*
X201611Y133492D01*
X201755Y133474D01*
X201845Y133456D01*
X202168Y133402D01*
X202257Y133384D01*
X202401Y133348D01*
X202491Y133330D01*
X202859Y133285D01*
X203092Y133267D01*
X203164Y133249D01*
X203531Y133204D01*
X203747Y133169D01*
X203818Y133151D01*
X203917Y133124D01*
X203989Y133106D01*
X204115Y133088D01*
X204294Y133070D01*
X204366Y133052D01*
X204545Y133034D01*
X204617Y133016D01*
X204859Y132989D01*
X205003Y132971D01*
X205218Y132935D01*
X205433Y132882D01*
X205523Y132864D01*
X205595Y132846D01*
X205828Y132810D01*
X205900Y132792D01*
X205990Y132774D01*
X206474Y132720D01*
X206618Y132702D01*
X206725Y132684D01*
X206797Y132666D01*
X206887Y132648D01*
X207030Y132612D01*
X207120Y132595D01*
X207192Y132577D01*
X207461Y132523D01*
X207703Y132496D01*
X207882Y132478D01*
X207954Y132460D01*
X208259Y132406D01*
X208331Y132388D01*
X208520Y132343D01*
X208591Y132325D01*
X208681Y132307D01*
X208753Y132289D01*
X208860Y132272D01*
X209103Y132245D01*
X209174Y132227D01*
X209354Y132209D01*
X209426Y132191D01*
X209632Y132146D01*
X209722Y132128D01*
X209829Y132110D01*
X209919Y132092D01*
X210125Y132029D01*
X210251Y132011D01*
X210323Y131993D01*
X210691Y131931D01*
X210960Y131877D01*
X211067Y131859D01*
X211139Y131841D01*
X211229Y131823D01*
X211301Y131805D01*
X211390Y131787D01*
X211462Y131769D01*
X211642Y131733D01*
X211749Y131715D01*
X212090Y131661D01*
X212234Y131626D01*
X212413Y131590D01*
X212485Y131572D01*
X212575Y131554D01*
X212727Y131509D01*
X212844Y131482D01*
X212951Y131464D01*
X213041Y131446D01*
X213256Y131410D01*
X213472Y131356D01*
X213732Y131276D01*
X213947Y131240D01*
X214073Y131222D01*
X214288Y131186D01*
X214360Y131168D01*
X214530Y131141D01*
X214602Y131123D01*
X214692Y131087D01*
X214898Y131025D01*
X214970Y131007D01*
X215069Y130980D01*
X215302Y130944D01*
X215410Y130926D01*
X215481Y130908D01*
X215571Y130890D01*
X215939Y130773D01*
X216011Y130755D01*
X216163Y130728D01*
X216307Y130693D01*
X216549Y130666D01*
X216621Y130648D01*
X216737Y130621D01*
X216854Y130576D01*
X216944Y130540D01*
X217069Y130504D01*
X217213Y130468D01*
X217330Y130441D01*
X217437Y130423D01*
X217724Y130352D01*
X217931Y130289D01*
X218056Y130253D01*
X218173Y130226D01*
X218263Y130208D01*
X218406Y130172D01*
X218514Y130154D01*
X218711Y130118D01*
X218783Y130100D01*
X218873Y130064D01*
X219025Y130002D01*
X219276Y129930D01*
X219572Y129867D01*
X219716Y129831D01*
X219859Y129777D01*
X219949Y129742D01*
X220021Y129724D01*
X220200Y129688D01*
X220344Y129652D01*
X220443Y129625D01*
X220586Y129589D01*
X220703Y129562D01*
X220900Y129490D01*
X221106Y129428D01*
X221232Y129392D01*
X221376Y129356D01*
X221474Y129329D01*
X221546Y129311D01*
X221797Y129221D01*
X221941Y129167D01*
X222084Y129131D01*
X222300Y129096D01*
X222371Y129078D01*
X222461Y129042D01*
X222542Y128997D01*
X222721Y128943D01*
X222820Y128916D01*
X222892Y128898D01*
X223304Y128755D01*
X223448Y128701D01*
X223601Y128656D01*
X223699Y128629D01*
X223789Y128611D01*
X223941Y128566D01*
X224175Y128459D01*
X224462Y128369D01*
X224641Y128315D01*
X224767Y128279D01*
X224883Y128234D01*
X224973Y128199D01*
X225126Y128136D01*
X225224Y128109D01*
X225296Y128091D01*
X225395Y128064D01*
X225511Y128019D01*
X225700Y127938D01*
X225789Y127902D01*
X226068Y127804D01*
X226220Y127741D01*
X226489Y127633D01*
X226606Y127588D01*
X226705Y127561D01*
X226875Y127499D01*
X226965Y127463D01*
X227171Y127364D01*
X227288Y127319D01*
X227431Y127266D01*
X227611Y127194D01*
X227799Y127113D01*
X227925Y127077D01*
X228014Y127041D01*
X228131Y126996D01*
X228158Y126969D01*
X228391Y126862D01*
X228615Y126781D01*
X228678Y126754D01*
X228983Y126611D01*
X229109Y126575D01*
X229288Y126503D01*
X229450Y126413D01*
X229755Y126270D01*
X230060Y126108D01*
X230221Y126036D01*
X230311Y126000D01*
X230724Y125785D01*
X230885Y125696D01*
X230993Y125624D01*
X231190Y125534D01*
X231316Y125480D01*
X231477Y125390D01*
X231621Y125301D01*
X231818Y125193D01*
X231944Y125121D01*
X232321Y124924D01*
X232357Y124888D01*
X232393Y124870D01*
X232428Y124834D01*
X232464Y124816D01*
X232733Y124673D01*
X232859Y124547D01*
X232985Y124493D01*
X233110Y124422D01*
X233209Y124341D01*
X233316Y124269D01*
X233469Y124188D01*
X233505Y124152D01*
X233541Y124134D01*
X233577Y124099D01*
X233613Y124081D01*
X233684Y124009D01*
X233810Y123937D01*
X233909Y123856D01*
X233989Y123793D01*
X234025Y123776D01*
X234061Y123740D01*
X234097Y123722D01*
X234133Y123686D01*
X234169Y123668D01*
X234205Y123632D01*
X234241Y123614D01*
X234330Y123524D01*
X234366Y123506D01*
X234402Y123470D01*
X234492Y123417D01*
X234591Y123336D01*
X234671Y123255D01*
X234707Y123237D01*
X234869Y123112D01*
X234931Y123049D01*
X234949Y123013D01*
X234994Y122968D01*
X235030Y122950D01*
X235066Y122914D01*
X235102Y122896D01*
X235138Y122861D01*
X235174Y122843D01*
X235209Y122807D01*
X235299Y122771D01*
X235443Y122789D01*
X235541Y122887D01*
X235577Y122977D01*
X235595Y123156D01*
X235577Y123641D01*
X235559Y123695D01*
X235532Y123811D01*
X235506Y123910D01*
X235470Y124000D01*
X235443Y124099D01*
X235425Y124170D01*
X235407Y124260D01*
X235389Y124332D01*
X235362Y124431D01*
X235326Y124520D01*
X235057Y125040D01*
X234878Y125292D01*
X234860Y125328D01*
X234743Y125498D01*
X234680Y125561D01*
X234662Y125597D01*
X234581Y125696D01*
X234537Y125758D01*
X234483Y125812D01*
X234474Y125839D01*
X234438Y125857D01*
X234357Y125938D01*
X234339Y125974D01*
X234285Y126027D01*
X234267Y126063D01*
X234178Y126153D01*
X234160Y126189D01*
X233972Y126377D01*
X233936Y126395D01*
X233756Y126575D01*
X233720Y126593D01*
X233541Y126772D01*
X233505Y126790D01*
X233469Y126826D01*
X233433Y126844D01*
X233308Y126934D01*
X233182Y127059D01*
X233146Y127077D01*
X233110Y127113D01*
X233074Y127131D01*
X232967Y127239D01*
X232931Y127257D01*
X232895Y127292D01*
X232859Y127310D01*
X232823Y127346D01*
X232787Y127364D01*
X232751Y127400D01*
X232626Y127472D01*
X232572Y127526D01*
X232536Y127544D01*
X232393Y127633D01*
X232357Y127651D01*
X232258Y127732D01*
X232231Y127759D01*
X232195Y127777D01*
X232069Y127866D01*
X231908Y127956D01*
X231872Y127992D01*
X231836Y128010D01*
X231711Y128100D01*
X231477Y128225D01*
X231441Y128261D01*
X231280Y128351D01*
X231136Y128441D01*
X231101Y128459D01*
X230993Y128530D01*
X230688Y128692D01*
X230580Y128764D01*
X230383Y128853D01*
X230042Y129033D01*
X229773Y129158D01*
X229575Y129266D01*
X229432Y129356D01*
X229360Y129374D01*
X228804Y129643D01*
X228687Y129688D01*
X228391Y129822D01*
X228032Y129966D01*
X227584Y130181D01*
X227512Y130199D01*
X227386Y130253D01*
X227045Y130414D01*
X226812Y130486D01*
X226696Y130531D01*
X226597Y130594D01*
X226561Y130630D01*
X226382Y130684D01*
X226310Y130701D01*
X226193Y130728D01*
X226050Y130782D01*
X225789Y130899D01*
X225700Y130935D01*
X225628Y130953D01*
X225511Y130998D01*
X225440Y131016D01*
X225350Y131051D01*
X225206Y131105D01*
X225108Y131150D01*
X225018Y131186D01*
X224946Y131204D01*
X224821Y131240D01*
X224677Y131276D01*
X224372Y131419D01*
X224229Y131455D01*
X223950Y131554D01*
X223798Y131617D01*
X223708Y131652D01*
X223583Y131688D01*
X223511Y131706D01*
X223385Y131742D01*
X223287Y131769D01*
X223089Y131841D01*
X222910Y131913D01*
X222811Y131940D01*
X222524Y132011D01*
X222102Y132164D01*
X222004Y132191D01*
X221878Y132227D01*
X221663Y132281D01*
X221564Y132307D01*
X221367Y132379D01*
X221106Y132460D01*
X220981Y132496D01*
X220909Y132514D01*
X220783Y132550D01*
X220640Y132586D01*
X220523Y132630D01*
X220434Y132666D01*
X220335Y132711D01*
X220263Y132729D01*
X220012Y132765D01*
X219940Y132783D01*
X219842Y132810D01*
X219770Y132828D01*
X219680Y132864D01*
X219536Y132917D01*
X219438Y132944D01*
X219312Y132980D01*
X219196Y133007D01*
X219124Y133025D01*
X219034Y133043D01*
X218891Y133079D01*
X218577Y133178D01*
X218451Y133213D01*
X218271Y133267D01*
X217895Y133321D01*
X217715Y133375D01*
X217625Y133411D01*
X217392Y133483D01*
X217276Y133510D01*
X217204Y133528D01*
X217114Y133545D01*
X216917Y133599D01*
X216845Y133617D01*
X216639Y133680D01*
X216495Y133716D01*
X216289Y133761D01*
X216199Y133779D01*
X216091Y133797D01*
X215858Y133833D01*
X215786Y133851D01*
X215472Y133949D01*
X215347Y133985D01*
X215275Y134003D01*
X215060Y134039D01*
X214916Y134075D01*
X214710Y134120D01*
X214611Y134146D01*
X214324Y134218D01*
X214145Y134272D01*
X214073Y134290D01*
X213848Y134317D01*
X213651Y134353D01*
X213562Y134371D01*
X213463Y134398D01*
X213283Y134451D01*
X213068Y134505D01*
X212853Y134541D01*
X212709Y134577D01*
X212557Y134604D01*
X212234Y134658D01*
X212162Y134676D01*
X212063Y134721D01*
X211920Y134757D01*
X211668Y134792D01*
X211597Y134810D01*
X211426Y134837D01*
X211103Y134891D01*
X211032Y134909D01*
X210942Y134927D01*
X210843Y134954D01*
X210718Y134990D01*
X210502Y135044D01*
X210332Y135071D01*
X210188Y135089D01*
X210081Y135107D01*
X210009Y135124D01*
X209919Y135142D01*
X209704Y135178D01*
X209614Y135196D01*
X209515Y135223D01*
X209228Y135295D01*
X208923Y135331D01*
X208852Y135349D01*
X208555Y135394D01*
X208286Y135447D01*
X208089Y135483D01*
X208017Y135501D01*
X207936Y135528D01*
X207865Y135546D01*
X207685Y135564D01*
X207613Y135582D01*
X207434Y135600D01*
X207380Y135618D01*
X207228Y135645D01*
X207120Y135663D01*
X206851Y135716D01*
X206779Y135734D01*
X206689Y135752D01*
X206618Y135770D01*
X206510Y135788D01*
X206420Y135806D01*
X206277Y135824D01*
X206097Y135842D01*
X205774Y135896D01*
X205631Y135914D01*
X205523Y135932D01*
X205433Y135950D01*
X205362Y135968D01*
X205182Y136004D01*
X205075Y136022D01*
X204985Y136039D01*
X204285Y136147D01*
X204123Y136165D01*
X203980Y136183D01*
X203621Y136255D01*
X203388Y136291D01*
X203316Y136309D01*
X203101Y136345D01*
X202957Y136363D01*
X202796Y136380D01*
X202652Y136398D01*
X202491Y136416D01*
X201952Y136506D01*
X201863Y136524D01*
X201764Y136551D01*
X201692Y136569D01*
X201333Y136605D01*
X201082Y136641D01*
X200625Y136685D01*
X200302Y136739D01*
X200230Y136757D01*
X200131Y136784D01*
X200006Y136802D01*
X199934Y136820D01*
X199763Y136847D01*
X199521Y136874D01*
X199288Y136892D01*
X198633Y136955D01*
X198400Y136990D01*
X198220Y137026D01*
X198122Y137053D01*
X197969Y137080D01*
X197458Y137143D01*
X197108Y137170D01*
X196928Y137188D01*
X196641Y137224D01*
X196426Y137260D01*
X196067Y137331D01*
X195906Y137349D01*
X195708Y137367D01*
X195466Y137394D01*
X195287Y137412D01*
X194865Y137439D01*
X194686Y137457D01*
X194524Y137475D01*
X194309Y137511D01*
X194219Y137529D01*
X194111Y137547D01*
X194022Y137565D01*
X193914Y137583D01*
X193430Y137636D01*
X192963Y137672D01*
X192748Y137690D01*
X192353Y137726D01*
X192209Y137744D01*
X191806Y137789D01*
X191734Y137807D01*
X191519Y137825D01*
X191429Y137861D01*
X191250Y137879D01*
X190128Y137959D01*
X189931Y137977D01*
X189715Y137995D01*
X189518Y138013D01*
X189410Y138031D01*
X189339Y138049D01*
X189231Y138067D01*
X189034Y138085D01*
X188872Y138103D01*
X188729Y138121D01*
X188370Y138157D01*
X188154Y138175D01*
X187903Y138193D01*
X187580Y138211D01*
X187347Y138228D01*
X187239Y138247D01*
X186988Y138264D01*
X186791Y138282D01*
X186611Y138300D01*
X186378Y138336D01*
X186136Y138363D01*
X186010Y138381D01*
X185669Y138399D01*
X185382Y138417D01*
X184987Y138435D01*
X184862Y138453D01*
X184404Y138480D01*
X184189Y138498D01*
X183992Y138516D01*
X183830Y138533D01*
X183651Y138551D01*
X183399Y138569D01*
X183220Y138587D01*
X183113Y138605D01*
X182825Y138623D01*
X182592Y138641D01*
X182063Y138668D01*
X181991Y138686D01*
X181426Y138713D01*
X180780Y138749D01*
X180295Y138785D01*
X180080Y138803D01*
X179721Y138839D01*
X179524Y138856D01*
X179237Y138874D01*
X179075Y138892D01*
X178932Y138910D01*
X178393Y138928D01*
X177999Y138946D01*
X177640Y138964D01*
X177066Y138982D01*
X176761Y139000D01*
X176312Y139018D01*
X176061Y139036D01*
X175415Y139090D01*
X175020Y139108D01*
X174778Y139135D01*
X174222Y139153D01*
X173881Y139171D01*
X172948Y139206D01*
X171162Y139269D01*
X170750Y139287D01*
X170301Y139305D01*
X169924Y139323D01*
X169243Y139359D01*
X168812Y139377D01*
X168650Y139395D01*
X167987Y139413D01*
X166883Y139440D01*
X166058Y139458D01*
X164524Y139485D01*
X162622Y139503D01*
X161115Y139520D01*
X160289Y139538D01*
X158405Y139556D01*
X153354Y139565D01*
D02*
G37*
G36*
X156073Y111296D02*
X153543Y111278D01*
X152861Y111260D01*
X152143Y111242D01*
X151695Y111224D01*
X151390Y111207D01*
X150591Y111162D01*
X150358Y111144D01*
X149999Y111126D01*
X149945Y111108D01*
X149066Y111090D01*
X149012Y111072D01*
X148088Y111045D01*
X147891Y111027D01*
X147586Y111009D01*
X147370Y110991D01*
X147209Y110973D01*
X146922Y110938D01*
X146742Y110919D01*
X146581Y110902D01*
X146383Y110884D01*
X146132Y110866D01*
X145953Y110848D01*
X145755Y110830D01*
X145397Y110812D01*
X144912Y110776D01*
X144715Y110758D01*
X144553Y110740D01*
X144410Y110722D01*
X144248Y110704D01*
X144069Y110686D01*
X143979Y110668D01*
X143827Y110624D01*
X143701Y110606D01*
X143333Y110579D01*
X143136Y110561D01*
X142920Y110543D01*
X142723Y110525D01*
X142562Y110507D01*
X142328Y110471D01*
X141907Y110408D01*
X141853Y110390D01*
X141709Y110354D01*
X141252Y110310D01*
X140965Y110274D01*
X140803Y110256D01*
X140660Y110238D01*
X140552Y110220D01*
X140373Y110184D01*
X140229Y110148D01*
X140121Y110130D01*
X140032Y110112D01*
X139816Y110076D01*
X139745Y110058D01*
X139502Y110031D01*
X139323Y110013D01*
X139197Y109995D01*
X138901Y109933D01*
X138830Y109915D01*
X138740Y109897D01*
X138524Y109843D01*
X138417Y109825D01*
X138345Y109807D01*
X138130Y109771D01*
X137986Y109753D01*
X137825Y109735D01*
X137717Y109717D01*
X137645Y109699D01*
X137556Y109681D01*
X137484Y109663D01*
X137394Y109646D01*
X137295Y109619D01*
X137116Y109565D01*
X136972Y109529D01*
X136847Y109511D01*
X136775Y109493D01*
X136497Y109448D01*
X136425Y109430D01*
X136120Y109323D01*
X136048Y109305D01*
X135959Y109287D01*
X135851Y109269D01*
X135672Y109233D01*
X135573Y109206D01*
X135456Y109179D01*
X135313Y109143D01*
X135223Y109107D01*
X135017Y109045D01*
X134873Y109009D01*
X134577Y108946D01*
X134505Y108928D01*
X134416Y108892D01*
X134263Y108829D01*
X134030Y108757D01*
X133886Y108721D01*
X133761Y108704D01*
X133644Y108659D01*
X133545Y108596D01*
X133384Y108524D01*
X133231Y108497D01*
X133088Y108461D01*
X132998Y108425D01*
X132854Y108372D01*
X132702Y108309D01*
X132370Y108192D01*
X132173Y108103D01*
X131966Y108004D01*
X131634Y107887D01*
X131536Y107824D01*
X131410Y107753D01*
X131284Y107699D01*
X131051Y107573D01*
X130944Y107501D01*
X130827Y107457D01*
X130764Y107430D01*
X130639Y107340D01*
X130540Y107259D01*
X130432Y107187D01*
X130289Y107098D01*
X130262Y107071D01*
X130226Y107053D01*
X130118Y106945D01*
X130082Y106927D01*
X129984Y106846D01*
X129948Y106811D01*
X129930Y106775D01*
X129750Y106595D01*
X129733Y106559D01*
X129607Y106290D01*
X129571Y106201D01*
X129544Y106084D01*
X129535Y105860D01*
X129571Y105770D01*
X129589Y105734D01*
X129697Y105537D01*
X129786Y105411D01*
X129831Y105366D01*
X129957Y105312D01*
X130028Y105294D01*
X130172Y105312D01*
X130334Y105384D01*
X130369Y105402D01*
X130549Y105528D01*
X130710Y105599D01*
X130827Y105644D01*
X130917Y105680D01*
X130980Y105707D01*
X131141Y105797D01*
X131267Y105851D01*
X131491Y105931D01*
X131679Y106030D01*
X131904Y106111D01*
X132047Y106165D01*
X132200Y106228D01*
X132289Y106263D01*
X132406Y106308D01*
X132612Y106371D01*
X132684Y106389D01*
X132810Y106425D01*
X133034Y106506D01*
X133222Y106586D01*
X133438Y106640D01*
X133608Y106703D01*
X133707Y106730D01*
X133832Y106766D01*
X134030Y106820D01*
X134119Y106855D01*
X134335Y106909D01*
X134451Y106936D01*
X134541Y106954D01*
X134613Y106972D01*
X134810Y107044D01*
X135071Y107125D01*
X135214Y107160D01*
X135510Y107205D01*
X135600Y107223D01*
X135806Y107286D01*
X135878Y107304D01*
X135995Y107331D01*
X136066Y107349D01*
X136219Y107394D01*
X136291Y107412D01*
X136596Y107466D01*
X136667Y107483D01*
X136874Y107528D01*
X136945Y107546D01*
X137044Y107573D01*
X137170Y107609D01*
X137313Y107645D01*
X137565Y107681D01*
X137717Y107708D01*
X137932Y107744D01*
X138076Y107762D01*
X138166Y107780D01*
X138237Y107798D01*
X138390Y107842D01*
X138515Y107878D01*
X138659Y107914D01*
X139045Y107959D01*
X139188Y107977D01*
X139296Y107995D01*
X139583Y108031D01*
X139655Y108049D01*
X139798Y108103D01*
X139870Y108120D01*
X139978Y108138D01*
X140139Y108156D01*
X140283Y108174D01*
X140525Y108201D01*
X140597Y108219D01*
X140821Y108246D01*
X141054Y108282D01*
X141270Y108318D01*
X141359Y108336D01*
X141826Y108407D01*
X141916Y108425D01*
X142113Y108443D01*
X142346Y108461D01*
X142526Y108479D01*
X142723Y108497D01*
X142903Y108515D01*
X143190Y108551D01*
X143513Y108605D01*
X143656Y108623D01*
X143871Y108659D01*
X143943Y108677D01*
X144105Y108695D01*
X144446Y108712D01*
X144679Y108730D01*
X144930Y108748D01*
X145127Y108766D01*
X145307Y108784D01*
X145468Y108802D01*
X145648Y108820D01*
X145845Y108838D01*
X145935Y108856D01*
X146034Y108883D01*
X146159Y108901D01*
X146545Y108928D01*
X146850Y108946D01*
X147137Y108964D01*
X147442Y108982D01*
X147783Y109000D01*
X148106Y109018D01*
X148573Y109036D01*
X148824Y109054D01*
X149057Y109071D01*
X149595Y109125D01*
X149936Y109143D01*
X150098Y109161D01*
X150474Y109179D01*
X151102Y109197D01*
X151677Y109215D01*
X152322Y109233D01*
X153435Y109251D01*
X154314Y109269D01*
X156961Y109278D01*
X157015Y109260D01*
X157140D01*
X159311Y109242D01*
X159365Y109224D01*
X160675Y109206D01*
X160729Y109188D01*
X161428Y109170D01*
X161482Y109152D01*
X161922Y109125D01*
X162335Y109107D01*
X162550Y109071D01*
X162729Y109054D01*
X163142Y109036D01*
X163483Y109018D01*
X163770Y109000D01*
X164595Y108964D01*
X164901Y108946D01*
X165152Y108928D01*
X165313Y108910D01*
X165600Y108874D01*
X165708Y108856D01*
X165995Y108820D01*
X166156Y108802D01*
X166372Y108784D01*
X166605Y108766D01*
X166785Y108748D01*
X167072Y108730D01*
X167305Y108712D01*
X167520Y108695D01*
X167682Y108677D01*
X167861Y108659D01*
X168076Y108623D01*
X168310Y108587D01*
X168552Y108560D01*
X168624Y108542D01*
X168812Y108515D01*
X169279Y108479D01*
X169458Y108461D01*
X169781Y108425D01*
X170014Y108390D01*
X170283Y108336D01*
X170391Y108318D01*
X170535Y108300D01*
X170750Y108264D01*
X170840Y108246D01*
X170983Y108228D01*
X171180Y108210D01*
X171539Y108156D01*
X171629Y108138D01*
X171737Y108120D01*
X171916Y108084D01*
X172060Y108049D01*
X172275Y108013D01*
X172365Y107995D01*
X172544Y107977D01*
X172741Y107959D01*
X172849Y107941D01*
X172921Y107923D01*
X173136Y107887D01*
X173226Y107869D01*
X173370Y107833D01*
X173450Y107806D01*
X173567Y107780D01*
X173746Y107744D01*
X174105Y107690D01*
X174213Y107672D01*
X174392Y107636D01*
X174464Y107618D01*
X174572Y107600D01*
X174751Y107564D01*
X174895Y107510D01*
X174993Y107483D01*
X175244Y107448D01*
X175415Y107421D01*
X175630Y107367D01*
X175837Y107304D01*
X175908Y107286D01*
X176034Y107250D01*
X176133Y107223D01*
X176222Y107205D01*
X176509Y107134D01*
X176599Y107116D01*
X176671Y107098D01*
X176779Y107080D01*
X176850Y107062D01*
X176994Y107008D01*
X177075Y106981D01*
X177218Y106945D01*
X177371Y106918D01*
X177461Y106900D01*
X177532Y106882D01*
X177730Y106811D01*
X177819Y106775D01*
X177936Y106730D01*
X178008Y106712D01*
X178133Y106676D01*
X178349Y106622D01*
X178573Y106542D01*
X178725Y106479D01*
X178869Y106443D01*
X178995Y106407D01*
X179174Y106353D01*
X179497Y106210D01*
X179587Y106174D01*
X179766Y106120D01*
X179990Y106039D01*
X180080Y106003D01*
X180107Y105976D01*
X180224Y105931D01*
X180313Y105895D01*
X180457Y105842D01*
X180609Y105761D01*
X180699Y105707D01*
X180825Y105653D01*
X181076Y105564D01*
X181202Y105474D01*
X181237Y105456D01*
X181471Y105348D01*
X181560Y105312D01*
X181632Y105294D01*
X181794Y105312D01*
X181964Y105483D01*
X181982Y105519D01*
X182018Y105555D01*
X182036Y105590D01*
X182126Y105788D01*
X182143Y105860D01*
X182152Y106012D01*
X182135Y106192D01*
X182117Y106281D01*
X182081Y106371D01*
X182036Y106434D01*
X181865Y106658D01*
X181821Y106721D01*
X181740Y106820D01*
X181632Y106927D01*
X181596Y106945D01*
X181560Y106981D01*
X181525Y106999D01*
X181435Y107089D01*
X181399Y107107D01*
X181363Y107142D01*
X181327Y107160D01*
X181291Y107196D01*
X181255Y107214D01*
X181130Y107304D01*
X181094Y107340D01*
X181058Y107358D01*
X180789Y107501D01*
X180663Y107591D01*
X180627Y107609D01*
X180394Y107717D01*
X180278Y107762D01*
X180125Y107842D01*
X180017Y107914D01*
X179820Y107968D01*
X179703Y108013D01*
X179614Y108049D01*
X179353Y108183D01*
X179022Y108300D01*
X178797Y108398D01*
X178600Y108452D01*
X178420Y108506D01*
X178331Y108542D01*
X178214Y108587D01*
X178035Y108659D01*
X177936Y108686D01*
X177864Y108704D01*
X177739Y108739D01*
X177595Y108775D01*
X177478Y108820D01*
X177335Y108874D01*
X177182Y108919D01*
X177111Y108937D01*
X176859Y109009D01*
X176734Y109027D01*
X176662Y109045D01*
X176545Y109071D01*
X176456Y109107D01*
X176196Y109188D01*
X176052Y109224D01*
X175756Y109287D01*
X175666Y109305D01*
X175514Y109350D01*
X175397Y109394D01*
X175298Y109421D01*
X175227Y109439D01*
X175101Y109457D01*
X175029Y109475D01*
X174895Y109502D01*
X174464Y109574D01*
X174311Y109619D01*
X173953Y109708D01*
X173567Y109771D01*
X173477Y109789D01*
X173370Y109807D01*
X173298Y109825D01*
X173082Y109861D01*
X172993Y109879D01*
X172921Y109897D01*
X172804Y109942D01*
X172661Y109977D01*
X172401Y110004D01*
X172158Y110031D01*
X172087Y110049D01*
X171880Y110076D01*
X171665Y110112D01*
X171566Y110139D01*
X171450Y110166D01*
X171360Y110184D01*
X171288Y110202D01*
X171180Y110220D01*
X171019Y110238D01*
X170786Y110274D01*
X170544Y110301D01*
X170247Y110327D01*
X170014Y110363D01*
X169799Y110399D01*
X169727Y110417D01*
X169619Y110435D01*
X169548Y110453D01*
X169332Y110489D01*
X169189Y110507D01*
X168758Y110543D01*
X168597Y110561D01*
X168292Y110579D01*
X168094Y110597D01*
X167951Y110615D01*
X167718Y110650D01*
X167610Y110668D01*
X167520Y110686D01*
X167027Y110749D01*
X166695Y110776D01*
X166533Y110794D01*
X166246Y110812D01*
X165546Y110866D01*
X165367Y110884D01*
X165170Y110902D01*
X165026Y110919D01*
X164829Y110938D01*
X164649Y110955D01*
X164560Y110973D01*
X164452Y110991D01*
X163564Y111036D01*
X163438Y111054D01*
X162720Y111072D01*
X162487Y111090D01*
X161877Y111108D01*
X160881Y111171D01*
X160522Y111189D01*
X160280Y111216D01*
X159060Y111251D01*
X158665Y111269D01*
X157840Y111287D01*
X156073Y111296D01*
D02*
G37*
%LPD*%
D10*
X214025Y98475D02*
G03*
X217525Y94975I3500J-0D01*
G01*
X217525Y94975D02*
G03*
X214025Y91475I-0J-3500D01*
G01*
X210525Y94975D02*
G03*
X214025Y98475I0J3500D01*
G01*
Y91475D02*
G03*
X210525Y94975I-3500J0D01*
G01*
X109299Y162669D02*
G03*
X111299Y160669I2000J0D01*
G01*
D02*
G03*
X109299Y158669I0J-2000D01*
G01*
X107299Y160669D02*
G03*
X109299Y162669I0J2000D01*
G01*
Y158669D02*
G03*
X107299Y160669I-2000J0D01*
G01*
X195086Y157586D02*
G03*
X197086Y155586I2000J0D01*
G01*
D02*
G03*
X195086Y153586I0J-2000D01*
G01*
X193086Y155586D02*
G03*
X195086Y157586I0J2000D01*
G01*
Y153586D02*
G03*
X193086Y155586I-2000J0D01*
G01*
X103279Y77663D02*
G03*
X106779Y74164I3500J-0D01*
G01*
X106779Y74164D02*
G03*
X103279Y70663I-0J-3500D01*
G01*
X99779Y74164D02*
G03*
X103279Y77663I0J3500D01*
G01*
Y70663D02*
G03*
X99779Y74164I-3500J0D01*
G01*
X103241Y77721D02*
G03*
X106741Y74221I3500J-0D01*
G01*
X106741Y74221D02*
G03*
X103241Y70721I-0J-3500D01*
G01*
X99741Y74221D02*
G03*
X103241Y77721I0J3500D01*
G01*
Y70721D02*
G03*
X99741Y74221I-3500J0D01*
G01*
M02*
