G04*
G04 #@! TF.GenerationSoftware,Altium Limited,Altium Designer,21.8.1 (53)*
G04*
G04 Layer_Color=8388736*
%FSLAX25Y25*%
%MOIN*%
G70*
G04*
G04 #@! TF.SameCoordinates,45F2FB6D-C354-490B-B6FA-590C3EB5E4E4*
G04*
G04*
G04 #@! TF.FilePolarity,Negative*
G04*
G01*
G75*
%ADD10C,0.00800*%
G36*
X156682Y165344D02*
X156175D01*
Y165243D01*
X158103D01*
Y165141D01*
X160945D01*
Y165040D01*
X161351D01*
Y164735D01*
X162163D01*
Y164634D01*
X163584D01*
Y164532D01*
X163889D01*
Y164228D01*
X164498D01*
Y164126D01*
X165716D01*
Y164025D01*
X165817D01*
Y163923D01*
X165716D01*
Y163822D01*
X165817D01*
Y163720D01*
X165919D01*
Y163822D01*
X166122D01*
Y163720D01*
X166731D01*
Y163619D01*
X167543D01*
Y163314D01*
X167644D01*
Y163213D01*
X168456D01*
Y163111D01*
X168862D01*
Y162502D01*
X169370D01*
Y162401D01*
X169878D01*
Y162096D01*
X169979D01*
Y161995D01*
X170080D01*
Y162096D01*
X170182D01*
Y161995D01*
X170791D01*
Y161893D01*
X170994D01*
Y161690D01*
X170893D01*
Y161589D01*
X171197D01*
Y161792D01*
X171096D01*
Y161893D01*
X171400D01*
Y161589D01*
X171502D01*
Y161487D01*
X172110D01*
Y161386D01*
X172415D01*
Y161081D01*
X172517D01*
Y160980D01*
X173024D01*
Y160574D01*
X173531D01*
Y160472D01*
X173937D01*
Y160168D01*
X174039D01*
Y160066D01*
X174648D01*
Y159965D01*
X174851D01*
Y159863D01*
X174952D01*
Y159965D01*
X175054D01*
Y159863D01*
X175156D01*
Y159762D01*
X175054D01*
Y159660D01*
X174952D01*
Y159762D01*
X174851D01*
Y159660D01*
X174750D01*
Y159457D01*
X175054D01*
Y159356D01*
X175257D01*
Y159254D01*
X175663D01*
Y158848D01*
X176171D01*
Y158747D01*
X176272D01*
Y158442D01*
X176577D01*
Y158341D01*
X176678D01*
Y158239D01*
X177084D01*
Y157934D01*
X177186D01*
Y157833D01*
X177795D01*
Y157731D01*
X177896D01*
Y157427D01*
X177998D01*
Y157325D01*
X178404D01*
Y156920D01*
X178810D01*
Y156818D01*
X178911D01*
Y156717D01*
X179216D01*
Y156514D01*
X178911D01*
Y156209D01*
X179114D01*
Y156310D01*
X179216D01*
Y156209D01*
X179317D01*
Y156107D01*
X179723D01*
Y155701D01*
X179825D01*
Y155600D01*
X180028D01*
Y155499D01*
X180129D01*
Y155600D01*
X180434D01*
Y155296D01*
X180535D01*
Y155194D01*
X180637D01*
Y155093D01*
X180941D01*
Y154788D01*
X181043D01*
Y154585D01*
X181449D01*
Y154179D01*
X181550D01*
Y154077D01*
X181652D01*
Y153773D01*
X181956D01*
Y153672D01*
X182058D01*
Y153570D01*
X182159D01*
Y153367D01*
X182058D01*
Y153062D01*
X182464D01*
Y152961D01*
X182565D01*
Y152555D01*
X182870D01*
Y152453D01*
X182971D01*
Y152048D01*
X183073D01*
Y151946D01*
X183377D01*
Y152048D01*
X183580D01*
Y151946D01*
X183682D01*
Y151540D01*
X183783D01*
Y151438D01*
X184189D01*
Y151032D01*
X184291D01*
Y150626D01*
X184595D01*
Y150525D01*
X184697D01*
Y149814D01*
X185103D01*
Y149408D01*
X185204D01*
Y149205D01*
X185306D01*
Y149104D01*
X185204D01*
Y149002D01*
X185306D01*
Y148901D01*
X185610D01*
Y148799D01*
X185712D01*
Y148292D01*
X186118D01*
Y147886D01*
X186219D01*
Y147378D01*
X186625D01*
Y147480D01*
X186727D01*
Y147378D01*
X186828D01*
Y146668D01*
X186930D01*
Y146160D01*
X187336D01*
Y145653D01*
X187437D01*
Y145247D01*
X187742D01*
Y145145D01*
X187843D01*
Y144638D01*
X187945D01*
Y144232D01*
X188249D01*
Y144130D01*
X188351D01*
Y143014D01*
X188452D01*
Y142912D01*
X188554D01*
Y143014D01*
X188757D01*
Y142506D01*
X188858D01*
Y141593D01*
X188960D01*
Y141491D01*
X189061D01*
Y141593D01*
X189163D01*
Y141491D01*
X189264D01*
Y140476D01*
X189366D01*
Y140273D01*
X190178D01*
Y140172D01*
X190279D01*
Y140273D01*
X190482D01*
Y140172D01*
X190584D01*
Y140070D01*
X190482D01*
Y139969D01*
X190888D01*
Y139867D01*
X193223D01*
Y139766D01*
X194745D01*
Y139664D01*
X194948D01*
Y139766D01*
X195050D01*
Y139563D01*
X194745D01*
Y139461D01*
X195557D01*
Y139360D01*
X197993D01*
Y139258D01*
X198095D01*
Y139360D01*
X198196D01*
Y139258D01*
X199516D01*
Y139055D01*
X199414D01*
Y138954D01*
X200023D01*
Y138852D01*
X202053D01*
Y138751D01*
X202764D01*
Y138446D01*
X203678D01*
Y138345D01*
X205200D01*
Y138243D01*
X205809D01*
Y137939D01*
X205708D01*
Y137837D01*
X205809D01*
Y137736D01*
X206012D01*
Y137634D01*
X207839D01*
Y137533D01*
X208347D01*
Y137228D01*
X209463D01*
Y137127D01*
X210986D01*
Y137025D01*
X211087D01*
Y136924D01*
X210986D01*
Y136822D01*
X211087D01*
Y136721D01*
X212305D01*
Y136619D01*
X212508D01*
Y136721D01*
X212610D01*
Y136619D01*
X213625D01*
Y136213D01*
X214640D01*
Y136112D01*
X215452D01*
Y135807D01*
X215858D01*
Y135706D01*
X216873D01*
Y135604D01*
X217380D01*
Y135300D01*
X217888D01*
Y135198D01*
X219410D01*
Y135097D01*
X219512D01*
Y134995D01*
X219613D01*
Y134894D01*
X219512D01*
Y134589D01*
X219918D01*
Y134488D01*
X220730D01*
Y134386D01*
X220831D01*
Y134488D01*
X221136D01*
Y134386D01*
X221237D01*
Y134082D01*
X221643D01*
Y133980D01*
X222658D01*
Y133574D01*
X223166D01*
Y133473D01*
X223775D01*
Y133371D01*
X223978D01*
Y133473D01*
X224282D01*
Y133371D01*
X224384D01*
Y133270D01*
X224282D01*
Y133168D01*
X224384D01*
Y133067D01*
X224891D01*
Y132965D01*
X225399D01*
Y132864D01*
X225703D01*
Y132762D01*
X225399D01*
Y132661D01*
X225805D01*
Y132559D01*
X226312D01*
Y132458D01*
X226718D01*
Y132153D01*
X226820D01*
Y132052D01*
X227530D01*
Y131950D01*
X227936D01*
Y131849D01*
X228038D01*
Y131747D01*
X227936D01*
Y131646D01*
X227632D01*
Y131443D01*
X228038D01*
Y131341D01*
X228545D01*
Y131240D01*
X228951D01*
Y130834D01*
X229459D01*
Y130732D01*
X229865D01*
Y130529D01*
X229763D01*
Y130631D01*
X229560D01*
Y130428D01*
X229966D01*
Y130326D01*
X230677D01*
Y129920D01*
X230880D01*
Y129819D01*
X230981D01*
Y129920D01*
X231083D01*
Y129819D01*
X231286D01*
Y129413D01*
X231692D01*
Y129311D01*
X232098D01*
Y128905D01*
X232301D01*
Y128804D01*
X232605D01*
Y128195D01*
X232707D01*
Y128093D01*
X233113D01*
Y127687D01*
X233214D01*
Y127586D01*
X233316D01*
Y127383D01*
X233214D01*
Y127281D01*
X233519D01*
Y127586D01*
X233722D01*
Y127281D01*
X233823D01*
Y127180D01*
X233925D01*
Y126672D01*
X234331D01*
Y125860D01*
X234432D01*
Y125556D01*
X234737D01*
Y125353D01*
X234635D01*
Y125454D01*
X234534D01*
Y125353D01*
X234432D01*
Y125048D01*
X234635D01*
Y125150D01*
X234737D01*
Y125048D01*
X234838D01*
Y123424D01*
X234737D01*
Y123119D01*
X234432D01*
Y122612D01*
X234331D01*
Y121800D01*
X233925D01*
Y121292D01*
X233823D01*
Y120887D01*
X233214D01*
Y120785D01*
X233113D01*
Y120379D01*
X232707D01*
Y120278D01*
X232605D01*
Y119871D01*
X232199D01*
Y119770D01*
X232098D01*
Y119668D01*
X232199D01*
Y119567D01*
X232098D01*
Y119465D01*
X231793D01*
Y119364D01*
X231692D01*
Y119263D01*
X231590D01*
Y118958D01*
X231692D01*
Y118857D01*
X231590D01*
Y118755D01*
X231286D01*
Y118653D01*
X230778D01*
Y118247D01*
X230575D01*
Y118146D01*
X230372D01*
Y118247D01*
X230068D01*
Y118146D01*
X229966D01*
Y117740D01*
X229459D01*
Y117638D01*
X229053D01*
Y117334D01*
X228951D01*
Y117232D01*
X228545D01*
Y117131D01*
X228038D01*
Y116928D01*
X228139D01*
Y116826D01*
X228038D01*
Y116725D01*
X227429D01*
Y116623D01*
X227226D01*
Y116725D01*
X226921D01*
Y116623D01*
X226820D01*
Y116319D01*
X226414D01*
Y116217D01*
X225805D01*
Y116116D01*
X225703D01*
Y116014D01*
X225602D01*
Y116116D01*
X225500D01*
Y115913D01*
X225805D01*
Y115608D01*
X225399D01*
Y115507D01*
X224891D01*
Y115405D01*
X224485D01*
Y115101D01*
X224282D01*
Y114999D01*
X223166D01*
Y114898D01*
X223064D01*
Y114796D01*
X223166D01*
Y114695D01*
X223064D01*
Y114593D01*
X222252D01*
Y114492D01*
X221643D01*
Y114390D01*
X221542D01*
Y114289D01*
X221643D01*
Y114187D01*
X221339D01*
Y114086D01*
X220425D01*
Y113984D01*
X220222D01*
Y114086D01*
X220121D01*
Y113984D01*
X219613D01*
Y113680D01*
X219512D01*
Y113578D01*
X218598D01*
Y113477D01*
X217888D01*
Y113172D01*
X217786D01*
Y113071D01*
X216771D01*
Y112969D01*
X215959D01*
Y112868D01*
X215858D01*
Y112766D01*
X215959D01*
Y112665D01*
X216162D01*
Y112766D01*
X216264D01*
Y112665D01*
X216365D01*
Y112462D01*
X215858D01*
Y112360D01*
X214234D01*
Y112259D01*
X213726D01*
Y111954D01*
X213219D01*
Y111853D01*
X212102D01*
Y111751D01*
X211899D01*
Y111853D01*
X211595D01*
Y111751D01*
X211392D01*
Y111650D01*
X211493D01*
Y111447D01*
X210986D01*
Y111345D01*
X209463D01*
Y111244D01*
X209159D01*
Y110939D01*
X207839D01*
Y110838D01*
X206722D01*
Y110736D01*
X206418D01*
Y110635D01*
X206722D01*
Y110533D01*
X206316D01*
Y110432D01*
X204185D01*
Y110330D01*
X203170D01*
Y110026D01*
X202764D01*
Y109924D01*
X200835D01*
Y109823D01*
X200734D01*
Y109924D01*
X200632D01*
Y109823D01*
X200023D01*
Y109721D01*
X199922D01*
Y109620D01*
X200023D01*
Y109315D01*
X199922D01*
Y109214D01*
X197790D01*
Y109112D01*
X196775D01*
Y108909D01*
X196877D01*
Y108808D01*
X196369D01*
Y108706D01*
X193223D01*
Y108605D01*
X191903D01*
Y108503D01*
X192005D01*
Y108300D01*
X190990D01*
Y108199D01*
X187437D01*
Y108097D01*
X186727D01*
Y107996D01*
X186828D01*
Y107793D01*
X184697D01*
Y107691D01*
X182971D01*
Y107285D01*
X182870D01*
Y107184D01*
X182565D01*
Y106676D01*
X182464D01*
Y106372D01*
X182565D01*
Y106169D01*
X182464D01*
Y105966D01*
X182058D01*
Y105560D01*
X181956D01*
Y105458D01*
X181652D01*
Y105154D01*
X181550D01*
Y105052D01*
X181449D01*
Y104951D01*
X181246D01*
Y105052D01*
X181144D01*
Y104951D01*
X181043D01*
Y104545D01*
X180535D01*
Y104443D01*
X179926D01*
Y104139D01*
X179723D01*
Y104037D01*
X178911D01*
Y103631D01*
X178302D01*
Y103530D01*
X177795D01*
Y102921D01*
X177084D01*
Y102819D01*
X176069D01*
Y102718D01*
X175765D01*
Y102413D01*
X174750D01*
Y102312D01*
X173430D01*
Y102007D01*
X173024D01*
Y101906D01*
X171502D01*
Y101804D01*
X170283D01*
Y101500D01*
X169878D01*
Y101398D01*
X167238D01*
Y101297D01*
X166629D01*
Y101195D01*
X166731D01*
Y100992D01*
X165310D01*
Y100891D01*
X160742D01*
Y100789D01*
X158814D01*
Y100688D01*
X157697D01*
Y100586D01*
X159727D01*
Y100485D01*
X160235D01*
Y100383D01*
X159930D01*
Y100282D01*
X151303D01*
Y100383D01*
X151201D01*
Y100485D01*
X151810D01*
Y100586D01*
X153028D01*
Y100688D01*
X152521D01*
Y100789D01*
X150389D01*
Y100891D01*
X145416D01*
Y100992D01*
X144502D01*
Y101297D01*
X143589D01*
Y101398D01*
X140949D01*
Y101500D01*
X140747D01*
Y101601D01*
X140848D01*
Y101703D01*
X140747D01*
Y101804D01*
X139630D01*
Y101906D01*
X137701D01*
Y102007D01*
X137600D01*
Y102109D01*
X137701D01*
Y102210D01*
X137600D01*
Y102312D01*
X136382D01*
Y102413D01*
X136281D01*
Y102312D01*
X136077D01*
Y102413D01*
X135063D01*
Y102718D01*
X134961D01*
Y102819D01*
X134047D01*
Y102921D01*
X133337D01*
Y103022D01*
X133235D01*
Y103124D01*
X133337D01*
Y103428D01*
X133235D01*
Y103530D01*
X132728D01*
Y103631D01*
X131916D01*
Y104037D01*
X131408D01*
Y104139D01*
X130901D01*
Y104545D01*
X130089D01*
Y104646D01*
X129784D01*
Y104951D01*
X129683D01*
Y105052D01*
X129277D01*
Y105154D01*
X129175D01*
Y105560D01*
X128769D01*
Y105661D01*
X128668D01*
Y105763D01*
X128769D01*
Y105864D01*
X128668D01*
Y106067D01*
X128262D01*
Y106778D01*
X128160D01*
Y107691D01*
X126029D01*
Y107793D01*
X124506D01*
Y107996D01*
X124608D01*
Y108097D01*
X123796D01*
Y108199D01*
X120142D01*
Y108300D01*
X118721D01*
Y108503D01*
X118822D01*
Y108605D01*
X118010D01*
Y108706D01*
X117909D01*
Y108605D01*
X117604D01*
Y108706D01*
X115067D01*
Y108808D01*
X114356D01*
Y109112D01*
X113240D01*
Y109214D01*
X111210D01*
Y109315D01*
X110702D01*
Y109417D01*
X110804D01*
Y109518D01*
X111108D01*
Y109620D01*
X111210D01*
Y109721D01*
X111108D01*
Y109823D01*
X110296D01*
Y109924D01*
X108571D01*
Y110026D01*
X108368D01*
Y109924D01*
X108063D01*
Y110026D01*
X107860D01*
Y110127D01*
X107962D01*
Y110330D01*
X106541D01*
Y110432D01*
X104409D01*
Y110533D01*
X104307D01*
Y110635D01*
X104409D01*
Y110736D01*
X104307D01*
Y110838D01*
X102988D01*
Y110939D01*
X101669D01*
Y111244D01*
X101567D01*
Y111345D01*
X100146D01*
Y111447D01*
X99638D01*
Y111751D01*
X99029D01*
Y111853D01*
X97608D01*
Y111954D01*
X97101D01*
Y112259D01*
X96593D01*
Y112360D01*
X94868D01*
Y112462D01*
X94766D01*
Y112665D01*
X94868D01*
Y112969D01*
X94360D01*
Y113071D01*
X93345D01*
Y113172D01*
X92635D01*
Y113375D01*
X92736D01*
Y113477D01*
X92229D01*
Y113578D01*
X91214D01*
Y113984D01*
X90706D01*
Y114086D01*
X89488D01*
Y114492D01*
X88575D01*
Y114593D01*
X87966D01*
Y114898D01*
X87661D01*
Y114999D01*
X87052D01*
Y115101D01*
X86342D01*
Y115405D01*
X86240D01*
Y115507D01*
X85428D01*
Y115608D01*
X85327D01*
Y115710D01*
X85225D01*
Y115811D01*
X85327D01*
Y116116D01*
X85225D01*
Y116217D01*
X85124D01*
Y116116D01*
X84921D01*
Y116217D01*
X84413D01*
Y116319D01*
X84210D01*
Y116522D01*
X84312D01*
Y116623D01*
X83906D01*
Y116725D01*
X83094D01*
Y116826D01*
X82688D01*
Y117131D01*
X82586D01*
Y117232D01*
X82079D01*
Y117334D01*
X81774D01*
Y117435D01*
X82079D01*
Y117537D01*
X81774D01*
Y117638D01*
X81673D01*
Y117740D01*
X81165D01*
Y118146D01*
X80658D01*
Y118247D01*
X80049D01*
Y118653D01*
X79541D01*
Y118755D01*
X79440D01*
Y119060D01*
X79541D01*
Y119263D01*
X79440D01*
Y119364D01*
X79034D01*
Y119465D01*
X78932D01*
Y119770D01*
X78628D01*
Y119871D01*
X78526D01*
Y119973D01*
X78425D01*
Y120278D01*
X78120D01*
Y120379D01*
X78019D01*
Y120785D01*
X77613D01*
Y120887D01*
X77511D01*
Y121292D01*
X76902D01*
Y121394D01*
X76801D01*
Y122003D01*
X76699D01*
Y122105D01*
X76801D01*
Y122511D01*
X76395D01*
Y123119D01*
X76293D01*
Y125657D01*
X76395D01*
Y126165D01*
X76699D01*
Y126266D01*
X76801D01*
Y126774D01*
X76902D01*
Y127180D01*
X77207D01*
Y127078D01*
X77410D01*
Y127180D01*
X77511D01*
Y127586D01*
X77613D01*
Y127687D01*
X78019D01*
Y128093D01*
X78120D01*
Y128195D01*
X78526D01*
Y128905D01*
X78932D01*
Y129007D01*
X79034D01*
Y129311D01*
X79440D01*
Y129413D01*
X79541D01*
Y129819D01*
X80049D01*
Y129920D01*
X80150D01*
Y130022D01*
X80252D01*
Y129920D01*
X80658D01*
Y130326D01*
X81165D01*
Y130428D01*
X81267D01*
Y130834D01*
X82079D01*
Y130935D01*
X82180D01*
Y131240D01*
X82586D01*
Y131341D01*
X83094D01*
Y131443D01*
X83195D01*
Y131646D01*
X83094D01*
Y131950D01*
X83195D01*
Y132052D01*
X84312D01*
Y132153D01*
X84413D01*
Y132255D01*
X84312D01*
Y132458D01*
X84515D01*
Y132559D01*
X84616D01*
Y132458D01*
X84718D01*
Y132559D01*
X85327D01*
Y132965D01*
X85936D01*
Y133067D01*
X86951D01*
Y133371D01*
X87052D01*
Y133473D01*
X87966D01*
Y133574D01*
X88473D01*
Y133777D01*
X88372D01*
Y133879D01*
X88473D01*
Y133980D01*
X89387D01*
Y134082D01*
X89590D01*
Y134386D01*
X89894D01*
Y134082D01*
X90097D01*
Y134285D01*
X89996D01*
Y134386D01*
X90199D01*
Y134488D01*
X91112D01*
Y134589D01*
X91315D01*
Y134792D01*
X91214D01*
Y135097D01*
X91620D01*
Y135198D01*
X92736D01*
Y135300D01*
X93447D01*
Y135503D01*
X93345D01*
Y135604D01*
X93954D01*
Y135706D01*
X94969D01*
Y135807D01*
X95071D01*
Y135706D01*
X95274D01*
Y135807D01*
X95375D01*
Y136112D01*
X95883D01*
Y136213D01*
X97202D01*
Y136315D01*
X97304D01*
Y136213D01*
X97405D01*
Y136315D01*
X97507D01*
Y136619D01*
X98522D01*
Y136721D01*
X99740D01*
Y137025D01*
X100146D01*
Y137127D01*
X101567D01*
Y137228D01*
X102785D01*
Y137431D01*
X102480D01*
Y137533D01*
X102988D01*
Y137634D01*
X104815D01*
Y137736D01*
X105526D01*
Y137837D01*
X105627D01*
Y137939D01*
X105526D01*
Y138243D01*
X105627D01*
Y138345D01*
X107150D01*
Y138446D01*
X108063D01*
Y138751D01*
X108774D01*
Y138852D01*
X110702D01*
Y138954D01*
X111920D01*
Y139055D01*
X111819D01*
Y139258D01*
X112834D01*
Y139360D01*
X115574D01*
Y139461D01*
X116082D01*
Y139766D01*
X117604D01*
Y139867D01*
X117909D01*
Y139766D01*
X118010D01*
Y139867D01*
X120243D01*
Y139969D01*
X120345D01*
Y139867D01*
X120548D01*
Y139969D01*
X120649D01*
Y140070D01*
X120548D01*
Y140172D01*
X120649D01*
Y140273D01*
X121360D01*
Y140375D01*
X121461D01*
Y140476D01*
X121664D01*
Y140375D01*
X121766D01*
Y140781D01*
X121867D01*
Y141999D01*
X121969D01*
Y142405D01*
X122172D01*
Y142303D01*
X122070D01*
Y142100D01*
X122273D01*
Y142506D01*
X122375D01*
Y143115D01*
X122476D01*
Y143217D01*
X122375D01*
Y143318D01*
X122476D01*
Y143420D01*
X122781D01*
Y143623D01*
X122882D01*
Y143826D01*
X122781D01*
Y144130D01*
X122882D01*
Y144739D01*
X123288D01*
Y145247D01*
X123390D01*
Y145754D01*
X123796D01*
Y146566D01*
X123897D01*
Y146668D01*
X123999D01*
Y146769D01*
X124100D01*
Y146668D01*
X124405D01*
Y146769D01*
X124506D01*
Y147378D01*
X124608D01*
Y147886D01*
X125014D01*
Y148393D01*
X125115D01*
Y148799D01*
X125318D01*
Y148698D01*
X125420D01*
Y148799D01*
X125521D01*
Y149307D01*
X125927D01*
Y149713D01*
X126029D01*
Y149916D01*
X126130D01*
Y150220D01*
X126029D01*
Y150423D01*
X126130D01*
Y150525D01*
X126536D01*
Y151032D01*
X126942D01*
Y151438D01*
X127044D01*
Y151540D01*
X127145D01*
Y151641D01*
X127247D01*
Y151540D01*
X127653D01*
Y151946D01*
X127754D01*
Y152149D01*
X127856D01*
Y152251D01*
X127754D01*
Y152352D01*
X127856D01*
Y152453D01*
X127957D01*
Y152352D01*
X128059D01*
Y152453D01*
X128160D01*
Y152555D01*
X128262D01*
Y152961D01*
X128668D01*
Y153062D01*
X128769D01*
Y153367D01*
X128668D01*
Y153570D01*
X128769D01*
Y153672D01*
X129074D01*
Y153773D01*
X129175D01*
Y154179D01*
X129581D01*
Y154280D01*
X129683D01*
Y154686D01*
X130089D01*
Y154788D01*
X130190D01*
Y155194D01*
X130901D01*
Y155600D01*
X131002D01*
Y155701D01*
X131104D01*
Y155600D01*
X131307D01*
Y155701D01*
X131408D01*
Y156107D01*
X131814D01*
Y156209D01*
X131916D01*
Y156514D01*
X131814D01*
Y156717D01*
X131916D01*
Y156818D01*
X132322D01*
Y156920D01*
X132423D01*
Y157325D01*
X132829D01*
Y157427D01*
X132931D01*
Y157528D01*
X133032D01*
Y157427D01*
X133235D01*
Y157630D01*
X132931D01*
Y157731D01*
X133235D01*
Y157833D01*
X133438D01*
Y157934D01*
X133641D01*
Y157833D01*
X133946D01*
Y157934D01*
X134047D01*
Y158341D01*
X134555D01*
Y158747D01*
X134657D01*
Y158848D01*
X134758D01*
Y158747D01*
X134961D01*
Y158848D01*
X135063D01*
Y158949D01*
X135164D01*
Y159254D01*
X135266D01*
Y159152D01*
X135367D01*
Y159254D01*
X135570D01*
Y159356D01*
X135976D01*
Y159457D01*
X136077D01*
Y159559D01*
X135976D01*
Y159965D01*
X136382D01*
Y160066D01*
X136687D01*
Y160168D01*
X136788D01*
Y160066D01*
X137092D01*
Y160168D01*
X137194D01*
Y160269D01*
X137092D01*
Y160371D01*
X137194D01*
Y160472D01*
X137600D01*
Y160574D01*
X137803D01*
Y160980D01*
X137905D01*
Y160878D01*
X138108D01*
Y160980D01*
X138311D01*
Y161081D01*
X138412D01*
Y160980D01*
X138514D01*
Y161081D01*
X138716D01*
Y161487D01*
X139529D01*
Y161589D01*
X139732D01*
Y161690D01*
X139630D01*
Y161893D01*
X140340D01*
Y161995D01*
X140848D01*
Y162096D01*
X140949D01*
Y162401D01*
X141356D01*
Y162502D01*
X141863D01*
Y162604D01*
X142269D01*
Y162807D01*
X142168D01*
Y162908D01*
X142066D01*
Y162807D01*
X141965D01*
Y163111D01*
X142066D01*
Y163010D01*
X142168D01*
Y163111D01*
X142371D01*
Y163213D01*
X143487D01*
Y163314D01*
X143589D01*
Y163619D01*
X144096D01*
Y163720D01*
X145010D01*
Y163822D01*
X145111D01*
Y163923D01*
X145010D01*
Y164025D01*
X145111D01*
Y164126D01*
X146228D01*
Y164228D01*
X147141D01*
Y164329D01*
X147243D01*
Y164431D01*
X147141D01*
Y164532D01*
X147243D01*
Y164634D01*
X148664D01*
Y164735D01*
X149476D01*
Y164938D01*
X149374D01*
Y165040D01*
X149882D01*
Y165141D01*
X152622D01*
Y165243D01*
X154957D01*
Y165344D01*
X154551D01*
Y165446D01*
X154449D01*
Y165547D01*
X156682D01*
Y165344D01*
D02*
G37*
G36*
X109376Y162221D02*
X109674Y161500D01*
X110226Y160948D01*
X110947Y160650D01*
X111337Y160611D01*
X110947Y160573D01*
X110226Y160274D01*
X109674Y159722D01*
X109376Y159001D01*
X109337Y158611D01*
X109299Y159001D01*
X109000Y159722D01*
X108448Y160274D01*
X107727Y160573D01*
X107337Y160611D01*
X107727Y160650D01*
X108448Y160948D01*
X109000Y161500D01*
X109299Y162221D01*
X109337Y162611D01*
X109376Y162221D01*
D02*
G37*
G36*
X195163Y157138D02*
X195461Y156417D01*
X196013Y155865D01*
X196734Y155566D01*
X197124Y155528D01*
X196734Y155490D01*
X196013Y155191D01*
X195461Y154639D01*
X195163Y153918D01*
X195124Y153528D01*
X195086Y153918D01*
X194787Y154639D01*
X194236Y155191D01*
X193515Y155490D01*
X193124Y155528D01*
X193515Y155566D01*
X194236Y155865D01*
X194787Y156417D01*
X195086Y157138D01*
X195124Y157528D01*
X195163Y157138D01*
D02*
G37*
%LPC*%
G36*
X135367Y159051D02*
X135266D01*
Y158949D01*
X135367D01*
Y159051D01*
D02*
G37*
G36*
X180129Y155397D02*
X180028D01*
Y155296D01*
X180129D01*
Y155397D01*
D02*
G37*
G36*
X181246Y154382D02*
X181144D01*
Y154280D01*
X181246D01*
Y154382D01*
D02*
G37*
G36*
X125420Y148596D02*
X125318D01*
Y148495D01*
X125420D01*
Y148596D01*
D02*
G37*
G36*
X199211Y139055D02*
X198907D01*
Y138954D01*
X199211D01*
Y139055D01*
D02*
G37*
G36*
X108571Y138649D02*
X108368D01*
Y138446D01*
X108571D01*
Y138649D01*
D02*
G37*
G36*
X170791Y139867D02*
X140340D01*
Y139766D01*
X137194D01*
Y139563D01*
X137295D01*
Y139461D01*
X135468D01*
Y139360D01*
X129784D01*
Y139258D01*
X128262D01*
Y139157D01*
X128668D01*
Y138954D01*
X126029D01*
Y138852D01*
X122781D01*
Y138751D01*
X121969D01*
Y138649D01*
X122273D01*
Y138548D01*
X121969D01*
Y138446D01*
X120142D01*
Y138345D01*
X118112D01*
Y138243D01*
X117807D01*
Y138345D01*
X117604D01*
Y138243D01*
X117401D01*
Y138040D01*
X117503D01*
Y137939D01*
X117706D01*
Y137837D01*
X117503D01*
Y137736D01*
X116488D01*
Y137634D01*
X113950D01*
Y137533D01*
X113747D01*
Y137431D01*
X113849D01*
Y137330D01*
X113747D01*
Y137228D01*
X111920D01*
Y137127D01*
X110195D01*
Y137025D01*
X110093D01*
Y136822D01*
X109687D01*
Y136721D01*
X107556D01*
Y136619D01*
X106541D01*
Y136518D01*
X106439D01*
Y136416D01*
X106541D01*
Y136315D01*
X106134D01*
Y136213D01*
X104307D01*
Y136112D01*
X103800D01*
Y135807D01*
X103394D01*
Y135706D01*
X101669D01*
Y135604D01*
X101161D01*
Y135503D01*
X101262D01*
Y135401D01*
X101161D01*
Y135300D01*
X100248D01*
Y135198D01*
X98928D01*
Y135097D01*
X98420D01*
Y134894D01*
X98522D01*
Y134792D01*
X98623D01*
Y134691D01*
X98522D01*
Y134589D01*
X98014D01*
Y134488D01*
X96593D01*
Y134386D01*
X96492D01*
Y134082D01*
X96086D01*
Y134285D01*
X96187D01*
Y134386D01*
X95984D01*
Y134082D01*
X95781D01*
Y133980D01*
X94766D01*
Y133879D01*
X94360D01*
Y133777D01*
X94462D01*
Y133676D01*
X94360D01*
Y133574D01*
X93751D01*
Y133473D01*
X92635D01*
Y133371D01*
X92533D01*
Y133270D01*
X92635D01*
Y133168D01*
X92533D01*
Y133067D01*
X91518D01*
Y132965D01*
X91417D01*
Y133067D01*
X91315D01*
Y132965D01*
X90706D01*
Y132661D01*
X90605D01*
Y132559D01*
X89488D01*
Y132458D01*
X88981D01*
Y132153D01*
X88879D01*
Y132052D01*
X88067D01*
Y131950D01*
X87966D01*
Y131849D01*
X87864D01*
Y131747D01*
X87966D01*
Y131443D01*
X87560D01*
Y131341D01*
X86951D01*
Y131240D01*
X86342D01*
Y130935D01*
X85936D01*
Y130834D01*
X85327D01*
Y130732D01*
X85225D01*
Y130428D01*
X84819D01*
Y130326D01*
X84312D01*
Y130225D01*
X84007D01*
Y130022D01*
X83906D01*
Y129920D01*
X83703D01*
Y129819D01*
X83500D01*
Y129920D01*
X83297D01*
Y129819D01*
X83094D01*
Y129514D01*
X82992D01*
Y129413D01*
X82891D01*
Y129514D01*
X82789D01*
Y129413D01*
X82586D01*
Y129311D01*
X82180D01*
Y129007D01*
X82079D01*
Y128905D01*
X81571D01*
Y128804D01*
X81267D01*
Y128702D01*
X81165D01*
Y128499D01*
X81267D01*
Y128296D01*
X81165D01*
Y128195D01*
X80759D01*
Y128093D01*
X80658D01*
Y127687D01*
X79947D01*
Y127281D01*
X79541D01*
Y127180D01*
X79440D01*
Y126774D01*
X79034D01*
Y126571D01*
X78932D01*
Y126266D01*
X78628D01*
Y126165D01*
X78526D01*
Y125556D01*
X78425D01*
Y125353D01*
X78526D01*
Y125150D01*
X78425D01*
Y124947D01*
X78120D01*
Y124033D01*
X78932D01*
Y124135D01*
X79034D01*
Y124439D01*
X79135D01*
Y124540D01*
X79541D01*
Y124947D01*
X80049D01*
Y125048D01*
X80658D01*
Y125657D01*
X81064D01*
Y125759D01*
X81267D01*
Y126165D01*
X81470D01*
Y126063D01*
X81571D01*
Y126165D01*
X81774D01*
Y126266D01*
X82180D01*
Y126571D01*
X82282D01*
Y126672D01*
X82789D01*
Y126774D01*
X82891D01*
Y126672D01*
X82992D01*
Y126774D01*
X83195D01*
Y127078D01*
X83297D01*
Y127180D01*
X83500D01*
Y127078D01*
X83703D01*
Y127180D01*
X84312D01*
Y127281D01*
X84413D01*
Y127586D01*
X84819D01*
Y127687D01*
X85428D01*
Y127789D01*
X85733D01*
Y128093D01*
X85936D01*
Y128195D01*
X86951D01*
Y128296D01*
X87052D01*
Y128499D01*
X86951D01*
Y128702D01*
X87052D01*
Y128804D01*
X87458D01*
Y128905D01*
X88169D01*
Y129007D01*
X88270D01*
Y128905D01*
X88372D01*
Y129007D01*
X88473D01*
Y129311D01*
X89082D01*
Y129413D01*
X90199D01*
Y129819D01*
X91214D01*
Y129920D01*
X91721D01*
Y130326D01*
X92736D01*
Y130428D01*
X93041D01*
Y130326D01*
X93244D01*
Y130428D01*
X93447D01*
Y130732D01*
X93853D01*
Y130834D01*
X94969D01*
Y130935D01*
X95071D01*
Y130834D01*
X95172D01*
Y130935D01*
X95375D01*
Y131240D01*
X96492D01*
Y131341D01*
X97507D01*
Y131443D01*
X98014D01*
Y131646D01*
X97913D01*
Y131747D01*
X97608D01*
Y131849D01*
X97913D01*
Y131950D01*
X98420D01*
Y132052D01*
X99740D01*
Y132153D01*
X100146D01*
Y132458D01*
X100755D01*
Y132559D01*
X102379D01*
Y132661D01*
X102785D01*
Y132965D01*
X103902D01*
Y133067D01*
X105526D01*
Y133168D01*
X105627D01*
Y133371D01*
X105931D01*
Y133473D01*
X107556D01*
Y133574D01*
X108875D01*
Y133676D01*
X108977D01*
Y133574D01*
X109078D01*
Y133777D01*
X108774D01*
Y133879D01*
X109281D01*
Y133980D01*
X111210D01*
Y134082D01*
X112022D01*
Y134183D01*
X111920D01*
Y134386D01*
X112834D01*
Y134488D01*
X115168D01*
Y134589D01*
X115980D01*
Y134691D01*
X116082D01*
Y134792D01*
X115980D01*
Y134894D01*
X115574D01*
Y135097D01*
X116488D01*
Y135198D01*
X119330D01*
Y135300D01*
X119431D01*
Y135198D01*
X119634D01*
Y135300D01*
X120751D01*
Y135401D01*
X120649D01*
Y135604D01*
X122375D01*
Y135706D01*
X125927D01*
Y135807D01*
X126130D01*
Y136112D01*
X128668D01*
Y136213D01*
X132728D01*
Y136315D01*
X132931D01*
Y136416D01*
X132829D01*
Y136518D01*
X132931D01*
Y136619D01*
X137701D01*
Y136721D01*
X143589D01*
Y136822D01*
X144096D01*
Y136924D01*
X143589D01*
Y137025D01*
X145010D01*
Y137127D01*
X166122D01*
Y137025D01*
X167238D01*
Y136924D01*
X166731D01*
Y136822D01*
X167238D01*
Y136721D01*
X167441D01*
Y136822D01*
X167543D01*
Y136721D01*
X173430D01*
Y136619D01*
X177896D01*
Y136315D01*
X178302D01*
Y136213D01*
X182464D01*
Y136112D01*
X184595D01*
Y135909D01*
X184291D01*
Y135807D01*
X185103D01*
Y135706D01*
X188452D01*
Y135604D01*
X188554D01*
Y135706D01*
X188757D01*
Y135604D01*
X190178D01*
Y135503D01*
X190076D01*
Y135300D01*
X191497D01*
Y135198D01*
X194644D01*
Y135097D01*
X195253D01*
Y134894D01*
X195151D01*
Y134792D01*
X195050D01*
Y134691D01*
X195151D01*
Y134589D01*
X195659D01*
Y134488D01*
X198298D01*
Y134386D01*
X198805D01*
Y134082D01*
X199516D01*
Y133980D01*
X201546D01*
Y133879D01*
X202053D01*
Y133777D01*
X201952D01*
Y133676D01*
X202053D01*
Y133574D01*
X203272D01*
Y133473D01*
X205099D01*
Y133371D01*
X205301D01*
Y133270D01*
X205200D01*
Y133168D01*
X205301D01*
Y133067D01*
X205504D01*
Y133168D01*
X205809D01*
Y133067D01*
X206926D01*
Y132965D01*
X208347D01*
Y132661D01*
X208448D01*
Y132559D01*
X208651D01*
Y132661D01*
X208956D01*
Y132559D01*
X210072D01*
Y132458D01*
X210986D01*
Y132255D01*
X210884D01*
Y132153D01*
X210986D01*
Y132052D01*
X212711D01*
Y131950D01*
X213117D01*
Y131849D01*
X213219D01*
Y131747D01*
X213117D01*
Y131646D01*
X212813D01*
Y131443D01*
X212914D01*
Y131544D01*
X213016D01*
Y131443D01*
X213219D01*
Y131341D01*
X214538D01*
Y131240D01*
X215452D01*
Y130935D01*
X215858D01*
Y130834D01*
X216974D01*
Y130732D01*
X217076D01*
Y130834D01*
X217177D01*
Y130732D01*
X217380D01*
Y130428D01*
X217786D01*
Y130326D01*
X219106D01*
Y130225D01*
X219207D01*
Y130123D01*
X219106D01*
Y129920D01*
X219309D01*
Y130022D01*
X219410D01*
Y129920D01*
X219918D01*
Y129819D01*
X220628D01*
Y129717D01*
X220933D01*
Y129819D01*
X221034D01*
Y129717D01*
X221136D01*
Y129413D01*
X221745D01*
Y129311D01*
X222658D01*
Y128905D01*
X223572D01*
Y128804D01*
X224282D01*
Y128702D01*
X224384D01*
Y128601D01*
X224282D01*
Y128499D01*
X224181D01*
Y128296D01*
X224282D01*
Y128195D01*
X224891D01*
Y128093D01*
X225399D01*
Y127687D01*
X225906D01*
Y127586D01*
X226414D01*
Y127281D01*
X226718D01*
Y127180D01*
X227530D01*
Y127078D01*
X227936D01*
Y126774D01*
X228038D01*
Y126672D01*
X228545D01*
Y126571D01*
X228647D01*
Y126266D01*
X228748D01*
Y126368D01*
X228850D01*
Y126266D01*
X229053D01*
Y126165D01*
X229459D01*
Y126063D01*
X229560D01*
Y125962D01*
X229459D01*
Y125860D01*
X229560D01*
Y125759D01*
X229966D01*
Y125657D01*
X230677D01*
Y125048D01*
X230778D01*
Y124947D01*
X231184D01*
Y124845D01*
X231286D01*
Y124743D01*
X231184D01*
Y124642D01*
X231286D01*
Y124540D01*
X231692D01*
Y124439D01*
X231793D01*
Y124135D01*
X232098D01*
Y124033D01*
X232199D01*
Y123932D01*
X232301D01*
Y123627D01*
X232504D01*
Y123932D01*
X232605D01*
Y124033D01*
X232707D01*
Y125150D01*
X232605D01*
Y125353D01*
X232707D01*
Y125556D01*
X232605D01*
Y125759D01*
X232301D01*
Y125860D01*
X232199D01*
Y126266D01*
X232098D01*
Y126672D01*
X231692D01*
Y127078D01*
X231590D01*
Y127180D01*
X231184D01*
Y127586D01*
X231083D01*
Y127687D01*
X230677D01*
Y128093D01*
X230068D01*
Y128195D01*
X229560D01*
Y128804D01*
X229459D01*
Y128905D01*
X229053D01*
Y129007D01*
X228951D01*
Y129311D01*
X228545D01*
Y129413D01*
X228038D01*
Y129819D01*
X227530D01*
Y129920D01*
X226820D01*
Y130326D01*
X226312D01*
Y130428D01*
X225805D01*
Y130631D01*
X225906D01*
Y130732D01*
X225805D01*
Y130834D01*
X224891D01*
Y130935D01*
X224485D01*
Y131240D01*
X224384D01*
Y131341D01*
X223267D01*
Y131443D01*
X223166D01*
Y131950D01*
X223064D01*
Y132052D01*
X222963D01*
Y131950D01*
X222760D01*
Y132052D01*
X222151D01*
Y132153D01*
X221745D01*
Y132356D01*
X221846D01*
Y132458D01*
X221643D01*
Y132559D01*
X220425D01*
Y132661D01*
X220019D01*
Y132762D01*
X220121D01*
Y132864D01*
X220019D01*
Y132965D01*
X219512D01*
Y133067D01*
X218497D01*
Y133473D01*
X218091D01*
Y133371D01*
X217989D01*
Y133473D01*
X217380D01*
Y133574D01*
X216365D01*
Y133980D01*
X215350D01*
Y134082D01*
X214538D01*
Y134285D01*
X214640D01*
Y134386D01*
X214132D01*
Y134488D01*
X213117D01*
Y134589D01*
X212204D01*
Y134792D01*
X212305D01*
Y134894D01*
X212711D01*
Y134995D01*
X212610D01*
Y135097D01*
X212204D01*
Y135198D01*
X210478D01*
Y135300D01*
X209565D01*
Y135503D01*
X209666D01*
Y135604D01*
X209463D01*
Y135706D01*
X209260D01*
Y135604D01*
X209159D01*
Y135706D01*
X207737D01*
Y135807D01*
X207230D01*
Y135909D01*
X207331D01*
Y136112D01*
X206722D01*
Y136213D01*
X204693D01*
Y136315D01*
X204591D01*
Y136619D01*
X203272D01*
Y136721D01*
X201444D01*
Y136822D01*
X201038D01*
Y136924D01*
X201140D01*
Y137025D01*
X201038D01*
Y137127D01*
X198907D01*
Y137228D01*
X197384D01*
Y137330D01*
X197283D01*
Y137431D01*
X197384D01*
Y137533D01*
X196877D01*
Y137634D01*
X194339D01*
Y137736D01*
X193223D01*
Y138040D01*
X193629D01*
Y138243D01*
X193223D01*
Y138345D01*
X190990D01*
Y138446D01*
X188858D01*
Y138548D01*
X188757D01*
Y138649D01*
X188858D01*
Y138751D01*
X188351D01*
Y138852D01*
X184697D01*
Y138954D01*
X182058D01*
Y139157D01*
X182464D01*
Y139258D01*
X181043D01*
Y139360D01*
X175562D01*
Y139461D01*
X175460D01*
Y139360D01*
X175257D01*
Y139461D01*
X173531D01*
Y139563D01*
X173836D01*
Y139664D01*
X173937D01*
Y139766D01*
X170791D01*
Y139867D01*
D02*
G37*
G36*
X205504Y138040D02*
X205301D01*
Y137939D01*
X205200D01*
Y137837D01*
X205301D01*
Y137736D01*
X205504D01*
Y137837D01*
X205606D01*
Y137939D01*
X205504D01*
Y138040D01*
D02*
G37*
G36*
X109890Y137025D02*
X109789D01*
Y136924D01*
X109890D01*
Y137025D01*
D02*
G37*
G36*
X126435Y135909D02*
X126333D01*
Y135807D01*
X126435D01*
Y135909D01*
D02*
G37*
G36*
X105931Y133270D02*
X105830D01*
Y133168D01*
X105931D01*
Y133270D01*
D02*
G37*
G36*
X228748Y131037D02*
X228647D01*
Y130935D01*
X228748D01*
Y131037D01*
D02*
G37*
G36*
X85124Y130732D02*
X85022D01*
Y130631D01*
X85124D01*
Y130732D01*
D02*
G37*
G36*
X93751Y130529D02*
X93650D01*
Y130428D01*
X93751D01*
Y130529D01*
D02*
G37*
G36*
X220831Y129616D02*
X220628D01*
Y129514D01*
X220831D01*
Y129616D01*
D02*
G37*
G36*
X224079Y128499D02*
X223775D01*
Y128296D01*
X224079D01*
Y128499D01*
D02*
G37*
G36*
X227733Y126875D02*
X227632D01*
Y126774D01*
X227733D01*
Y126875D01*
D02*
G37*
G36*
X221440Y114390D02*
X221339D01*
Y114289D01*
X221440D01*
Y114390D01*
D02*
G37*
G36*
X156073Y112462D02*
X155769D01*
Y112360D01*
X146837D01*
Y112259D01*
X145010D01*
Y111954D01*
X144096D01*
Y111853D01*
X141356D01*
Y111751D01*
X140848D01*
Y111650D01*
X140949D01*
Y111447D01*
X140340D01*
Y111345D01*
X138514D01*
Y111244D01*
X138412D01*
Y111345D01*
X138311D01*
Y111244D01*
X138209D01*
Y110939D01*
X137194D01*
Y110838D01*
X135976D01*
Y110736D01*
X135874D01*
Y110635D01*
X135976D01*
Y110533D01*
X135570D01*
Y110432D01*
X134555D01*
Y110330D01*
X134047D01*
Y110026D01*
X133844D01*
Y109924D01*
X133743D01*
Y110026D01*
X133438D01*
Y109924D01*
X132728D01*
Y109823D01*
X132322D01*
Y109518D01*
X132423D01*
Y109315D01*
X132322D01*
Y109214D01*
X131814D01*
Y109112D01*
X131408D01*
Y108808D01*
X131307D01*
Y108706D01*
X130901D01*
Y108605D01*
X130799D01*
Y108300D01*
X130190D01*
Y108199D01*
X130089D01*
Y107691D01*
X129784D01*
Y107590D01*
X129683D01*
Y107387D01*
X129784D01*
Y107285D01*
X130089D01*
Y107184D01*
X130190D01*
Y106879D01*
X130292D01*
Y106778D01*
X130799D01*
Y107082D01*
X130901D01*
Y107184D01*
X131408D01*
Y107285D01*
X131814D01*
Y107590D01*
X131916D01*
Y107691D01*
X132829D01*
Y107793D01*
X132931D01*
Y108097D01*
X133337D01*
Y108199D01*
X134555D01*
Y108300D01*
X134961D01*
Y108605D01*
X135570D01*
Y108706D01*
X137194D01*
Y108808D01*
X137295D01*
Y108909D01*
X137194D01*
Y109011D01*
X137295D01*
Y109112D01*
X138615D01*
Y109214D01*
X139732D01*
Y109315D01*
X140340D01*
Y109518D01*
X140239D01*
Y109620D01*
X140036D01*
Y109518D01*
X139732D01*
Y109823D01*
X140036D01*
Y109721D01*
X140239D01*
Y109823D01*
X140949D01*
Y109924D01*
X143081D01*
Y110026D01*
X143589D01*
Y110127D01*
X143487D01*
Y110229D01*
X143589D01*
Y110330D01*
X145619D01*
Y110432D01*
X145822D01*
Y110330D01*
X146126D01*
Y110432D01*
X149476D01*
Y110533D01*
X149882D01*
Y110635D01*
X149476D01*
Y110736D01*
X150795D01*
Y110838D01*
X160336D01*
Y110736D01*
X161250D01*
Y110635D01*
X160844D01*
Y110533D01*
X161250D01*
Y110432D01*
X164599D01*
Y110330D01*
X164802D01*
Y110432D01*
X165107D01*
Y110330D01*
X167238D01*
Y110026D01*
X167644D01*
Y109924D01*
X169878D01*
Y109823D01*
X170791D01*
Y109721D01*
X170893D01*
Y109518D01*
X170791D01*
Y109315D01*
X170893D01*
Y109214D01*
X172415D01*
Y109112D01*
X173531D01*
Y109011D01*
X173836D01*
Y108909D01*
X173531D01*
Y108808D01*
X173937D01*
Y108706D01*
X175257D01*
Y108605D01*
X176171D01*
Y108300D01*
X176272D01*
Y108199D01*
X176374D01*
Y108300D01*
X176475D01*
Y108199D01*
X177795D01*
Y108097D01*
X177896D01*
Y107793D01*
X178302D01*
Y107691D01*
X178911D01*
Y107590D01*
X179216D01*
Y107285D01*
X179419D01*
Y107184D01*
X179926D01*
Y107082D01*
X180129D01*
Y107184D01*
X180738D01*
Y107082D01*
X180941D01*
Y107184D01*
X181043D01*
Y108097D01*
X180941D01*
Y108199D01*
X180535D01*
Y108605D01*
X180434D01*
Y108706D01*
X180231D01*
Y108605D01*
X179926D01*
Y108706D01*
X179723D01*
Y108808D01*
X179419D01*
Y109112D01*
X179216D01*
Y109214D01*
X179114D01*
Y109112D01*
X179013D01*
Y109214D01*
X178505D01*
Y109315D01*
X178404D01*
Y109620D01*
X178505D01*
Y109721D01*
X178404D01*
Y109823D01*
X178302D01*
Y109924D01*
X177186D01*
Y110026D01*
X177084D01*
Y110330D01*
X176577D01*
Y110432D01*
X175257D01*
Y110533D01*
X175156D01*
Y110838D01*
X173937D01*
Y110939D01*
X172923D01*
Y111041D01*
X172720D01*
Y110939D01*
X172618D01*
Y111244D01*
X172517D01*
Y111345D01*
X170791D01*
Y111447D01*
X169878D01*
Y111751D01*
X169776D01*
Y111853D01*
X166731D01*
Y111954D01*
X165716D01*
Y112157D01*
X166122D01*
Y112259D01*
X163990D01*
Y112360D01*
X156073D01*
Y112462D01*
D02*
G37*
G36*
X172923Y111244D02*
X172720D01*
Y111142D01*
X172923D01*
Y111244D01*
D02*
G37*
G36*
X179723Y109011D02*
X179622D01*
Y108909D01*
X179723D01*
Y109011D01*
D02*
G37*
G36*
X119127Y108605D02*
X118924D01*
Y108503D01*
X119127D01*
Y108605D01*
D02*
G37*
G36*
X186524Y108097D02*
X186219D01*
Y107996D01*
X186524D01*
Y108097D01*
D02*
G37*
G36*
X179114Y107488D02*
X179013D01*
Y107387D01*
X179114D01*
Y107488D01*
D02*
G37*
G36*
X180941Y106981D02*
X180738D01*
Y106879D01*
X180941D01*
Y106981D01*
D02*
G37*
G36*
X177490Y103428D02*
X177287D01*
Y103225D01*
X177490D01*
Y103428D01*
D02*
G37*
G36*
X173227Y102210D02*
X173126D01*
Y102109D01*
X173227D01*
Y102210D01*
D02*
G37*
%LPD*%
D10*
X109299Y162669D02*
G03*
X111299Y160669I2000J0D01*
G01*
D02*
G03*
X109299Y158669I0J-2000D01*
G01*
X107299Y160669D02*
G03*
X109299Y162669I0J2000D01*
G01*
Y158669D02*
G03*
X107299Y160669I-2000J0D01*
G01*
X103279Y77663D02*
G03*
X106779Y74164I3500J-0D01*
G01*
X106779Y74164D02*
G03*
X103279Y70663I-0J-3500D01*
G01*
X99779Y74164D02*
G03*
X103279Y77663I0J3500D01*
G01*
Y70663D02*
G03*
X99779Y74164I-3500J0D01*
G01*
X103241Y77721D02*
G03*
X106741Y74221I3500J-0D01*
G01*
X106741Y74221D02*
G03*
X103241Y70721I-0J-3500D01*
G01*
X99741Y74221D02*
G03*
X103241Y77721I0J3500D01*
G01*
Y70721D02*
G03*
X99741Y74221I-3500J0D01*
G01*
X195086Y157586D02*
G03*
X197086Y155586I2000J0D01*
G01*
D02*
G03*
X195086Y153586I0J-2000D01*
G01*
X193086Y155586D02*
G03*
X195086Y157586I0J2000D01*
G01*
Y153586D02*
G03*
X193086Y155586I-2000J0D01*
G01*
M02*
