G04*
G04 #@! TF.GenerationSoftware,Altium Limited,Altium Designer,21.8.1 (53)*
G04*
G04 Layer_Physical_Order=1*
G04 Layer_Color=255*
%FSLAX25Y25*%
%MOIN*%
G70*
G04*
G04 #@! TF.SameCoordinates,45F2FB6D-C354-490B-B6FA-590C3EB5E4E4*
G04*
G04*
G04 #@! TF.FilePolarity,Positive*
G04*
G01*
G75*
%ADD10C,0.00800*%
G36*
X156735Y165359D02*
X156228D01*
Y165258D01*
X158156D01*
Y165156D01*
X160998D01*
Y165055D01*
X161404D01*
Y164750D01*
X162216D01*
Y164649D01*
X163637D01*
Y164547D01*
X163942D01*
Y164243D01*
X164551D01*
Y164141D01*
X165769D01*
Y164040D01*
X165870D01*
Y163938D01*
X165769D01*
Y163837D01*
X165870D01*
Y163735D01*
X165972D01*
Y163837D01*
X166175D01*
Y163735D01*
X166784D01*
Y163634D01*
X167596D01*
Y163329D01*
X167697D01*
Y163228D01*
X168509D01*
Y163126D01*
X168915D01*
Y162517D01*
X169423D01*
Y162416D01*
X169930D01*
Y162111D01*
X170032D01*
Y162010D01*
X170133D01*
Y162111D01*
X170235D01*
Y162010D01*
X170844D01*
Y161908D01*
X171047D01*
Y161705D01*
X170945D01*
Y161604D01*
X171250D01*
Y161807D01*
X171149D01*
Y161908D01*
X171453D01*
Y161604D01*
X171554D01*
Y161502D01*
X172163D01*
Y161401D01*
X172468D01*
Y161096D01*
X172570D01*
Y160995D01*
X173077D01*
Y160589D01*
X173584D01*
Y160487D01*
X173990D01*
Y160183D01*
X174092D01*
Y160081D01*
X174701D01*
Y159980D01*
X174904D01*
Y159878D01*
X175005D01*
Y159980D01*
X175107D01*
Y159878D01*
X175208D01*
Y159777D01*
X175107D01*
Y159675D01*
X175005D01*
Y159777D01*
X174904D01*
Y159675D01*
X174802D01*
Y159472D01*
X175107D01*
Y159371D01*
X175310D01*
Y159269D01*
X175716D01*
Y158863D01*
X176224D01*
Y158762D01*
X176325D01*
Y158457D01*
X176629D01*
Y158356D01*
X176731D01*
Y158254D01*
X177137D01*
Y157950D01*
X177239D01*
Y157848D01*
X177848D01*
Y157747D01*
X177949D01*
Y157442D01*
X178050D01*
Y157341D01*
X178456D01*
Y156935D01*
X178863D01*
Y156833D01*
X178964D01*
Y156732D01*
X179269D01*
Y156529D01*
X178964D01*
Y156224D01*
X179167D01*
Y156326D01*
X179269D01*
Y156224D01*
X179370D01*
Y156123D01*
X179776D01*
Y155717D01*
X179878D01*
Y155615D01*
X180081D01*
Y155514D01*
X180182D01*
Y155615D01*
X180487D01*
Y155311D01*
X180588D01*
Y155209D01*
X180690D01*
Y155108D01*
X180994D01*
Y154803D01*
X181096D01*
Y154600D01*
X181502D01*
Y154194D01*
X181603D01*
Y154093D01*
X181705D01*
Y153788D01*
X182009D01*
Y153687D01*
X182111D01*
Y153585D01*
X182212D01*
Y153382D01*
X182111D01*
Y153078D01*
X182517D01*
Y152976D01*
X182618D01*
Y152570D01*
X182923D01*
Y152469D01*
X183024D01*
Y152063D01*
X183126D01*
Y151961D01*
X183430D01*
Y152063D01*
X183633D01*
Y151961D01*
X183735D01*
Y151555D01*
X183836D01*
Y151454D01*
X184242D01*
Y151048D01*
X184344D01*
Y150642D01*
X184648D01*
Y150540D01*
X184750D01*
Y149829D01*
X185156D01*
Y149424D01*
X185257D01*
Y149221D01*
X185359D01*
Y149119D01*
X185257D01*
Y149018D01*
X185359D01*
Y148916D01*
X185663D01*
Y148814D01*
X185765D01*
Y148307D01*
X186171D01*
Y147901D01*
X186272D01*
Y147394D01*
X186678D01*
Y147495D01*
X186780D01*
Y147394D01*
X186881D01*
Y146683D01*
X186983D01*
Y146176D01*
X187389D01*
Y145668D01*
X187490D01*
Y145262D01*
X187795D01*
Y145160D01*
X187896D01*
Y144653D01*
X187998D01*
Y144247D01*
X188302D01*
Y144146D01*
X188404D01*
Y143029D01*
X188505D01*
Y142927D01*
X188607D01*
Y143029D01*
X188810D01*
Y142521D01*
X188911D01*
Y141608D01*
X189013D01*
Y141506D01*
X189114D01*
Y141608D01*
X189216D01*
Y141506D01*
X189317D01*
Y140491D01*
X189419D01*
Y140288D01*
X190231D01*
Y140187D01*
X190332D01*
Y140288D01*
X190535D01*
Y140187D01*
X190637D01*
Y140085D01*
X190535D01*
Y139984D01*
X190941D01*
Y139882D01*
X193276D01*
Y139781D01*
X194798D01*
Y139679D01*
X195001D01*
Y139781D01*
X195103D01*
Y139578D01*
X194798D01*
Y139476D01*
X195610D01*
Y139375D01*
X198046D01*
Y139273D01*
X198148D01*
Y139375D01*
X198249D01*
Y139273D01*
X199569D01*
Y139070D01*
X199467D01*
Y138969D01*
X200076D01*
Y138867D01*
X202106D01*
Y138766D01*
X202817D01*
Y138461D01*
X203730D01*
Y138360D01*
X205253D01*
Y138258D01*
X205862D01*
Y137954D01*
X205761D01*
Y137852D01*
X205862D01*
Y137751D01*
X206065D01*
Y137649D01*
X207892D01*
Y137548D01*
X208400D01*
Y137243D01*
X209516D01*
Y137142D01*
X211038D01*
Y137040D01*
X211140D01*
Y136939D01*
X211038D01*
Y136837D01*
X211140D01*
Y136736D01*
X212358D01*
Y136634D01*
X212561D01*
Y136736D01*
X212663D01*
Y136634D01*
X213678D01*
Y136228D01*
X214693D01*
Y136127D01*
X215505D01*
Y135822D01*
X215911D01*
Y135721D01*
X216926D01*
Y135619D01*
X217433D01*
Y135315D01*
X217941D01*
Y135213D01*
X219463D01*
Y135112D01*
X219565D01*
Y135010D01*
X219666D01*
Y134909D01*
X219565D01*
Y134604D01*
X219971D01*
Y134503D01*
X220783D01*
Y134401D01*
X220884D01*
Y134503D01*
X221189D01*
Y134401D01*
X221290D01*
Y134097D01*
X221696D01*
Y133995D01*
X222711D01*
Y133589D01*
X223219D01*
Y133488D01*
X223828D01*
Y133386D01*
X224031D01*
Y133488D01*
X224335D01*
Y133386D01*
X224437D01*
Y133285D01*
X224335D01*
Y133183D01*
X224437D01*
Y133082D01*
X224944D01*
Y132980D01*
X225452D01*
Y132879D01*
X225756D01*
Y132777D01*
X225452D01*
Y132676D01*
X225858D01*
Y132574D01*
X226365D01*
Y132473D01*
X226771D01*
Y132168D01*
X226873D01*
Y132067D01*
X227583D01*
Y131965D01*
X227989D01*
Y131864D01*
X228091D01*
Y131762D01*
X227989D01*
Y131661D01*
X227685D01*
Y131458D01*
X228091D01*
Y131356D01*
X228598D01*
Y131255D01*
X229004D01*
Y130849D01*
X229512D01*
Y130747D01*
X229918D01*
Y130544D01*
X229816D01*
Y130646D01*
X229613D01*
Y130443D01*
X230019D01*
Y130341D01*
X230730D01*
Y129935D01*
X230933D01*
Y129834D01*
X231034D01*
Y129935D01*
X231136D01*
Y129834D01*
X231339D01*
Y129428D01*
X231745D01*
Y129326D01*
X232151D01*
Y128920D01*
X232354D01*
Y128819D01*
X232658D01*
Y128210D01*
X232760D01*
Y128108D01*
X233166D01*
Y127702D01*
X233267D01*
Y127601D01*
X233369D01*
Y127398D01*
X233267D01*
Y127296D01*
X233572D01*
Y127601D01*
X233775D01*
Y127296D01*
X233876D01*
Y127195D01*
X233978D01*
Y126687D01*
X234384D01*
Y125875D01*
X234485D01*
Y125571D01*
X234790D01*
Y125368D01*
X234688D01*
Y125469D01*
X234587D01*
Y125368D01*
X234485D01*
Y125063D01*
X234688D01*
Y125165D01*
X234790D01*
Y125063D01*
X234891D01*
Y123439D01*
X234790D01*
Y123135D01*
X234485D01*
Y122627D01*
X234384D01*
Y121815D01*
X233978D01*
Y121308D01*
X233876D01*
Y120902D01*
X233267D01*
Y120800D01*
X233166D01*
Y120394D01*
X232760D01*
Y120293D01*
X232658D01*
Y119887D01*
X232252D01*
Y119785D01*
X232151D01*
Y119684D01*
X232252D01*
Y119582D01*
X232151D01*
Y119481D01*
X231846D01*
Y119379D01*
X231745D01*
Y119278D01*
X231643D01*
Y118973D01*
X231745D01*
Y118872D01*
X231643D01*
Y118770D01*
X231339D01*
Y118669D01*
X230831D01*
Y118263D01*
X230628D01*
Y118161D01*
X230425D01*
Y118263D01*
X230121D01*
Y118161D01*
X230019D01*
Y117755D01*
X229512D01*
Y117654D01*
X229106D01*
Y117349D01*
X229004D01*
Y117248D01*
X228598D01*
Y117146D01*
X228091D01*
Y116943D01*
X228192D01*
Y116842D01*
X228091D01*
Y116740D01*
X227482D01*
Y116639D01*
X227279D01*
Y116740D01*
X226974D01*
Y116639D01*
X226873D01*
Y116334D01*
X226467D01*
Y116233D01*
X225858D01*
Y116131D01*
X225756D01*
Y116030D01*
X225655D01*
Y116131D01*
X225553D01*
Y115928D01*
X225858D01*
Y115623D01*
X225452D01*
Y115522D01*
X224944D01*
Y115420D01*
X224538D01*
Y115116D01*
X224335D01*
Y115015D01*
X223219D01*
Y114913D01*
X223117D01*
Y114812D01*
X223219D01*
Y114710D01*
X223117D01*
Y114609D01*
X222305D01*
Y114507D01*
X221696D01*
Y114406D01*
X221595D01*
Y114304D01*
X221696D01*
Y114202D01*
X221392D01*
Y114101D01*
X220478D01*
Y113999D01*
X220275D01*
Y114101D01*
X220174D01*
Y113999D01*
X219666D01*
Y113695D01*
X219565D01*
Y113593D01*
X218651D01*
Y113492D01*
X217941D01*
Y113188D01*
X217839D01*
Y113086D01*
X216824D01*
Y112985D01*
X216012D01*
Y112883D01*
X215911D01*
Y112782D01*
X216012D01*
Y112680D01*
X216215D01*
Y112782D01*
X216317D01*
Y112680D01*
X216418D01*
Y112477D01*
X215911D01*
Y112375D01*
X214287D01*
Y112274D01*
X213779D01*
Y111969D01*
X213272D01*
Y111868D01*
X212155D01*
Y111767D01*
X211952D01*
Y111868D01*
X211648D01*
Y111767D01*
X211444D01*
Y111665D01*
X211546D01*
Y111462D01*
X211038D01*
Y111361D01*
X209516D01*
Y111259D01*
X209211D01*
Y110954D01*
X207892D01*
Y110853D01*
X206775D01*
Y110751D01*
X206471D01*
Y110650D01*
X206775D01*
Y110548D01*
X206369D01*
Y110447D01*
X204238D01*
Y110345D01*
X203223D01*
Y110041D01*
X202817D01*
Y109939D01*
X200888D01*
Y109838D01*
X200787D01*
Y109939D01*
X200685D01*
Y109838D01*
X200076D01*
Y109736D01*
X199975D01*
Y109635D01*
X200076D01*
Y109330D01*
X199975D01*
Y109229D01*
X197843D01*
Y109127D01*
X196828D01*
Y108924D01*
X196930D01*
Y108823D01*
X196422D01*
Y108721D01*
X193276D01*
Y108620D01*
X191956D01*
Y108518D01*
X192058D01*
Y108315D01*
X191043D01*
Y108214D01*
X187490D01*
Y108112D01*
X186780D01*
Y108011D01*
X186881D01*
Y107808D01*
X184750D01*
Y107706D01*
X183024D01*
Y107300D01*
X182923D01*
Y107199D01*
X182618D01*
Y106691D01*
X182517D01*
Y106387D01*
X182618D01*
Y106184D01*
X182517D01*
Y105981D01*
X182111D01*
Y105575D01*
X182009D01*
Y105473D01*
X181705D01*
Y105169D01*
X181603D01*
Y105067D01*
X181502D01*
Y104966D01*
X181299D01*
Y105067D01*
X181197D01*
Y104966D01*
X181096D01*
Y104560D01*
X180588D01*
Y104458D01*
X179979D01*
Y104154D01*
X179776D01*
Y104052D01*
X178964D01*
Y103646D01*
X178355D01*
Y103545D01*
X177848D01*
Y102936D01*
X177137D01*
Y102834D01*
X176122D01*
Y102733D01*
X175818D01*
Y102428D01*
X174802D01*
Y102327D01*
X173483D01*
Y102022D01*
X173077D01*
Y101921D01*
X171554D01*
Y101819D01*
X170336D01*
Y101515D01*
X169930D01*
Y101413D01*
X167291D01*
Y101312D01*
X166682D01*
Y101210D01*
X166784D01*
Y101007D01*
X165363D01*
Y100906D01*
X160795D01*
Y100804D01*
X158867D01*
Y100703D01*
X157750D01*
Y100601D01*
X159780D01*
Y100500D01*
X160288D01*
Y100398D01*
X159983D01*
Y100297D01*
X151356D01*
Y100398D01*
X151254D01*
Y100500D01*
X151863D01*
Y100601D01*
X153081D01*
Y100703D01*
X152574D01*
Y100804D01*
X150442D01*
Y100906D01*
X145469D01*
Y101007D01*
X144555D01*
Y101312D01*
X143641D01*
Y101413D01*
X141003D01*
Y101515D01*
X140799D01*
Y101616D01*
X140901D01*
Y101718D01*
X140799D01*
Y101819D01*
X139683D01*
Y101921D01*
X137754D01*
Y102022D01*
X137653D01*
Y102124D01*
X137754D01*
Y102225D01*
X137653D01*
Y102327D01*
X136435D01*
Y102428D01*
X136333D01*
Y102327D01*
X136130D01*
Y102428D01*
X135115D01*
Y102733D01*
X135014D01*
Y102834D01*
X134100D01*
Y102936D01*
X133390D01*
Y103037D01*
X133288D01*
Y103139D01*
X133390D01*
Y103443D01*
X133288D01*
Y103545D01*
X132781D01*
Y103646D01*
X131969D01*
Y104052D01*
X131461D01*
Y104154D01*
X130954D01*
Y104560D01*
X130142D01*
Y104661D01*
X129837D01*
Y104966D01*
X129736D01*
Y105067D01*
X129330D01*
Y105169D01*
X129228D01*
Y105575D01*
X128822D01*
Y105676D01*
X128721D01*
Y105778D01*
X128822D01*
Y105879D01*
X128721D01*
Y106082D01*
X128315D01*
Y106793D01*
X128213D01*
Y107706D01*
X126082D01*
Y107808D01*
X124559D01*
Y108011D01*
X124661D01*
Y108112D01*
X123849D01*
Y108214D01*
X120195D01*
Y108315D01*
X118774D01*
Y108518D01*
X118875D01*
Y108620D01*
X118063D01*
Y108721D01*
X117962D01*
Y108620D01*
X117657D01*
Y108721D01*
X115120D01*
Y108823D01*
X114409D01*
Y109127D01*
X113293D01*
Y109229D01*
X111263D01*
Y109330D01*
X110755D01*
Y109432D01*
X110856D01*
Y109533D01*
X111161D01*
Y109635D01*
X111263D01*
Y109736D01*
X111161D01*
Y109838D01*
X110349D01*
Y109939D01*
X108624D01*
Y110041D01*
X108421D01*
Y109939D01*
X108116D01*
Y110041D01*
X107913D01*
Y110143D01*
X108015D01*
Y110345D01*
X106594D01*
Y110447D01*
X104462D01*
Y110548D01*
X104360D01*
Y110650D01*
X104462D01*
Y110751D01*
X104360D01*
Y110853D01*
X103041D01*
Y110954D01*
X101721D01*
Y111259D01*
X101620D01*
Y111361D01*
X100199D01*
Y111462D01*
X99691D01*
Y111767D01*
X99082D01*
Y111868D01*
X97661D01*
Y111969D01*
X97154D01*
Y112274D01*
X96646D01*
Y112375D01*
X94921D01*
Y112477D01*
X94819D01*
Y112680D01*
X94921D01*
Y112985D01*
X94413D01*
Y113086D01*
X93398D01*
Y113188D01*
X92688D01*
Y113391D01*
X92789D01*
Y113492D01*
X92282D01*
Y113593D01*
X91267D01*
Y113999D01*
X90759D01*
Y114101D01*
X89541D01*
Y114507D01*
X88628D01*
Y114609D01*
X88019D01*
Y114913D01*
X87714D01*
Y115015D01*
X87105D01*
Y115116D01*
X86395D01*
Y115420D01*
X86293D01*
Y115522D01*
X85481D01*
Y115623D01*
X85380D01*
Y115725D01*
X85278D01*
Y115826D01*
X85380D01*
Y116131D01*
X85278D01*
Y116233D01*
X85177D01*
Y116131D01*
X84974D01*
Y116233D01*
X84466D01*
Y116334D01*
X84263D01*
Y116537D01*
X84365D01*
Y116639D01*
X83959D01*
Y116740D01*
X83147D01*
Y116842D01*
X82741D01*
Y117146D01*
X82639D01*
Y117248D01*
X82132D01*
Y117349D01*
X81827D01*
Y117451D01*
X82132D01*
Y117552D01*
X81827D01*
Y117654D01*
X81726D01*
Y117755D01*
X81218D01*
Y118161D01*
X80711D01*
Y118263D01*
X80102D01*
Y118669D01*
X79594D01*
Y118770D01*
X79493D01*
Y119075D01*
X79594D01*
Y119278D01*
X79493D01*
Y119379D01*
X79087D01*
Y119481D01*
X78985D01*
Y119785D01*
X78681D01*
Y119887D01*
X78579D01*
Y119988D01*
X78478D01*
Y120293D01*
X78173D01*
Y120394D01*
X78072D01*
Y120800D01*
X77666D01*
Y120902D01*
X77564D01*
Y121308D01*
X76955D01*
Y121409D01*
X76854D01*
Y122018D01*
X76752D01*
Y122120D01*
X76854D01*
Y122526D01*
X76447D01*
Y123135D01*
X76346D01*
Y125672D01*
X76447D01*
Y126180D01*
X76752D01*
Y126281D01*
X76854D01*
Y126789D01*
X76955D01*
Y127195D01*
X77260D01*
Y127093D01*
X77463D01*
Y127195D01*
X77564D01*
Y127601D01*
X77666D01*
Y127702D01*
X78072D01*
Y128108D01*
X78173D01*
Y128210D01*
X78579D01*
Y128920D01*
X78985D01*
Y129022D01*
X79087D01*
Y129326D01*
X79493D01*
Y129428D01*
X79594D01*
Y129834D01*
X80102D01*
Y129935D01*
X80203D01*
Y130037D01*
X80305D01*
Y129935D01*
X80711D01*
Y130341D01*
X81218D01*
Y130443D01*
X81320D01*
Y130849D01*
X82132D01*
Y130950D01*
X82233D01*
Y131255D01*
X82639D01*
Y131356D01*
X83147D01*
Y131458D01*
X83248D01*
Y131661D01*
X83147D01*
Y131965D01*
X83248D01*
Y132067D01*
X84365D01*
Y132168D01*
X84466D01*
Y132270D01*
X84365D01*
Y132473D01*
X84568D01*
Y132574D01*
X84669D01*
Y132473D01*
X84771D01*
Y132574D01*
X85380D01*
Y132980D01*
X85989D01*
Y133082D01*
X87004D01*
Y133386D01*
X87105D01*
Y133488D01*
X88019D01*
Y133589D01*
X88526D01*
Y133792D01*
X88425D01*
Y133894D01*
X88526D01*
Y133995D01*
X89440D01*
Y134097D01*
X89643D01*
Y134401D01*
X89947D01*
Y134097D01*
X90150D01*
Y134300D01*
X90049D01*
Y134401D01*
X90252D01*
Y134503D01*
X91165D01*
Y134604D01*
X91368D01*
Y134807D01*
X91267D01*
Y135112D01*
X91673D01*
Y135213D01*
X92789D01*
Y135315D01*
X93500D01*
Y135518D01*
X93398D01*
Y135619D01*
X94007D01*
Y135721D01*
X95022D01*
Y135822D01*
X95124D01*
Y135721D01*
X95327D01*
Y135822D01*
X95428D01*
Y136127D01*
X95936D01*
Y136228D01*
X97255D01*
Y136330D01*
X97357D01*
Y136228D01*
X97458D01*
Y136330D01*
X97560D01*
Y136634D01*
X98575D01*
Y136736D01*
X99793D01*
Y137040D01*
X100199D01*
Y137142D01*
X101620D01*
Y137243D01*
X102838D01*
Y137446D01*
X102533D01*
Y137548D01*
X103041D01*
Y137649D01*
X104868D01*
Y137751D01*
X105578D01*
Y137852D01*
X105680D01*
Y137954D01*
X105578D01*
Y138258D01*
X105680D01*
Y138360D01*
X107202D01*
Y138461D01*
X108116D01*
Y138766D01*
X108826D01*
Y138867D01*
X110755D01*
Y138969D01*
X111973D01*
Y139070D01*
X111872D01*
Y139273D01*
X112887D01*
Y139375D01*
X115627D01*
Y139476D01*
X116135D01*
Y139781D01*
X117657D01*
Y139882D01*
X117962D01*
Y139781D01*
X118063D01*
Y139882D01*
X120296D01*
Y139984D01*
X120398D01*
Y139882D01*
X120601D01*
Y139984D01*
X120702D01*
Y140085D01*
X120601D01*
Y140187D01*
X120702D01*
Y140288D01*
X121413D01*
Y140390D01*
X121514D01*
Y140491D01*
X121717D01*
Y140390D01*
X121819D01*
Y140796D01*
X121920D01*
Y142014D01*
X122022D01*
Y142420D01*
X122225D01*
Y142318D01*
X122123D01*
Y142115D01*
X122326D01*
Y142521D01*
X122428D01*
Y143130D01*
X122529D01*
Y143232D01*
X122428D01*
Y143333D01*
X122529D01*
Y143435D01*
X122834D01*
Y143638D01*
X122935D01*
Y143841D01*
X122834D01*
Y144146D01*
X122935D01*
Y144755D01*
X123341D01*
Y145262D01*
X123443D01*
Y145770D01*
X123849D01*
Y146581D01*
X123950D01*
Y146683D01*
X124052D01*
Y146784D01*
X124153D01*
Y146683D01*
X124458D01*
Y146784D01*
X124559D01*
Y147394D01*
X124661D01*
Y147901D01*
X125067D01*
Y148408D01*
X125168D01*
Y148814D01*
X125371D01*
Y148713D01*
X125473D01*
Y148814D01*
X125574D01*
Y149322D01*
X125980D01*
Y149728D01*
X126082D01*
Y149931D01*
X126183D01*
Y150235D01*
X126082D01*
Y150438D01*
X126183D01*
Y150540D01*
X126589D01*
Y151048D01*
X126995D01*
Y151454D01*
X127097D01*
Y151555D01*
X127198D01*
Y151657D01*
X127300D01*
Y151555D01*
X127706D01*
Y151961D01*
X127807D01*
Y152164D01*
X127909D01*
Y152266D01*
X127807D01*
Y152367D01*
X127909D01*
Y152469D01*
X128010D01*
Y152367D01*
X128112D01*
Y152469D01*
X128213D01*
Y152570D01*
X128315D01*
Y152976D01*
X128721D01*
Y153078D01*
X128822D01*
Y153382D01*
X128721D01*
Y153585D01*
X128822D01*
Y153687D01*
X129127D01*
Y153788D01*
X129228D01*
Y154194D01*
X129634D01*
Y154296D01*
X129736D01*
Y154702D01*
X130142D01*
Y154803D01*
X130243D01*
Y155209D01*
X130954D01*
Y155615D01*
X131055D01*
Y155717D01*
X131157D01*
Y155615D01*
X131360D01*
Y155717D01*
X131461D01*
Y156123D01*
X131867D01*
Y156224D01*
X131969D01*
Y156529D01*
X131867D01*
Y156732D01*
X131969D01*
Y156833D01*
X132375D01*
Y156935D01*
X132476D01*
Y157341D01*
X132882D01*
Y157442D01*
X132984D01*
Y157544D01*
X133085D01*
Y157442D01*
X133288D01*
Y157645D01*
X132984D01*
Y157747D01*
X133288D01*
Y157848D01*
X133491D01*
Y157950D01*
X133694D01*
Y157848D01*
X133999D01*
Y157950D01*
X134100D01*
Y158356D01*
X134608D01*
Y158762D01*
X134709D01*
Y158863D01*
X134811D01*
Y158762D01*
X135014D01*
Y158863D01*
X135115D01*
Y158965D01*
X135217D01*
Y159269D01*
X135318D01*
Y159168D01*
X135420D01*
Y159269D01*
X135623D01*
Y159371D01*
X136029D01*
Y159472D01*
X136130D01*
Y159574D01*
X136029D01*
Y159980D01*
X136435D01*
Y160081D01*
X136739D01*
Y160183D01*
X136841D01*
Y160081D01*
X137145D01*
Y160183D01*
X137247D01*
Y160284D01*
X137145D01*
Y160386D01*
X137247D01*
Y160487D01*
X137653D01*
Y160589D01*
X137856D01*
Y160995D01*
X137957D01*
Y160893D01*
X138161D01*
Y160995D01*
X138364D01*
Y161096D01*
X138465D01*
Y160995D01*
X138567D01*
Y161096D01*
X138769D01*
Y161502D01*
X139582D01*
Y161604D01*
X139785D01*
Y161705D01*
X139683D01*
Y161908D01*
X140393D01*
Y162010D01*
X140901D01*
Y162111D01*
X141003D01*
Y162416D01*
X141409D01*
Y162517D01*
X141916D01*
Y162619D01*
X142322D01*
Y162822D01*
X142220D01*
Y162923D01*
X142119D01*
Y162822D01*
X142017D01*
Y163126D01*
X142119D01*
Y163025D01*
X142220D01*
Y163126D01*
X142423D01*
Y163228D01*
X143540D01*
Y163329D01*
X143641D01*
Y163634D01*
X144149D01*
Y163735D01*
X145063D01*
Y163837D01*
X145164D01*
Y163938D01*
X145063D01*
Y164040D01*
X145164D01*
Y164141D01*
X146281D01*
Y164243D01*
X147194D01*
Y164344D01*
X147296D01*
Y164446D01*
X147194D01*
Y164547D01*
X147296D01*
Y164649D01*
X148717D01*
Y164750D01*
X149529D01*
Y164953D01*
X149427D01*
Y165055D01*
X149935D01*
Y165156D01*
X152675D01*
Y165258D01*
X155010D01*
Y165359D01*
X154604D01*
Y165461D01*
X154502D01*
Y165562D01*
X156735D01*
Y165359D01*
D02*
G37*
G36*
X109337Y162279D02*
X109635Y161558D01*
X110187Y161006D01*
X110908Y160707D01*
X111299Y160669D01*
X110908Y160631D01*
X110187Y160332D01*
X109635Y159780D01*
X109337Y159059D01*
X109299Y158669D01*
X109260Y159059D01*
X108961Y159780D01*
X108410Y160332D01*
X107689Y160631D01*
X107299Y160669D01*
X107689Y160707D01*
X108410Y161006D01*
X108961Y161558D01*
X109260Y162279D01*
X109299Y162669D01*
X109337Y162279D01*
D02*
G37*
G36*
X195124Y157196D02*
X195423Y156475D01*
X195975Y155923D01*
X196696Y155624D01*
X197086Y155586D01*
X196696Y155547D01*
X195975Y155249D01*
X195423Y154697D01*
X195124Y153976D01*
X195086Y153586D01*
X195047Y153976D01*
X194749Y154697D01*
X194197Y155249D01*
X193476Y155547D01*
X193086Y155586D01*
X193476Y155624D01*
X194197Y155923D01*
X194749Y156475D01*
X195047Y157196D01*
X195086Y157586D01*
X195124Y157196D01*
D02*
G37*
%LPC*%
G36*
X135420Y159066D02*
X135318D01*
Y158965D01*
X135420D01*
Y159066D01*
D02*
G37*
G36*
X180182Y155412D02*
X180081D01*
Y155311D01*
X180182D01*
Y155412D01*
D02*
G37*
G36*
X181299Y154397D02*
X181197D01*
Y154296D01*
X181299D01*
Y154397D01*
D02*
G37*
G36*
X125473Y148611D02*
X125371D01*
Y148510D01*
X125473D01*
Y148611D01*
D02*
G37*
G36*
X199264Y139070D02*
X198960D01*
Y138969D01*
X199264D01*
Y139070D01*
D02*
G37*
G36*
X108624Y138664D02*
X108421D01*
Y138461D01*
X108624D01*
Y138664D01*
D02*
G37*
G36*
X170844Y139882D02*
X140393D01*
Y139781D01*
X137247D01*
Y139578D01*
X137348D01*
Y139476D01*
X135521D01*
Y139375D01*
X129837D01*
Y139273D01*
X128315D01*
Y139172D01*
X128721D01*
Y138969D01*
X126082D01*
Y138867D01*
X122834D01*
Y138766D01*
X122022D01*
Y138664D01*
X122326D01*
Y138563D01*
X122022D01*
Y138461D01*
X120195D01*
Y138360D01*
X118165D01*
Y138258D01*
X117860D01*
Y138360D01*
X117657D01*
Y138258D01*
X117454D01*
Y138055D01*
X117556D01*
Y137954D01*
X117759D01*
Y137852D01*
X117556D01*
Y137751D01*
X116541D01*
Y137649D01*
X114003D01*
Y137548D01*
X113800D01*
Y137446D01*
X113902D01*
Y137345D01*
X113800D01*
Y137243D01*
X111973D01*
Y137142D01*
X110248D01*
Y137040D01*
X110146D01*
Y136837D01*
X109740D01*
Y136736D01*
X107608D01*
Y136634D01*
X106594D01*
Y136533D01*
X106492D01*
Y136431D01*
X106594D01*
Y136330D01*
X106187D01*
Y136228D01*
X104360D01*
Y136127D01*
X103853D01*
Y135822D01*
X103447D01*
Y135721D01*
X101721D01*
Y135619D01*
X101214D01*
Y135518D01*
X101315D01*
Y135416D01*
X101214D01*
Y135315D01*
X100300D01*
Y135213D01*
X98981D01*
Y135112D01*
X98473D01*
Y134909D01*
X98575D01*
Y134807D01*
X98676D01*
Y134706D01*
X98575D01*
Y134604D01*
X98067D01*
Y134503D01*
X96646D01*
Y134401D01*
X96545D01*
Y134097D01*
X96139D01*
Y134300D01*
X96240D01*
Y134401D01*
X96037D01*
Y134097D01*
X95834D01*
Y133995D01*
X94819D01*
Y133894D01*
X94413D01*
Y133792D01*
X94515D01*
Y133691D01*
X94413D01*
Y133589D01*
X93804D01*
Y133488D01*
X92688D01*
Y133386D01*
X92586D01*
Y133285D01*
X92688D01*
Y133183D01*
X92586D01*
Y133082D01*
X91571D01*
Y132980D01*
X91470D01*
Y133082D01*
X91368D01*
Y132980D01*
X90759D01*
Y132676D01*
X90658D01*
Y132574D01*
X89541D01*
Y132473D01*
X89034D01*
Y132168D01*
X88932D01*
Y132067D01*
X88120D01*
Y131965D01*
X88019D01*
Y131864D01*
X87917D01*
Y131762D01*
X88019D01*
Y131458D01*
X87613D01*
Y131356D01*
X87004D01*
Y131255D01*
X86395D01*
Y130950D01*
X85989D01*
Y130849D01*
X85380D01*
Y130747D01*
X85278D01*
Y130443D01*
X84872D01*
Y130341D01*
X84365D01*
Y130240D01*
X84060D01*
Y130037D01*
X83959D01*
Y129935D01*
X83756D01*
Y129834D01*
X83553D01*
Y129935D01*
X83350D01*
Y129834D01*
X83147D01*
Y129529D01*
X83045D01*
Y129428D01*
X82944D01*
Y129529D01*
X82842D01*
Y129428D01*
X82639D01*
Y129326D01*
X82233D01*
Y129022D01*
X82132D01*
Y128920D01*
X81624D01*
Y128819D01*
X81320D01*
Y128717D01*
X81218D01*
Y128514D01*
X81320D01*
Y128311D01*
X81218D01*
Y128210D01*
X80812D01*
Y128108D01*
X80711D01*
Y127702D01*
X80000D01*
Y127296D01*
X79594D01*
Y127195D01*
X79493D01*
Y126789D01*
X79087D01*
Y126586D01*
X78985D01*
Y126281D01*
X78681D01*
Y126180D01*
X78579D01*
Y125571D01*
X78478D01*
Y125368D01*
X78579D01*
Y125165D01*
X78478D01*
Y124962D01*
X78173D01*
Y124048D01*
X78985D01*
Y124150D01*
X79087D01*
Y124454D01*
X79188D01*
Y124556D01*
X79594D01*
Y124962D01*
X80102D01*
Y125063D01*
X80711D01*
Y125672D01*
X81117D01*
Y125774D01*
X81320D01*
Y126180D01*
X81523D01*
Y126078D01*
X81624D01*
Y126180D01*
X81827D01*
Y126281D01*
X82233D01*
Y126586D01*
X82335D01*
Y126687D01*
X82842D01*
Y126789D01*
X82944D01*
Y126687D01*
X83045D01*
Y126789D01*
X83248D01*
Y127093D01*
X83350D01*
Y127195D01*
X83553D01*
Y127093D01*
X83756D01*
Y127195D01*
X84365D01*
Y127296D01*
X84466D01*
Y127601D01*
X84872D01*
Y127702D01*
X85481D01*
Y127804D01*
X85786D01*
Y128108D01*
X85989D01*
Y128210D01*
X87004D01*
Y128311D01*
X87105D01*
Y128514D01*
X87004D01*
Y128717D01*
X87105D01*
Y128819D01*
X87511D01*
Y128920D01*
X88222D01*
Y129022D01*
X88323D01*
Y128920D01*
X88425D01*
Y129022D01*
X88526D01*
Y129326D01*
X89135D01*
Y129428D01*
X90252D01*
Y129834D01*
X91267D01*
Y129935D01*
X91774D01*
Y130341D01*
X92789D01*
Y130443D01*
X93094D01*
Y130341D01*
X93297D01*
Y130443D01*
X93500D01*
Y130747D01*
X93906D01*
Y130849D01*
X95022D01*
Y130950D01*
X95124D01*
Y130849D01*
X95225D01*
Y130950D01*
X95428D01*
Y131255D01*
X96545D01*
Y131356D01*
X97560D01*
Y131458D01*
X98067D01*
Y131661D01*
X97966D01*
Y131762D01*
X97661D01*
Y131864D01*
X97966D01*
Y131965D01*
X98473D01*
Y132067D01*
X99793D01*
Y132168D01*
X100199D01*
Y132473D01*
X100808D01*
Y132574D01*
X102432D01*
Y132676D01*
X102838D01*
Y132980D01*
X103954D01*
Y133082D01*
X105578D01*
Y133183D01*
X105680D01*
Y133386D01*
X105984D01*
Y133488D01*
X107608D01*
Y133589D01*
X108928D01*
Y133691D01*
X109029D01*
Y133589D01*
X109131D01*
Y133792D01*
X108826D01*
Y133894D01*
X109334D01*
Y133995D01*
X111263D01*
Y134097D01*
X112075D01*
Y134198D01*
X111973D01*
Y134401D01*
X112887D01*
Y134503D01*
X115221D01*
Y134604D01*
X116033D01*
Y134706D01*
X116135D01*
Y134807D01*
X116033D01*
Y134909D01*
X115627D01*
Y135112D01*
X116541D01*
Y135213D01*
X119383D01*
Y135315D01*
X119484D01*
Y135213D01*
X119687D01*
Y135315D01*
X120804D01*
Y135416D01*
X120702D01*
Y135619D01*
X122428D01*
Y135721D01*
X125980D01*
Y135822D01*
X126183D01*
Y136127D01*
X128721D01*
Y136228D01*
X132781D01*
Y136330D01*
X132984D01*
Y136431D01*
X132882D01*
Y136533D01*
X132984D01*
Y136634D01*
X137754D01*
Y136736D01*
X143641D01*
Y136837D01*
X144149D01*
Y136939D01*
X143641D01*
Y137040D01*
X145063D01*
Y137142D01*
X166175D01*
Y137040D01*
X167291D01*
Y136939D01*
X166784D01*
Y136837D01*
X167291D01*
Y136736D01*
X167494D01*
Y136837D01*
X167596D01*
Y136736D01*
X173483D01*
Y136634D01*
X177949D01*
Y136330D01*
X178355D01*
Y136228D01*
X182517D01*
Y136127D01*
X184648D01*
Y135924D01*
X184344D01*
Y135822D01*
X185156D01*
Y135721D01*
X188505D01*
Y135619D01*
X188607D01*
Y135721D01*
X188810D01*
Y135619D01*
X190231D01*
Y135518D01*
X190129D01*
Y135315D01*
X191550D01*
Y135213D01*
X194697D01*
Y135112D01*
X195306D01*
Y134909D01*
X195204D01*
Y134807D01*
X195103D01*
Y134706D01*
X195204D01*
Y134604D01*
X195712D01*
Y134503D01*
X198351D01*
Y134401D01*
X198858D01*
Y134097D01*
X199569D01*
Y133995D01*
X201599D01*
Y133894D01*
X202106D01*
Y133792D01*
X202005D01*
Y133691D01*
X202106D01*
Y133589D01*
X203324D01*
Y133488D01*
X205152D01*
Y133386D01*
X205354D01*
Y133285D01*
X205253D01*
Y133183D01*
X205354D01*
Y133082D01*
X205557D01*
Y133183D01*
X205862D01*
Y133082D01*
X206979D01*
Y132980D01*
X208400D01*
Y132676D01*
X208501D01*
Y132574D01*
X208704D01*
Y132676D01*
X209009D01*
Y132574D01*
X210125D01*
Y132473D01*
X211038D01*
Y132270D01*
X210937D01*
Y132168D01*
X211038D01*
Y132067D01*
X212764D01*
Y131965D01*
X213170D01*
Y131864D01*
X213272D01*
Y131762D01*
X213170D01*
Y131661D01*
X212866D01*
Y131458D01*
X212967D01*
Y131559D01*
X213069D01*
Y131458D01*
X213272D01*
Y131356D01*
X214591D01*
Y131255D01*
X215505D01*
Y130950D01*
X215911D01*
Y130849D01*
X217027D01*
Y130747D01*
X217129D01*
Y130849D01*
X217230D01*
Y130747D01*
X217433D01*
Y130443D01*
X217839D01*
Y130341D01*
X219159D01*
Y130240D01*
X219260D01*
Y130138D01*
X219159D01*
Y129935D01*
X219362D01*
Y130037D01*
X219463D01*
Y129935D01*
X219971D01*
Y129834D01*
X220681D01*
Y129732D01*
X220986D01*
Y129834D01*
X221087D01*
Y129732D01*
X221189D01*
Y129428D01*
X221798D01*
Y129326D01*
X222711D01*
Y128920D01*
X223625D01*
Y128819D01*
X224335D01*
Y128717D01*
X224437D01*
Y128616D01*
X224335D01*
Y128514D01*
X224234D01*
Y128311D01*
X224335D01*
Y128210D01*
X224944D01*
Y128108D01*
X225452D01*
Y127702D01*
X225959D01*
Y127601D01*
X226467D01*
Y127296D01*
X226771D01*
Y127195D01*
X227583D01*
Y127093D01*
X227989D01*
Y126789D01*
X228091D01*
Y126687D01*
X228598D01*
Y126586D01*
X228700D01*
Y126281D01*
X228801D01*
Y126383D01*
X228903D01*
Y126281D01*
X229106D01*
Y126180D01*
X229512D01*
Y126078D01*
X229613D01*
Y125977D01*
X229512D01*
Y125875D01*
X229613D01*
Y125774D01*
X230019D01*
Y125672D01*
X230730D01*
Y125063D01*
X230831D01*
Y124962D01*
X231237D01*
Y124860D01*
X231339D01*
Y124759D01*
X231237D01*
Y124657D01*
X231339D01*
Y124556D01*
X231745D01*
Y124454D01*
X231846D01*
Y124150D01*
X232151D01*
Y124048D01*
X232252D01*
Y123947D01*
X232354D01*
Y123642D01*
X232557D01*
Y123947D01*
X232658D01*
Y124048D01*
X232760D01*
Y125165D01*
X232658D01*
Y125368D01*
X232760D01*
Y125571D01*
X232658D01*
Y125774D01*
X232354D01*
Y125875D01*
X232252D01*
Y126281D01*
X232151D01*
Y126687D01*
X231745D01*
Y127093D01*
X231643D01*
Y127195D01*
X231237D01*
Y127601D01*
X231136D01*
Y127702D01*
X230730D01*
Y128108D01*
X230121D01*
Y128210D01*
X229613D01*
Y128819D01*
X229512D01*
Y128920D01*
X229106D01*
Y129022D01*
X229004D01*
Y129326D01*
X228598D01*
Y129428D01*
X228091D01*
Y129834D01*
X227583D01*
Y129935D01*
X226873D01*
Y130341D01*
X226365D01*
Y130443D01*
X225858D01*
Y130646D01*
X225959D01*
Y130747D01*
X225858D01*
Y130849D01*
X224944D01*
Y130950D01*
X224538D01*
Y131255D01*
X224437D01*
Y131356D01*
X223320D01*
Y131458D01*
X223219D01*
Y131965D01*
X223117D01*
Y132067D01*
X223016D01*
Y131965D01*
X222813D01*
Y132067D01*
X222204D01*
Y132168D01*
X221798D01*
Y132371D01*
X221899D01*
Y132473D01*
X221696D01*
Y132574D01*
X220478D01*
Y132676D01*
X220072D01*
Y132777D01*
X220174D01*
Y132879D01*
X220072D01*
Y132980D01*
X219565D01*
Y133082D01*
X218550D01*
Y133488D01*
X218144D01*
Y133386D01*
X218042D01*
Y133488D01*
X217433D01*
Y133589D01*
X216418D01*
Y133995D01*
X215403D01*
Y134097D01*
X214591D01*
Y134300D01*
X214693D01*
Y134401D01*
X214185D01*
Y134503D01*
X213170D01*
Y134604D01*
X212257D01*
Y134807D01*
X212358D01*
Y134909D01*
X212764D01*
Y135010D01*
X212663D01*
Y135112D01*
X212257D01*
Y135213D01*
X210531D01*
Y135315D01*
X209617D01*
Y135518D01*
X209719D01*
Y135619D01*
X209516D01*
Y135721D01*
X209313D01*
Y135619D01*
X209211D01*
Y135721D01*
X207790D01*
Y135822D01*
X207283D01*
Y135924D01*
X207384D01*
Y136127D01*
X206775D01*
Y136228D01*
X204745D01*
Y136330D01*
X204644D01*
Y136634D01*
X203324D01*
Y136736D01*
X201497D01*
Y136837D01*
X201091D01*
Y136939D01*
X201193D01*
Y137040D01*
X201091D01*
Y137142D01*
X198960D01*
Y137243D01*
X197437D01*
Y137345D01*
X197336D01*
Y137446D01*
X197437D01*
Y137548D01*
X196930D01*
Y137649D01*
X194392D01*
Y137751D01*
X193276D01*
Y138055D01*
X193682D01*
Y138258D01*
X193276D01*
Y138360D01*
X191043D01*
Y138461D01*
X188911D01*
Y138563D01*
X188810D01*
Y138664D01*
X188911D01*
Y138766D01*
X188404D01*
Y138867D01*
X184750D01*
Y138969D01*
X182111D01*
Y139172D01*
X182517D01*
Y139273D01*
X181096D01*
Y139375D01*
X175615D01*
Y139476D01*
X175513D01*
Y139375D01*
X175310D01*
Y139476D01*
X173584D01*
Y139578D01*
X173889D01*
Y139679D01*
X173990D01*
Y139781D01*
X170844D01*
Y139882D01*
D02*
G37*
G36*
X205557Y138055D02*
X205354D01*
Y137954D01*
X205253D01*
Y137852D01*
X205354D01*
Y137751D01*
X205557D01*
Y137852D01*
X205659D01*
Y137954D01*
X205557D01*
Y138055D01*
D02*
G37*
G36*
X109943Y137040D02*
X109842D01*
Y136939D01*
X109943D01*
Y137040D01*
D02*
G37*
G36*
X126488Y135924D02*
X126386D01*
Y135822D01*
X126488D01*
Y135924D01*
D02*
G37*
G36*
X105984Y133285D02*
X105883D01*
Y133183D01*
X105984D01*
Y133285D01*
D02*
G37*
G36*
X228801Y131052D02*
X228700D01*
Y130950D01*
X228801D01*
Y131052D01*
D02*
G37*
G36*
X85177Y130747D02*
X85075D01*
Y130646D01*
X85177D01*
Y130747D01*
D02*
G37*
G36*
X93804Y130544D02*
X93703D01*
Y130443D01*
X93804D01*
Y130544D01*
D02*
G37*
G36*
X220884Y129631D02*
X220681D01*
Y129529D01*
X220884D01*
Y129631D01*
D02*
G37*
G36*
X224132Y128514D02*
X223828D01*
Y128311D01*
X224132D01*
Y128514D01*
D02*
G37*
G36*
X227786Y126890D02*
X227685D01*
Y126789D01*
X227786D01*
Y126890D01*
D02*
G37*
G36*
X221493Y114406D02*
X221392D01*
Y114304D01*
X221493D01*
Y114406D01*
D02*
G37*
G36*
X156126Y112477D02*
X155822D01*
Y112375D01*
X146890D01*
Y112274D01*
X145063D01*
Y111969D01*
X144149D01*
Y111868D01*
X141409D01*
Y111767D01*
X140901D01*
Y111665D01*
X141003D01*
Y111462D01*
X140393D01*
Y111361D01*
X138567D01*
Y111259D01*
X138465D01*
Y111361D01*
X138364D01*
Y111259D01*
X138262D01*
Y110954D01*
X137247D01*
Y110853D01*
X136029D01*
Y110751D01*
X135927D01*
Y110650D01*
X136029D01*
Y110548D01*
X135623D01*
Y110447D01*
X134608D01*
Y110345D01*
X134100D01*
Y110041D01*
X133897D01*
Y109939D01*
X133796D01*
Y110041D01*
X133491D01*
Y109939D01*
X132781D01*
Y109838D01*
X132375D01*
Y109533D01*
X132476D01*
Y109330D01*
X132375D01*
Y109229D01*
X131867D01*
Y109127D01*
X131461D01*
Y108823D01*
X131360D01*
Y108721D01*
X130954D01*
Y108620D01*
X130852D01*
Y108315D01*
X130243D01*
Y108214D01*
X130142D01*
Y107706D01*
X129837D01*
Y107605D01*
X129736D01*
Y107402D01*
X129837D01*
Y107300D01*
X130142D01*
Y107199D01*
X130243D01*
Y106894D01*
X130345D01*
Y106793D01*
X130852D01*
Y107097D01*
X130954D01*
Y107199D01*
X131461D01*
Y107300D01*
X131867D01*
Y107605D01*
X131969D01*
Y107706D01*
X132882D01*
Y107808D01*
X132984D01*
Y108112D01*
X133390D01*
Y108214D01*
X134608D01*
Y108315D01*
X135014D01*
Y108620D01*
X135623D01*
Y108721D01*
X137247D01*
Y108823D01*
X137348D01*
Y108924D01*
X137247D01*
Y109026D01*
X137348D01*
Y109127D01*
X138668D01*
Y109229D01*
X139785D01*
Y109330D01*
X140393D01*
Y109533D01*
X140292D01*
Y109635D01*
X140089D01*
Y109533D01*
X139785D01*
Y109838D01*
X140089D01*
Y109736D01*
X140292D01*
Y109838D01*
X141003D01*
Y109939D01*
X143134D01*
Y110041D01*
X143641D01*
Y110143D01*
X143540D01*
Y110244D01*
X143641D01*
Y110345D01*
X145672D01*
Y110447D01*
X145875D01*
Y110345D01*
X146179D01*
Y110447D01*
X149529D01*
Y110548D01*
X149935D01*
Y110650D01*
X149529D01*
Y110751D01*
X150848D01*
Y110853D01*
X160389D01*
Y110751D01*
X161303D01*
Y110650D01*
X160897D01*
Y110548D01*
X161303D01*
Y110447D01*
X164652D01*
Y110345D01*
X164855D01*
Y110447D01*
X165160D01*
Y110345D01*
X167291D01*
Y110041D01*
X167697D01*
Y109939D01*
X169930D01*
Y109838D01*
X170844D01*
Y109736D01*
X170945D01*
Y109533D01*
X170844D01*
Y109330D01*
X170945D01*
Y109229D01*
X172468D01*
Y109127D01*
X173584D01*
Y109026D01*
X173889D01*
Y108924D01*
X173584D01*
Y108823D01*
X173990D01*
Y108721D01*
X175310D01*
Y108620D01*
X176224D01*
Y108315D01*
X176325D01*
Y108214D01*
X176426D01*
Y108315D01*
X176528D01*
Y108214D01*
X177848D01*
Y108112D01*
X177949D01*
Y107808D01*
X178355D01*
Y107706D01*
X178964D01*
Y107605D01*
X179269D01*
Y107300D01*
X179472D01*
Y107199D01*
X179979D01*
Y107097D01*
X180182D01*
Y107199D01*
X180791D01*
Y107097D01*
X180994D01*
Y107199D01*
X181096D01*
Y108112D01*
X180994D01*
Y108214D01*
X180588D01*
Y108620D01*
X180487D01*
Y108721D01*
X180284D01*
Y108620D01*
X179979D01*
Y108721D01*
X179776D01*
Y108823D01*
X179472D01*
Y109127D01*
X179269D01*
Y109229D01*
X179167D01*
Y109127D01*
X179066D01*
Y109229D01*
X178558D01*
Y109330D01*
X178456D01*
Y109635D01*
X178558D01*
Y109736D01*
X178456D01*
Y109838D01*
X178355D01*
Y109939D01*
X177239D01*
Y110041D01*
X177137D01*
Y110345D01*
X176629D01*
Y110447D01*
X175310D01*
Y110548D01*
X175208D01*
Y110853D01*
X173990D01*
Y110954D01*
X172976D01*
Y111056D01*
X172773D01*
Y110954D01*
X172671D01*
Y111259D01*
X172570D01*
Y111361D01*
X170844D01*
Y111462D01*
X169930D01*
Y111767D01*
X169829D01*
Y111868D01*
X166784D01*
Y111969D01*
X165769D01*
Y112172D01*
X166175D01*
Y112274D01*
X164043D01*
Y112375D01*
X156126D01*
Y112477D01*
D02*
G37*
G36*
X172976Y111259D02*
X172773D01*
Y111158D01*
X172976D01*
Y111259D01*
D02*
G37*
G36*
X179776Y109026D02*
X179675D01*
Y108924D01*
X179776D01*
Y109026D01*
D02*
G37*
G36*
X119180Y108620D02*
X118977D01*
Y108518D01*
X119180D01*
Y108620D01*
D02*
G37*
G36*
X186577Y108112D02*
X186272D01*
Y108011D01*
X186577D01*
Y108112D01*
D02*
G37*
G36*
X179167Y107503D02*
X179066D01*
Y107402D01*
X179167D01*
Y107503D01*
D02*
G37*
G36*
X180994Y106996D02*
X180791D01*
Y106894D01*
X180994D01*
Y106996D01*
D02*
G37*
G36*
X177543Y103443D02*
X177340D01*
Y103240D01*
X177543D01*
Y103443D01*
D02*
G37*
G36*
X173280Y102225D02*
X173179D01*
Y102124D01*
X173280D01*
Y102225D01*
D02*
G37*
%LPD*%
D10*
X103241Y77721D02*
G03*
X106741Y74221I3500J-0D01*
G01*
X106741Y74221D02*
G03*
X103241Y70721I-0J-3500D01*
G01*
X99741Y74221D02*
G03*
X103241Y77721I0J3500D01*
G01*
Y70721D02*
G03*
X99741Y74221I-3500J0D01*
G01*
X103279Y77663D02*
G03*
X106779Y74164I3500J-0D01*
G01*
X106779Y74164D02*
G03*
X103279Y70663I-0J-3500D01*
G01*
X99779Y74164D02*
G03*
X103279Y77663I0J3500D01*
G01*
Y70663D02*
G03*
X99779Y74164I-3500J0D01*
G01*
M02*
