G04*
G04 #@! TF.GenerationSoftware,Altium Limited,Altium Designer,21.8.1 (53)*
G04*
G04 Layer_Physical_Order=2*
G04 Layer_Color=16711680*
%FSLAX25Y25*%
%MOIN*%
G70*
G04*
G04 #@! TF.SameCoordinates,45F2FB6D-C354-490B-B6FA-590C3EB5E4E4*
G04*
G04*
G04 #@! TF.FilePolarity,Positive*
G04*
G01*
G75*
%ADD10C,0.00800*%
G36*
X139492Y51657D02*
X139626Y50984D01*
X139888Y50350D01*
X140269Y49780D01*
X140754Y49294D01*
X141325Y48913D01*
X141959Y48651D01*
X142632Y48517D01*
X142975Y48500D01*
X142975Y48500D01*
X142632Y48483D01*
X141959Y48349D01*
X141325Y48087D01*
X140754Y47706D01*
X140269Y47220D01*
X139888Y46650D01*
X139626Y46016D01*
X139492Y45343D01*
X139475Y45000D01*
X139475D01*
X139458Y45343D01*
X139324Y46016D01*
X139062Y46650D01*
X138680Y47220D01*
X138195Y47706D01*
X137625Y48087D01*
X136991Y48349D01*
X136318Y48483D01*
X135975Y48500D01*
X135975Y48500D01*
X136318Y48517D01*
X136991Y48651D01*
X137625Y48913D01*
X138195Y49294D01*
X138680Y49780D01*
X139062Y50350D01*
X139324Y50984D01*
X139458Y51657D01*
X139475Y52000D01*
X139475D01*
X139492Y51657D01*
D02*
G37*
G36*
X84000Y151500D02*
X84017Y151157D01*
X84151Y150484D01*
X84413Y149850D01*
X84794Y149280D01*
X85280Y148794D01*
X85850Y148413D01*
X86484Y148151D01*
X87157Y148017D01*
X87500Y148000D01*
X87157Y147983D01*
X86484Y147849D01*
X85850Y147587D01*
X85280Y147205D01*
X84794Y146720D01*
X84413Y146150D01*
X84151Y145516D01*
X84017Y144843D01*
X84000Y144500D01*
X84000Y144500D01*
X83983Y144843D01*
X83849Y145516D01*
X83587Y146150D01*
X83205Y146720D01*
X82720Y147205D01*
X82150Y147587D01*
X81516Y147849D01*
X80843Y147983D01*
X80500Y148000D01*
Y148000D01*
X80843Y148017D01*
X81516Y148151D01*
X82150Y148413D01*
X82720Y148794D01*
X83205Y149280D01*
X83587Y149850D01*
X83849Y150484D01*
X83983Y151157D01*
X84000Y151500D01*
X84000Y151500D01*
D02*
G37*
G36*
X182167Y181744D02*
X182301Y181071D01*
X182563Y180437D01*
X182944Y179866D01*
X183430Y179381D01*
X184000Y179000D01*
X184634Y178737D01*
X185307Y178604D01*
X185650Y178587D01*
X185650Y178587D01*
X185307Y178570D01*
X184634Y178436D01*
X184000Y178173D01*
X183430Y177792D01*
X182944Y177307D01*
X182563Y176737D01*
X182301Y176103D01*
X182167Y175430D01*
X182150Y175087D01*
X182150D01*
X182133Y175430D01*
X181999Y176103D01*
X181737Y176737D01*
X181355Y177307D01*
X180870Y177792D01*
X180300Y178173D01*
X179666Y178436D01*
X178993Y178570D01*
X178650Y178587D01*
X178650Y178587D01*
X178993Y178604D01*
X179666Y178737D01*
X180300Y179000D01*
X180870Y179381D01*
X181355Y179866D01*
X181737Y180437D01*
X181999Y181071D01*
X182133Y181744D01*
X182150Y182087D01*
X182150D01*
X182167Y181744D01*
D02*
G37*
G36*
X178975Y196975D02*
X178992Y196632D01*
X179126Y195959D01*
X179388Y195325D01*
X179769Y194755D01*
X180254Y194269D01*
X180825Y193888D01*
X181459Y193626D01*
X182132Y193492D01*
X182475Y193475D01*
X182132Y193458D01*
X181459Y193324D01*
X180825Y193062D01*
X180254Y192680D01*
X179769Y192195D01*
X179388Y191625D01*
X179126Y190991D01*
X178992Y190318D01*
X178975Y189975D01*
X178975Y189975D01*
X178958Y190318D01*
X178824Y190991D01*
X178562Y191625D01*
X178180Y192195D01*
X177695Y192680D01*
X177125Y193062D01*
X176491Y193324D01*
X175818Y193458D01*
X175475Y193475D01*
Y193475D01*
X175818Y193492D01*
X176491Y193626D01*
X177125Y193888D01*
X177695Y194269D01*
X178180Y194755D01*
X178562Y195325D01*
X178824Y195959D01*
X178958Y196632D01*
X178975Y196975D01*
X178975Y196975D01*
D02*
G37*
D10*
X133889Y186414D02*
G03*
X135889Y184414I2000J0D01*
G01*
D02*
G03*
X133889Y182414I0J-2000D01*
G01*
X131889Y184414D02*
G03*
X133889Y186414I0J2000D01*
G01*
Y182414D02*
G03*
X131889Y184414I-2000J0D01*
G01*
X106975Y75525D02*
G03*
X110475Y72025I3500J-0D01*
G01*
X110475Y72025D02*
G03*
X106975Y68525I-0J-3500D01*
G01*
X103475Y72025D02*
G03*
X106975Y75525I0J3500D01*
G01*
X106975Y68525D02*
G03*
X103475Y72025I-3500J0D01*
G01*
X73975Y93975D02*
G03*
X77475Y90475I3500J-0D01*
G01*
X77475Y90475D02*
G03*
X73975Y86975I-0J-3500D01*
G01*
X70475Y90475D02*
G03*
X73975Y93975I0J3500D01*
G01*
Y86975D02*
G03*
X70475Y90475I-3500J0D01*
G01*
X206025Y58025D02*
G03*
X209525Y54525I3500J-0D01*
G01*
X209525Y54525D02*
G03*
X206025Y51025I-0J-3500D01*
G01*
X202525Y54525D02*
G03*
X206025Y58025I0J3500D01*
G01*
X206025Y51025D02*
G03*
X202525Y54525I-3500J0D01*
G01*
X219914Y155586D02*
G03*
X221914Y153586I2000J0D01*
G01*
D02*
G03*
X219914Y151586I0J-2000D01*
G01*
X217914Y153586D02*
G03*
X219914Y155586I0J2000D01*
G01*
Y151586D02*
G03*
X217914Y153586I-2000J0D01*
G01*
X214025Y89025D02*
G03*
X217525Y85525I3500J-0D01*
G01*
X217525Y85525D02*
G03*
X214025Y82025I-0J-3500D01*
G01*
X210525Y85525D02*
G03*
X214025Y89025I0J3500D01*
G01*
Y82025D02*
G03*
X210525Y85525I-3500J0D01*
G01*
M02*
