G04*
G04 #@! TF.GenerationSoftware,Altium Limited,Altium Designer,21.8.1 (53)*
G04*
G04 Layer_Color=8388736*
%FSLAX25Y25*%
%MOIN*%
G70*
G04*
G04 #@! TF.SameCoordinates,4D66A8FD-5AEA-4BBE-AC91-A6DA004BC610*
G04*
G04*
G04 #@! TF.FilePolarity,Negative*
G04*
G01*
G75*
%ADD11C,0.01000*%
G04:AMPARAMS|DCode=42|XSize=33.59mil|YSize=33.2mil|CornerRadius=0mil|HoleSize=0mil|Usage=FLASHONLY|Rotation=330.000|XOffset=0mil|YOffset=0mil|HoleType=Round|Shape=Rectangle|*
%AMROTATEDRECTD42*
4,1,4,-0.02284,-0.00598,-0.00625,0.02277,0.02284,0.00598,0.00625,-0.02277,-0.02284,-0.00598,0.0*
%
%ADD42ROTATEDRECTD42*%

%ADD43R,0.02965X0.05524*%
%ADD44R,0.03556X0.05524*%
%ADD45R,0.02572X0.05524*%
%ADD46R,0.02572X0.02965*%
G04:AMPARAMS|DCode=47|XSize=55.24mil|YSize=29.65mil|CornerRadius=0mil|HoleSize=0mil|Usage=FLASHONLY|Rotation=60.000|XOffset=0mil|YOffset=0mil|HoleType=Round|Shape=Rectangle|*
%AMROTATEDRECTD47*
4,1,4,-0.00097,-0.03134,-0.02665,-0.01651,0.00097,0.03134,0.02665,0.01651,-0.00097,-0.03134,0.0*
%
%ADD47ROTATEDRECTD47*%

%ADD48R,0.03359X0.03320*%
G04:AMPARAMS|DCode=49|XSize=33.59mil|YSize=33.2mil|CornerRadius=0mil|HoleSize=0mil|Usage=FLASHONLY|Rotation=210.000|XOffset=0mil|YOffset=0mil|HoleType=Round|Shape=Rectangle|*
%AMROTATEDRECTD49*
4,1,4,0.00625,0.02277,0.02284,-0.00598,-0.00625,-0.02277,-0.02284,0.00598,0.00625,0.02277,0.0*
%
%ADD49ROTATEDRECTD49*%

G04:AMPARAMS|DCode=50|XSize=33.59mil|YSize=33.2mil|CornerRadius=0mil|HoleSize=0mil|Usage=FLASHONLY|Rotation=300.000|XOffset=0mil|YOffset=0mil|HoleType=Round|Shape=Rectangle|*
%AMROTATEDRECTD50*
4,1,4,-0.02277,0.00625,0.00598,0.02284,0.02277,-0.00625,-0.00598,-0.02284,-0.02277,0.00625,0.0*
%
%ADD50ROTATEDRECTD50*%

%ADD51R,0.03320X0.03359*%
G04:AMPARAMS|DCode=52|XSize=33.59mil|YSize=33.2mil|CornerRadius=0mil|HoleSize=0mil|Usage=FLASHONLY|Rotation=240.000|XOffset=0mil|YOffset=0mil|HoleType=Round|Shape=Rectangle|*
%AMROTATEDRECTD52*
4,1,4,-0.00598,0.02284,0.02277,0.00625,0.00598,-0.02284,-0.02277,-0.00625,-0.00598,0.02284,0.0*
%
%ADD52ROTATEDRECTD52*%

G04:AMPARAMS|DCode=53|XSize=55.24mil|YSize=35.56mil|CornerRadius=0mil|HoleSize=0mil|Usage=FLASHONLY|Rotation=240.000|XOffset=0mil|YOffset=0mil|HoleType=Round|Shape=Rectangle|*
%AMROTATEDRECTD53*
4,1,4,-0.00159,0.03281,0.02921,0.01503,0.00159,-0.03281,-0.02921,-0.01503,-0.00159,0.03281,0.0*
%
%ADD53ROTATEDRECTD53*%

G04:AMPARAMS|DCode=54|XSize=55.24mil|YSize=25.72mil|CornerRadius=0mil|HoleSize=0mil|Usage=FLASHONLY|Rotation=240.000|XOffset=0mil|YOffset=0mil|HoleType=Round|Shape=Rectangle|*
%AMROTATEDRECTD54*
4,1,4,0.00267,0.03035,0.02495,0.01749,-0.00267,-0.03035,-0.02495,-0.01749,0.00267,0.03035,0.0*
%
%ADD54ROTATEDRECTD54*%

G04:AMPARAMS|DCode=55|XSize=29.65mil|YSize=25.72mil|CornerRadius=0mil|HoleSize=0mil|Usage=FLASHONLY|Rotation=240.000|XOffset=0mil|YOffset=0mil|HoleType=Round|Shape=Rectangle|*
%AMROTATEDRECTD55*
4,1,4,-0.00372,0.01927,0.01855,0.00641,0.00372,-0.01927,-0.01855,-0.00641,-0.00372,0.01927,0.0*
%
%ADD55ROTATEDRECTD55*%

G04:AMPARAMS|DCode=56|XSize=55.24mil|YSize=29.65mil|CornerRadius=0mil|HoleSize=0mil|Usage=FLASHONLY|Rotation=210.000|XOffset=0mil|YOffset=0mil|HoleType=Round|Shape=Rectangle|*
%AMROTATEDRECTD56*
4,1,4,0.01651,0.02665,0.03134,0.00097,-0.01651,-0.02665,-0.03134,-0.00097,0.01651,0.02665,0.0*
%
%ADD56ROTATEDRECTD56*%

G04:AMPARAMS|DCode=57|XSize=55.24mil|YSize=35.56mil|CornerRadius=0mil|HoleSize=0mil|Usage=FLASHONLY|Rotation=210.000|XOffset=0mil|YOffset=0mil|HoleType=Round|Shape=Rectangle|*
%AMROTATEDRECTD57*
4,1,4,0.01503,0.02921,0.03281,-0.00159,-0.01503,-0.02921,-0.03281,0.00159,0.01503,0.02921,0.0*
%
%ADD57ROTATEDRECTD57*%

G04:AMPARAMS|DCode=58|XSize=55.24mil|YSize=25.72mil|CornerRadius=0mil|HoleSize=0mil|Usage=FLASHONLY|Rotation=210.000|XOffset=0mil|YOffset=0mil|HoleType=Round|Shape=Rectangle|*
%AMROTATEDRECTD58*
4,1,4,0.01749,0.02495,0.03035,0.00267,-0.01749,-0.02495,-0.03035,-0.00267,0.01749,0.02495,0.0*
%
%ADD58ROTATEDRECTD58*%

G04:AMPARAMS|DCode=59|XSize=29.65mil|YSize=25.72mil|CornerRadius=0mil|HoleSize=0mil|Usage=FLASHONLY|Rotation=210.000|XOffset=0mil|YOffset=0mil|HoleType=Round|Shape=Rectangle|*
%AMROTATEDRECTD59*
4,1,4,0.00641,0.01855,0.01927,-0.00372,-0.00641,-0.01855,-0.01927,0.00372,0.00641,0.01855,0.0*
%
%ADD59ROTATEDRECTD59*%

%ADD60R,0.05524X0.02965*%
%ADD61R,0.05524X0.03556*%
%ADD62R,0.05524X0.02572*%
%ADD63R,0.02965X0.02572*%
G04:AMPARAMS|DCode=64|XSize=55.24mil|YSize=29.65mil|CornerRadius=0mil|HoleSize=0mil|Usage=FLASHONLY|Rotation=150.000|XOffset=0mil|YOffset=0mil|HoleType=Round|Shape=Rectangle|*
%AMROTATEDRECTD64*
4,1,4,0.03134,-0.00097,0.01651,-0.02665,-0.03134,0.00097,-0.01651,0.02665,0.03134,-0.00097,0.0*
%
%ADD64ROTATEDRECTD64*%

G04:AMPARAMS|DCode=65|XSize=55.24mil|YSize=35.56mil|CornerRadius=0mil|HoleSize=0mil|Usage=FLASHONLY|Rotation=150.000|XOffset=0mil|YOffset=0mil|HoleType=Round|Shape=Rectangle|*
%AMROTATEDRECTD65*
4,1,4,0.03281,0.00159,0.01503,-0.02921,-0.03281,-0.00159,-0.01503,0.02921,0.03281,0.00159,0.0*
%
%ADD65ROTATEDRECTD65*%

G04:AMPARAMS|DCode=66|XSize=55.24mil|YSize=25.72mil|CornerRadius=0mil|HoleSize=0mil|Usage=FLASHONLY|Rotation=150.000|XOffset=0mil|YOffset=0mil|HoleType=Round|Shape=Rectangle|*
%AMROTATEDRECTD66*
4,1,4,0.03035,-0.00267,0.01749,-0.02495,-0.03035,0.00267,-0.01749,0.02495,0.03035,-0.00267,0.0*
%
%ADD66ROTATEDRECTD66*%

G04:AMPARAMS|DCode=67|XSize=29.65mil|YSize=25.72mil|CornerRadius=0mil|HoleSize=0mil|Usage=FLASHONLY|Rotation=150.000|XOffset=0mil|YOffset=0mil|HoleType=Round|Shape=Rectangle|*
%AMROTATEDRECTD67*
4,1,4,0.01927,0.00372,0.00641,-0.01855,-0.01927,-0.00372,-0.00641,0.01855,0.01927,0.00372,0.0*
%
%ADD67ROTATEDRECTD67*%

G04:AMPARAMS|DCode=68|XSize=55.24mil|YSize=29.65mil|CornerRadius=0mil|HoleSize=0mil|Usage=FLASHONLY|Rotation=120.000|XOffset=0mil|YOffset=0mil|HoleType=Round|Shape=Rectangle|*
%AMROTATEDRECTD68*
4,1,4,0.02665,-0.01651,0.00097,-0.03134,-0.02665,0.01651,-0.00097,0.03134,0.02665,-0.01651,0.0*
%
%ADD68ROTATEDRECTD68*%

G04:AMPARAMS|DCode=69|XSize=55.24mil|YSize=35.56mil|CornerRadius=0mil|HoleSize=0mil|Usage=FLASHONLY|Rotation=120.000|XOffset=0mil|YOffset=0mil|HoleType=Round|Shape=Rectangle|*
%AMROTATEDRECTD69*
4,1,4,0.02921,-0.01503,-0.00159,-0.03281,-0.02921,0.01503,0.00159,0.03281,0.02921,-0.01503,0.0*
%
%ADD69ROTATEDRECTD69*%

G04:AMPARAMS|DCode=70|XSize=55.24mil|YSize=25.72mil|CornerRadius=0mil|HoleSize=0mil|Usage=FLASHONLY|Rotation=120.000|XOffset=0mil|YOffset=0mil|HoleType=Round|Shape=Rectangle|*
%AMROTATEDRECTD70*
4,1,4,0.02495,-0.01749,0.00267,-0.03035,-0.02495,0.01749,-0.00267,0.03035,0.02495,-0.01749,0.0*
%
%ADD70ROTATEDRECTD70*%

G04:AMPARAMS|DCode=71|XSize=29.65mil|YSize=25.72mil|CornerRadius=0mil|HoleSize=0mil|Usage=FLASHONLY|Rotation=120.000|XOffset=0mil|YOffset=0mil|HoleType=Round|Shape=Rectangle|*
%AMROTATEDRECTD71*
4,1,4,0.01855,-0.00641,-0.00372,-0.01927,-0.01855,0.00641,0.00372,0.01927,0.01855,-0.00641,0.0*
%
%ADD71ROTATEDRECTD71*%

%ADD72C,0.02572*%
G04:AMPARAMS|DCode=73|XSize=86.74mil|YSize=70.99mil|CornerRadius=19.75mil|HoleSize=0mil|Usage=FLASHONLY|Rotation=0.000|XOffset=0mil|YOffset=0mil|HoleType=Round|Shape=RoundedRectangle|*
%AMROUNDEDRECTD73*
21,1,0.08674,0.03150,0,0,0.0*
21,1,0.04724,0.07099,0,0,0.0*
1,1,0.03950,0.02362,-0.01575*
1,1,0.03950,-0.02362,-0.01575*
1,1,0.03950,-0.02362,0.01575*
1,1,0.03950,0.02362,0.01575*
%
%ADD73ROUNDEDRECTD73*%
G36*
X424249Y213667D02*
X424251D01*
X424254Y213667D01*
X424256Y213667D01*
X424258Y213667D01*
X424259Y213667D01*
X424261Y213667D01*
X424262Y213667D01*
X424263Y213667D01*
X424264Y213667D01*
X424266Y213667D01*
X424267Y213667D01*
X424268Y213667D01*
X424269Y213667D01*
X424270Y213666D01*
X424271Y213666D01*
X424272Y213666D01*
X424273Y213666D01*
X424274Y213666D01*
X424275Y213666D01*
X424276Y213666D01*
X424277Y213666D01*
X424279Y213666D01*
X424280Y213666D01*
X424282Y213666D01*
X424283Y213665D01*
X424284Y213665D01*
X424286Y213665D01*
X424287Y213665D01*
X424289Y213665D01*
X424290Y213665D01*
X424291Y213664D01*
X424293Y213664D01*
X424294Y213664D01*
X424295Y213664D01*
X424296Y213663D01*
X424298Y213663D01*
X424299Y213663D01*
X424300Y213663D01*
X424301Y213662D01*
X424302Y213662D01*
X424303Y213662D01*
X424304Y213662D01*
X424306Y213661D01*
X424307Y213661D01*
X424308Y213661D01*
X424309Y213661D01*
X424310Y213660D01*
X424311Y213660D01*
X424312Y213660D01*
X424313Y213659D01*
X424314Y213659D01*
X424315Y213658D01*
X424316Y213658D01*
X424317Y213657D01*
X424318Y213657D01*
X424319Y213656D01*
X424320Y213656D01*
X424322Y213655D01*
X424323Y213655D01*
X424324Y213654D01*
X424325Y213654D01*
X424325Y213653D01*
X424326Y213652D01*
X424327Y213652D01*
X424328Y213651D01*
X424329Y213651D01*
X424330Y213650D01*
X424331Y213649D01*
X424331Y213648D01*
X424332Y213648D01*
X424333Y213647D01*
X424334Y213646D01*
X424334Y213646D01*
X424334Y213646D01*
X424334Y213645D01*
X424334Y213645D01*
X424334Y213645D01*
X424334Y213645D01*
X424334D01*
X424334Y213644D01*
X424335Y213644D01*
X424335Y213644D01*
X424335Y213643D01*
X424335Y213643D01*
X424336Y213643D01*
X424336Y213642D01*
X424337Y213640D01*
X424337Y213639D01*
X424337Y213639D01*
X424338Y213638D01*
X424338Y213638D01*
X424338Y213637D01*
X424338Y213637D01*
X424338Y213637D01*
X424338Y213636D01*
X424338Y213636D01*
X424339Y213635D01*
X424339Y213634D01*
X424339Y213633D01*
X424339Y213632D01*
X424339Y213630D01*
X424339Y213629D01*
X424339Y213628D01*
Y213627D01*
X424339Y213626D01*
X424339Y213625D01*
X424339Y213624D01*
X424339Y213623D01*
X424339Y213621D01*
X424339Y213620D01*
X424339Y213619D01*
X424338Y213618D01*
X424338Y213617D01*
X424338Y213616D01*
X424337Y213614D01*
X424337Y213613D01*
X424337Y213612D01*
X424336Y213611D01*
X424336Y213610D01*
X424336Y213609D01*
X424335Y213608D01*
X424335Y213607D01*
X424335Y213606D01*
X424334Y213605D01*
X424334Y213604D01*
X424334Y213603D01*
X424333Y213602D01*
X424333Y213601D01*
X424332Y213600D01*
X424332Y213599D01*
X424331Y213598D01*
X424331Y213597D01*
X424330Y213595D01*
X424330Y213594D01*
X424329Y213593D01*
X424329Y213592D01*
X424328Y213591D01*
X424328Y213590D01*
X424327Y213589D01*
X424326Y213587D01*
X424326Y213586D01*
X424325Y213585D01*
X424324Y213584D01*
X424324Y213583D01*
X424323Y213581D01*
X424322Y213580D01*
X424321Y213579D01*
X424321Y213578D01*
X424320Y213576D01*
X424319Y213575D01*
X424319Y213574D01*
X424318Y213573D01*
X424318Y213573D01*
X424317Y213572D01*
X424317Y213571D01*
X424316Y213570D01*
X424315Y213569D01*
X424315Y213568D01*
X424314Y213567D01*
X424314Y213566D01*
X424313Y213565D01*
X424312Y213564D01*
X424311Y213563D01*
X424311Y213562D01*
X424310Y213561D01*
X424309Y213560D01*
X424309Y213559D01*
X424308Y213558D01*
X424307Y213557D01*
X424297Y213543D01*
X424288Y213529D01*
X424280Y213516D01*
X424271Y213504D01*
X424263Y213491D01*
X424254Y213478D01*
X424247Y213466D01*
X424239Y213455D01*
X424231Y213442D01*
X424224Y213431D01*
X424217Y213420D01*
X424210Y213408D01*
X424203Y213397D01*
X424196Y213386D01*
X424189Y213375D01*
X424183Y213364D01*
X424176Y213354D01*
X424170Y213344D01*
X424164Y213333D01*
X424158Y213323D01*
X424152Y213313D01*
X424146Y213302D01*
X424140Y213292D01*
X424134Y213283D01*
X424129Y213273D01*
X424123Y213264D01*
X424118Y213254D01*
X424113Y213245D01*
X424107Y213236D01*
X424102Y213226D01*
X424097Y213217D01*
X424092Y213208D01*
X424083Y213191D01*
X424078Y213182D01*
X424073Y213174D01*
X424068Y213165D01*
X424064Y213157D01*
X424059Y213148D01*
X424054Y213140D01*
X424050Y213131D01*
X424046Y213123D01*
X424042Y213116D01*
X424038Y213108D01*
X424034Y213100D01*
X424030Y213092D01*
X424026Y213085D01*
X424021Y213077D01*
X424017Y213069D01*
X424014Y213062D01*
X424010Y213054D01*
X424006Y213046D01*
X424002Y213038D01*
X423998Y213032D01*
X423991Y213018D01*
X423988Y213011D01*
X423984Y213005D01*
X423981Y212998D01*
X423978Y212991D01*
X423974Y212984D01*
X423971Y212977D01*
X423967Y212971D01*
X423964Y212964D01*
X423961Y212957D01*
X423957Y212950D01*
X423954Y212943D01*
X423948Y212932D01*
X423945Y212926D01*
X423942Y212920D01*
X423940Y212914D01*
X423937Y212908D01*
X423934Y212902D01*
X423931Y212896D01*
X423928Y212891D01*
X423925Y212885D01*
X423920Y212873D01*
X423914Y212861D01*
X423906Y212844D01*
X423899Y212829D01*
X423896Y212824D01*
X423894Y212819D01*
X423892Y212814D01*
X423889Y212809D01*
X423887Y212804D01*
X423882Y212794D01*
X423880Y212789D01*
X423878Y212785D01*
X423875Y212780D01*
X423873Y212775D01*
X423871Y212770D01*
X423866Y212760D01*
X423862Y212750D01*
X423859Y212745D01*
X423857Y212741D01*
X423856Y212737D01*
X423852Y212729D01*
X423850Y212725D01*
X423848Y212721D01*
X423845Y212713D01*
X423843Y212709D01*
X423841Y212705D01*
X423836Y212694D01*
X423834Y212690D01*
X423832Y212686D01*
X423830Y212682D01*
X423829Y212678D01*
X423827Y212674D01*
X423825Y212670D01*
X423821Y212662D01*
X423819Y212658D01*
X423816Y212650D01*
X423814Y212646D01*
X423812Y212642D01*
X423811Y212639D01*
X423810Y212636D01*
X423807Y212630D01*
X423806Y212627D01*
X423796Y212606D01*
X423795Y212603D01*
X423794Y212600D01*
X423792Y212597D01*
X423791Y212594D01*
X423790Y212592D01*
X423788Y212589D01*
X423787Y212586D01*
X423786Y212584D01*
X423785Y212581D01*
X423783Y212579D01*
X423782Y212576D01*
X423781Y212573D01*
X423779Y212571D01*
X423778Y212568D01*
X423777Y212566D01*
X423775Y212563D01*
X423774Y212560D01*
X423772Y212558D01*
X423771Y212555D01*
X423770Y212553D01*
X423768Y212550D01*
X423767Y212547D01*
X423765Y212545D01*
X423764Y212542D01*
X423763Y212540D01*
X423761Y212538D01*
X423759Y212533D01*
X423757Y212531D01*
X423756Y212528D01*
X423754Y212526D01*
X423753Y212524D01*
X423750Y212519D01*
X423749Y212517D01*
X423746Y212512D01*
X423743Y212508D01*
X423740Y212503D01*
X423739Y212501D01*
X423737Y212499D01*
X423734Y212494D01*
X423733Y212492D01*
X423730Y212488D01*
X423728Y212485D01*
X423727Y212483D01*
X423725Y212481D01*
X423724Y212479D01*
X423722Y212477D01*
X423721Y212475D01*
X423720Y212473D01*
X423718Y212471D01*
X423717Y212469D01*
X423714Y212465D01*
X423712Y212463D01*
X423710Y212459D01*
X423708Y212457D01*
X423705Y212453D01*
X423702Y212449D01*
X423700Y212445D01*
X423698Y212443D01*
X423695Y212439D01*
X423694Y212437D01*
X423691Y212434D01*
X423688Y212430D01*
X423687Y212428D01*
X423683Y212423D01*
X423682Y212422D01*
X423680Y212420D01*
X423678Y212417D01*
X423676Y212415D01*
X423675Y212413D01*
X423671Y212408D01*
X423670Y212406D01*
X423668Y212405D01*
X423666Y212401D01*
X423663Y212399D01*
X423662Y212397D01*
X423661Y212396D01*
X423660Y212394D01*
X423658Y212393D01*
X423657Y212391D01*
X423654Y212387D01*
X423653Y212386D01*
X423651Y212384D01*
X423650Y212383D01*
X423649Y212381D01*
X423648Y212380D01*
X423646Y212378D01*
X423564Y212279D01*
X423489Y212189D01*
X423415Y212098D01*
X423346Y212011D01*
X423276Y211924D01*
X423211Y211841D01*
X423146Y211757D01*
X423085Y211678D01*
X423025Y211598D01*
X422964Y211519D01*
X422908Y211443D01*
X422852Y211367D01*
X422796Y211291D01*
X422744Y211219D01*
X422692Y211147D01*
X422640Y211075D01*
X422589Y211002D01*
X422541Y210934D01*
X422494Y210866D01*
X422446Y210798D01*
X422399Y210729D01*
X422352Y210660D01*
X422309Y210596D01*
X422266Y210531D01*
X422223Y210467D01*
X422180Y210402D01*
X422137Y210337D01*
X422095Y210272D01*
X422055Y210212D01*
X422016Y210151D01*
X421978Y210091D01*
X421939Y210030D01*
X421900Y209969D01*
X421862Y209908D01*
X421827Y209852D01*
X421791Y209795D01*
X421756Y209738D01*
X421722Y209682D01*
X421687Y209625D01*
X421652Y209568D01*
X421618Y209511D01*
X421586Y209459D01*
X421555Y209407D01*
X421524Y209354D01*
X421492Y209302D01*
X421461Y209249D01*
X421430Y209197D01*
X421399Y209144D01*
X421369Y209091D01*
X421338Y209039D01*
X421310Y208991D01*
X421282Y208943D01*
X421255Y208894D01*
X421227Y208846D01*
X421200Y208798D01*
X421172Y208750D01*
X421145Y208701D01*
X421118Y208653D01*
X421091Y208604D01*
X421063Y208556D01*
X421039Y208512D01*
X421015Y208469D01*
X420991Y208425D01*
X420966Y208381D01*
X420942Y208337D01*
X420918Y208293D01*
X420894Y208249D01*
X420870Y208205D01*
X420847Y208161D01*
X420823Y208117D01*
X420799Y208073D01*
X420775Y208029D01*
X420754Y207990D01*
X420733Y207951D01*
X420712Y207912D01*
X420691Y207872D01*
X420670Y207833D01*
X420650Y207794D01*
X420629Y207754D01*
X420618Y207734D01*
X420507Y207523D01*
X420401Y207317D01*
X420292Y207104D01*
X420185Y206891D01*
X420076Y206671D01*
X419968Y206450D01*
X419858Y206223D01*
X419746Y205988D01*
X419636Y205753D01*
X419525Y205511D01*
X419412Y205262D01*
X419298Y205006D01*
X419186Y204749D01*
X419073Y204485D01*
X418959Y204213D01*
X418842Y203928D01*
X418724Y203635D01*
X418606Y203335D01*
X418486Y203020D01*
X418364Y202692D01*
X418240Y202348D01*
X418115Y201990D01*
X417986Y201611D01*
X417879Y201283D01*
X417868Y201248D01*
X417857Y201215D01*
X417847Y201182D01*
X417837Y201150D01*
X417826Y201114D01*
X417814Y201079D01*
X417803Y201044D01*
X417792Y201008D01*
X417781Y200973D01*
X417771Y200937D01*
X417760Y200902D01*
X417748Y200864D01*
X417737Y200826D01*
X417725Y200788D01*
X417714Y200750D01*
X417703Y200712D01*
X417691Y200674D01*
X417680Y200636D01*
X417668Y200595D01*
X417657Y200554D01*
X417645Y200514D01*
X417633Y200473D01*
X417622Y200432D01*
X417611Y200392D01*
X417598Y200348D01*
X417586Y200305D01*
X417575Y200262D01*
X417563Y200218D01*
X417551Y200175D01*
X417540Y200132D01*
X417527Y200085D01*
X417515Y200040D01*
X417503Y199994D01*
X417491Y199947D01*
X417480Y199901D01*
X417467Y199853D01*
X417455Y199804D01*
X417443Y199755D01*
X417431Y199706D01*
X417419Y199655D01*
X417407Y199603D01*
X417395Y199552D01*
X417383Y199500D01*
X417371Y199446D01*
X417358Y199392D01*
X417346Y199338D01*
X417335Y199283D01*
X417322Y199226D01*
X417310Y199170D01*
X417299Y199113D01*
X417286Y199053D01*
X417275Y198993D01*
X417263Y198933D01*
X417251Y198871D01*
X417239Y198809D01*
X417228Y198746D01*
X417224Y198723D01*
X417198Y198574D01*
X417177Y198439D01*
X417158Y198314D01*
X417142Y198195D01*
X417129Y198083D01*
X417117Y197978D01*
X417106Y197875D01*
X417097Y197776D01*
X417089Y197681D01*
X417081Y197588D01*
X417075Y197499D01*
X417070Y197413D01*
X417065Y197327D01*
X417061Y197244D01*
X417058Y197165D01*
X417055Y197085D01*
X417053Y197009D01*
X417051Y196933D01*
X417050Y196860D01*
X417049Y196788D01*
X417049Y196715D01*
Y196715D01*
X417049Y196706D01*
X417049Y196688D01*
Y196671D01*
X417049Y196654D01*
X417049Y196645D01*
X417049Y196575D01*
X417050Y196506D01*
X417051Y196440D01*
X417052Y196373D01*
X417054Y196307D01*
X417056Y196244D01*
X417058Y196181D01*
X417061Y196118D01*
X417063Y196055D01*
X417066Y195995D01*
X417069Y195935D01*
X417073Y195876D01*
X417076Y195816D01*
X417080Y195756D01*
X417084Y195700D01*
X417088Y195643D01*
X417092Y195587D01*
X417097Y195530D01*
X417101Y195474D01*
X417106Y195417D01*
X417107Y195414D01*
X417116Y195311D01*
X417125Y195215D01*
X417135Y195120D01*
X417144Y195030D01*
X417154Y194941D01*
X417164Y194852D01*
X417175Y194763D01*
X417185Y194680D01*
X417196Y194597D01*
X417206Y194515D01*
X417218Y194432D01*
X417229Y194350D01*
X417240Y194274D01*
X417251Y194198D01*
X417262Y194122D01*
X417274Y194046D01*
X417286Y193971D01*
X417297Y193901D01*
X417308Y193832D01*
X417320Y193763D01*
X417331Y193693D01*
X417343Y193624D01*
X417355Y193555D01*
X417368Y193486D01*
X417379Y193423D01*
X417390Y193360D01*
X417402Y193297D01*
X417414Y193235D01*
X417426Y193172D01*
X417438Y193109D01*
X417450Y193046D01*
X417462Y192984D01*
X417474Y192928D01*
X417485Y192871D01*
X417497Y192815D01*
X417508Y192759D01*
X417520Y192702D01*
X417532Y192646D01*
X417544Y192590D01*
X417556Y192534D01*
X417568Y192478D01*
X417581Y192422D01*
X417591Y192372D01*
X417603Y192322D01*
X417614Y192272D01*
X417625Y192222D01*
X417636Y192173D01*
X417648Y192123D01*
X417659Y192073D01*
X417671Y192023D01*
X417683Y191974D01*
X417694Y191924D01*
X417706Y191874D01*
X417718Y191825D01*
X417729Y191781D01*
X417739Y191738D01*
X417750Y191694D01*
X417760Y191651D01*
X417771Y191608D01*
X417782Y191564D01*
X417792Y191521D01*
X417803Y191477D01*
X417814Y191434D01*
X417825Y191391D01*
X417836Y191347D01*
X417847Y191304D01*
X417858Y191261D01*
X417869Y191218D01*
X417879Y191180D01*
X417889Y191143D01*
X417898Y191106D01*
X417908Y191069D01*
X417918Y191032D01*
X417928Y190995D01*
X417937Y190958D01*
X417947Y190921D01*
X417957Y190884D01*
X417967Y190847D01*
X417977Y190810D01*
X417987Y190773D01*
X417997Y190736D01*
X418007Y190699D01*
X418017Y190662D01*
X418027Y190625D01*
X418037Y190588D01*
X418045Y190557D01*
X418054Y190526D01*
X418062Y190495D01*
X418071Y190465D01*
X418079Y190434D01*
X418088Y190403D01*
X418097Y190372D01*
X418105Y190341D01*
X418114Y190311D01*
X418122Y190280D01*
X418131Y190249D01*
X418140Y190218D01*
X418148Y190188D01*
X418157Y190157D01*
X418166Y190126D01*
X418175Y190095D01*
X418183Y190065D01*
X418192Y190034D01*
X418201Y190003D01*
X418210Y189972D01*
X418217Y189948D01*
X418224Y189923D01*
X418231Y189899D01*
X418245Y189849D01*
X418252Y189825D01*
X418259Y189800D01*
X418266Y189776D01*
X418281Y189726D01*
X418295Y189677D01*
X418302Y189653D01*
X418309Y189628D01*
X418317Y189604D01*
X418324Y189579D01*
X418331Y189555D01*
X418338Y189530D01*
X418353Y189481D01*
X418360Y189456D01*
X418367Y189432D01*
X418374Y189407D01*
X418382Y189383D01*
X418396Y189334D01*
X418407Y189297D01*
X418418Y189260D01*
X418424Y189242D01*
X418429Y189223D01*
X418435Y189205D01*
X418440Y189187D01*
X418444Y189174D01*
X418475Y189069D01*
X418505Y188972D01*
X418534Y188874D01*
X418564Y188777D01*
X418594Y188680D01*
X418621Y188591D01*
X418648Y188503D01*
X418676Y188414D01*
X418704Y188325D01*
X418731Y188236D01*
X418759Y188147D01*
X418787Y188059D01*
X418816Y187970D01*
X418844Y187881D01*
X418869Y187801D01*
X418895Y187720D01*
X418921Y187640D01*
X418947Y187559D01*
X418973Y187479D01*
X418999Y187399D01*
X419026Y187318D01*
X419052Y187238D01*
X419078Y187157D01*
X419102Y187085D01*
X419126Y187013D01*
X419150Y186941D01*
X419174Y186868D01*
X419198Y186796D01*
X419222Y186724D01*
X419246Y186652D01*
X419270Y186580D01*
X419295Y186508D01*
X419319Y186436D01*
X419343Y186363D01*
X419365Y186300D01*
X419387Y186235D01*
X419409Y186171D01*
X419431Y186107D01*
X419452Y186043D01*
X419474Y185979D01*
X419496Y185916D01*
X419518Y185852D01*
X419541Y185788D01*
X419563Y185724D01*
X419585Y185660D01*
X419607Y185596D01*
X419626Y185540D01*
X419646Y185484D01*
X419665Y185428D01*
X419685Y185372D01*
X419704Y185317D01*
X419724Y185261D01*
X419743Y185205D01*
X419763Y185149D01*
X419783Y185093D01*
X419803Y185037D01*
X419822Y184982D01*
X419842Y184926D01*
X419862Y184870D01*
X419881Y184814D01*
X419901Y184758D01*
X419918Y184711D01*
X419935Y184663D01*
X419952Y184615D01*
X419969Y184567D01*
X419986Y184520D01*
X420004Y184472D01*
X420021Y184424D01*
X420038Y184376D01*
X420055Y184328D01*
X420072Y184281D01*
X420089Y184233D01*
X420107Y184185D01*
X420124Y184138D01*
X420141Y184090D01*
X420158Y184042D01*
X420175Y183994D01*
X420190Y183955D01*
X420204Y183915D01*
X420219Y183875D01*
X420233Y183835D01*
X420247Y183796D01*
X420262Y183756D01*
X420276Y183716D01*
X420291Y183677D01*
X420305Y183637D01*
X420334Y183557D01*
X420349Y183518D01*
X420378Y183438D01*
X420407Y183359D01*
X420436Y183279D01*
X420450Y183240D01*
X420465Y183200D01*
X420477Y183168D01*
X420488Y183136D01*
X420500Y183105D01*
X420512Y183073D01*
X420523Y183041D01*
X420547Y182978D01*
X420558Y182946D01*
X420570Y182914D01*
X420582Y182883D01*
X420594Y182851D01*
X420617Y182787D01*
X420629Y182756D01*
X420641Y182724D01*
X420652Y182692D01*
X420664Y182660D01*
X420687Y182597D01*
X420699Y182565D01*
X420723Y182502D01*
X420746Y182439D01*
X420758Y182407D01*
X420767Y182383D01*
X420776Y182359D01*
X420785Y182335D01*
X420793Y182312D01*
X420802Y182288D01*
X420811Y182264D01*
X420829Y182217D01*
X420838Y182193D01*
X420847Y182169D01*
X420855Y182145D01*
X420864Y182121D01*
X420891Y182050D01*
X420900Y182026D01*
X420908Y182003D01*
X420926Y181955D01*
X420935Y181931D01*
X420944Y181907D01*
X420953Y181884D01*
X420962Y181860D01*
X420971Y181836D01*
X420979Y181812D01*
X420988Y181789D01*
X420997Y181765D01*
X421006Y181741D01*
X421024Y181694D01*
X421033Y181670D01*
X421042Y181646D01*
X421051Y181622D01*
X421068Y181575D01*
X421074Y181559D01*
X421086Y181527D01*
X421092Y181511D01*
X421098Y181496D01*
X421110Y181464D01*
X421116Y181448D01*
X421122Y181432D01*
X421128Y181416D01*
X421146Y181369D01*
X421151Y181353D01*
X421163Y181321D01*
X421169Y181306D01*
X421175Y181290D01*
X421181Y181274D01*
X421187Y181258D01*
X421193Y181242D01*
X421199Y181226D01*
X421205Y181211D01*
X421211Y181195D01*
X421214Y181187D01*
X421228Y181150D01*
X421240Y181119D01*
X421251Y181088D01*
X421263Y181057D01*
X421275Y181026D01*
X421310Y180933D01*
X421321Y180902D01*
X421333Y180871D01*
X421345Y180840D01*
X421356Y180809D01*
X421368Y180778D01*
X421380Y180747D01*
X421392Y180717D01*
X421404Y180686D01*
X421427Y180624D01*
X421439Y180593D01*
X421448Y180568D01*
X421458Y180544D01*
X421467Y180519D01*
X421496Y180445D01*
X421505Y180420D01*
X421515Y180395D01*
X421533Y180346D01*
X421543Y180321D01*
X421562Y180272D01*
X421571Y180247D01*
X421600Y180173D01*
X421609Y180148D01*
X421619Y180124D01*
X421629Y180099D01*
X421648Y180050D01*
X421657Y180025D01*
X421667Y180000D01*
X421676Y179976D01*
X421683Y179957D01*
X421691Y179939D01*
X421698Y179920D01*
X421705Y179902D01*
X421719Y179865D01*
X421726Y179846D01*
X421734Y179828D01*
X421755Y179772D01*
X421762Y179754D01*
X421769Y179735D01*
X421777Y179717D01*
X421791Y179680D01*
X421798Y179661D01*
X421805Y179643D01*
X421813Y179624D01*
X421849Y179532D01*
X421856Y179513D01*
X421863Y179495D01*
X421870Y179476D01*
X421877Y179458D01*
X421885Y179439D01*
X421892Y179421D01*
X421899Y179402D01*
X421906Y179384D01*
X421913Y179365D01*
X421918Y179353D01*
X421928Y179328D01*
X421933Y179316D01*
X421938Y179304D01*
X421942Y179291D01*
X421947Y179279D01*
X421952Y179267D01*
X421957Y179254D01*
X421967Y179230D01*
X421971Y179218D01*
X422000Y179144D01*
X422005Y179131D01*
X422010Y179119D01*
X422015Y179107D01*
X422019Y179094D01*
X422024Y179082D01*
X422029Y179070D01*
X422039Y179045D01*
X422044Y179033D01*
X422053Y179008D01*
X422058Y178996D01*
X422063Y178983D01*
X422068Y178971D01*
X422073Y178959D01*
X422077Y178946D01*
X422087Y178922D01*
X422097Y178897D01*
X422102Y178885D01*
X422106Y178873D01*
X422111Y178860D01*
X422116Y178848D01*
X422121Y178836D01*
X422126Y178823D01*
X422131Y178811D01*
X422135Y178799D01*
X422140Y178786D01*
X422145Y178774D01*
X422150Y178762D01*
X422152Y178756D01*
X422157Y178743D01*
X422160Y178737D01*
X422164Y178725D01*
X422167Y178719D01*
X422169Y178712D01*
X422172Y178706D01*
X422174Y178700D01*
X422177Y178694D01*
X422179Y178688D01*
X422181Y178682D01*
X422184Y178676D01*
X422186Y178669D01*
X422191Y178657D01*
X422193Y178651D01*
X422196Y178645D01*
X422198Y178639D01*
X422201Y178632D01*
X422203Y178626D01*
X422205Y178620D01*
X422208Y178614D01*
X422210Y178608D01*
X422215Y178596D01*
X422218Y178589D01*
X422220Y178583D01*
X422223Y178577D01*
X422225Y178571D01*
X422227Y178565D01*
X422232Y178552D01*
X422235Y178546D01*
X422237Y178540D01*
X422239Y178534D01*
X422242Y178528D01*
X422244Y178522D01*
X422249Y178509D01*
X422252Y178503D01*
X422254Y178497D01*
X422256Y178491D01*
X422259Y178485D01*
X422261Y178479D01*
X422264Y178472D01*
X422266Y178466D01*
X422271Y178454D01*
X422273Y178448D01*
X422276Y178442D01*
X422278Y178436D01*
X422281Y178429D01*
X422283Y178423D01*
X422285Y178417D01*
X422288Y178411D01*
X422290Y178405D01*
X422293Y178399D01*
X422295Y178392D01*
X422297Y178386D01*
X422300Y178380D01*
X422302Y178374D01*
X422305Y178368D01*
X422307Y178362D01*
X422310Y178356D01*
X422312Y178349D01*
X422314Y178343D01*
X422317Y178337D01*
X422319Y178331D01*
X422322Y178325D01*
X422324Y178319D01*
X422327Y178312D01*
X422329Y178306D01*
X422331Y178300D01*
X422334Y178294D01*
X422336Y178288D01*
X422339Y178282D01*
X422341Y178276D01*
X422343Y178269D01*
X422346Y178263D01*
X422348Y178257D01*
X422351Y178251D01*
X422353Y178245D01*
X422356Y178239D01*
X422358Y178232D01*
X422360Y178226D01*
X422363Y178220D01*
X422365Y178214D01*
X422368Y178208D01*
X422370Y178202D01*
X422372Y178196D01*
X422375Y178189D01*
X422377Y178183D01*
X422380Y178177D01*
X422382Y178171D01*
X422385Y178165D01*
X422387Y178158D01*
X422392Y178146D01*
X422394Y178140D01*
X422397Y178134D01*
X422399Y178128D01*
X422402Y178122D01*
X422404Y178115D01*
X422406Y178109D01*
X422409Y178103D01*
X422411Y178097D01*
X422414Y178091D01*
X422416Y178085D01*
X422418Y178078D01*
X422421Y178072D01*
X422423Y178066D01*
X422426Y178060D01*
X422428Y178054D01*
X422431Y178048D01*
X422433Y178042D01*
X422436Y178035D01*
X422438Y178029D01*
X422440Y178023D01*
X422443Y178017D01*
X422445Y178011D01*
X422448Y178005D01*
X422450Y177998D01*
X422452Y177992D01*
X422455Y177986D01*
X422457Y177980D01*
X422460Y177974D01*
X422462Y177968D01*
X422465Y177962D01*
X422467Y177955D01*
X422469Y177949D01*
X422472Y177943D01*
X422474Y177937D01*
X422477Y177931D01*
X422479Y177925D01*
X422481Y177919D01*
X422486Y177906D01*
X422489Y177900D01*
X422491Y177894D01*
X422494Y177888D01*
X422496Y177882D01*
X422498Y177875D01*
X422501Y177869D01*
X422503Y177863D01*
X422506Y177857D01*
X422508Y177851D01*
X422510Y177845D01*
X422513Y177839D01*
X422518Y177826D01*
X422520Y177820D01*
X422523Y177814D01*
X422525Y177808D01*
X422528Y177802D01*
X422530Y177795D01*
X422532Y177789D01*
X422535Y177783D01*
X422540Y177771D01*
X422542Y177765D01*
X422544Y177758D01*
X422547Y177752D01*
X422549Y177746D01*
X422552Y177740D01*
X422556Y177728D01*
X422559Y177722D01*
X422561Y177715D01*
X422564Y177709D01*
X422566Y177703D01*
X422569Y177697D01*
X422573Y177685D01*
X422576Y177678D01*
X422578Y177672D01*
X422581Y177666D01*
X422585Y177654D01*
X422588Y177648D01*
X422590Y177641D01*
X422593Y177635D01*
X422598Y177623D01*
X422600Y177617D01*
X422603Y177611D01*
X422605Y177604D01*
X422607Y177598D01*
X422610Y177592D01*
X422612Y177586D01*
X422615Y177580D01*
X422617Y177574D01*
X422619Y177568D01*
X422624Y177555D01*
X422627Y177549D01*
X422629Y177543D01*
X422632Y177537D01*
X422634Y177531D01*
X422639Y177518D01*
X422644Y177506D01*
X422648Y177494D01*
X422653Y177481D01*
X422658Y177469D01*
X422663Y177457D01*
X422668Y177445D01*
X422673Y177432D01*
X422677Y177420D01*
X422682Y177408D01*
X422687Y177395D01*
X422697Y177371D01*
X422706Y177346D01*
X422711Y177334D01*
X422716Y177321D01*
X422721Y177309D01*
X422726Y177297D01*
X422730Y177284D01*
X422735Y177272D01*
X422740Y177260D01*
X422745Y177247D01*
X422750Y177235D01*
X422755Y177223D01*
X422759Y177210D01*
X422764Y177198D01*
X422769Y177186D01*
X422774Y177173D01*
X422779Y177161D01*
X422784Y177149D01*
X422813Y177075D01*
X422817Y177063D01*
X422827Y177038D01*
X422832Y177026D01*
X422837Y177013D01*
X422841Y177001D01*
X422851Y176976D01*
X422856Y176964D01*
X422870Y176927D01*
X422875Y176915D01*
X422882Y176896D01*
X422890Y176878D01*
X422897Y176859D01*
X422904Y176841D01*
X422911Y176822D01*
X422918Y176804D01*
X422926Y176785D01*
X422933Y176767D01*
X422962Y176693D01*
X422969Y176674D01*
X422976Y176656D01*
X422990Y176619D01*
X422998Y176601D01*
X423005Y176582D01*
X423012Y176564D01*
X423019Y176545D01*
X423034Y176508D01*
X423041Y176489D01*
X423048Y176471D01*
X423069Y176416D01*
X423076Y176397D01*
X423084Y176379D01*
X423091Y176360D01*
X423098Y176341D01*
X423105Y176323D01*
X423112Y176304D01*
X423119Y176286D01*
X423129Y176261D01*
X423158Y176187D01*
X423167Y176163D01*
X423177Y176138D01*
X423196Y176089D01*
X423205Y176064D01*
X423215Y176039D01*
X423224Y176014D01*
X423234Y175990D01*
X423243Y175965D01*
X423253Y175940D01*
X423262Y175916D01*
X423281Y175866D01*
X423290Y175842D01*
X423300Y175817D01*
X423328Y175743D01*
X423338Y175718D01*
X423357Y175669D01*
X423368Y175638D01*
X423380Y175607D01*
X423392Y175576D01*
X423404Y175545D01*
X423416Y175514D01*
X423427Y175483D01*
X423439Y175452D01*
X423451Y175421D01*
X423474Y175359D01*
X423486Y175329D01*
X423497Y175297D01*
X423521Y175236D01*
X423532Y175205D01*
X423544Y175174D01*
X423556Y175143D01*
X423567Y175112D01*
X423579Y175081D01*
X423591Y175050D01*
X423602Y175019D01*
X423604Y175015D01*
X423605Y175012D01*
X423606Y175009D01*
X423609Y175000D01*
X423610Y174997D01*
X423611Y174994D01*
X423615Y174985D01*
X423616Y174982D01*
X423617Y174979D01*
X423618Y174976D01*
X423619Y174973D01*
X423621Y174969D01*
X423622Y174966D01*
X423623Y174962D01*
X423626Y174954D01*
X423629Y174947D01*
X423630Y174943D01*
X423631Y174939D01*
X423633Y174935D01*
X423636Y174928D01*
X423637Y174924D01*
X423642Y174909D01*
X423644Y174905D01*
X423646Y174898D01*
X423648Y174894D01*
X423649Y174889D01*
X423652Y174880D01*
X423654Y174876D01*
X423656Y174871D01*
X423657Y174866D01*
X423659Y174862D01*
X423660Y174857D01*
X423662Y174853D01*
X423663Y174848D01*
X423665Y174844D01*
X423666Y174839D01*
X423668Y174835D01*
X423669Y174830D01*
X423671Y174825D01*
X423672Y174821D01*
X423674Y174816D01*
X423676Y174811D01*
X423677Y174806D01*
X423679Y174800D01*
X423681Y174795D01*
X423683Y174790D01*
X423684Y174784D01*
X423686Y174779D01*
X423688Y174774D01*
X423689Y174768D01*
X423691Y174763D01*
X423693Y174758D01*
X423694Y174752D01*
X423696Y174747D01*
X423698Y174741D01*
X423699Y174736D01*
X423701Y174730D01*
X423703Y174724D01*
X423705Y174718D01*
X423707Y174712D01*
X423709Y174705D01*
X423710Y174699D01*
X423712Y174693D01*
X423714Y174687D01*
X423716Y174681D01*
X423717Y174675D01*
X423719Y174669D01*
X423721Y174662D01*
X423723Y174655D01*
X423725Y174648D01*
X423727Y174641D01*
X423729Y174635D01*
X423731Y174627D01*
X423732Y174621D01*
X423734Y174614D01*
X423736Y174607D01*
X423738Y174600D01*
X423739Y174593D01*
X423741Y174585D01*
X423743Y174577D01*
X423745Y174569D01*
X423747Y174562D01*
X423749Y174554D01*
X423751Y174546D01*
X423753Y174538D01*
X423755Y174530D01*
X423757Y174522D01*
X423758Y174513D01*
X423760Y174504D01*
X423762Y174496D01*
X423764Y174487D01*
X423766Y174479D01*
X423768Y174470D01*
X423770Y174460D01*
X423771Y174451D01*
X423773Y174442D01*
X423775Y174432D01*
X423777Y174423D01*
X423778Y174412D01*
X423780Y174402D01*
X423782Y174392D01*
X423784Y174381D01*
X423785Y174370D01*
X423787Y174359D01*
X423789Y174348D01*
X423790Y174337D01*
X423792Y174325D01*
X423794Y174313D01*
X423795Y174300D01*
X423797Y174287D01*
X423798Y174275D01*
X423800Y174261D01*
X423801Y174246D01*
X423801Y174244D01*
X423802Y174241D01*
X423802Y174239D01*
X423802Y174236D01*
X423802Y174232D01*
X423803Y174229D01*
X423803Y174226D01*
X423803Y174224D01*
X423803Y174221D01*
X423803Y174218D01*
X423803Y174216D01*
X423803Y174213D01*
X423804Y174211D01*
X423804Y174208D01*
X423804Y174205D01*
X423804Y174202D01*
X423804Y174199D01*
X423804Y174197D01*
X423804Y174194D01*
X423804Y174191D01*
X423804Y174188D01*
X423804Y174185D01*
X423804Y174182D01*
X423804Y174179D01*
X423804Y174176D01*
X423804Y174173D01*
X423804Y174169D01*
X423804Y174166D01*
X423804Y174163D01*
X423803Y174159D01*
X423803Y174156D01*
X423803Y174152D01*
X423803Y174149D01*
X423802Y174145D01*
X423802Y174141D01*
X423802Y174138D01*
X423801Y174134D01*
X423801Y174130D01*
X423800Y174126D01*
X423800Y174121D01*
X423799Y174117D01*
X423798Y174112D01*
X423798Y174107D01*
X423797Y174102D01*
X423796Y174096D01*
X423795Y174091D01*
X423793Y174084D01*
X423793Y174084D01*
X423793Y174083D01*
X423792Y174081D01*
X423792Y174079D01*
X423792Y174077D01*
X423791Y174076D01*
X423791Y174075D01*
X423791Y174073D01*
X423790Y174071D01*
X423789Y174069D01*
X423789Y174068D01*
X423789Y174066D01*
X423788Y174064D01*
X423787Y174061D01*
X423786Y174058D01*
X423786Y174057D01*
X423786D01*
X423785Y174054D01*
X423783Y174048D01*
X423781Y174042D01*
X423779Y174037D01*
X423778Y174034D01*
X423777Y174031D01*
X423775Y174025D01*
X423773Y174020D01*
X423771Y174014D01*
X423770Y174012D01*
X423680Y174012D01*
X423665Y174022D01*
X423652Y174031D01*
X423640Y174040D01*
X423629Y174049D01*
X423619Y174057D01*
X423609Y174064D01*
X423600Y174071D01*
X423591Y174078D01*
X423583Y174085D01*
X423575Y174092D01*
X423567Y174098D01*
X423560Y174104D01*
X423553Y174111D01*
X423546Y174117D01*
X423539Y174123D01*
X423533Y174129D01*
X423526Y174134D01*
X423520Y174140D01*
X423515Y174146D01*
X423509Y174151D01*
X423503Y174156D01*
X423498Y174162D01*
X423492Y174167D01*
X423487Y174172D01*
X423482Y174177D01*
X423477Y174182D01*
X423472Y174187D01*
X423467Y174192D01*
X423462Y174197D01*
X423457Y174202D01*
X423453Y174207D01*
X423448Y174212D01*
X423444Y174216D01*
X423440Y174220D01*
X423435Y174225D01*
X423431Y174229D01*
X423427Y174233D01*
X423423Y174238D01*
X423419Y174242D01*
X423415Y174247D01*
X423411Y174251D01*
X423407Y174256D01*
X423403Y174260D01*
X423400Y174264D01*
X423396Y174268D01*
X423393Y174272D01*
X423389Y174276D01*
X423386Y174279D01*
X423383Y174283D01*
X423379Y174287D01*
X423376Y174291D01*
X423373Y174295D01*
X423366Y174303D01*
X423362Y174307D01*
X423359Y174311D01*
X423356Y174315D01*
X423353Y174319D01*
X423349Y174323D01*
X423347Y174326D01*
X423344Y174329D01*
X423341Y174332D01*
X423338Y174336D01*
X423336Y174339D01*
X423333Y174343D01*
X423330Y174346D01*
X423325Y174353D01*
X423322Y174356D01*
X423319Y174359D01*
X423314Y174366D01*
X423311Y174369D01*
X423309Y174373D01*
X423306Y174376D01*
X423304Y174380D01*
X423301Y174383D01*
X423298Y174386D01*
X423295Y174390D01*
X423293Y174392D01*
X423291Y174395D01*
X423289Y174398D01*
X423287Y174400D01*
X423283Y174406D01*
X423281Y174409D01*
X423279Y174411D01*
X423277Y174414D01*
X423272Y174420D01*
X423270Y174422D01*
X423268Y174425D01*
X423266Y174428D01*
X423264Y174431D01*
X423260Y174436D01*
X423258Y174439D01*
X423250Y174450D01*
X423248Y174453D01*
X423244Y174458D01*
X423242Y174460D01*
X423240Y174462D01*
X423239Y174464D01*
X423236Y174469D01*
X423234Y174471D01*
X423233Y174473D01*
X423230Y174477D01*
X423228Y174479D01*
X423227Y174481D01*
X423225Y174483D01*
X423224Y174485D01*
X423222Y174487D01*
X423219Y174492D01*
X423217Y174494D01*
X423216Y174496D01*
X423214Y174498D01*
X423213Y174500D01*
X423211Y174502D01*
X423204Y174513D01*
X423202Y174515D01*
X423199Y174519D01*
X423198Y174521D01*
X423196Y174523D01*
X423195Y174525D01*
X423190Y174532D01*
X423189Y174533D01*
X423188Y174534D01*
X423187Y174536D01*
X423185Y174539D01*
X423184Y174540D01*
X423183Y174541D01*
X423179Y174547D01*
X423178Y174548D01*
X423176Y174551D01*
X423175Y174553D01*
X423174Y174554D01*
X423173Y174556D01*
X423172Y174557D01*
X423171Y174558D01*
X423170Y174560D01*
X423169Y174561D01*
X423168Y174563D01*
X423167Y174564D01*
X423166Y174565D01*
X423165Y174567D01*
X423164Y174570D01*
X423163Y174571D01*
X423161Y174574D01*
X423160Y174575D01*
X423159Y174577D01*
X423158Y174578D01*
X423156Y174580D01*
X423155Y174581D01*
X423154Y174582D01*
X423153Y174584D01*
X423152Y174585D01*
X423152Y174587D01*
X423150Y174589D01*
X423149Y174591D01*
X423148Y174592D01*
X423147Y174594D01*
X423145Y174597D01*
X423144Y174598D01*
X423143Y174599D01*
X423142Y174601D01*
X423141Y174602D01*
X423140Y174604D01*
X423139Y174605D01*
X423138Y174606D01*
X423137Y174608D01*
X423136Y174609D01*
X423135Y174611D01*
X423134Y174612D01*
X423133Y174613D01*
X423131Y174616D01*
X423130Y174618D01*
X423129Y174619D01*
X423128Y174621D01*
X423127Y174622D01*
X423126Y174624D01*
X423125Y174625D01*
X423124Y174626D01*
X423123Y174628D01*
X423122Y174629D01*
X423121Y174630D01*
X423119Y174633D01*
X423118Y174635D01*
X423117Y174636D01*
X423116Y174638D01*
X423114Y174641D01*
X423113Y174642D01*
X423111Y174645D01*
X423110Y174646D01*
X423108Y174649D01*
X423107Y174650D01*
X423086Y174681D01*
X423067Y174709D01*
X423050Y174734D01*
X423033Y174759D01*
X423015Y174785D01*
X422998Y174810D01*
X422981Y174836D01*
X422964Y174861D01*
X422947Y174887D01*
X422930Y174913D01*
X422915Y174936D01*
X422900Y174959D01*
X422885Y174982D01*
X422870Y175005D01*
X422855Y175028D01*
X422840Y175051D01*
X422825Y175075D01*
X422810Y175098D01*
X422795Y175121D01*
X422780Y175145D01*
X422767Y175165D01*
X422754Y175186D01*
X422741Y175207D01*
X422728Y175227D01*
X422715Y175248D01*
X422702Y175269D01*
X422689Y175290D01*
X422676Y175311D01*
X422663Y175332D01*
X422651Y175353D01*
X422638Y175373D01*
X422627Y175392D01*
X422615Y175410D01*
X422604Y175428D01*
X422593Y175447D01*
X422582Y175465D01*
X422571Y175484D01*
X422560Y175502D01*
X422549Y175520D01*
X422538Y175539D01*
X422527Y175557D01*
X422516Y175576D01*
X422505Y175594D01*
X422494Y175612D01*
X422483Y175631D01*
X422474Y175647D01*
X422465Y175663D01*
X422455Y175679D01*
X422437Y175710D01*
X422427Y175726D01*
X422418Y175742D01*
X422409Y175758D01*
X422400Y175774D01*
X422390Y175790D01*
X422381Y175806D01*
X422372Y175821D01*
X422363Y175837D01*
X422353Y175853D01*
X422344Y175869D01*
X422335Y175885D01*
X422326Y175901D01*
X422318Y175915D01*
X422311Y175928D01*
X422303Y175941D01*
X422296Y175954D01*
X422288Y175968D01*
X422280Y175981D01*
X422273Y175994D01*
X422265Y176008D01*
X422250Y176034D01*
X422243Y176048D01*
X422235Y176061D01*
X422228Y176074D01*
X422220Y176088D01*
X422213Y176101D01*
X422197Y176128D01*
X422190Y176141D01*
X422183Y176155D01*
X422177Y176165D01*
X422171Y176176D01*
X422165Y176187D01*
X422159Y176197D01*
X422153Y176208D01*
X422147Y176219D01*
X422141Y176230D01*
X422135Y176240D01*
X422117Y176272D01*
X422111Y176283D01*
X422105Y176294D01*
X422099Y176305D01*
X422087Y176326D01*
X422081Y176337D01*
X422076Y176347D01*
X422070Y176358D01*
X422064Y176369D01*
X422052Y176391D01*
X422034Y176423D01*
X422030Y176431D01*
X422025Y176439D01*
X422021Y176447D01*
X422016Y176455D01*
X422012Y176463D01*
X422008Y176471D01*
X421999Y176487D01*
X421994Y176495D01*
X421990Y176503D01*
X421986Y176512D01*
X421981Y176520D01*
X421972Y176536D01*
X421968Y176544D01*
X421964Y176552D01*
X421959Y176560D01*
X421955Y176568D01*
X421942Y176592D01*
X421937Y176600D01*
X421933Y176609D01*
X421928Y176617D01*
X421924Y176625D01*
X421920Y176633D01*
X421907Y176657D01*
X421902Y176665D01*
X421898Y176673D01*
X421893Y176681D01*
X421889Y176689D01*
X421885Y176697D01*
X421882Y176703D01*
X421879Y176708D01*
X421876Y176714D01*
X421873Y176719D01*
X421870Y176724D01*
X421867Y176730D01*
X421864Y176735D01*
X421861Y176741D01*
X421858Y176746D01*
X421855Y176751D01*
X421847Y176768D01*
X421844Y176773D01*
X421841Y176778D01*
X421832Y176795D01*
X421829Y176800D01*
X421824Y176811D01*
X421821Y176816D01*
X421818Y176822D01*
X421812Y176832D01*
X421809Y176838D01*
X421806Y176843D01*
X421803Y176849D01*
X421795Y176865D01*
X421792Y176870D01*
X421789Y176876D01*
X421783Y176886D01*
X421780Y176892D01*
X421771Y176908D01*
X421768Y176913D01*
X421766Y176919D01*
X421763Y176924D01*
X421760Y176930D01*
X421757Y176935D01*
X421754Y176940D01*
X421751Y176946D01*
X421748Y176951D01*
X421745Y176957D01*
X421742Y176962D01*
X421741Y176965D01*
X421736Y176973D01*
X421735Y176976D01*
X421732Y176981D01*
X421731Y176984D01*
X421729Y176986D01*
X421728Y176989D01*
X421726Y176992D01*
X421725Y176995D01*
X421724Y176997D01*
X421722Y177000D01*
X421721Y177003D01*
X421719Y177005D01*
X421718Y177008D01*
X421716Y177011D01*
X421715Y177013D01*
X421713Y177016D01*
X421712Y177019D01*
X421710Y177022D01*
X421709Y177024D01*
X421708Y177027D01*
X421706Y177030D01*
X421705Y177032D01*
X421703Y177035D01*
X421702Y177038D01*
X421700Y177040D01*
X421699Y177043D01*
X421698Y177046D01*
X421696Y177049D01*
X421695Y177051D01*
X421693Y177054D01*
X421692Y177057D01*
X421690Y177059D01*
X421689Y177062D01*
X421687Y177065D01*
X421684Y177070D01*
X421683Y177073D01*
X421681Y177076D01*
X421680Y177078D01*
X421679Y177081D01*
X421677Y177084D01*
X421676Y177086D01*
X421674Y177089D01*
X421673Y177092D01*
X421671Y177094D01*
X421670Y177097D01*
X421668Y177100D01*
X421667Y177103D01*
X421666Y177105D01*
X421664Y177108D01*
X421663Y177111D01*
X421661Y177113D01*
X421660Y177116D01*
X421657Y177121D01*
X421656Y177124D01*
X421654Y177127D01*
X421653Y177130D01*
X421651Y177132D01*
X421650Y177135D01*
X421648Y177138D01*
X421647Y177140D01*
X421645Y177143D01*
X421644Y177146D01*
X421642Y177149D01*
X421641Y177151D01*
X421640Y177154D01*
X421638Y177157D01*
X421637Y177159D01*
X421635Y177162D01*
X421634Y177165D01*
X421632Y177167D01*
X421631Y177170D01*
X421629Y177173D01*
X421628Y177176D01*
X421627Y177178D01*
X421625Y177181D01*
X421624Y177184D01*
X421622Y177186D01*
X421621Y177189D01*
X421619Y177192D01*
X421618Y177194D01*
X421617Y177197D01*
X421615Y177200D01*
X421614Y177203D01*
X421612Y177205D01*
X421611Y177208D01*
X421609Y177211D01*
X421608Y177214D01*
X421606Y177216D01*
X421605Y177219D01*
X421603Y177222D01*
X421602Y177224D01*
X421601Y177227D01*
X421599Y177230D01*
X421598Y177232D01*
X421596Y177235D01*
X421595Y177238D01*
X421593Y177241D01*
X421592Y177243D01*
X421591Y177246D01*
X421589Y177249D01*
X421588Y177251D01*
X421586Y177254D01*
X421585Y177257D01*
X421583Y177259D01*
X421582Y177262D01*
X421580Y177265D01*
X421579Y177268D01*
X421578Y177270D01*
X421576Y177273D01*
X421575Y177276D01*
X421573Y177278D01*
X421572Y177281D01*
X421570Y177284D01*
X421569Y177287D01*
X421567Y177289D01*
X421566Y177292D01*
X421564Y177295D01*
X421563Y177297D01*
X421082Y178212D01*
X420642Y179072D01*
X420233Y179895D01*
X419849Y180687D01*
X419490Y181450D01*
X419149Y182189D01*
X418828Y182906D01*
X418520Y183609D01*
X418225Y184297D01*
X417943Y184970D01*
X417674Y185627D01*
X417571Y185882D01*
X417547Y185942D01*
X417526Y185995D01*
X417505Y186048D01*
X417483Y186102D01*
X417459Y186161D01*
X417436Y186221D01*
X417412Y186281D01*
X417388Y186341D01*
X417365Y186401D01*
X417341Y186461D01*
X417317Y186521D01*
X417294Y186580D01*
X417271Y186640D01*
X417247Y186700D01*
X417224Y186760D01*
X417198Y186827D01*
X417172Y186894D01*
X417146Y186960D01*
X417120Y187027D01*
X417095Y187094D01*
X417069Y187160D01*
X417043Y187227D01*
X417018Y187294D01*
X416993Y187361D01*
X416967Y187428D01*
X416939Y187501D01*
X416912Y187575D01*
X416884Y187648D01*
X416856Y187722D01*
X416829Y187795D01*
X416802Y187869D01*
X416774Y187943D01*
X416747Y188017D01*
X416720Y188090D01*
X416690Y188171D01*
X416661Y188251D01*
X416631Y188332D01*
X416602Y188413D01*
X416573Y188493D01*
X416544Y188574D01*
X416515Y188655D01*
X416486Y188735D01*
X416458Y188816D01*
X416427Y188904D01*
X416396Y188991D01*
X416365Y189079D01*
X416334Y189167D01*
X416304Y189254D01*
X416274Y189342D01*
X416244Y189430D01*
X416211Y189525D01*
X416179Y189619D01*
X416147Y189714D01*
X416115Y189809D01*
X416084Y189904D01*
X416052Y189999D01*
X416019Y190101D01*
X415985Y190202D01*
X415952Y190304D01*
X415919Y190406D01*
X415887Y190508D01*
X415854Y190611D01*
X415820Y190720D01*
X415786Y190829D01*
X415752Y190938D01*
X415718Y191047D01*
X415685Y191157D01*
X415651Y191266D01*
X415617Y191382D01*
X415582Y191499D01*
X415547Y191615D01*
X415513Y191732D01*
X415478Y191856D01*
X415442Y191980D01*
X415407Y192104D01*
X415372Y192228D01*
X415336Y192359D01*
X415300Y192490D01*
X415265Y192621D01*
X415259Y192642D01*
X415254Y192660D01*
X415250Y192676D01*
X415246Y192691D01*
X415242Y192707D01*
X415230Y192753D01*
X415225Y192771D01*
X415220Y192790D01*
X415215Y192808D01*
X415210Y192826D01*
X415205Y192845D01*
X415201Y192864D01*
X415196Y192882D01*
X415191Y192901D01*
X415186Y192919D01*
X415181Y192938D01*
X415172Y192974D01*
X415167Y192993D01*
X415162Y193011D01*
X415158Y193030D01*
X415148Y193067D01*
X415143Y193089D01*
X415137Y193110D01*
X415132Y193132D01*
X415127Y193153D01*
X415121Y193175D01*
X415116Y193197D01*
X415110Y193218D01*
X415105Y193240D01*
X415100Y193262D01*
X415094Y193283D01*
X415089Y193305D01*
X415084Y193326D01*
X415078Y193348D01*
X415073Y193370D01*
X415068Y193391D01*
X415062Y193416D01*
X415056Y193441D01*
X415050Y193466D01*
X415044Y193490D01*
X415038Y193515D01*
X415033Y193540D01*
X415027Y193565D01*
X415021Y193589D01*
X415015Y193614D01*
X415010Y193639D01*
X415004Y193664D01*
X414998Y193689D01*
X414992Y193717D01*
X414986Y193745D01*
X414980Y193772D01*
X414973Y193800D01*
X414967Y193828D01*
X414961Y193856D01*
X414955Y193884D01*
X414949Y193912D01*
X414943Y193940D01*
X414937Y193968D01*
X414931Y193996D01*
X414925Y194024D01*
X414918Y194055D01*
X414912Y194087D01*
X414906Y194118D01*
X414899Y194149D01*
X414893Y194180D01*
X414887Y194211D01*
X414880Y194242D01*
X414874Y194273D01*
X414868Y194305D01*
X414862Y194339D01*
X414855Y194373D01*
X414849Y194408D01*
X414842Y194442D01*
X414836Y194476D01*
X414829Y194511D01*
X414823Y194545D01*
X414817Y194580D01*
X414811Y194614D01*
X414805Y194652D01*
X414798Y194689D01*
X414792Y194727D01*
X414785Y194765D01*
X414779Y194802D01*
X414773Y194840D01*
X414767Y194878D01*
X414761Y194919D01*
X414754Y194959D01*
X414748Y195000D01*
X414742Y195041D01*
X414736Y195082D01*
X414731Y195123D01*
X414724Y195167D01*
X414718Y195211D01*
X414713Y195255D01*
X414707Y195300D01*
X414701Y195344D01*
X414696Y195391D01*
X414690Y195439D01*
X414684Y195486D01*
X414679Y195534D01*
X414674Y195584D01*
X414669Y195635D01*
X414663Y195686D01*
X414659Y195737D01*
X414656Y195762D01*
X414650Y195830D01*
X414646Y195892D01*
X414642Y195952D01*
X414639Y196009D01*
X414636Y196065D01*
X414634Y196118D01*
X414632Y196169D01*
X414631Y196220D01*
X414630Y196269D01*
X414630Y196316D01*
Y196316D01*
X414630Y196322D01*
X414630Y196333D01*
X414630Y196345D01*
X414630Y196357D01*
X414630Y196362D01*
X414630Y196407D01*
X414631Y196452D01*
X414631Y196496D01*
X414632Y196539D01*
X414634Y196581D01*
X414635Y196622D01*
X414637Y196662D01*
X414638Y196702D01*
X414640Y196740D01*
X414642Y196779D01*
X414645Y196817D01*
X414647Y196855D01*
X414650Y196891D01*
X414653Y196927D01*
X414655Y196963D01*
X414658Y196999D01*
X414662Y197035D01*
X414665Y197069D01*
X414668Y197103D01*
X414672Y197136D01*
X414675Y197170D01*
X414679Y197204D01*
X414682Y197236D01*
X414686Y197268D01*
X414690Y197299D01*
X414694Y197331D01*
X414698Y197363D01*
X414702Y197394D01*
X414706Y197424D01*
X414710Y197453D01*
X414714Y197483D01*
X414718Y197513D01*
X414723Y197542D01*
X414727Y197572D01*
X414732Y197601D01*
X414737Y197631D01*
X414741Y197658D01*
X414745Y197686D01*
X414750Y197713D01*
X414754Y197740D01*
X414759Y197768D01*
X414764Y197795D01*
X414769Y197822D01*
X414774Y197850D01*
X414778Y197875D01*
X414779Y197881D01*
X414801Y197996D01*
X414821Y198101D01*
X414841Y198199D01*
X414862Y198298D01*
X414882Y198391D01*
X414903Y198484D01*
X414923Y198572D01*
X414943Y198659D01*
X414963Y198741D01*
X414984Y198823D01*
X415004Y198905D01*
X415024Y198982D01*
X415044Y199059D01*
X415065Y199135D01*
X415084Y199206D01*
X415104Y199277D01*
X415124Y199348D01*
X415144Y199419D01*
X415164Y199485D01*
X415183Y199550D01*
X415203Y199616D01*
X415223Y199681D01*
X415243Y199747D01*
X415262Y199807D01*
X415281Y199867D01*
X415300Y199928D01*
X415320Y199988D01*
X415339Y200048D01*
X415359Y200108D01*
X415379Y200167D01*
X415398Y200222D01*
X415416Y200277D01*
X415435Y200332D01*
X415454Y200387D01*
X415474Y200441D01*
X415493Y200496D01*
X415512Y200550D01*
X415530Y200600D01*
X415548Y200649D01*
X415566Y200699D01*
X415585Y200748D01*
X415603Y200797D01*
X415621Y200847D01*
X415640Y200896D01*
X415659Y200945D01*
X415677Y200994D01*
X415694Y201039D01*
X415711Y201083D01*
X415729Y201127D01*
X415746Y201171D01*
X415763Y201215D01*
X415781Y201259D01*
X415798Y201303D01*
X415816Y201347D01*
X415834Y201391D01*
X415851Y201435D01*
X415869Y201479D01*
X415885Y201518D01*
X415901Y201557D01*
X415917Y201596D01*
X415934Y201635D01*
X415950Y201674D01*
X415966Y201713D01*
X415982Y201752D01*
X415999Y201791D01*
X416015Y201830D01*
X416032Y201869D01*
X416048Y201907D01*
X416065Y201946D01*
X416081Y201985D01*
X416096Y202019D01*
X416111Y202053D01*
X416126Y202087D01*
X416140Y202121D01*
X416155Y202154D01*
X416170Y202188D01*
X416185Y202222D01*
X416200Y202256D01*
X416215Y202290D01*
X416230Y202324D01*
X416245Y202357D01*
X416260Y202391D01*
X416275Y202425D01*
X416290Y202459D01*
X416305Y202492D01*
X416319Y202521D01*
X416332Y202550D01*
X416345Y202579D01*
X416358Y202608D01*
X416371Y202637D01*
X416384Y202666D01*
X416397Y202695D01*
X416411Y202723D01*
X416424Y202752D01*
X416437Y202781D01*
X416451Y202810D01*
X416464Y202838D01*
X416475Y202863D01*
X416544Y203010D01*
X416610Y203150D01*
X416677Y203290D01*
X416741Y203423D01*
X416805Y203555D01*
X416870Y203688D01*
X416933Y203813D01*
X416995Y203938D01*
X417059Y204063D01*
X417122Y204188D01*
X417183Y204306D01*
X417244Y204423D01*
X417305Y204541D01*
X417363Y204652D01*
X417422Y204762D01*
X417481Y204873D01*
X417540Y204983D01*
X417599Y205093D01*
X417656Y205197D01*
X417712Y205300D01*
X417769Y205403D01*
X417826Y205506D01*
X417884Y205609D01*
X417938Y205705D01*
X417992Y205801D01*
X418047Y205897D01*
X418101Y205993D01*
X418156Y206089D01*
X418211Y206185D01*
X418263Y206274D01*
X418315Y206363D01*
X418367Y206452D01*
X418419Y206541D01*
X418471Y206629D01*
X418524Y206718D01*
X418573Y206800D01*
X418622Y206882D01*
X418671Y206964D01*
X418721Y207046D01*
X418770Y207128D01*
X418820Y207210D01*
X418870Y207292D01*
X418920Y207373D01*
X418966Y207449D01*
X419012Y207524D01*
X419059Y207599D01*
X419105Y207674D01*
X419152Y207749D01*
X419199Y207824D01*
X419246Y207899D01*
X419293Y207974D01*
X419336Y208043D01*
X419380Y208111D01*
X419423Y208179D01*
X419466Y208248D01*
X419510Y208316D01*
X419554Y208384D01*
X419597Y208453D01*
X419641Y208521D01*
X419685Y208589D01*
X419725Y208651D01*
X419765Y208713D01*
X419806Y208775D01*
X419846Y208837D01*
X419886Y208898D01*
X419926Y208960D01*
X419967Y209022D01*
X420007Y209083D01*
X420048Y209145D01*
X420088Y209207D01*
X420121Y209256D01*
X420127Y209265D01*
X420132Y209272D01*
X420140Y209285D01*
X420145Y209292D01*
X420158Y209311D01*
X420162Y209318D01*
X420166Y209324D01*
X420170Y209331D01*
X420183Y209350D01*
X420188Y209357D01*
X420194Y209366D01*
X420201Y209376D01*
X420207Y209386D01*
X420214Y209396D01*
X420227Y209415D01*
X420233Y209425D01*
X420239Y209435D01*
X420246Y209445D01*
X420253Y209454D01*
X420259Y209464D01*
X420265Y209474D01*
X420272Y209484D01*
X420304Y209532D01*
X420311Y209542D01*
X420317Y209552D01*
X420330Y209571D01*
X420337Y209581D01*
X420356Y209610D01*
X420369Y209630D01*
X420376Y209640D01*
X420382Y209649D01*
X420389Y209659D01*
X420396Y209669D01*
X420408Y209688D01*
X420426Y209714D01*
X420443Y209740D01*
X420452Y209753D01*
X420478Y209792D01*
X420504Y209831D01*
X420513Y209844D01*
X420531Y209870D01*
X420548Y209895D01*
X420557Y209908D01*
X420565Y209921D01*
X420574Y209934D01*
X420583Y209947D01*
X420592Y209960D01*
X420601Y209973D01*
X420609Y209986D01*
X420618Y209999D01*
X420627Y210012D01*
X420638Y210028D01*
X420660Y210060D01*
X420671Y210076D01*
X420682Y210092D01*
X420704Y210125D01*
X420715Y210141D01*
X420737Y210173D01*
X420748Y210189D01*
X420770Y210221D01*
X420792Y210253D01*
X420814Y210285D01*
X420825Y210301D01*
X420836Y210317D01*
X420848Y210334D01*
X420861Y210353D01*
X420874Y210372D01*
X420888Y210391D01*
X420901Y210410D01*
X420914Y210430D01*
X420928Y210449D01*
X420941Y210468D01*
X420968Y210506D01*
X420981Y210526D01*
X420995Y210545D01*
X421008Y210564D01*
X421022Y210583D01*
X421035Y210602D01*
X421049Y210621D01*
X421062Y210640D01*
X421076Y210660D01*
X421092Y210682D01*
X421107Y210704D01*
X421123Y210726D01*
X421139Y210749D01*
X421155Y210771D01*
X421171Y210793D01*
X421187Y210815D01*
X421203Y210837D01*
X421218Y210859D01*
X421235Y210882D01*
X421250Y210904D01*
X421267Y210926D01*
X421282Y210948D01*
X421299Y210970D01*
X421317Y210995D01*
X421335Y211020D01*
X421354Y211046D01*
X421372Y211071D01*
X421391Y211096D01*
X421409Y211121D01*
X421428Y211146D01*
X421446Y211171D01*
X421465Y211196D01*
X421484Y211221D01*
X421502Y211246D01*
X421521Y211271D01*
X421542Y211299D01*
X421563Y211328D01*
X421584Y211355D01*
X421605Y211384D01*
X421627Y211411D01*
X421648Y211439D01*
X421669Y211467D01*
X421690Y211495D01*
X421712Y211523D01*
X421733Y211551D01*
X421755Y211579D01*
X421779Y211610D01*
X421803Y211640D01*
X421827Y211671D01*
X421851Y211702D01*
X421875Y211732D01*
X421899Y211763D01*
X421923Y211794D01*
X421947Y211824D01*
X421972Y211855D01*
X421999Y211888D01*
X422026Y211922D01*
X422053Y211955D01*
X422080Y211988D01*
X422107Y212021D01*
X422134Y212055D01*
X422161Y212088D01*
X422191Y212124D01*
X422221Y212160D01*
X422251Y212196D01*
X422282Y212232D01*
X422312Y212268D01*
X422342Y212304D01*
X422375Y212342D01*
X422408Y212381D01*
X422426Y212402D01*
X422430Y212406D01*
X422434Y212410D01*
X422437Y212414D01*
X422452Y212432D01*
X422456Y212435D01*
X422459Y212439D01*
X422462Y212442D01*
X422465Y212446D01*
X422468Y212450D01*
X422476Y212459D01*
X422481Y212464D01*
X422485Y212469D01*
X422493Y212479D01*
X422498Y212483D01*
X422502Y212488D01*
X422510Y212498D01*
X422514Y212503D01*
X422519Y212507D01*
X422527Y212517D01*
X422536Y212526D01*
X422548Y212541D01*
X422557Y212550D01*
X422561Y212555D01*
X422565Y212560D01*
X422570Y212565D01*
X422574Y212569D01*
X422578Y212574D01*
X422583Y212580D01*
X422589Y212586D01*
X422594Y212592D01*
X422605Y212604D01*
X422610Y212610D01*
X422616Y212615D01*
X422621Y212621D01*
X422626Y212627D01*
X422632Y212633D01*
X422637Y212639D01*
X422643Y212645D01*
X422648Y212651D01*
X422653Y212657D01*
X422664Y212668D01*
X422675Y212680D01*
X422680Y212686D01*
X422686Y212692D01*
X422691Y212698D01*
X422704Y212711D01*
X422711Y212718D01*
X422718Y212725D01*
X422724Y212732D01*
X422731Y212739D01*
X422737Y212746D01*
X422744Y212753D01*
X422750Y212760D01*
X422757Y212767D01*
X422764Y212774D01*
X422770Y212781D01*
X422777Y212787D01*
X422784Y212794D01*
X422790Y212801D01*
X422797Y212808D01*
X422804Y212815D01*
X422811Y212823D01*
X422819Y212831D01*
X422827Y212839D01*
X422835Y212846D01*
X422843Y212854D01*
X422851Y212862D01*
X422859Y212870D01*
X422866Y212878D01*
X422874Y212886D01*
X422882Y212894D01*
X422890Y212901D01*
X422898Y212909D01*
X422906Y212917D01*
X422914Y212925D01*
X422922Y212932D01*
X422931Y212941D01*
X422941Y212950D01*
X422950Y212959D01*
X422959Y212967D01*
X422968Y212976D01*
X422978Y212985D01*
X422987Y212993D01*
X422996Y213002D01*
X423006Y213011D01*
X423015Y213019D01*
X423024Y213028D01*
X423035Y213037D01*
X423046Y213047D01*
X423056Y213056D01*
X423067Y213066D01*
X423078Y213075D01*
X423088Y213085D01*
X423099Y213094D01*
X423110Y213104D01*
X423121Y213113D01*
X423133Y213123D01*
X423145Y213134D01*
X423157Y213144D01*
X423169Y213154D01*
X423182Y213164D01*
X423194Y213174D01*
X423206Y213184D01*
X423220Y213195D01*
X423234Y213206D01*
X423247Y213217D01*
X423261Y213228D01*
X423275Y213239D01*
X423290Y213251D01*
X423305Y213262D01*
X423320Y213274D01*
X423336Y213285D01*
X423352Y213298D01*
X423369Y213310D01*
X423386Y213322D01*
X423404Y213335D01*
X423423Y213348D01*
X423441Y213361D01*
X423461Y213374D01*
X423481Y213387D01*
X423502Y213402D01*
X423524Y213416D01*
X423547Y213431D01*
X423571Y213446D01*
X423598Y213462D01*
X423605Y213466D01*
X423609Y213469D01*
X423617Y213474D01*
X423621Y213476D01*
X423625Y213479D01*
X423630Y213481D01*
X423634Y213483D01*
X423642Y213488D01*
X423646Y213491D01*
X423651Y213493D01*
X423655Y213495D01*
X423659Y213498D01*
X423663Y213500D01*
X423667Y213503D01*
X423671Y213505D01*
X423676Y213507D01*
X423680Y213509D01*
X423684Y213512D01*
X423689Y213514D01*
X423694Y213517D01*
X423699Y213520D01*
X423703Y213522D01*
X423708Y213525D01*
X423713Y213527D01*
X423718Y213530D01*
X423723Y213532D01*
X423728Y213535D01*
X423733Y213537D01*
X423737Y213540D01*
X423742Y213542D01*
X423747Y213544D01*
X423752Y213547D01*
X423758Y213549D01*
X423763Y213552D01*
X423769Y213555D01*
X423774Y213557D01*
X423780Y213560D01*
X423785Y213562D01*
X423791Y213565D01*
X423797Y213567D01*
X423802Y213570D01*
X423808Y213572D01*
X423814Y213575D01*
X423820Y213578D01*
X423827Y213580D01*
X423833Y213583D01*
X423839Y213585D01*
X423845Y213588D01*
X423852Y213591D01*
X423858Y213593D01*
X423865Y213596D01*
X423872Y213598D01*
X423879Y213601D01*
X423886Y213603D01*
X423893Y213606D01*
X423900Y213609D01*
X423908Y213611D01*
X423916Y213614D01*
X423923Y213616D01*
X423932Y213619D01*
X423940Y213621D01*
X423949Y213624D01*
X423958Y213627D01*
X423968Y213629D01*
X423977Y213632D01*
X423988Y213635D01*
X423998Y213637D01*
X424009Y213640D01*
X424021Y213643D01*
X424034Y213646D01*
X424048Y213649D01*
X424063Y213651D01*
X424080Y213654D01*
X424080Y213654D01*
X424083Y213655D01*
X424087Y213655D01*
X424092Y213656D01*
X424097Y213657D01*
X424100Y213657D01*
X424103Y213658D01*
X424109Y213659D01*
X424115Y213659D01*
X424121Y213660D01*
X424124Y213661D01*
Y213661D01*
X424129Y213661D01*
X424139Y213662D01*
X424148Y213663D01*
X424158Y213664D01*
X424163Y213664D01*
X424174Y213665D01*
X424195Y213666D01*
X424217Y213667D01*
X424238Y213667D01*
X424249Y213667D01*
D02*
G37*
G36*
X413624Y212263D02*
X413626Y212263D01*
X413626Y212263D01*
X413627Y212263D01*
X413628Y212263D01*
X413629Y212263D01*
X413630Y212263D01*
X413633Y212262D01*
X413635Y212262D01*
X413638Y212262D01*
X413640Y212262D01*
X413642Y212262D01*
X413644Y212261D01*
X413646Y212261D01*
X413647Y212261D01*
X413649Y212261D01*
X413650Y212260D01*
X413652Y212260D01*
X413653Y212260D01*
X413655Y212259D01*
X413656Y212259D01*
X413657Y212259D01*
X413658Y212259D01*
X413660Y212258D01*
X413662Y212258D01*
X413664Y212257D01*
X413666Y212257D01*
X413667Y212257D01*
X413668Y212256D01*
X413669Y212256D01*
X413671Y212256D01*
X413673Y212255D01*
X413675Y212254D01*
X413676Y212254D01*
X413678Y212253D01*
X413680Y212253D01*
X413682Y212252D01*
X413684Y212252D01*
X413685Y212251D01*
X413687Y212250D01*
X413689Y212250D01*
X413691Y212249D01*
X413693Y212249D01*
X413694Y212248D01*
X413696Y212247D01*
X413698Y212246D01*
X413699Y212246D01*
X413701Y212245D01*
X413702Y212245D01*
X413704Y212244D01*
X413705Y212244D01*
X413707Y212243D01*
X413708Y212242D01*
X413710Y212242D01*
X413713Y212240D01*
X413714Y212240D01*
X413716Y212239D01*
X413717Y212239D01*
X413751Y212223D01*
X413780Y212210D01*
X413899Y212156D01*
X413929Y212142D01*
X413958Y212129D01*
X413988Y212116D01*
X414047Y212089D01*
X414098Y212066D01*
X414124Y212054D01*
X414149Y212042D01*
X414175Y212031D01*
X414225Y212008D01*
X414251Y211996D01*
X414302Y211973D01*
X414327Y211962D01*
X414378Y211939D01*
X414403Y211927D01*
X414454Y211904D01*
X414480Y211893D01*
X414522Y211873D01*
X414543Y211864D01*
X414586Y211844D01*
X414607Y211835D01*
X414628Y211825D01*
X414649Y211816D01*
X414670Y211806D01*
X414692Y211796D01*
X414713Y211787D01*
X414734Y211777D01*
X414755Y211768D01*
X414776Y211758D01*
X414797Y211749D01*
X414819Y211739D01*
X414840Y211729D01*
X414882Y211710D01*
X414903Y211700D01*
X414920Y211693D01*
X414937Y211685D01*
X414954Y211677D01*
X414971Y211670D01*
X415005Y211654D01*
X415022Y211647D01*
X415056Y211631D01*
X415073Y211624D01*
X415090Y211616D01*
X415107Y211608D01*
X415124Y211601D01*
X415158Y211585D01*
X415175Y211578D01*
X415192Y211570D01*
X415209Y211562D01*
X415226Y211555D01*
X415260Y211539D01*
X415276Y211531D01*
X415310Y211516D01*
X415323Y211510D01*
X415336Y211505D01*
X415361Y211493D01*
X415374Y211487D01*
X415387Y211481D01*
X415399Y211476D01*
X415412Y211470D01*
X415425Y211464D01*
X415438Y211458D01*
X415450Y211453D01*
X415463Y211447D01*
X415476Y211441D01*
X415501Y211430D01*
X415514Y211424D01*
X415526Y211418D01*
X415539Y211412D01*
X415552Y211407D01*
X415565Y211401D01*
X415577Y211395D01*
X415590Y211389D01*
X415616Y211378D01*
X415628Y211372D01*
X415641Y211366D01*
X415654Y211361D01*
X415666Y211355D01*
X415679Y211349D01*
X415704Y211337D01*
X415717Y211332D01*
X415730Y211326D01*
X415743Y211320D01*
X415760Y211313D01*
X415768Y211309D01*
X415794Y211297D01*
X415802Y211293D01*
X415828Y211282D01*
X415836Y211278D01*
X415853Y211270D01*
X415861Y211266D01*
X415887Y211255D01*
X415895Y211251D01*
X415904Y211247D01*
X415912Y211243D01*
X415921Y211240D01*
X415929Y211236D01*
X415946Y211228D01*
X415955Y211224D01*
X415980Y211213D01*
X415988Y211209D01*
X416014Y211197D01*
X416022Y211193D01*
X416039Y211186D01*
X416048Y211182D01*
X416073Y211171D01*
X416082Y211167D01*
X416090Y211163D01*
X416107Y211155D01*
X416116Y211151D01*
X416141Y211140D01*
X416150Y211136D01*
X416175Y211124D01*
X416179Y211122D01*
X416205Y211111D01*
X416209Y211109D01*
X416222Y211103D01*
X416226Y211101D01*
X416239Y211096D01*
X416243Y211094D01*
X416272Y211080D01*
X416277Y211078D01*
X416306Y211065D01*
X416311Y211063D01*
X416336Y211052D01*
X416340Y211050D01*
X416345Y211048D01*
X416349Y211046D01*
X416370Y211036D01*
X416374Y211034D01*
X416404Y211021D01*
X416408Y211019D01*
X416438Y211005D01*
X416442Y211003D01*
X416463Y210994D01*
X416468Y210992D01*
X416472Y210990D01*
X416501Y210977D01*
X416506Y210975D01*
X416535Y210961D01*
X416539Y210959D01*
X416569Y210946D01*
X416573Y210944D01*
X416578Y210942D01*
X416582Y210940D01*
X416603Y210930D01*
X416607Y210929D01*
X416633Y210917D01*
X416637Y210915D01*
X416667Y210902D01*
X416671Y210900D01*
X416688Y210892D01*
X416692Y210890D01*
X416701Y210886D01*
X416705Y210884D01*
X416735Y210871D01*
X416739Y210869D01*
X416768Y210856D01*
X416773Y210854D01*
X416798Y210842D01*
X416802Y210840D01*
X416807Y210838D01*
X416811Y210837D01*
X416832Y210827D01*
X416836Y210825D01*
X416866Y210811D01*
X416870Y210810D01*
X416900Y210796D01*
X416904Y210794D01*
X416929Y210783D01*
X416934Y210781D01*
X416963Y210767D01*
X416968Y210765D01*
X416997Y210752D01*
X417002Y210750D01*
X417023Y210740D01*
X417031Y210737D01*
X417057Y210725D01*
X417065Y210721D01*
X417074Y210718D01*
X417091Y210710D01*
X417099Y210706D01*
X417125Y210694D01*
X417133Y210691D01*
X417150Y210683D01*
X417158Y210679D01*
X417184Y210667D01*
X417192Y210664D01*
X417218Y210652D01*
X417226Y210648D01*
X417243Y210641D01*
X417252Y210637D01*
X417260Y210633D01*
X417277Y210625D01*
X417285Y210622D01*
X417311Y210610D01*
X417319Y210606D01*
X417336Y210598D01*
X417345Y210595D01*
X417370Y210583D01*
X417379Y210579D01*
X417404Y210568D01*
X417413Y210564D01*
X417430Y210556D01*
X417442Y210550D01*
X417455Y210545D01*
X417468Y210539D01*
X417493Y210527D01*
X417506Y210522D01*
X417519Y210516D01*
X417531Y210510D01*
X417544Y210504D01*
X417557Y210499D01*
X417582Y210487D01*
X417595Y210481D01*
X417608Y210475D01*
X417620Y210470D01*
X417633Y210464D01*
X417646Y210458D01*
X417659Y210453D01*
X417671Y210447D01*
X417697Y210435D01*
X417709Y210430D01*
X417722Y210424D01*
X417735Y210418D01*
X417748Y210412D01*
X417760Y210406D01*
X417773Y210401D01*
X417786Y210395D01*
X417798Y210389D01*
X417811Y210383D01*
X417824Y210378D01*
X417837Y210372D01*
X417849Y210366D01*
X417862Y210360D01*
X417896Y210345D01*
X417913Y210337D01*
X417947Y210322D01*
X417955Y210318D01*
X417957Y210317D01*
X417959Y210316D01*
X417961Y210316D01*
X417962Y210315D01*
X417963Y210314D01*
X417964Y210314D01*
X417965Y210313D01*
X417966Y210313D01*
X417967Y210312D01*
X417968Y210312D01*
X417969Y210311D01*
X417970Y210311D01*
X417972Y210310D01*
X417972Y210310D01*
X417974Y210309D01*
X417975Y210309D01*
X417976Y210308D01*
X417977Y210307D01*
X417980Y210305D01*
X417981Y210305D01*
X417982Y210304D01*
X417983Y210304D01*
X417984Y210303D01*
X417985Y210302D01*
X417987Y210302D01*
X417988Y210301D01*
X417989Y210301D01*
X417990Y210300D01*
X417991Y210299D01*
X417992Y210299D01*
X417995Y210297D01*
X417996Y210296D01*
X417997Y210296D01*
X417998Y210295D01*
X417999Y210295D01*
X418000Y210294D01*
X418001Y210294D01*
X418002Y210293D01*
X418002Y210293D01*
X418003Y210292D01*
X418004Y210291D01*
X418005Y210291D01*
X418006Y210290D01*
X418007Y210290D01*
X418008Y210289D01*
X418009Y210289D01*
X418010Y210288D01*
X418011Y210288D01*
X418013Y210286D01*
X418014Y210285D01*
X418015Y210285D01*
X418016Y210284D01*
X418017Y210284D01*
X418018Y210283D01*
X418022Y210281D01*
X418023Y210280D01*
X418024Y210280D01*
X418024Y210279D01*
X418025Y210279D01*
X418026Y210278D01*
X418028Y210277D01*
X418031Y210275D01*
X418032Y210275D01*
X418033Y210274D01*
X418034Y210273D01*
X418035Y210273D01*
X418036Y210272D01*
X418038Y210271D01*
X418038Y210271D01*
X418040Y210270D01*
X418041Y210269D01*
X418043Y210268D01*
X418044Y210267D01*
X418045Y210267D01*
X418046Y210266D01*
X418047Y210266D01*
X418047Y210265D01*
X418046Y210263D01*
X418043Y210260D01*
X418042Y210259D01*
X418041Y210257D01*
X418039Y210255D01*
X418037Y210252D01*
X418037Y210251D01*
X418036Y210251D01*
X418035Y210250D01*
X418033Y210246D01*
X418032Y210246D01*
X418032Y210245D01*
X418031Y210244D01*
X418029Y210242D01*
X418029Y210241D01*
X418028Y210240D01*
X418027Y210239D01*
X418027Y210238D01*
X418024Y210235D01*
X418024Y210234D01*
X418023Y210233D01*
X418022Y210232D01*
X418020Y210228D01*
X418019Y210227D01*
X418018Y210227D01*
X418018Y210226D01*
X418015Y210223D01*
X418015Y210222D01*
X418014Y210221D01*
X418013Y210220D01*
X418012Y210217D01*
X418011Y210216D01*
X418010Y210216D01*
X418010Y210215D01*
X418009Y210214D01*
X418008Y210213D01*
X418008Y210212D01*
X418006Y210210D01*
X418006Y210209D01*
X418004Y210208D01*
X418004Y210207D01*
X418003Y210206D01*
X418001Y210203D01*
X418000Y210202D01*
X417999Y210201D01*
X417997Y210198D01*
X417996Y210197D01*
X417995Y210196D01*
X417994Y210194D01*
X417993Y210193D01*
X417993Y210192D01*
X417992Y210191D01*
X417991Y210190D01*
X417990Y210189D01*
X417989Y210188D01*
X417988Y210186D01*
X417988Y210185D01*
X417987Y210184D01*
X417984Y210181D01*
X417983Y210180D01*
X417983Y210179D01*
X417982Y210178D01*
X417981Y210177D01*
X417980Y210176D01*
X417980Y210175D01*
X417979Y210174D01*
X417978Y210173D01*
X417978Y210172D01*
X417977Y210171D01*
X417976Y210170D01*
X417975Y210169D01*
X417975Y210168D01*
X417974Y210167D01*
X417973Y210166D01*
X417972Y210165D01*
X417971Y210164D01*
X417971Y210163D01*
X417968Y210159D01*
X417967Y210158D01*
X417966Y210157D01*
X417965Y210156D01*
X417964Y210154D01*
X417962Y210151D01*
X417961Y210150D01*
X417959Y210149D01*
X417959Y210148D01*
X417958Y210147D01*
X417957Y210146D01*
X417956Y210145D01*
X417955Y210144D01*
X417955Y210143D01*
X417954Y210142D01*
X417953Y210141D01*
X417953Y210140D01*
X417952Y210139D01*
X417946Y210132D01*
X417928Y210109D01*
X417923Y210104D01*
X417909Y210087D01*
X417905Y210081D01*
X417900Y210076D01*
X417896Y210070D01*
X417893Y210066D01*
X417890Y210063D01*
X417887Y210059D01*
X417884Y210055D01*
X417880Y210051D01*
X417877Y210048D01*
X417874Y210044D01*
X417871Y210040D01*
X417868Y210036D01*
X417865Y210033D01*
X417862Y210029D01*
X417859Y210025D01*
X417856Y210021D01*
X417853Y210018D01*
X417850Y210014D01*
X417844Y210006D01*
X417841Y210003D01*
X417835Y209995D01*
X417832Y209992D01*
X417829Y209988D01*
X417826Y209984D01*
X417820Y209977D01*
X417816Y209973D01*
X417749Y209891D01*
X417746Y209887D01*
X417743Y209883D01*
X417742Y209881D01*
X417740Y209879D01*
X417739Y209877D01*
X417736Y209874D01*
X417734Y209872D01*
X417733Y209870D01*
X417731Y209868D01*
X417730Y209866D01*
X417728Y209864D01*
X417727Y209862D01*
X417725Y209861D01*
X417724Y209859D01*
X417720Y209855D01*
X417719Y209853D01*
X417716Y209849D01*
X417714Y209847D01*
X417713Y209846D01*
X417711Y209844D01*
X417708Y209840D01*
X417707Y209838D01*
X417704Y209834D01*
X417702Y209833D01*
X417699Y209829D01*
X417697Y209827D01*
X417695Y209823D01*
X417693Y209821D01*
X417691Y209820D01*
X417690Y209818D01*
X417687Y209814D01*
X417685Y209812D01*
X417682Y209808D01*
X417681Y209806D01*
X417679Y209805D01*
X417678Y209803D01*
X417676Y209801D01*
X417672Y209795D01*
X417670Y209793D01*
X417668Y209791D01*
X417667Y209790D01*
X417665Y209788D01*
X417662Y209784D01*
X417661Y209782D01*
X417659Y209780D01*
X417658Y209778D01*
X417656Y209776D01*
X417653Y209773D01*
X417652Y209771D01*
X417650Y209769D01*
X417647Y209765D01*
X417646Y209763D01*
X417643Y209760D01*
X417641Y209758D01*
X417638Y209754D01*
X417636Y209752D01*
X417633Y209749D01*
X417632Y209747D01*
X417630Y209745D01*
X417627Y209741D01*
X417626Y209739D01*
X417624Y209737D01*
X417623Y209735D01*
X417621Y209734D01*
X417617Y209728D01*
X417615Y209726D01*
X417612Y209722D01*
X417611Y209720D01*
X417607Y209717D01*
X417606Y209715D01*
X417604Y209713D01*
X417601Y209709D01*
X417600Y209707D01*
X417598Y209705D01*
X417595Y209702D01*
X417594Y209700D01*
X417591Y209696D01*
X417589Y209694D01*
X417585Y209689D01*
X417583Y209687D01*
X417582Y209685D01*
X417580Y209683D01*
X417578Y209681D01*
X417574Y209676D01*
X417572Y209674D01*
X417569Y209670D01*
X417568Y209668D01*
X417565Y209664D01*
X417563Y209663D01*
X417562Y209661D01*
X417559Y209657D01*
X417557Y209655D01*
X417556Y209653D01*
X417553Y209649D01*
X417551Y209648D01*
X417548Y209644D01*
X417546Y209642D01*
X417543Y209638D01*
X417542Y209636D01*
X417539Y209633D01*
X417537Y209631D01*
X417536Y209629D01*
X417533Y209625D01*
X417531Y209623D01*
X417530Y209622D01*
X417528Y209620D01*
X417526Y209618D01*
X417522Y209612D01*
X417520Y209610D01*
X417519Y209608D01*
X417517Y209607D01*
X417516Y209605D01*
X417513Y209601D01*
X417511Y209599D01*
X417510Y209597D01*
X417508Y209595D01*
X417507Y209593D01*
X417504Y209590D01*
X417502Y209588D01*
X417499Y209584D01*
X417497Y209582D01*
X417494Y209578D01*
X417493Y209577D01*
X417490Y209573D01*
X417488Y209571D01*
X417487Y209569D01*
X417485Y209567D01*
X417484Y209565D01*
X417481Y209562D01*
X417479Y209560D01*
X417478Y209558D01*
X417476Y209556D01*
X417475Y209554D01*
X417473Y209552D01*
X417472Y209550D01*
X417469Y209547D01*
X417467Y209545D01*
X417465Y209543D01*
X417464Y209541D01*
X417462Y209539D01*
X417461Y209537D01*
X417459Y209536D01*
X417456Y209532D01*
X417455Y209530D01*
X417453Y209528D01*
X417452Y209526D01*
X417449Y209522D01*
X417447Y209521D01*
X417446Y209519D01*
X417444Y209517D01*
X417443Y209515D01*
X417441Y209513D01*
X417438Y209509D01*
X417423Y209491D01*
X417420Y209487D01*
X417414Y209479D01*
X417411Y209476D01*
X417389Y209450D01*
X417386Y209446D01*
X417371Y209427D01*
X417368Y209423D01*
X417365Y209420D01*
X417362Y209416D01*
X417349Y209401D01*
X417346Y209397D01*
X417340Y209390D01*
X417337Y209386D01*
X417334Y209382D01*
X417331Y209378D01*
X417328Y209375D01*
X417325Y209371D01*
X417322Y209367D01*
X417319Y209363D01*
X417316Y209360D01*
X417313Y209356D01*
X417310Y209352D01*
X417307Y209349D01*
X417304Y209345D01*
X417301Y209341D01*
X417298Y209337D01*
X417295Y209333D01*
X417292Y209330D01*
X417289Y209326D01*
X417286Y209322D01*
X417281Y209317D01*
X417272Y209305D01*
X417267Y209300D01*
X417240Y209266D01*
X417235Y209260D01*
X417222Y209244D01*
X417217Y209238D01*
X417213Y209232D01*
X417208Y209227D01*
X417204Y209221D01*
X417199Y209215D01*
X417194Y209210D01*
X417190Y209204D01*
X417149Y209154D01*
X417144Y209148D01*
X417140Y209142D01*
X417135Y209137D01*
X417131Y209131D01*
X417125Y209123D01*
X417119Y209116D01*
X417113Y209108D01*
X417100Y209093D01*
X417094Y209086D01*
X417088Y209078D01*
X417070Y209056D01*
X417064Y209048D01*
X417058Y209041D01*
X417034Y209011D01*
X417022Y208996D01*
X417016Y208988D01*
X417010Y208980D01*
X416998Y208965D01*
X416986Y208950D01*
X416980Y208943D01*
X416965Y208924D01*
X416957Y208914D01*
X416950Y208905D01*
X416942Y208896D01*
X416935Y208886D01*
X416927Y208877D01*
X416920Y208867D01*
X416905Y208848D01*
X416897Y208839D01*
X416890Y208829D01*
X416882Y208820D01*
X416875Y208811D01*
X416867Y208801D01*
X416860Y208792D01*
X416837Y208763D01*
X416830Y208754D01*
X416821Y208742D01*
X416812Y208731D01*
X416794Y208708D01*
X416776Y208685D01*
X416767Y208674D01*
X416758Y208663D01*
X416749Y208651D01*
X416741Y208640D01*
X416723Y208617D01*
X416714Y208606D01*
X416705Y208594D01*
X416696Y208583D01*
X416687Y208571D01*
X416678Y208560D01*
X416668Y208546D01*
X416658Y208533D01*
X416647Y208520D01*
X416637Y208506D01*
X416627Y208493D01*
X416616Y208480D01*
X416606Y208466D01*
X416586Y208439D01*
X416575Y208426D01*
X416565Y208413D01*
X416555Y208399D01*
X416545Y208386D01*
X416534Y208372D01*
X416523Y208357D01*
X416511Y208341D01*
X416499Y208326D01*
X416488Y208311D01*
X416476Y208295D01*
X416465Y208280D01*
X416453Y208264D01*
X416446Y208255D01*
X416410Y208207D01*
X416377Y208162D01*
X416346Y208120D01*
X416315Y208078D01*
X416284Y208036D01*
X416253Y207994D01*
X416222Y207952D01*
X416192Y207909D01*
X416163Y207870D01*
X416135Y207830D01*
X416106Y207790D01*
X416078Y207751D01*
X416050Y207711D01*
X416022Y207671D01*
X415996Y207634D01*
X415970Y207597D01*
X415944Y207560D01*
X415918Y207523D01*
X415892Y207486D01*
X415866Y207448D01*
X415841Y207411D01*
X415817Y207377D01*
X415794Y207342D01*
X415770Y207308D01*
X415746Y207273D01*
X415723Y207238D01*
X415699Y207204D01*
X415676Y207169D01*
X415653Y207135D01*
X415631Y207103D01*
X415610Y207071D01*
X415589Y207039D01*
X415568Y207007D01*
X415547Y206975D01*
X415525Y206943D01*
X415504Y206911D01*
X415483Y206879D01*
X415464Y206850D01*
X415445Y206821D01*
X415426Y206792D01*
X415407Y206763D01*
X415388Y206734D01*
X415369Y206704D01*
X415350Y206675D01*
X415331Y206646D01*
X415312Y206617D01*
X415294Y206588D01*
X415276Y206561D01*
X415260Y206535D01*
X415243Y206508D01*
X415226Y206482D01*
X415209Y206456D01*
X415192Y206429D01*
X415175Y206403D01*
X415158Y206376D01*
X415142Y206350D01*
X415125Y206323D01*
X415108Y206297D01*
X415093Y206273D01*
X415078Y206250D01*
X415064Y206226D01*
X415049Y206203D01*
X415034Y206179D01*
X415019Y206155D01*
X415004Y206132D01*
X414990Y206108D01*
X414975Y206084D01*
X414960Y206061D01*
X414945Y206037D01*
X414931Y206013D01*
X414916Y205990D01*
X414903Y205969D01*
X414877Y205928D01*
X414865Y205907D01*
X414852Y205886D01*
X414839Y205865D01*
X414813Y205824D01*
X414801Y205803D01*
X414775Y205762D01*
X414762Y205741D01*
X414750Y205720D01*
X414737Y205699D01*
X414726Y205681D01*
X414715Y205663D01*
X414704Y205646D01*
X414682Y205610D01*
X414661Y205574D01*
X414650Y205556D01*
X414628Y205521D01*
X414617Y205503D01*
X414607Y205485D01*
X414596Y205467D01*
X414585Y205449D01*
X414574Y205431D01*
X414563Y205413D01*
X414554Y205399D01*
X414527Y205354D01*
X414525Y205351D01*
X414512Y205328D01*
X414499Y205307D01*
X414486Y205285D01*
X414472Y205264D01*
X414459Y205242D01*
X414445Y205220D01*
X414431Y205197D01*
X414417Y205175D01*
X414403Y205153D01*
X414388Y205130D01*
X414373Y205107D01*
X414358Y205084D01*
X414343Y205061D01*
X414327Y205037D01*
X414311Y205013D01*
X414295Y204989D01*
X414280Y204965D01*
X414263Y204941D01*
X414246Y204916D01*
X414229Y204891D01*
X414211Y204866D01*
X414194Y204841D01*
X414176Y204816D01*
X414157Y204789D01*
X414138Y204763D01*
X414119Y204736D01*
X414099Y204710D01*
X414079Y204683D01*
X414059Y204655D01*
X414038Y204628D01*
X414016Y204600D01*
X413995Y204572D01*
X413972Y204543D01*
X413949Y204514D01*
X413926Y204484D01*
X413901Y204454D01*
X413877Y204423D01*
X413868Y204413D01*
X413866Y204411D01*
X413865Y204410D01*
X413864Y204408D01*
X413863Y204407D01*
X413862Y204406D01*
X413861Y204405D01*
X413860Y204403D01*
X413858Y204401D01*
X413857Y204400D01*
X413856Y204399D01*
X413855Y204397D01*
X413854Y204396D01*
X413853Y204395D01*
X413852Y204394D01*
X413851Y204393D01*
X413850Y204391D01*
X413848Y204389D01*
X413847Y204388D01*
X413846Y204387D01*
X413845Y204385D01*
X413843Y204383D01*
X413842Y204382D01*
X413841Y204381D01*
X413840Y204380D01*
X413839Y204379D01*
X413837Y204376D01*
X413836Y204375D01*
X413835Y204374D01*
X413833Y204371D01*
X413832Y204370D01*
X413831Y204369D01*
X413830Y204368D01*
X413829Y204367D01*
X413828Y204365D01*
X413827Y204364D01*
X413826Y204363D01*
X413825Y204362D01*
X413824Y204361D01*
X413822Y204359D01*
X413822Y204358D01*
X413821Y204357D01*
X413819Y204355D01*
X413818Y204354D01*
X413817Y204353D01*
X413815Y204351D01*
X413814Y204350D01*
X413813Y204349D01*
X413811Y204347D01*
X413811Y204346D01*
X413810Y204345D01*
X413808Y204343D01*
X413807Y204342D01*
X413806Y204341D01*
X413805Y204341D01*
X413804Y204340D01*
X413804Y204339D01*
X413803Y204338D01*
X413802Y204337D01*
X413801Y204336D01*
X413800Y204335D01*
X413799Y204334D01*
X413799Y204333D01*
X413798Y204332D01*
X413797Y204331D01*
X413796Y204330D01*
X413795Y204330D01*
X413794Y204329D01*
X413793Y204327D01*
X413792Y204326D01*
X413791Y204325D01*
X413790Y204324D01*
X413789Y204324D01*
X413788Y204323D01*
X413788Y204322D01*
X413786Y204320D01*
X413785Y204319D01*
X413784Y204318D01*
X413783Y204317D01*
X413782Y204316D01*
X413779Y204314D01*
X413779Y204313D01*
X413778Y204312D01*
X413777Y204311D01*
X413776Y204311D01*
X413775Y204310D01*
X413774Y204308D01*
X413773Y204308D01*
X413772Y204307D01*
X413771Y204306D01*
X413771Y204306D01*
X413770Y204305D01*
X413769Y204304D01*
X413768Y204303D01*
X413767Y204303D01*
X413767Y204302D01*
X413765Y204300D01*
X413764Y204300D01*
X413764Y204299D01*
X413763Y204298D01*
X413761Y204297D01*
X413761Y204296D01*
X413760Y204296D01*
X413759Y204295D01*
X413758Y204294D01*
X413756Y204293D01*
X413755Y204291D01*
X413753Y204290D01*
X413752Y204289D01*
X413750Y204288D01*
X413749Y204287D01*
X413747Y204285D01*
X413746Y204284D01*
X413744Y204283D01*
X413743Y204282D01*
X413741Y204281D01*
X413740Y204280D01*
X413738Y204279D01*
X413737Y204278D01*
X413735Y204277D01*
X413734Y204276D01*
X413733Y204275D01*
X413731Y204274D01*
X413730Y204273D01*
X413728Y204272D01*
X413727Y204271D01*
X413726Y204271D01*
X413724Y204270D01*
X413723Y204269D01*
X413721Y204268D01*
X413720Y204267D01*
X413719Y204267D01*
X413717Y204266D01*
X413716Y204265D01*
X413714Y204264D01*
X413713Y204264D01*
X413712Y204263D01*
X413710Y204263D01*
X413709Y204262D01*
X413708Y204261D01*
X413706Y204261D01*
X413705Y204260D01*
X413703Y204260D01*
X413702Y204259D01*
X413701Y204259D01*
X413699Y204258D01*
X413698Y204258D01*
X413697Y204258D01*
X413696Y204257D01*
X413695Y204257D01*
X413694Y204256D01*
X413693Y204256D01*
X413691Y204256D01*
X413690Y204255D01*
X413689Y204255D01*
X413687Y204255D01*
X413686Y204255D01*
X413685Y204255D01*
X413683Y204254D01*
X413683Y204254D01*
X413683Y204254D01*
X413683Y204254D01*
X413682Y204254D01*
X413682Y204254D01*
X413682Y204254D01*
X413681Y204254D01*
X413681Y204254D01*
X413681Y204254D01*
X413680Y204254D01*
X413680Y204254D01*
X413680Y204254D01*
X413679Y204254D01*
X413679Y204254D01*
X413678Y204254D01*
X413678Y204254D01*
X413678Y204254D01*
X413677Y204254D01*
X413676Y204253D01*
X413676Y204253D01*
X413675Y204253D01*
X413673Y204253D01*
X413670Y204253D01*
X413667Y204253D01*
X413663Y204253D01*
X413661Y204254D01*
Y204254D01*
X413661Y204254D01*
X413661Y204254D01*
X413660Y204254D01*
X413660Y204254D01*
X413659Y204254D01*
X413659Y204254D01*
X413659Y204254D01*
X413658Y204254D01*
X413658Y204254D01*
X413658Y204254D01*
Y204254D01*
X413658Y204254D01*
X413657Y204254D01*
X413657Y204254D01*
X413656Y204254D01*
X413656Y204254D01*
X413655Y204255D01*
X413654Y204255D01*
X413652Y204255D01*
X413651Y204255D01*
X413650Y204256D01*
X413649Y204256D01*
X413648Y204256D01*
X413647Y204256D01*
X413646Y204257D01*
X413645Y204257D01*
X413644Y204257D01*
X413643Y204257D01*
X413642Y204258D01*
X413641Y204258D01*
X413640Y204258D01*
X413638Y204259D01*
X413637Y204259D01*
X413635Y204260D01*
X413634Y204260D01*
X413633Y204261D01*
X413631Y204262D01*
X413630Y204262D01*
X413629Y204263D01*
X413627Y204263D01*
X413626Y204264D01*
X413624Y204265D01*
X413623Y204265D01*
X413622Y204266D01*
X413620Y204267D01*
X413619Y204268D01*
X413618Y204268D01*
X413616Y204269D01*
X413615Y204270D01*
X413613Y204271D01*
X413612Y204272D01*
X413611Y204273D01*
X413609Y204274D01*
X413608Y204274D01*
X413606Y204275D01*
X413605Y204276D01*
X413603Y204277D01*
X413602Y204278D01*
X413601Y204279D01*
X413599Y204280D01*
X413598Y204281D01*
X413596Y204282D01*
X413595Y204284D01*
X413593Y204285D01*
X413592Y204286D01*
X413590Y204287D01*
X413589Y204288D01*
X413587Y204289D01*
X413586Y204291D01*
X413584Y204292D01*
X413583Y204293D01*
X413581Y204294D01*
X413580Y204296D01*
X413578Y204297D01*
X413577Y204298D01*
X413576Y204299D01*
X413575Y204300D01*
X413575Y204300D01*
X413574Y204301D01*
X413573Y204302D01*
X413572Y204303D01*
X413571Y204304D01*
X413570Y204305D01*
X413569Y204305D01*
X413568Y204306D01*
X413567Y204307D01*
X413567Y204308D01*
X413566Y204308D01*
X413565Y204309D01*
X413564Y204310D01*
X413563Y204311D01*
X413563Y204311D01*
X413562Y204312D01*
X413561Y204313D01*
X413560Y204314D01*
X413558Y204316D01*
X413557Y204317D01*
X413556Y204318D01*
X413555Y204319D01*
X413552Y204322D01*
X413551Y204323D01*
X413550Y204324D01*
X413549Y204325D01*
X413548Y204326D01*
X413546Y204328D01*
X413545Y204328D01*
X413544Y204330D01*
X413543Y204331D01*
X413542Y204332D01*
X413541Y204333D01*
X413540Y204334D01*
X413540Y204335D01*
X413538Y204337D01*
X413537Y204338D01*
X413535Y204339D01*
X413532Y204342D01*
X413532Y204343D01*
X413530Y204345D01*
X413529Y204346D01*
X413528Y204347D01*
X413527Y204348D01*
X413526Y204349D01*
X413525Y204350D01*
X413525Y204351D01*
X413523Y204353D01*
X413522Y204354D01*
X413521Y204355D01*
X413519Y204357D01*
X413517Y204359D01*
X413516Y204360D01*
X413516Y204361D01*
X413515Y204362D01*
X413514Y204363D01*
X413513Y204364D01*
X413512Y204365D01*
X413510Y204367D01*
X413508Y204370D01*
X413507Y204371D01*
X413506Y204372D01*
X413504Y204374D01*
X413503Y204375D01*
X413502Y204376D01*
X413501Y204377D01*
X413500Y204379D01*
X413499Y204380D01*
X413498Y204381D01*
X413497Y204382D01*
X413496Y204383D01*
X413496Y204384D01*
X413495Y204385D01*
X413494Y204386D01*
X413493Y204388D01*
X413492Y204389D01*
X413491Y204390D01*
X413490Y204391D01*
X413489Y204392D01*
X413488Y204394D01*
X413487Y204395D01*
X413486Y204396D01*
X413485Y204397D01*
X413484Y204398D01*
X413483Y204400D01*
X413482Y204401D01*
X413481Y204402D01*
X413480Y204403D01*
X413477Y204407D01*
X413476Y204408D01*
X413474Y204409D01*
X413456Y204432D01*
X413438Y204454D01*
X413421Y204475D01*
X413404Y204496D01*
X413387Y204517D01*
X413372Y204537D01*
X413356Y204557D01*
X413340Y204577D01*
X413324Y204597D01*
X413310Y204616D01*
X413295Y204635D01*
X413280Y204654D01*
X413266Y204674D01*
X413251Y204693D01*
X413237Y204711D01*
X413224Y204729D01*
X413210Y204748D01*
X413197Y204766D01*
X413183Y204784D01*
X413171Y204802D01*
X413158Y204819D01*
X413145Y204836D01*
X413133Y204854D01*
X413121Y204871D01*
X413109Y204887D01*
X413097Y204904D01*
X413086Y204920D01*
X413074Y204937D01*
X413062Y204953D01*
X413051Y204970D01*
X413039Y204986D01*
X413029Y205001D01*
X413018Y205017D01*
X413008Y205032D01*
X412997Y205048D01*
X412986Y205063D01*
X412976Y205079D01*
X412965Y205094D01*
X412956Y205109D01*
X412946Y205123D01*
X412936Y205138D01*
X412927Y205152D01*
X412917Y205167D01*
X412907Y205181D01*
X412898Y205196D01*
X412889Y205209D01*
X412880Y205223D01*
X412871Y205236D01*
X412862Y205250D01*
X412854Y205263D01*
X412845Y205276D01*
X412836Y205290D01*
X412827Y205303D01*
X412819Y205317D01*
X412811Y205329D01*
X412803Y205342D01*
X412795Y205354D01*
X412787Y205367D01*
X412779Y205379D01*
X412771Y205392D01*
X412763Y205404D01*
X412755Y205416D01*
X412747Y205429D01*
X412740Y205440D01*
X412726Y205463D01*
X412719Y205474D01*
X412712Y205486D01*
X412705Y205497D01*
X412701Y205503D01*
X412686Y205527D01*
X412684Y205530D01*
X412671Y205551D01*
X412670Y205554D01*
X412664Y205563D01*
X412662Y205566D01*
X412651Y205584D01*
X412649Y205587D01*
X412647Y205590D01*
X412645Y205593D01*
X412636Y205608D01*
X412634Y205611D01*
X412632Y205614D01*
X412630Y205617D01*
X412623Y205629D01*
X412621Y205632D01*
X412619Y205635D01*
X412617Y205638D01*
X412611Y205647D01*
X412610Y205650D01*
X412608Y205653D01*
X412606Y205656D01*
X412602Y205662D01*
X412600Y205665D01*
X412598Y205668D01*
X412597Y205671D01*
X412593Y205677D01*
X412591Y205680D01*
X412587Y205686D01*
X412583Y205692D01*
X412580Y205698D01*
X412576Y205704D01*
X412572Y205710D01*
X412568Y205716D01*
X412565Y205722D01*
X412561Y205728D01*
X412557Y205734D01*
X412553Y205740D01*
X412550Y205746D01*
X412546Y205752D01*
X412542Y205758D01*
X412538Y205764D01*
X412531Y205776D01*
X412527Y205783D01*
X412523Y205788D01*
X412520Y205795D01*
X412516Y205801D01*
X412505Y205819D01*
X412501Y205824D01*
X412497Y205831D01*
X412493Y205837D01*
X412475Y205867D01*
X412471Y205873D01*
X412463Y205885D01*
X412460Y205891D01*
X412456Y205897D01*
X412452Y205903D01*
X412445Y205915D01*
X412437Y205927D01*
X412433Y205933D01*
X412430Y205939D01*
X412426Y205945D01*
X412422Y205951D01*
X412418Y205957D01*
X412415Y205963D01*
X412411Y205969D01*
X412407Y205975D01*
X412403Y205981D01*
X412400Y205987D01*
X412394Y205996D01*
X412388Y206005D01*
X412383Y206014D01*
X412377Y206023D01*
X412371Y206032D01*
X412366Y206041D01*
X412360Y206050D01*
X412354Y206059D01*
X412349Y206068D01*
X412343Y206077D01*
X412332Y206095D01*
X412326Y206104D01*
X412315Y206122D01*
X412309Y206131D01*
X412304Y206140D01*
X412298Y206149D01*
X412292Y206158D01*
X412287Y206167D01*
X412275Y206185D01*
X412270Y206194D01*
X412264Y206203D01*
X412258Y206212D01*
X412236Y206248D01*
X412230Y206257D01*
X412219Y206275D01*
X412213Y206284D01*
X412205Y206296D01*
X412198Y206308D01*
X412190Y206320D01*
X412160Y206367D01*
X412152Y206380D01*
X412137Y206403D01*
X412129Y206415D01*
X412122Y206427D01*
X412114Y206439D01*
X412107Y206451D01*
X412099Y206463D01*
X412076Y206499D01*
X412069Y206511D01*
X412061Y206523D01*
X412053Y206535D01*
X412038Y206559D01*
X412031Y206571D01*
X412023Y206583D01*
X412013Y206597D01*
X411994Y206627D01*
X411985Y206642D01*
X411966Y206672D01*
X411956Y206687D01*
X411946Y206702D01*
X411937Y206717D01*
X411927Y206732D01*
X411918Y206747D01*
X411908Y206761D01*
X411898Y206776D01*
X411889Y206791D01*
X411879Y206806D01*
X411860Y206836D01*
X411850Y206851D01*
X411841Y206865D01*
X411831Y206880D01*
X411819Y206898D01*
X411808Y206916D01*
X411796Y206934D01*
X411785Y206951D01*
X411761Y206987D01*
X411750Y207005D01*
X411738Y207023D01*
X411726Y207040D01*
X411715Y207058D01*
X411691Y207094D01*
X411680Y207111D01*
X411656Y207147D01*
X411644Y207164D01*
X411632Y207182D01*
X411619Y207203D01*
X411605Y207223D01*
X411591Y207244D01*
X411578Y207265D01*
X411564Y207285D01*
X411550Y207306D01*
X411536Y207326D01*
X411522Y207347D01*
X411509Y207367D01*
X411495Y207388D01*
X411481Y207409D01*
X411467Y207429D01*
X411453Y207450D01*
X411439Y207470D01*
X411423Y207494D01*
X411407Y207517D01*
X411391Y207540D01*
X411375Y207564D01*
X411359Y207587D01*
X411343Y207611D01*
X411327Y207634D01*
X411311Y207657D01*
X411295Y207681D01*
X411279Y207704D01*
X411263Y207727D01*
X411246Y207750D01*
X411228Y207776D01*
X411210Y207803D01*
X411192Y207829D01*
X411173Y207855D01*
X411155Y207881D01*
X411136Y207907D01*
X411118Y207933D01*
X411099Y207959D01*
X411081Y207985D01*
X411062Y208011D01*
X411042Y208040D01*
X411021Y208068D01*
X411000Y208097D01*
X410980Y208126D01*
X410959Y208154D01*
X410938Y208183D01*
X410917Y208212D01*
X410896Y208240D01*
X410875Y208269D01*
X410852Y208300D01*
X410829Y208332D01*
X410805Y208363D01*
X410782Y208394D01*
X410758Y208425D01*
X410739Y208451D01*
X410726Y208468D01*
X410715Y208483D01*
X410703Y208498D01*
X410692Y208514D01*
X410680Y208529D01*
X410668Y208544D01*
X410658Y208558D01*
X410647Y208571D01*
X410637Y208585D01*
X410627Y208598D01*
X410616Y208612D01*
X410606Y208625D01*
X410595Y208638D01*
X410584Y208652D01*
X410574Y208665D01*
X410563Y208679D01*
X410553Y208692D01*
X410542Y208705D01*
X410533Y208717D01*
X410514Y208740D01*
X410505Y208752D01*
X410496Y208764D01*
X410486Y208775D01*
X410477Y208787D01*
X410468Y208798D01*
X410458Y208810D01*
X410449Y208822D01*
X410439Y208833D01*
X410430Y208845D01*
X410421Y208856D01*
X410413Y208866D01*
X410404Y208876D01*
X410396Y208886D01*
X410388Y208896D01*
X410380Y208906D01*
X410372Y208916D01*
X410364Y208926D01*
X410356Y208935D01*
X410348Y208945D01*
X410331Y208965D01*
X410323Y208975D01*
X410315Y208985D01*
X410299Y209004D01*
X410290Y209014D01*
X410282Y209024D01*
X410276Y209032D01*
X410269Y209040D01*
X410262Y209048D01*
X410255Y209056D01*
X410241Y209073D01*
X410234Y209081D01*
X410221Y209097D01*
X410214Y209105D01*
X410207Y209114D01*
X410200Y209122D01*
X410193Y209130D01*
X410186Y209138D01*
X410173Y209154D01*
X410152Y209178D01*
X410130Y209204D01*
X410124Y209211D01*
X410119Y209217D01*
X410102Y209237D01*
X410097Y209243D01*
X410091Y209250D01*
X410080Y209262D01*
X410074Y209269D01*
X410069Y209276D01*
X410063Y209282D01*
X410052Y209295D01*
X410046Y209301D01*
X410041Y209308D01*
X410035Y209314D01*
X410024Y209327D01*
X410013Y209340D01*
X410009Y209345D01*
X410001Y209354D01*
X409996Y209359D01*
X409992Y209364D01*
X409988Y209369D01*
X409984Y209374D01*
X409980Y209379D01*
X409975Y209383D01*
X409971Y209388D01*
X409954Y209407D01*
X409950Y209412D01*
X409946Y209417D01*
X409942Y209422D01*
X409938Y209427D01*
X409929Y209436D01*
X409925Y209441D01*
X409921Y209446D01*
X409917Y209451D01*
X409912Y209456D01*
X409904Y209465D01*
X409900Y209470D01*
X409896Y209475D01*
X409892Y209480D01*
X409887Y209485D01*
X409883Y209489D01*
X409875Y209499D01*
X409872Y209502D01*
X409869Y209505D01*
X409866Y209509D01*
X409863Y209512D01*
X409861Y209515D01*
X409855Y209521D01*
X409852Y209525D01*
X409849Y209528D01*
X409847Y209531D01*
X409844Y209534D01*
X409841Y209537D01*
X409838Y209541D01*
X409830Y209550D01*
X409827Y209554D01*
X409813Y209570D01*
X409810Y209573D01*
X409793Y209592D01*
X409790Y209595D01*
X409782Y209605D01*
X409779Y209608D01*
X409776Y209611D01*
X409773Y209614D01*
X409771Y209617D01*
X409765Y209624D01*
X409762Y209627D01*
X409759Y209630D01*
X409757Y209633D01*
X409751Y209640D01*
X409748Y209643D01*
X409745Y209646D01*
X409742Y209649D01*
X409740Y209653D01*
X409737Y209656D01*
X409734Y209659D01*
X409731Y209662D01*
X409730Y209664D01*
X409728Y209665D01*
X409727Y209667D01*
X409721Y209673D01*
X409720Y209675D01*
X409714Y209681D01*
X409713Y209683D01*
X409712Y209685D01*
X409707Y209689D01*
X409706Y209691D01*
X409704Y209693D01*
X409703Y209694D01*
X409702Y209696D01*
X409700Y209697D01*
X409695Y209704D01*
X409693Y209705D01*
X409689Y209710D01*
X409688Y209712D01*
X409683Y209717D01*
X409682Y209718D01*
X409678Y209723D01*
X409676Y209724D01*
X409672Y209729D01*
X409671Y209731D01*
X409669Y209733D01*
X409668Y209734D01*
X409666Y209736D01*
X409665Y209737D01*
X409662Y209740D01*
X409661Y209742D01*
X409657Y209747D01*
X409655Y209749D01*
X409652Y209752D01*
X409651Y209753D01*
X409647Y209758D01*
X409645Y209760D01*
X409643Y209763D01*
X409641Y209765D01*
X409637Y209769D01*
X409635Y209771D01*
X409633Y209774D01*
X409631Y209776D01*
X409628Y209779D01*
X409627Y209780D01*
X409623Y209785D01*
X409621Y209787D01*
X409619Y209790D01*
X409617Y209792D01*
X409614Y209795D01*
X409613Y209796D01*
X409610Y209800D01*
X409609Y209801D01*
X409605Y209806D01*
X409603Y209808D01*
X409600Y209811D01*
X409599Y209812D01*
X409597Y209814D01*
X409596Y209816D01*
X409595Y209817D01*
X409592Y209820D01*
X409590Y209822D01*
X409586Y209827D01*
X409585Y209828D01*
X409582Y209832D01*
X409581Y209833D01*
X409578Y209836D01*
X409576Y209838D01*
X409574Y209841D01*
X409572Y209843D01*
X409568Y209847D01*
X409566Y209849D01*
X409565Y209851D01*
X409564Y209852D01*
X409562Y209854D01*
X409559Y209857D01*
X409558Y209859D01*
X409555Y209862D01*
X409554Y209863D01*
X409550Y209868D01*
X409548Y209870D01*
X409545Y209873D01*
X409544Y209875D01*
X409540Y209879D01*
X409538Y209881D01*
X409535Y209884D01*
X409534Y209886D01*
X409530Y209891D01*
X409528Y209892D01*
X409525Y209895D01*
X409524Y209897D01*
X409521Y209900D01*
X409520Y209902D01*
X409518Y209903D01*
X409514Y209908D01*
X409513Y209910D01*
X409509Y209915D01*
X409507Y209916D01*
X409506Y209918D01*
X409503Y209921D01*
X409502Y209923D01*
X409497Y209927D01*
X409496Y209929D01*
X409494Y209931D01*
X409493Y209932D01*
X409492Y209934D01*
X409490Y209935D01*
X409485Y209942D01*
X409483Y209943D01*
X409479Y209948D01*
X409478Y209950D01*
X409475Y209953D01*
X409473Y209955D01*
X409472Y209956D01*
X409471Y209958D01*
X409468Y209961D01*
X409466Y209963D01*
X409464Y209966D01*
X409462Y209967D01*
X409461Y209969D01*
X409459Y209970D01*
X409455Y209975D01*
X409454Y209977D01*
X409452Y209979D01*
X409448Y209983D01*
X409445Y209986D01*
X409442Y209990D01*
X409440Y209993D01*
X409437Y209996D01*
X409434Y209999D01*
X409431Y210002D01*
X409428Y210006D01*
X409426Y210009D01*
X409423Y210012D01*
X409420Y210015D01*
X409417Y210018D01*
X409414Y210022D01*
X409411Y210025D01*
X409403Y210034D01*
X409400Y210038D01*
X409392Y210047D01*
X409389Y210051D01*
X409367Y210076D01*
X409365Y210078D01*
X409364Y210079D01*
X409363Y210080D01*
X409363Y210081D01*
X409362Y210082D01*
X409361Y210083D01*
X409360Y210084D01*
X409359Y210085D01*
X409356Y210088D01*
X409356Y210089D01*
X409355Y210090D01*
X409354Y210091D01*
X409353Y210092D01*
X409352Y210093D01*
X409351Y210093D01*
X409351Y210094D01*
X409350Y210095D01*
X409349Y210096D01*
X409348Y210097D01*
X409348Y210098D01*
X409347Y210099D01*
X409346Y210100D01*
X409345Y210102D01*
X409344Y210103D01*
X409343Y210104D01*
X409342Y210104D01*
X409342Y210105D01*
X409341Y210106D01*
X409340Y210107D01*
X409340Y210108D01*
X409339Y210108D01*
X409338Y210109D01*
X409338Y210110D01*
X409337Y210111D01*
X409336Y210112D01*
X409336Y210113D01*
X409335Y210113D01*
X409334Y210114D01*
X409334Y210115D01*
X409333Y210116D01*
X409333Y210117D01*
X409332Y210117D01*
X409331Y210118D01*
X409331Y210119D01*
X409330Y210120D01*
X409329Y210121D01*
X409329Y210121D01*
X409328Y210122D01*
X409327Y210123D01*
X409327Y210124D01*
X409326Y210125D01*
X409325Y210125D01*
X409325Y210126D01*
X409324Y210127D01*
X409323Y210128D01*
X409322Y210129D01*
X409321Y210131D01*
X409320Y210132D01*
X409319Y210133D01*
X409318Y210134D01*
X409318Y210134D01*
X409317Y210135D01*
X409316Y210136D01*
X409315Y210137D01*
X409315Y210138D01*
X409314Y210139D01*
X409313Y210140D01*
X409312Y210141D01*
X409310Y210143D01*
X409310Y210144D01*
X409309Y210145D01*
X409308Y210146D01*
X409307Y210147D01*
X409306Y210148D01*
X409304Y210150D01*
X409304Y210151D01*
X409303Y210152D01*
X409302Y210153D01*
X409301Y210154D01*
X409301Y210154D01*
X409300Y210155D01*
X409299Y210156D01*
X409298Y210157D01*
X409297Y210158D01*
X409297Y210159D01*
X409296Y210160D01*
X409292Y210164D01*
X409291Y210165D01*
X409289Y210167D01*
X409288Y210168D01*
X409287Y210169D01*
X409286Y210170D01*
X409285Y210171D01*
X409284Y210172D01*
X409283Y210173D01*
X409282Y210175D01*
X409281Y210176D01*
X409279Y210177D01*
X409278Y210178D01*
X409277Y210180D01*
X409276Y210181D01*
X409274Y210182D01*
X409273Y210183D01*
X409272Y210184D01*
X409271Y210186D01*
X409269Y210187D01*
X409269Y210188D01*
X409268Y210188D01*
X409267Y210189D01*
X409266Y210190D01*
X409265Y210191D01*
X409264Y210192D01*
X409263Y210193D01*
X409263Y210193D01*
X409262Y210194D01*
X409260Y210196D01*
X409259Y210196D01*
X409258Y210198D01*
X409257Y210199D01*
X409257Y210199D01*
X409256Y210200D01*
X409255Y210201D01*
X409254Y210202D01*
X409253Y210203D01*
X409252Y210205D01*
X409251Y210206D01*
X409250Y210207D01*
X409249Y210208D01*
X409248Y210209D01*
X409247Y210210D01*
X409246Y210211D01*
X409245Y210212D01*
X409244Y210213D01*
X409243Y210214D01*
X409243Y210215D01*
X409242Y210216D01*
X409241Y210217D01*
X409240Y210218D01*
X409239Y210219D01*
X409239Y210220D01*
X409238Y210221D01*
X409237Y210222D01*
X409237Y210223D01*
X409236Y210224D01*
X409235Y210225D01*
X409235Y210226D01*
X409234Y210227D01*
X409234Y210228D01*
X409233Y210228D01*
X409233Y210229D01*
X409232Y210230D01*
X409231Y210231D01*
X409231Y210232D01*
X409231Y210233D01*
X409230Y210234D01*
X409230Y210235D01*
X409229Y210236D01*
X409228Y210237D01*
X409228Y210239D01*
X409228Y210240D01*
X409227Y210241D01*
X409227Y210242D01*
X409226Y210243D01*
X409226Y210244D01*
X409226Y210246D01*
X409225Y210247D01*
X409225Y210248D01*
X409225Y210249D01*
X409225Y210251D01*
X409224Y210252D01*
X409224Y210253D01*
X409224Y210254D01*
X409224Y210255D01*
X409224Y210257D01*
Y210257D01*
X409224Y210257D01*
X409224Y210258D01*
X409224Y210258D01*
X409224Y210259D01*
Y210259D01*
X409224Y210259D01*
X409224Y210259D01*
X409224Y210260D01*
X409224Y210260D01*
X409224Y210260D01*
X409224Y210260D01*
X409224Y210261D01*
X409224Y210261D01*
X409224Y210262D01*
X409224Y210262D01*
X409225Y210263D01*
X409225Y210264D01*
X409225Y210265D01*
X409225Y210266D01*
X409225D01*
X409225Y210266D01*
X409225Y210266D01*
X409225Y210266D01*
X409225Y210267D01*
X409225Y210267D01*
X409226Y210269D01*
X409226Y210270D01*
X409227Y210271D01*
X409227Y210272D01*
X409228Y210273D01*
X409228Y210274D01*
X409229Y210275D01*
X409230Y210276D01*
X409230Y210278D01*
X409231Y210279D01*
X409232Y210280D01*
X409232Y210281D01*
X409233Y210282D01*
X409234Y210283D01*
X409235Y210284D01*
X409235Y210285D01*
X409236Y210286D01*
X409237Y210286D01*
X409238Y210287D01*
X409239Y210288D01*
X409240Y210289D01*
X409241Y210290D01*
X409242Y210291D01*
X409242Y210292D01*
X409243Y210292D01*
X409244Y210293D01*
X409245Y210294D01*
X409245Y210294D01*
X409246Y210295D01*
X409247Y210296D01*
X409248Y210296D01*
X409249Y210297D01*
X409250Y210298D01*
X409251Y210298D01*
X409252Y210299D01*
X409253Y210300D01*
X409254Y210300D01*
X409254Y210301D01*
X409255Y210302D01*
X409256Y210302D01*
X409257Y210303D01*
X409258Y210304D01*
X409259Y210304D01*
X409260Y210305D01*
X409263Y210306D01*
X409264Y210307D01*
X409265Y210308D01*
X409266Y210308D01*
X409267Y210309D01*
X409268Y210310D01*
X409269Y210310D01*
X409270Y210311D01*
X409272Y210311D01*
X409273Y210312D01*
X409274Y210313D01*
X409275Y210313D01*
X409276Y210314D01*
X409278Y210315D01*
X409279Y210315D01*
X409280Y210316D01*
X409281Y210317D01*
X409283Y210317D01*
X409284Y210318D01*
X409285Y210318D01*
X409287Y210319D01*
X409288Y210320D01*
X409289Y210320D01*
X409291Y210321D01*
X409292Y210321D01*
X409293Y210322D01*
X409295Y210323D01*
X409296Y210323D01*
X409398Y210369D01*
X409499Y210415D01*
X409601Y210461D01*
X409703Y210507D01*
X409805Y210553D01*
X409911Y210601D01*
X410017Y210649D01*
X410123Y210697D01*
X410229Y210745D01*
X410339Y210795D01*
X410449Y210844D01*
X410559Y210894D01*
X410670Y210944D01*
X410784Y210996D01*
X410899Y211048D01*
X411128Y211151D01*
X411246Y211205D01*
X411484Y211313D01*
X411607Y211368D01*
X411729Y211424D01*
X411852Y211480D01*
X411975Y211535D01*
X412102Y211593D01*
X412229Y211650D01*
X412357Y211708D01*
X412488Y211768D01*
X412619Y211827D01*
X412751Y211887D01*
X412886Y211948D01*
X413022Y212010D01*
X413158Y212071D01*
X413297Y212135D01*
X413437Y212198D01*
X413535Y212243D01*
X413536Y212243D01*
X413537Y212244D01*
X413538Y212244D01*
X413539Y212245D01*
X413540Y212245D01*
X413541Y212245D01*
X413542Y212246D01*
X413544Y212247D01*
X413545Y212247D01*
X413546Y212247D01*
X413547Y212248D01*
X413548Y212248D01*
X413550Y212249D01*
X413551Y212250D01*
X413553Y212250D01*
X413554Y212251D01*
X413556Y212251D01*
X413557Y212252D01*
X413558Y212252D01*
X413559Y212253D01*
X413561Y212253D01*
X413562Y212253D01*
X413563Y212254D01*
X413564Y212254D01*
X413566Y212255D01*
X413568Y212255D01*
X413570Y212256D01*
X413571Y212256D01*
X413572Y212257D01*
X413574Y212257D01*
X413575Y212257D01*
X413577Y212258D01*
X413579Y212258D01*
X413580Y212259D01*
X413582Y212259D01*
X413584Y212259D01*
X413586Y212260D01*
X413588Y212260D01*
X413589Y212260D01*
X413592Y212261D01*
X413594Y212261D01*
X413597Y212261D01*
X413600Y212262D01*
X413600Y212262D01*
X413600Y212262D01*
X413601Y212262D01*
X413602Y212262D01*
X413603Y212262D01*
X413604Y212262D01*
Y212262D01*
X413604Y212262D01*
X413606Y212262D01*
X413608Y212263D01*
X413609Y212263D01*
X413610Y212263D01*
X413612Y212263D01*
X413616Y212263D01*
X413620Y212263D01*
X413624Y212263D01*
D02*
G37*
G36*
X403009Y213630D02*
X403028Y213630D01*
X403047Y213629D01*
X403065Y213629D01*
X403086Y213628D01*
X403106Y213627D01*
X403127Y213625D01*
X403150Y213624D01*
X403172Y213622D01*
X403196Y213619D01*
X403221Y213616D01*
X403249Y213613D01*
X403278Y213609D01*
X403282Y213608D01*
X403290Y213607D01*
X403298Y213605D01*
X403307Y213604D01*
X403311Y213603D01*
X403315Y213602D01*
X403324Y213601D01*
X403334Y213599D01*
X403343Y213597D01*
X403347Y213597D01*
X403353Y213596D01*
X403363Y213593D01*
X403374Y213591D01*
X403385Y213589D01*
X403390Y213588D01*
X403397Y213586D01*
X403412Y213583D01*
X403427Y213579D01*
X403441Y213576D01*
X403448Y213574D01*
X403483Y213565D01*
X403553Y213544D01*
X403622Y213520D01*
X403690Y213493D01*
X403723Y213478D01*
X403728Y213476D01*
X403738Y213472D01*
X403749Y213467D01*
X403759Y213462D01*
X403764Y213459D01*
X403768Y213457D01*
X403777Y213453D01*
X403786Y213449D01*
X403794Y213445D01*
X403798Y213443D01*
X403802Y213441D01*
X403810Y213437D01*
X403817Y213433D01*
X403824Y213429D01*
X403828Y213427D01*
X403828Y213427D01*
X403855Y213413D01*
X403879Y213399D01*
X403903Y213386D01*
X403907Y213383D01*
X403940Y213364D01*
X403968Y213346D01*
X403993Y213330D01*
X404017Y213315D01*
X404038Y213300D01*
X404060Y213286D01*
X404080Y213272D01*
X404099Y213259D01*
X404118Y213245D01*
X404135Y213233D01*
X404152Y213220D01*
X404167Y213208D01*
X404183Y213196D01*
X404198Y213184D01*
X404212Y213174D01*
X404226Y213162D01*
X404240Y213151D01*
X404254Y213140D01*
X404267Y213130D01*
X404279Y213119D01*
X404292Y213109D01*
X404304Y213099D01*
X404316Y213088D01*
X404327Y213078D01*
X404338Y213069D01*
X404349Y213059D01*
X404360Y213050D01*
X404371Y213040D01*
X404382Y213030D01*
X404392Y213020D01*
X404402Y213012D01*
X404412Y213003D01*
X404421Y212994D01*
X404430Y212985D01*
X404440Y212976D01*
X404449Y212967D01*
X404459Y212958D01*
X404468Y212949D01*
X404477Y212941D01*
X404485Y212933D01*
X404493Y212925D01*
X404501Y212917D01*
X404509Y212909D01*
X404518Y212901D01*
X404525Y212893D01*
X404533Y212885D01*
X404541Y212877D01*
X404549Y212869D01*
X404557Y212860D01*
X404565Y212852D01*
X404573Y212844D01*
X404581Y212836D01*
X404588Y212829D01*
X404594Y212822D01*
X404601Y212815D01*
X404607Y212808D01*
X404614Y212801D01*
X404621Y212794D01*
X404627Y212787D01*
X404634Y212780D01*
X404641Y212772D01*
X404647Y212765D01*
X404654Y212758D01*
X404660Y212751D01*
X404667Y212744D01*
X404673Y212737D01*
X404680Y212729D01*
X404686Y212722D01*
X404693Y212715D01*
X404698Y212709D01*
X404709Y212697D01*
X404720Y212685D01*
X404725Y212679D01*
X404731Y212672D01*
X404736Y212666D01*
X404741Y212660D01*
X404746Y212654D01*
X404752Y212648D01*
X404757Y212642D01*
X404763Y212636D01*
X404773Y212624D01*
X404778Y212617D01*
X404784Y212611D01*
X404789Y212605D01*
X404794Y212599D01*
X404799Y212593D01*
X404805Y212587D01*
X404809Y212582D01*
X404813Y212577D01*
X404817Y212572D01*
X404821Y212567D01*
X404826Y212562D01*
X404834Y212552D01*
X404838Y212547D01*
X404846Y212537D01*
X404850Y212532D01*
X404859Y212522D01*
X404867Y212512D01*
X404871Y212507D01*
X404875Y212502D01*
X404884Y212492D01*
X404888Y212487D01*
X404896Y212477D01*
X404900Y212472D01*
X404904Y212467D01*
X404908Y212461D01*
X404912Y212456D01*
X404918Y212449D01*
X404921Y212445D01*
X404925Y212441D01*
X404928Y212438D01*
X404934Y212430D01*
X404937Y212426D01*
X404940Y212422D01*
X404946Y212415D01*
X404949Y212411D01*
X404952Y212407D01*
X404955Y212403D01*
X404958Y212400D01*
X404961Y212396D01*
X404964Y212392D01*
X404967Y212388D01*
X404970Y212384D01*
X404973Y212381D01*
X404976Y212377D01*
X404980Y212373D01*
X404983Y212369D01*
X404989Y212361D01*
X404992Y212357D01*
X404995Y212354D01*
X404998Y212350D01*
X405004Y212342D01*
X405007Y212338D01*
X405010Y212334D01*
X405013Y212331D01*
X405016Y212327D01*
X405018Y212324D01*
X405020Y212322D01*
X405030Y212309D01*
X405032Y212306D01*
X405034Y212304D01*
X405036Y212301D01*
X405040Y212296D01*
X405042Y212294D01*
X405044Y212291D01*
X405046Y212288D01*
X405048Y212286D01*
X405050Y212283D01*
X405052Y212281D01*
X405054Y212278D01*
X405056Y212276D01*
X405058Y212273D01*
X405062Y212268D01*
X405064Y212265D01*
X405066Y212263D01*
X405068Y212260D01*
X405146Y212159D01*
X405216Y212069D01*
X405285Y211978D01*
X405354Y211887D01*
X405418Y211802D01*
X405483Y211716D01*
X405547Y211629D01*
X405611Y211543D01*
X405674Y211457D01*
X405733Y211375D01*
X405792Y211294D01*
X405851Y211212D01*
X405910Y211131D01*
X405968Y211049D01*
X406022Y210972D01*
X406076Y210896D01*
X406130Y210819D01*
X406184Y210742D01*
X406237Y210665D01*
X406290Y210588D01*
X406340Y210516D01*
X406389Y210444D01*
X406438Y210372D01*
X406487Y210300D01*
X406535Y210228D01*
X406584Y210156D01*
X406629Y210089D01*
X406673Y210022D01*
X406717Y209955D01*
X406762Y209888D01*
X406806Y209821D01*
X406850Y209753D01*
X406894Y209686D01*
X406938Y209619D01*
X406978Y209557D01*
X407018Y209495D01*
X407058Y209433D01*
X407097Y209371D01*
X407137Y209309D01*
X407177Y209247D01*
X407216Y209185D01*
X407255Y209122D01*
X407291Y209066D01*
X407327Y209009D01*
X407362Y208952D01*
X407398Y208896D01*
X407433Y208839D01*
X407469Y208782D01*
X407504Y208725D01*
X407539Y208668D01*
X407574Y208611D01*
X407610Y208554D01*
X407641Y208503D01*
X407672Y208451D01*
X407704Y208400D01*
X407735Y208348D01*
X407766Y208297D01*
X407798Y208245D01*
X407829Y208193D01*
X407860Y208142D01*
X407891Y208090D01*
X407922Y208038D01*
X407953Y207987D01*
X407981Y207941D01*
X408008Y207895D01*
X408036Y207849D01*
X408063Y207803D01*
X408090Y207756D01*
X408118Y207710D01*
X408145Y207664D01*
X408172Y207618D01*
X408200Y207572D01*
X408227Y207525D01*
X408254Y207479D01*
X408281Y207433D01*
X408308Y207387D01*
X408332Y207346D01*
X408355Y207306D01*
X408379Y207265D01*
X408403Y207224D01*
X408426Y207184D01*
X408450Y207143D01*
X408473Y207103D01*
X408497Y207062D01*
X408520Y207021D01*
X408544Y206981D01*
X408567Y206940D01*
X408591Y206899D01*
X408614Y206859D01*
X408637Y206818D01*
X408661Y206777D01*
X408681Y206742D01*
X408701Y206707D01*
X408720Y206672D01*
X408731Y206655D01*
X408795Y206542D01*
X408856Y206434D01*
X408917Y206327D01*
X408977Y206219D01*
X409041Y206105D01*
X409105Y205991D01*
X409168Y205877D01*
X409231Y205764D01*
X409294Y205649D01*
X409360Y205529D01*
X409426Y205409D01*
X409492Y205288D01*
X409557Y205168D01*
X409622Y205047D01*
X409690Y204920D01*
X409758Y204793D01*
X409826Y204666D01*
X409893Y204539D01*
X409963Y204405D01*
X410033Y204272D01*
X410103Y204138D01*
X410172Y204004D01*
X410241Y203870D01*
X410313Y203729D01*
X410385Y203589D01*
X410456Y203448D01*
X410530Y203301D01*
X410603Y203154D01*
X410676Y203007D01*
X410749Y202859D01*
X410824Y202705D01*
X410899Y202551D01*
X410973Y202396D01*
X411050Y202235D01*
X411126Y202074D01*
X411202Y201913D01*
X411280Y201745D01*
X411358Y201577D01*
X411435Y201408D01*
X411515Y201234D01*
X411593Y201058D01*
X411674Y200876D01*
X411755Y200694D01*
X411823Y200537D01*
X411856Y200462D01*
X411887Y200386D01*
X411919Y200308D01*
X411951Y200226D01*
X411983Y200145D01*
X412015Y200058D01*
X412048Y199968D01*
X412080Y199876D01*
X412113Y199777D01*
X412147Y199673D01*
X412181Y199564D01*
X412215Y199446D01*
X412250Y199319D01*
X412255Y199301D01*
X412264Y199266D01*
X412273Y199231D01*
X412282Y199196D01*
X412286Y199178D01*
X412291Y199158D01*
X412301Y199118D01*
X412311Y199078D01*
X412320Y199038D01*
X412324Y199018D01*
X412324Y199018D01*
X412330Y198994D01*
X412340Y198946D01*
X412351Y198898D01*
X412360Y198850D01*
X412365Y198826D01*
X412372Y198794D01*
X412384Y198730D01*
X412396Y198666D01*
X412407Y198602D01*
X412412Y198569D01*
X412428Y198477D01*
X412454Y198291D01*
X412476Y198104D01*
X412493Y197917D01*
X412500Y197823D01*
X412500Y197823D01*
X412500Y197816D01*
X412501Y197811D01*
X412501Y197807D01*
X412504Y197768D01*
X412504Y197763D01*
X412505Y197749D01*
X412505Y197744D01*
X412506Y197729D01*
X412506Y197725D01*
X412507Y197720D01*
X412507Y197715D01*
X412507Y197710D01*
X412508Y197705D01*
X412508Y197701D01*
X412508Y197696D01*
X412509Y197691D01*
X412509Y197686D01*
X412509Y197681D01*
X412510Y197676D01*
X412510Y197669D01*
X412511Y197655D01*
X412512Y197648D01*
X412513Y197626D01*
X412514Y197619D01*
X412516Y197590D01*
X412516Y197582D01*
X412516Y197575D01*
X412517Y197568D01*
X412517Y197561D01*
X412518Y197546D01*
X412519Y197539D01*
X412520Y197525D01*
X412520Y197517D01*
X412521Y197510D01*
X412521Y197503D01*
X412522Y197488D01*
X412523Y197481D01*
X412523Y197474D01*
X412526Y197431D01*
X412527Y197421D01*
X412527Y197411D01*
X412528Y197402D01*
X412528Y197392D01*
X412531Y197353D01*
X412531Y197344D01*
X412532Y197334D01*
X412534Y197305D01*
X412534Y197296D01*
X412535Y197286D01*
X412535Y197276D01*
X412536Y197267D01*
X412536Y197257D01*
X412537Y197247D01*
X412539Y197209D01*
X412540Y197199D01*
X412542Y197165D01*
X412543Y197153D01*
X412543Y197141D01*
X412545Y197105D01*
X412546Y197093D01*
X412547Y197081D01*
X412547Y197069D01*
X412548Y197057D01*
X412549Y197045D01*
X412551Y197009D01*
X412551Y196997D01*
X412552Y196973D01*
X412553Y196960D01*
X412554Y196949D01*
X412555Y196934D01*
X412555Y196920D01*
X412556Y196905D01*
X412557Y196891D01*
X412557Y196876D01*
X412558Y196862D01*
X412559Y196847D01*
X412560Y196833D01*
X412560Y196818D01*
X412561Y196804D01*
X412562Y196789D01*
X412562Y196775D01*
X412563Y196760D01*
X412564Y196731D01*
X412565Y196717D01*
X412565Y196703D01*
X412566Y196686D01*
X412567Y196669D01*
X412568Y196652D01*
X412568Y196635D01*
X412569Y196618D01*
X412570Y196601D01*
X412570Y196584D01*
X412572Y196551D01*
X412572Y196534D01*
X412573Y196517D01*
X412573Y196500D01*
X412574Y196483D01*
X412574Y196466D01*
X412575Y196447D01*
X412576Y196428D01*
X412576Y196408D01*
X412577Y196389D01*
X412578Y196370D01*
X412578Y196351D01*
X412579Y196331D01*
X412579Y196312D01*
X412580Y196293D01*
X412580Y196273D01*
X412581Y196254D01*
X412581Y196235D01*
X412582Y196215D01*
X412582Y196194D01*
X412582Y196172D01*
X412583Y196150D01*
X412583Y196129D01*
X412584Y196107D01*
X412584Y196085D01*
X412584Y196063D01*
X412585Y196042D01*
X412585Y196020D01*
X412585Y195998D01*
X412585Y195974D01*
X412586Y195950D01*
X412586Y195926D01*
X412586Y195902D01*
X412586Y195878D01*
X412586Y195853D01*
X412586Y195829D01*
X412586Y195805D01*
X412586Y195781D01*
X412586Y195757D01*
X412586Y195730D01*
X412586Y195704D01*
X412586Y195677D01*
X412585Y195651D01*
X412585Y195624D01*
X412585Y195598D01*
X412585Y195571D01*
X412584Y195545D01*
X412584Y195516D01*
X412583Y195487D01*
X412582Y195458D01*
X412582Y195429D01*
X412581Y195412D01*
X412579Y195349D01*
X412577Y195292D01*
X412575Y195238D01*
X412572Y195183D01*
X412569Y195132D01*
X412566Y195080D01*
X412562Y195032D01*
X412559Y194983D01*
X412555Y194937D01*
X412551Y194891D01*
X412547Y194846D01*
X412542Y194802D01*
X412538Y194759D01*
X412533Y194716D01*
X412529Y194676D01*
X412524Y194636D01*
X412519Y194596D01*
X412514Y194555D01*
X412509Y194518D01*
X412504Y194480D01*
X412498Y194443D01*
X412493Y194406D01*
X412488Y194368D01*
X412482Y194333D01*
X412477Y194299D01*
X412471Y194264D01*
X412466Y194229D01*
X412460Y194195D01*
X412454Y194163D01*
X412449Y194131D01*
X412443Y194099D01*
X412438Y194067D01*
X412432Y194035D01*
X412426Y194003D01*
X412420Y193972D01*
X412414Y193942D01*
X412408Y193913D01*
X412403Y193884D01*
X412397Y193855D01*
X412391Y193826D01*
X412385Y193797D01*
X412379Y193767D01*
X412373Y193738D01*
X412367Y193709D01*
X412361Y193683D01*
X412355Y193657D01*
X412349Y193630D01*
X412344Y193604D01*
X412337Y193577D01*
X412331Y193551D01*
X412325Y193525D01*
X412319Y193498D01*
X412313Y193472D01*
X412308Y193448D01*
X412302Y193424D01*
X412296Y193401D01*
X412291Y193377D01*
X412285Y193353D01*
X412279Y193330D01*
X412273Y193306D01*
X412267Y193282D01*
X412261Y193259D01*
X412255Y193235D01*
X412249Y193212D01*
X412243Y193188D01*
X412238Y193167D01*
X412232Y193146D01*
X412227Y193125D01*
X412221Y193104D01*
X412216Y193083D01*
X412210Y193062D01*
X412205Y193041D01*
X412199Y193020D01*
X412194Y192999D01*
X412188Y192978D01*
X412182Y192957D01*
X412177Y192936D01*
X412171Y192915D01*
X412166Y192897D01*
X412161Y192879D01*
X412155Y192860D01*
X412150Y192842D01*
X412145Y192824D01*
X412140Y192806D01*
X412135Y192787D01*
X412130Y192769D01*
X412124Y192751D01*
X412049Y192490D01*
X411978Y192246D01*
X411905Y192002D01*
X411833Y191766D01*
X411760Y191531D01*
X411689Y191304D01*
X411617Y191077D01*
X411546Y190858D01*
X411475Y190640D01*
X411405Y190430D01*
X411335Y190220D01*
X411266Y190018D01*
X411197Y189817D01*
X411127Y189615D01*
X411059Y189422D01*
X410990Y189229D01*
X410920Y189036D01*
X410853Y188851D01*
X410786Y188666D01*
X410717Y188481D01*
X410651Y188305D01*
X410585Y188128D01*
X410518Y187952D01*
X410451Y187776D01*
X410385Y187608D01*
X410320Y187439D01*
X410254Y187271D01*
X410188Y187103D01*
X410124Y186943D01*
X410060Y186784D01*
X409995Y186624D01*
X409930Y186464D01*
X409868Y186312D01*
X409806Y186161D01*
X409743Y186009D01*
X409680Y185857D01*
X409616Y185706D01*
X409555Y185562D01*
X409495Y185419D01*
X409433Y185275D01*
X409372Y185132D01*
X409333Y185041D01*
X409305Y184976D01*
X409281Y184921D01*
X409253Y184856D01*
X409225Y184792D01*
X409197Y184727D01*
X409169Y184663D01*
X409141Y184598D01*
X409113Y184534D01*
X409085Y184469D01*
X409057Y184404D01*
X409028Y184340D01*
X409000Y184275D01*
X408972Y184211D01*
X408944Y184146D01*
X408916Y184082D01*
X408887Y184018D01*
X408859Y183953D01*
X408826Y183879D01*
X408794Y183806D01*
X408762Y183732D01*
X408729Y183659D01*
X408697Y183585D01*
X408664Y183511D01*
X408631Y183438D01*
X408599Y183364D01*
X408566Y183291D01*
X408533Y183217D01*
X408500Y183144D01*
X408467Y183071D01*
X408435Y182997D01*
X408398Y182914D01*
X408361Y182832D01*
X408323Y182749D01*
X408286Y182667D01*
X408249Y182585D01*
X408212Y182502D01*
X408174Y182420D01*
X408137Y182337D01*
X408099Y182255D01*
X408062Y182173D01*
X408024Y182090D01*
X407982Y181999D01*
X407940Y181907D01*
X407899Y181816D01*
X407856Y181725D01*
X407814Y181633D01*
X407772Y181542D01*
X407730Y181451D01*
X407687Y181360D01*
X407645Y181269D01*
X407602Y181178D01*
X407555Y181078D01*
X407509Y180977D01*
X407462Y180877D01*
X407414Y180778D01*
X407367Y180677D01*
X407320Y180578D01*
X407272Y180478D01*
X407225Y180378D01*
X407177Y180278D01*
X407125Y180169D01*
X407072Y180061D01*
X407020Y179952D01*
X406967Y179844D01*
X406915Y179735D01*
X406862Y179627D01*
X406809Y179518D01*
X406756Y179410D01*
X406698Y179293D01*
X406640Y179176D01*
X406582Y179059D01*
X406524Y178942D01*
X406465Y178825D01*
X406407Y178708D01*
X406348Y178591D01*
X406285Y178465D01*
X406221Y178340D01*
X406157Y178214D01*
X406093Y178089D01*
X406029Y177964D01*
X405965Y177839D01*
X405895Y177705D01*
X405826Y177571D01*
X405756Y177437D01*
X405686Y177304D01*
X405615Y177170D01*
X405545Y177037D01*
X405469Y176895D01*
X405393Y176753D01*
X405317Y176611D01*
X405240Y176469D01*
X405163Y176328D01*
X405081Y176178D01*
X404999Y176028D01*
X404975Y175984D01*
X404970Y175975D01*
X404966Y175969D01*
X404963Y175962D01*
X404955Y175949D01*
X404952Y175942D01*
X404948Y175935D01*
X404941Y175922D01*
X404937Y175915D01*
X404933Y175909D01*
X404929Y175902D01*
X404926Y175895D01*
X404921Y175887D01*
X404916Y175879D01*
X404912Y175870D01*
X404907Y175862D01*
X404903Y175854D01*
X404898Y175845D01*
X404893Y175837D01*
X404889Y175829D01*
X404884Y175821D01*
X404875Y175804D01*
X404870Y175796D01*
X404865Y175787D01*
X404856Y175771D01*
X404851Y175762D01*
X404847Y175754D01*
X404842Y175746D01*
X404833Y175729D01*
X404827Y175719D01*
X404821Y175709D01*
X404816Y175699D01*
X404804Y175679D01*
X404799Y175670D01*
X404787Y175650D01*
X404782Y175640D01*
X404770Y175620D01*
X404759Y175600D01*
X404753Y175590D01*
X404748Y175580D01*
X404742Y175570D01*
X404736Y175560D01*
X404730Y175549D01*
X404716Y175526D01*
X404703Y175503D01*
X404689Y175480D01*
X404682Y175468D01*
X404676Y175457D01*
X404669Y175445D01*
X404662Y175434D01*
X404649Y175411D01*
X404642Y175399D01*
X404635Y175388D01*
X404627Y175375D01*
X404620Y175362D01*
X404612Y175348D01*
X404604Y175335D01*
X404596Y175322D01*
X404588Y175309D01*
X404580Y175296D01*
X404573Y175283D01*
X404565Y175270D01*
X404557Y175257D01*
X404549Y175244D01*
X404541Y175231D01*
X404532Y175216D01*
X404523Y175202D01*
X404514Y175187D01*
X404505Y175172D01*
X404496Y175158D01*
X404487Y175143D01*
X404478Y175129D01*
X404469Y175114D01*
X404460Y175100D01*
X404451Y175085D01*
X404442Y175070D01*
X404432Y175054D01*
X404422Y175038D01*
X404412Y175022D01*
X404401Y175006D01*
X404391Y174990D01*
X404381Y174974D01*
X404370Y174958D01*
X404360Y174942D01*
X404350Y174926D01*
X404340Y174910D01*
X404328Y174892D01*
X404317Y174875D01*
X404305Y174857D01*
X404294Y174840D01*
X404282Y174822D01*
X404271Y174805D01*
X404259Y174787D01*
X404247Y174770D01*
X404235Y174751D01*
X404222Y174732D01*
X404209Y174713D01*
X404196Y174694D01*
X404183Y174675D01*
X404170Y174656D01*
X404157Y174637D01*
X404143Y174617D01*
X404129Y174597D01*
X404114Y174576D01*
X404100Y174556D01*
X404086Y174536D01*
X404071Y174516D01*
X404056Y174494D01*
X404040Y174472D01*
X404025Y174451D01*
X404009Y174429D01*
X403993Y174408D01*
X403976Y174385D01*
X403965Y174369D01*
X403964Y174368D01*
X403963Y174367D01*
X403962Y174366D01*
X403962Y174365D01*
X403960Y174364D01*
X403960Y174363D01*
X403959Y174362D01*
X403958Y174360D01*
X403957Y174359D01*
X403956Y174358D01*
X403954Y174355D01*
X403953Y174354D01*
X403951Y174351D01*
X403950Y174350D01*
X403948Y174347D01*
X403947Y174346D01*
X403946Y174345D01*
X403945Y174344D01*
X403944Y174343D01*
X403943Y174341D01*
X403942Y174340D01*
X403942Y174339D01*
X403941Y174338D01*
X403940Y174337D01*
X403938Y174334D01*
X403937Y174333D01*
X403936Y174332D01*
X403935Y174330D01*
X403934Y174329D01*
X403932Y174326D01*
X403929Y174323D01*
X403928Y174321D01*
X403925Y174317D01*
X403924Y174316D01*
X403922Y174314D01*
X403921Y174313D01*
X403920Y174311D01*
X403915Y174305D01*
X403914Y174304D01*
X403913Y174302D01*
X403912Y174301D01*
X403910Y174299D01*
X403909Y174298D01*
X403908Y174296D01*
X403906Y174294D01*
X403905Y174292D01*
X403903Y174291D01*
X403902Y174289D01*
X403901Y174287D01*
X403899Y174285D01*
X403898Y174284D01*
X403896Y174282D01*
X403895Y174280D01*
X403894Y174278D01*
X403892Y174277D01*
X403891Y174275D01*
X403889Y174273D01*
X403888Y174272D01*
X403886Y174270D01*
X403885Y174268D01*
X403881Y174264D01*
X403880Y174262D01*
X403878Y174260D01*
X403876Y174258D01*
X403874Y174256D01*
X403873Y174254D01*
X403871Y174252D01*
X403869Y174250D01*
X403868Y174248D01*
X403866Y174246D01*
X403864Y174244D01*
X403862Y174242D01*
X403861Y174241D01*
X403859Y174238D01*
X403857Y174236D01*
X403855Y174234D01*
X403851Y174229D01*
X403847Y174225D01*
X403845Y174223D01*
X403843Y174221D01*
X403841Y174218D01*
X403839Y174216D01*
X403837Y174214D01*
X403834Y174212D01*
X403832Y174209D01*
X403830Y174207D01*
X403827Y174205D01*
X403825Y174202D01*
X403823Y174200D01*
X403818Y174195D01*
X403816Y174193D01*
X403813Y174190D01*
X403811Y174188D01*
X403808Y174185D01*
X403805Y174182D01*
X403803Y174180D01*
X403800Y174177D01*
X403797Y174175D01*
X403794Y174172D01*
X403792Y174169D01*
X403789Y174167D01*
X403786Y174164D01*
X403783Y174161D01*
X403776Y174155D01*
X403773Y174153D01*
X403770Y174150D01*
X403766Y174147D01*
X403763Y174144D01*
X403759Y174141D01*
X403756Y174138D01*
X403752Y174135D01*
X403748Y174132D01*
X403744Y174128D01*
X403740Y174125D01*
X403736Y174122D01*
X403732Y174118D01*
X403727Y174115D01*
X403722Y174111D01*
X403718Y174108D01*
X403713Y174104D01*
X403708Y174101D01*
X403707Y174100D01*
X403705Y174098D01*
X403704Y174098D01*
X403702Y174096D01*
X403701Y174096D01*
X403698Y174094D01*
X403697Y174093D01*
X403695Y174092D01*
X403694Y174091D01*
X403692Y174090D01*
X403691Y174089D01*
X403690Y174089D01*
X403690Y174088D01*
X403689Y174087D01*
X403688Y174087D01*
X403687Y174086D01*
X403686Y174085D01*
X403684Y174085D01*
X403683Y174084D01*
X403682Y174083D01*
X403681Y174083D01*
X403679Y174082D01*
X403677Y174080D01*
X403676Y174080D01*
X403675Y174079D01*
X403673Y174078D01*
X403672Y174078D01*
X403671Y174077D01*
X403670Y174076D01*
X403667Y174075D01*
X403666Y174075D01*
X403665Y174074D01*
X403664Y174073D01*
X403663Y174073D01*
X403662Y174072D01*
X403661Y174072D01*
X403659Y174071D01*
X403658Y174071D01*
X403657Y174070D01*
X403656Y174070D01*
X403655Y174069D01*
X403654Y174069D01*
X403653Y174068D01*
X403652Y174068D01*
X403651Y174067D01*
X403650Y174067D01*
X403648Y174066D01*
X403647Y174066D01*
X403646Y174065D01*
X403645Y174065D01*
X403644Y174065D01*
X403643Y174064D01*
X403642Y174064D01*
X403640Y174063D01*
X403638Y174063D01*
X403637Y174062D01*
X403635Y174062D01*
X403634Y174061D01*
X403632Y174061D01*
X403631Y174060D01*
X403630Y174060D01*
X403629Y174060D01*
X403628Y174060D01*
X403627Y174059D01*
X403626Y174059D01*
X403625Y174059D01*
X403623Y174059D01*
X403622Y174059D01*
X403621Y174058D01*
X403619Y174058D01*
X403618Y174058D01*
X403616Y174058D01*
X403615Y174058D01*
X403614Y174057D01*
X403612Y174057D01*
X403611Y174057D01*
X403610Y174057D01*
X403608Y174057D01*
X403606D01*
X403605Y174057D01*
X403604Y174057D01*
X403602Y174057D01*
X403601Y174058D01*
X403599Y174058D01*
X403597Y174058D01*
X403596Y174058D01*
X403595Y174058D01*
X403594Y174059D01*
X403593Y174059D01*
X403592Y174059D01*
X403592Y174059D01*
X403592Y174059D01*
X403591Y174059D01*
X403591Y174059D01*
X403591Y174059D01*
X403591Y174059D01*
X403591Y174059D01*
X403590Y174059D01*
X403590Y174059D01*
X403590Y174059D01*
X403590Y174059D01*
X403589Y174060D01*
X403589Y174060D01*
X403589Y174060D01*
X403589Y174060D01*
X403588Y174060D01*
X403588Y174060D01*
X403587Y174060D01*
X403587Y174060D01*
X403587Y174060D01*
X403586Y174061D01*
X403585Y174061D01*
X403585Y174061D01*
X403584Y174061D01*
X403583Y174062D01*
X403581Y174062D01*
X403579Y174063D01*
X403577Y174064D01*
X403576Y174065D01*
Y174065D01*
X403576Y174065D01*
X403576Y174065D01*
X403575Y174065D01*
X403575Y174066D01*
X403575Y174066D01*
X403575Y174066D01*
X403574Y174066D01*
X403574Y174066D01*
X403574Y174066D01*
X403574Y174067D01*
X403574Y174067D01*
X403573Y174067D01*
X403573Y174067D01*
X403573Y174067D01*
X403573Y174067D01*
X403573Y174067D01*
X403573Y174067D01*
X403572Y174067D01*
X403572Y174068D01*
X403572Y174068D01*
X403572Y174068D01*
X403571Y174068D01*
X403570Y174069D01*
X403569Y174070D01*
X403568Y174071D01*
X403566Y174072D01*
X403565Y174073D01*
X403564Y174074D01*
X403563Y174075D01*
X403562Y174076D01*
X403561Y174077D01*
X403560Y174078D01*
X403559Y174079D01*
X403558Y174080D01*
X403557Y174081D01*
X403557Y174082D01*
X403556Y174083D01*
X403555Y174084D01*
X403554Y174085D01*
X403553Y174086D01*
X403552Y174088D01*
X403552Y174089D01*
X403551Y174090D01*
X403550Y174091D01*
X403549Y174093D01*
X403549Y174094D01*
X403548Y174095D01*
X403548Y174095D01*
X403547Y174096D01*
X403547Y174097D01*
X403546Y174098D01*
X403546Y174099D01*
X403545Y174100D01*
X403544Y174102D01*
X403544Y174103D01*
X403543Y174104D01*
X403543Y174105D01*
X403542Y174106D01*
X403542Y174108D01*
X403541Y174109D01*
X403541Y174110D01*
X403540Y174111D01*
X403540Y174112D01*
X403539Y174113D01*
X403539Y174114D01*
X403539Y174115D01*
X403538Y174116D01*
X403538Y174118D01*
X403537Y174119D01*
X403537Y174120D01*
X403537Y174121D01*
X403536Y174122D01*
X403536Y174123D01*
X403535Y174124D01*
X403535Y174126D01*
X403535Y174127D01*
X403534Y174128D01*
X403534Y174129D01*
X403534Y174130D01*
X403533Y174132D01*
X403533Y174133D01*
X403532Y174134D01*
X403532Y174135D01*
X403532Y174137D01*
X403531Y174139D01*
X403531Y174140D01*
X403531Y174141D01*
X403530Y174143D01*
X403530Y174144D01*
X403530Y174145D01*
X403529Y174146D01*
X403529Y174148D01*
X403529Y174149D01*
X403528Y174151D01*
X403528Y174152D01*
X403528Y174153D01*
X403528Y174154D01*
X403527Y174155D01*
X403527Y174157D01*
X403527Y174158D01*
X403527Y174159D01*
X403527Y174160D01*
X403526Y174161D01*
X403526Y174162D01*
X403526Y174163D01*
X403526Y174164D01*
X403526Y174165D01*
X403525Y174167D01*
X403525Y174168D01*
X403525Y174170D01*
X403525Y174171D01*
X403525Y174172D01*
X403524Y174174D01*
X403524Y174176D01*
X403524Y174177D01*
X403524Y174178D01*
X403523Y174180D01*
X403523Y174182D01*
X403523Y174183D01*
X403523Y174184D01*
X403523Y174185D01*
X403523Y174187D01*
X403522Y174188D01*
X403522Y174190D01*
X403522Y174193D01*
X403522Y174195D01*
X403522Y174196D01*
X403521Y174197D01*
X403521Y174199D01*
X403521Y174201D01*
X403521Y174203D01*
X403521Y174204D01*
X403521D01*
X403520Y174210D01*
X403520Y174216D01*
X403520Y174221D01*
X403520Y174226D01*
X403520Y174230D01*
X403520Y174235D01*
Y174235D01*
Y174236D01*
Y174237D01*
Y174238D01*
Y174239D01*
Y174239D01*
X403520Y174243D01*
X403520Y174246D01*
X403520Y174250D01*
X403520Y174253D01*
X403520Y174256D01*
X403520Y174260D01*
X403520Y174263D01*
X403521Y174266D01*
X403521Y174268D01*
X403521Y174272D01*
X403521Y174274D01*
X403521Y174277D01*
X403522Y174279D01*
X403522Y174282D01*
X403522Y174285D01*
X403522Y174287D01*
X403523Y174290D01*
X403523Y174294D01*
X403524Y174297D01*
X403524Y174299D01*
X403524Y174302D01*
X403524Y174304D01*
X403525Y174306D01*
X403525Y174308D01*
X403525Y174310D01*
X403526Y174312D01*
X403526Y174314D01*
X403526Y174316D01*
X403527Y174320D01*
X403527Y174322D01*
X403528Y174324D01*
X403528Y174326D01*
X403528Y174328D01*
X403529Y174330D01*
X403529Y174331D01*
X403529Y174333D01*
X403530Y174335D01*
X403530Y174337D01*
X403531Y174340D01*
X403531Y174342D01*
X403531Y174344D01*
X403532Y174346D01*
X403532Y174349D01*
X403533Y174351D01*
X403533Y174352D01*
X403534Y174354D01*
X403534Y174356D01*
X403535Y174358D01*
X403535Y174360D01*
X403535Y174361D01*
X403536Y174364D01*
X403536Y174366D01*
X403537Y174367D01*
X403537Y174370D01*
X403538Y174373D01*
X403538Y174374D01*
X403539Y174376D01*
X403539Y174377D01*
X403539Y174379D01*
X403540Y174380D01*
X403540Y174381D01*
X403540Y174383D01*
X403541Y174384D01*
X403541Y174385D01*
X403541Y174386D01*
X403542Y174388D01*
X403542Y174389D01*
X403542Y174390D01*
X403542Y174391D01*
X403543Y174392D01*
X403543Y174393D01*
X403543Y174394D01*
X403544Y174397D01*
X403544Y174398D01*
X403545Y174400D01*
X403545Y174401D01*
X403546Y174402D01*
X403546Y174404D01*
X403546Y174405D01*
X403546Y174406D01*
X403547Y174407D01*
X403547Y174408D01*
X403547Y174409D01*
X403548Y174410D01*
X403548Y174412D01*
X403548Y174413D01*
X403549Y174415D01*
X403549Y174416D01*
X403550Y174418D01*
X403550Y174420D01*
X403551Y174421D01*
X403552Y174425D01*
X403552Y174426D01*
X403553Y174428D01*
X403553Y174430D01*
X403554Y174432D01*
X403554Y174433D01*
X403555Y174437D01*
X403557Y174442D01*
X403557Y174443D01*
X403559Y174450D01*
X403560Y174451D01*
X403560Y174452D01*
X403560Y174453D01*
X403561Y174455D01*
X403561Y174456D01*
X403562Y174457D01*
X403562Y174458D01*
X403563Y174460D01*
X403563Y174461D01*
X403563Y174463D01*
X403565Y174468D01*
X403566Y174469D01*
X403567Y174474D01*
X403567Y174475D01*
X403568Y174476D01*
X403568Y174479D01*
X403582Y174520D01*
X403594Y174557D01*
X403606Y174595D01*
X403618Y174633D01*
X403629Y174667D01*
X403641Y174701D01*
X403652Y174735D01*
X403663Y174770D01*
X403674Y174804D01*
X403686Y174838D01*
X403697Y174872D01*
X403709Y174906D01*
X403720Y174940D01*
X403731Y174971D01*
X403741Y175002D01*
X403752Y175032D01*
X403762Y175063D01*
X403772Y175093D01*
X403783Y175124D01*
X403794Y175155D01*
X403804Y175185D01*
X403815Y175216D01*
X403826Y175246D01*
X403836Y175277D01*
X403846Y175304D01*
X403855Y175331D01*
X403865Y175358D01*
X403874Y175385D01*
X403884Y175413D01*
X403894Y175440D01*
X403903Y175467D01*
X403913Y175494D01*
X403923Y175521D01*
X403932Y175548D01*
X403942Y175575D01*
X403952Y175602D01*
X403960Y175626D01*
X403969Y175650D01*
X403978Y175673D01*
X403986Y175697D01*
X403995Y175721D01*
X404003Y175744D01*
X404012Y175768D01*
X404021Y175792D01*
X404029Y175815D01*
X404047Y175863D01*
X404064Y175910D01*
X404073Y175933D01*
X404080Y175954D01*
X404088Y175974D01*
X404103Y176014D01*
X404111Y176034D01*
X404118Y176055D01*
X404126Y176075D01*
X404141Y176115D01*
X404148Y176136D01*
X404156Y176156D01*
X404164Y176176D01*
X404171Y176196D01*
X404179Y176216D01*
X404194Y176257D01*
X404200Y176274D01*
X404207Y176290D01*
X404213Y176307D01*
X404219Y176324D01*
X404226Y176341D01*
X404232Y176358D01*
X404239Y176374D01*
X404245Y176391D01*
X404251Y176408D01*
X404258Y176425D01*
X404264Y176442D01*
X404271Y176458D01*
X404277Y176475D01*
X404284Y176492D01*
X404303Y176542D01*
X404309Y176559D01*
X404316Y176576D01*
X404322Y176593D01*
X404327Y176606D01*
X404333Y176620D01*
X404343Y176646D01*
X404348Y176660D01*
X404353Y176673D01*
X404364Y176700D01*
X404369Y176714D01*
X404374Y176727D01*
X404379Y176740D01*
X404385Y176754D01*
X404390Y176767D01*
X404395Y176781D01*
X404400Y176794D01*
X404411Y176821D01*
X404426Y176861D01*
X404431Y176874D01*
X404437Y176888D01*
X404442Y176901D01*
X404452Y176928D01*
X404456Y176938D01*
X404460Y176948D01*
X404484Y177008D01*
X404488Y177019D01*
X404492Y177029D01*
X404500Y177049D01*
X404503Y177059D01*
X404507Y177069D01*
X404511Y177079D01*
X404515Y177089D01*
X404523Y177109D01*
X404527Y177119D01*
X404531Y177129D01*
X404535Y177139D01*
X404539Y177149D01*
X404543Y177159D01*
X404551Y177179D01*
X404555Y177189D01*
X404559Y177199D01*
X404563Y177209D01*
X404571Y177229D01*
X404575Y177240D01*
X404578Y177250D01*
X404583Y177260D01*
X404588Y177273D01*
X404590Y177280D01*
X404598Y177300D01*
X404601Y177306D01*
X404609Y177327D01*
X404611Y177333D01*
X404614Y177340D01*
X404617Y177347D01*
X404625Y177367D01*
X404627Y177373D01*
X404630Y177380D01*
X404633Y177387D01*
X404638Y177400D01*
X404641Y177407D01*
X404643Y177414D01*
X404648Y177427D01*
X404651Y177434D01*
X404654Y177440D01*
X404657Y177447D01*
X404664Y177467D01*
X404667Y177474D01*
X404675Y177494D01*
X404678Y177500D01*
X404694Y177541D01*
X404696Y177547D01*
X404712Y177587D01*
X404715Y177594D01*
X404716Y177597D01*
X404717Y177601D01*
X404719Y177604D01*
X404720Y177608D01*
X404721Y177611D01*
X404723Y177614D01*
X404724Y177618D01*
X404725Y177621D01*
X404727Y177624D01*
X404728Y177628D01*
X404729Y177631D01*
X404731Y177634D01*
X404732Y177638D01*
X404733Y177641D01*
X404735Y177644D01*
X404736Y177648D01*
X404737Y177651D01*
X404739Y177654D01*
X404741Y177661D01*
X404743Y177664D01*
X404745Y177671D01*
X404747Y177674D01*
X404748Y177678D01*
X404749Y177681D01*
X404751Y177684D01*
X404752Y177688D01*
X404753Y177691D01*
X404754Y177694D01*
X404756Y177698D01*
X404757Y177701D01*
X404759Y177705D01*
X404760Y177708D01*
X404761Y177711D01*
X404763Y177715D01*
X404764Y177718D01*
X404765Y177721D01*
X404767Y177725D01*
X404768Y177728D01*
X404771Y177735D01*
X404772Y177738D01*
X404774Y177745D01*
X404776Y177748D01*
X404778Y177755D01*
X404780Y177758D01*
X404781Y177761D01*
X404782Y177765D01*
X404784Y177768D01*
X404785Y177771D01*
X404786Y177775D01*
X404788Y177778D01*
X404789Y177781D01*
X404790Y177785D01*
X404792Y177788D01*
X404794Y177795D01*
X404796Y177798D01*
X404798Y177805D01*
X404800Y177808D01*
X404801Y177812D01*
X404802Y177815D01*
X404804Y177818D01*
X404806Y177825D01*
X404808Y177828D01*
X404810Y177835D01*
X404812Y177838D01*
X404813Y177842D01*
X404814Y177845D01*
X404816Y177848D01*
X404817Y177852D01*
X404827Y177877D01*
X404834Y177894D01*
X404840Y177911D01*
X404847Y177928D01*
X404854Y177945D01*
X404861Y177962D01*
X404867Y177979D01*
X404874Y177995D01*
X404887Y178029D01*
X404894Y178046D01*
X404908Y178080D01*
X404914Y178097D01*
X404921Y178114D01*
X404928Y178131D01*
X404934Y178148D01*
X404941Y178165D01*
X404948Y178181D01*
X404954Y178198D01*
X404961Y178215D01*
X404968Y178232D01*
X404975Y178249D01*
X404981Y178266D01*
X404988Y178283D01*
X404998Y178308D01*
X405018Y178359D01*
X405028Y178384D01*
X405038Y178410D01*
X405048Y178435D01*
X405058Y178461D01*
X405068Y178486D01*
X405089Y178537D01*
X405099Y178562D01*
X405109Y178587D01*
X405119Y178613D01*
X405129Y178638D01*
X405139Y178664D01*
X405159Y178714D01*
X405169Y178740D01*
X405179Y178765D01*
X405189Y178790D01*
X405199Y178816D01*
X405229Y178892D01*
X405239Y178918D01*
X405259Y178968D01*
X405279Y179019D01*
X405289Y179044D01*
X405309Y179095D01*
X405319Y179121D01*
X405329Y179146D01*
X405342Y179180D01*
X405356Y179214D01*
X405369Y179248D01*
X405382Y179281D01*
X405396Y179315D01*
X405409Y179349D01*
X405436Y179417D01*
X405449Y179451D01*
X405462Y179485D01*
X405476Y179518D01*
X405489Y179552D01*
X405502Y179586D01*
X405515Y179620D01*
X405529Y179654D01*
X405542Y179688D01*
X405555Y179722D01*
X405569Y179756D01*
X405582Y179790D01*
X405608Y179857D01*
X405635Y179925D01*
X405648Y179959D01*
X405661Y179993D01*
X405678Y180035D01*
X405694Y180078D01*
X405711Y180120D01*
X405727Y180162D01*
X405744Y180205D01*
X405760Y180247D01*
X405777Y180290D01*
X405793Y180332D01*
X405810Y180374D01*
X405826Y180417D01*
X405843Y180459D01*
X405859Y180502D01*
X405876Y180544D01*
X405892Y180586D01*
X405909Y180629D01*
X405925Y180671D01*
X405941Y180714D01*
X405958Y180756D01*
X405974Y180798D01*
X405991Y180841D01*
X406010Y180892D01*
X406030Y180943D01*
X406050Y180994D01*
X406069Y181045D01*
X406109Y181147D01*
X406128Y181197D01*
X406148Y181248D01*
X406167Y181299D01*
X406187Y181350D01*
X406206Y181401D01*
X406226Y181452D01*
X406245Y181503D01*
X406265Y181554D01*
X406284Y181605D01*
X406304Y181656D01*
X406323Y181707D01*
X406346Y181767D01*
X406368Y181826D01*
X406391Y181886D01*
X406414Y181945D01*
X406436Y182005D01*
X406459Y182064D01*
X406481Y182124D01*
X406504Y182184D01*
X406526Y182243D01*
X406549Y182303D01*
X406571Y182362D01*
X406594Y182422D01*
X406616Y182482D01*
X406638Y182541D01*
X406664Y182609D01*
X406689Y182677D01*
X406715Y182746D01*
X406740Y182814D01*
X406766Y182882D01*
X406791Y182950D01*
X406816Y183018D01*
X406842Y183087D01*
X406867Y183155D01*
X406892Y183223D01*
X406917Y183291D01*
X406942Y183360D01*
X406967Y183428D01*
X406996Y183505D01*
X407024Y183582D01*
X407052Y183659D01*
X407080Y183736D01*
X407108Y183812D01*
X407136Y183889D01*
X407164Y183966D01*
X407192Y184043D01*
X407220Y184120D01*
X407247Y184197D01*
X407275Y184274D01*
X407306Y184360D01*
X407337Y184446D01*
X407367Y184531D01*
X407398Y184617D01*
X407428Y184703D01*
X407459Y184788D01*
X407489Y184874D01*
X407519Y184960D01*
X407550Y185046D01*
X407580Y185132D01*
X407613Y185226D01*
X407646Y185320D01*
X407679Y185415D01*
X407712Y185510D01*
X407744Y185604D01*
X407777Y185699D01*
X407810Y185793D01*
X407842Y185888D01*
X407877Y185992D01*
X407912Y186095D01*
X407948Y186198D01*
X407983Y186302D01*
X408006Y186371D01*
X408020Y186413D01*
X408032Y186448D01*
X408044Y186484D01*
X408068Y186556D01*
X408080Y186592D01*
X408092Y186628D01*
X408104Y186664D01*
X408116Y186699D01*
X408128Y186735D01*
X408140Y186771D01*
X408152Y186807D01*
X408163Y186843D01*
X408177Y186885D01*
X408191Y186927D01*
X408205Y186969D01*
X408219Y187011D01*
X408232Y187053D01*
X408246Y187095D01*
X408260Y187137D01*
X408274Y187179D01*
X408287Y187220D01*
X408301Y187262D01*
X408315Y187304D01*
X408328Y187346D01*
X408342Y187388D01*
X408355Y187430D01*
X408371Y187478D01*
X408386Y187526D01*
X408401Y187574D01*
X408417Y187622D01*
X408432Y187670D01*
X408448Y187718D01*
X408463Y187766D01*
X408478Y187814D01*
X408493Y187863D01*
X408508Y187911D01*
X408523Y187959D01*
X408538Y188007D01*
X408554Y188055D01*
X408570Y188109D01*
X408587Y188163D01*
X408604Y188217D01*
X408621Y188271D01*
X408637Y188326D01*
X408654Y188380D01*
X408671Y188434D01*
X408687Y188488D01*
X408704Y188543D01*
X408720Y188597D01*
X408737Y188651D01*
X408755Y188711D01*
X408773Y188772D01*
X408791Y188832D01*
X408809Y188892D01*
X408827Y188953D01*
X408844Y189013D01*
X408862Y189074D01*
X408880Y189134D01*
X408897Y189195D01*
X408915Y189255D01*
X408934Y189322D01*
X408953Y189388D01*
X408972Y189455D01*
X408991Y189522D01*
X409010Y189588D01*
X409029Y189655D01*
X409048Y189722D01*
X409066Y189788D01*
X409085Y189855D01*
X409105Y189928D01*
X409125Y190001D01*
X409144Y190074D01*
X409164Y190147D01*
X409184Y190220D01*
X409203Y190293D01*
X409223Y190366D01*
X409242Y190439D01*
X409262Y190518D01*
X409283Y190597D01*
X409303Y190677D01*
X409324Y190756D01*
X409344Y190835D01*
X409364Y190915D01*
X409385Y191000D01*
X409406Y191086D01*
X409427Y191172D01*
X409448Y191258D01*
X409468Y191343D01*
X409489Y191429D01*
X409510Y191521D01*
X409532Y191613D01*
X409553Y191706D01*
X409574Y191798D01*
X409595Y191890D01*
X409615Y191982D01*
X409637Y192081D01*
X409658Y192180D01*
X409679Y192278D01*
X409700Y192377D01*
X409712Y192433D01*
X409725Y192499D01*
X409738Y192563D01*
X409752Y192630D01*
X409765Y192697D01*
X409778Y192764D01*
X409792Y192833D01*
X409805Y192903D01*
X409818Y192972D01*
X409831Y193042D01*
X409844Y193114D01*
X409857Y193186D01*
X409870Y193259D01*
X409883Y193334D01*
X409895Y193409D01*
X409908Y193484D01*
X409921Y193562D01*
X409933Y193640D01*
X409945Y193718D01*
X409958Y193799D01*
X409970Y193879D01*
X409982Y193963D01*
X409994Y194046D01*
X410005Y194130D01*
X410017Y194216D01*
X410028Y194303D01*
X410039Y194392D01*
X410050Y194481D01*
X410061Y194573D01*
X410071Y194665D01*
X410081Y194760D01*
X410091Y194857D01*
X410101Y194955D01*
X410110Y195055D01*
X410116Y195123D01*
X410121Y195179D01*
X410126Y195231D01*
X410130Y195284D01*
X410134Y195337D01*
X410138Y195389D01*
X410142Y195445D01*
X410146Y195500D01*
X410149Y195555D01*
X410153Y195611D01*
X410156Y195669D01*
X410159Y195727D01*
X410162Y195785D01*
X410165Y195843D01*
X410168Y195903D01*
X410171Y195964D01*
X410173Y196024D01*
X410175Y196085D01*
X410177Y196148D01*
X410179Y196212D01*
X410180Y196275D01*
X410181Y196341D01*
X410182Y196406D01*
X410183Y196472D01*
X410183Y196541D01*
X410183Y196609D01*
X410183Y196678D01*
X410183Y196749D01*
X410182Y196820D01*
X410180Y196894D01*
X410179Y196968D01*
X410176Y197044D01*
X410174Y197120D01*
X410171Y197199D01*
X410167Y197278D01*
X410163Y197360D01*
X410158Y197444D01*
X410153Y197529D01*
X410147Y197616D01*
X410140Y197705D01*
X410135Y197758D01*
X410128Y197837D01*
X410121Y197913D01*
X410114Y197985D01*
X410106Y198058D01*
X410099Y198128D01*
X410091Y198198D01*
X410083Y198265D01*
X410074Y198332D01*
X410066Y198399D01*
X410057Y198463D01*
X410049Y198527D01*
X410040Y198590D01*
X410031Y198651D01*
X410022Y198712D01*
X410012Y198773D01*
X410003Y198833D01*
X409993Y198891D01*
X409984Y198949D01*
X409974Y199007D01*
X409965Y199062D01*
X409955Y199116D01*
X409945Y199171D01*
X409935Y199226D01*
X409925Y199281D01*
X409915Y199332D01*
X409905Y199384D01*
X409895Y199436D01*
X409885Y199487D01*
X409875Y199539D01*
X409865Y199588D01*
X409855Y199637D01*
X409844Y199685D01*
X409834Y199734D01*
X409824Y199783D01*
X409813Y199829D01*
X409803Y199874D01*
X409793Y199920D01*
X409783Y199966D01*
X409772Y200012D01*
X409762Y200057D01*
X409752Y200100D01*
X409742Y200143D01*
X409732Y200186D01*
X409722Y200229D01*
X409711Y200271D01*
X409701Y200314D01*
X409691Y200357D01*
X409681Y200397D01*
X409671Y200436D01*
X409661Y200476D01*
X409651Y200516D01*
X409640Y200556D01*
X409630Y200596D01*
X409620Y200636D01*
X409619Y200638D01*
X409510Y201045D01*
X409406Y201414D01*
X409306Y201750D01*
X409208Y202064D01*
X409112Y202362D01*
X409018Y202644D01*
X408926Y202910D01*
X408834Y203168D01*
X408743Y203419D01*
X408652Y203661D01*
X408562Y203895D01*
X408472Y204122D01*
X408384Y204341D01*
X408297Y204552D01*
X408212Y204755D01*
X408125Y204958D01*
X408040Y205153D01*
X407953Y205348D01*
X407869Y205536D01*
X407783Y205723D01*
X407699Y205903D01*
X407615Y206082D01*
X407532Y206254D01*
X407449Y206425D01*
X407364Y206596D01*
X407282Y206760D01*
X407200Y206924D01*
X407116Y207087D01*
X407035Y207243D01*
X406954Y207399D01*
X406871Y207554D01*
X406792Y207703D01*
X406768Y207747D01*
X406746Y207787D01*
X406725Y207826D01*
X406703Y207866D01*
X406682Y207906D01*
X406660Y207945D01*
X406636Y207989D01*
X406612Y208033D01*
X406588Y208077D01*
X406563Y208121D01*
X406539Y208165D01*
X406514Y208208D01*
X406490Y208252D01*
X406465Y208296D01*
X406441Y208339D01*
X406416Y208383D01*
X406391Y208426D01*
X406364Y208474D01*
X406337Y208522D01*
X406309Y208570D01*
X406282Y208618D01*
X406254Y208665D01*
X406226Y208713D01*
X406199Y208760D01*
X406171Y208808D01*
X406143Y208856D01*
X406115Y208903D01*
X406084Y208955D01*
X406053Y209006D01*
X406023Y209058D01*
X405992Y209109D01*
X405961Y209160D01*
X405929Y209212D01*
X405898Y209263D01*
X405867Y209314D01*
X405833Y209369D01*
X405798Y209425D01*
X405764Y209480D01*
X405729Y209535D01*
X405695Y209590D01*
X405660Y209645D01*
X405625Y209700D01*
X405590Y209754D01*
X405552Y209813D01*
X405514Y209872D01*
X405476Y209931D01*
X405437Y209989D01*
X405399Y210048D01*
X405360Y210106D01*
X405318Y210168D01*
X405276Y210230D01*
X405234Y210292D01*
X405192Y210354D01*
X405149Y210416D01*
X405106Y210477D01*
X405061Y210543D01*
X405015Y210608D01*
X404968Y210674D01*
X404922Y210739D01*
X404875Y210804D01*
X404825Y210872D01*
X404775Y210941D01*
X404724Y211009D01*
X404673Y211077D01*
X404619Y211149D01*
X404565Y211221D01*
X404510Y211293D01*
X404452Y211368D01*
X404393Y211443D01*
X404334Y211517D01*
X404272Y211596D01*
X404209Y211673D01*
X404145Y211751D01*
X404078Y211832D01*
X404043Y211875D01*
X404036Y211883D01*
X404030Y211890D01*
X404025Y211897D01*
X404019Y211904D01*
X404013Y211911D01*
X404007Y211918D01*
X404003Y211923D01*
X403999Y211928D01*
X403995Y211933D01*
X403986Y211944D01*
X403982Y211949D01*
X403978Y211954D01*
X403974Y211960D01*
X403965Y211970D01*
X403961Y211975D01*
X403953Y211986D01*
X403948Y211991D01*
X403944Y211996D01*
X403940Y212002D01*
X403936Y212007D01*
X403932Y212012D01*
X403928Y212017D01*
X403923Y212023D01*
X403919Y212028D01*
X403911Y212039D01*
X403907Y212044D01*
X403898Y212055D01*
X403894Y212060D01*
X403890Y212065D01*
X403886Y212070D01*
X403882Y212076D01*
X403878Y212081D01*
X403874Y212087D01*
X403865Y212097D01*
X403863Y212101D01*
X403860Y212104D01*
X403857Y212108D01*
X403849Y212119D01*
X403846Y212122D01*
X403844Y212126D01*
X403841Y212129D01*
X403827Y212147D01*
X403825Y212151D01*
X403822Y212154D01*
X403806Y212176D01*
X403803Y212179D01*
X403800Y212183D01*
X403795Y212190D01*
X403792Y212194D01*
X403787Y212201D01*
X403784Y212204D01*
X403781Y212208D01*
X403779Y212211D01*
X403776Y212215D01*
X403773Y212219D01*
X403770Y212222D01*
X403768Y212226D01*
X403757Y212240D01*
X403754Y212244D01*
X403752Y212247D01*
X403749Y212251D01*
X403746Y212255D01*
X403741Y212262D01*
X403738Y212265D01*
X403730Y212276D01*
X403729Y212278D01*
X403727Y212280D01*
X403726Y212282D01*
X403725Y212284D01*
X403723Y212285D01*
X403722Y212287D01*
X403721Y212289D01*
X403720Y212291D01*
X403718Y212293D01*
X403717Y212294D01*
X403716Y212296D01*
X403714Y212298D01*
X403713Y212300D01*
X403710Y212303D01*
X403709Y212305D01*
X403708Y212307D01*
X403706Y212309D01*
X403705Y212311D01*
X403703Y212313D01*
X403702Y212314D01*
X403701Y212316D01*
X403699Y212318D01*
X403698Y212320D01*
X403697Y212321D01*
X403695Y212323D01*
X403694Y212325D01*
X403693Y212327D01*
X403691Y212329D01*
X403690Y212331D01*
X403687Y212334D01*
X403686Y212336D01*
X403685Y212338D01*
X403683Y212340D01*
X403681Y212343D01*
X403679Y212345D01*
X403676Y212351D01*
X403674Y212352D01*
X403672Y212356D01*
X403670Y212358D01*
X403665Y212365D01*
X403663Y212367D01*
X403662Y212369D01*
X403661Y212370D01*
X403658Y212374D01*
X403657Y212376D01*
X403655Y212378D01*
X403654Y212380D01*
X403650Y212385D01*
X403649Y212387D01*
X403648Y212388D01*
X403646Y212390D01*
X403645Y212392D01*
X403641Y212398D01*
X403640Y212399D01*
X403637Y212403D01*
X403636Y212405D01*
X403633Y212408D01*
X403631Y212410D01*
X403630Y212412D01*
X403629Y212414D01*
X403627Y212416D01*
X403626Y212418D01*
X403625Y212419D01*
X403622Y212423D01*
X403621Y212425D01*
X403619Y212427D01*
X403618Y212428D01*
X403617Y212430D01*
X403616Y212432D01*
X403613Y212436D01*
X403612Y212438D01*
X403610Y212439D01*
X403609Y212441D01*
X403608Y212443D01*
X403606Y212445D01*
X403604Y212448D01*
X403602Y212450D01*
X403601Y212452D01*
X403600Y212454D01*
X403598Y212456D01*
X403596Y212459D01*
X403594Y212461D01*
X403592Y212465D01*
X403590Y212467D01*
X403589Y212468D01*
X403588Y212470D01*
X403586Y212472D01*
X403585Y212474D01*
X403584Y212476D01*
X403582Y212477D01*
X403581Y212479D01*
X403580Y212481D01*
X403578Y212483D01*
X403577Y212485D01*
X403574Y212488D01*
X403573Y212490D01*
X403572Y212492D01*
X403570Y212494D01*
X403569Y212496D01*
X403568Y212497D01*
X403566Y212499D01*
X403565Y212501D01*
X403562Y212505D01*
X403561Y212507D01*
X403560Y212508D01*
X403558Y212510D01*
X403557Y212512D01*
X403556Y212514D01*
X403554Y212515D01*
X403553Y212517D01*
X403552Y212519D01*
X403550Y212521D01*
X403549Y212523D01*
X403548Y212525D01*
X403546Y212526D01*
X403545Y212528D01*
X403544Y212530D01*
X403542Y212532D01*
X403541Y212534D01*
X403540Y212536D01*
X403538Y212537D01*
X403537Y212539D01*
X403536Y212541D01*
X403534Y212543D01*
X403532Y212546D01*
X403530Y212548D01*
X403528Y212552D01*
X403526Y212554D01*
X403524Y212557D01*
X403522Y212559D01*
X403521Y212561D01*
X403520Y212563D01*
X403518Y212564D01*
X403517Y212566D01*
X403516Y212568D01*
X403514Y212570D01*
X403513Y212572D01*
X403512Y212574D01*
X403510Y212575D01*
X403509Y212577D01*
X403506Y212581D01*
X403505Y212583D01*
X403504Y212584D01*
X403502Y212586D01*
X403501Y212588D01*
X403500Y212590D01*
X403498Y212592D01*
X403496Y212595D01*
X403494Y212597D01*
X403492Y212601D01*
X403490Y212602D01*
X403485Y212610D01*
X403484Y212612D01*
X403476Y212622D01*
X403474Y212624D01*
X403468Y212633D01*
X403466Y212635D01*
X403464Y212639D01*
X403461Y212642D01*
X403458Y212646D01*
X403455Y212650D01*
X403453Y212653D01*
X403450Y212657D01*
X403437Y212675D01*
X403434Y212678D01*
X403431Y212682D01*
X403429Y212686D01*
X403426Y212689D01*
X403423Y212693D01*
X403420Y212697D01*
X403418Y212700D01*
X403415Y212704D01*
X403412Y212707D01*
X403407Y212715D01*
X403404Y212718D01*
X403399Y212725D01*
X403396Y212729D01*
X403393Y212733D01*
X403391Y212736D01*
X403388Y212740D01*
X403385Y212743D01*
X403377Y212754D01*
X403374Y212758D01*
X403369Y212765D01*
X403366Y212768D01*
X403364Y212772D01*
X403361Y212775D01*
X403355Y212783D01*
X403353Y212786D01*
X403350Y212790D01*
X403347Y212793D01*
X403344Y212797D01*
X403342Y212801D01*
X403333Y212811D01*
X403328Y212818D01*
X403324Y212824D01*
X403320Y212829D01*
X403316Y212835D01*
X403311Y212840D01*
X403307Y212845D01*
X403303Y212850D01*
X403299Y212856D01*
X403295Y212861D01*
X403291Y212866D01*
X403282Y212877D01*
X403274Y212888D01*
X403270Y212893D01*
X403266Y212898D01*
X403262Y212904D01*
X403257Y212909D01*
X403253Y212914D01*
X403249Y212919D01*
X403245Y212925D01*
X403240Y212930D01*
X403236Y212935D01*
X403228Y212946D01*
X403224Y212951D01*
X403219Y212956D01*
X403215Y212962D01*
X403211Y212967D01*
X403207Y212972D01*
X403202Y212977D01*
X403198Y212983D01*
X403194Y212988D01*
X403190Y212993D01*
X403184Y213000D01*
X403178Y213007D01*
X403172Y213014D01*
X403167Y213021D01*
X403161Y213028D01*
X403155Y213035D01*
X403149Y213042D01*
X403144Y213049D01*
X403138Y213055D01*
X403132Y213062D01*
X403126Y213069D01*
X403120Y213076D01*
X403109Y213090D01*
X403103Y213097D01*
X403097Y213104D01*
X403091Y213110D01*
X403085Y213117D01*
X403079Y213124D01*
X403073Y213131D01*
X403067Y213138D01*
X403061Y213144D01*
X403055Y213151D01*
X403048Y213160D01*
X403041Y213168D01*
X403033Y213176D01*
X403025Y213185D01*
X403018Y213193D01*
X403010Y213202D01*
X403003Y213210D01*
X402995Y213218D01*
X402987Y213227D01*
X402980Y213235D01*
X402972Y213243D01*
X402964Y213251D01*
X402957Y213260D01*
X402949Y213268D01*
X402941Y213276D01*
X402933Y213284D01*
X402924Y213294D01*
X402914Y213304D01*
X402905Y213313D01*
X402896Y213323D01*
X402886Y213333D01*
X402876Y213342D01*
X402867Y213352D01*
X402857Y213362D01*
X402847Y213371D01*
X402838Y213381D01*
X402826Y213392D01*
X402815Y213403D01*
X402803Y213414D01*
X402792Y213425D01*
X402780Y213436D01*
X402768Y213446D01*
X402757Y213457D01*
X402743Y213469D01*
X402730Y213482D01*
X402716Y213494D01*
X402702Y213506D01*
X402688Y213518D01*
X402673Y213531D01*
X402657Y213545D01*
X402641Y213558D01*
X402623Y213573D01*
X402605Y213587D01*
X402595Y213596D01*
X402610Y213598D01*
X402624Y213601D01*
X402638Y213603D01*
X402652Y213605D01*
X402666Y213607D01*
X402680Y213609D01*
X402694Y213611D01*
X402708Y213612D01*
X402722Y213614D01*
X402736Y213616D01*
X402750Y213617D01*
X402765Y213619D01*
X402780Y213620D01*
X402796Y213622D01*
X402811Y213623D01*
X402826Y213624D01*
X402841Y213625D01*
X402856Y213626D01*
X402873Y213627D01*
X402889Y213628D01*
X402906Y213629D01*
X402922Y213629D01*
X402938Y213630D01*
X402956Y213630D01*
X402974Y213630D01*
X402991Y213630D01*
X403009Y213630D01*
D02*
G37*
D11*
X406144Y84659D02*
G03*
X410350Y84298I7307J60370D01*
G01*
X413431Y88964D02*
G03*
X416312Y89037I3J56328D01*
G01*
X413544Y86373D02*
G03*
X416555Y86450I3J58849D01*
G01*
X414158Y84222D02*
G03*
X417420Y84344I-664J61296D01*
G01*
X361087Y137722D02*
G03*
X367586Y117999I52009J6206D01*
G01*
X358397Y137780D02*
G03*
X365390Y116731I54679J6480D01*
G01*
X358159Y127335D02*
G03*
X363281Y115513I55033J16820D01*
G01*
X367009Y138816D02*
G03*
X372890Y121061I46239J5463D01*
G01*
X356041Y137437D02*
G03*
X358159Y127335I57191J6718D01*
G01*
X353174Y140486D02*
G03*
X361099Y114483I59940J4058D01*
G01*
X372154Y139435D02*
G03*
X377379Y123652I41119J4855D01*
G01*
X364099Y138143D02*
G03*
X370209Y119513I49115J5790D01*
G01*
X410878Y121012D02*
G03*
X410594Y120918I2684J-8545D01*
G01*
X412232Y121326D02*
G03*
X410878Y121012I1355J-8938D01*
G01*
X412454Y121356D02*
G03*
X412232Y121326I1105J-8797D01*
G01*
X416680Y120829D02*
G03*
X416488Y120900I-3173J-8255D01*
G01*
X361099Y114483D02*
G03*
X406144Y84659I52395J30206D01*
G01*
X379355Y109151D02*
G03*
X379355Y109151I-1205J0D01*
G01*
X412958Y121405D02*
G03*
X412806Y121394I573J-8581D01*
G01*
Y121394D02*
G03*
X412641Y121378I733J-8657D01*
G01*
X413458Y121424D02*
G03*
X411844Y121249I57J-8059D01*
G01*
X416842Y120765D02*
G03*
X416680Y120829I-3304J-8107D01*
G01*
X421525Y113414D02*
G03*
X421525Y113414I-8010J0D01*
G01*
X410201Y113572D02*
G03*
X410197Y113414I3374J-157D01*
G01*
X410218Y113792D02*
G03*
X410201Y113572I3322J-376D01*
G01*
X410197Y113414D02*
G03*
X410202Y113240I3375J-0D01*
G01*
X410202Y113240D02*
G03*
X410221Y113014I3335J173D01*
G01*
X363281Y115513D02*
G03*
X409766Y86494I50251J28754D01*
G01*
X365390Y116731D02*
G03*
X409824Y89079I48028J27650D01*
G01*
X387248Y129350D02*
G03*
X410333Y114354I26183J15040D01*
G01*
X372890Y121061D02*
G03*
X410490Y97623I40645J23325D01*
G01*
X382112Y126385D02*
G03*
X407042Y108699I31449J17917D01*
G01*
X367586Y117999D02*
G03*
X409866Y91448I45834J26047D01*
G01*
X370209Y119513D02*
G03*
X410117Y94374I43324J24531D01*
G01*
X377379Y123652D02*
G03*
X410781Y102797I36156J20733D01*
G01*
X379734Y125013D02*
G03*
X410768Y105501I33688J19145D01*
G01*
X410594Y120918D02*
G03*
X410392Y120844I2937J-8363D01*
G01*
X410392D02*
G03*
X410223Y120779I3108J-8204D01*
G01*
X410223Y120779D02*
G03*
X410079Y120719I3242J-8054D01*
G01*
X413916Y110120D02*
G03*
X416829Y113245I-401J3294D01*
G01*
X416488Y120900D02*
G03*
X415025Y121289I-3043J-8506D01*
G01*
X410419Y114610D02*
G03*
X410218Y113792I3077J-1187D01*
G01*
X411502Y116052D02*
G03*
X410419Y114610I2018J-2642D01*
G01*
X410221Y113014D02*
G03*
X413346Y110100I3294J401D01*
G01*
X415457Y105463D02*
G03*
X418129Y105693I-2003J38930D01*
G01*
X415709Y102762D02*
G03*
X418610Y103012I-2140J41874D01*
G01*
X410768Y105501D02*
G03*
X412912Y105414I2658J39185D01*
G01*
X410781Y102797D02*
G03*
X413034Y102710I2757J42165D01*
G01*
X409824Y89079D02*
G03*
X412816Y88967I3600J56084D01*
G01*
X410117Y94374D02*
G03*
X412876Y94263I3420J50346D01*
G01*
X409766Y86494D02*
G03*
X412899Y86376I3770J58587D01*
G01*
X409866Y91448D02*
G03*
X412784Y91333I3558J53322D01*
G01*
X410490Y97623D02*
G03*
X413023Y97528I3048J47417D01*
G01*
X416144Y94325D02*
G03*
X419575Y94620I-2571J50023D01*
G01*
X415978Y97587D02*
G03*
X419239Y97868I-2406J47081D01*
G01*
X416186Y91400D02*
G03*
X419821Y91713I-2723J52965D01*
G01*
X416555Y86450D02*
G03*
X420590Y86797I-2976J58166D01*
G01*
X416312Y89037D02*
G03*
X420172Y89370I-2847J55676D01*
G01*
X410350Y84298D02*
G03*
X413487Y84218I3135J61362D01*
G01*
X416810Y113810D02*
G03*
X414685Y116520I-3296J-397D01*
G01*
X416829Y113586D02*
G03*
X416810Y113810I-3336J-169D01*
G01*
X416834Y113414D02*
G03*
X416829Y113586I-3374J0D01*
G01*
X412823Y116659D02*
G03*
X411502Y116052I683J-3227D01*
G01*
X416829Y113245D02*
G03*
X416834Y113414I-3371J169D01*
G01*
X418881Y119558D02*
G03*
X420123Y119846I-4955J24212D01*
G01*
X414527Y121363D02*
G03*
X414345Y121383I-1041J-8691D01*
G01*
X415188Y121249D02*
G03*
X413458Y121424I-1676J-7923D01*
G01*
X414744Y121334D02*
G03*
X414527Y121363I-1268J-8751D01*
G01*
X412641Y121378D02*
G03*
X412454Y121356I906J-8730D01*
G01*
X414345Y121383D02*
G03*
X414180Y121397I-850J-8623D01*
G01*
X415025Y121289D02*
G03*
X414744Y121334I-1562J-8796D01*
G01*
X363753Y144049D02*
G03*
X363816Y141522I50614J-2D01*
G01*
X358008Y144387D02*
G03*
X358078Y141564I56336J-2D01*
G01*
X355715Y141340D02*
G03*
X356041Y137437I58189J2901D01*
G01*
X366682Y144387D02*
G03*
X366741Y142007I47644J-2D01*
G01*
X360711Y144049D02*
G03*
X360778Y141365I53586J-2D01*
G01*
X360778D02*
G03*
X361087Y137722I52975J2653D01*
G01*
X363816Y141522D02*
G03*
X364099Y138143I50037J2499D01*
G01*
X366741Y142007D02*
G03*
X367009Y138816I47100J2353D01*
G01*
X358078Y141564D02*
G03*
X358397Y137780I55693J2791D01*
G01*
X355772Y148189D02*
G03*
X355647Y145069I58561J-3906D01*
G01*
X358012Y145116D02*
G03*
X358008Y144387I56555J-729D01*
G01*
X353453Y151846D02*
G03*
X353108Y147732I60399J-7137D01*
G01*
X366687Y145131D02*
G03*
X366682Y144387I47813J-743D01*
G01*
X363757Y144683D02*
G03*
X363753Y144049I50808J-634D01*
G01*
X364890Y144387D02*
G03*
X364890Y144387I-1172J0D01*
G01*
X366798Y147723D02*
G03*
X366687Y145131I47366J-3329D01*
G01*
X360815Y147389D02*
G03*
X360714Y144576I53380J-3334D01*
G01*
X360714D02*
G03*
X360711Y144049I53827J-526D01*
G01*
X363863Y147389D02*
G03*
X363757Y144683I50361J-3333D01*
G01*
X358132Y148129D02*
G03*
X358012Y145116I56054J-3734D01*
G01*
X353108Y147732D02*
G03*
X353032Y144673I61367J-3056D01*
G01*
X353038Y143784D02*
G03*
X353174Y140486I61260J880D01*
G01*
X353032Y144673D02*
G03*
X353038Y143784I61693J-0D01*
G01*
X355642Y144275D02*
G03*
X355715Y141340I58860J-3D01*
G01*
X355647Y145069D02*
G03*
X355642Y144275I59086J-794D01*
G01*
X416692Y114372D02*
G03*
X439642Y129399I-3262J30020D01*
G01*
X417420Y84344D02*
G03*
X465876Y114483I-3918J60322D01*
G01*
X451911Y148771D02*
G03*
X446863Y163770I-38236J-4520D01*
G01*
X446605Y146361D02*
G03*
X442167Y161058I-32873J-1908D01*
G01*
X443559Y146344D02*
G03*
X439544Y159544I-29941J-1895D01*
G01*
X449703Y144554D02*
G03*
X449639Y146459I-36693J-276D01*
G01*
X443619Y144702D02*
G03*
X443559Y146344I-30597J-311D01*
G01*
X446662Y144606D02*
G03*
X446605Y146361I-33607J-216D01*
G01*
X449639Y146459D02*
G03*
X444752Y162551I-35887J-2111D01*
G01*
X454939Y149287D02*
G03*
X449582Y165339I-41122J-4803D01*
G01*
X447857Y144387D02*
G03*
X447857Y144387I-1194J0D01*
G01*
X371971Y147401D02*
G03*
X371869Y145095I42115J-3006D01*
G01*
X417599Y144387D02*
G03*
X417599Y144387I-4055J0D01*
G01*
X415008Y169959D02*
G03*
X415008Y169959I-1464J0D01*
G01*
X438109Y150655D02*
G03*
X435434Y157171I-24383J-6205D01*
G01*
X438722Y147324D02*
G03*
X438109Y150655I-25074J-2888D01*
G01*
X438859Y145653D02*
G03*
X438722Y147324I-25485J-1251D01*
G01*
X438955Y144500D02*
G03*
X438944Y145233I-25647J-0D01*
G01*
X438890Y144387D02*
G03*
X438859Y145653I-25778J1D01*
G01*
X370599Y169262D02*
G03*
X363863Y147389I42640J-25107D01*
G01*
X365489Y172212D02*
G03*
X358132Y148129I47604J-27707D01*
G01*
X372988Y167883D02*
G03*
X366798Y147723I40272J-23394D01*
G01*
X361149Y174948D02*
G03*
X353453Y151846I51938J-30135D01*
G01*
X367977Y170775D02*
G03*
X360815Y147389I45150J-26617D01*
G01*
X377477Y165291D02*
G03*
X371971Y147400I35803J-20812D01*
G01*
X363475Y173374D02*
G03*
X355772Y148189I49711J-28976D01*
G01*
X380027Y163818D02*
G03*
X374758Y146640I33185J-19577D01*
G01*
X374758D02*
G03*
X374681Y144549I39224J-2473D01*
G01*
X374680Y144162D02*
G03*
X374728Y142210I39397J-2D01*
G01*
X374681Y144549D02*
G03*
X374680Y144162I39552J-387D01*
G01*
X384892Y161010D02*
G03*
X380498Y146605I28452J-16553D01*
G01*
X387346Y159593D02*
G03*
X383308Y146417I25891J-15141D01*
G01*
X382307Y162503D02*
G03*
X377464Y146708I31016J-18151D01*
G01*
X374728Y142210D02*
G03*
X374946Y139592I38949J1930D01*
G01*
X371863Y144387D02*
G03*
X371916Y142271I42376J-2D01*
G01*
X371916Y142271D02*
G03*
X372154Y139435I41893J2092D01*
G01*
X371869Y145095D02*
G03*
X371863Y144387I42520J-707D01*
G01*
X412533Y112562D02*
G03*
X412571Y112513I1086J803D01*
G01*
X412973Y112183D02*
G03*
X413025Y112158I555J1071D01*
G01*
X412647Y112427D02*
G03*
X412684Y112390I941J911D01*
G01*
X412609Y112468D02*
G03*
X412647Y112427I989J879D01*
G01*
X412571Y112513D02*
G03*
X412609Y112468I1037J844D01*
G01*
X412926Y112209D02*
G03*
X412973Y112183I607J1056D01*
G01*
X412882Y112235D02*
G03*
X412926Y112209I658J1041D01*
G01*
X412841Y112263D02*
G03*
X412882Y112235I706J1024D01*
G01*
X412800Y112292D02*
G03*
X412841Y112263I754J1006D01*
G01*
X412684Y112390D02*
G03*
X412723Y112355I895J938D01*
G01*
X412723Y112355D02*
G03*
X412761Y112322I848J964D01*
G01*
D02*
G03*
X412800Y112292I801J986D01*
G01*
X414774Y113414D02*
G03*
X414774Y113444I-1507J0D01*
G01*
X414773Y113345D02*
G03*
X414774Y113414I-1500J69D01*
G01*
X414767Y113269D02*
G03*
X414773Y113345I-1480J144D01*
G01*
X414756Y113185D02*
G03*
X414767Y113269I-1454J228D01*
G01*
X414750Y113683D02*
G03*
X414728Y113781I-1427J-263D01*
G01*
X414771Y113514D02*
G03*
X414763Y113594I-1477J-99D01*
G01*
X414774Y113444D02*
G03*
X414771Y113514I-1495J-29D01*
G01*
X414728Y113781D02*
G03*
X414698Y113883I-1391J-357D01*
G01*
D02*
G03*
X414662Y113979I-1347J-454D01*
G01*
X414763Y113594D02*
G03*
X414750Y113683I-1455J-177D01*
G01*
X414558Y112650D02*
G03*
X414599Y112720I-1175J734D01*
G01*
X414480Y112538D02*
G03*
X414519Y112591I-1074J831D01*
G01*
X414599Y112720D02*
G03*
X414639Y112799I-1228J672D01*
G01*
X414442Y112491D02*
G03*
X414480Y112538I-1025J870D01*
G01*
X414404Y112449D02*
G03*
X414442Y112491I-977J904D01*
G01*
X414329Y112373D02*
G03*
X414367Y112409I-882J960D01*
G01*
D02*
G03*
X414404Y112449I-929J934D01*
G01*
X414519Y112591D02*
G03*
X414558Y112650I-1124J787D01*
G01*
X414712Y112989D02*
G03*
X414739Y113091I-1381J417D01*
G01*
X414639Y112799D02*
G03*
X414678Y112890I-1281J598D01*
G01*
X414739Y113091D02*
G03*
X414756Y113185I-1422J319D01*
G01*
X414678Y112890D02*
G03*
X414712Y112989I-1333J513D01*
G01*
X412621Y114374D02*
G03*
X412585Y114332I982J-898D01*
G01*
X412546Y114285D02*
G03*
X412508Y114233I1078J-826D01*
G01*
X412658Y114413D02*
G03*
X412621Y114374I935J-928D01*
G01*
X412733Y114482D02*
G03*
X412695Y114449I843J-978D01*
G01*
X412585Y114332D02*
G03*
X412546Y114285I1029J-865D01*
G01*
X412695Y114449D02*
G03*
X412658Y114413I889J-955D01*
G01*
X412770Y114513D02*
G03*
X412733Y114482I797J-999D01*
G01*
X414253Y112309D02*
G03*
X414291Y112340I-789J1005D01*
G01*
X414215Y112280D02*
G03*
X414253Y112309I-742J1024D01*
G01*
X414174Y112252D02*
G03*
X414215Y112280I-694J1042D01*
G01*
X414132Y112225D02*
G03*
X414174Y112252I-645J1058D01*
G01*
X414087Y112199D02*
G03*
X414132Y112225I-594J1073D01*
G01*
X414040Y112174D02*
G03*
X414087Y112199I-540J1087D01*
G01*
X413986Y112149D02*
G03*
X414040Y112174I-481J1101D01*
G01*
X413923Y112124D02*
G03*
X413986Y112149I-413J1115D01*
G01*
X413086Y112132D02*
G03*
X413445Y112053I429J1089D01*
G01*
X413534Y112051D02*
G03*
X413834Y112094I-18J1169D01*
G01*
X413834Y112094D02*
G03*
X413923Y112124I-320J1133D01*
G01*
X413025Y112158D02*
G03*
X413086Y112132I497J1085D01*
G01*
X413445Y112053D02*
G03*
X413516Y112050I70J1179D01*
G01*
X414291Y112340D02*
G03*
X414329Y112373I-836J984D01*
G01*
X414502Y114261D02*
G03*
X414464Y114311I-1090J-798D01*
G01*
X414541Y114205D02*
G03*
X414502Y114261I-1140J-750D01*
G01*
X414315Y114468D02*
G03*
X414277Y114500I-855J-958D01*
G01*
X414352Y114434D02*
G03*
X414315Y114468I-900J-934D01*
G01*
X414388Y114397D02*
G03*
X414352Y114434I-946J-907D01*
G01*
X414426Y114356D02*
G03*
X414388Y114397I-993J-875D01*
G01*
X414581Y114140D02*
G03*
X414541Y114205I-1192J-693D01*
G01*
X414662Y113979D02*
G03*
X414622Y114065I-1297J-545D01*
G01*
X414622D02*
G03*
X414581Y114140I-1245J-625D01*
G01*
X414464Y114311D02*
G03*
X414426Y114356I-1041J-839D01*
G01*
X430005Y125044D02*
G03*
X430955Y125908I-16506J19081D01*
G01*
X420172Y89370D02*
G03*
X461501Y116779I-6749J55040D01*
G01*
X421436Y112215D02*
G03*
X442265Y127885I-7930J32219D01*
G01*
X418129Y105693D02*
G03*
X447156Y125061I-4703J38483D01*
G01*
X419982Y108688D02*
G03*
X444948Y126336I-6455J35616D01*
G01*
X418610Y103012D02*
G03*
X449681Y123603I-5070J41386D01*
G01*
X419239Y97868D02*
G03*
X454170Y121013I-5700J46533D01*
G01*
X419575Y94620D02*
G03*
X456851Y119465I-6034J49439D01*
G01*
X420590Y86797D02*
G03*
X463780Y115463I-7053J57495D01*
G01*
X419821Y91713D02*
G03*
X459304Y118048I-6395J52354D01*
G01*
X449974Y109128D02*
G03*
X449974Y109128I-1172J0D01*
G01*
X430955Y125908D02*
G03*
X431802Y126760I-17634J18403D01*
G01*
X438944Y143767D02*
G03*
X438955Y144500I-25655J733D01*
G01*
X443398Y140698D02*
G03*
X443581Y142826I-30131J3672D01*
G01*
X443581D02*
G03*
X443621Y144387I-30626J1560D01*
G01*
X438884Y143824D02*
G03*
X438890Y144387I-25841J563D01*
G01*
X452092Y141497D02*
G03*
X452179Y143642I-39180J2660D01*
G01*
X446620Y142685D02*
G03*
X446663Y144387I-33609J1701D01*
G01*
X449658Y142426D02*
G03*
X449704Y144275I-36701J1848D01*
G01*
X435532Y131773D02*
G03*
X438812Y142381I-21816J12556D01*
G01*
X446422Y140375D02*
G03*
X446620Y142685I-33069J3993D01*
G01*
X447156Y125061D02*
G03*
X452092Y141497I-33500J19020D01*
G01*
X449444Y139916D02*
G03*
X449658Y142426I-36113J4338D01*
G01*
X444948Y126336D02*
G03*
X449444Y139916I-31181J17857D01*
G01*
X463203Y140407D02*
G03*
X463328Y143193I-50292J3634D01*
G01*
X442265Y127885D02*
G03*
X446422Y140375I-28517J16429D01*
G01*
X431530Y126517D02*
G03*
X432041Y127042I-18149J18148D01*
G01*
X431802Y126760D02*
G03*
X432582Y127619I-18669J17730D01*
G01*
X434669Y130373D02*
G03*
X435293Y131367I-22383J14759D01*
G01*
X431004Y126006D02*
G03*
X431530Y126517I-17616J18653D01*
G01*
X432582Y127619D02*
G03*
X433325Y128515I-19648J17043D01*
G01*
D02*
G03*
X434016Y129428I-20599J16312D01*
G01*
D02*
G03*
X434669Y130373I-21506J15556D01*
G01*
X438169Y120956D02*
G03*
X438169Y120956I-1194J0D01*
G01*
X466018Y140281D02*
G03*
X466144Y143172I-53284J3760D01*
G01*
X438812Y142381D02*
G03*
X438884Y143824I-25570J2000D01*
G01*
X460306Y141296D02*
G03*
X460403Y143852I-47415J3085D01*
G01*
X456851Y119465D02*
G03*
X463203Y140407I-42992J24476D01*
G01*
X449681Y123603D02*
G03*
X455120Y141416I-35877J20692D01*
G01*
X459304Y118048D02*
G03*
X466018Y140281I-45555J25888D01*
G01*
X454170Y121013D02*
G03*
X460306Y141296I-40356J23278D01*
G01*
X455120Y141416D02*
G03*
X455218Y143685I-42130J2964D01*
G01*
X439642Y129399D02*
G03*
X443398Y140698I-26013J14920D01*
G01*
X422096Y120447D02*
G03*
X427597Y123204I-8070J22966D01*
G01*
X420123Y119846D02*
G03*
X422096Y120447I-6131J23673D01*
G01*
X428930Y124165D02*
G03*
X430005Y125044I-15263J19766D01*
G01*
X427597Y123204D02*
G03*
X428930Y124165I-13776J20526D01*
G01*
X413798Y114743D02*
G03*
X413776Y114748I-297J-1192D01*
G01*
X413905Y114711D02*
G03*
X413799Y114743I-387J-1104D01*
G01*
X413777Y114748D02*
G03*
X413755Y114753I-273J-1185D01*
G01*
X413799Y114743D02*
G03*
X413777Y114748I-298J-1192D01*
G01*
X413731Y114758D02*
G03*
X413706Y114762I-222J-1171D01*
G01*
X413753Y114753D02*
G03*
X413729Y114758I-246J-1178D01*
G01*
Y114758D02*
G03*
X413703Y114763I-220J-1171D01*
G01*
X413755Y114753D02*
G03*
X413731Y114758I-248J-1178D01*
G01*
X413706Y114762D02*
G03*
X413679Y114767I-195J-1164D01*
G01*
X413703Y114763D02*
G03*
X413676Y114767I-192J-1163D01*
G01*
X413571Y114777D02*
G03*
X413516Y114778I-56J-1131D01*
G01*
X413516D02*
G03*
X413460Y114777I0J-1132D01*
G01*
X413577Y114777D02*
G03*
X413525Y114778I-61J-1132D01*
G01*
X413506D02*
G03*
X413454Y114777I10J-1134D01*
G01*
D02*
G03*
X413415Y114774I62J-1144D01*
G01*
X413649Y114770D02*
G03*
X413616Y114774I-135J-1149D01*
G01*
X413276Y114753D02*
G03*
X413254Y114748I250J-1190D01*
G01*
X413646Y114771D02*
G03*
X413612Y114774I-132J-1148D01*
G01*
X413616Y114774D02*
G03*
X413577Y114777I-101J-1141D01*
G01*
X413679Y114767D02*
G03*
X413649Y114770I-166J-1156D01*
G01*
X413083Y114695D02*
G03*
X413025Y114670I437J-1107D01*
G01*
X413690Y110101D02*
G03*
X413916Y110120I-173J3335D01*
G01*
X413516Y110096D02*
G03*
X413690Y110101I0J3375D01*
G01*
X413346Y110100D02*
G03*
X413516Y110096I169J3371D01*
G01*
X413460Y114777D02*
G03*
X413419Y114774I56J-1142D01*
G01*
X413612D02*
G03*
X413571Y114777I-97J-1140D01*
G01*
X413352Y114767D02*
G03*
X413325Y114762I168J-1168D01*
G01*
X414026Y114661D02*
G03*
X413972Y114685I-518J-1077D01*
G01*
X414119Y114611D02*
G03*
X414075Y114636I-622J-1049D01*
G01*
X412335Y112941D02*
G03*
X412371Y112845I1345J459D01*
G01*
X412304Y113043D02*
G03*
X412335Y112941I1389J362D01*
G01*
X412257Y113383D02*
G03*
X412260Y113311I1495J31D01*
G01*
X412258Y113482D02*
G03*
X412257Y113414I1501J-68D01*
G01*
X412264Y113556D02*
G03*
X412258Y113482I1481J-141D01*
G01*
X412274Y113641D02*
G03*
X412264Y113556I1455J-224D01*
G01*
X412257Y113414D02*
G03*
X412257Y113383I1507J-0D01*
G01*
X412318Y113834D02*
G03*
X412292Y113734I1383J-412D01*
G01*
X412351Y113932D02*
G03*
X412318Y113834I1336J-506D01*
G01*
X412389Y114023D02*
G03*
X412351Y113932I1284J-592D01*
G01*
X412469Y114172D02*
G03*
X412429Y114103I1179J-728D01*
G01*
X412508Y114233D02*
G03*
X412469Y114172I1128J-781D01*
G01*
X412429Y114103D02*
G03*
X412389Y114023I1232J-666D01*
G01*
X412292Y113734D02*
G03*
X412274Y113641I1423J-315D01*
G01*
X412282Y113142D02*
G03*
X412304Y113043I1425J267D01*
G01*
X414693Y94427D02*
G03*
X414693Y94427I-1205J0D01*
G01*
X413544Y97525D02*
G03*
X415978Y97587I2J47634D01*
G01*
X413544Y94258D02*
G03*
X416144Y94325I2J50609D01*
G01*
X413431Y91329D02*
G03*
X416186Y91400I2J53586D01*
G01*
X413544Y102707D02*
G03*
X415709Y102762I2J42365D01*
G01*
X413431Y105411D02*
G03*
X415457Y105463I2J39386D01*
G01*
X412929Y114621D02*
G03*
X412887Y114596I608J-1066D01*
G01*
X412887Y114596D02*
G03*
X412847Y114570I657J-1051D01*
G01*
X412974Y114646D02*
G03*
X412929Y114621I557J-1080D01*
G01*
X413025Y114670D02*
G03*
X412974Y114646I501J-1093D01*
G01*
X412808Y114542D02*
G03*
X412770Y114513I751J-1018D01*
G01*
X412847Y114570D02*
G03*
X412808Y114542I704J-1035D01*
G01*
X412412Y112758D02*
G03*
X412453Y112684I1242J630D01*
G01*
X412371Y112845D02*
G03*
X412412Y112758I1295J550D01*
G01*
X412493Y112619D02*
G03*
X412533Y112562I1137J754D01*
G01*
X412453Y112684D02*
G03*
X412493Y112619I1189J697D01*
G01*
X412268Y113232D02*
G03*
X412282Y113142I1454J179D01*
G01*
X412260Y113311D02*
G03*
X412268Y113232I1476J102D01*
G01*
X413776Y114748D02*
G03*
X413753Y114753I-272J-1185D01*
G01*
X413676Y114767D02*
G03*
X413646Y114771I-163J-1156D01*
G01*
X413325Y114762D02*
G03*
X413300Y114758I197J-1176D01*
G01*
D02*
G03*
X413276Y114753I224J-1183D01*
G01*
X413278Y114753D02*
G03*
X413255Y114748I249J-1190D01*
G01*
D02*
G03*
X413233Y114743I275J-1197D01*
G01*
X413254Y114748D02*
G03*
X413232Y114743I276J-1197D01*
G01*
X413382Y114770D02*
G03*
X413352Y114767I137J-1160D01*
G01*
X413415Y114774D02*
G03*
X413382Y114770I102J-1152D01*
G01*
X413419Y114774D02*
G03*
X413385Y114771I98J-1151D01*
G01*
Y114771D02*
G03*
X413355Y114767I133J-1160D01*
G01*
X413355Y114767D02*
G03*
X413328Y114763I165J-1168D01*
G01*
X413328D02*
G03*
X413302Y114758I194J-1175D01*
G01*
Y114758D02*
G03*
X413278Y114753I222J-1182D01*
G01*
X413232Y114743D02*
G03*
X413156Y114721I281J-1134D01*
G01*
Y114721D02*
G03*
X413083Y114695I360J-1122D01*
G01*
X413972Y114685D02*
G03*
X413905Y114711I-458J-1090D01*
G01*
X414161Y114585D02*
G03*
X414119Y114611I-671J-1034D01*
G01*
X414201Y114558D02*
G03*
X414161Y114585I-717J-1018D01*
G01*
X414240Y114530D02*
G03*
X414201Y114558I-763J-1000D01*
G01*
X414075Y114636D02*
G03*
X414026Y114661I-571J-1063D01*
G01*
X414277Y114500D02*
G03*
X414240Y114530I-808J-980D01*
G01*
X414685Y116520D02*
G03*
X414209Y116659I-1159J-3080D01*
G01*
X412941Y116682D02*
G03*
X412823Y116659I563J-3181D01*
G01*
X413091Y116705D02*
G03*
X412941Y116682I418J-3235D01*
G01*
X414209Y116659D02*
G03*
X413597Y116732I-691J-3222D01*
G01*
X413516Y116733D02*
G03*
X413276Y116724I-0J-3328D01*
G01*
D02*
G03*
X413091Y116705I237J-3286D01*
G01*
X413597Y116732D02*
G03*
X413516Y116733I-82J-3360D01*
G01*
X384794Y127934D02*
G03*
X405594Y112230I28784J16499D01*
G01*
X407537Y119704D02*
G03*
X408161Y119567I5638J24131D01*
G01*
X391183Y120956D02*
G03*
X391183Y120956I-1183J0D01*
G01*
X398792Y123689D02*
G03*
X400373Y122638I14394J19927D01*
G01*
Y122638D02*
G03*
X407537Y119704I12690J20776D01*
G01*
X383241Y144387D02*
G03*
X383280Y142836I30679J-1D01*
G01*
D02*
G03*
X383458Y140748I30328J1533D01*
G01*
X380662Y140406D02*
G03*
X384794Y127934I32670J3905D01*
G01*
X383458Y140748D02*
G03*
X387248Y129350I29768J3569D01*
G01*
X383308Y146417D02*
G03*
X383243Y144786I30528J-2025D01*
G01*
X380427Y144805D02*
G03*
X380425Y144387I33796J-417D01*
G01*
X380498Y146605D02*
G03*
X380427Y144805I33499J-2213D01*
G01*
X383243Y144786D02*
G03*
X383241Y144387I30801J-398D01*
G01*
X391527Y131821D02*
G03*
X392145Y130795I23372J13366D01*
G01*
X388197Y144387D02*
G03*
X388229Y143106I25760J-1D01*
G01*
X388375Y141374D02*
G03*
X391527Y131821I25003J2955D01*
G01*
X388199Y144679D02*
G03*
X388197Y144387I25864J-292D01*
G01*
X388208Y145233D02*
G03*
X388197Y144500I25636J-733D01*
G01*
X388250Y146032D02*
G03*
X388199Y144679I25644J-1641D01*
G01*
X388197Y144500D02*
G03*
X388208Y143767I25665J-0D01*
G01*
X388229Y143106D02*
G03*
X388375Y141374I25467J1267D01*
G01*
X391625Y157122D02*
G03*
X388250Y146032I21761J-12682D01*
G01*
X392145Y130795D02*
G03*
X392781Y129835I22524J14246D01*
G01*
X394904Y127168D02*
G03*
X395719Y126312I18943J17220D01*
G01*
X394155Y128029D02*
G03*
X394904Y127168I19884J16533D01*
G01*
X392781Y129835D02*
G03*
X393443Y128925I21669J15054D01*
G01*
D02*
G03*
X394155Y128029I20797J15805D01*
G01*
X394999Y127042D02*
G03*
X395509Y126517I18659J17622D01*
G01*
X396602Y125468D02*
G03*
X397606Y124601I16892J18550D01*
G01*
X395719Y126312D02*
G03*
X396602Y125468I17946J17894D01*
G01*
X395509Y126517D02*
G03*
X396035Y126006I18142J18142D01*
G01*
X397606Y124601D02*
G03*
X398792Y123689I15727J19221D01*
G01*
X377464Y146708D02*
G03*
X377386Y144753I36576J-2428D01*
G01*
X377386D02*
G03*
X377383Y144275I36903J-478D01*
G01*
X377383D02*
G03*
X377428Y142450I36759J-2D01*
G01*
X378990Y133581D02*
G03*
X382112Y126385I34334J10618D01*
G01*
X374946Y139592D02*
G03*
X379734Y125013I38228J4479D01*
G01*
X377428Y142450D02*
G03*
X377633Y140005I36342J1804D01*
G01*
X377633D02*
G03*
X378990Y133582I35716J4195D01*
G01*
X380425Y144387D02*
G03*
X380467Y142691I33663J-1D01*
G01*
X381461Y144387D02*
G03*
X381461Y144387I-1149J0D01*
G01*
X380467Y142691D02*
G03*
X380662Y140406I33278J1677D01*
G01*
X471320Y140435D02*
G03*
X471441Y143583I-58572J3832D01*
G01*
X463780Y115463D02*
G03*
X471320Y140435I-49898J28692D01*
G01*
X473810Y148717D02*
G03*
X465926Y174775I-59951J-3918D01*
G01*
X468855Y144387D02*
G03*
X468785Y147194I-56327J2D01*
G01*
X466151Y144049D02*
G03*
X466083Y146749I-53585J2D01*
G01*
X473867Y141624D02*
G03*
X473943Y144673I-61390J3047D01*
G01*
X464394Y144387D02*
G03*
X464394Y144387I-1138J0D01*
G01*
X471446Y144275D02*
G03*
X471373Y147191I-58860J2D01*
G01*
X461501Y116779D02*
G03*
X468748Y140916I-47767J27498D01*
G01*
X463335Y144049D02*
G03*
X463270Y146606I-50606J2D01*
G01*
X465876Y114483D02*
G03*
X471491Y127576I-52024J30063D01*
G01*
X473528Y137555D02*
G03*
X473867Y141624I-60426J7083D01*
G01*
X468748Y140916D02*
G03*
X468853Y143905I-56109J3466D01*
G01*
X452182Y144162D02*
G03*
X452134Y146125I-39393J2D01*
G01*
X460406Y144387D02*
G03*
X460346Y146767I-47640J2D01*
G01*
X452134Y146125D02*
G03*
X451911Y148771I-38945J-1940D01*
G01*
X460077Y149967D02*
G03*
X454072Y167931I-46237J-5472D01*
G01*
X460346Y146767D02*
G03*
X460077Y149967I-47096J-2353D01*
G01*
X455172Y146483D02*
G03*
X454939Y149287I-41892J-2072D01*
G01*
X455224Y144387D02*
G03*
X455172Y146483I-42372J2D01*
G01*
X471373Y147191D02*
G03*
X471048Y151092I-58191J-2883D01*
G01*
X468785Y147194D02*
G03*
X468464Y150998I-55685J-2775D01*
G01*
X462978Y150043D02*
G03*
X456460Y169310I-49111J-5878D01*
G01*
X468464Y150998D02*
G03*
X461402Y172163I-54682J-6485D01*
G01*
X466083Y146749D02*
G03*
X465772Y150406I-52971J-2668D01*
G01*
Y150406D02*
G03*
X458913Y170727I-52015J-6237D01*
G01*
X463270Y146606D02*
G03*
X462978Y150043I-50027J-2528D01*
G01*
X473938Y145429D02*
G03*
X473810Y148717I-61269J-747D01*
G01*
X471491Y127576D02*
G03*
X473528Y137555I-57698J16974D01*
G01*
X471048Y151092D02*
G03*
X463584Y173423I-57130J-6684D01*
G01*
X355034Y160162D02*
X389080Y151040D01*
X405620Y84740D02*
X407357Y97931D01*
X413487Y84218D02*
X414158Y84222D01*
X413487Y84176D02*
X413544Y110086D01*
X357726Y121403D02*
X370189Y126565D01*
X353558Y136610D02*
X367062Y138389D01*
X397935Y86151D02*
X406955Y119906D01*
X390413Y88795D02*
X395517Y101118D01*
X376794Y96680D02*
X384925Y107276D01*
X365611Y107763D02*
X376288Y115956D01*
X413511Y121407D02*
X413527Y144500D01*
X420098Y119896D02*
X429175Y86047D01*
X409127Y120242D02*
X409201Y120285D01*
X409055Y120199D02*
X409127Y120242D01*
X409280Y120329D02*
X409359Y120373D01*
X409201Y120285D02*
X409280Y120329D01*
X409445Y120419D02*
X409536Y120466D01*
X409628Y120512D01*
X409726Y120560D01*
X409836Y120611D01*
X409359Y120373D02*
X409445Y120419D01*
X355135Y128865D02*
X389023Y137945D01*
X361218Y114322D02*
X391527Y131821D01*
X383342Y92287D02*
X400778Y122487D01*
X370849Y101862D02*
X395537Y126549D01*
X417329Y120548D02*
X417427Y120500D01*
X417519Y120454D01*
X417605Y120408D01*
X417225Y120598D02*
X417329Y120548D01*
X409951Y120663D02*
X410079Y120719D01*
X409836Y120611D02*
X409951Y120663D01*
X417605Y120408D02*
X417691Y120363D01*
X417771Y120318D01*
X417845Y120276D01*
X417918Y120234D01*
X417991Y120190D01*
X418059Y120149D02*
X418125Y120107D01*
X418248Y120028D02*
X418308Y119988D01*
X418368Y119947D01*
X418187Y120068D02*
X418248Y120028D01*
X418368Y119947D02*
X418423Y119909D01*
X418125Y120107D02*
X418187Y120068D01*
X417991Y120190D02*
X418059Y120149D01*
X418423Y119909D02*
X418477Y119871D01*
X417109Y120650D02*
X417225Y120598D01*
X411844Y121249D02*
X412823Y116659D01*
X416982Y120706D02*
X417109Y120650D01*
X416842Y120765D02*
X416982Y120706D01*
X414209Y116659D02*
X415188Y121249D01*
X412816Y88967D02*
X413431Y88964D01*
X412899Y86376D02*
X413544Y86373D01*
X418477Y119871D02*
X418531Y119832D01*
X418689Y119712D02*
X418737Y119675D01*
X418584Y119792D02*
X418637Y119753D01*
X418531Y119832D02*
X418584Y119792D01*
X418637Y119753D02*
X418689Y119712D01*
X418737Y119675D02*
X418784Y119638D01*
X418831Y119600D01*
X418877Y119562D01*
X418881Y119558D01*
X413892Y121415D02*
X414033Y121408D01*
X413639Y121423D02*
X413762Y121420D01*
X413892Y121415D01*
X414033Y121408D02*
X414180Y121397D01*
X413516Y121424D02*
X413639Y121423D01*
X413469Y121424D02*
X413516Y121424D01*
X413099Y121413D02*
X413228Y121419D01*
X412958Y121405D02*
X413099Y121413D01*
X413228Y121419D02*
X413351Y121422D01*
X413469Y121424D01*
X353051Y144500D02*
X473924D01*
X438056Y137917D02*
X471840Y128865D01*
X435434Y157171D02*
X465869Y174743D01*
X438944Y145233D02*
X446728Y144500D01*
X438000Y151067D02*
X471952Y160165D01*
X413514Y144447D02*
Y144448D01*
X413512Y144457D02*
X413514Y144448D01*
X413511Y144459D02*
X413512Y144457D01*
X413516Y144452D01*
X413504Y144483D02*
X413511Y144459D01*
X413487Y144500D02*
X413511Y144459D01*
X413504Y144483D02*
X413519Y144468D01*
X413487Y144500D02*
X413504Y144483D01*
X413496Y144515D02*
X413504Y144483D01*
X413511Y144459D02*
X413512Y144457D01*
X413527Y144500D02*
X413544Y169959D01*
X353558Y152390D02*
X367091Y150608D01*
X357613Y167644D02*
X370269Y162401D01*
X361105Y174743D02*
X391625Y157122D01*
X413516Y112050D02*
X413534Y112051D01*
X431473Y101078D02*
X436561Y88795D01*
X426225Y122438D02*
X443633Y92287D01*
X432041Y127042D02*
X437027Y121021D01*
X431494Y126493D02*
X456125Y101862D01*
X450757Y115902D02*
X461363Y107763D01*
X419620Y97916D02*
X421354Y84740D01*
X442092Y107222D02*
X450211Y96641D01*
X431004Y126006D02*
X437027Y121021D01*
X438944Y143767D02*
X446728Y144500D01*
X452179Y143642D02*
X452182Y144162D01*
X435293Y131367D02*
X435532Y131773D01*
X465757Y114322D01*
X463328Y143193D02*
X463335Y144049D01*
X460403Y143852D02*
X460406Y144387D01*
X455218Y143685D02*
X455224Y144387D01*
X446662Y144606D02*
X446663Y144387D01*
X443619Y144702D02*
X443621Y144387D01*
X449703Y144554D02*
X449704Y144275D01*
X413798Y114743D02*
X413799Y114743D01*
X413506Y114778D02*
X413516Y114778D01*
X413525Y114778D01*
X415990Y111357D02*
X415991D01*
X413799Y114743D02*
X414209Y116659D01*
X412823D02*
X413232Y114743D01*
X412912Y105414D02*
X413431Y105411D01*
X413023Y97528D02*
X413544Y97525D01*
X412876Y94263D02*
X413544Y94258D01*
X412784Y91333D02*
X413431Y91329D01*
X413034Y102710D02*
X413544Y102707D01*
X413232Y114743D02*
X413233Y114743D01*
X390013Y121021D02*
X394999Y127042D01*
X390013Y121021D02*
X396035Y126006D01*
X408458Y119800D02*
X408511Y119839D01*
X408258Y119646D02*
X408305Y119684D01*
X408212Y119608D02*
X408258Y119646D01*
X408305Y119684D02*
X408353Y119721D01*
X408161Y119567D02*
X408212Y119608D01*
X408353Y119721D02*
X408405Y119761D01*
X408673Y119954D02*
X408733Y119995D01*
X408405Y119761D02*
X408458Y119800D01*
X380425Y144500D02*
X388208Y145233D01*
X380425Y144500D02*
X388208Y143767D01*
X408564Y119878D02*
X408619Y119916D01*
X408733Y119995D02*
X408793Y120035D01*
X408854Y120075D02*
X408920Y120117D01*
X408619Y119916D02*
X408673Y119954D01*
X408793Y120035D02*
X408854Y120075D01*
X408511Y119839D02*
X408564Y119878D01*
X408920Y120117D02*
X408987Y120158D01*
X409055Y120199D01*
X466144Y143172D02*
X466151Y144049D01*
X468853Y143905D02*
X468855Y144387D01*
X465869Y174743D02*
X465926Y174775D01*
X473938Y145429D02*
X473943Y144673D01*
X471441Y143583D02*
X471446Y144275D01*
X459994Y150622D02*
X473417Y152390D01*
X456857Y162394D02*
X469361Y167573D01*
X456881Y126526D02*
X469249Y121403D01*
X460024Y138374D02*
X473417Y136610D01*
D42*
X458466Y225886D02*
D03*
X461534Y224114D02*
D03*
X368500Y63500D02*
D03*
X365431Y65272D02*
D03*
D43*
X406799Y230894D02*
D03*
X419201D02*
D03*
X420201Y58106D02*
D03*
X407799D02*
D03*
D44*
X411228Y230894D02*
D03*
X415772Y58106D02*
D03*
D45*
X415264Y230894D02*
D03*
X411736Y58106D02*
D03*
D46*
X404831Y231189D02*
D03*
X421169D02*
D03*
X422169Y57811D02*
D03*
X405831D02*
D03*
D47*
X450827Y222941D02*
D03*
X375673Y66559D02*
D03*
X364933Y72759D02*
D03*
X461567Y216741D02*
D03*
D48*
X415500Y52000D02*
D03*
X411957D02*
D03*
X411728Y237000D02*
D03*
X415272D02*
D03*
D49*
X461034Y65386D02*
D03*
X457966Y63614D02*
D03*
X365466Y223614D02*
D03*
X368534Y225386D02*
D03*
D50*
X493228Y193569D02*
D03*
X495000Y190500D02*
D03*
X334386Y96966D02*
D03*
X332614Y100034D02*
D03*
D51*
X506000Y146272D02*
D03*
Y142728D02*
D03*
X321000D02*
D03*
Y146272D02*
D03*
D52*
X494886Y100034D02*
D03*
X493114Y96966D02*
D03*
X332114Y189966D02*
D03*
X333886Y193034D02*
D03*
D53*
X371837Y68773D02*
D03*
X454663Y220727D02*
D03*
D54*
X368343Y70791D02*
D03*
X458157Y218709D02*
D03*
D55*
X377230Y65319D02*
D03*
X363081Y73488D02*
D03*
X449270Y224181D02*
D03*
X463419Y216012D02*
D03*
D56*
X341759Y95933D02*
D03*
X335559Y106673D02*
D03*
X484741Y194067D02*
D03*
X490941Y183327D02*
D03*
D57*
X339545Y99769D02*
D03*
X486955Y190231D02*
D03*
D58*
X337527Y103264D02*
D03*
X488973Y186736D02*
D03*
D59*
X342488Y94081D02*
D03*
X334319Y108230D02*
D03*
X484012Y195919D02*
D03*
X492181Y181770D02*
D03*
D60*
X326606Y137799D02*
D03*
Y150201D02*
D03*
X499894Y151201D02*
D03*
Y138799D02*
D03*
D61*
X326606Y142228D02*
D03*
X499894Y146772D02*
D03*
D62*
X326606Y146264D02*
D03*
X499894Y142736D02*
D03*
D63*
X326311Y135831D02*
D03*
Y152169D02*
D03*
X500189Y153169D02*
D03*
Y136831D02*
D03*
D64*
X335059Y181827D02*
D03*
X341259Y192567D02*
D03*
X491941Y107173D02*
D03*
X485741Y96433D02*
D03*
D65*
X337273Y185663D02*
D03*
X489727Y103337D02*
D03*
D66*
X339291Y189157D02*
D03*
X487709Y99843D02*
D03*
D67*
X333819Y180270D02*
D03*
X341988Y194419D02*
D03*
X493181Y108730D02*
D03*
X485012Y94581D02*
D03*
D68*
X364433Y216241D02*
D03*
X375173Y222441D02*
D03*
X462497Y72986D02*
D03*
X451757Y66785D02*
D03*
D69*
X368269Y218455D02*
D03*
X458661Y70771D02*
D03*
D70*
X371764Y220473D02*
D03*
X455166Y68754D02*
D03*
D71*
X362581Y215512D02*
D03*
X376730Y223681D02*
D03*
X464350Y73715D02*
D03*
X450200Y65545D02*
D03*
D72*
X360334Y49091D02*
D03*
X338404Y64446D02*
D03*
D73*
X395505Y78000D02*
D03*
X395500Y70500D02*
D03*
M02*
