G04*
G04 #@! TF.GenerationSoftware,Altium Limited,Altium Designer,21.8.1 (53)*
G04*
G04 Layer_Color=32896*
%FSLAX25Y25*%
%MOIN*%
G70*
G04*
G04 #@! TF.SameCoordinates,4D66A8FD-5AEA-4BBE-AC91-A6DA004BC610*
G04*
G04*
G04 #@! TF.FilePolarity,Positive*
G04*
G01*
G75*
%ADD10C,0.00394*%
%ADD86C,0.00787*%
G36*
X487636Y103027D02*
X485257D01*
Y101775D01*
X486384D01*
Y100648D01*
X486259D01*
Y100523D01*
X483254D01*
Y100648D01*
X483003D01*
Y100523D01*
X482878D01*
Y100398D01*
X482753D01*
Y100022D01*
X482878D01*
Y99897D01*
X482753D01*
Y99521D01*
X482878D01*
Y99396D01*
X484005D01*
Y97017D01*
X485132D01*
Y96892D01*
X485257D01*
Y95765D01*
X486384D01*
Y98144D01*
X487636D01*
Y94889D01*
X490015D01*
Y93762D01*
X490140D01*
Y93637D01*
X490891D01*
Y92510D01*
D01*
D01*
X493270D01*
Y91383D01*
X493395D01*
Y91258D01*
X495649D01*
Y91133D01*
X495774D01*
Y88879D01*
X496901D01*
Y87752D01*
X496776D01*
Y87627D01*
X495774D01*
Y86500D01*
X496776D01*
Y86375D01*
X496901D01*
Y76859D01*
X495774D01*
Y77986D01*
X495649D01*
Y78111D01*
X494647D01*
Y77986D01*
X494522D01*
Y76859D01*
X493270D01*
Y77610D01*
X493395D01*
Y77861D01*
X493270D01*
Y77986D01*
X493145D01*
Y78111D01*
X492269D01*
Y77986D01*
X492143D01*
Y77610D01*
Y77485D01*
Y76859D01*
X493270D01*
Y75983D01*
X492143D01*
Y74856D01*
X492018D01*
Y74731D01*
X490891D01*
Y73604D01*
X490015D01*
Y74731D01*
X488888D01*
Y74606D01*
X488763D01*
Y72727D01*
X488888D01*
Y72602D01*
X488763D01*
Y72352D01*
X486384D01*
Y73479D01*
X486259D01*
Y73604D01*
X484380D01*
Y73479D01*
X484255D01*
Y73604D01*
X484005D01*
Y74731D01*
X482878D01*
Y74606D01*
X482753D01*
Y71475D01*
Y71350D01*
Y71100D01*
X481751D01*
Y71225D01*
X481626D01*
Y72352D01*
X480499D01*
Y72477D01*
X480374D01*
Y74606D01*
X480499D01*
Y74731D01*
X481501D01*
Y74856D01*
X481626D01*
Y75858D01*
X481751D01*
Y75983D01*
X484005D01*
Y74731D01*
X485132D01*
Y74856D01*
X485257D01*
Y75858D01*
X485132D01*
Y75983D01*
X484005D01*
Y76734D01*
X484130D01*
Y76859D01*
X485132D01*
Y76984D01*
X485257D01*
Y79238D01*
X486384D01*
Y80365D01*
X486509D01*
Y80490D01*
X488763D01*
Y80615D01*
X488888D01*
Y80866D01*
X488763D01*
Y81617D01*
D01*
D01*
X486509D01*
Y81742D01*
X486384D01*
Y83996D01*
X487010D01*
Y84121D01*
X487260D01*
Y83996D01*
X488137D01*
Y84121D01*
X488387D01*
Y83996D01*
X488637D01*
Y84121D01*
X488763D01*
Y84246D01*
X488888D01*
Y84497D01*
X488763D01*
Y85874D01*
X488888D01*
Y85999D01*
X488763D01*
Y86375D01*
X488888D01*
Y86500D01*
X490015D01*
Y87627D01*
X490891D01*
Y86500D01*
X492143D01*
Y85373D01*
X492018D01*
Y85248D01*
X490015D01*
Y84121D01*
X490140D01*
Y83996D01*
X490516D01*
Y84121D01*
X490641D01*
Y83996D01*
X492644D01*
Y84121D01*
X492895D01*
Y83996D01*
X493145D01*
Y84121D01*
X493270D01*
Y84246D01*
X493395D01*
Y84497D01*
X493270D01*
Y86124D01*
X493395D01*
Y86250D01*
X493270D01*
Y86500D01*
X492143D01*
Y87627D01*
X493270D01*
Y87877D01*
X493395D01*
Y88003D01*
X493270D01*
Y88754D01*
X493395D01*
Y88879D01*
X494522D01*
Y90006D01*
X494397D01*
Y90131D01*
X494021D01*
Y90006D01*
X493771D01*
Y90131D01*
X493520D01*
Y90006D01*
X493270D01*
Y88879D01*
X488888D01*
Y88754D01*
X488763D01*
Y88003D01*
X488888D01*
Y87877D01*
X488763D01*
Y87627D01*
X487636D01*
Y88754D01*
X487511D01*
Y88879D01*
X486509D01*
Y89004D01*
X486384D01*
Y90006D01*
D01*
D01*
X485883D01*
Y90131D01*
X485507D01*
Y90006D01*
X485382D01*
Y90131D01*
X485257D01*
Y92510D01*
X487636D01*
Y93637D01*
X485257D01*
Y94763D01*
X485132D01*
Y94889D01*
X484005D01*
Y97017D01*
X482878D01*
Y97518D01*
X482753D01*
Y97768D01*
X482878D01*
Y98019D01*
X482753D01*
Y98144D01*
X480499D01*
Y98269D01*
X480374D01*
Y99271D01*
X480499D01*
Y99396D01*
X481626D01*
Y100523D01*
X481376D01*
Y100648D01*
X481250D01*
Y100523D01*
X480499D01*
Y100648D01*
X480374D01*
Y101775D01*
X476868D01*
Y101650D01*
X476743D01*
Y101274D01*
X476868D01*
Y101149D01*
X476743D01*
Y101024D01*
X476868D01*
Y100773D01*
X476743D01*
Y100523D01*
X475616D01*
Y102902D01*
X475491D01*
Y103027D01*
X474364D01*
Y104029D01*
X474489D01*
Y104154D01*
X476743D01*
Y104029D01*
X476868D01*
Y103778D01*
X476743D01*
Y103528D01*
X476868D01*
Y103403D01*
X476743D01*
Y103152D01*
X476868D01*
Y103027D01*
X476993D01*
Y102902D01*
X477119D01*
Y103027D01*
X477995D01*
Y104154D01*
X481626D01*
Y103027D01*
X480499D01*
Y102902D01*
X480374D01*
Y101775D01*
X484005D01*
Y102902D01*
X483880D01*
Y103027D01*
X482878D01*
Y103152D01*
X482753D01*
Y103403D01*
X482878D01*
Y103778D01*
X482753D01*
Y104029D01*
X482878D01*
Y104154D01*
X487636D01*
Y103027D01*
D02*
G37*
G36*
X496901Y95765D02*
X488888D01*
Y95890D01*
X488763D01*
Y96266D01*
X488888D01*
Y96391D01*
X488763D01*
Y103528D01*
X488888D01*
Y103653D01*
X488763D01*
Y104029D01*
X488888D01*
Y104154D01*
X496901D01*
Y95765D01*
D02*
G37*
G36*
X473112Y102902D02*
X473237D01*
Y102401D01*
Y102276D01*
Y101775D01*
X474364D01*
Y100523D01*
X475616D01*
Y99396D01*
X477995D01*
Y100523D01*
X478245D01*
Y100648D01*
X478371D01*
Y100523D01*
X479247D01*
Y97017D01*
X480249D01*
Y96892D01*
X480374D01*
Y96266D01*
Y96141D01*
Y95765D01*
X479247D01*
Y97017D01*
X477995D01*
Y97142D01*
Y97268D01*
Y98144D01*
X475616D01*
Y95765D01*
X476743D01*
Y95640D01*
X476868D01*
Y95390D01*
X476743D01*
Y95014D01*
X476868D01*
Y94889D01*
X477995D01*
Y95765D01*
X476868D01*
Y96642D01*
X476743D01*
Y96767D01*
X476868D01*
Y97017D01*
X477995D01*
Y96892D01*
Y96767D01*
Y95765D01*
X479247D01*
Y94889D01*
X480374D01*
Y93637D01*
X481626D01*
Y93011D01*
Y92886D01*
Y92510D01*
X480374D01*
Y93637D01*
X479247D01*
Y92510D01*
X476868D01*
Y92635D01*
X476743D01*
Y92886D01*
X476868D01*
Y93511D01*
X476743D01*
Y93637D01*
X474364D01*
Y91258D01*
X473237D01*
Y90131D01*
X473362D01*
Y90006D01*
X473988D01*
Y90131D01*
X474239D01*
Y90006D01*
X474364D01*
Y89004D01*
X474489D01*
Y88879D01*
X475616D01*
Y90006D01*
X475741D01*
Y90131D01*
X475992D01*
Y90006D01*
X476868D01*
Y89254D01*
X476743D01*
Y89004D01*
X476868D01*
Y88879D01*
X479122D01*
Y89004D01*
X479247D01*
Y91258D01*
X480374D01*
Y90131D01*
X480499D01*
Y90006D01*
X482628D01*
Y90131D01*
X482753D01*
Y90256D01*
X482878D01*
Y90507D01*
X482753D01*
Y90632D01*
X482878D01*
Y90882D01*
X482753D01*
Y91133D01*
X482878D01*
Y91258D01*
X484005D01*
Y90131D01*
X484130D01*
Y90006D01*
X485257D01*
Y89004D01*
X485132D01*
Y88879D01*
X484005D01*
Y87627D01*
X487636D01*
Y86500D01*
X486509D01*
Y86375D01*
X486384D01*
Y84121D01*
X485382D01*
Y83996D01*
X485257D01*
Y83871D01*
Y83745D01*
Y80615D01*
X485132D01*
Y80490D01*
X484005D01*
Y82869D01*
X482878D01*
Y84872D01*
X482753D01*
Y85123D01*
X482878D01*
Y85248D01*
X485132D01*
Y85373D01*
X485257D01*
Y86375D01*
X485132D01*
Y86500D01*
X484005D01*
Y87627D01*
X482878D01*
Y87877D01*
X482753D01*
Y88128D01*
X482878D01*
Y88253D01*
X482753D01*
Y88378D01*
X482878D01*
Y88754D01*
X482753D01*
Y88879D01*
X480499D01*
Y88754D01*
X480374D01*
Y87627D01*
X481626D01*
Y86500D01*
X480374D01*
Y87627D01*
X479247D01*
Y86500D01*
X480374D01*
Y85373D01*
X480499D01*
Y85248D01*
X481626D01*
Y84121D01*
X481501D01*
Y83996D01*
X481250D01*
Y84121D01*
X478371D01*
Y83996D01*
X478120D01*
Y84121D01*
X477995D01*
Y85248D01*
X476868D01*
Y85498D01*
X476743D01*
Y85624D01*
X476868D01*
Y86500D01*
X477995D01*
Y87627D01*
X476868D01*
Y87502D01*
X476743D01*
Y87251D01*
X476868D01*
Y86625D01*
X476743D01*
Y86500D01*
X475741D01*
Y86375D01*
X475616D01*
Y84121D01*
X475491D01*
Y83996D01*
X475241D01*
Y84121D01*
X474489D01*
Y83996D01*
X474364D01*
Y81617D01*
X475491D01*
Y81742D01*
X475616D01*
Y82869D01*
X476743D01*
Y82744D01*
X476868D01*
Y82368D01*
X476743D01*
Y82243D01*
X476868D01*
Y80991D01*
X476743D01*
Y80741D01*
X476868D01*
Y80115D01*
X476743D01*
Y79989D01*
X476868D01*
Y79739D01*
X476743D01*
Y79363D01*
X476868D01*
Y79238D01*
X477995D01*
Y78111D01*
X478120D01*
Y77986D01*
X478371D01*
Y78111D01*
X479122D01*
Y77986D01*
X479247D01*
Y76984D01*
X479122D01*
Y76859D01*
X477995D01*
Y75983D01*
X479122D01*
Y75858D01*
X479247D01*
Y73604D01*
X478997D01*
Y73479D01*
X478871D01*
Y73604D01*
X478371D01*
Y73479D01*
X478245D01*
Y73604D01*
X477995D01*
Y75106D01*
Y75231D01*
Y75983D01*
X475616D01*
Y76859D01*
X474489D01*
Y76734D01*
X474364D01*
Y75983D01*
X473237D01*
Y78111D01*
X472361D01*
Y77986D01*
X472236D01*
Y78111D01*
X471985D01*
Y79238D01*
X469982D01*
Y79363D01*
X469857D01*
Y79864D01*
Y79989D01*
Y80365D01*
X469982D01*
Y80490D01*
X471860D01*
Y80365D01*
X471985D01*
Y79238D01*
X473112D01*
Y79113D01*
X473237D01*
Y78111D01*
X475241D01*
Y77986D01*
X475491D01*
Y78111D01*
X475616D01*
Y80365D01*
X475491D01*
Y80490D01*
X474489D01*
Y80615D01*
X474364D01*
Y81617D01*
X473362D01*
Y81742D01*
X473237D01*
Y85248D01*
X471109D01*
Y86375D01*
X470984D01*
Y86500D01*
X466351D01*
Y88503D01*
X466226D01*
Y88629D01*
X466351D01*
Y88879D01*
X467478D01*
Y87752D01*
X467603D01*
Y87627D01*
X468605D01*
Y87752D01*
X468730D01*
Y88879D01*
X467478D01*
Y90006D01*
X467353D01*
Y90131D01*
X467102D01*
Y90006D01*
X466852D01*
Y90131D01*
X466727D01*
Y90006D01*
X466476D01*
Y90131D01*
X466351D01*
Y90256D01*
X466226D01*
Y90381D01*
X466351D01*
Y91258D01*
X463847D01*
Y92385D01*
X463972D01*
Y92510D01*
X465099D01*
Y93637D01*
X463972D01*
Y93511D01*
X463847D01*
Y92510D01*
X462720D01*
Y94889D01*
X464974D01*
Y94763D01*
X465099D01*
Y93637D01*
X467478D01*
Y92510D01*
X466351D01*
Y92259D01*
X466226D01*
Y92134D01*
X466351D01*
Y91258D01*
X468605D01*
Y91133D01*
X468730D01*
Y88879D01*
X469857D01*
Y87752D01*
X469982D01*
Y87627D01*
X470984D01*
Y87752D01*
X471109D01*
Y88879D01*
X469857D01*
Y90006D01*
X470107D01*
Y90131D01*
X470358D01*
Y90006D01*
X471860D01*
Y90131D01*
X471985D01*
Y91258D01*
X469982D01*
Y91383D01*
X469857D01*
Y92385D01*
X469982D01*
Y92510D01*
X473237D01*
Y93637D01*
X472110D01*
Y93762D01*
X471985D01*
Y96892D01*
X472110D01*
Y97017D01*
X473112D01*
Y96892D01*
X473237D01*
Y94889D01*
X475616D01*
Y95765D01*
X474489D01*
Y95890D01*
X474364D01*
Y100523D01*
X473362D01*
Y100648D01*
X473237D01*
Y101775D01*
X472110D01*
Y101900D01*
X471985D01*
Y102902D01*
X472110D01*
Y103027D01*
X473112D01*
Y102902D01*
D02*
G37*
G36*
X471109Y95765D02*
X462720D01*
Y104154D01*
X471109D01*
Y95765D01*
D02*
G37*
G36*
X482753Y94889D02*
X481626D01*
Y96892D01*
X481751D01*
Y97017D01*
X482753D01*
Y94889D01*
D02*
G37*
G36*
X484005Y93762D02*
X483880D01*
Y93637D01*
X482878D01*
Y93887D01*
X482753D01*
Y94138D01*
X482878D01*
Y94889D01*
X484005D01*
Y93762D01*
D02*
G37*
G36*
X470984Y94763D02*
X471109D01*
Y93762D01*
X470984D01*
Y93637D01*
X469982D01*
Y93762D01*
X469857D01*
Y94388D01*
Y94513D01*
Y94763D01*
X469982D01*
Y94889D01*
X470984D01*
Y94763D01*
D02*
G37*
G36*
X495649D02*
X495774D01*
Y94012D01*
X495649D01*
Y93887D01*
X495774D01*
Y93637D01*
X496901D01*
Y92510D01*
X493270D01*
Y92760D01*
Y92886D01*
Y93511D01*
X493395D01*
Y93637D01*
X494397D01*
Y93762D01*
X494522D01*
Y94763D01*
X494647D01*
Y94889D01*
X495649D01*
Y94763D01*
D02*
G37*
G36*
X477995Y90131D02*
X477870D01*
Y90006D01*
X477494D01*
Y90131D01*
X477244D01*
Y90006D01*
X476868D01*
Y90882D01*
X476743D01*
Y91133D01*
X476868D01*
Y91258D01*
X477995D01*
Y90131D01*
D02*
G37*
G36*
X480374Y81617D02*
X479247D01*
Y82744D01*
Y82869D01*
X480374D01*
Y81617D01*
D02*
G37*
G36*
X463847Y90006D02*
X464723D01*
Y90131D01*
X464974D01*
Y90006D01*
X465099D01*
Y85248D01*
X471109D01*
Y84121D01*
X469982D01*
Y83996D01*
X469857D01*
Y82869D01*
X471109D01*
Y83996D01*
X471610D01*
Y84121D01*
X471860D01*
Y83996D01*
X471985D01*
Y81742D01*
X471860D01*
Y81617D01*
X469982D01*
Y81742D01*
X469857D01*
Y82869D01*
X468730D01*
Y80490D01*
X467478D01*
Y82869D01*
X466351D01*
Y83996D01*
X466101D01*
Y84121D01*
X465725D01*
Y83996D01*
X465600D01*
Y84121D01*
X465224D01*
Y83996D01*
X465099D01*
Y82869D01*
X466351D01*
Y82118D01*
Y81993D01*
Y81742D01*
X466226D01*
Y81617D01*
X465224D01*
Y81742D01*
X465099D01*
Y82869D01*
X463972D01*
Y82994D01*
X463847D01*
Y90006D01*
X463471D01*
Y90131D01*
X463096D01*
Y90006D01*
X462845D01*
Y90131D01*
X462720D01*
Y91258D01*
X463847D01*
Y90006D01*
D02*
G37*
G36*
X482753Y79363D02*
X482878D01*
Y79238D01*
X484005D01*
Y78111D01*
X483754D01*
Y77986D01*
X483629D01*
Y78111D01*
X481751D01*
Y77986D01*
X481626D01*
Y76859D01*
X480499D01*
Y76984D01*
X480374D01*
Y77986D01*
X480249D01*
Y78111D01*
X479247D01*
Y79113D01*
X479122D01*
Y79238D01*
X477995D01*
Y81617D01*
X479247D01*
Y80490D01*
X481626D01*
Y80866D01*
Y80991D01*
Y82869D01*
X482753D01*
Y79363D01*
D02*
G37*
G36*
X467478Y79238D02*
X466351D01*
Y79488D01*
X466226D01*
Y79614D01*
X466351D01*
Y80115D01*
X466226D01*
Y80240D01*
X466351D01*
Y80490D01*
X467478D01*
Y79238D01*
D02*
G37*
G36*
X463847Y80615D02*
X463972D01*
Y80490D01*
X464974D01*
Y80365D01*
X465099D01*
Y79363D01*
X464974D01*
Y79238D01*
X462720D01*
Y81617D01*
X463847D01*
Y80615D01*
D02*
G37*
G36*
X470984Y77986D02*
X471109D01*
Y69973D01*
X462720D01*
Y70474D01*
Y70599D01*
Y77986D01*
X462845D01*
Y78111D01*
X463221D01*
Y77986D01*
X463346D01*
Y78111D01*
X470483D01*
Y77986D01*
X470608D01*
Y78111D01*
X470984D01*
Y77986D01*
D02*
G37*
G36*
X475616Y73604D02*
X475366D01*
Y73479D01*
X475241D01*
Y73604D01*
X473237D01*
Y74731D01*
X475616D01*
Y73604D01*
D02*
G37*
G36*
X496901Y74856D02*
Y74731D01*
Y73604D01*
X495899D01*
Y73479D01*
X495774D01*
Y73353D01*
X495649D01*
Y73228D01*
X495774D01*
Y72477D01*
X495649D01*
Y72352D01*
X494522D01*
Y74731D01*
X493395D01*
Y74856D01*
X493270D01*
Y75858D01*
X493395D01*
Y75983D01*
X496901D01*
Y74856D01*
D02*
G37*
G36*
X486384Y71225D02*
X486259D01*
Y71100D01*
X485257D01*
Y72352D01*
X486384D01*
Y71225D01*
D02*
G37*
G36*
X494522Y71100D02*
X495649D01*
Y70975D01*
X495774D01*
Y70098D01*
X495649D01*
Y69973D01*
X494522D01*
Y71100D01*
X491267D01*
Y71225D01*
X491142D01*
Y71100D01*
X490891D01*
Y69973D01*
X490015D01*
Y72352D01*
X494522D01*
Y71100D01*
D02*
G37*
G36*
X488763Y70975D02*
X488888D01*
Y70849D01*
X488763D01*
Y70349D01*
X488888D01*
Y70098D01*
X488763D01*
Y69973D01*
X487636D01*
Y71100D01*
X488763D01*
Y70975D01*
D02*
G37*
G36*
X485257Y70474D02*
Y70349D01*
Y70098D01*
X485132D01*
Y69973D01*
X482878D01*
Y70098D01*
X482753D01*
Y70349D01*
X482878D01*
Y71100D01*
X485257D01*
Y70474D01*
D02*
G37*
G36*
X477995Y71100D02*
X479247D01*
Y70098D01*
X479122D01*
Y69973D01*
X477995D01*
Y71100D01*
X476868D01*
Y71350D01*
X476743D01*
Y71475D01*
Y71601D01*
X476868D01*
Y71976D01*
X476743D01*
Y72227D01*
X476868D01*
Y72352D01*
X477995D01*
Y71100D01*
D02*
G37*
G36*
X474364Y71225D02*
X474239D01*
Y71100D01*
X473237D01*
Y69973D01*
X471985D01*
Y72227D01*
X472110D01*
Y72352D01*
X474364D01*
Y71225D01*
D02*
G37*
G36*
X325491Y93729D02*
X316538Y85894D01*
X330719Y87754D01*
X332073Y86207D01*
X320683Y76241D01*
X319416Y77690D01*
X328353Y85510D01*
X314203Y83648D01*
X312835Y85211D01*
X324224Y95177D01*
X325491Y93729D01*
D02*
G37*
G36*
X333741Y81477D02*
X334297Y81440D01*
X334772Y81362D01*
X334986Y81317D01*
X335155Y81290D01*
X335291Y81234D01*
X335398Y81212D01*
X335443Y81193D01*
X335474Y81191D01*
X335821Y81059D01*
X336153Y80913D01*
X336768Y80609D01*
X337331Y80230D01*
X337788Y79874D01*
X337994Y79706D01*
X338200Y79537D01*
X338346Y79403D01*
X338475Y79255D01*
X338593Y79154D01*
X338722Y79006D01*
X339094Y78548D01*
X339405Y78093D01*
X339669Y77626D01*
X339901Y77161D01*
X340072Y76700D01*
X340228Y76256D01*
X340339Y75830D01*
X340422Y75437D01*
X340489Y75060D01*
X340528Y74717D01*
X340555Y74420D01*
X340553Y74157D01*
X340555Y73956D01*
X340559Y73785D01*
X340553Y73692D01*
X340551Y73661D01*
X340469Y73124D01*
X340341Y72606D01*
X340166Y72075D01*
X339948Y71594D01*
X339699Y71114D01*
X339453Y70666D01*
X339177Y70250D01*
X338889Y69882D01*
X338617Y69528D01*
X338348Y69205D01*
X338097Y68927D01*
X337895Y68693D01*
X337698Y68520D01*
X337564Y68374D01*
X337465Y68287D01*
X337449Y68273D01*
X337432Y68259D01*
X336844Y67802D01*
X336276Y67421D01*
X335696Y67088D01*
X335424Y66967D01*
X335153Y66845D01*
X334928Y66736D01*
X334706Y66658D01*
X334515Y66578D01*
X334340Y66512D01*
X334212Y66458D01*
X334118Y66434D01*
X334040Y66423D01*
X334023Y66409D01*
X333301Y66271D01*
X332630Y66207D01*
X331980Y66220D01*
X331410Y66273D01*
X330919Y66337D01*
X330719Y66366D01*
X330567Y66407D01*
X330415Y66448D01*
X330308Y66471D01*
X330262Y66489D01*
X330231Y66491D01*
X329884Y66623D01*
X329553Y66769D01*
X328923Y67090D01*
X328374Y67452D01*
X327886Y67810D01*
X327666Y67995D01*
X327491Y68162D01*
X327314Y68298D01*
X327185Y68446D01*
X327082Y68530D01*
X326938Y68695D01*
X326495Y69267D01*
X326131Y69849D01*
X325812Y70413D01*
X325691Y70684D01*
X325584Y70939D01*
X325491Y71178D01*
X325413Y71400D01*
X325347Y71575D01*
X325296Y71733D01*
X325259Y71876D01*
X325220Y71987D01*
X325224Y72048D01*
X325209Y72065D01*
X325102Y72785D01*
X325086Y73468D01*
X325144Y74099D01*
X325228Y74667D01*
X325339Y75171D01*
X325382Y75354D01*
X325440Y75521D01*
X325481Y75673D01*
X325518Y75764D01*
X325539Y75840D01*
X325555Y75854D01*
X325703Y76217D01*
X325880Y76546D01*
X326248Y77188D01*
X326660Y77780D01*
X327065Y78280D01*
X327265Y78484D01*
X327433Y78689D01*
X327600Y78864D01*
X327748Y78994D01*
X327866Y79126D01*
X327948Y79198D01*
X328014Y79255D01*
X328030Y79270D01*
X328684Y79784D01*
X329318Y80222D01*
X329625Y80403D01*
X329945Y80568D01*
X330234Y80704D01*
X330491Y80841D01*
X330746Y80948D01*
X330984Y81041D01*
X331176Y81121D01*
X331365Y81171D01*
X331493Y81224D01*
X331587Y81249D01*
X331665Y81259D01*
X331682Y81274D01*
X332390Y81428D01*
X333091Y81489D01*
X333741Y81477D01*
D02*
G37*
%LPC*%
G36*
X490891Y92510D02*
X490140D01*
Y92385D01*
X490015D01*
Y90131D01*
X490140D01*
Y90006D01*
X490766D01*
Y90131D01*
X490891D01*
Y92510D01*
D01*
D01*
D02*
G37*
G36*
X488763Y91258D02*
X486509D01*
Y91133D01*
X486384D01*
Y90006D01*
D01*
D01*
X488637D01*
Y90131D01*
X488763D01*
Y90256D01*
X488888D01*
Y90507D01*
X488763D01*
Y90882D01*
X488888D01*
Y91133D01*
X488763D01*
Y91258D01*
D02*
G37*
G36*
X495774Y86500D02*
X494647D01*
Y86375D01*
X494522D01*
Y85248D01*
X495649D01*
Y85373D01*
X495774D01*
Y86500D01*
D02*
G37*
G36*
X495649Y84121D02*
X495148D01*
Y83996D01*
X495023D01*
Y84121D01*
X494647D01*
Y83996D01*
X494522D01*
Y82869D01*
X493395D01*
Y82744D01*
X493270D01*
Y81993D01*
X493395D01*
Y81867D01*
X493270D01*
Y81617D01*
X492143D01*
Y82744D01*
X492018D01*
Y82869D01*
X491016D01*
Y82744D01*
X490891D01*
Y81742D01*
X491016D01*
Y81617D01*
X492143D01*
Y80490D01*
X493270D01*
Y80240D01*
X493395D01*
Y80115D01*
X493270D01*
Y79363D01*
X493395D01*
Y79238D01*
X494522D01*
Y80365D01*
X494647D01*
Y80490D01*
X495649D01*
Y80615D01*
X495774D01*
Y83996D01*
X495649D01*
Y84121D01*
D02*
G37*
G36*
X490015Y82869D02*
X488888D01*
Y82744D01*
X488763D01*
Y81617D01*
D01*
D01*
X489890D01*
Y81742D01*
X490015D01*
Y82869D01*
D02*
G37*
G36*
X490891Y79238D02*
X487636D01*
Y75983D01*
X490891D01*
Y79238D01*
D02*
G37*
%LPD*%
G36*
X489890Y77986D02*
X490015D01*
Y76859D01*
X488888D01*
Y76984D01*
X488763D01*
Y77360D01*
X488888D01*
Y77610D01*
X488763D01*
Y77861D01*
X488888D01*
Y77986D01*
X489013D01*
Y78111D01*
X489264D01*
Y77986D01*
X489514D01*
Y78111D01*
X489890D01*
Y77986D01*
D02*
G37*
%LPC*%
G36*
X495649Y103027D02*
X490140D01*
Y102902D01*
X490015D01*
Y97017D01*
X495774D01*
Y102902D01*
X495649D01*
Y103027D01*
D02*
G37*
%LPD*%
G36*
X494522Y98269D02*
X494397D01*
Y98144D01*
X491016D01*
Y98269D01*
X490891D01*
Y98520D01*
Y98645D01*
Y101650D01*
X491016D01*
Y101775D01*
X494522D01*
Y98269D01*
D02*
G37*
%LPC*%
G36*
X473112Y88879D02*
X472110D01*
Y88754D01*
X471985D01*
Y87752D01*
X472110D01*
Y87627D01*
X473237D01*
Y86500D01*
X474364D01*
Y87376D01*
Y87502D01*
Y87627D01*
X473237D01*
Y88754D01*
X473112D01*
Y88879D01*
D02*
G37*
G36*
X469732Y103027D02*
X463972D01*
Y102902D01*
X463847D01*
Y97142D01*
X463972D01*
Y97017D01*
X469857D01*
Y99521D01*
Y99647D01*
Y102902D01*
X469732D01*
Y103027D01*
D02*
G37*
%LPD*%
G36*
X468605Y101650D02*
X468730D01*
Y101525D01*
Y98269D01*
X468605D01*
Y98144D01*
X465224D01*
Y98269D01*
X465099D01*
Y101775D01*
X468605D01*
Y101650D01*
D02*
G37*
%LPC*%
G36*
X469857Y76859D02*
X463972D01*
Y76734D01*
X463847D01*
Y71225D01*
X463972D01*
Y71100D01*
X469857D01*
Y76859D01*
D02*
G37*
%LPD*%
G36*
X468605Y75858D02*
X468730D01*
Y72477D01*
X468605D01*
Y72352D01*
X465099D01*
Y75858D01*
X465224D01*
Y75983D01*
X468605D01*
Y75858D01*
D02*
G37*
%LPC*%
G36*
X333569Y79582D02*
X333132Y79549D01*
X332772Y79496D01*
X332474Y79438D01*
X332379Y79414D01*
X332301Y79403D01*
X332254Y79391D01*
X332237Y79377D01*
X331698Y79196D01*
X331170Y78936D01*
X330703Y78673D01*
X330281Y78391D01*
X330071Y78266D01*
X329908Y78153D01*
X329760Y78023D01*
X329631Y77938D01*
X329532Y77852D01*
X329466Y77794D01*
X329417Y77751D01*
X329400Y77737D01*
X329020Y77375D01*
X328670Y77011D01*
X328351Y76644D01*
X328080Y76291D01*
X327870Y75933D01*
X327662Y75605D01*
X327485Y75276D01*
X327341Y74976D01*
X327244Y74688D01*
X327150Y74431D01*
X327073Y74219D01*
X327030Y74036D01*
X327004Y73867D01*
X326964Y73746D01*
X326960Y73684D01*
X326958Y73653D01*
X326932Y73252D01*
X326952Y72863D01*
X327006Y72503D01*
X327059Y72143D01*
X327145Y71812D01*
X327279Y71493D01*
X327384Y71207D01*
X327520Y70919D01*
X327643Y70678D01*
X327783Y70452D01*
X327894Y70258D01*
X328008Y70096D01*
X328108Y69981D01*
X328164Y69884D01*
X328236Y69802D01*
X328526Y69503D01*
X328818Y69236D01*
X329114Y69030D01*
X329411Y68824D01*
X329725Y68664D01*
X330026Y68520D01*
X330312Y68392D01*
X330600Y68296D01*
X330859Y68232D01*
X331087Y68170D01*
X331301Y68125D01*
X331501Y68096D01*
X331639Y68071D01*
X331762Y68063D01*
X331824Y68059D01*
X331855Y68057D01*
X332258Y68061D01*
X332649Y68113D01*
X333042Y68195D01*
X333420Y68294D01*
X333787Y68440D01*
X334136Y68571D01*
X334778Y68901D01*
X335037Y69069D01*
X335297Y69238D01*
X335523Y69378D01*
X335702Y69505D01*
X335864Y69619D01*
X335980Y69719D01*
X336046Y69777D01*
X336062Y69791D01*
X336508Y70211D01*
X336908Y70618D01*
X337276Y71028D01*
X337566Y71427D01*
X337823Y71797D01*
X338033Y72155D01*
X338212Y72515D01*
X338356Y72816D01*
X338469Y73118D01*
X338564Y73375D01*
X338626Y73604D01*
X338669Y73787D01*
X338695Y73956D01*
X338718Y74063D01*
X338722Y74124D01*
X338724Y74155D01*
X338735Y74542D01*
X338698Y74916D01*
X338644Y75276D01*
X338560Y75638D01*
X338457Y75955D01*
X338354Y76272D01*
X338111Y76815D01*
X337971Y77042D01*
X337846Y77251D01*
X337749Y77428D01*
X337636Y77591D01*
X337551Y77720D01*
X337422Y77869D01*
X337045Y78266D01*
X336634Y78603D01*
X336233Y78862D01*
X335875Y79072D01*
X335544Y79218D01*
X335408Y79274D01*
X335303Y79327D01*
X335181Y79366D01*
X335122Y79401D01*
X335074Y79389D01*
X335060Y79405D01*
X334556Y79517D01*
X334048Y79566D01*
X333569Y79582D01*
D02*
G37*
%LPD*%
D10*
X347169Y79028D02*
G03*
X346776Y79028I-197J0D01*
G01*
D02*
G03*
X347169Y79028I197J0D01*
G01*
X342839Y114461D02*
X359374D01*
X367051Y84539D02*
Y101075D01*
X359374Y84539D02*
X367051D01*
X335949D02*
X343626D01*
X335949D02*
Y101075D01*
X364609Y54509D02*
X367833Y52250D01*
X359930Y40963D02*
X367833Y52250D01*
X356705Y43221D02*
X359930Y40963D01*
X338808Y72574D02*
X342033Y70316D01*
X330905Y61286D02*
X338808Y72574D01*
X330905Y61286D02*
X334130Y59028D01*
X345739Y41287D02*
X350255Y47738D01*
X340901Y44675D02*
X345739Y41287D01*
X340901Y44675D02*
X344288Y49512D01*
D86*
X363061Y58476D02*
G03*
X362416Y58928I-323J226D01*
G01*
D02*
G03*
X363061Y58476I323J-226D01*
G01*
M02*
