G04*
G04 #@! TF.GenerationSoftware,Altium Limited,Altium Designer,21.8.1 (53)*
G04*
G04 Layer_Physical_Order=2*
G04 Layer_Color=16711680*
%FSLAX25Y25*%
%MOIN*%
G70*
G04*
G04 #@! TF.SameCoordinates,4D66A8FD-5AEA-4BBE-AC91-A6DA004BC610*
G04*
G04*
G04 #@! TF.FilePolarity,Positive*
G04*
G01*
G75*
%ADD11C,0.01000*%
%ADD74C,0.01000*%
%ADD75C,0.01772*%
G04:AMPARAMS|DCode=76|XSize=78.74mil|YSize=62.99mil|CornerRadius=15.75mil|HoleSize=0mil|Usage=FLASHONLY|Rotation=0.000|XOffset=0mil|YOffset=0mil|HoleType=Round|Shape=RoundedRectangle|*
%AMROUNDEDRECTD76*
21,1,0.07874,0.03150,0,0,0.0*
21,1,0.04724,0.06299,0,0,0.0*
1,1,0.03150,0.02362,-0.01575*
1,1,0.03150,-0.02362,-0.01575*
1,1,0.03150,-0.02362,0.01575*
1,1,0.03150,0.02362,0.01575*
%
%ADD76ROUNDEDRECTD76*%
%ADD77C,0.02400*%
%ADD78R,0.05906X0.13386*%
%ADD79R,0.03937X0.13780*%
G04:AMPARAMS|DCode=80|XSize=62.99mil|YSize=39.37mil|CornerRadius=0mil|HoleSize=0mil|Usage=FLASHONLY|Rotation=55.000|XOffset=0mil|YOffset=0mil|HoleType=Round|Shape=Rectangle|*
%AMROTATEDRECTD80*
4,1,4,-0.00194,-0.03709,-0.03419,-0.01451,0.00194,0.03709,0.03419,0.01451,-0.00194,-0.03709,0.0*
%
%ADD80ROTATEDRECTD80*%

%ADD81R,0.15748X0.06000*%
D11*
X358910Y52036D02*
G03*
X359285Y52358I-444J896D01*
G01*
X358910Y52036D02*
G03*
X357072Y48842I1425J-2945D01*
G01*
X366500Y84000D02*
G03*
X360500Y78000I0J-6000D01*
G01*
X351500Y62036D02*
G03*
X352079Y60638I1977J0D01*
G01*
X347372Y53194D02*
G03*
X347373Y53194I-387J922D01*
G01*
X349000Y56000D02*
G03*
X347941Y53658I2574J-2574D01*
G01*
X454520Y57200D02*
G03*
X363363Y62097I-41020J87300D01*
G01*
X408405Y50055D02*
G03*
X446904Y57473I3948J83127D01*
G01*
X447032Y57601D02*
G03*
X447034Y57602I-707J707D01*
G01*
X447041Y57851D02*
G03*
X447048Y57860I-761J649D01*
G01*
X395505Y78000D02*
G03*
X389505Y84000I-6000J0D01*
G01*
X355437Y81480D02*
G03*
X357500Y76500I7044J0D01*
G01*
X357571Y76429D02*
G03*
X364642Y73500I7071J7071D01*
G01*
X403862Y42879D02*
G03*
X404614Y42786I753J3022D01*
G01*
X401500Y45901D02*
G03*
X403862Y42879I3114J0D01*
G01*
X401500Y68000D02*
G03*
X399000Y70500I-2500J0D01*
G01*
X453646Y71902D02*
G03*
X407253Y227354I-40624J72525D01*
G01*
X406987Y227088D02*
G03*
X406986Y227087I707J-707D01*
G01*
X448000Y49000D02*
G03*
X341580Y72081I-35000J95500D01*
G01*
X410718Y43018D02*
G03*
X444696Y47892I2782J101482D01*
G01*
X359285Y52358D02*
X360141Y52673D01*
X357072Y48842D02*
X357445Y48581D01*
X354722Y47253D02*
X357445Y48581D01*
X360141Y52673D02*
Y54993D01*
X351500Y62036D02*
Y67000D01*
X352079Y59079D02*
Y60638D01*
X349000Y56000D02*
X352079Y59079D01*
X346659Y52899D02*
X347368Y53192D01*
X347373Y53194D02*
X347552Y53268D01*
X347693Y53409D01*
X347693Y53409D02*
X347941Y53658D01*
X347368Y53192D02*
X347372Y53194D01*
X363363Y62097D02*
X366412Y60339D01*
X367000Y60000D01*
X363363Y62097D02*
X363363Y62097D01*
X344016Y67016D02*
X347500Y70500D01*
X344016Y66284D02*
Y67016D01*
Y65124D02*
Y66284D01*
X338597Y58544D02*
Y59704D01*
X344016Y65124D01*
X415500Y48431D02*
Y50000D01*
X415495Y48426D02*
X415500Y48431D01*
X407159Y48212D02*
X408091Y49591D01*
X446904Y57473D02*
X447032Y57601D01*
X447034Y57602D02*
X447100Y57669D01*
X408091Y49591D02*
X408405Y50055D01*
X447172Y57776D02*
X448000Y59000D01*
X447100Y57669D02*
X447154Y57748D01*
X447172Y57776D01*
X447048Y57860D02*
X448000Y59000D01*
X446855Y57660D02*
X446988Y57793D01*
X446988Y57793D02*
X447020Y57825D01*
X447041Y57851D01*
X347500Y70121D02*
Y70500D01*
X347500Y78000D02*
Y86642D01*
X347563Y86705D01*
X366500Y84000D02*
X389505D01*
X355437Y81480D02*
Y86705D01*
X357500Y76500D02*
X357571Y76429D01*
X364642Y73500D02*
X388500D01*
X401500Y45901D02*
Y68000D01*
X404614Y42786D02*
X407739Y42638D01*
X395500Y70500D02*
X399000D01*
X390185Y72982D02*
X393138Y72075D01*
X388500Y73500D02*
X390185Y72982D01*
X393138Y72075D02*
X395500Y70500D01*
X406987Y227088D02*
X407253Y227354D01*
X406694Y226381D02*
X406694Y226796D01*
X406986Y227087D01*
X453450Y71500D02*
Y71707D01*
X453646Y71902D01*
X447994Y69014D02*
X453450Y71500D01*
X406694Y226381D02*
X406694Y226266D01*
X406989Y225007D01*
X407739Y42638D02*
X410711Y42767D01*
D74*
X347693Y53409D02*
D03*
X446988Y57793D02*
D03*
X406694Y226381D02*
D03*
D75*
X360334Y49091D02*
D03*
X338404Y64446D02*
D03*
D76*
X395505Y78000D02*
D03*
X395500Y70500D02*
D03*
D77*
X360500Y78000D02*
D03*
X351500Y67000D02*
D03*
X347500Y70500D02*
D03*
X347500Y78000D02*
D03*
X341500Y72000D02*
D03*
X482418Y183415D02*
D03*
X407000Y225000D02*
D03*
X500116Y91568D02*
D03*
X415495Y48426D02*
D03*
X407159Y48212D02*
D03*
X410711Y42767D02*
D03*
X480414Y103312D02*
D03*
X364618Y234327D02*
D03*
X363500Y227000D02*
D03*
X327116Y199568D02*
D03*
X329000Y191500D02*
D03*
X311116Y147568D02*
D03*
X316500Y142500D02*
D03*
X323116Y96568D02*
D03*
X330500Y95500D02*
D03*
X366420Y60353D02*
D03*
X461116Y55568D02*
D03*
X463000Y62000D02*
D03*
X498000Y98500D02*
D03*
X514616Y142568D02*
D03*
X510000Y146500D02*
D03*
X501616Y194568D02*
D03*
X495616Y195568D02*
D03*
X466116Y231568D02*
D03*
X460000Y229500D02*
D03*
X411500Y241500D02*
D03*
X416000Y246500D02*
D03*
D78*
X364689Y109343D02*
D03*
X338311D02*
D03*
D79*
X355437Y86705D02*
D03*
X347563D02*
D03*
D80*
X360141Y54993D02*
D03*
X352079Y60638D02*
D03*
X344016Y66284D02*
D03*
X354722Y47253D02*
D03*
X346659Y52899D02*
D03*
X338597Y58544D02*
D03*
D81*
X448000Y59000D02*
D03*
Y39000D02*
D03*
Y49000D02*
D03*
Y89000D02*
D03*
Y79000D02*
D03*
Y69000D02*
D03*
Y99000D02*
D03*
X378000D02*
D03*
Y69000D02*
D03*
Y79000D02*
D03*
Y89000D02*
D03*
Y59000D02*
D03*
Y49000D02*
D03*
Y39000D02*
D03*
M02*
