G75*
%MOIN*%
%OFA0B0*%
%FSLAX25Y25*%
%IPPOS*%
%LPD*%
%AMOC8*
5,1,8,0,0,1.08239X$1,22.5*
%
%ADD10C,0.00004*%
%ADD11C,0.00800*%
%ADD12C,0.01600*%
%ADD13R,0.09843X0.02500*%
%ADD14R,0.06693X0.01969*%
%ADD15R,0.06299X0.02165*%
%ADD16R,0.04331X0.01181*%
%ADD17R,0.02362X0.01181*%
%ADD18R,0.01969X0.06693*%
%ADD19R,0.01181X0.04331*%
%ADD20R,0.03642X0.02913*%
%ADD21C,0.01200*%
%ADD22C,0.02800*%
%ADD23C,0.01000*%
%ADD24C,0.03200*%
%ADD25C,0.00600*%
D10*
X0005143Y0110845D02*
X0005175Y0113460D01*
X0005271Y0116074D01*
X0005432Y0118684D01*
X0005656Y0121290D01*
X0005944Y0123890D01*
X0006296Y0126481D01*
X0006712Y0129064D01*
X0007191Y0131635D01*
X0007732Y0134194D01*
X0008337Y0136738D01*
X0009003Y0139268D01*
X0009732Y0141779D01*
X0010522Y0144273D01*
X0011372Y0146746D01*
X0012284Y0149198D01*
X0013255Y0151626D01*
X0014285Y0154030D01*
X0015374Y0156408D01*
X0016522Y0158758D01*
X0017726Y0161080D01*
X0018987Y0163371D01*
X0020304Y0165631D01*
X0021676Y0167858D01*
X0023103Y0170050D01*
X0024582Y0172207D01*
X0026114Y0174326D01*
X0027698Y0176408D01*
X0029332Y0178450D01*
X0031016Y0180451D01*
X0032749Y0182410D01*
X0034529Y0184327D01*
X0036355Y0186199D01*
X0038227Y0188025D01*
X0040144Y0189805D01*
X0042103Y0191538D01*
X0044104Y0193222D01*
X0046146Y0194856D01*
X0048228Y0196440D01*
X0050347Y0197972D01*
X0052504Y0199451D01*
X0054696Y0200878D01*
X0056923Y0202250D01*
X0059183Y0203567D01*
X0061474Y0204828D01*
X0063796Y0206032D01*
X0066146Y0207180D01*
X0068524Y0208269D01*
X0070928Y0209299D01*
X0073356Y0210270D01*
X0075808Y0211182D01*
X0078281Y0212032D01*
X0080775Y0212822D01*
X0083286Y0213551D01*
X0085816Y0214217D01*
X0088360Y0214822D01*
X0090919Y0215363D01*
X0093490Y0215842D01*
X0096073Y0216258D01*
X0098664Y0216610D01*
X0101264Y0216898D01*
X0103870Y0217122D01*
X0106480Y0217283D01*
X0109094Y0217379D01*
X0111709Y0217411D01*
X0114324Y0217379D01*
X0116938Y0217283D01*
X0119548Y0217122D01*
X0122154Y0216898D01*
X0124754Y0216610D01*
X0127345Y0216258D01*
X0129928Y0215842D01*
X0132499Y0215363D01*
X0135058Y0214822D01*
X0137602Y0214217D01*
X0140132Y0213551D01*
X0142643Y0212822D01*
X0145137Y0212032D01*
X0147610Y0211182D01*
X0150062Y0210270D01*
X0152490Y0209299D01*
X0154894Y0208269D01*
X0157272Y0207180D01*
X0159622Y0206032D01*
X0161944Y0204828D01*
X0164235Y0203567D01*
X0166495Y0202250D01*
X0168722Y0200878D01*
X0170914Y0199451D01*
X0173071Y0197972D01*
X0175190Y0196440D01*
X0177272Y0194856D01*
X0179314Y0193222D01*
X0181315Y0191538D01*
X0183274Y0189805D01*
X0185191Y0188025D01*
X0187063Y0186199D01*
X0188889Y0184327D01*
X0190669Y0182410D01*
X0192402Y0180451D01*
X0194086Y0178450D01*
X0195720Y0176408D01*
X0197304Y0174326D01*
X0198836Y0172207D01*
X0200315Y0170050D01*
X0201742Y0167858D01*
X0203114Y0165631D01*
X0204431Y0163371D01*
X0205692Y0161080D01*
X0206896Y0158758D01*
X0208044Y0156408D01*
X0209133Y0154030D01*
X0210163Y0151626D01*
X0211134Y0149198D01*
X0212046Y0146746D01*
X0212896Y0144273D01*
X0213686Y0141779D01*
X0214415Y0139268D01*
X0215081Y0136738D01*
X0215686Y0134194D01*
X0216227Y0131635D01*
X0216706Y0129064D01*
X0217122Y0126481D01*
X0217474Y0123890D01*
X0217762Y0121290D01*
X0217986Y0118684D01*
X0218147Y0116074D01*
X0218243Y0113460D01*
X0218275Y0110845D01*
X0218243Y0108230D01*
X0218147Y0105616D01*
X0217986Y0103006D01*
X0217762Y0100400D01*
X0217474Y0097800D01*
X0217122Y0095209D01*
X0216706Y0092626D01*
X0216227Y0090055D01*
X0215686Y0087496D01*
X0215081Y0084952D01*
X0214415Y0082422D01*
X0213686Y0079911D01*
X0212896Y0077417D01*
X0212046Y0074944D01*
X0211134Y0072492D01*
X0210163Y0070064D01*
X0209133Y0067660D01*
X0208044Y0065282D01*
X0206896Y0062932D01*
X0205692Y0060610D01*
X0204431Y0058319D01*
X0203114Y0056059D01*
X0201742Y0053832D01*
X0200315Y0051640D01*
X0198836Y0049483D01*
X0197304Y0047364D01*
X0195720Y0045282D01*
X0194086Y0043240D01*
X0192402Y0041239D01*
X0190669Y0039280D01*
X0188889Y0037363D01*
X0187063Y0035491D01*
X0185191Y0033665D01*
X0183274Y0031885D01*
X0181315Y0030152D01*
X0179314Y0028468D01*
X0177272Y0026834D01*
X0175190Y0025250D01*
X0173071Y0023718D01*
X0170914Y0022239D01*
X0168722Y0020812D01*
X0166495Y0019440D01*
X0164235Y0018123D01*
X0161944Y0016862D01*
X0159622Y0015658D01*
X0157272Y0014510D01*
X0154894Y0013421D01*
X0152490Y0012391D01*
X0150062Y0011420D01*
X0147610Y0010508D01*
X0145137Y0009658D01*
X0142643Y0008868D01*
X0140132Y0008139D01*
X0137602Y0007473D01*
X0135058Y0006868D01*
X0132499Y0006327D01*
X0129928Y0005848D01*
X0127345Y0005432D01*
X0124754Y0005080D01*
X0122154Y0004792D01*
X0119548Y0004568D01*
X0116938Y0004407D01*
X0114324Y0004311D01*
X0111709Y0004279D01*
X0109094Y0004311D01*
X0106480Y0004407D01*
X0103870Y0004568D01*
X0101264Y0004792D01*
X0098664Y0005080D01*
X0096073Y0005432D01*
X0093490Y0005848D01*
X0090919Y0006327D01*
X0088360Y0006868D01*
X0085816Y0007473D01*
X0083286Y0008139D01*
X0080775Y0008868D01*
X0078281Y0009658D01*
X0075808Y0010508D01*
X0073356Y0011420D01*
X0070928Y0012391D01*
X0068524Y0013421D01*
X0066146Y0014510D01*
X0063796Y0015658D01*
X0061474Y0016862D01*
X0059183Y0018123D01*
X0056923Y0019440D01*
X0054696Y0020812D01*
X0052504Y0022239D01*
X0050347Y0023718D01*
X0048228Y0025250D01*
X0046146Y0026834D01*
X0044104Y0028468D01*
X0042103Y0030152D01*
X0040144Y0031885D01*
X0038227Y0033665D01*
X0036355Y0035491D01*
X0034529Y0037363D01*
X0032749Y0039280D01*
X0031016Y0041239D01*
X0029332Y0043240D01*
X0027698Y0045282D01*
X0026114Y0047364D01*
X0024582Y0049483D01*
X0023103Y0051640D01*
X0021676Y0053832D01*
X0020304Y0056059D01*
X0018987Y0058319D01*
X0017726Y0060610D01*
X0016522Y0062932D01*
X0015374Y0065282D01*
X0014285Y0067660D01*
X0013255Y0070064D01*
X0012284Y0072492D01*
X0011372Y0074944D01*
X0010522Y0077417D01*
X0009732Y0079911D01*
X0009003Y0082422D01*
X0008337Y0084952D01*
X0007732Y0087496D01*
X0007191Y0090055D01*
X0006712Y0092626D01*
X0006296Y0095209D01*
X0005944Y0097800D01*
X0005656Y0100400D01*
X0005432Y0103006D01*
X0005271Y0105616D01*
X0005175Y0108230D01*
X0005143Y0110845D01*
D11*
X0064155Y0119172D02*
X0093163Y0116466D01*
X0098096Y0117686D02*
X0074284Y0141430D01*
X0081137Y0148280D02*
X0097824Y0124140D01*
X0101666Y0110820D02*
X0101669Y0111065D01*
X0101678Y0111311D01*
X0101693Y0111556D01*
X0101714Y0111800D01*
X0101741Y0112044D01*
X0101774Y0112287D01*
X0101813Y0112530D01*
X0101858Y0112771D01*
X0101909Y0113011D01*
X0101966Y0113250D01*
X0102028Y0113487D01*
X0102097Y0113723D01*
X0102171Y0113957D01*
X0102251Y0114189D01*
X0102336Y0114419D01*
X0102427Y0114647D01*
X0102524Y0114872D01*
X0102626Y0115096D01*
X0102734Y0115316D01*
X0102847Y0115534D01*
X0102965Y0115749D01*
X0103089Y0115961D01*
X0103217Y0116170D01*
X0103351Y0116376D01*
X0103490Y0116578D01*
X0103634Y0116777D01*
X0103783Y0116972D01*
X0103936Y0117164D01*
X0104094Y0117352D01*
X0104256Y0117536D01*
X0104424Y0117715D01*
X0104595Y0117891D01*
X0104771Y0118062D01*
X0104950Y0118230D01*
X0105134Y0118392D01*
X0105322Y0118550D01*
X0105514Y0118703D01*
X0105709Y0118852D01*
X0105908Y0118996D01*
X0106110Y0119135D01*
X0106316Y0119269D01*
X0106525Y0119397D01*
X0106737Y0119521D01*
X0106952Y0119639D01*
X0107170Y0119752D01*
X0107390Y0119860D01*
X0107614Y0119962D01*
X0107839Y0120059D01*
X0108067Y0120150D01*
X0108297Y0120235D01*
X0108529Y0120315D01*
X0108763Y0120389D01*
X0108999Y0120458D01*
X0109236Y0120520D01*
X0109475Y0120577D01*
X0109715Y0120628D01*
X0109956Y0120673D01*
X0110199Y0120712D01*
X0110442Y0120745D01*
X0110686Y0120772D01*
X0110930Y0120793D01*
X0111175Y0120808D01*
X0111421Y0120817D01*
X0111666Y0120820D01*
X0111911Y0120817D01*
X0112157Y0120808D01*
X0112402Y0120793D01*
X0112646Y0120772D01*
X0112890Y0120745D01*
X0113133Y0120712D01*
X0113376Y0120673D01*
X0113617Y0120628D01*
X0113857Y0120577D01*
X0114096Y0120520D01*
X0114333Y0120458D01*
X0114569Y0120389D01*
X0114803Y0120315D01*
X0115035Y0120235D01*
X0115265Y0120150D01*
X0115493Y0120059D01*
X0115718Y0119962D01*
X0115942Y0119860D01*
X0116162Y0119752D01*
X0116380Y0119639D01*
X0116595Y0119521D01*
X0116807Y0119397D01*
X0117016Y0119269D01*
X0117222Y0119135D01*
X0117424Y0118996D01*
X0117623Y0118852D01*
X0117818Y0118703D01*
X0118010Y0118550D01*
X0118198Y0118392D01*
X0118382Y0118230D01*
X0118561Y0118062D01*
X0118737Y0117891D01*
X0118908Y0117715D01*
X0119076Y0117536D01*
X0119238Y0117352D01*
X0119396Y0117164D01*
X0119549Y0116972D01*
X0119698Y0116777D01*
X0119842Y0116578D01*
X0119981Y0116376D01*
X0120115Y0116170D01*
X0120243Y0115961D01*
X0120367Y0115749D01*
X0120485Y0115534D01*
X0120598Y0115316D01*
X0120706Y0115096D01*
X0120808Y0114872D01*
X0120905Y0114647D01*
X0120996Y0114419D01*
X0121081Y0114189D01*
X0121161Y0113957D01*
X0121235Y0113723D01*
X0121304Y0113487D01*
X0121366Y0113250D01*
X0121423Y0113011D01*
X0121474Y0112771D01*
X0121519Y0112530D01*
X0121558Y0112287D01*
X0121591Y0112044D01*
X0121618Y0111800D01*
X0121639Y0111556D01*
X0121654Y0111311D01*
X0121663Y0111065D01*
X0121666Y0110820D01*
X0121663Y0110575D01*
X0121654Y0110329D01*
X0121639Y0110084D01*
X0121618Y0109840D01*
X0121591Y0109596D01*
X0121558Y0109353D01*
X0121519Y0109110D01*
X0121474Y0108869D01*
X0121423Y0108629D01*
X0121366Y0108390D01*
X0121304Y0108153D01*
X0121235Y0107917D01*
X0121161Y0107683D01*
X0121081Y0107451D01*
X0120996Y0107221D01*
X0120905Y0106993D01*
X0120808Y0106768D01*
X0120706Y0106544D01*
X0120598Y0106324D01*
X0120485Y0106106D01*
X0120367Y0105891D01*
X0120243Y0105679D01*
X0120115Y0105470D01*
X0119981Y0105264D01*
X0119842Y0105062D01*
X0119698Y0104863D01*
X0119549Y0104668D01*
X0119396Y0104476D01*
X0119238Y0104288D01*
X0119076Y0104104D01*
X0118908Y0103925D01*
X0118737Y0103749D01*
X0118561Y0103578D01*
X0118382Y0103410D01*
X0118198Y0103248D01*
X0118010Y0103090D01*
X0117818Y0102937D01*
X0117623Y0102788D01*
X0117424Y0102644D01*
X0117222Y0102505D01*
X0117016Y0102371D01*
X0116807Y0102243D01*
X0116595Y0102119D01*
X0116380Y0102001D01*
X0116162Y0101888D01*
X0115942Y0101780D01*
X0115718Y0101678D01*
X0115493Y0101581D01*
X0115265Y0101490D01*
X0115035Y0101405D01*
X0114803Y0101325D01*
X0114569Y0101251D01*
X0114333Y0101182D01*
X0114096Y0101120D01*
X0113857Y0101063D01*
X0113617Y0101012D01*
X0113376Y0100967D01*
X0113133Y0100928D01*
X0112890Y0100895D01*
X0112646Y0100868D01*
X0112402Y0100847D01*
X0112157Y0100832D01*
X0111911Y0100823D01*
X0111666Y0100820D01*
X0111421Y0100823D01*
X0111175Y0100832D01*
X0110930Y0100847D01*
X0110686Y0100868D01*
X0110442Y0100895D01*
X0110199Y0100928D01*
X0109956Y0100967D01*
X0109715Y0101012D01*
X0109475Y0101063D01*
X0109236Y0101120D01*
X0108999Y0101182D01*
X0108763Y0101251D01*
X0108529Y0101325D01*
X0108297Y0101405D01*
X0108067Y0101490D01*
X0107839Y0101581D01*
X0107614Y0101678D01*
X0107390Y0101780D01*
X0107170Y0101888D01*
X0106952Y0102001D01*
X0106737Y0102119D01*
X0106525Y0102243D01*
X0106316Y0102371D01*
X0106110Y0102505D01*
X0105908Y0102644D01*
X0105709Y0102788D01*
X0105514Y0102937D01*
X0105322Y0103090D01*
X0105134Y0103248D01*
X0104950Y0103410D01*
X0104771Y0103578D01*
X0104595Y0103749D01*
X0104424Y0103925D01*
X0104256Y0104104D01*
X0104094Y0104288D01*
X0103936Y0104476D01*
X0103783Y0104668D01*
X0103634Y0104863D01*
X0103490Y0105062D01*
X0103351Y0105264D01*
X0103217Y0105470D01*
X0103089Y0105679D01*
X0102965Y0105891D01*
X0102847Y0106106D01*
X0102734Y0106324D01*
X0102626Y0106544D01*
X0102524Y0106768D01*
X0102427Y0106993D01*
X0102336Y0107221D01*
X0102251Y0107451D01*
X0102171Y0107683D01*
X0102097Y0107917D01*
X0102028Y0108153D01*
X0101966Y0108390D01*
X0101909Y0108629D01*
X0101858Y0108869D01*
X0101813Y0109110D01*
X0101774Y0109353D01*
X0101741Y0109596D01*
X0101714Y0109840D01*
X0101693Y0110084D01*
X0101678Y0110329D01*
X0101669Y0110575D01*
X0101666Y0110820D01*
X0090374Y0106809D02*
X0091492Y0103971D01*
X0106677Y0092163D02*
X0095659Y0075769D01*
X0083927Y0077483D01*
X0074949Y0080219D01*
X0094603Y0065571D02*
X0107517Y0073932D01*
X0111732Y0095687D01*
X0116035Y0092031D02*
X0120450Y0074023D01*
X0128889Y0065571D01*
X0129890Y0075437D02*
X0140120Y0077690D01*
X0148610Y0080124D01*
X0129890Y0075437D02*
X0118130Y0096972D01*
X0106749Y0110820D02*
X0106751Y0110961D01*
X0106757Y0111102D01*
X0106767Y0111242D01*
X0106781Y0111382D01*
X0106799Y0111522D01*
X0106820Y0111661D01*
X0106846Y0111800D01*
X0106875Y0111938D01*
X0106909Y0112074D01*
X0106946Y0112210D01*
X0106987Y0112345D01*
X0107032Y0112479D01*
X0107081Y0112611D01*
X0107133Y0112742D01*
X0107189Y0112871D01*
X0107249Y0112998D01*
X0107312Y0113124D01*
X0107378Y0113248D01*
X0107449Y0113371D01*
X0107522Y0113491D01*
X0107599Y0113609D01*
X0107679Y0113725D01*
X0107763Y0113838D01*
X0107849Y0113949D01*
X0107939Y0114058D01*
X0108032Y0114164D01*
X0108127Y0114267D01*
X0108226Y0114368D01*
X0108327Y0114466D01*
X0108431Y0114561D01*
X0108538Y0114653D01*
X0108647Y0114742D01*
X0108759Y0114827D01*
X0108873Y0114910D01*
X0108989Y0114990D01*
X0109108Y0115066D01*
X0109229Y0115138D01*
X0109351Y0115208D01*
X0109476Y0115273D01*
X0109602Y0115336D01*
X0109730Y0115394D01*
X0109860Y0115449D01*
X0109991Y0115501D01*
X0110124Y0115548D01*
X0110258Y0115592D01*
X0110393Y0115633D01*
X0110529Y0115669D01*
X0110666Y0115701D01*
X0110804Y0115730D01*
X0110942Y0115755D01*
X0111082Y0115775D01*
X0111222Y0115792D01*
X0111362Y0115805D01*
X0111503Y0115814D01*
X0111643Y0115819D01*
X0111784Y0115820D01*
X0111925Y0115817D01*
X0112066Y0115810D01*
X0112206Y0115799D01*
X0112346Y0115784D01*
X0112486Y0115765D01*
X0112625Y0115743D01*
X0112763Y0115716D01*
X0112901Y0115686D01*
X0113037Y0115651D01*
X0113173Y0115613D01*
X0113307Y0115571D01*
X0113441Y0115525D01*
X0113573Y0115476D01*
X0113703Y0115422D01*
X0113832Y0115365D01*
X0113959Y0115305D01*
X0114085Y0115241D01*
X0114208Y0115173D01*
X0114330Y0115102D01*
X0114450Y0115028D01*
X0114567Y0114950D01*
X0114682Y0114869D01*
X0114795Y0114785D01*
X0114906Y0114698D01*
X0115014Y0114607D01*
X0115119Y0114514D01*
X0115222Y0114417D01*
X0115322Y0114318D01*
X0115419Y0114216D01*
X0115513Y0114111D01*
X0115604Y0114004D01*
X0115692Y0113894D01*
X0115777Y0113782D01*
X0115859Y0113667D01*
X0115938Y0113550D01*
X0116013Y0113431D01*
X0116085Y0113310D01*
X0116153Y0113187D01*
X0116218Y0113062D01*
X0116280Y0112935D01*
X0116337Y0112806D01*
X0116392Y0112676D01*
X0116442Y0112545D01*
X0116489Y0112412D01*
X0116532Y0112278D01*
X0116571Y0112142D01*
X0116606Y0112006D01*
X0116638Y0111869D01*
X0116665Y0111731D01*
X0116689Y0111592D01*
X0116709Y0111452D01*
X0116725Y0111312D01*
X0116737Y0111172D01*
X0116745Y0111031D01*
X0116749Y0110890D01*
X0116749Y0110750D01*
X0116745Y0110609D01*
X0116737Y0110468D01*
X0116725Y0110328D01*
X0116709Y0110188D01*
X0116689Y0110048D01*
X0116665Y0109909D01*
X0116638Y0109771D01*
X0116606Y0109634D01*
X0116571Y0109498D01*
X0116532Y0109362D01*
X0116489Y0109228D01*
X0116442Y0109095D01*
X0116392Y0108964D01*
X0116337Y0108834D01*
X0116280Y0108705D01*
X0116218Y0108578D01*
X0116153Y0108453D01*
X0116085Y0108330D01*
X0116013Y0108209D01*
X0115938Y0108090D01*
X0115859Y0107973D01*
X0115777Y0107858D01*
X0115692Y0107746D01*
X0115604Y0107636D01*
X0115513Y0107529D01*
X0115419Y0107424D01*
X0115322Y0107322D01*
X0115222Y0107223D01*
X0115119Y0107126D01*
X0115014Y0107033D01*
X0114906Y0106942D01*
X0114795Y0106855D01*
X0114682Y0106771D01*
X0114567Y0106690D01*
X0114450Y0106612D01*
X0114330Y0106538D01*
X0114208Y0106467D01*
X0114085Y0106399D01*
X0113959Y0106335D01*
X0113832Y0106275D01*
X0113703Y0106218D01*
X0113573Y0106164D01*
X0113441Y0106115D01*
X0113307Y0106069D01*
X0113173Y0106027D01*
X0113037Y0105989D01*
X0112901Y0105954D01*
X0112763Y0105924D01*
X0112625Y0105897D01*
X0112486Y0105875D01*
X0112346Y0105856D01*
X0112206Y0105841D01*
X0112066Y0105830D01*
X0111925Y0105823D01*
X0111784Y0105820D01*
X0111643Y0105821D01*
X0111503Y0105826D01*
X0111362Y0105835D01*
X0111222Y0105848D01*
X0111082Y0105865D01*
X0110942Y0105885D01*
X0110804Y0105910D01*
X0110666Y0105939D01*
X0110529Y0105971D01*
X0110393Y0106007D01*
X0110258Y0106048D01*
X0110124Y0106092D01*
X0109991Y0106139D01*
X0109860Y0106191D01*
X0109730Y0106246D01*
X0109602Y0106304D01*
X0109476Y0106367D01*
X0109351Y0106432D01*
X0109229Y0106502D01*
X0109108Y0106574D01*
X0108989Y0106650D01*
X0108873Y0106730D01*
X0108759Y0106813D01*
X0108647Y0106898D01*
X0108538Y0106987D01*
X0108431Y0107079D01*
X0108327Y0107174D01*
X0108226Y0107272D01*
X0108127Y0107373D01*
X0108032Y0107476D01*
X0107939Y0107582D01*
X0107849Y0107691D01*
X0107763Y0107802D01*
X0107679Y0107915D01*
X0107599Y0108031D01*
X0107522Y0108149D01*
X0107449Y0108269D01*
X0107378Y0108392D01*
X0107312Y0108516D01*
X0107249Y0108642D01*
X0107189Y0108769D01*
X0107133Y0108898D01*
X0107081Y0109029D01*
X0107032Y0109161D01*
X0106987Y0109295D01*
X0106946Y0109430D01*
X0106909Y0109566D01*
X0106875Y0109702D01*
X0106846Y0109840D01*
X0106820Y0109979D01*
X0106799Y0110118D01*
X0106781Y0110258D01*
X0106767Y0110398D01*
X0106757Y0110538D01*
X0106751Y0110679D01*
X0106749Y0110820D01*
X0096717Y0110829D02*
X0096722Y0111197D01*
X0096735Y0111565D01*
X0096758Y0111932D01*
X0096789Y0112299D01*
X0096830Y0112665D01*
X0096879Y0113030D01*
X0096938Y0113393D01*
X0097005Y0113755D01*
X0097081Y0114116D01*
X0097167Y0114474D01*
X0097260Y0114830D01*
X0097363Y0115183D01*
X0097474Y0115534D01*
X0097594Y0115882D01*
X0097722Y0116227D01*
X0097859Y0116569D01*
X0098004Y0116908D01*
X0098157Y0117242D01*
X0098319Y0117573D01*
X0098488Y0117900D01*
X0098666Y0118222D01*
X0098851Y0118541D01*
X0099044Y0118854D01*
X0099245Y0119163D01*
X0099453Y0119466D01*
X0099669Y0119764D01*
X0099892Y0120057D01*
X0100122Y0120345D01*
X0100359Y0120627D01*
X0100603Y0120902D01*
X0100853Y0121172D01*
X0101110Y0121436D01*
X0101374Y0121693D01*
X0101644Y0121943D01*
X0101919Y0122187D01*
X0102201Y0122424D01*
X0102489Y0122654D01*
X0102782Y0122877D01*
X0103080Y0123093D01*
X0103383Y0123301D01*
X0103692Y0123502D01*
X0104005Y0123695D01*
X0104324Y0123880D01*
X0104646Y0124058D01*
X0104973Y0124227D01*
X0105304Y0124389D01*
X0105638Y0124542D01*
X0105977Y0124687D01*
X0106319Y0124824D01*
X0106664Y0124952D01*
X0107012Y0125072D01*
X0107363Y0125183D01*
X0107716Y0125286D01*
X0108072Y0125379D01*
X0108430Y0125465D01*
X0108791Y0125541D01*
X0109153Y0125608D01*
X0109516Y0125667D01*
X0109881Y0125716D01*
X0110247Y0125757D01*
X0110614Y0125788D01*
X0110981Y0125811D01*
X0111349Y0125824D01*
X0111717Y0125829D01*
X0112085Y0125824D01*
X0112453Y0125811D01*
X0112820Y0125788D01*
X0113187Y0125757D01*
X0113553Y0125716D01*
X0113918Y0125667D01*
X0114281Y0125608D01*
X0114643Y0125541D01*
X0115004Y0125465D01*
X0115362Y0125379D01*
X0115718Y0125286D01*
X0116071Y0125183D01*
X0116422Y0125072D01*
X0116770Y0124952D01*
X0117115Y0124824D01*
X0117457Y0124687D01*
X0117796Y0124542D01*
X0118130Y0124389D01*
X0118461Y0124227D01*
X0118788Y0124058D01*
X0119110Y0123880D01*
X0119429Y0123695D01*
X0119742Y0123502D01*
X0120051Y0123301D01*
X0120354Y0123093D01*
X0120652Y0122877D01*
X0120945Y0122654D01*
X0121233Y0122424D01*
X0121515Y0122187D01*
X0121790Y0121943D01*
X0122060Y0121693D01*
X0122324Y0121436D01*
X0122581Y0121172D01*
X0122831Y0120902D01*
X0123075Y0120627D01*
X0123312Y0120345D01*
X0123542Y0120057D01*
X0123765Y0119764D01*
X0123981Y0119466D01*
X0124189Y0119163D01*
X0124390Y0118854D01*
X0124583Y0118541D01*
X0124768Y0118222D01*
X0124946Y0117900D01*
X0125115Y0117573D01*
X0125277Y0117242D01*
X0125430Y0116908D01*
X0125575Y0116569D01*
X0125712Y0116227D01*
X0125840Y0115882D01*
X0125960Y0115534D01*
X0126071Y0115183D01*
X0126174Y0114830D01*
X0126267Y0114474D01*
X0126353Y0114116D01*
X0126429Y0113755D01*
X0126496Y0113393D01*
X0126555Y0113030D01*
X0126604Y0112665D01*
X0126645Y0112299D01*
X0126676Y0111932D01*
X0126699Y0111565D01*
X0126712Y0111197D01*
X0126717Y0110829D01*
X0126712Y0110461D01*
X0126699Y0110093D01*
X0126676Y0109726D01*
X0126645Y0109359D01*
X0126604Y0108993D01*
X0126555Y0108628D01*
X0126496Y0108265D01*
X0126429Y0107903D01*
X0126353Y0107542D01*
X0126267Y0107184D01*
X0126174Y0106828D01*
X0126071Y0106475D01*
X0125960Y0106124D01*
X0125840Y0105776D01*
X0125712Y0105431D01*
X0125575Y0105089D01*
X0125430Y0104750D01*
X0125277Y0104416D01*
X0125115Y0104085D01*
X0124946Y0103758D01*
X0124768Y0103436D01*
X0124583Y0103117D01*
X0124390Y0102804D01*
X0124189Y0102495D01*
X0123981Y0102192D01*
X0123765Y0101894D01*
X0123542Y0101601D01*
X0123312Y0101313D01*
X0123075Y0101031D01*
X0122831Y0100756D01*
X0122581Y0100486D01*
X0122324Y0100222D01*
X0122060Y0099965D01*
X0121790Y0099715D01*
X0121515Y0099471D01*
X0121233Y0099234D01*
X0120945Y0099004D01*
X0120652Y0098781D01*
X0120354Y0098565D01*
X0120051Y0098357D01*
X0119742Y0098156D01*
X0119429Y0097963D01*
X0119110Y0097778D01*
X0118788Y0097600D01*
X0118461Y0097431D01*
X0118130Y0097269D01*
X0117796Y0097116D01*
X0117457Y0096971D01*
X0117115Y0096834D01*
X0116770Y0096706D01*
X0116422Y0096586D01*
X0116071Y0096475D01*
X0115718Y0096372D01*
X0115362Y0096279D01*
X0115004Y0096193D01*
X0114643Y0096117D01*
X0114281Y0096050D01*
X0113918Y0095991D01*
X0113553Y0095942D01*
X0113187Y0095901D01*
X0112820Y0095870D01*
X0112453Y0095847D01*
X0112085Y0095834D01*
X0111717Y0095829D01*
X0111349Y0095834D01*
X0110981Y0095847D01*
X0110614Y0095870D01*
X0110247Y0095901D01*
X0109881Y0095942D01*
X0109516Y0095991D01*
X0109153Y0096050D01*
X0108791Y0096117D01*
X0108430Y0096193D01*
X0108072Y0096279D01*
X0107716Y0096372D01*
X0107363Y0096475D01*
X0107012Y0096586D01*
X0106664Y0096706D01*
X0106319Y0096834D01*
X0105977Y0096971D01*
X0105638Y0097116D01*
X0105304Y0097269D01*
X0104973Y0097431D01*
X0104646Y0097600D01*
X0104324Y0097778D01*
X0104005Y0097963D01*
X0103692Y0098156D01*
X0103383Y0098357D01*
X0103080Y0098565D01*
X0102782Y0098781D01*
X0102489Y0099004D01*
X0102201Y0099234D01*
X0101919Y0099471D01*
X0101644Y0099715D01*
X0101374Y0099965D01*
X0101110Y0100222D01*
X0100853Y0100486D01*
X0100603Y0100756D01*
X0100359Y0101031D01*
X0100122Y0101313D01*
X0099892Y0101601D01*
X0099669Y0101894D01*
X0099453Y0102192D01*
X0099245Y0102495D01*
X0099044Y0102804D01*
X0098851Y0103117D01*
X0098666Y0103436D01*
X0098488Y0103758D01*
X0098319Y0104085D01*
X0098157Y0104416D01*
X0098004Y0104750D01*
X0097859Y0105089D01*
X0097722Y0105431D01*
X0097594Y0105776D01*
X0097474Y0106124D01*
X0097363Y0106475D01*
X0097260Y0106828D01*
X0097167Y0107184D01*
X0097081Y0107542D01*
X0097005Y0107903D01*
X0096938Y0108265D01*
X0096879Y0108628D01*
X0096830Y0108993D01*
X0096789Y0109359D01*
X0096758Y0109726D01*
X0096735Y0110093D01*
X0096722Y0110461D01*
X0096717Y0110829D01*
X0121631Y0122343D02*
X0142398Y0147724D01*
X0149129Y0141366D02*
X0127224Y0122346D01*
X0130499Y0115252D02*
X0158977Y0118949D01*
D12*
X0159430Y0118811D02*
X0203264Y0118811D01*
X0203479Y0117213D02*
X0159698Y0117213D01*
X0159967Y0115614D02*
X0203694Y0115614D01*
X0203909Y0114016D02*
X0160235Y0114016D01*
X0160503Y0112417D02*
X0204124Y0112417D01*
X0204266Y0111360D02*
X0201639Y0090937D01*
X0159302Y0102282D01*
X0160712Y0111173D01*
X0159330Y0119408D01*
X0201658Y0130747D01*
X0204266Y0111360D01*
X0204197Y0110819D02*
X0160656Y0110819D01*
X0160402Y0109220D02*
X0203991Y0109220D01*
X0203785Y0107622D02*
X0160149Y0107622D01*
X0159895Y0106023D02*
X0203580Y0106023D01*
X0203374Y0104425D02*
X0159642Y0104425D01*
X0159388Y0102826D02*
X0203169Y0102826D01*
X0202963Y0101228D02*
X0163236Y0101228D01*
X0169202Y0099629D02*
X0202757Y0099629D01*
X0202552Y0098031D02*
X0175167Y0098031D01*
X0181133Y0096432D02*
X0202346Y0096432D01*
X0202140Y0094834D02*
X0187098Y0094834D01*
X0193064Y0093235D02*
X0201935Y0093235D01*
X0201729Y0091637D02*
X0199029Y0091637D01*
X0191440Y0085243D02*
X0153146Y0085243D01*
X0154404Y0086841D02*
X0185473Y0086841D01*
X0179506Y0088440D02*
X0155028Y0088440D01*
X0154513Y0086980D02*
X0148720Y0079616D01*
X0179707Y0048632D01*
X0191746Y0064572D01*
X0199377Y0083116D01*
X0157143Y0094431D01*
X0154513Y0086980D01*
X0155592Y0090038D02*
X0173539Y0090038D01*
X0167572Y0091637D02*
X0156157Y0091637D01*
X0156721Y0093235D02*
X0161605Y0093235D01*
X0151889Y0083644D02*
X0197407Y0083644D01*
X0198937Y0082045D02*
X0150631Y0082045D01*
X0149374Y0080447D02*
X0198279Y0080447D01*
X0197621Y0078848D02*
X0149488Y0078848D01*
X0151087Y0077250D02*
X0196963Y0077250D01*
X0196306Y0075651D02*
X0152685Y0075651D01*
X0154284Y0074053D02*
X0195648Y0074053D01*
X0194990Y0072454D02*
X0155883Y0072454D01*
X0157481Y0070856D02*
X0194332Y0070856D01*
X0193675Y0069257D02*
X0159080Y0069257D01*
X0160678Y0067659D02*
X0193017Y0067659D01*
X0192359Y0066060D02*
X0162277Y0066060D01*
X0163876Y0064462D02*
X0191664Y0064462D01*
X0190456Y0062863D02*
X0165474Y0062863D01*
X0167073Y0061265D02*
X0189249Y0061265D01*
X0188042Y0059666D02*
X0168672Y0059666D01*
X0170270Y0058068D02*
X0186834Y0058068D01*
X0185627Y0056469D02*
X0171869Y0056469D01*
X0173468Y0054871D02*
X0184419Y0054871D01*
X0183212Y0053272D02*
X0175066Y0053272D01*
X0176665Y0051674D02*
X0182005Y0051674D01*
X0180797Y0050075D02*
X0178263Y0050075D01*
X0173064Y0043681D02*
X0133995Y0043681D01*
X0134423Y0042083D02*
X0172743Y0042083D01*
X0173824Y0042921D02*
X0158357Y0030929D01*
X0139507Y0023106D01*
X0128178Y0065394D01*
X0136453Y0068575D01*
X0142858Y0073893D01*
X0173824Y0042921D01*
X0171466Y0045280D02*
X0133567Y0045280D01*
X0133138Y0046878D02*
X0169868Y0046878D01*
X0168269Y0048477D02*
X0132710Y0048477D01*
X0132282Y0050075D02*
X0166671Y0050075D01*
X0165073Y0051674D02*
X0131854Y0051674D01*
X0131425Y0053272D02*
X0163475Y0053272D01*
X0161877Y0054871D02*
X0130997Y0054871D01*
X0130569Y0056469D02*
X0160278Y0056469D01*
X0158680Y0058068D02*
X0130141Y0058068D01*
X0129712Y0059666D02*
X0157082Y0059666D01*
X0155484Y0061265D02*
X0129284Y0061265D01*
X0128856Y0062863D02*
X0153885Y0062863D01*
X0152287Y0064462D02*
X0128428Y0064462D01*
X0129911Y0066060D02*
X0150689Y0066060D01*
X0149091Y0067659D02*
X0134071Y0067659D01*
X0137275Y0069257D02*
X0147493Y0069257D01*
X0145894Y0070856D02*
X0139200Y0070856D01*
X0141125Y0072454D02*
X0144296Y0072454D01*
X0137404Y0081827D02*
X0125328Y0093896D01*
X0130872Y0099820D01*
X0133214Y0107597D01*
X0149723Y0103172D01*
X0145519Y0091356D01*
X0137404Y0081827D01*
X0137590Y0082045D02*
X0137185Y0082045D01*
X0135586Y0083644D02*
X0138951Y0083644D01*
X0140313Y0085243D02*
X0133987Y0085243D01*
X0132387Y0086841D02*
X0141674Y0086841D01*
X0143035Y0088440D02*
X0130788Y0088440D01*
X0129188Y0090038D02*
X0144397Y0090038D01*
X0145619Y0091637D02*
X0127589Y0091637D01*
X0125989Y0093235D02*
X0146187Y0093235D01*
X0146756Y0094834D02*
X0126205Y0094834D01*
X0127701Y0096432D02*
X0147325Y0096432D01*
X0147894Y0098031D02*
X0129197Y0098031D01*
X0130693Y0099629D02*
X0148462Y0099629D01*
X0149031Y0101228D02*
X0131296Y0101228D01*
X0131777Y0102826D02*
X0149600Y0102826D01*
X0145048Y0104425D02*
X0132259Y0104425D01*
X0132740Y0106023D02*
X0139084Y0106023D01*
X0157131Y0127234D02*
X0154071Y0135553D01*
X0148618Y0141994D01*
X0179615Y0172977D01*
X0192752Y0155492D01*
X0199510Y0138584D01*
X0157131Y0127234D01*
X0156702Y0128402D02*
X0161493Y0128402D01*
X0156114Y0130001D02*
X0167462Y0130001D01*
X0173431Y0131599D02*
X0155526Y0131599D01*
X0154938Y0133198D02*
X0179400Y0133198D01*
X0185368Y0134796D02*
X0154350Y0134796D01*
X0153359Y0136395D02*
X0191337Y0136395D01*
X0197306Y0137993D02*
X0152005Y0137993D01*
X0150652Y0139592D02*
X0199107Y0139592D01*
X0198468Y0141190D02*
X0149298Y0141190D01*
X0149414Y0142789D02*
X0197829Y0142789D01*
X0197190Y0144387D02*
X0151013Y0144387D01*
X0152612Y0145986D02*
X0196552Y0145986D01*
X0195913Y0147584D02*
X0154212Y0147584D01*
X0155811Y0149183D02*
X0195274Y0149183D01*
X0194635Y0150781D02*
X0157410Y0150781D01*
X0159009Y0152380D02*
X0193996Y0152380D01*
X0193357Y0153979D02*
X0160608Y0153979D01*
X0162207Y0155577D02*
X0192688Y0155577D01*
X0191487Y0157176D02*
X0163807Y0157176D01*
X0165406Y0158774D02*
X0190286Y0158774D01*
X0189085Y0160373D02*
X0167005Y0160373D01*
X0168604Y0161971D02*
X0187884Y0161971D01*
X0186683Y0163570D02*
X0170203Y0163570D01*
X0171803Y0165168D02*
X0185482Y0165168D01*
X0184281Y0166767D02*
X0173402Y0166767D01*
X0175001Y0168365D02*
X0183080Y0168365D01*
X0181879Y0169964D02*
X0176600Y0169964D01*
X0178199Y0171562D02*
X0180678Y0171562D01*
X0182632Y0176149D02*
X0186124Y0179391D01*
X0187532Y0180774D02*
X0184840Y0183796D01*
X0173869Y0178661D02*
X0142933Y0147724D01*
X0135949Y0153503D01*
X0128141Y0156279D01*
X0139475Y0198592D01*
X0158820Y0190626D01*
X0173869Y0178661D01*
X0173164Y0177956D02*
X0133947Y0177956D01*
X0133519Y0176358D02*
X0171565Y0176358D01*
X0169967Y0174759D02*
X0133091Y0174759D01*
X0132663Y0173161D02*
X0168369Y0173161D01*
X0166770Y0171562D02*
X0132235Y0171562D01*
X0131807Y0169964D02*
X0165172Y0169964D01*
X0163573Y0168365D02*
X0131378Y0168365D01*
X0130950Y0166767D02*
X0161975Y0166767D01*
X0160376Y0165168D02*
X0130522Y0165168D01*
X0130094Y0163570D02*
X0158778Y0163570D01*
X0157179Y0161971D02*
X0129666Y0161971D01*
X0129237Y0160373D02*
X0155581Y0160373D01*
X0153982Y0158774D02*
X0128809Y0158774D01*
X0128381Y0157176D02*
X0152384Y0157176D01*
X0150785Y0155577D02*
X0130115Y0155577D01*
X0134612Y0153979D02*
X0149187Y0153979D01*
X0147588Y0152380D02*
X0137306Y0152380D01*
X0139238Y0150781D02*
X0145990Y0150781D01*
X0144392Y0149183D02*
X0141169Y0149183D01*
X0142361Y0148290D02*
X0142398Y0147724D01*
X0124129Y0147579D02*
X0119717Y0131081D01*
X0111580Y0133321D01*
X0103780Y0131162D01*
X0099384Y0147605D01*
X0112162Y0150283D01*
X0124129Y0147579D01*
X0124104Y0147584D02*
X0099389Y0147584D01*
X0099817Y0145986D02*
X0123703Y0145986D01*
X0123276Y0144387D02*
X0100244Y0144387D01*
X0100672Y0142789D02*
X0122849Y0142789D01*
X0122421Y0141190D02*
X0101099Y0141190D01*
X0101527Y0139592D02*
X0121994Y0139592D01*
X0121566Y0137993D02*
X0101954Y0137993D01*
X0102381Y0136395D02*
X0121139Y0136395D01*
X0120711Y0134796D02*
X0102809Y0134796D01*
X0103236Y0133198D02*
X0111136Y0133198D01*
X0112027Y0133198D02*
X0120284Y0133198D01*
X0119856Y0131599D02*
X0117833Y0131599D01*
X0105360Y0131599D02*
X0103664Y0131599D01*
X0106913Y0149183D02*
X0117029Y0149183D01*
X0118697Y0158774D02*
X0120439Y0158774D01*
X0120359Y0158477D02*
X0111583Y0160047D01*
X0103324Y0158214D01*
X0091968Y0200602D01*
X0110391Y0203519D01*
X0131655Y0200703D01*
X0120359Y0158477D01*
X0120866Y0160373D02*
X0102745Y0160373D01*
X0102317Y0161971D02*
X0121294Y0161971D01*
X0121721Y0163570D02*
X0101889Y0163570D01*
X0101461Y0165168D02*
X0122149Y0165168D01*
X0122577Y0166767D02*
X0101032Y0166767D01*
X0100604Y0168365D02*
X0123004Y0168365D01*
X0123432Y0169964D02*
X0100176Y0169964D01*
X0099748Y0171562D02*
X0123859Y0171562D01*
X0124287Y0173161D02*
X0099319Y0173161D01*
X0098891Y0174759D02*
X0124715Y0174759D01*
X0125142Y0176358D02*
X0098463Y0176358D01*
X0098035Y0177956D02*
X0125570Y0177956D01*
X0125998Y0179555D02*
X0097606Y0179555D01*
X0097178Y0181153D02*
X0126425Y0181153D01*
X0126853Y0182752D02*
X0096750Y0182752D01*
X0096322Y0184350D02*
X0127280Y0184350D01*
X0127708Y0185949D02*
X0095893Y0185949D01*
X0095465Y0187547D02*
X0128136Y0187547D01*
X0128563Y0189146D02*
X0095037Y0189146D01*
X0094609Y0190744D02*
X0128991Y0190744D01*
X0129418Y0192343D02*
X0094180Y0192343D01*
X0093752Y0193941D02*
X0129846Y0193941D01*
X0130274Y0195540D02*
X0093324Y0195540D01*
X0092896Y0197138D02*
X0130701Y0197138D01*
X0131129Y0198737D02*
X0092467Y0198737D01*
X0092039Y0200335D02*
X0131556Y0200335D01*
X0139086Y0197138D02*
X0143006Y0197138D01*
X0146887Y0195540D02*
X0138657Y0195540D01*
X0138229Y0193941D02*
X0150769Y0193941D01*
X0154651Y0192343D02*
X0137801Y0192343D01*
X0137373Y0190744D02*
X0158533Y0190744D01*
X0160682Y0189146D02*
X0136945Y0189146D01*
X0136516Y0187547D02*
X0162692Y0187547D01*
X0164703Y0185949D02*
X0136088Y0185949D01*
X0135660Y0184350D02*
X0166713Y0184350D01*
X0168724Y0182752D02*
X0135232Y0182752D01*
X0134804Y0181153D02*
X0170734Y0181153D01*
X0172745Y0179555D02*
X0134376Y0179555D01*
X0149917Y0199313D02*
X0151858Y0203898D01*
X0150554Y0206404D02*
X0149123Y0207227D01*
X0122362Y0201934D02*
X0100380Y0201934D01*
X0102769Y0210170D02*
X0094402Y0208959D01*
X0084879Y0203442D02*
X0071527Y0198531D01*
X0069496Y0203184D01*
X0068480Y0205060D01*
X0067490Y0204800D01*
X0065783Y0203130D01*
X0065148Y0203214D01*
X0072494Y0193941D02*
X0085221Y0193941D01*
X0085650Y0192343D02*
X0068495Y0192343D01*
X0065364Y0191091D02*
X0083990Y0198537D01*
X0095311Y0156283D01*
X0086871Y0153360D01*
X0080701Y0147762D01*
X0049669Y0178745D01*
X0065364Y0191091D01*
X0064923Y0190744D02*
X0086078Y0190744D01*
X0086506Y0189146D02*
X0062891Y0189146D01*
X0060859Y0187547D02*
X0086935Y0187547D01*
X0087363Y0185949D02*
X0058827Y0185949D01*
X0056795Y0184350D02*
X0087791Y0184350D01*
X0088219Y0182752D02*
X0054763Y0182752D01*
X0052731Y0181153D02*
X0088648Y0181153D01*
X0089076Y0179555D02*
X0050699Y0179555D01*
X0050230Y0179192D02*
X0081132Y0148290D01*
X0082267Y0149183D02*
X0079278Y0149183D01*
X0077677Y0150781D02*
X0084029Y0150781D01*
X0085791Y0152380D02*
X0076076Y0152380D01*
X0074475Y0153979D02*
X0088657Y0153979D01*
X0093272Y0155577D02*
X0072874Y0155577D01*
X0071273Y0157176D02*
X0095072Y0157176D01*
X0094644Y0158774D02*
X0069672Y0158774D01*
X0068071Y0160373D02*
X0094215Y0160373D01*
X0093787Y0161971D02*
X0066470Y0161971D01*
X0064869Y0163570D02*
X0093359Y0163570D01*
X0092930Y0165168D02*
X0063268Y0165168D01*
X0061667Y0166767D02*
X0092502Y0166767D01*
X0092074Y0168365D02*
X0060066Y0168365D01*
X0058465Y0169964D02*
X0091646Y0169964D01*
X0091217Y0171562D02*
X0056864Y0171562D01*
X0055263Y0173161D02*
X0090789Y0173161D01*
X0090361Y0174759D02*
X0053662Y0174759D01*
X0052061Y0176358D02*
X0089933Y0176358D01*
X0089504Y0177956D02*
X0050460Y0177956D01*
X0045224Y0171562D02*
X0042734Y0171562D01*
X0043841Y0172945D02*
X0074784Y0142000D01*
X0069497Y0136026D01*
X0066291Y0127188D01*
X0024027Y0138508D01*
X0032168Y0158361D01*
X0043841Y0172945D01*
X0041455Y0169964D02*
X0046822Y0169964D01*
X0048421Y0168365D02*
X0040175Y0168365D01*
X0038896Y0166767D02*
X0050019Y0166767D01*
X0051617Y0165168D02*
X0037616Y0165168D01*
X0036337Y0163570D02*
X0053216Y0163570D01*
X0054814Y0161971D02*
X0035057Y0161971D01*
X0033778Y0160373D02*
X0056413Y0160373D01*
X0058011Y0158774D02*
X0032498Y0158774D01*
X0031681Y0157176D02*
X0059609Y0157176D01*
X0061208Y0155577D02*
X0031026Y0155577D01*
X0030371Y0153979D02*
X0062806Y0153979D01*
X0064405Y0152380D02*
X0029715Y0152380D01*
X0029060Y0150781D02*
X0066003Y0150781D01*
X0067601Y0149183D02*
X0028404Y0149183D01*
X0027749Y0147584D02*
X0069200Y0147584D01*
X0070798Y0145986D02*
X0027093Y0145986D01*
X0026438Y0144387D02*
X0072397Y0144387D01*
X0073995Y0142789D02*
X0025782Y0142789D01*
X0025127Y0141190D02*
X0074067Y0141190D01*
X0072652Y0139592D02*
X0024471Y0139592D01*
X0025949Y0137993D02*
X0071238Y0137993D01*
X0069824Y0136395D02*
X0031917Y0136395D01*
X0037885Y0134796D02*
X0069051Y0134796D01*
X0068471Y0133198D02*
X0043853Y0133198D01*
X0049821Y0131599D02*
X0067891Y0131599D01*
X0067312Y0130001D02*
X0055789Y0130001D01*
X0061757Y0128402D02*
X0066732Y0128402D01*
X0064114Y0119306D02*
X0021848Y0130627D01*
X0019058Y0111221D01*
X0021919Y0090956D01*
X0064325Y0102321D01*
X0062577Y0110855D01*
X0064114Y0119306D01*
X0064024Y0118811D02*
X0020149Y0118811D01*
X0019919Y0117213D02*
X0063733Y0117213D01*
X0063442Y0115614D02*
X0019690Y0115614D01*
X0019460Y0114016D02*
X0063151Y0114016D01*
X0062861Y0112417D02*
X0019230Y0112417D01*
X0019115Y0110819D02*
X0062584Y0110819D01*
X0062912Y0109220D02*
X0019340Y0109220D01*
X0019566Y0107622D02*
X0063239Y0107622D01*
X0063566Y0106023D02*
X0019792Y0106023D01*
X0020017Y0104425D02*
X0063894Y0104425D01*
X0064221Y0102826D02*
X0020243Y0102826D01*
X0020469Y0101228D02*
X0060244Y0101228D01*
X0054279Y0099629D02*
X0020694Y0099629D01*
X0020920Y0098031D02*
X0048315Y0098031D01*
X0042351Y0096432D02*
X0021146Y0096432D01*
X0021371Y0094834D02*
X0036387Y0094834D01*
X0030423Y0093235D02*
X0021597Y0093235D01*
X0021823Y0091637D02*
X0024459Y0091637D01*
X0016012Y0099685D02*
X0010930Y0099003D01*
X0009196Y0098885D01*
X0009291Y0096916D01*
X0024003Y0083026D02*
X0066302Y0094360D01*
X0069308Y0086161D01*
X0074909Y0079730D01*
X0043929Y0048752D01*
X0030950Y0065395D01*
X0024003Y0083026D01*
X0024390Y0082045D02*
X0072893Y0082045D01*
X0074285Y0080447D02*
X0025019Y0080447D01*
X0025649Y0078848D02*
X0074028Y0078848D01*
X0072429Y0077250D02*
X0026279Y0077250D01*
X0026909Y0075651D02*
X0070831Y0075651D01*
X0069232Y0074053D02*
X0027539Y0074053D01*
X0028168Y0072454D02*
X0067633Y0072454D01*
X0066035Y0070856D02*
X0028798Y0070856D01*
X0029428Y0069257D02*
X0064436Y0069257D01*
X0062837Y0067659D02*
X0030058Y0067659D01*
X0030688Y0066060D02*
X0061239Y0066060D01*
X0059640Y0064462D02*
X0031677Y0064462D01*
X0032924Y0062863D02*
X0058041Y0062863D01*
X0056443Y0061265D02*
X0034171Y0061265D01*
X0035417Y0059666D02*
X0054844Y0059666D01*
X0053245Y0058068D02*
X0036664Y0058068D01*
X0037910Y0056469D02*
X0051647Y0056469D01*
X0050048Y0054871D02*
X0039157Y0054871D01*
X0040404Y0053272D02*
X0048449Y0053272D01*
X0046851Y0051674D02*
X0041650Y0051674D01*
X0042897Y0050075D02*
X0045252Y0050075D01*
X0050473Y0043681D02*
X0089535Y0043681D01*
X0089107Y0042083D02*
X0050785Y0042083D01*
X0049706Y0042914D02*
X0080646Y0073849D01*
X0086909Y0068575D01*
X0095348Y0065365D01*
X0084006Y0023057D01*
X0065975Y0030383D01*
X0049706Y0042914D01*
X0052072Y0045280D02*
X0089964Y0045280D01*
X0090392Y0046878D02*
X0053670Y0046878D01*
X0055269Y0048477D02*
X0090821Y0048477D01*
X0091249Y0050075D02*
X0056868Y0050075D01*
X0058467Y0051674D02*
X0091678Y0051674D01*
X0092106Y0053272D02*
X0060065Y0053272D01*
X0061664Y0054871D02*
X0092535Y0054871D01*
X0092963Y0056469D02*
X0063263Y0056469D01*
X0064862Y0058068D02*
X0093392Y0058068D01*
X0093820Y0059666D02*
X0066461Y0059666D01*
X0068059Y0061265D02*
X0094249Y0061265D01*
X0094678Y0062863D02*
X0069658Y0062863D01*
X0071257Y0064462D02*
X0095106Y0064462D01*
X0093520Y0066060D02*
X0072856Y0066060D01*
X0074454Y0067659D02*
X0089318Y0067659D01*
X0086099Y0069257D02*
X0076053Y0069257D01*
X0077652Y0070856D02*
X0084201Y0070856D01*
X0082302Y0072454D02*
X0079251Y0072454D01*
X0086129Y0081756D02*
X0077657Y0091207D01*
X0073631Y0103118D01*
X0090145Y0107562D01*
X0092346Y0099662D01*
X0098195Y0093815D01*
X0086129Y0081756D01*
X0085869Y0082045D02*
X0086419Y0082045D01*
X0088019Y0083644D02*
X0084437Y0083644D01*
X0083004Y0085243D02*
X0089618Y0085243D01*
X0091217Y0086841D02*
X0081571Y0086841D01*
X0080138Y0088440D02*
X0092817Y0088440D01*
X0094416Y0090038D02*
X0078705Y0090038D01*
X0077512Y0091637D02*
X0096015Y0091637D01*
X0097615Y0093235D02*
X0076971Y0093235D01*
X0076431Y0094834D02*
X0097176Y0094834D01*
X0095577Y0096432D02*
X0075891Y0096432D01*
X0075350Y0098031D02*
X0093978Y0098031D01*
X0092379Y0099629D02*
X0074810Y0099629D01*
X0074270Y0101228D02*
X0091910Y0101228D01*
X0091464Y0102826D02*
X0073729Y0102826D01*
X0078487Y0104425D02*
X0091019Y0104425D01*
X0090573Y0106023D02*
X0084427Y0106023D01*
X0066715Y0093235D02*
X0062103Y0093235D01*
X0067301Y0091637D02*
X0056137Y0091637D01*
X0050171Y0090038D02*
X0067887Y0090038D01*
X0068473Y0088440D02*
X0044206Y0088440D01*
X0038240Y0086841D02*
X0069059Y0086841D01*
X0070108Y0085243D02*
X0032274Y0085243D01*
X0026309Y0083644D02*
X0071500Y0083644D01*
X0101870Y0058068D02*
X0121629Y0058068D01*
X0121200Y0059666D02*
X0102298Y0059666D01*
X0102726Y0061265D02*
X0120772Y0061265D01*
X0120344Y0062863D02*
X0118108Y0062863D01*
X0120258Y0063186D02*
X0131581Y0020908D01*
X0111237Y0018297D01*
X0091932Y0020977D01*
X0103261Y0063261D01*
X0111568Y0061883D01*
X0120258Y0063186D01*
X0122057Y0056469D02*
X0101441Y0056469D01*
X0101013Y0054871D02*
X0122485Y0054871D01*
X0122913Y0053272D02*
X0100585Y0053272D01*
X0100156Y0051674D02*
X0123341Y0051674D01*
X0123769Y0050075D02*
X0099728Y0050075D01*
X0099300Y0048477D02*
X0124197Y0048477D01*
X0124625Y0046878D02*
X0098872Y0046878D01*
X0098443Y0045280D02*
X0125054Y0045280D01*
X0125482Y0043681D02*
X0098015Y0043681D01*
X0097587Y0042083D02*
X0125910Y0042083D01*
X0126338Y0040484D02*
X0097159Y0040484D01*
X0096730Y0038886D02*
X0126766Y0038886D01*
X0127194Y0037287D02*
X0096302Y0037287D01*
X0095874Y0035689D02*
X0127622Y0035689D01*
X0128050Y0034090D02*
X0095445Y0034090D01*
X0095017Y0032492D02*
X0128479Y0032492D01*
X0128907Y0030893D02*
X0094589Y0030893D01*
X0094161Y0029295D02*
X0129335Y0029295D01*
X0129763Y0027696D02*
X0093732Y0027696D01*
X0093304Y0026098D02*
X0130191Y0026098D01*
X0130619Y0024499D02*
X0092876Y0024499D01*
X0092448Y0022901D02*
X0131047Y0022901D01*
X0131475Y0021302D02*
X0092019Y0021302D01*
X0092705Y0016256D02*
X0091802Y0011456D01*
X0091630Y0009408D01*
X0096148Y0008635D01*
X0091591Y0008947D02*
X0091630Y0009408D01*
X0101103Y0019704D02*
X0122196Y0019704D01*
X0117957Y0014693D02*
X0128325Y0015935D01*
X0132851Y0016607D01*
X0133739Y0012079D01*
X0134020Y0010102D02*
X0138825Y0011131D01*
X0139134Y0024499D02*
X0142864Y0024499D01*
X0146716Y0026098D02*
X0138706Y0026098D01*
X0138277Y0027696D02*
X0150567Y0027696D01*
X0154419Y0029295D02*
X0137849Y0029295D01*
X0137421Y0030893D02*
X0158270Y0030893D01*
X0160372Y0032492D02*
X0136993Y0032492D01*
X0136564Y0034090D02*
X0162434Y0034090D01*
X0164496Y0035689D02*
X0136136Y0035689D01*
X0135708Y0037287D02*
X0166558Y0037287D01*
X0168619Y0038886D02*
X0135280Y0038886D01*
X0134851Y0040484D02*
X0170681Y0040484D01*
X0169319Y0033457D02*
X0172400Y0029336D01*
X0173885Y0027611D02*
X0176916Y0030582D01*
X0195733Y0063524D02*
X0200233Y0061095D01*
X0202315Y0060021D02*
X0203570Y0063556D01*
X0207649Y0101870D02*
X0212953Y0101260D01*
X0215152Y0101746D01*
X0215073Y0104970D01*
X0214717Y0101638D02*
X0214856Y0101098D01*
X0203049Y0120410D02*
X0163069Y0120410D01*
X0169036Y0122008D02*
X0202834Y0122008D01*
X0202619Y0123607D02*
X0175003Y0123607D01*
X0180970Y0125205D02*
X0202404Y0125205D01*
X0202189Y0126804D02*
X0186937Y0126804D01*
X0192904Y0128402D02*
X0201974Y0128402D01*
X0201758Y0130001D02*
X0198871Y0130001D01*
X0203016Y0141690D02*
X0207774Y0143180D01*
X0209780Y0143447D02*
X0208321Y0147298D01*
X0015425Y0110844D02*
X0015454Y0113207D01*
X0015541Y0115569D01*
X0015686Y0117928D01*
X0015889Y0120283D01*
X0016149Y0122632D01*
X0016467Y0124974D01*
X0016843Y0127308D01*
X0017275Y0129631D01*
X0017765Y0131943D01*
X0018311Y0134243D01*
X0018913Y0136528D01*
X0019572Y0138798D01*
X0020285Y0141052D01*
X0021054Y0143286D01*
X0021878Y0145502D01*
X0022755Y0147696D01*
X0023687Y0149869D01*
X0024671Y0152018D01*
X0025707Y0154142D01*
X0026796Y0156240D01*
X0027936Y0158310D01*
X0029126Y0160352D01*
X0030366Y0162364D01*
X0031654Y0164345D01*
X0032992Y0166294D01*
X0034376Y0168210D01*
X0035807Y0170091D01*
X0037284Y0171936D01*
X0038806Y0173745D01*
X0040371Y0175515D01*
X0041980Y0177247D01*
X0043631Y0178938D01*
X0045322Y0180589D01*
X0047054Y0182198D01*
X0048824Y0183763D01*
X0050633Y0185285D01*
X0052478Y0186762D01*
X0054359Y0188193D01*
X0056275Y0189577D01*
X0058224Y0190915D01*
X0060205Y0192203D01*
X0062217Y0193443D01*
X0064259Y0194633D01*
X0066329Y0195773D01*
X0068427Y0196862D01*
X0070551Y0197898D01*
X0072700Y0198882D01*
X0074873Y0199814D01*
X0077067Y0200691D01*
X0079283Y0201515D01*
X0081517Y0202284D01*
X0083771Y0202997D01*
X0086041Y0203656D01*
X0088326Y0204258D01*
X0090626Y0204804D01*
X0092938Y0205294D01*
X0095261Y0205726D01*
X0097595Y0206102D01*
X0099937Y0206420D01*
X0102286Y0206680D01*
X0104641Y0206883D01*
X0107000Y0207028D01*
X0109362Y0207115D01*
X0111725Y0207144D01*
X0114088Y0207115D01*
X0116450Y0207028D01*
X0118809Y0206883D01*
X0121164Y0206680D01*
X0123513Y0206420D01*
X0125855Y0206102D01*
X0128189Y0205726D01*
X0130512Y0205294D01*
X0132824Y0204804D01*
X0135124Y0204258D01*
X0137409Y0203656D01*
X0139679Y0202997D01*
X0141933Y0202284D01*
X0144167Y0201515D01*
X0146383Y0200691D01*
X0148577Y0199814D01*
X0150750Y0198882D01*
X0152899Y0197898D01*
X0155023Y0196862D01*
X0157121Y0195773D01*
X0159191Y0194633D01*
X0161233Y0193443D01*
X0163245Y0192203D01*
X0165226Y0190915D01*
X0167175Y0189577D01*
X0169091Y0188193D01*
X0170972Y0186762D01*
X0172817Y0185285D01*
X0174626Y0183763D01*
X0176396Y0182198D01*
X0178128Y0180589D01*
X0179819Y0178938D01*
X0181470Y0177247D01*
X0183079Y0175515D01*
X0184644Y0173745D01*
X0186166Y0171936D01*
X0187643Y0170091D01*
X0189074Y0168210D01*
X0190458Y0166294D01*
X0191796Y0164345D01*
X0193084Y0162364D01*
X0194324Y0160352D01*
X0195514Y0158310D01*
X0196654Y0156240D01*
X0197743Y0154142D01*
X0198779Y0152018D01*
X0199763Y0149869D01*
X0200695Y0147696D01*
X0201572Y0145502D01*
X0202396Y0143286D01*
X0203165Y0141052D01*
X0203878Y0138798D01*
X0204537Y0136528D01*
X0205139Y0134243D01*
X0205685Y0131943D01*
X0206175Y0129631D01*
X0206607Y0127308D01*
X0206983Y0124974D01*
X0207301Y0122632D01*
X0207561Y0120283D01*
X0207764Y0117928D01*
X0207909Y0115569D01*
X0207996Y0113207D01*
X0208025Y0110844D01*
X0207996Y0108481D01*
X0207909Y0106119D01*
X0207764Y0103760D01*
X0207561Y0101405D01*
X0207301Y0099056D01*
X0206983Y0096714D01*
X0206607Y0094380D01*
X0206175Y0092057D01*
X0205685Y0089745D01*
X0205139Y0087445D01*
X0204537Y0085160D01*
X0203878Y0082890D01*
X0203165Y0080636D01*
X0202396Y0078402D01*
X0201572Y0076186D01*
X0200695Y0073992D01*
X0199763Y0071819D01*
X0198779Y0069670D01*
X0197743Y0067546D01*
X0196654Y0065448D01*
X0195514Y0063378D01*
X0194324Y0061336D01*
X0193084Y0059324D01*
X0191796Y0057343D01*
X0190458Y0055394D01*
X0189074Y0053478D01*
X0187643Y0051597D01*
X0186166Y0049752D01*
X0184644Y0047943D01*
X0183079Y0046173D01*
X0181470Y0044441D01*
X0179819Y0042750D01*
X0178128Y0041099D01*
X0176396Y0039490D01*
X0174626Y0037925D01*
X0172817Y0036403D01*
X0170972Y0034926D01*
X0169091Y0033495D01*
X0167175Y0032111D01*
X0165226Y0030773D01*
X0163245Y0029485D01*
X0161233Y0028245D01*
X0159191Y0027055D01*
X0157121Y0025915D01*
X0155023Y0024826D01*
X0152899Y0023790D01*
X0150750Y0022806D01*
X0148577Y0021874D01*
X0146383Y0020997D01*
X0144167Y0020173D01*
X0141933Y0019404D01*
X0139679Y0018691D01*
X0137409Y0018032D01*
X0135124Y0017430D01*
X0132824Y0016884D01*
X0130512Y0016394D01*
X0128189Y0015962D01*
X0125855Y0015586D01*
X0123513Y0015268D01*
X0121164Y0015008D01*
X0118809Y0014805D01*
X0116450Y0014660D01*
X0114088Y0014573D01*
X0111725Y0014544D01*
X0109362Y0014573D01*
X0107000Y0014660D01*
X0104641Y0014805D01*
X0102286Y0015008D01*
X0099937Y0015268D01*
X0097595Y0015586D01*
X0095261Y0015962D01*
X0092938Y0016394D01*
X0090626Y0016884D01*
X0088326Y0017430D01*
X0086041Y0018032D01*
X0083771Y0018691D01*
X0081517Y0019404D01*
X0079283Y0020173D01*
X0077067Y0020997D01*
X0074873Y0021874D01*
X0072700Y0022806D01*
X0070551Y0023790D01*
X0068427Y0024826D01*
X0066329Y0025915D01*
X0064259Y0027055D01*
X0062217Y0028245D01*
X0060205Y0029485D01*
X0058224Y0030773D01*
X0056275Y0032111D01*
X0054359Y0033495D01*
X0052478Y0034926D01*
X0050633Y0036403D01*
X0048824Y0037925D01*
X0047054Y0039490D01*
X0045322Y0041099D01*
X0043631Y0042750D01*
X0041980Y0044441D01*
X0040371Y0046173D01*
X0038806Y0047943D01*
X0037284Y0049752D01*
X0035807Y0051597D01*
X0034376Y0053478D01*
X0032992Y0055394D01*
X0031654Y0057343D01*
X0030366Y0059324D01*
X0029126Y0061336D01*
X0027936Y0063378D01*
X0026796Y0065448D01*
X0025707Y0067546D01*
X0024671Y0069670D01*
X0023687Y0071819D01*
X0022755Y0073992D01*
X0021878Y0076186D01*
X0021054Y0078402D01*
X0020285Y0080636D01*
X0019572Y0082890D01*
X0018913Y0085160D01*
X0018311Y0087445D01*
X0017765Y0089745D01*
X0017275Y0092057D01*
X0016843Y0094380D01*
X0016467Y0096714D01*
X0016149Y0099056D01*
X0015889Y0101405D01*
X0015686Y0103760D01*
X0015541Y0106119D01*
X0015454Y0108481D01*
X0015425Y0110844D01*
X0020379Y0120410D02*
X0059994Y0120410D01*
X0054026Y0122008D02*
X0020609Y0122008D01*
X0020839Y0123607D02*
X0048058Y0123607D01*
X0042090Y0125205D02*
X0021068Y0125205D01*
X0021298Y0126804D02*
X0036122Y0126804D01*
X0030154Y0128402D02*
X0021528Y0128402D01*
X0021758Y0130001D02*
X0024186Y0130001D01*
X0019747Y0139605D02*
X0014813Y0141059D01*
X0012700Y0140957D01*
X0012039Y0137389D01*
X0039378Y0174543D02*
X0035610Y0177684D01*
X0034197Y0179090D02*
X0031527Y0176079D01*
X0076492Y0195540D02*
X0084793Y0195540D01*
X0084365Y0197138D02*
X0080491Y0197138D01*
X0085303Y0202714D02*
X0084879Y0203442D01*
X0106882Y0214065D02*
X0110666Y0214065D01*
X0110666Y0212295D01*
X0110707Y0212295D01*
X0110707Y0207293D01*
X0110777Y0207223D01*
X0105848Y0158774D02*
X0103174Y0158774D01*
X0103154Y0062863D02*
X0105657Y0062863D01*
X0088678Y0040484D02*
X0052861Y0040484D01*
X0054936Y0038886D02*
X0088250Y0038886D01*
X0087821Y0037287D02*
X0057011Y0037287D01*
X0059087Y0035689D02*
X0087392Y0035689D01*
X0086964Y0034090D02*
X0061162Y0034090D01*
X0063237Y0032492D02*
X0086535Y0032492D01*
X0086107Y0030893D02*
X0065312Y0030893D01*
X0068653Y0029295D02*
X0085678Y0029295D01*
X0085250Y0027696D02*
X0072587Y0027696D01*
X0076522Y0026098D02*
X0084821Y0026098D01*
X0084393Y0024499D02*
X0080456Y0024499D01*
X0056062Y0023980D02*
X0052251Y0026052D01*
X0025015Y0054437D02*
X0022440Y0058198D01*
X0024055Y0059513D01*
X0028813Y0061689D01*
X0109879Y0014490D02*
X0111257Y0014462D01*
X0117957Y0014693D01*
D13*
G36*
X0117717Y0012192D02*
X0127343Y0014238D01*
X0127863Y0011794D01*
X0118237Y0009748D01*
X0117717Y0012192D01*
G37*
G36*
X0095456Y0014129D02*
X0105082Y0012083D01*
X0104562Y0009639D01*
X0094936Y0011685D01*
X0095456Y0014129D01*
G37*
G36*
X0077212Y0018075D02*
X0086838Y0016029D01*
X0086318Y0013585D01*
X0076692Y0015631D01*
X0077212Y0018075D01*
G37*
G36*
X0057619Y0029010D02*
X0065580Y0023226D01*
X0064111Y0021204D01*
X0056150Y0026988D01*
X0057619Y0029010D01*
G37*
G36*
X0042557Y0040036D02*
X0050518Y0034252D01*
X0049049Y0032230D01*
X0041088Y0038014D01*
X0042557Y0040036D01*
G37*
G36*
X0028488Y0058588D02*
X0033408Y0050066D01*
X0031242Y0048816D01*
X0026322Y0057338D01*
X0028488Y0058588D01*
G37*
G36*
X0019213Y0074786D02*
X0024133Y0066264D01*
X0021967Y0065014D01*
X0017047Y0073536D01*
X0019213Y0074786D01*
G37*
G36*
X0014602Y0096355D02*
X0015631Y0086568D01*
X0013146Y0086307D01*
X0012117Y0096094D01*
X0014602Y0096355D01*
G37*
G36*
X0012717Y0114925D02*
X0013746Y0105138D01*
X0011261Y0104877D01*
X0010232Y0114664D01*
X0012717Y0114925D01*
G37*
G36*
X0017091Y0137145D02*
X0014051Y0127786D01*
X0011673Y0128559D01*
X0014713Y0137918D01*
X0017091Y0137145D01*
G37*
G36*
X0022922Y0154877D02*
X0019882Y0145518D01*
X0017504Y0146291D01*
X0020544Y0155650D01*
X0022922Y0154877D01*
G37*
G36*
X0036099Y0173182D02*
X0029515Y0165869D01*
X0027657Y0167542D01*
X0034241Y0174855D01*
X0036099Y0173182D01*
G37*
G36*
X0048638Y0187009D02*
X0042054Y0179696D01*
X0040196Y0181369D01*
X0046780Y0188682D01*
X0048638Y0187009D01*
G37*
G36*
X0068112Y0198873D02*
X0059122Y0194871D01*
X0058106Y0197155D01*
X0067096Y0201157D01*
X0068112Y0198873D01*
G37*
G36*
X0085191Y0206404D02*
X0076201Y0202402D01*
X0075185Y0204686D01*
X0084175Y0208688D01*
X0085191Y0206404D01*
G37*
X0102769Y0210170D03*
X0121435Y0210103D03*
G36*
X0147729Y0202041D02*
X0138739Y0206043D01*
X0139755Y0208327D01*
X0148745Y0204325D01*
X0147729Y0202041D01*
G37*
G36*
X0164754Y0194389D02*
X0155764Y0198391D01*
X0156780Y0200675D01*
X0165770Y0196673D01*
X0164754Y0194389D01*
G37*
G36*
X0181596Y0179374D02*
X0175012Y0186687D01*
X0176870Y0188360D01*
X0183454Y0181047D01*
X0181596Y0179374D01*
G37*
G36*
X0194037Y0165459D02*
X0187453Y0172772D01*
X0189311Y0174445D01*
X0195895Y0167132D01*
X0194037Y0165459D01*
G37*
G36*
X0203630Y0145006D02*
X0200590Y0154365D01*
X0202968Y0155138D01*
X0206008Y0145779D01*
X0203630Y0145006D01*
G37*
G36*
X0209335Y0127233D02*
X0206295Y0136592D01*
X0208673Y0137365D01*
X0211713Y0128006D01*
X0209335Y0127233D01*
G37*
G36*
X0209912Y0104614D02*
X0210941Y0114401D01*
X0213426Y0114140D01*
X0212397Y0104353D01*
X0209912Y0104614D01*
G37*
G36*
X0207895Y0086057D02*
X0208924Y0095844D01*
X0211409Y0095583D01*
X0210380Y0085796D01*
X0207895Y0086057D01*
G37*
G36*
X0198818Y0065396D02*
X0203738Y0073918D01*
X0205904Y0072668D01*
X0200984Y0064146D01*
X0198818Y0065396D01*
G37*
G36*
X0189427Y0049264D02*
X0194347Y0057786D01*
X0196513Y0056536D01*
X0191593Y0048014D01*
X0189427Y0049264D01*
G37*
G36*
X0172857Y0033841D02*
X0180818Y0039625D01*
X0182287Y0037603D01*
X0174326Y0031819D01*
X0172857Y0033841D01*
G37*
G36*
X0157717Y0022923D02*
X0165678Y0028707D01*
X0167147Y0026685D01*
X0159186Y0020901D01*
X0157717Y0022923D01*
G37*
G36*
X0135988Y0016008D02*
X0145614Y0018054D01*
X0146134Y0015610D01*
X0136508Y0013564D01*
X0135988Y0016008D01*
G37*
D14*
G36*
X0133473Y0008602D02*
X0132081Y0015147D01*
X0134005Y0015556D01*
X0135397Y0009011D01*
X0133473Y0008602D01*
G37*
G36*
X0173570Y0026051D02*
X0169638Y0031464D01*
X0171230Y0032621D01*
X0175162Y0027208D01*
X0173570Y0026051D01*
G37*
G36*
X0202638Y0058570D02*
X0196844Y0061915D01*
X0197828Y0063620D01*
X0203622Y0060275D01*
X0202638Y0058570D01*
G37*
G36*
X0216177Y0099932D02*
X0209523Y0100632D01*
X0209729Y0102588D01*
X0216383Y0101888D01*
X0216177Y0099932D01*
G37*
G36*
X0211260Y0143278D02*
X0204896Y0141211D01*
X0204288Y0143082D01*
X0210652Y0145149D01*
X0211260Y0143278D01*
G37*
G36*
X0189268Y0180898D02*
X0184296Y0176421D01*
X0182980Y0177884D01*
X0187952Y0182361D01*
X0189268Y0180898D01*
G37*
G36*
X0154117Y0206554D02*
X0151396Y0200442D01*
X0149599Y0201242D01*
X0152320Y0207354D01*
X0154117Y0206554D01*
G37*
G36*
X0069034Y0206640D02*
X0071755Y0200528D01*
X0069958Y0199728D01*
X0067237Y0205840D01*
X0069034Y0206640D01*
G37*
G36*
X0033782Y0180654D02*
X0038754Y0176177D01*
X0037438Y0174714D01*
X0032466Y0179191D01*
X0033782Y0180654D01*
G37*
G36*
X0011935Y0143028D02*
X0018299Y0140961D01*
X0017691Y0139090D01*
X0011327Y0141157D01*
X0011935Y0143028D01*
G37*
G36*
X0007500Y0099631D02*
X0014154Y0100331D01*
X0014360Y0098375D01*
X0007706Y0097675D01*
X0007500Y0099631D01*
G37*
G36*
X0020666Y0058693D02*
X0026460Y0062038D01*
X0027444Y0060333D01*
X0021650Y0056988D01*
X0020666Y0058693D01*
G37*
G36*
X0050432Y0025925D02*
X0054364Y0031338D01*
X0055956Y0030181D01*
X0052024Y0024768D01*
X0050432Y0025925D01*
G37*
G36*
X0090144Y0008388D02*
X0091536Y0014933D01*
X0093460Y0014524D01*
X0092068Y0007979D01*
X0090144Y0008388D01*
G37*
D15*
G36*
X0088187Y0009013D02*
X0082027Y0010323D01*
X0082477Y0012439D01*
X0088637Y0011129D01*
X0088187Y0009013D01*
G37*
G36*
X0131429Y0008377D02*
X0125269Y0007067D01*
X0124819Y0009183D01*
X0130979Y0010493D01*
X0131429Y0008377D01*
G37*
G36*
X0171795Y0025014D02*
X0166701Y0021313D01*
X0165429Y0023064D01*
X0170523Y0026765D01*
X0171795Y0025014D01*
G37*
G36*
X0201438Y0056901D02*
X0198290Y0051447D01*
X0196416Y0052529D01*
X0199564Y0057983D01*
X0201438Y0056901D01*
G37*
G36*
X0215760Y0097919D02*
X0215101Y0091657D01*
X0212950Y0091883D01*
X0213609Y0098145D01*
X0215760Y0097919D01*
G37*
G36*
X0211697Y0141270D02*
X0213644Y0135281D01*
X0211587Y0134612D01*
X0209640Y0140601D01*
X0211697Y0141270D01*
G37*
G36*
X0190485Y0179242D02*
X0194699Y0174562D01*
X0193091Y0173114D01*
X0188877Y0177794D01*
X0190485Y0179242D01*
G37*
G36*
X0155904Y0205535D02*
X0161656Y0202974D01*
X0160776Y0200997D01*
X0155024Y0203558D01*
X0155904Y0205535D01*
G37*
X0116885Y0214354D03*
G36*
X0070986Y0207286D02*
X0076738Y0209847D01*
X0077618Y0207870D01*
X0071866Y0205309D01*
X0070986Y0207286D01*
G37*
G36*
X0035302Y0182037D02*
X0039516Y0186717D01*
X0041124Y0185269D01*
X0036910Y0180589D01*
X0035302Y0182037D01*
G37*
G36*
X0012762Y0144910D02*
X0014709Y0150899D01*
X0016766Y0150230D01*
X0014819Y0144241D01*
X0012762Y0144910D01*
G37*
G36*
X0007490Y0101687D02*
X0006831Y0107949D01*
X0008982Y0108175D01*
X0009641Y0101913D01*
X0007490Y0101687D01*
G37*
G36*
X0019820Y0060566D02*
X0016672Y0066020D01*
X0018546Y0067102D01*
X0021694Y0061648D01*
X0019820Y0060566D01*
G37*
G36*
X0048896Y0027293D02*
X0043802Y0030994D01*
X0045074Y0032745D01*
X0050168Y0029044D01*
X0048896Y0027293D01*
G37*
D16*
G36*
X0052743Y0032533D02*
X0050199Y0029031D01*
X0049245Y0029725D01*
X0051789Y0033227D01*
X0052743Y0032533D01*
G37*
G36*
X0025466Y0063789D02*
X0021718Y0061625D01*
X0021128Y0062647D01*
X0024876Y0064811D01*
X0025466Y0063789D01*
G37*
G36*
X0013958Y0102335D02*
X0009653Y0101882D01*
X0009530Y0103055D01*
X0013835Y0103508D01*
X0013958Y0102335D01*
G37*
G36*
X0018935Y0142871D02*
X0014818Y0144208D01*
X0015183Y0145331D01*
X0019300Y0143994D01*
X0018935Y0142871D01*
G37*
G36*
X0040112Y0177663D02*
X0036895Y0180560D01*
X0037684Y0181437D01*
X0040901Y0178540D01*
X0040112Y0177663D01*
G37*
G36*
X0073600Y0201334D02*
X0071840Y0205288D01*
X0072918Y0205768D01*
X0074678Y0201814D01*
X0073600Y0201334D01*
G37*
G36*
X0153230Y0199609D02*
X0154990Y0203563D01*
X0156068Y0203083D01*
X0154308Y0199129D01*
X0153230Y0199609D01*
G37*
G36*
X0185633Y0174915D02*
X0188850Y0177812D01*
X0189639Y0176935D01*
X0186422Y0174038D01*
X0185633Y0174915D01*
G37*
G36*
X0205504Y0139292D02*
X0209621Y0140629D01*
X0209986Y0139506D01*
X0205869Y0138169D01*
X0205504Y0139292D01*
G37*
G36*
X0209298Y0098631D02*
X0213603Y0098178D01*
X0213480Y0097005D01*
X0209175Y0097458D01*
X0209298Y0098631D01*
G37*
G36*
X0195825Y0060179D02*
X0199573Y0058015D01*
X0198983Y0056993D01*
X0195235Y0059157D01*
X0195825Y0060179D01*
G37*
G36*
X0168000Y0030293D02*
X0170544Y0026791D01*
X0169590Y0026097D01*
X0167046Y0029599D01*
X0168000Y0030293D01*
G37*
G36*
X0130108Y0014743D02*
X0131009Y0010508D01*
X0129856Y0010263D01*
X0128955Y0014498D01*
X0130108Y0014743D01*
G37*
G36*
X0089569Y0015366D02*
X0088668Y0011131D01*
X0087515Y0011376D01*
X0088416Y0015611D01*
X0089569Y0015366D01*
G37*
D17*
G36*
X0086062Y0011686D02*
X0088042Y0012972D01*
X0088684Y0011982D01*
X0086704Y0010696D01*
X0086062Y0011686D01*
G37*
G36*
X0048043Y0030598D02*
X0050375Y0030968D01*
X0050559Y0029804D01*
X0048227Y0029434D01*
X0048043Y0030598D01*
G37*
G36*
X0020385Y0063933D02*
X0022666Y0063322D01*
X0022361Y0062183D01*
X0020080Y0062794D01*
X0020385Y0063933D01*
G37*
G36*
X0009375Y0104533D02*
X0011210Y0103048D01*
X0010467Y0102131D01*
X0008632Y0103616D01*
X0009375Y0104533D01*
G37*
G36*
X0015642Y0146744D02*
X0016713Y0144640D01*
X0015662Y0144104D01*
X0014591Y0146208D01*
X0015642Y0146744D01*
G37*
G36*
X0038679Y0182540D02*
X0038803Y0180182D01*
X0037625Y0180120D01*
X0037501Y0182478D01*
X0038679Y0182540D01*
G37*
G36*
X0074276Y0206372D02*
X0073429Y0204168D01*
X0072328Y0204590D01*
X0073175Y0206794D01*
X0074276Y0206372D01*
G37*
G36*
X0116370Y0213263D02*
X0114701Y0211594D01*
X0113866Y0212429D01*
X0115535Y0214098D01*
X0116370Y0213263D01*
G37*
G36*
X0157425Y0202480D02*
X0155221Y0201633D01*
X0154799Y0202734D01*
X0157003Y0203581D01*
X0157425Y0202480D01*
G37*
G36*
X0190633Y0175830D02*
X0188275Y0175954D01*
X0188337Y0177132D01*
X0190695Y0177008D01*
X0190633Y0175830D01*
G37*
G36*
X0210445Y0138094D02*
X0208341Y0139165D01*
X0208877Y0140216D01*
X0210981Y0139145D01*
X0210445Y0138094D01*
G37*
G36*
X0213324Y0095527D02*
X0211839Y0097362D01*
X0212756Y0098105D01*
X0214241Y0096270D01*
X0213324Y0095527D01*
G37*
G36*
X0198240Y0055707D02*
X0197629Y0057988D01*
X0198768Y0058293D01*
X0199379Y0056012D01*
X0198240Y0055707D01*
G37*
G36*
X0168388Y0025224D02*
X0168758Y0027556D01*
X0169922Y0027372D01*
X0169552Y0025040D01*
X0168388Y0025224D01*
G37*
G36*
X0128401Y0009954D02*
X0129687Y0011934D01*
X0130677Y0011292D01*
X0129391Y0009312D01*
X0128401Y0009954D01*
G37*
D18*
X0110707Y0212295D03*
D19*
X0114294Y0211100D03*
D20*
X0106882Y0214138D03*
X0102157Y0214138D03*
G36*
X0062893Y0203803D02*
X0066219Y0205284D01*
X0067403Y0202625D01*
X0064077Y0201144D01*
X0062893Y0203803D01*
G37*
G36*
X0058577Y0201882D02*
X0061903Y0203363D01*
X0063087Y0200704D01*
X0059761Y0199223D01*
X0058577Y0201882D01*
G37*
G36*
X0029227Y0175700D02*
X0031663Y0178406D01*
X0033827Y0176458D01*
X0031391Y0173752D01*
X0029227Y0175700D01*
G37*
G36*
X0026066Y0172189D02*
X0028502Y0174895D01*
X0030666Y0172947D01*
X0028230Y0170241D01*
X0026066Y0172189D01*
G37*
G36*
X0010092Y0136108D02*
X0011217Y0139570D01*
X0013986Y0138670D01*
X0012861Y0135208D01*
X0010092Y0136108D01*
G37*
G36*
X0008632Y0131615D02*
X0009757Y0135077D01*
X0012526Y0134177D01*
X0011401Y0130715D01*
X0008632Y0131615D01*
G37*
G36*
X0008644Y0092787D02*
X0008263Y0096408D01*
X0011158Y0096713D01*
X0011539Y0093092D01*
X0008644Y0092787D01*
G37*
G36*
X0009138Y0088089D02*
X0008757Y0091710D01*
X0011652Y0092015D01*
X0012033Y0088394D01*
X0009138Y0088089D01*
G37*
G36*
X0024665Y0052132D02*
X0022844Y0055286D01*
X0025365Y0056742D01*
X0027186Y0053588D01*
X0024665Y0052132D01*
G37*
G36*
X0027027Y0048041D02*
X0025206Y0051195D01*
X0027727Y0052651D01*
X0029548Y0049497D01*
X0027027Y0048041D01*
G37*
G36*
X0056679Y0021732D02*
X0053733Y0023873D01*
X0055445Y0026228D01*
X0058391Y0024087D01*
X0056679Y0021732D01*
G37*
G36*
X0060501Y0018955D02*
X0057555Y0021096D01*
X0059267Y0023451D01*
X0062213Y0021310D01*
X0060501Y0018955D01*
G37*
G36*
X0097626Y0006833D02*
X0094065Y0007590D01*
X0094670Y0010437D01*
X0098231Y0009680D01*
X0097626Y0006833D01*
G37*
G36*
X0102247Y0005851D02*
X0098686Y0006608D01*
X0099291Y0009455D01*
X0102852Y0008698D01*
X0102247Y0005851D01*
G37*
G36*
X0140908Y0010086D02*
X0137347Y0009329D01*
X0136742Y0012176D01*
X0140303Y0012933D01*
X0140908Y0010086D01*
G37*
G36*
X0145529Y0011068D02*
X0141968Y0010311D01*
X0141363Y0013158D01*
X0144924Y0013915D01*
X0145529Y0011068D01*
G37*
G36*
X0179245Y0030475D02*
X0176299Y0028334D01*
X0174587Y0030689D01*
X0177533Y0032830D01*
X0179245Y0030475D01*
G37*
G36*
X0183067Y0033252D02*
X0180121Y0031111D01*
X0178409Y0033466D01*
X0181355Y0035607D01*
X0183067Y0033252D01*
G37*
G36*
X0205741Y0064405D02*
X0203920Y0061251D01*
X0201399Y0062707D01*
X0203220Y0065861D01*
X0205741Y0064405D01*
G37*
G36*
X0208103Y0068496D02*
X0206282Y0065342D01*
X0203761Y0066798D01*
X0205582Y0069952D01*
X0208103Y0068496D01*
G37*
G36*
X0216711Y0106628D02*
X0216330Y0103007D01*
X0213435Y0103312D01*
X0213816Y0106933D01*
X0216711Y0106628D01*
G37*
G36*
X0217204Y0111327D02*
X0216823Y0107706D01*
X0213928Y0108011D01*
X0214309Y0111632D01*
X0217204Y0111327D01*
G37*
G36*
X0209143Y0149479D02*
X0210268Y0146017D01*
X0207499Y0145117D01*
X0206374Y0148579D01*
X0209143Y0149479D01*
G37*
G36*
X0207683Y0153973D02*
X0208808Y0150511D01*
X0206039Y0149611D01*
X0204914Y0153073D01*
X0207683Y0153973D01*
G37*
G36*
X0184704Y0186123D02*
X0187140Y0183417D01*
X0184976Y0181469D01*
X0182540Y0184175D01*
X0184704Y0186123D01*
G37*
G36*
X0181543Y0189634D02*
X0183979Y0186928D01*
X0181815Y0184980D01*
X0179379Y0187686D01*
X0181543Y0189634D01*
G37*
G36*
X0148052Y0209297D02*
X0151378Y0207816D01*
X0150194Y0205157D01*
X0146868Y0206638D01*
X0148052Y0209297D01*
G37*
G36*
X0143736Y0211218D02*
X0147062Y0209737D01*
X0145878Y0207078D01*
X0142552Y0208559D01*
X0143736Y0211218D01*
G37*
D21*
X0032349Y0049525D02*
X0038110Y0037390D01*
X0046985Y0030019D01*
X0053194Y0028053D02*
X0055870Y0032197D01*
X0060865Y0025107D02*
X0063878Y0022463D01*
X0073457Y0013572D01*
X0085332Y0010726D01*
X0081765Y0015830D02*
X0074223Y0017498D01*
X0100009Y0011884D02*
X0116577Y0006167D01*
X0128124Y0008780D01*
X0122790Y0011993D02*
X0115819Y0010491D01*
X0141061Y0015809D02*
X0158458Y0017085D01*
X0166714Y0022042D01*
X0168612Y0024039D01*
X0162432Y0024804D02*
X0156351Y0020638D01*
X0177572Y0035722D02*
X0192457Y0044396D01*
X0197991Y0052012D01*
X0192970Y0052900D02*
X0189157Y0046497D01*
X0202361Y0069032D02*
X0212650Y0083247D01*
X0214571Y0092470D01*
X0209652Y0090820D02*
X0208609Y0083630D01*
X0211669Y0109377D02*
X0215092Y0126383D01*
X0213102Y0136214D01*
X0211642Y0137941D01*
X0209004Y0132299D02*
X0211218Y0125369D01*
X0203299Y0150072D02*
X0199896Y0167128D01*
X0194256Y0174952D01*
X0191788Y0176178D01*
X0191674Y0169952D02*
X0196524Y0164341D01*
X0179233Y0183867D02*
X0169040Y0198286D01*
X0160200Y0203409D01*
X0160767Y0197532D02*
X0167332Y0194149D01*
X0143742Y0205184D02*
X0129240Y0213890D01*
X0116885Y0214354D01*
X0121435Y0210103D02*
X0128576Y0210044D01*
X0086755Y0208255D02*
X0080188Y0205545D01*
X0063109Y0198014D02*
X0045433Y0191626D01*
X0038213Y0183653D01*
X0044417Y0184189D02*
X0049245Y0189574D01*
X0031878Y0170362D02*
X0020080Y0159924D01*
X0014764Y0147570D01*
X0020213Y0150584D02*
X0022398Y0157785D01*
X0014382Y0132852D02*
X0012247Y0128426D01*
X0007226Y0116766D01*
X0008236Y0104931D01*
X0011989Y0109901D02*
X0011373Y0117572D01*
X0013874Y0091331D02*
X0013727Y0086653D01*
X0013780Y0073856D01*
X0019183Y0063834D01*
X0020590Y0069900D02*
X0017358Y0076244D01*
X0029865Y0053702D02*
X0032349Y0049525D01*
X0040304Y0040659D02*
X0045803Y0036133D01*
X0142361Y0148290D02*
X0140074Y0150784D01*
D22*
X0142361Y0148290D03*
X0123346Y0147731D03*
X0111571Y0159283D03*
X0097824Y0124140D03*
X0104467Y0117870D03*
X0106780Y0110889D03*
X0111573Y0115844D03*
X0116744Y0110933D03*
X0111741Y0105832D03*
X0118801Y0103846D03*
X0116035Y0092031D03*
X0106677Y0092163D03*
X0104601Y0103822D03*
X0093163Y0116466D03*
X0090374Y0106809D03*
X0118584Y0118018D03*
X0127224Y0122346D03*
X0130499Y0115252D03*
X0149514Y0102450D03*
X0111530Y0062373D03*
X0156351Y0020638D03*
X0147659Y0013349D03*
X0115819Y0010491D03*
X0111257Y0014462D03*
X0105454Y0007166D03*
X0074223Y0017498D03*
X0063911Y0018540D03*
X0040304Y0040659D03*
X0030836Y0045619D03*
X0017358Y0076244D03*
X0011114Y0085077D03*
X0011373Y0117572D03*
X0009369Y0128802D03*
X0022398Y0157785D03*
X0025352Y0168899D03*
X0049245Y0189574D03*
X0056068Y0198466D03*
X0085303Y0202714D03*
X0086755Y0208255D03*
X0094402Y0208959D03*
X0098023Y0213855D03*
X0128576Y0210044D03*
X0141178Y0210562D03*
X0167332Y0194149D03*
X0178549Y0190203D03*
X0180119Y0172336D03*
X0196524Y0164341D03*
X0205513Y0155813D03*
X0211218Y0125369D03*
X0215473Y0114005D03*
X0208609Y0083630D03*
X0207984Y0072034D03*
X0189157Y0046497D03*
X0183669Y0035970D03*
D23*
X0180738Y0033359D01*
X0173885Y0027611D02*
X0173748Y0027770D01*
X0172400Y0029336D01*
X0147659Y0013349D02*
X0143446Y0012113D01*
X0134020Y0010102D02*
X0134104Y0009515D01*
X0134020Y0010102D02*
X0133739Y0012079D01*
X0105454Y0007166D02*
X0100769Y0007653D01*
X0091487Y0009741D02*
X0091802Y0011456D01*
X0063911Y0018540D02*
X0059885Y0021203D01*
X0052251Y0026052D02*
X0053194Y0028053D01*
X0030836Y0045619D02*
X0027377Y0050346D01*
X0022701Y0058791D02*
X0024055Y0059513D01*
X0011114Y0085077D02*
X0010395Y0090052D01*
X0009481Y0098376D02*
X0010930Y0099003D01*
X0009369Y0128802D02*
X0010579Y0132896D01*
X0012609Y0140952D02*
X0012700Y0140957D01*
X0025352Y0168899D02*
X0028366Y0172568D01*
X0034197Y0179090D02*
X0033991Y0179295D01*
X0034197Y0179090D02*
X0035610Y0177684D01*
X0056068Y0198466D02*
X0060832Y0201293D01*
X0068651Y0204568D02*
X0069496Y0203184D01*
X0098023Y0213855D02*
X0098307Y0214138D01*
X0102157Y0214138D01*
X0141178Y0210562D02*
X0144807Y0209148D01*
X0149928Y0206404D02*
X0150554Y0206404D01*
X0151817Y0206404D01*
X0152357Y0205864D01*
X0152573Y0205864D01*
X0151858Y0205149D01*
X0151858Y0203898D01*
X0178549Y0190203D02*
X0181679Y0187307D01*
X0187730Y0180969D02*
X0187532Y0180774D01*
X0186124Y0179391D01*
X0205513Y0155813D02*
X0206861Y0151792D01*
X0207774Y0143180D02*
X0209780Y0143447D01*
X0210058Y0143484D01*
X0215473Y0114005D02*
X0215566Y0109669D01*
X0214717Y0101638D02*
X0212953Y0101260D01*
X0207984Y0072034D02*
X0205932Y0067647D01*
X0202128Y0060117D02*
X0202315Y0060021D01*
X0202128Y0060117D02*
X0200233Y0061095D01*
D24*
X0156994Y0093676D02*
X0156591Y0092636D01*
X0156163Y0091605D01*
X0155711Y0090584D01*
X0155235Y0089575D01*
X0154735Y0088577D01*
X0154211Y0087591D01*
X0153665Y0086618D01*
X0153095Y0085658D01*
X0152503Y0084712D01*
X0151889Y0083780D01*
X0151253Y0082863D01*
X0150595Y0081961D01*
X0149916Y0081075D01*
X0149216Y0080205D01*
X0142361Y0073349D02*
X0141491Y0072649D01*
X0140605Y0071970D01*
X0139703Y0071312D01*
X0138786Y0070676D01*
X0137854Y0070062D01*
X0136908Y0069470D01*
X0135948Y0068900D01*
X0134975Y0068354D01*
X0133989Y0067830D01*
X0132991Y0067330D01*
X0131982Y0066854D01*
X0130961Y0066402D01*
X0129930Y0065974D01*
X0128890Y0065571D01*
X0119524Y0063061D02*
X0118421Y0062890D01*
X0117314Y0062745D01*
X0116204Y0062626D01*
X0115092Y0062534D01*
X0113978Y0062468D01*
X0112862Y0062428D01*
X0111746Y0062415D01*
X0110630Y0062428D01*
X0109514Y0062468D01*
X0108400Y0062534D01*
X0107288Y0062626D01*
X0106178Y0062745D01*
X0105071Y0062890D01*
X0103968Y0063061D01*
X0094603Y0065571D02*
X0093563Y0065974D01*
X0092532Y0066402D01*
X0091511Y0066854D01*
X0090502Y0067330D01*
X0089504Y0067830D01*
X0088518Y0068354D01*
X0087545Y0068900D01*
X0086585Y0069470D01*
X0085639Y0070062D01*
X0084707Y0070676D01*
X0083790Y0071312D01*
X0082888Y0071970D01*
X0082002Y0072649D01*
X0081132Y0073349D01*
X0074276Y0080205D02*
X0073576Y0081075D01*
X0072897Y0081961D01*
X0072239Y0082863D01*
X0071603Y0083780D01*
X0070989Y0084712D01*
X0070397Y0085658D01*
X0069827Y0086618D01*
X0069281Y0087591D01*
X0068757Y0088577D01*
X0068257Y0089575D01*
X0067781Y0090584D01*
X0067329Y0091605D01*
X0066901Y0092636D01*
X0066498Y0093676D01*
X0063989Y0103041D02*
X0063818Y0104144D01*
X0063673Y0105251D01*
X0063554Y0106361D01*
X0063462Y0107473D01*
X0063396Y0108587D01*
X0063356Y0109703D01*
X0063343Y0110819D01*
X0063356Y0111935D01*
X0063396Y0113051D01*
X0063462Y0114165D01*
X0063554Y0115277D01*
X0063673Y0116387D01*
X0063818Y0117494D01*
X0063989Y0118597D01*
X0066498Y0127963D02*
X0066901Y0129003D01*
X0067329Y0130034D01*
X0067781Y0131055D01*
X0068257Y0132064D01*
X0068757Y0133062D01*
X0069281Y0134048D01*
X0069827Y0135021D01*
X0070397Y0135981D01*
X0070989Y0136927D01*
X0071603Y0137859D01*
X0072239Y0138776D01*
X0072897Y0139678D01*
X0073576Y0140564D01*
X0074276Y0141434D01*
X0081132Y0148289D02*
X0082002Y0148989D01*
X0082888Y0149668D01*
X0083790Y0150326D01*
X0084707Y0150962D01*
X0085639Y0151576D01*
X0086585Y0152168D01*
X0087545Y0152738D01*
X0088518Y0153284D01*
X0089504Y0153808D01*
X0090502Y0154308D01*
X0091511Y0154784D01*
X0092532Y0155236D01*
X0093563Y0155664D01*
X0094603Y0156067D01*
X0103968Y0158577D02*
X0105071Y0158748D01*
X0106178Y0158893D01*
X0107288Y0159012D01*
X0108400Y0159104D01*
X0109514Y0159170D01*
X0110630Y0159210D01*
X0111746Y0159223D01*
X0112862Y0159210D01*
X0113978Y0159170D01*
X0115092Y0159104D01*
X0116204Y0159012D01*
X0117314Y0158893D01*
X0118421Y0158748D01*
X0119524Y0158577D01*
X0128890Y0156067D02*
X0129930Y0155664D01*
X0130961Y0155236D01*
X0131982Y0154784D01*
X0132991Y0154308D01*
X0133989Y0153808D01*
X0134975Y0153284D01*
X0135948Y0152738D01*
X0136908Y0152168D01*
X0137854Y0151576D01*
X0138786Y0150962D01*
X0139703Y0150326D01*
X0140605Y0149668D01*
X0141491Y0148989D01*
X0142361Y0148289D01*
X0149216Y0141434D02*
X0149916Y0140564D01*
X0150595Y0139678D01*
X0151253Y0138776D01*
X0151889Y0137859D01*
X0152503Y0136927D01*
X0153095Y0135981D01*
X0153665Y0135021D01*
X0154211Y0134048D01*
X0154735Y0133062D01*
X0155235Y0132064D01*
X0155711Y0131055D01*
X0156163Y0130034D01*
X0156591Y0129003D01*
X0156994Y0127963D01*
X0159504Y0118597D02*
X0159675Y0117494D01*
X0159820Y0116387D01*
X0159939Y0115277D01*
X0160031Y0114165D01*
X0160097Y0113051D01*
X0160137Y0111935D01*
X0160150Y0110819D01*
X0160137Y0109703D01*
X0160097Y0108587D01*
X0160031Y0107473D01*
X0159939Y0106361D01*
X0159820Y0105251D01*
X0159675Y0104144D01*
X0159504Y0103041D01*
X0201718Y0091730D02*
X0202138Y0093825D01*
X0202509Y0095929D01*
X0202831Y0098041D01*
X0203103Y0100160D01*
X0203327Y0102285D01*
X0203500Y0104415D01*
X0203625Y0106547D01*
X0203699Y0108683D01*
X0203724Y0110819D01*
X0203699Y0112955D01*
X0203625Y0115091D01*
X0203500Y0117223D01*
X0203327Y0119353D01*
X0203103Y0121478D01*
X0202831Y0123597D01*
X0202509Y0125709D01*
X0202138Y0127813D01*
X0201718Y0129908D01*
X0199208Y0139273D02*
X0198524Y0141297D01*
X0197793Y0143305D01*
X0197016Y0145295D01*
X0196192Y0147266D01*
X0195323Y0149218D01*
X0194409Y0151149D01*
X0193450Y0153058D01*
X0192447Y0154945D01*
X0191401Y0156807D01*
X0190311Y0158645D01*
X0189179Y0160457D01*
X0188005Y0162242D01*
X0186790Y0163999D01*
X0185534Y0165728D01*
X0184238Y0167426D01*
X0182903Y0169094D01*
X0181530Y0170731D01*
X0180119Y0172335D01*
X0173263Y0179192D02*
X0171659Y0180603D01*
X0170022Y0181976D01*
X0168354Y0183311D01*
X0166656Y0184607D01*
X0164927Y0185863D01*
X0163170Y0187078D01*
X0161385Y0188252D01*
X0159573Y0189384D01*
X0157735Y0190474D01*
X0155873Y0191520D01*
X0153986Y0192523D01*
X0152077Y0193482D01*
X0150146Y0194396D01*
X0148194Y0195265D01*
X0146223Y0196089D01*
X0144233Y0196866D01*
X0142225Y0197597D01*
X0140201Y0198281D01*
X0130835Y0200791D02*
X0128740Y0201211D01*
X0126636Y0201582D01*
X0124524Y0201904D01*
X0122405Y0202176D01*
X0120280Y0202400D01*
X0118150Y0202573D01*
X0116018Y0202698D01*
X0113882Y0202772D01*
X0111746Y0202797D01*
X0109610Y0202772D01*
X0107474Y0202698D01*
X0105342Y0202573D01*
X0103212Y0202400D01*
X0101087Y0202176D01*
X0098968Y0201904D01*
X0096856Y0201582D01*
X0094752Y0201211D01*
X0092657Y0200791D01*
X0083292Y0198281D02*
X0081268Y0197597D01*
X0079260Y0196866D01*
X0077270Y0196089D01*
X0075299Y0195265D01*
X0073347Y0194396D01*
X0071416Y0193482D01*
X0069507Y0192523D01*
X0067620Y0191520D01*
X0065758Y0190474D01*
X0063920Y0189384D01*
X0062108Y0188252D01*
X0060323Y0187078D01*
X0058566Y0185863D01*
X0056837Y0184607D01*
X0055139Y0183311D01*
X0053471Y0181976D01*
X0051834Y0180603D01*
X0050230Y0179192D01*
X0043374Y0172336D02*
X0041963Y0170732D01*
X0040590Y0169095D01*
X0039255Y0167427D01*
X0037959Y0165729D01*
X0036703Y0164000D01*
X0035488Y0162243D01*
X0034314Y0160458D01*
X0033182Y0158646D01*
X0032092Y0156808D01*
X0031046Y0154946D01*
X0030043Y0153059D01*
X0029084Y0151150D01*
X0028170Y0149219D01*
X0027301Y0147267D01*
X0026477Y0145296D01*
X0025700Y0143306D01*
X0024969Y0141298D01*
X0024285Y0139274D01*
X0021774Y0129908D02*
X0021354Y0127813D01*
X0020983Y0125709D01*
X0020662Y0123597D01*
X0020389Y0121478D01*
X0020165Y0119353D01*
X0019992Y0117223D01*
X0019867Y0115091D01*
X0019793Y0112955D01*
X0019768Y0110819D01*
X0019793Y0108683D01*
X0019867Y0106547D01*
X0019992Y0104415D01*
X0020165Y0102285D01*
X0020389Y0100160D01*
X0020662Y0098041D01*
X0020983Y0095929D01*
X0021354Y0093825D01*
X0021774Y0091730D01*
X0024284Y0082365D02*
X0024968Y0080341D01*
X0025698Y0078333D01*
X0026476Y0076343D01*
X0027299Y0074372D01*
X0028168Y0072420D01*
X0029082Y0070489D01*
X0030041Y0068579D01*
X0031044Y0066693D01*
X0032091Y0064831D01*
X0033180Y0062993D01*
X0034313Y0061181D01*
X0035487Y0059396D01*
X0036702Y0057639D01*
X0037958Y0055910D01*
X0039254Y0054211D01*
X0040588Y0052543D01*
X0041962Y0050907D01*
X0043373Y0049302D01*
X0050230Y0042447D02*
X0051834Y0041036D01*
X0053471Y0039663D01*
X0055139Y0038328D01*
X0056837Y0037032D01*
X0058566Y0035776D01*
X0060323Y0034561D01*
X0062108Y0033387D01*
X0063920Y0032255D01*
X0065758Y0031165D01*
X0067620Y0030119D01*
X0069507Y0029116D01*
X0071416Y0028157D01*
X0073347Y0027243D01*
X0075299Y0026374D01*
X0077270Y0025550D01*
X0079260Y0024773D01*
X0081268Y0024042D01*
X0083292Y0023358D01*
X0092657Y0020848D02*
X0094752Y0020428D01*
X0096856Y0020057D01*
X0098968Y0019735D01*
X0101087Y0019463D01*
X0103212Y0019239D01*
X0105342Y0019066D01*
X0107474Y0018941D01*
X0109610Y0018867D01*
X0111746Y0018842D01*
X0113882Y0018867D01*
X0116018Y0018941D01*
X0118150Y0019066D01*
X0120280Y0019239D01*
X0122405Y0019463D01*
X0124524Y0019735D01*
X0126636Y0020057D01*
X0128740Y0020428D01*
X0130835Y0020848D01*
X0140200Y0023357D02*
X0142224Y0024041D01*
X0144232Y0024771D01*
X0146222Y0025549D01*
X0148193Y0026372D01*
X0150145Y0027241D01*
X0152076Y0028155D01*
X0153986Y0029114D01*
X0155872Y0030117D01*
X0157734Y0031164D01*
X0159572Y0032253D01*
X0161384Y0033386D01*
X0163169Y0034560D01*
X0164926Y0035775D01*
X0166655Y0037031D01*
X0168354Y0038327D01*
X0170022Y0039661D01*
X0171658Y0041035D01*
X0173263Y0042446D01*
X0180119Y0049303D02*
X0181530Y0050907D01*
X0182903Y0052544D01*
X0184238Y0054212D01*
X0185534Y0055910D01*
X0186790Y0057639D01*
X0188005Y0059396D01*
X0189179Y0061181D01*
X0190311Y0062993D01*
X0191401Y0064831D01*
X0192447Y0066693D01*
X0193450Y0068580D01*
X0194409Y0070489D01*
X0195323Y0072420D01*
X0196192Y0074372D01*
X0197016Y0076343D01*
X0197793Y0078333D01*
X0198524Y0080341D01*
X0199208Y0082365D01*
X0133119Y0106809D02*
X0133017Y0106294D01*
X0132903Y0105781D01*
X0132776Y0105272D01*
X0132636Y0104765D01*
X0132485Y0104262D01*
X0132321Y0103763D01*
X0132145Y0103268D01*
X0131957Y0102777D01*
X0131758Y0102292D01*
X0131546Y0101811D01*
X0131323Y0101335D01*
X0131089Y0100865D01*
X0130843Y0100401D01*
X0130586Y0099943D01*
X0130317Y0099491D01*
X0130038Y0099046D01*
X0129749Y0098608D01*
X0129448Y0098177D01*
X0129137Y0097753D01*
X0128816Y0097337D01*
X0128485Y0096929D01*
X0128145Y0096530D01*
X0127794Y0096138D01*
X0127434Y0095756D01*
X0127065Y0095382D01*
X0126687Y0095017D01*
X0126301Y0094661D01*
X0125905Y0094315D01*
X0137912Y0082318D02*
X0138599Y0082963D01*
X0139270Y0083625D01*
X0139925Y0084303D01*
X0140563Y0084997D01*
X0141183Y0085706D01*
X0141787Y0086430D01*
X0142372Y0087169D01*
X0142939Y0087922D01*
X0143488Y0088688D01*
X0144018Y0089468D01*
X0144529Y0090260D01*
X0145020Y0091064D01*
X0145491Y0091881D01*
X0145942Y0092708D01*
X0146373Y0093547D01*
X0146783Y0094395D01*
X0147173Y0095254D01*
X0147541Y0096121D01*
X0147888Y0096997D01*
X0148213Y0097882D01*
X0148517Y0098774D01*
X0148799Y0099674D01*
X0149059Y0100580D01*
X0149296Y0101492D01*
X0149512Y0102409D01*
X0123346Y0147731D02*
X0122443Y0148003D01*
X0121535Y0148253D01*
X0120620Y0148481D01*
X0119700Y0148687D01*
X0118776Y0148870D01*
X0117847Y0149030D01*
X0116915Y0149168D01*
X0115979Y0149283D01*
X0115041Y0149375D01*
X0114101Y0149444D01*
X0113160Y0149490D01*
X0112217Y0149513D01*
X0111275Y0149513D01*
X0110332Y0149490D01*
X0109391Y0149444D01*
X0108451Y0149375D01*
X0107513Y0149283D01*
X0106577Y0149168D01*
X0105645Y0149030D01*
X0104716Y0148870D01*
X0103792Y0148687D01*
X0102872Y0148481D01*
X0101957Y0148253D01*
X0101049Y0148003D01*
X0100146Y0147731D01*
X0104532Y0131333D02*
X0105030Y0131503D01*
X0105531Y0131660D01*
X0106036Y0131805D01*
X0106544Y0131938D01*
X0107056Y0132058D01*
X0107570Y0132166D01*
X0108086Y0132261D01*
X0108605Y0132344D01*
X0109126Y0132414D01*
X0109648Y0132471D01*
X0110171Y0132516D01*
X0110696Y0132547D01*
X0111221Y0132567D01*
X0111746Y0132573D01*
X0112271Y0132567D01*
X0112796Y0132547D01*
X0113321Y0132516D01*
X0113844Y0132471D01*
X0114366Y0132414D01*
X0114887Y0132344D01*
X0115406Y0132261D01*
X0115922Y0132166D01*
X0116436Y0132058D01*
X0116948Y0131938D01*
X0117456Y0131805D01*
X0117961Y0131660D01*
X0118462Y0131503D01*
X0118960Y0131333D01*
X0073980Y0102409D02*
X0074196Y0101491D01*
X0074433Y0100579D01*
X0074693Y0099673D01*
X0074975Y0098774D01*
X0075278Y0097882D01*
X0075604Y0096997D01*
X0075951Y0096121D01*
X0076319Y0095253D01*
X0076709Y0094395D01*
X0077119Y0093546D01*
X0077550Y0092708D01*
X0078001Y0091880D01*
X0078472Y0091064D01*
X0078963Y0090259D01*
X0079474Y0089467D01*
X0080004Y0088687D01*
X0080552Y0087921D01*
X0081119Y0087168D01*
X0081705Y0086429D01*
X0082308Y0085705D01*
X0082929Y0084996D01*
X0083567Y0084302D01*
X0084222Y0083624D01*
X0084893Y0082962D01*
X0085580Y0082317D01*
X0097586Y0094315D02*
X0097191Y0094661D01*
X0096804Y0095016D01*
X0096426Y0095381D01*
X0096057Y0095755D01*
X0095697Y0096138D01*
X0095347Y0096529D01*
X0095006Y0096929D01*
X0094675Y0097337D01*
X0094354Y0097753D01*
X0094044Y0098176D01*
X0093743Y0098607D01*
X0093453Y0099045D01*
X0093174Y0099490D01*
X0092906Y0099942D01*
X0092649Y0100400D01*
X0092403Y0100864D01*
X0092169Y0101334D01*
X0091946Y0101810D01*
X0091734Y0102291D01*
X0091534Y0102777D01*
X0091347Y0103268D01*
X0091171Y0103763D01*
X0091007Y0104262D01*
X0090856Y0104765D01*
X0090716Y0105271D01*
X0090589Y0105781D01*
X0090475Y0106294D01*
X0090373Y0106809D01*
D25*
X0104533Y0131333D02*
X0100146Y0147731D01*
X0137902Y0082318D02*
X0137912Y0082318D01*
M02*
