G04*
G04 #@! TF.GenerationSoftware,Altium Limited,Altium Designer,21.8.1 (53)*
G04*
G04 Layer_Color=16711935*
%FSLAX25Y25*%
%MOIN*%
G70*
G04*
G04 #@! TF.SameCoordinates,794F71C3-FEF2-4077-906F-4B950FC70F08*
G04*
G04*
G04 #@! TF.FilePolarity,Negative*
G04*
G01*
G75*
%ADD11C,0.01000*%
G36*
X88878Y107674D02*
X88731Y107527D01*
X88316Y107526D01*
X88021Y107819D01*
X88020Y108234D01*
X88167Y108381D01*
Y108381D01*
X120750Y141142D01*
X120858Y141250D01*
X121157Y141310D01*
X121438Y141193D01*
X121607Y140940D01*
X121607Y140788D01*
X121607Y140739D01*
X121588Y140642D01*
X121551Y140551D01*
X121496Y140469D01*
X121461Y140434D01*
X121462Y140434D01*
X88878Y107674D01*
D02*
G37*
G36*
X194453Y214847D02*
X194599Y214994D01*
X195015Y214996D01*
X195309Y214703D01*
X195311Y214287D01*
X195164Y214140D01*
X195164D01*
X161558Y180352D01*
X161451Y180244D01*
X161152Y180184D01*
X160871Y180300D01*
X160701Y180553D01*
Y180705D01*
Y180755D01*
X160720Y180851D01*
X160758Y180942D01*
X160812Y181024D01*
X160847Y181059D01*
Y181059D01*
X194453Y214847D01*
D02*
G37*
D11*
X168481Y160431D02*
G03*
X168481Y160431I-27559J0D01*
G01*
X141000Y66000D02*
X160287Y140242D01*
X121560Y140839D02*
X140979Y66552D01*
X140993Y132500D02*
X141000Y66000D01*
X90276Y211183D02*
X121572Y180055D01*
X88411Y108138D02*
X110351Y143993D01*
X88464Y108029D02*
X124000Y130000D01*
X160712Y140606D02*
X193305Y108188D01*
X157798Y130239D02*
X193221Y108104D01*
X171392Y143679D02*
X193371Y108197D01*
X161257Y179598D02*
X235463Y160519D01*
X172000Y177500D02*
X193860Y213164D01*
X157776Y190908D02*
X193888Y213196D01*
X87893Y213553D02*
X123707Y191160D01*
X87893Y213553D02*
X110724Y177179D01*
X109876Y177363D02*
X110081Y178227D01*
X46984Y160440D02*
X120729Y141394D01*
X47000Y160500D02*
X113000Y160507D01*
X141000Y255000D02*
X160642Y180252D01*
X160500Y141000D02*
X235663Y160236D01*
X121500Y180000D02*
X141000Y255000D01*
X47000Y160500D02*
X121500Y180000D01*
X168481Y160493D02*
X234500Y160500D01*
X140993Y254972D02*
X141000Y188000D01*
M02*
