G04*
G04 #@! TF.GenerationSoftware,Altium Limited,Altium Designer,21.8.1 (53)*
G04*
G04 Layer_Color=32768*
%FSLAX25Y25*%
%MOIN*%
G70*
G04*
G04 #@! TF.SameCoordinates,2A3705A3-5D1E-4C85-BF93-37B68EBEE7C7*
G04*
G04*
G04 #@! TF.FilePolarity,Positive*
G04*
G01*
G75*
%ADD11C,0.01000*%
D11*
X144594Y75883D02*
G03*
X201413Y101104I-3532J84572D01*
G01*
X56486Y157008D02*
G03*
X137529Y75883I84575J3447D01*
G01*
X137323Y245018D02*
G03*
X56491Y164007I3739J-84563D01*
G01*
X225645Y164018D02*
G03*
X144648Y245141I-84575J-3447D01*
G01*
X201413Y101104D02*
G03*
X225631Y156850I-60351J59351D01*
G01*
X157361Y278872D02*
G03*
X169870Y262592I16795J-41D01*
G01*
X157284Y278875D02*
G03*
X123732Y278541I-16784J625D01*
G01*
X111474Y262596D02*
G03*
X169623Y262853I29526J-102096D01*
G01*
X150343Y279500D02*
G03*
X150343Y279500I-9843J0D01*
G01*
X111223Y262261D02*
G03*
X123732Y278541I-4286J16239D01*
G01*
X172815Y143197D02*
X196581Y104840D01*
X158237Y128728D02*
X196581Y104840D01*
X123713Y192401D02*
X137451Y244985D01*
X85097Y216397D02*
X123713Y192401D01*
X85097Y216397D02*
X109131Y177770D01*
X56512Y164006D02*
X109131Y177770D01*
X173131Y177526D02*
X225645Y164018D01*
X173131Y177526D02*
X196867Y216128D01*
X158333Y192400D02*
X196867Y216128D01*
X144651Y245066D02*
X158333Y192400D01*
X123798Y128626D02*
X137404Y76251D01*
X85264Y104897D02*
X123798Y128626D01*
X85264Y104897D02*
X109000Y143500D01*
X56501Y157004D02*
X109000Y143500D01*
X172815Y143197D02*
X225631Y156850D01*
X144596Y75823D02*
X158237Y128728D01*
M02*
