G04*
G04 #@! TF.GenerationSoftware,Altium Limited,Altium Designer,21.8.1 (53)*
G04*
G04 Layer_Physical_Order=2*
G04 Layer_Color=16711680*
%FSLAX25Y25*%
%MOIN*%
G70*
G04*
G04 #@! TF.SameCoordinates,3789A0E1-FDF3-4133-BB8B-27B6B2B3195E*
G04*
G04*
G04 #@! TF.FilePolarity,Positive*
G04*
G01*
G75*
%ADD11C,0.01000*%
D11*
X168481Y160431D02*
G03*
X168481Y160431I-27559J0D01*
G01*
X87500Y107000D02*
X124000Y129500D01*
X47000Y160500D02*
X121500Y140500D01*
X141000Y66000D01*
X87500Y107000D02*
X109868Y143631D01*
X87500Y107000D02*
X121106Y140788D01*
X87893Y213553D02*
X121681Y179947D01*
X87893Y213553D02*
X124523Y191185D01*
X87893Y213553D02*
X110393Y177053D01*
X160894Y180212D02*
X194500Y214000D01*
X172132Y177369D02*
X194500Y214000D01*
X158000Y191500D02*
X194500Y214000D01*
X160712Y140606D02*
X194500Y107000D01*
X157869Y129368D02*
X194500Y107000D01*
X172000Y143500D02*
X194500Y107000D01*
X141000Y255000D02*
X160500Y180500D01*
X140993Y254972D02*
X141000Y188000D01*
X168481Y160493D02*
X234500Y160500D01*
X160500Y180500D02*
X235521Y160484D01*
X160500Y141000D02*
X235521Y160484D01*
X47000Y160500D02*
X113000Y160507D01*
X141000Y66000D02*
X160500Y141000D01*
X140993Y132500D02*
X141000Y66000D01*
X47000Y160500D02*
X121500Y180000D01*
X141000Y255000D01*
M02*
