G04*
G04 #@! TF.GenerationSoftware,Altium Limited,Altium Designer,21.8.1 (53)*
G04*
G04 Layer_Color=16711935*
%FSLAX25Y25*%
%MOIN*%
G70*
G04*
G04 #@! TF.SameCoordinates,5354F6EB-D331-4573-B6A5-83F5A75BFFA3*
G04*
G04*
G04 #@! TF.FilePolarity,Negative*
G04*
G01*
G75*
%ADD11C,0.01000*%
G36*
X87856Y106646D02*
X87709Y106499D01*
X87294Y106498D01*
X86999Y106791D01*
X86998Y107206D01*
X87144Y107354D01*
Y107354D01*
X120750Y141142D01*
X120858Y141250D01*
X121157Y141310D01*
X121438Y141193D01*
X121607Y140940D01*
Y140788D01*
Y140739D01*
X121588Y140642D01*
X121551Y140551D01*
X121496Y140469D01*
X121461Y140434D01*
X121462D01*
X87856Y106646D01*
D02*
G37*
G36*
X194978Y107492D02*
X195125Y107346D01*
X195126Y106930D01*
X194833Y106636D01*
X194418Y106634D01*
X194270Y106781D01*
D01*
X160482Y140387D01*
X160374Y140494D01*
X160314Y140793D01*
X160431Y141075D01*
X160684Y141244D01*
X160836D01*
X160885D01*
X160982Y141225D01*
X161073Y141187D01*
X161155Y141133D01*
X161190Y141098D01*
X161190Y141098D01*
X194978Y107492D01*
D02*
G37*
G36*
X87022Y213508D02*
X86875Y213654D01*
X86874Y214070D01*
X87167Y214364D01*
X87582Y214366D01*
X87730Y214219D01*
X87730Y214219D01*
X121518Y180613D01*
X121626Y180506D01*
X121686Y180207D01*
X121570Y179925D01*
X121316Y179756D01*
X121164D01*
X121115D01*
X121018Y179775D01*
X120927Y179813D01*
X120845Y179867D01*
X120810Y179902D01*
D01*
X87022Y213508D01*
D02*
G37*
G36*
X194453Y214847D02*
X194599Y214994D01*
X195015Y214996D01*
X195309Y214703D01*
X195311Y214287D01*
X195164Y214140D01*
X195164D01*
X161558Y180352D01*
X161451Y180244D01*
X161152Y180184D01*
X160871Y180300D01*
X160701Y180553D01*
Y180705D01*
Y180755D01*
X160720Y180851D01*
X160758Y180942D01*
X160812Y181024D01*
X160847Y181059D01*
Y181059D01*
X194453Y214847D01*
D02*
G37*
D11*
X168481Y160431D02*
G03*
X168481Y160431I-27559J0D01*
G01*
X87376Y213863D02*
X124007Y191496D01*
X87376Y213863D02*
X109876Y177363D01*
X172441Y177863D02*
X194809Y214493D01*
X158309Y191993D02*
X194809Y214493D01*
X157993Y129504D02*
X194624Y107137D01*
X172124Y143637D02*
X194624Y107137D01*
X87500Y107000D02*
X124000Y129500D01*
X87500Y107000D02*
X109868Y143631D01*
X121500Y180000D02*
X141000Y255000D01*
X47000Y160500D02*
X121500Y140500D01*
X141000Y66000D01*
X47000Y160500D02*
X121500Y180000D01*
X140993Y132500D02*
X141000Y66000D01*
X160500Y141000D01*
X47000Y160500D02*
X113000Y160507D01*
X160500Y141000D02*
X235521Y160484D01*
X160500Y180500D02*
X235521Y160484D01*
X168481Y160493D02*
X234500Y160500D01*
X140993Y254972D02*
X141000Y188000D01*
Y255000D02*
X160500Y180500D01*
M02*
