G04*
G04 #@! TF.GenerationSoftware,Altium Limited,Altium Designer,21.8.1 (53)*
G04*
G04 Layer_Color=32896*
%FSLAX25Y25*%
%MOIN*%
G70*
G04*
G04 #@! TF.SameCoordinates,DAEDDD48-B243-4404-BE66-89772E550788*
G04*
G04*
G04 #@! TF.FilePolarity,Positive*
G04*
G01*
G75*
G36*
X137157Y264082D02*
X137122Y253420D01*
X142833Y264065D01*
X145542Y264056D01*
X145500Y251000D01*
X143870Y251005D01*
X143905Y262685D01*
X137644Y251024D01*
X135485Y251031D01*
X135525Y264087D01*
X137157Y264082D01*
D02*
G37*
G36*
X125509Y201459D02*
X125505Y201458D01*
X123275Y200549D01*
X121098Y199519D01*
X118981Y198372D01*
X116931Y197109D01*
X114952Y195736D01*
X113052Y194256D01*
X111237Y192674D01*
X110373Y191835D01*
X110371Y191837D01*
X110366Y191842D01*
X110362Y191847D01*
X110357Y191852D01*
X110355Y191854D01*
X110355Y191854D01*
X76587Y225661D01*
X125509Y201459D01*
D02*
G37*
G36*
X171526Y191735D02*
X170664Y192580D01*
X168850Y194173D01*
X166951Y195664D01*
X164972Y197048D01*
X162921Y198321D01*
X160802Y199479D01*
X158623Y200518D01*
X156390Y201436D01*
X156382Y201439D01*
X205419Y225589D01*
X171526Y191735D01*
D02*
G37*
G36*
X159789Y181236D02*
X159741Y181185D01*
X159343Y180965D01*
X157359Y182593D01*
X155107Y184098D01*
X152719Y185374D01*
X150218Y186410D01*
X147626Y187197D01*
X144971Y187725D01*
X143324Y187887D01*
X143110Y187927D01*
X142809Y187938D01*
X142276Y187990D01*
X141501D01*
X141495Y249170D01*
X141991Y249234D01*
X159789Y181236D01*
D02*
G37*
G36*
X203820Y220573D02*
X203747Y220517D01*
X203694Y220409D01*
X198885Y210596D01*
X181799Y176059D01*
X180965Y178108D01*
X179933Y180288D01*
X178783Y182407D01*
X177518Y184460D01*
X176143Y186441D01*
X174660Y188343D01*
X173075Y190160D01*
X172234Y191024D01*
X172234Y191024D01*
X205778Y224530D01*
X203820Y220573D01*
D02*
G37*
G36*
X109645Y191146D02*
X109647Y191143D01*
X109652Y191139D01*
X109657Y191135D01*
X109661Y191130D01*
X109663Y191128D01*
X108816Y190266D01*
X107220Y188450D01*
X105726Y186548D01*
X104339Y184568D01*
X103064Y182514D01*
X101904Y180392D01*
X100862Y178210D01*
X99943Y175974D01*
X99939Y175964D01*
X75752Y225077D01*
X109645Y191146D01*
D02*
G37*
G36*
X156046Y200476D02*
X158261Y199564D01*
X160421Y198528D01*
X162520Y197374D01*
X164551Y196104D01*
X166508Y194722D01*
X168385Y193233D01*
X170176Y191641D01*
X171037Y190808D01*
X171037Y190808D01*
X171055Y190763D01*
X171110Y190681D01*
X171179Y190611D01*
X171261Y190556D01*
X171306Y190537D01*
X172135Y189674D01*
X173719Y187881D01*
X175200Y186001D01*
X176573Y184042D01*
X177835Y182009D01*
X178981Y179909D01*
X180009Y177748D01*
X180896Y175577D01*
X180312Y175733D01*
X179024Y178719D01*
X177510Y181608D01*
X175783Y184375D01*
X173853Y187004D01*
X171731Y189480D01*
X169428Y191790D01*
X166958Y193920D01*
X164334Y195858D01*
X161573Y197593D01*
X158688Y199115D01*
X155819Y200363D01*
X155763Y200579D01*
X156046Y200476D01*
D02*
G37*
G36*
X181030Y174504D02*
X180876Y174193D01*
X180876Y174193D01*
X180734Y174583D01*
X181030Y174504D01*
D02*
G37*
G36*
X120790Y179273D02*
X120477Y178961D01*
X118760Y176868D01*
X117255Y174616D01*
X115979Y172228D01*
X114943Y169727D01*
X114157Y167135D01*
X113628Y164480D01*
X113363Y161785D01*
Y161441D01*
X113100Y161009D01*
X113000Y161009D01*
X50406Y161002D01*
X50343Y161498D01*
X99641Y174298D01*
X99658Y174262D01*
X99829Y174203D01*
X99963Y174139D01*
X99991Y174146D01*
X100050Y174125D01*
X100187Y174192D01*
X100303Y174219D01*
X100341Y174266D01*
X100425Y174306D01*
X100465Y174422D01*
X100521Y174493D01*
Y174527D01*
X120532Y179723D01*
X120790Y179273D01*
D02*
G37*
G36*
X245087Y166475D02*
X245082Y164843D01*
X234420Y164877D01*
X245065Y159167D01*
X245056Y156458D01*
X232000Y156500D01*
X232005Y158130D01*
X243685Y158095D01*
X232024Y164356D01*
X232031Y166515D01*
X245087Y166475D01*
D02*
G37*
G36*
X50500Y165000D02*
X50495Y163370D01*
X38815Y163406D01*
X50476Y157144D01*
X50469Y154985D01*
X37413Y155025D01*
X37418Y156657D01*
X48080Y156623D01*
X37435Y162333D01*
X37444Y165042D01*
X50500Y165000D01*
D02*
G37*
G36*
X229744Y159502D02*
X162024Y141914D01*
X161741Y142357D01*
X163084Y143994D01*
X164589Y146246D01*
X165865Y148634D01*
X166901Y151136D01*
X167687Y153727D01*
X168216Y156382D01*
X168395Y158206D01*
X168427Y158376D01*
X168436Y158614D01*
X168481Y159077D01*
Y159949D01*
X168483Y159991D01*
X229681Y159998D01*
X229744Y159502D01*
D02*
G37*
G36*
X101184Y145276D02*
X102476Y142281D01*
X103990Y139392D01*
X105717Y136625D01*
X107647Y133996D01*
X109769Y131519D01*
X112072Y129210D01*
X114542Y127080D01*
X117166Y125142D01*
X119927Y123407D01*
X122812Y121885D01*
X125803Y120584D01*
X126236Y120424D01*
X126293Y120210D01*
X125423Y120531D01*
X122467Y121817D01*
X119616Y123321D01*
X116886Y125036D01*
X114293Y126951D01*
X111852Y129057D01*
X109576Y131340D01*
X107478Y133787D01*
X105570Y136386D01*
X103863Y139121D01*
X102367Y141976D01*
X101090Y144936D01*
X100564Y146375D01*
Y146461D01*
X100508Y146531D01*
X100500Y146556D01*
X100624Y146807D01*
X101184Y145276D01*
D02*
G37*
G36*
X206164Y96192D02*
X172314Y130082D01*
X172314D01*
X173159Y130944D01*
X174752Y132757D01*
X176242Y134657D01*
X177626Y136635D01*
X178899Y138686D01*
X180057Y140805D01*
X181096Y142983D01*
X182014Y145216D01*
X182017Y145224D01*
X206164Y96192D01*
D02*
G37*
G36*
X100126Y144563D02*
X101434Y141531D01*
X102966Y138607D01*
X104714Y135806D01*
X106668Y133144D01*
X108817Y130637D01*
X109621Y129830D01*
X75738Y95986D01*
X78144Y100850D01*
X78172Y100871D01*
X78224Y100979D01*
X78224Y100979D01*
X79999Y104600D01*
X99979Y144988D01*
X100126Y144563D01*
D02*
G37*
G36*
X205450Y95488D02*
X156448Y119730D01*
X156453Y119731D01*
X158686Y120642D01*
X160866Y121673D01*
X162986Y122823D01*
X165039Y124088D01*
X167020Y125464D01*
X168922Y126947D01*
X170739Y128532D01*
X171603Y129374D01*
X205450Y95488D01*
D02*
G37*
G36*
X111148Y128299D02*
X113648Y126143D01*
X116304Y124182D01*
X119099Y122425D01*
X122019Y120884D01*
X125047Y119568D01*
X125474Y119419D01*
X76442Y95271D01*
X110329Y129120D01*
X111148Y128299D01*
D02*
G37*
G36*
X124485Y138269D02*
X126737Y136764D01*
X129125Y135488D01*
X131626Y134452D01*
X134218Y133666D01*
X136873Y133137D01*
X139568Y132872D01*
X140423D01*
X140491Y132708D01*
X140491Y132500D01*
X140498Y71857D01*
X140002Y71794D01*
X122303Y139413D01*
X122746Y139697D01*
X124485Y138269D01*
D02*
G37*
G36*
X138253Y69163D02*
X138219Y58500D01*
X143930Y69145D01*
X146638Y69137D01*
X146596Y56080D01*
X144966Y56085D01*
X145002Y67765D01*
X138740Y56105D01*
X136581Y56112D01*
X136621Y69167D01*
X138253Y69163D01*
D02*
G37*
M02*
