G04*
G04 #@! TF.GenerationSoftware,Altium Limited,Altium Designer,21.8.1 (53)*
G04*
G04 Layer_Physical_Order=1*
G04 Layer_Color=255*
%FSLAX25Y25*%
%MOIN*%
G70*
G04*
G04 #@! TF.SameCoordinates,794F71C3-FEF2-4077-906F-4B950FC70F08*
G04*
G04*
G04 #@! TF.FilePolarity,Positive*
G04*
G01*
G75*
G36*
X159569Y182003D02*
X159150Y181731D01*
X158434Y182305D01*
X157083Y183308D01*
X155373Y184448D01*
X153188Y185609D01*
X150043Y186970D01*
X147816Y187614D01*
X145758Y188057D01*
X143763Y188374D01*
X141926Y188475D01*
X141443Y188517D01*
Y249092D01*
X141939Y249156D01*
X159569Y182003D01*
D02*
G37*
G36*
X189148Y209347D02*
X161223Y181480D01*
X160740Y181611D01*
X158348Y190671D01*
X188837Y209738D01*
X189148Y209347D01*
D02*
G37*
G36*
X107815Y200714D02*
X123751Y190711D01*
X121392Y181533D01*
X120836Y181381D01*
X92672Y209546D01*
X92983Y209938D01*
X107815Y200714D01*
D02*
G37*
G36*
X120083Y180662D02*
X119932Y180106D01*
X110973Y177767D01*
X91542Y208537D01*
X91932Y208850D01*
X120083Y180662D01*
D02*
G37*
G36*
X190400Y208439D02*
X171497Y177671D01*
X162073Y180200D01*
X161924Y180758D01*
X190008Y208749D01*
X190400Y208439D01*
D02*
G37*
G36*
X139451Y168997D02*
X139492Y168996D01*
X139533Y168996D01*
X139574Y168995D01*
X139615Y168994D01*
X139656Y168993D01*
X139697Y168992D01*
X139738Y168991D01*
X139778Y168989D01*
X139819Y168987D01*
X139859Y168985D01*
X139900Y168983D01*
X139940Y168981D01*
X139980Y168979D01*
X140020Y168976D01*
X140060Y168973D01*
X140100Y168970D01*
X140140Y168967D01*
X140179Y168963D01*
X140219Y168960D01*
X140258Y168956D01*
X140297Y168952D01*
X140337Y168948D01*
X140376Y168943D01*
X140415Y168939D01*
X140453Y168934D01*
X140492Y168929D01*
X140531Y168924D01*
X140569Y168918D01*
X140607Y168913D01*
X140645Y168907D01*
X140683Y168901D01*
X140721Y168895D01*
X140759Y168888D01*
X140796Y168882D01*
X140834Y168875D01*
X140871Y168868D01*
X140908Y168861D01*
X140945Y168853D01*
X140982Y168846D01*
X141018Y168838D01*
X141055Y168830D01*
X141091Y168822D01*
X141127Y168813D01*
X141151Y168807D01*
X141175Y168802D01*
X141199Y168796D01*
X141223Y168790D01*
X141246Y168783D01*
X141270Y168777D01*
X141294Y168771D01*
X141317Y168764D01*
X141340Y168758D01*
X141364Y168751D01*
X141387Y168745D01*
X141410Y168738D01*
X141433Y168731D01*
X141456Y168724D01*
X141479Y168717D01*
X141502Y168710D01*
X141525Y168702D01*
X141547Y168695D01*
X141570Y168687D01*
X141592Y168680D01*
X141614Y168672D01*
X141637Y168664D01*
X141659Y168656D01*
X141681Y168648D01*
X141703Y168640D01*
X141725Y168632D01*
X141747Y168623D01*
X141769Y168615D01*
X141790Y168606D01*
X141812Y168598D01*
X141833Y168589D01*
X141855Y168580D01*
X141887Y168567D01*
X141918Y168553D01*
X141950Y168539D01*
X141981Y168525D01*
X142012Y168510D01*
X142043Y168496D01*
X142073Y168481D01*
X142104Y168466D01*
X142134Y168450D01*
X142164Y168435D01*
X142193Y168419D01*
X142223Y168403D01*
X142252Y168386D01*
X142281Y168370D01*
X142309Y168353D01*
X142338Y168336D01*
X142366Y168318D01*
X142394Y168301D01*
X142421Y168283D01*
X142449Y168265D01*
X142476Y168246D01*
X142503Y168228D01*
X142530Y168209D01*
X142556Y168190D01*
X142582Y168170D01*
X142608Y168151D01*
X142634Y168131D01*
X142659Y168111D01*
X142684Y168090D01*
X142717Y168063D01*
X142749Y168035D01*
X142781Y168006D01*
X142813Y167977D01*
X142844Y167947D01*
X142849Y167943D01*
X142856Y167935D01*
X143167Y167564D01*
D01*
X143300Y167325D01*
X143429Y167067D01*
X143433Y167059D01*
X143433Y167059D01*
X143569Y166586D01*
X143571Y166573D01*
X143578Y166537D01*
X143584Y166500D01*
X143590Y166464D01*
X143594Y166439D01*
X143597Y166414D01*
X143601Y166389D01*
X143604Y166364D01*
X143607Y166338D01*
X143610Y166313D01*
X143612Y166287D01*
X143615Y166262D01*
X143617Y166236D01*
X143619Y166210D01*
X143621Y166183D01*
X143623Y166157D01*
X143624Y166131D01*
X143626Y166104D01*
X143627Y166077D01*
X143628Y166051D01*
X143622Y166023D01*
X143618Y166004D01*
X143613Y165986D01*
X143609Y165968D01*
X143605Y165949D01*
X143600Y165932D01*
X143595Y165914D01*
X143591Y165896D01*
X143586Y165878D01*
X143581Y165861D01*
X143576Y165843D01*
X143571Y165826D01*
X143566Y165809D01*
X143561Y165792D01*
X143555Y165775D01*
X143550Y165758D01*
X143544Y165742D01*
X143539Y165725D01*
X143533Y165708D01*
X143527Y165692D01*
X143522Y165676D01*
X143513Y165652D01*
X143504Y165628D01*
X143494Y165604D01*
X143485Y165580D01*
X143481Y165570D01*
X143260Y165161D01*
D01*
X143043Y164918D01*
X142855Y164743D01*
X142657Y164608D01*
X142395Y164458D01*
X142394Y164458D01*
X142374Y164449D01*
X142353Y164440D01*
X142333Y164432D01*
X142313Y164423D01*
X142292Y164415D01*
X142272Y164407D01*
X142251Y164399D01*
X142230Y164391D01*
X142216Y164386D01*
X142202Y164381D01*
X142188Y164376D01*
X142174Y164371D01*
X142160Y164366D01*
X142146Y164361D01*
X142132Y164356D01*
X142117Y164352D01*
X142103Y164347D01*
X142089Y164342D01*
X142074Y164338D01*
X142060Y164333D01*
X142045Y164329D01*
X142031Y164325D01*
X142016Y164321D01*
X142002Y164316D01*
X141987Y164312D01*
X141972Y164308D01*
X141958Y164304D01*
X141943Y164300D01*
X141928Y164296D01*
X141913Y164292D01*
X141899Y164288D01*
X141884Y164285D01*
X141869Y164281D01*
X141854Y164277D01*
X141839Y164274D01*
X141823Y164270D01*
X141808Y164267D01*
X141793Y164263D01*
X141778Y164260D01*
X141763Y164257D01*
X141748Y164253D01*
X141732Y164250D01*
X141717Y164247D01*
X141702Y164244D01*
X141686Y164241D01*
X141671Y164238D01*
X141655Y164235D01*
X141640Y164232D01*
X141624Y164229D01*
X141609Y164226D01*
X141593Y164224D01*
X141577Y164221D01*
X141562Y164218D01*
X141546Y164216D01*
X141530Y164213D01*
X141514Y164210D01*
X141498Y164208D01*
X141483Y164206D01*
X141467Y164203D01*
X141451Y164201D01*
X141435Y164199D01*
X141419Y164196D01*
X141403Y164194D01*
X141387Y164192D01*
X141371Y164190D01*
X141355Y164188D01*
X141339Y164186D01*
X141322Y164184D01*
X141306Y164182D01*
X141290Y164180D01*
X141274Y164178D01*
X141257Y164176D01*
X141241Y164174D01*
X141225Y164173D01*
X141208Y164171D01*
X141192Y164169D01*
X141175Y164168D01*
X141159Y164166D01*
X141143Y164164D01*
X141126Y164163D01*
X141110Y164162D01*
X141093Y164160D01*
X141076Y164159D01*
X141060Y164157D01*
X141043Y164156D01*
X141026Y164155D01*
X141010Y164154D01*
X140993Y164152D01*
X140976Y164151D01*
X140960Y164150D01*
X140943Y164149D01*
X140926Y164148D01*
X140909Y164147D01*
X140892Y164146D01*
X140876Y164145D01*
X140859Y164144D01*
X140842Y164143D01*
X140825Y164142D01*
X140808Y164141D01*
X140791Y164140D01*
X140774Y164140D01*
X140757Y164139D01*
X140740Y164138D01*
X140723Y164137D01*
X140706Y164137D01*
X140689Y164136D01*
X140672Y164136D01*
X140654Y164135D01*
X140637Y164134D01*
X140620Y164134D01*
X140603Y164133D01*
X140586Y164133D01*
X140568Y164132D01*
X140551Y164132D01*
X140534Y164131D01*
X140517Y164131D01*
X140499Y164131D01*
X140482Y164130D01*
X140465Y164130D01*
X140447Y164130D01*
X140430Y164130D01*
X140413Y164129D01*
X140395Y164129D01*
X140378Y164129D01*
X140361Y164129D01*
X140326Y164129D01*
X140308Y164128D01*
X140291Y164128D01*
X140265Y164128D01*
X140256Y164128D01*
X140230Y164128D01*
X140212D01*
X140195Y164128D01*
X140168Y164128D01*
X140151Y164128D01*
X140133Y164128D01*
X140107Y164129D01*
X140089Y164129D01*
X140054Y164129D01*
X140028Y164129D01*
X139993Y164130D01*
X139957Y164130D01*
X139940Y164130D01*
X139904Y164131D01*
X139869Y164131D01*
X139834Y164132D01*
X139807Y164132D01*
X139763Y164133D01*
X139727Y164134D01*
X139674Y164135D01*
X139621Y164136D01*
X139586Y164137D01*
X139532Y164138D01*
X139462Y164140D01*
X139453Y164140D01*
X139435Y164141D01*
X139346Y164143D01*
X139329Y164144D01*
X139293Y164145D01*
X139258Y164146D01*
X139240Y164146D01*
X139231Y164146D01*
X139161Y164148D01*
X139152Y164148D01*
X139143Y164148D01*
X139134Y164149D01*
X139125Y164149D01*
X139090Y164150D01*
X139037Y164151D01*
X139028Y164151D01*
X139002Y164152D01*
X138967Y164152D01*
X138914Y164153D01*
X138896Y164154D01*
X138879Y164154D01*
X138870Y164154D01*
X138852Y164155D01*
X138817Y164155D01*
X138791Y164156D01*
X138774Y164156D01*
X138739Y164156D01*
X138704Y164157D01*
X138678Y164157D01*
X138660Y164157D01*
X138634Y164157D01*
X138608Y164158D01*
X138591Y164158D01*
X138565Y164158D01*
X138530Y164158D01*
X138504Y164158D01*
X138487Y164158D01*
X138470D01*
X138452Y164158D01*
X138435Y164158D01*
X138409Y164158D01*
X138383Y164158D01*
X138358Y164158D01*
X138349Y164158D01*
X138324Y164157D01*
X138315Y164157D01*
X138298Y164157D01*
X138272Y164157D01*
X138255Y164157D01*
X138238Y164156D01*
X138222Y164156D01*
X138205Y164156D01*
X138188Y164155D01*
X138171Y164155D01*
X138154Y164155D01*
X138137Y164154D01*
X138120Y164154D01*
X138103Y164153D01*
X138086Y164153D01*
X138070Y164152D01*
X138053Y164152D01*
X138036Y164151D01*
X138019Y164150D01*
X138003Y164150D01*
X137986Y164149D01*
X137970Y164148D01*
X137953Y164148D01*
X137936Y164147D01*
X137920Y164146D01*
X137903Y164145D01*
X137887Y164145D01*
X137870Y164144D01*
X137854Y164143D01*
X137837Y164142D01*
X137821Y164141D01*
X137804Y164140D01*
X137788Y164139D01*
X137772Y164138D01*
X137756Y164137D01*
X137739Y164135D01*
X137723Y164134D01*
X137707Y164133D01*
X137691Y164132D01*
X137674Y164130D01*
X137658Y164129D01*
X137642Y164128D01*
X137626Y164126D01*
X137610Y164125D01*
X137594Y164124D01*
X137578Y164122D01*
X137562Y164120D01*
X137547Y164119D01*
X137531Y164117D01*
X137515Y164116D01*
X137499Y164114D01*
X137483Y164112D01*
X137468Y164110D01*
X137452Y164109D01*
X137436Y164107D01*
X137420Y164105D01*
X137405Y164103D01*
X137389Y164101D01*
X137374Y164099D01*
X137358Y164097D01*
X137343Y164095D01*
X137327Y164093D01*
X137312Y164090D01*
X137297Y164088D01*
X137281Y164086D01*
X137266Y164084D01*
X137251Y164081D01*
X137236Y164079D01*
X137221Y164076D01*
X137205Y164074D01*
X137190Y164071D01*
X137175Y164068D01*
X137160Y164066D01*
X137145Y164063D01*
X137130Y164060D01*
X137116Y164058D01*
X137101Y164055D01*
X137086Y164052D01*
X137071Y164049D01*
X137056Y164046D01*
X137042Y164043D01*
X137027Y164040D01*
X137012Y164037D01*
X136998Y164033D01*
X136983Y164030D01*
X136969Y164027D01*
X136954Y164023D01*
X136940Y164020D01*
X136926Y164016D01*
X136911Y164013D01*
X136897Y164009D01*
X136883Y164006D01*
X136869Y164002D01*
X136855Y163998D01*
X136840Y163994D01*
X136826Y163991D01*
X136812Y163987D01*
X136799Y163983D01*
X136785Y163979D01*
X136771Y163974D01*
X136757Y163970D01*
X136743Y163966D01*
X136730Y163962D01*
X136716Y163958D01*
X136702Y163953D01*
X136689Y163949D01*
X136675Y163944D01*
X136662Y163940D01*
X136648Y163935D01*
X136635Y163930D01*
X136622Y163926D01*
X136608Y163921D01*
X136595Y163916D01*
X136582Y163911D01*
X136569Y163906D01*
X136556Y163901D01*
X136543Y163896D01*
X136530Y163891D01*
X136517Y163885D01*
X136504Y163880D01*
X136498Y163877D01*
X136483Y163867D01*
X136474Y163860D01*
X136469Y163857D01*
X136460Y163850D01*
X136456Y163847D01*
X136442Y163837D01*
X136433Y163830D01*
X136428Y163827D01*
X136420Y163820D01*
X136411Y163814D01*
X136407Y163810D01*
X136398Y163804D01*
X136394Y163800D01*
X136386Y163794D01*
X136377Y163787D01*
X136373Y163784D01*
X136369Y163781D01*
X136361Y163774D01*
X136357Y163771D01*
X136353Y163768D01*
X136345Y163761D01*
X136341Y163758D01*
X136337Y163755D01*
X136329Y163749D01*
X136325Y163745D01*
X136318Y163739D01*
X136314Y163736D01*
X136310Y163733D01*
X136303Y163726D01*
X136295Y163720D01*
X136288Y163714D01*
X136281Y163707D01*
X136277Y163704D01*
X136270Y163698D01*
X136267Y163695D01*
X136260Y163689D01*
X136253Y163682D01*
X136250Y163680D01*
X136243Y163673D01*
X136236Y163667D01*
X136230Y163661D01*
X136223Y163655D01*
X136217Y163649D01*
X136214Y163646D01*
X136208Y163640D01*
X136205Y163637D01*
X136202Y163634D01*
X136196Y163628D01*
X136190Y163622D01*
X136184Y163616D01*
X136181Y163613D01*
X136178Y163610D01*
X136172Y163604D01*
X136167Y163599D01*
X136167Y163598D01*
X136167Y163598D01*
X136164Y163595D01*
X136164Y163595D01*
X136161Y163592D01*
X136161Y163592D01*
X136158Y163589D01*
X136158Y163589D01*
X136156Y163586D01*
X136156Y163586D01*
X136153Y163584D01*
X136153Y163584D01*
X136150Y163581D01*
X136150Y163581D01*
X136148Y163578D01*
X136148Y163578D01*
X136145Y163575D01*
X136145Y163575D01*
X136142Y163572D01*
X136142Y163572D01*
X136140Y163569D01*
X136140Y163569D01*
X136137Y163566D01*
X136137Y163566D01*
X136135Y163563D01*
X136135Y163563D01*
X136132Y163560D01*
X136132Y163560D01*
X136130Y163558D01*
X136130Y163558D01*
X136127Y163555D01*
X136127Y163555D01*
X136125Y163552D01*
X136125Y163552D01*
X136122Y163549D01*
X136122Y163549D01*
X136120Y163546D01*
Y163546D01*
X136118Y163543D01*
X136117Y163543D01*
X136115Y163540D01*
X136115Y163540D01*
X136113Y163538D01*
X136113Y163538D01*
X136110Y163535D01*
X136110Y163535D01*
X136108Y163532D01*
X136108Y163532D01*
X136106Y163529D01*
X136106Y163529D01*
X136104Y163526D01*
X136104Y163526D01*
X136101Y163523D01*
X136101Y163523D01*
X136099Y163521D01*
X136099Y163521D01*
X136097Y163518D01*
X136097Y163518D01*
X136095Y163515D01*
X136095Y163515D01*
X136093Y163512D01*
X136093Y163512D01*
X136090Y163509D01*
X136090Y163509D01*
X136088Y163507D01*
X136088Y163507D01*
X136086Y163504D01*
X136086Y163504D01*
X136084Y163501D01*
X136084Y163501D01*
X136082Y163498D01*
X136082Y163498D01*
X136080Y163496D01*
X136080Y163496D01*
X136078Y163493D01*
X136078Y163493D01*
X136076Y163490D01*
X136076Y163490D01*
X136074Y163487D01*
X136074Y163487D01*
X136072Y163485D01*
X136072Y163485D01*
X136070Y163482D01*
X136070Y163482D01*
X136068Y163479D01*
X136068Y163479D01*
X136066Y163476D01*
X136066Y163476D01*
X136064Y163474D01*
X136064Y163474D01*
X136062Y163471D01*
X136062Y163471D01*
X136061Y163468D01*
X136061Y163468D01*
X136059Y163466D01*
X136059Y163465D01*
X136057Y163463D01*
X136057Y163463D01*
X136055Y163460D01*
X136055Y163460D01*
X136053Y163458D01*
X136053Y163458D01*
X136052Y163455D01*
X136052Y163455D01*
X136050Y163452D01*
X136050Y163452D01*
X136048Y163450D01*
X136048Y163449D01*
X136047Y163447D01*
X136047Y163447D01*
X136045Y163444D01*
X136045Y163444D01*
X136043Y163442D01*
X136043Y163441D01*
X136041Y163439D01*
X136041Y163439D01*
X136040Y163436D01*
X136040Y163436D01*
X136038Y163434D01*
X136038Y163434D01*
X136037Y163431D01*
X136037Y163431D01*
X136035Y163428D01*
X136035Y163428D01*
X136034Y163426D01*
X136034Y163426D01*
X136032Y163423D01*
X136032Y163423D01*
X136031Y163420D01*
X136031Y163420D01*
X136029Y163418D01*
X136029Y163418D01*
X136028Y163415D01*
X136028Y163415D01*
X136026Y163413D01*
X136026Y163412D01*
X136025Y163410D01*
X136025Y163410D01*
X136023Y163407D01*
X136023Y163407D01*
X136022Y163405D01*
X136022Y163405D01*
X136021Y163402D01*
X136021Y163402D01*
X136019Y163400D01*
X136019Y163400D01*
X136018Y163397D01*
X136018Y163397D01*
X136017Y163394D01*
X136017Y163394D01*
X136015Y163392D01*
X136015Y163392D01*
X136014Y163389D01*
X136014Y163389D01*
X136013Y163387D01*
X136013Y163387D01*
X136012Y163384D01*
X136012Y163384D01*
X136010Y163382D01*
X136010Y163382D01*
X136009Y163379D01*
X136009Y163379D01*
X136008Y163377D01*
X136008Y163377D01*
X136007Y163374D01*
X136007Y163374D01*
X136006Y163372D01*
X136006Y163372D01*
X136005Y163369D01*
X136005Y163369D01*
X136003Y163367D01*
X136003Y163366D01*
X136002Y163364D01*
X136002Y163364D01*
X136001Y163362D01*
X136001Y163362D01*
X136000Y163359D01*
Y163359D01*
X135999Y163357D01*
Y163356D01*
X135998Y163354D01*
Y163354D01*
X135997Y163352D01*
Y163352D01*
X135996Y163349D01*
Y163349D01*
X135995Y163347D01*
Y163347D01*
X135994Y163344D01*
Y163344D01*
X135994Y163342D01*
Y163342D01*
X135993Y163339D01*
Y163339D01*
X135992Y163337D01*
Y163337D01*
X135991Y163334D01*
Y163334D01*
X135990Y163332D01*
Y163332D01*
X135989Y163330D01*
Y163329D01*
X135988Y163327D01*
Y163327D01*
X135988Y163325D01*
Y163325D01*
X135987Y163322D01*
Y163322D01*
X135985Y163317D01*
Y163317D01*
X135984Y163313D01*
Y163312D01*
X135983Y163308D01*
Y163308D01*
X135981Y163303D01*
Y163303D01*
X135980Y163298D01*
Y163298D01*
X135979Y163294D01*
Y163294D01*
X135978Y163289D01*
Y163289D01*
X135977Y163284D01*
Y163284D01*
X135976Y163279D01*
Y163279D01*
X135975Y163275D01*
Y163275D01*
X135974Y163270D01*
Y163270D01*
X135973Y163266D01*
Y163265D01*
X135973Y163261D01*
Y163261D01*
X135972Y163256D01*
X135972Y163256D01*
X135972Y163252D01*
X135972Y163252D01*
X135971Y163247D01*
X135971Y163247D01*
X135971Y163243D01*
X135971Y163243D01*
X135971Y163243D01*
X135971Y163243D01*
X135970Y163238D01*
X135970Y163238D01*
X135970Y163238D01*
X135970Y163238D01*
X135970Y163234D01*
X135970Y163234D01*
X135970Y163234D01*
X135970Y163234D01*
X135970Y163229D01*
X135970Y163229D01*
Y163229D01*
Y163229D01*
X135970Y163225D01*
X135970Y163225D01*
Y163225D01*
Y163225D01*
X135970Y163224D01*
X135970Y163224D01*
Y163224D01*
Y163224D01*
X135970Y163222D01*
X135970Y163222D01*
Y163222D01*
X135970Y163222D01*
X135970Y163221D01*
X135970Y163221D01*
Y163221D01*
X135970Y163221D01*
X135970Y163219D01*
X135970Y163219D01*
Y163219D01*
X135970Y163219D01*
X135970Y163218D01*
X135970Y163218D01*
X135970Y163217D01*
X135970Y163217D01*
X135970Y163216D01*
X135970Y163216D01*
X135970Y163214D01*
X135970Y163214D01*
X135970Y163213D01*
X135970Y163212D01*
Y163212D01*
X135970Y163212D01*
Y163211D01*
X135970Y163211D01*
X135970Y163209D01*
X135970Y163209D01*
X135970Y163208D01*
X135970Y163207D01*
X135970Y163206D01*
X135970Y163206D01*
X135970Y163205D01*
X135970Y163205D01*
X135970Y163204D01*
X135970Y163204D01*
X135970Y163203D01*
X135970Y163203D01*
X135970Y163201D01*
X135970Y163201D01*
X135970Y163199D01*
X135970Y163199D01*
X135970Y163199D01*
X135970Y163198D01*
X135971Y163198D01*
X135971Y163197D01*
X135971Y163195D01*
X135971Y163195D01*
X135971Y163193D01*
X135971Y163193D01*
X135971Y163191D01*
X135971Y163191D01*
X135971Y163190D01*
X135971Y163190D01*
X135971Y163189D01*
X135971Y163189D01*
X135972Y163186D01*
X135972Y163186D01*
X135972Y163183D01*
X135972Y163183D01*
X135972Y163181D01*
X135972Y163181D01*
X135972Y163179D01*
X135972Y163179D01*
X135974Y163173D01*
X135974Y163173D01*
X135976Y163160D01*
X135976Y163160D01*
X135979Y163147D01*
X135979Y163147D01*
X135983Y163134D01*
X135983Y163134D01*
X135985Y163128D01*
X135985Y163128D01*
X135985Y163127D01*
X135985Y163127D01*
X135986Y163125D01*
X135986Y163125D01*
X135986Y163123D01*
X135986Y163123D01*
X135987Y163121D01*
X135987Y163121D01*
X135987Y163120D01*
X135988Y163120D01*
X135988Y163119D01*
X135988Y163119D01*
X135989Y163117D01*
X135989Y163117D01*
X135989Y163115D01*
X135989Y163115D01*
X135990Y163113D01*
X135990Y163113D01*
X135991Y163112D01*
X135991Y163112D01*
X135991Y163111D01*
X135991Y163111D01*
X135991Y163110D01*
X135992Y163110D01*
X135992Y163109D01*
X135992Y163108D01*
X135993Y163107D01*
X135993Y163107D01*
X135993Y163106D01*
X135994Y163105D01*
X135994Y163104D01*
X135994Y163103D01*
X135995Y163103D01*
X135995Y163102D01*
X135995Y163101D01*
X135995Y163101D01*
X135997Y163097D01*
X135997Y163097D01*
X135998Y163095D01*
X135999Y163094D01*
X136000Y163091D01*
X136001Y163089D01*
X136002Y163087D01*
X136004Y163084D01*
X136004Y163083D01*
X136006Y163080D01*
X136006Y163080D01*
X136008Y163076D01*
X136008Y163076D01*
X136010Y163073D01*
X136010Y163072D01*
X136012Y163069D01*
X136013Y163068D01*
X136015Y163065D01*
X136015Y163065D01*
X136017Y163061D01*
X136017Y163061D01*
X136019Y163058D01*
X136020Y163057D01*
X136022Y163054D01*
X136022Y163054D01*
X136024Y163050D01*
X136024Y163050D01*
X136027Y163047D01*
X136027Y163047D01*
X136030Y163043D01*
X136030Y163043D01*
X136032Y163040D01*
X136032Y163039D01*
X136035Y163036D01*
X136035Y163036D01*
X136038Y163032D01*
X136038Y163032D01*
X136040Y163029D01*
X136041Y163029D01*
X136043Y163025D01*
X136044Y163025D01*
X136046Y163022D01*
X136046Y163022D01*
X136049Y163019D01*
X136049Y163018D01*
X136052Y163015D01*
X136052Y163015D01*
X136055Y163012D01*
X136056Y163012D01*
X136059Y163008D01*
X136059Y163008D01*
X136062Y163005D01*
X136062Y163005D01*
X136065Y163001D01*
X136065Y163001D01*
X136068Y162998D01*
X136068Y162998D01*
X136072Y162995D01*
X136072Y162995D01*
X136075Y162991D01*
X136075Y162991D01*
X136078Y162988D01*
X136079Y162988D01*
X136082Y162985D01*
X136082Y162985D01*
X136085Y162982D01*
X136085Y162982D01*
X136089Y162978D01*
X136089Y162978D01*
X136093Y162975D01*
X136093Y162975D01*
X136096Y162972D01*
X136096Y162972D01*
X136100Y162969D01*
X136100Y162969D01*
X136104Y162966D01*
X136104Y162966D01*
X136108Y162962D01*
X136108Y162962D01*
X136111Y162959D01*
X136112Y162959D01*
X136115Y162956D01*
X136116Y162956D01*
X136119Y162953D01*
X136119Y162953D01*
X136123Y162950D01*
X136124Y162950D01*
X136127Y162947D01*
X136127Y162947D01*
X136132Y162944D01*
X136132Y162944D01*
X136136Y162941D01*
X136136Y162941D01*
X136140Y162938D01*
X136140Y162938D01*
X136144Y162935D01*
X136144Y162935D01*
X136148Y162932D01*
X136149Y162932D01*
X136153Y162929D01*
X136153Y162929D01*
X136157Y162926D01*
X136157Y162926D01*
X136162Y162923D01*
X136162Y162923D01*
X136166Y162920D01*
X136166Y162920D01*
X136170Y162917D01*
X136171Y162917D01*
X136175Y162915D01*
X136175Y162915D01*
X136180Y162912D01*
X136180Y162912D01*
X136184Y162909D01*
X136184Y162909D01*
X136189Y162906D01*
X136189Y162906D01*
X136194Y162903D01*
X136194Y162903D01*
X136198Y162901D01*
X136198Y162901D01*
X136203Y162898D01*
X136203Y162898D01*
X136208Y162895D01*
X136208Y162895D01*
X136213Y162892D01*
X136213Y162892D01*
X136218Y162890D01*
X136218Y162890D01*
X136223Y162887D01*
X136223Y162887D01*
X136228Y162884D01*
X136228Y162884D01*
X136233Y162882D01*
X136233Y162882D01*
X136238Y162879D01*
X136238Y162879D01*
X136243Y162876D01*
X136243Y162876D01*
X136248Y162874D01*
X136248Y162874D01*
X136254Y162871D01*
X136254Y162871D01*
X136259Y162869D01*
X136259Y162869D01*
X136264Y162866D01*
X136264Y162866D01*
X136269Y162864D01*
X136269Y162864D01*
X136275Y162861D01*
X136275Y162861D01*
X136280Y162859D01*
X136280Y162859D01*
X136286Y162856D01*
X136286Y162856D01*
X136291Y162854D01*
X136291Y162854D01*
X136297Y162851D01*
X136297Y162851D01*
X136302Y162849D01*
X136302Y162849D01*
X136308Y162847D01*
X136308Y162847D01*
X136313Y162844D01*
X136313Y162844D01*
X136319Y162842D01*
X136319Y162842D01*
X136325Y162839D01*
X136325Y162839D01*
X136330Y162837D01*
X136330Y162837D01*
X136336Y162835D01*
X136336Y162835D01*
X136342Y162832D01*
X136342Y162832D01*
X136348Y162830D01*
X136348Y162830D01*
X136354Y162828D01*
X136354Y162828D01*
X136360Y162826D01*
X136360Y162826D01*
X136366Y162823D01*
X136366Y162823D01*
X136372Y162821D01*
X136372Y162821D01*
X136384Y162817D01*
X136390Y162815D01*
X136396Y162812D01*
X136402Y162810D01*
X136408Y162808D01*
X136414Y162806D01*
X136421Y162804D01*
X136427Y162802D01*
X136433Y162800D01*
X136440Y162798D01*
X136446Y162796D01*
X136452Y162794D01*
X136459Y162792D01*
X136465Y162790D01*
X136472Y162788D01*
X136478Y162786D01*
X136485Y162784D01*
X136491Y162782D01*
X136498Y162780D01*
X136504Y162779D01*
X136511Y162777D01*
X136518Y162775D01*
X136524Y162773D01*
X136531Y162771D01*
X136538Y162770D01*
X136545Y162768D01*
X136551Y162766D01*
X136558Y162764D01*
X136565Y162763D01*
X136572Y162761D01*
X136579Y162759D01*
X136586Y162758D01*
X136593Y162756D01*
X136600Y162754D01*
X136607Y162753D01*
X136614Y162751D01*
X136621Y162750D01*
X136628Y162748D01*
X136635Y162746D01*
X136642Y162745D01*
X136650Y162743D01*
X136657Y162742D01*
X136664Y162740D01*
X136671Y162739D01*
X136678Y162737D01*
X136686Y162736D01*
X136693Y162735D01*
X136700Y162733D01*
X136707Y162732D01*
X136715Y162730D01*
X136722Y162729D01*
X136733Y162727D01*
X136744Y162725D01*
X136756Y162723D01*
X136767Y162721D01*
X136778Y162719D01*
X136789Y162718D01*
X136801Y162716D01*
X136812Y162714D01*
X136823Y162712D01*
X136835Y162711D01*
X136846Y162709D01*
X136858Y162707D01*
X136870Y162706D01*
X136881Y162704D01*
X136893Y162703D01*
X136904Y162701D01*
X136916Y162700D01*
X136928Y162698D01*
X136939Y162697D01*
X136951Y162696D01*
X136967Y162694D01*
X136983Y162692D01*
X136998Y162691D01*
X137014Y162689D01*
X137030Y162688D01*
X137046Y162686D01*
X137062Y162685D01*
X137082Y162683D01*
X137102Y162682D01*
X137122Y162680D01*
X137142Y162679D01*
X137167Y162678D01*
X137191Y162676D01*
X137219Y162675D01*
X137251Y162674D01*
X137292Y162672D01*
X137349Y162671D01*
X137373Y162671D01*
X137423Y162670D01*
X137472Y162671D01*
X137522Y162671D01*
X137546Y162672D01*
X137582Y162673D01*
X137614Y162674D01*
X137642Y162675D01*
X137665Y162677D01*
X137685Y162678D01*
X137704Y162679D01*
X137724Y162680D01*
X137739Y162681D01*
X137755Y162682D01*
X137770Y162684D01*
X137785Y162685D01*
X137801Y162686D01*
X137816Y162688D01*
X137831Y162689D01*
X137842Y162690D01*
X137853Y162691D01*
X137864Y162692D01*
X137876Y162694D01*
X137887Y162695D01*
X137898Y162696D01*
X137909Y162697D01*
X137920Y162699D01*
X137931Y162700D01*
X137942Y162701D01*
X137952Y162703D01*
X137963Y162704D01*
X137974Y162706D01*
X137992Y162708D01*
X137999Y162709D01*
X138013Y162711D01*
X138020Y162712D01*
X138034Y162714D01*
X138041Y162715D01*
X138048Y162716D01*
X138055Y162717D01*
X138061Y162719D01*
X138068Y162720D01*
X138075Y162721D01*
X138082Y162722D01*
X138089Y162723D01*
X138095Y162724D01*
X138102Y162726D01*
X138115Y162728D01*
X138122Y162729D01*
X138135Y162732D01*
X138142Y162733D01*
X138148Y162734D01*
X138155Y162736D01*
X138168Y162738D01*
X138180Y162741D01*
X138187Y162742D01*
X138193Y162744D01*
X138199Y162745D01*
X138205Y162747D01*
X138218Y162749D01*
X138224Y162751D01*
X138230Y162752D01*
X138242Y162755D01*
X138248Y162757D01*
X138254Y162758D01*
X138260Y162760D01*
X138272Y162763D01*
X138277Y162764D01*
X138283Y162766D01*
X138292Y162768D01*
X138303Y162773D01*
X138327Y162783D01*
X138350Y162793D01*
X138373Y162803D01*
X138397Y162812D01*
X138420Y162821D01*
X138443Y162830D01*
X138467Y162839D01*
X138491Y162848D01*
X138517Y162857D01*
X138542Y162867D01*
X138568Y162875D01*
X138596Y162885D01*
X138626Y162895D01*
X138657Y162905D01*
X138687Y162914D01*
X138702Y162919D01*
X138720Y162924D01*
X138754Y162934D01*
X138789Y162944D01*
X138824Y162953D01*
X138863Y162963D01*
X138904Y162973D01*
X138946Y162983D01*
X138988Y162993D01*
X139009Y162997D01*
X139035Y163002D01*
X139088Y163013D01*
X139142Y163022D01*
X139195Y163031D01*
X139261Y163040D01*
X139341Y163050D01*
X139421Y163058D01*
X139502Y163065D01*
X139606Y163070D01*
X139736Y163073D01*
X139865Y163071D01*
X139994Y163063D01*
X140059Y163057D01*
X140108Y163053D01*
X140207Y163041D01*
X140306Y163026D01*
X140392Y163011D01*
X140843Y162893D01*
Y162893D01*
X141080Y162794D01*
X141316Y162692D01*
Y162692D01*
X141714Y162446D01*
X141717Y162445D01*
X141754Y162417D01*
X141790Y162389D01*
X141826Y162361D01*
X141861Y162332D01*
X141890Y162307D01*
X141919Y162283D01*
X141947Y162258D01*
X141974Y162232D01*
X142001Y162207D01*
X142028Y162181D01*
X142054Y162155D01*
X142080Y162129D01*
X142105Y162102D01*
X142130Y162075D01*
X142155Y162048D01*
X142178Y162021D01*
X142197Y161998D01*
X142216Y161976D01*
X142234Y161954D01*
X142251Y161931D01*
X142269Y161908D01*
X142286Y161886D01*
X142303Y161863D01*
X142319Y161839D01*
X142335Y161816D01*
X142351Y161793D01*
X142367Y161769D01*
X142380Y161748D01*
X142500Y161500D01*
X142591Y161285D01*
X142635Y161062D01*
X142663Y160854D01*
X142648Y160577D01*
X142626Y160462D01*
X142593Y160317D01*
X142533Y160141D01*
X142469Y160011D01*
X142333Y159764D01*
X142329Y159757D01*
X142315Y159738D01*
X142300Y159718D01*
X142285Y159698D01*
X142270Y159678D01*
X142254Y159659D01*
X142238Y159639D01*
X142222Y159620D01*
X142206Y159600D01*
X142189Y159581D01*
X142172Y159561D01*
X142160Y159548D01*
X142148Y159535D01*
X142137Y159522D01*
X142124Y159510D01*
X142112Y159497D01*
X142100Y159484D01*
X142088Y159471D01*
X142075Y159458D01*
X142062Y159445D01*
X142049Y159433D01*
X142036Y159420D01*
X142023Y159407D01*
X142010Y159395D01*
X141996Y159382D01*
X141983Y159369D01*
X141969Y159357D01*
X141955Y159344D01*
X141941Y159331D01*
X141927Y159319D01*
X141912Y159306D01*
X141898Y159294D01*
X141883Y159281D01*
X141868Y159269D01*
X141853Y159256D01*
X141838Y159244D01*
X141823Y159232D01*
X141808Y159219D01*
X141792Y159207D01*
X141776Y159195D01*
X141761Y159183D01*
X141744Y159170D01*
X141728Y159158D01*
X141712Y159146D01*
X141696Y159134D01*
X141679Y159122D01*
X141662Y159110D01*
X141645Y159098D01*
X141628Y159086D01*
X141611Y159074D01*
X141594Y159062D01*
X141576Y159050D01*
X141558Y159038D01*
X141541Y159026D01*
X141522Y159014D01*
X141504Y159002D01*
X141486Y158991D01*
X141467Y158979D01*
X141449Y158967D01*
X141430Y158956D01*
X141411Y158944D01*
X141392Y158932D01*
X141373Y158921D01*
X141353Y158909D01*
X141334Y158898D01*
X141314Y158886D01*
X141294Y158875D01*
X141274Y158863D01*
X141254Y158852D01*
X141233Y158841D01*
X141213Y158829D01*
X141192Y158818D01*
X141171Y158807D01*
X141161Y158801D01*
X141152Y158794D01*
X141146Y158789D01*
X141140Y158784D01*
X141134Y158779D01*
X141128Y158774D01*
X141122Y158770D01*
X141116Y158765D01*
X141109Y158760D01*
X141103Y158756D01*
X141097Y158751D01*
X141090Y158746D01*
X141084Y158742D01*
X141077Y158737D01*
X141071Y158733D01*
X141064Y158729D01*
X141057Y158724D01*
X141051Y158720D01*
X141044Y158716D01*
X141037Y158712D01*
X141030Y158707D01*
X141023Y158703D01*
X141016Y158699D01*
X141009Y158695D01*
X141001Y158691D01*
X140994Y158687D01*
X140987Y158683D01*
X140980Y158679D01*
X140972Y158676D01*
X140965Y158672D01*
X140957Y158668D01*
X140950Y158664D01*
X140942Y158661D01*
X140934Y158657D01*
X140927Y158653D01*
X140919Y158650D01*
X140911Y158647D01*
X140903Y158643D01*
X140895Y158640D01*
X140887Y158636D01*
X140879Y158633D01*
X140871Y158630D01*
X140863Y158626D01*
X140855Y158623D01*
X140846Y158620D01*
X140838Y158617D01*
X140830Y158614D01*
X140821Y158610D01*
X140813Y158607D01*
X140804Y158604D01*
X140796Y158601D01*
X140787Y158598D01*
X140779Y158596D01*
X140770Y158593D01*
X140761Y158590D01*
X140752Y158587D01*
X140744Y158584D01*
X140735Y158582D01*
X140726Y158579D01*
X140717Y158576D01*
X140708Y158574D01*
X140699Y158571D01*
X140690Y158569D01*
X140680Y158566D01*
X140671Y158563D01*
X140662Y158561D01*
X140653Y158559D01*
X140643Y158556D01*
X140634Y158554D01*
X140624Y158552D01*
X140615Y158549D01*
X140605Y158547D01*
X140596Y158545D01*
X140586Y158543D01*
X140577Y158540D01*
X140567Y158538D01*
X140557Y158536D01*
X140548Y158534D01*
X140538Y158532D01*
X140528Y158530D01*
X140518Y158528D01*
X140508Y158526D01*
X140498Y158524D01*
X140488Y158522D01*
X140478Y158521D01*
X140468Y158519D01*
X140458Y158517D01*
X140448Y158515D01*
X140437Y158513D01*
X140427Y158512D01*
X140417Y158510D01*
X140407Y158508D01*
X140396Y158507D01*
X140386Y158505D01*
X140375Y158503D01*
X140365Y158502D01*
X140354Y158501D01*
X140344Y158499D01*
X140333Y158498D01*
X140323Y158496D01*
X140312Y158495D01*
X140301Y158493D01*
X140291Y158492D01*
X140280Y158491D01*
X140269Y158489D01*
X140258Y158488D01*
X140247Y158487D01*
X140237Y158485D01*
X140226Y158484D01*
X140215Y158483D01*
X140204Y158482D01*
X140193Y158481D01*
X140182Y158480D01*
X140171Y158478D01*
X140159Y158477D01*
X140148Y158476D01*
X140137Y158475D01*
X140126Y158474D01*
X140115Y158473D01*
X140103Y158472D01*
X140092Y158471D01*
X140081Y158470D01*
X140069Y158470D01*
X140058Y158469D01*
X140047Y158468D01*
X140035Y158467D01*
X140024Y158466D01*
X140012Y158465D01*
X140001Y158465D01*
X139989Y158464D01*
X139978Y158463D01*
X139966Y158463D01*
X139954Y158462D01*
X139943Y158461D01*
X139931Y158460D01*
X139919Y158460D01*
X139908Y158459D01*
X139896Y158459D01*
X139884Y158458D01*
X139872Y158457D01*
X139860Y158457D01*
X139848Y158456D01*
X139837Y158456D01*
X139825Y158455D01*
X139813Y158455D01*
X139801Y158454D01*
X139789Y158454D01*
X139777Y158454D01*
X139765Y158453D01*
X139753Y158453D01*
X139741Y158452D01*
X139729Y158452D01*
X139717Y158452D01*
X139704Y158451D01*
X139692Y158451D01*
X139680Y158451D01*
X139668Y158450D01*
X139656Y158450D01*
X139644Y158450D01*
X139631Y158449D01*
X139619Y158449D01*
X139594Y158449D01*
X139576Y158449D01*
X139557Y158448D01*
X139526Y158448D01*
X139514Y158448D01*
X139489Y158448D01*
X139477Y158447D01*
X139471Y158447D01*
X139464Y158447D01*
X139439Y158447D01*
X139427Y158447D01*
X139408Y158447D01*
X139389Y158447D01*
X139370Y158447D01*
X139339D01*
X139307Y158447D01*
X139276Y158447D01*
X139244Y158447D01*
X139237Y158447D01*
X139231Y158447D01*
X139218Y158447D01*
X139180Y158448D01*
X139148Y158448D01*
X139123Y158448D01*
X139091Y158449D01*
X139072Y158449D01*
X139065Y158449D01*
X139052Y158449D01*
X139046Y158449D01*
X139026Y158449D01*
X138988Y158450D01*
X138982Y158450D01*
X138969Y158450D01*
X138962Y158450D01*
X138943Y158450D01*
X138930Y158450D01*
X138917Y158451D01*
X138827Y158452D01*
X138814Y158452D01*
X138730Y158453D01*
X138698Y158454D01*
X138685Y158454D01*
X138672Y158454D01*
X138666Y158454D01*
X138653Y158454D01*
X138647Y158454D01*
X138621Y158455D01*
X138614Y158455D01*
X138589Y158455D01*
X138576Y158455D01*
X138569Y158455D01*
X138556Y158455D01*
X138550Y158456D01*
X138537Y158456D01*
X138531Y158456D01*
X138524Y158456D01*
X138492Y158456D01*
X138479Y158456D01*
X138441Y158457D01*
X138435Y158457D01*
X138428Y158457D01*
X138409Y158457D01*
X138402Y158457D01*
X138396Y158457D01*
X138358Y158457D01*
X138332Y158457D01*
X138301Y158457D01*
X138275D01*
X138262Y158457D01*
X138250Y158457D01*
X138237Y158457D01*
X138224Y158457D01*
X138212Y158457D01*
X138199Y158457D01*
X138187Y158457D01*
X138161Y158457D01*
X138149Y158457D01*
X138124Y158456D01*
X138099Y158456D01*
X138080Y158456D01*
X138061Y158456D01*
X138042Y158455D01*
X138017Y158455D01*
X138005Y158455D01*
X137993Y158454D01*
X137980Y158454D01*
X137968Y158454D01*
X137955Y158453D01*
X137943Y158453D01*
X137931Y158453D01*
X137919Y158452D01*
X137906Y158452D01*
X137894Y158452D01*
X137882Y158451D01*
X137870Y158451D01*
X137857Y158450D01*
X137845Y158450D01*
X137833Y158450D01*
X137821Y158449D01*
X137809Y158449D01*
X137797Y158448D01*
X137785Y158448D01*
X137773Y158447D01*
X137760Y158447D01*
X137749Y158446D01*
X137736Y158445D01*
X137725Y158445D01*
X137713Y158444D01*
X137701Y158444D01*
X137689Y158443D01*
X137677Y158442D01*
X137665Y158441D01*
X137653Y158441D01*
X137641Y158440D01*
X137630Y158439D01*
X137618Y158439D01*
X137606Y158438D01*
X137594Y158437D01*
X137583Y158436D01*
X137571Y158435D01*
X137559Y158434D01*
X137548Y158433D01*
X137536Y158433D01*
X137525Y158432D01*
X137513Y158431D01*
X137502Y158430D01*
X137490Y158429D01*
X137479Y158428D01*
X137468Y158427D01*
X137456Y158425D01*
X137445Y158424D01*
X137434Y158423D01*
X137422Y158422D01*
X137411Y158421D01*
X137400Y158420D01*
X137389Y158419D01*
X137377Y158417D01*
X137366Y158416D01*
X137355Y158415D01*
X137344Y158413D01*
X137333Y158412D01*
X137322Y158411D01*
X137311Y158409D01*
X137300Y158408D01*
X137289Y158406D01*
X137278Y158405D01*
X137267Y158404D01*
X137257Y158402D01*
X137246Y158400D01*
X137235Y158399D01*
X137224Y158397D01*
X137214Y158396D01*
X137203Y158394D01*
X137192Y158392D01*
X137182Y158391D01*
X137171Y158389D01*
X137161Y158387D01*
X137150Y158385D01*
X137140Y158383D01*
X137130Y158382D01*
X137119Y158380D01*
X137109Y158378D01*
X137099Y158376D01*
X137088Y158374D01*
X137078Y158372D01*
X137068Y158370D01*
X137058Y158368D01*
X137048Y158366D01*
X137038Y158363D01*
X137028Y158361D01*
X137018Y158359D01*
X137008Y158357D01*
X136998Y158355D01*
X136988Y158352D01*
X136978Y158350D01*
X136969Y158348D01*
X136959Y158345D01*
X136949Y158343D01*
X136940Y158341D01*
X136930Y158338D01*
X136920Y158335D01*
X136911Y158333D01*
X136902Y158330D01*
X136892Y158328D01*
X136883Y158325D01*
X136873Y158322D01*
X136864Y158320D01*
X136855Y158317D01*
X136846Y158314D01*
X136837Y158311D01*
X136828Y158308D01*
X136819Y158306D01*
X136809Y158302D01*
X136801Y158300D01*
X136792Y158297D01*
X136783Y158293D01*
X136774Y158290D01*
X136765Y158287D01*
X136756Y158284D01*
X136748Y158281D01*
X136739Y158278D01*
X136731Y158274D01*
X136722Y158271D01*
X136714Y158268D01*
X136705Y158264D01*
X136697Y158261D01*
X136688Y158257D01*
X136680Y158254D01*
X136672Y158250D01*
X136664Y158247D01*
X136655Y158243D01*
X136647Y158240D01*
X136639Y158236D01*
X136631Y158232D01*
X136624Y158228D01*
X136616Y158224D01*
X136608Y158221D01*
X136600Y158217D01*
X136592Y158213D01*
X136585Y158209D01*
X136577Y158205D01*
X136569Y158201D01*
X136562Y158197D01*
X136555Y158192D01*
X136547Y158188D01*
X136540Y158184D01*
X136532Y158180D01*
X136525Y158175D01*
X136518Y158171D01*
X136511Y158167D01*
X136504Y158162D01*
X136497Y158158D01*
X136490Y158153D01*
X136483Y158149D01*
X136476Y158144D01*
X136470Y158139D01*
X136463Y158134D01*
X136463Y158134D01*
X136456Y158130D01*
X136456Y158130D01*
X136450Y158125D01*
X136450Y158125D01*
X136443Y158120D01*
X136443Y158120D01*
X136437Y158115D01*
X136436Y158115D01*
X136430Y158110D01*
X136430Y158110D01*
X136424Y158105D01*
X136424Y158105D01*
X136417Y158100D01*
X136417Y158100D01*
X136411Y158095D01*
X136411Y158095D01*
X136405Y158090D01*
X136405Y158090D01*
X136399Y158084D01*
X136399Y158084D01*
X136393Y158079D01*
X136393Y158079D01*
X136384Y158071D01*
X136384Y158071D01*
X136375Y158063D01*
X136375Y158063D01*
X136366Y158055D01*
X136366Y158055D01*
X136358Y158047D01*
X136358Y158047D01*
X136349Y158038D01*
X136349Y158038D01*
X136341Y158030D01*
X136341Y158030D01*
X136333Y158021D01*
X136333Y158021D01*
X136325Y158013D01*
X136325Y158012D01*
X136324Y158011D01*
X136324Y158011D01*
X136321Y158008D01*
X136321Y158008D01*
X136319Y158005D01*
X136319Y158005D01*
X136316Y158002D01*
X136316Y158002D01*
X136315Y158001D01*
X136315Y158001D01*
X136313Y157999D01*
X136313Y157999D01*
X136311Y157996D01*
X136311Y157996D01*
X136308Y157993D01*
X136308Y157993D01*
X136306Y157990D01*
X136306Y157990D01*
X136305Y157989D01*
X136305Y157989D01*
X136303Y157987D01*
X136303Y157987D01*
X136300Y157983D01*
X136300Y157983D01*
X136297Y157979D01*
X136297Y157979D01*
X136294Y157975D01*
X136294Y157975D01*
X136292Y157973D01*
X136292Y157973D01*
X136291Y157971D01*
X136291Y157971D01*
X136287Y157966D01*
X136287Y157966D01*
X136283Y157962D01*
X136283Y157962D01*
X136280Y157957D01*
X136280Y157957D01*
X136278Y157955D01*
X136278Y157955D01*
X136276Y157951D01*
X136275Y157951D01*
X136270Y157944D01*
X136270Y157944D01*
X136265Y157937D01*
X136265Y157936D01*
X136260Y157929D01*
X136260Y157929D01*
X136258Y157925D01*
X136258Y157925D01*
X136251Y157915D01*
X136251Y157915D01*
X136239Y157895D01*
X136239Y157895D01*
X136227Y157875D01*
X136227Y157874D01*
X136216Y157853D01*
X136216Y157853D01*
X136211Y157843D01*
X136211Y157842D01*
X136210Y157840D01*
X136210Y157840D01*
X136207Y157834D01*
X136207Y157834D01*
X136205Y157829D01*
X136205Y157828D01*
X136202Y157824D01*
X136202Y157823D01*
X136201Y157821D01*
X136201Y157820D01*
X136200Y157818D01*
X136200Y157818D01*
X136198Y157814D01*
X136198Y157813D01*
X136196Y157809D01*
X136196Y157808D01*
X136194Y157804D01*
X136194Y157804D01*
X136193Y157802D01*
X136193Y157801D01*
X136192Y157800D01*
X136192Y157799D01*
X136191Y157796D01*
X136190Y157795D01*
X136189Y157792D01*
X136189Y157791D01*
X136188Y157789D01*
X136187Y157788D01*
X136187Y157787D01*
X136187Y157786D01*
X136186Y157785D01*
X136186Y157783D01*
X136185Y157781D01*
X136184Y157779D01*
X136183Y157777D01*
X136182Y157773D01*
X136181Y157771D01*
X136181Y157771D01*
X136179Y157764D01*
X136186Y157744D01*
X136186Y157744D01*
X136192Y157730D01*
X136192Y157730D01*
X136198Y157716D01*
X136199Y157716D01*
X136205Y157702D01*
X136205Y157702D01*
X136211Y157688D01*
X136211Y157688D01*
X136218Y157675D01*
X136218Y157674D01*
X136225Y157661D01*
X136225Y157661D01*
X136234Y157643D01*
X136234Y157643D01*
X136243Y157626D01*
X136243Y157626D01*
X136253Y157608D01*
X136253Y157608D01*
X136263Y157591D01*
X136263Y157591D01*
X136264Y157589D01*
X136264Y157589D01*
X136268Y157583D01*
X136268Y157583D01*
X136271Y157578D01*
X136274Y157573D01*
X136277Y157568D01*
X136280Y157563D01*
X136284Y157558D01*
X136287Y157553D01*
X136289Y157550D01*
X136291Y157547D01*
X136295Y157541D01*
X136299Y157535D01*
X136303Y157529D01*
X136308Y157522D01*
X136313Y157514D01*
X136319Y157507D01*
X136324Y157499D01*
X136327Y157495D01*
X136332Y157488D01*
X136343Y157474D01*
X136354Y157460D01*
X136366Y157446D01*
X136372Y157440D01*
X136380Y157429D01*
X136398Y157409D01*
X136417Y157390D01*
X136425Y157381D01*
X136436Y157371D01*
X136436Y157370D01*
X136445Y157361D01*
X136446Y157361D01*
X136449Y157358D01*
X136449Y157358D01*
X136456Y157352D01*
X136456Y157352D01*
X136463Y157345D01*
X136463Y157345D01*
X136469Y157339D01*
X136470Y157339D01*
X136473Y157336D01*
X136473Y157336D01*
X136476Y157334D01*
X136476Y157333D01*
X136481Y157329D01*
X136481Y157329D01*
X136486Y157324D01*
X136486Y157324D01*
X136491Y157320D01*
X136492Y157320D01*
X136494Y157317D01*
X136494Y157317D01*
X136497Y157315D01*
X136497Y157315D01*
X136502Y157311D01*
X136502Y157310D01*
X136507Y157306D01*
X136508Y157306D01*
X136513Y157302D01*
X136513Y157302D01*
X136516Y157300D01*
X136516Y157299D01*
X136518Y157298D01*
X136518Y157298D01*
X136522Y157294D01*
X136523Y157294D01*
X136527Y157291D01*
X136528Y157290D01*
X136532Y157287D01*
X136532Y157287D01*
X136534Y157285D01*
X136535Y157284D01*
X136536Y157283D01*
X136537Y157283D01*
X136541Y157280D01*
X136543Y157279D01*
X136546Y157276D01*
X136552Y157271D01*
X136553Y157271D01*
X136553Y157271D01*
X136568Y157260D01*
X136582Y157250D01*
X136583Y157249D01*
X136598Y157239D01*
X136598Y157239D01*
X136614Y157229D01*
X136614Y157228D01*
X136626Y157221D01*
X136626Y157221D01*
X136638Y157213D01*
X136638Y157213D01*
X136650Y157206D01*
X136650Y157206D01*
X136662Y157199D01*
X136662Y157199D01*
X136674Y157192D01*
X136675Y157192D01*
X136687Y157185D01*
X136687Y157185D01*
X136699Y157178D01*
X136700Y157178D01*
X136712Y157171D01*
X136712Y157171D01*
X136725Y157165D01*
X136725Y157164D01*
X136738Y157158D01*
X136738Y157158D01*
X136751Y157152D01*
X136751Y157151D01*
X136764Y157145D01*
X136764Y157145D01*
X136777Y157139D01*
X136777Y157139D01*
X136790Y157133D01*
X136790Y157133D01*
X136803Y157127D01*
X136804Y157127D01*
X136817Y157122D01*
X136817Y157121D01*
X136830Y157116D01*
X136831Y157116D01*
X136844Y157110D01*
X136844Y157110D01*
X136853Y157107D01*
X136853Y157106D01*
X136862Y157103D01*
X136863Y157103D01*
X136872Y157099D01*
X136872Y157099D01*
X136881Y157096D01*
X136881Y157096D01*
X136890Y157092D01*
X136890Y157092D01*
X136900Y157089D01*
X136900Y157089D01*
X136909Y157086D01*
X136909Y157086D01*
X136918Y157082D01*
X136918Y157082D01*
X136928Y157079D01*
X136928Y157079D01*
X136937Y157076D01*
X136937Y157076D01*
X136947Y157073D01*
X136947Y157073D01*
X136957Y157070D01*
X136957Y157070D01*
X136966Y157067D01*
X136966Y157067D01*
X136968Y157066D01*
X136976Y157064D01*
X136986Y157061D01*
X136995Y157058D01*
X137005Y157055D01*
X137015Y157052D01*
X137025Y157050D01*
X137035Y157047D01*
X137045Y157044D01*
X137055Y157042D01*
X137065Y157039D01*
X137075Y157037D01*
X137085Y157034D01*
X137095Y157032D01*
X137105Y157029D01*
X137115Y157027D01*
X137126Y157025D01*
X137136Y157023D01*
X137146Y157020D01*
X137157Y157018D01*
X137167Y157016D01*
X137177Y157014D01*
X137188Y157012D01*
X137198Y157010D01*
X137209Y157008D01*
X137220Y157006D01*
X137230Y157004D01*
X137241Y157003D01*
X137251Y157001D01*
X137262Y156999D01*
X137273Y156998D01*
X137284Y156996D01*
X137294Y156994D01*
X137305Y156993D01*
X137316Y156991D01*
X137327Y156990D01*
X137338Y156989D01*
X137349Y156987D01*
X137360Y156986D01*
X137371Y156985D01*
X137382Y156983D01*
X137393Y156982D01*
X137404Y156981D01*
X137416Y156980D01*
X137427Y156979D01*
X137438Y156978D01*
X137449Y156977D01*
X137460Y156976D01*
X137472Y156975D01*
X137483Y156974D01*
X137495Y156973D01*
X137506Y156973D01*
X137517Y156972D01*
X137529Y156971D01*
X137540Y156970D01*
X137552Y156970D01*
X137563Y156969D01*
X137575Y156969D01*
X137586Y156968D01*
X137598Y156968D01*
X137610Y156967D01*
X137621Y156967D01*
X137633Y156966D01*
X137645Y156966D01*
X137657Y156966D01*
X137669Y156966D01*
X137680Y156965D01*
X137692Y156965D01*
X137704Y156965D01*
X137716Y156965D01*
X137728Y156965D01*
X137740Y156965D01*
X137752Y156965D01*
X137764Y156965D01*
X137776Y156965D01*
X137788Y156965D01*
X137800Y156965D01*
X137812Y156965D01*
X137824Y156966D01*
X137836Y156966D01*
X137848Y156966D01*
X137861Y156966D01*
X137873Y156967D01*
X137885Y156967D01*
X137898Y156967D01*
X137910Y156968D01*
X137922Y156968D01*
X137934Y156969D01*
X137947Y156969D01*
X137959Y156970D01*
X137971Y156971D01*
X137984Y156971D01*
X137996Y156972D01*
X138009Y156973D01*
X138021Y156974D01*
X138034Y156974D01*
X138046Y156975D01*
X138059Y156976D01*
X138072Y156977D01*
X138084Y156978D01*
X138097Y156979D01*
X138109Y156980D01*
X138122Y156981D01*
X138135Y156982D01*
X138147Y156983D01*
X138160Y156984D01*
X138173Y156985D01*
X138186Y156986D01*
X138198Y156987D01*
X138211Y156988D01*
X138224Y156989D01*
X138237Y156991D01*
X138249Y156992D01*
X138262Y156993D01*
X138275Y156995D01*
X138288Y156996D01*
X138301Y156997D01*
X138314Y156999D01*
X138327Y157000D01*
X138340Y157002D01*
X138353Y157003D01*
X138366Y157005D01*
X138379Y157006D01*
X138392Y157008D01*
X138405Y157009D01*
X138418Y157011D01*
X138431Y157013D01*
X138444Y157014D01*
X138457Y157016D01*
X138470Y157018D01*
X138483Y157019D01*
X138496Y157021D01*
X138509Y157023D01*
X138522Y157025D01*
X138535Y157027D01*
X138549Y157029D01*
X138562Y157030D01*
X138575Y157032D01*
X138588Y157034D01*
X138601Y157036D01*
X138615Y157038D01*
X138628Y157040D01*
X138641Y157042D01*
X138654Y157044D01*
X138668Y157046D01*
X138681Y157049D01*
X138694Y157051D01*
X138707Y157053D01*
X138734Y157057D01*
X138748Y157060D01*
X138761Y157062D01*
X138774Y157064D01*
X138801Y157069D01*
X138814Y157071D01*
X138828Y157073D01*
X138841Y157076D01*
X138868Y157080D01*
X138881Y157083D01*
X138895Y157085D01*
X138921Y157090D01*
X138948Y157095D01*
X138962Y157097D01*
X138975Y157100D01*
X138989Y157103D01*
X139016Y157108D01*
X139029Y157110D01*
X139043Y157113D01*
X139056Y157116D01*
X139083Y157121D01*
X139097Y157124D01*
X139124Y157129D01*
X139151Y157135D01*
X139178Y157140D01*
X139191Y157143D01*
X139218Y157149D01*
X139245Y157154D01*
X139259Y157157D01*
X139286Y157163D01*
X139300Y157166D01*
X139327Y157172D01*
X139354Y157178D01*
X139367Y157181D01*
X139394Y157187D01*
X139421Y157193D01*
X139435Y157196D01*
X139462Y157202D01*
X139489Y157208D01*
X139516Y157214D01*
X139543Y157221D01*
X139557Y157224D01*
X139584Y157230D01*
X139597Y157233D01*
X139624Y157240D01*
X139651Y157246D01*
X139678Y157252D01*
X139705Y157259D01*
X139732Y157265D01*
X139746Y157269D01*
X139773Y157275D01*
X139799Y157282D01*
X139826Y157288D01*
X139853Y157295D01*
X139893Y157305D01*
X139933Y157315D01*
X139960Y157322D01*
X139987Y157328D01*
X140027Y157338D01*
X140080Y157352D01*
X140086Y157354D01*
X140093Y157355D01*
X140100Y157357D01*
X140120Y157362D01*
X140139Y157367D01*
X140146Y157369D01*
X140192Y157381D01*
X140231Y157391D01*
X140264Y157399D01*
X140271Y157401D01*
X140284Y157405D01*
X140336Y157418D01*
X140342Y157420D01*
X140368Y157427D01*
X140375Y157429D01*
X140407Y157437D01*
X140471Y157454D01*
X140497Y157461D01*
X140504Y157462D01*
X140516Y157466D01*
X140529Y157469D01*
X140535Y157471D01*
X140567Y157479D01*
X140637Y157498D01*
X140718Y157519D01*
X140749Y157527D01*
X140793Y157539D01*
X140842Y157552D01*
X140854Y157555D01*
X140884Y157563D01*
X140896Y157566D01*
X140903Y157568D01*
X140951Y157580D01*
X140975Y157586D01*
X140981Y157588D01*
X140993Y157591D01*
X140999Y157592D01*
X141017Y157597D01*
X141040Y157603D01*
X141058Y157608D01*
X141087Y157615D01*
X141093Y157617D01*
X141117Y157623D01*
X141146Y157630D01*
X141169Y157636D01*
X141186Y157640D01*
X141203Y157645D01*
X141232Y157652D01*
X141249Y157656D01*
X141266Y157660D01*
X141283Y157665D01*
X141299Y157669D01*
X141322Y157674D01*
X141349Y157681D01*
X141360Y157683D01*
X141383Y157689D01*
X141404Y157694D01*
X141415Y157696D01*
X141421Y157698D01*
X141442Y157703D01*
X141464Y157708D01*
X141480Y157712D01*
X141496Y157715D01*
X141511Y157719D01*
X141517Y157720D01*
X141527Y157722D01*
X141553Y157728D01*
X141559Y157729D01*
X141564Y157731D01*
X141579Y157734D01*
X141600Y157739D01*
X141610Y157741D01*
X141630Y157745D01*
X141646Y157748D01*
X141671Y157754D01*
X141685Y157757D01*
X141695Y157759D01*
X141705Y157761D01*
X141715Y157763D01*
X141746Y157770D01*
X141773Y157776D01*
X141804Y157783D01*
X141835Y157789D01*
X141866Y157794D01*
X141871Y157795D01*
X141880Y157796D01*
X141889Y157798D01*
X141898Y157799D01*
X141902Y157800D01*
X141907Y157800D01*
X141916Y157802D01*
X141925Y157803D01*
X141934Y157804D01*
X141943Y157805D01*
X141954Y157807D01*
X141964Y157808D01*
X141974Y157809D01*
X141979Y157809D01*
X141985Y157810D01*
X141996Y157811D01*
X142008Y157812D01*
X142019Y157813D01*
X142025Y157813D01*
X142025Y157813D01*
X142349Y157791D01*
X142572Y157757D01*
X142726Y157703D01*
X142801Y157676D01*
X142999Y157588D01*
X143327Y157374D01*
X143332Y157369D01*
X143355Y157350D01*
X143377Y157331D01*
X143399Y157312D01*
X143421Y157292D01*
X143442Y157272D01*
X143464Y157251D01*
X143488Y157227D01*
X143513Y157202D01*
X143537Y157177D01*
X143561Y157152D01*
X143584Y157126D01*
X143607Y157100D01*
X143630Y157074D01*
X143656Y157043D01*
X143681Y157012D01*
X143706Y156981D01*
X143730Y156949D01*
X143757Y156913D01*
X143783Y156876D01*
X143787Y156870D01*
X143794Y156860D01*
X143801Y156850D01*
X143809Y156839D01*
X143816Y156828D01*
X143824Y156817D01*
X143831Y156805D01*
X143839Y156793D01*
X143847Y156781D01*
X143855Y156768D01*
X143863Y156755D01*
X143871Y156743D01*
X143880Y156729D01*
X143888Y156715D01*
X143897Y156701D01*
X143905Y156687D01*
X143914Y156671D01*
X143924Y156655D01*
X143933Y156638D01*
X143942Y156622D01*
X143953Y156603D01*
X143964Y156581D01*
X143976Y156560D01*
X143987Y156538D01*
X144002Y156508D01*
X144021Y156469D01*
X144031Y156448D01*
X144031Y156448D01*
X144021Y156469D01*
X144034Y156440D01*
X144040Y156424D01*
X144029Y156448D01*
X144021Y156469D01*
X144002Y156508D01*
X144029Y156448D01*
X144034Y156434D01*
X144011Y156485D01*
X144002Y156508D01*
X143987Y156538D01*
X144011Y156485D01*
X144016Y156472D01*
X143995Y156518D01*
X144002Y156500D01*
X143986Y156535D01*
X143976Y156560D01*
X143964Y156581D01*
X143986Y156535D01*
X143994Y156513D01*
X143977Y156550D01*
X143964Y156581D01*
X143953Y156603D01*
X143977Y156550D01*
X143987Y156527D01*
X143968Y156567D01*
X143953Y156603D01*
X143942Y156622D01*
X143968Y156567D01*
X143979Y156541D01*
X143960Y156581D01*
X143942Y156622D01*
X143933Y156638D01*
X143960Y156581D01*
X143975Y156548D01*
X143957Y156585D01*
X143933Y156638D01*
X143924Y156655D01*
X143957Y156585D01*
X143976Y156544D01*
X143959Y156578D01*
X143971Y156553D01*
X143947Y156603D01*
X143991Y156508D01*
X144003Y156482D01*
X144015Y156455D01*
X144029Y156425D01*
X144042Y156393D01*
X144056Y156358D01*
X144070Y156323D01*
X144089Y156277D01*
X144109Y156222D01*
X144109Y156221D01*
X144177Y156024D01*
X144186Y155995D01*
X144196Y155960D01*
X144250Y155686D01*
X144290Y155452D01*
X144301Y155313D01*
X144309Y155187D01*
X144309Y155165D01*
X144308Y155130D01*
X144306Y155101D01*
X144304Y155071D01*
X144302Y155042D01*
X144299Y155012D01*
X144296Y154983D01*
X144293Y154954D01*
X144289Y154925D01*
X144288Y154922D01*
X144238Y154723D01*
X144134Y154422D01*
X143934Y154183D01*
X143787Y154024D01*
X143768Y154006D01*
X143737Y153977D01*
X143706Y153949D01*
X143674Y153921D01*
X143642Y153893D01*
X143610Y153866D01*
X143577Y153838D01*
X143544Y153811D01*
X143511Y153784D01*
X143485Y153764D01*
X143460Y153745D01*
X143434Y153725D01*
X143409Y153706D01*
X143383Y153686D01*
X143356Y153667D01*
X143330Y153648D01*
X143303Y153629D01*
X143277Y153611D01*
X143249Y153592D01*
X143222Y153574D01*
X143195Y153555D01*
X143167Y153537D01*
X143140Y153519D01*
X143112Y153501D01*
X143084Y153483D01*
X143056Y153466D01*
X143027Y153448D01*
X142999Y153431D01*
X142970Y153414D01*
X142941Y153397D01*
X142912Y153380D01*
X142883Y153363D01*
X142853Y153347D01*
X142824Y153330D01*
X142794Y153314D01*
X142764Y153298D01*
X142734Y153282D01*
X142704Y153266D01*
X142674Y153250D01*
X142643Y153234D01*
X142612Y153219D01*
X142581Y153203D01*
X142551Y153188D01*
X142519Y153173D01*
X142488Y153158D01*
X142457Y153144D01*
X142425Y153129D01*
X142393Y153114D01*
X142361Y153100D01*
X142330Y153086D01*
X142297Y153072D01*
X142265Y153058D01*
X142233Y153044D01*
X142189Y153026D01*
X142145Y153008D01*
X142102Y152990D01*
X142057Y152972D01*
X142013Y152955D01*
X141968Y152938D01*
X141923Y152921D01*
X141878Y152905D01*
X141833Y152889D01*
X141788Y152873D01*
X141742Y152857D01*
X141696Y152841D01*
X141650Y152826D01*
X141604Y152811D01*
X141557Y152796D01*
X141510Y152781D01*
X141463Y152767D01*
X141416Y152753D01*
X141369Y152739D01*
X141321Y152725D01*
X141274Y152712D01*
X141226Y152699D01*
X141178Y152686D01*
X141130Y152673D01*
X141081Y152660D01*
X141033Y152648D01*
X140984Y152636D01*
X140935Y152624D01*
X140886Y152613D01*
X140825Y152599D01*
X140763Y152585D01*
X140701Y152571D01*
X140639Y152558D01*
X140577Y152546D01*
X140514Y152533D01*
X140451Y152521D01*
X140388Y152510D01*
X140325Y152498D01*
X140262Y152487D01*
X140198Y152477D01*
X140122Y152465D01*
X140045Y152453D01*
X139968Y152442D01*
X139891Y152431D01*
X139814Y152421D01*
X139736Y152411D01*
X139646Y152400D01*
X139555Y152390D01*
X139464Y152381D01*
X139359Y152371D01*
X139255Y152362D01*
X139137Y152353D01*
X139006Y152344D01*
X138861Y152336D01*
X138703Y152329D01*
X138505Y152323D01*
X138473Y152322D01*
X138407Y152321D01*
X138341Y152320D01*
X138275Y152319D01*
X138102Y152319D01*
X137824Y152323D01*
X137616Y152331D01*
X137128Y152361D01*
X137128Y152361D01*
X136648Y152409D01*
X136551Y152420D01*
X136450Y152434D01*
X136349Y152447D01*
X136261Y152460D01*
X136174Y152473D01*
X136099Y152485D01*
X136025Y152498D01*
X135951Y152510D01*
X135878Y152524D01*
X135804Y152537D01*
X135744Y152549D01*
X135683Y152561D01*
X135623Y152573D01*
X135563Y152586D01*
X135503Y152599D01*
X135444Y152612D01*
X135385Y152625D01*
X135338Y152636D01*
X135291Y152647D01*
X135244Y152658D01*
X135197Y152670D01*
X135151Y152682D01*
X135105Y152694D01*
X135059Y152706D01*
X135013Y152718D01*
X134968Y152730D01*
X134923Y152743D01*
X134878Y152755D01*
X134833Y152769D01*
X134788Y152782D01*
X134744Y152795D01*
X134700Y152808D01*
X134667Y152819D01*
X134634Y152829D01*
X134601Y152839D01*
X134569Y152850D01*
X134536Y152860D01*
X134504Y152871D01*
X134472Y152882D01*
X134440Y152893D01*
X134408Y152904D01*
X134376Y152915D01*
X134345Y152926D01*
X134313Y152937D01*
X134282Y152949D01*
X134251Y152960D01*
X134220Y152972D01*
X134189Y152984D01*
X134159Y152995D01*
X134128Y153007D01*
X134098Y153019D01*
X134068Y153031D01*
X134038Y153044D01*
X134008Y153056D01*
X133978Y153068D01*
X133948Y153081D01*
X133919Y153093D01*
X133890Y153106D01*
X133861Y153119D01*
X133832Y153131D01*
X133803Y153144D01*
X133775Y153157D01*
X133746Y153171D01*
X133718Y153184D01*
X133690Y153197D01*
X133662Y153210D01*
X133635Y153224D01*
X133607Y153238D01*
X133580Y153251D01*
X133553Y153265D01*
X133526Y153279D01*
X133499Y153293D01*
X133472Y153307D01*
X133446Y153321D01*
X133429Y153331D01*
X133411Y153340D01*
X133394Y153350D01*
X133377Y153359D01*
X133359Y153369D01*
X133342Y153379D01*
X133325Y153388D01*
X133308Y153398D01*
X133292Y153408D01*
X133275Y153418D01*
X133258Y153428D01*
X133242Y153438D01*
X133225Y153448D01*
X133209Y153458D01*
X133193Y153468D01*
X133177Y153478D01*
X133160Y153488D01*
X133144Y153498D01*
X133128Y153508D01*
X133113Y153518D01*
X133097Y153529D01*
X133081Y153539D01*
X133066Y153550D01*
X133050Y153560D01*
X133029Y153583D01*
X133015Y153598D01*
X133001Y153613D01*
X132987Y153629D01*
X132974Y153644D01*
X132960Y153660D01*
X132946Y153676D01*
X132932Y153692D01*
X132919Y153709D01*
X132905Y153725D01*
X132891Y153742D01*
X132878Y153758D01*
X132864Y153775D01*
X132851Y153792D01*
X132837Y153809D01*
X132824Y153827D01*
X132811Y153844D01*
X132798Y153862D01*
X132784Y153879D01*
X132771Y153897D01*
X132758Y153915D01*
X132745Y153934D01*
X132732Y153952D01*
X132719Y153970D01*
X132706Y153989D01*
X132694Y154007D01*
X132681Y154026D01*
X132668Y154045D01*
X132655Y154065D01*
X132643Y154084D01*
X132630Y154103D01*
X132617Y154123D01*
X132605Y154142D01*
X132592Y154162D01*
X132580Y154182D01*
X132568Y154202D01*
X132555Y154222D01*
X132543Y154243D01*
X132531Y154263D01*
X132519Y154283D01*
X132507Y154304D01*
X132495Y154325D01*
X132483Y154346D01*
X132471Y154367D01*
X132459Y154388D01*
X132447Y154409D01*
X132435Y154431D01*
X132423Y154452D01*
X132412Y154474D01*
X132400Y154496D01*
X132388Y154518D01*
X132377Y154540D01*
X132365Y154562D01*
X132354Y154584D01*
X132342Y154607D01*
X132331Y154629D01*
X132320Y154652D01*
X132308Y154675D01*
X132297Y154698D01*
X132286Y154721D01*
X132275Y154744D01*
X132264Y154767D01*
X132253Y154790D01*
X132242Y154814D01*
X132231Y154837D01*
X132220Y154861D01*
X132210Y154885D01*
X132199Y154909D01*
X132188Y154933D01*
X132177Y154957D01*
X132167Y154981D01*
X132156Y155005D01*
X132146Y155030D01*
X132135Y155054D01*
X132125Y155079D01*
X132115Y155104D01*
X132104Y155129D01*
X132094Y155154D01*
X132084Y155179D01*
X132074Y155204D01*
X132064Y155229D01*
X132054Y155254D01*
X132044Y155280D01*
X132034Y155306D01*
X132024Y155331D01*
X132014Y155357D01*
X132004Y155383D01*
X131990Y155422D01*
X131975Y155461D01*
X131961Y155501D01*
X131947Y155540D01*
X131933Y155580D01*
X131919Y155620D01*
X131905Y155661D01*
X131891Y155701D01*
X131878Y155742D01*
X131864Y155783D01*
X131851Y155824D01*
X131838Y155865D01*
X131825Y155907D01*
X131811Y155949D01*
X131799Y155991D01*
X131786Y156033D01*
X131773Y156075D01*
X131761Y156117D01*
X131748Y156160D01*
X131736Y156203D01*
X131724Y156246D01*
X131712Y156289D01*
X131700Y156333D01*
X131688Y156376D01*
X131676Y156420D01*
X131665Y156464D01*
X131653Y156508D01*
X131642Y156552D01*
X131631Y156597D01*
X131620Y156641D01*
X131609Y156686D01*
X131595Y156746D01*
X131580Y156806D01*
X131566Y156866D01*
X131553Y156927D01*
X131539Y156988D01*
X131526Y157049D01*
X131513Y157111D01*
X131500Y157172D01*
X131487Y157234D01*
X131475Y157296D01*
X131463Y157359D01*
X131451Y157422D01*
X131436Y157500D01*
X131422Y157579D01*
X131408Y157658D01*
X131394Y157738D01*
X131381Y157818D01*
X131368Y157898D01*
X131353Y157995D01*
X131339Y158092D01*
X131325Y158189D01*
X131311Y158287D01*
X131296Y158401D01*
X131282Y158516D01*
X131266Y158648D01*
X131250Y158797D01*
X131233Y158963D01*
X131215Y159163D01*
X131194Y159432D01*
X131182Y159600D01*
X131164Y159938D01*
X131152Y160276D01*
X131146Y160614D01*
X131147Y160784D01*
X131148Y160986D01*
X131150Y161155D01*
X131154Y161306D01*
X131159Y161441D01*
X131164Y161575D01*
X131170Y161692D01*
X131176Y161809D01*
X131182Y161908D01*
X131189Y162008D01*
X131196Y162107D01*
X131202Y162190D01*
X131209Y162272D01*
X131216Y162354D01*
X131224Y162436D01*
X131232Y162518D01*
X131240Y162599D01*
X131249Y162680D01*
X131256Y162745D01*
X131264Y162810D01*
X131272Y162874D01*
X131280Y162938D01*
X131288Y163002D01*
X131297Y163066D01*
X131306Y163129D01*
X131315Y163193D01*
X131325Y163256D01*
X131334Y163319D01*
X131344Y163382D01*
X131354Y163444D01*
X131365Y163506D01*
X131376Y163569D01*
X131384Y163615D01*
X131392Y163661D01*
X131401Y163707D01*
X131409Y163753D01*
X131418Y163799D01*
X131427Y163845D01*
X131436Y163890D01*
X131446Y163936D01*
X131455Y163981D01*
X131465Y164026D01*
X131474Y164071D01*
X131484Y164116D01*
X131494Y164160D01*
X131504Y164205D01*
X131515Y164249D01*
X131525Y164293D01*
X131536Y164337D01*
X131546Y164381D01*
X131557Y164425D01*
X131568Y164468D01*
X131580Y164511D01*
X131591Y164555D01*
X131603Y164597D01*
X131614Y164640D01*
X131626Y164683D01*
X131638Y164725D01*
X131650Y164767D01*
X131662Y164809D01*
X131675Y164851D01*
X131687Y164893D01*
X131700Y164934D01*
X131713Y164975D01*
X131726Y165016D01*
X131739Y165057D01*
X131753Y165098D01*
X131766Y165138D01*
X131780Y165178D01*
X131794Y165218D01*
X131808Y165258D01*
X131822Y165297D01*
X131836Y165337D01*
X131846Y165363D01*
X131855Y165389D01*
X131865Y165415D01*
X131875Y165440D01*
X131885Y165466D01*
X131895Y165492D01*
X131905Y165517D01*
X131915Y165543D01*
X131925Y165568D01*
X131935Y165593D01*
X131946Y165618D01*
X131956Y165643D01*
X131966Y165668D01*
X131977Y165693D01*
X131988Y165718D01*
X131998Y165742D01*
X132009Y165767D01*
X132020Y165791D01*
X132031Y165815D01*
X132042Y165839D01*
X132053Y165863D01*
X132064Y165887D01*
X132075Y165911D01*
X132086Y165935D01*
X132097Y165958D01*
X132109Y165982D01*
X132120Y166005D01*
X132132Y166028D01*
X132143Y166051D01*
X132155Y166074D01*
X132167Y166097D01*
X132178Y166120D01*
X132190Y166143D01*
X132202Y166165D01*
X132214Y166188D01*
X132226Y166210D01*
X132238Y166232D01*
X132251Y166254D01*
X132263Y166276D01*
X132275Y166298D01*
X132288Y166320D01*
X132300Y166341D01*
X132313Y166363D01*
X132325Y166384D01*
X132338Y166405D01*
X132351Y166426D01*
X132364Y166447D01*
X132377Y166468D01*
X132390Y166489D01*
X132403Y166509D01*
X132416Y166530D01*
X132429Y166550D01*
X132442Y166570D01*
X132456Y166590D01*
X132469Y166610D01*
X132483Y166630D01*
X132496Y166649D01*
X132510Y166669D01*
X132524Y166688D01*
X132537Y166708D01*
X132551Y166727D01*
X132565Y166746D01*
X132579Y166764D01*
X132593Y166783D01*
X132607Y166802D01*
X132622Y166820D01*
X132636Y166838D01*
X132650Y166857D01*
X132665Y166875D01*
X132679Y166892D01*
X132694Y166910D01*
X132708Y166928D01*
X132723Y166945D01*
X132738Y166963D01*
X132753Y166980D01*
X132768Y166997D01*
X132783Y167014D01*
X132798Y167030D01*
X132813Y167047D01*
X132828Y167063D01*
X132844Y167080D01*
X132859Y167096D01*
X132875Y167112D01*
X132890Y167128D01*
X132906Y167143D01*
X132921Y167159D01*
X132937Y167174D01*
X132953Y167190D01*
X132969Y167205D01*
X132993Y167227D01*
X133017Y167249D01*
X133041Y167271D01*
X133049Y167278D01*
X133072Y167293D01*
X133087Y167304D01*
X133103Y167314D01*
X133118Y167324D01*
X133134Y167334D01*
X133149Y167345D01*
X133165Y167355D01*
X133181Y167365D01*
X133197Y167376D01*
X133213Y167386D01*
X133230Y167396D01*
X133246Y167406D01*
X133263Y167417D01*
X133280Y167427D01*
X133296Y167437D01*
X133313Y167447D01*
X133330Y167458D01*
X133348Y167468D01*
X133365Y167478D01*
X133382Y167488D01*
X133400Y167498D01*
X133417Y167509D01*
X133435Y167519D01*
X133453Y167529D01*
X133471Y167539D01*
X133489Y167549D01*
X133508Y167559D01*
X133526Y167569D01*
X133544Y167579D01*
X133563Y167589D01*
X133582Y167600D01*
X133600Y167610D01*
X133619Y167620D01*
X133638Y167630D01*
X133658Y167640D01*
X133677Y167650D01*
X133696Y167660D01*
X133715Y167670D01*
X133735Y167680D01*
X133755Y167690D01*
X133774Y167699D01*
X133794Y167709D01*
X133814Y167719D01*
X133834Y167729D01*
X133855Y167739D01*
X133875Y167749D01*
X133895Y167759D01*
X133916Y167768D01*
X133936Y167778D01*
X133957Y167788D01*
X133978Y167798D01*
X133999Y167807D01*
X134020Y167817D01*
X134041Y167827D01*
X134062Y167836D01*
X134083Y167846D01*
X134115Y167861D01*
X134148Y167875D01*
X134180Y167889D01*
X134213Y167904D01*
X134246Y167918D01*
X134279Y167932D01*
X134312Y167946D01*
X134346Y167960D01*
X134379Y167974D01*
X134413Y167988D01*
X134447Y168002D01*
X134482Y168016D01*
X134516Y168030D01*
X134551Y168044D01*
X134585Y168058D01*
X134620Y168071D01*
X134656Y168085D01*
X134691Y168098D01*
X134739Y168116D01*
X134786Y168134D01*
X134834Y168152D01*
X134883Y168169D01*
X134931Y168187D01*
X134980Y168204D01*
X135029Y168221D01*
X135079Y168238D01*
X135141Y168260D01*
X135204Y168281D01*
X135267Y168301D01*
X135330Y168322D01*
X135407Y168346D01*
X135484Y168370D01*
X135575Y168398D01*
X135679Y168429D01*
X135798Y168463D01*
X135944Y168504D01*
X136159Y168561D01*
X136261Y168587D01*
X136468Y168637D01*
X136675Y168684D01*
X136882Y168728D01*
X136986Y168748D01*
X136986Y168748D01*
X137155Y168780D01*
X137295Y168805D01*
X137408Y168824D01*
X137522Y168842D01*
X137621Y168858D01*
X137706Y168870D01*
X137791Y168882D01*
X137876Y168894D01*
X137961Y168904D01*
X138032Y168913D01*
X138103Y168921D01*
X138174Y168929D01*
X138245Y168936D01*
X138316Y168943D01*
X138387Y168950D01*
X138444Y168955D01*
X138500Y168960D01*
X138557Y168964D01*
X138613Y168968D01*
X138670Y168972D01*
X138726Y168976D01*
X138782Y168979D01*
X138839Y168982D01*
X138895Y168985D01*
X138951Y168988D01*
X139007Y168990D01*
X139063Y168992D01*
X139118Y168993D01*
X139160Y168994D01*
X139202Y168995D01*
X139243Y168996D01*
X139285Y168996D01*
X139327Y168997D01*
X139368Y168997D01*
X139409Y168997D01*
X139451Y168997D01*
D02*
G37*
G36*
X128475Y169096D02*
X128493Y169096D01*
X128510Y169096D01*
X128528Y169095D01*
X128546Y169095D01*
X128563Y169094D01*
X128581Y169093D01*
X128598Y169093D01*
X128615Y169092D01*
X128632Y169091D01*
X128649Y169089D01*
X128666Y169088D01*
X128683Y169087D01*
X128700Y169086D01*
X128717Y169084D01*
X128733Y169082D01*
X128750Y169081D01*
X128766Y169079D01*
X128782Y169077D01*
X128799Y169075D01*
X128815Y169073D01*
X128831Y169071D01*
X128847Y169069D01*
X128863Y169066D01*
X128878Y169064D01*
X128894Y169061D01*
X128910Y169059D01*
X128925Y169056D01*
X128940Y169053D01*
X128956Y169050D01*
X128971Y169047D01*
X128986Y169044D01*
X129001Y169041D01*
X129016Y169038D01*
X129038Y169032D01*
X129060Y169027D01*
X129082Y169022D01*
X129104Y169016D01*
X129125Y169010D01*
X129147Y169004D01*
X129167Y168998D01*
X129188Y168991D01*
X129209Y168984D01*
X129229Y168977D01*
X129250Y168970D01*
X129270Y168963D01*
X129290Y168955D01*
X129309Y168948D01*
X129329Y168940D01*
X129348Y168932D01*
X129374Y168921D01*
X129399Y168909D01*
X129423Y168898D01*
X129448Y168886D01*
X129525Y168840D01*
X129696Y168708D01*
X129783Y168638D01*
X129950Y168478D01*
X130069Y168300D01*
X130096Y168257D01*
X130100Y168250D01*
X130242Y167996D01*
X130249Y167978D01*
X130256Y167959D01*
X130263Y167940D01*
X130270Y167921D01*
X130277Y167902D01*
X130284Y167883D01*
X130290Y167864D01*
X130297Y167844D01*
X130303Y167825D01*
X130309Y167805D01*
X130315Y167786D01*
X130321Y167766D01*
X130326Y167746D01*
X130332Y167726D01*
X130337Y167706D01*
X130343Y167686D01*
X130348Y167665D01*
X130353Y167645D01*
X130358Y167624D01*
X130362Y167604D01*
X130367Y167583D01*
X130371Y167562D01*
X130375Y167542D01*
X130379Y167521D01*
X130383Y167500D01*
X130387Y167479D01*
X130391Y167457D01*
X130394Y167436D01*
X130398Y167414D01*
X130401Y167393D01*
X130404Y167371D01*
X130407Y167350D01*
X130410Y167328D01*
X130413Y167306D01*
X130416Y167284D01*
X130418Y167262D01*
X130420Y167240D01*
X130423Y167218D01*
X130425Y167196D01*
X130427Y167174D01*
X130429Y167151D01*
X130430Y167129D01*
X130432Y167106D01*
X130433Y167084D01*
X130435Y167061D01*
X130436Y167039D01*
X130437Y167016D01*
X130438Y166993D01*
X130439Y166970D01*
X130439Y166947D01*
X130440Y166924D01*
X130440Y166901D01*
X130441Y166878D01*
X130441Y166855D01*
X130441Y166832D01*
X130441Y166808D01*
X130441Y166785D01*
X130440Y166761D01*
X130440Y166738D01*
X130440Y166714D01*
X130439Y166691D01*
X130438Y166667D01*
X130437Y166644D01*
X130436Y166620D01*
X130435Y166596D01*
X130434Y166572D01*
X130433Y166548D01*
X130431Y166524D01*
X130430Y166500D01*
X130428Y166476D01*
X130426Y166452D01*
X130424Y166428D01*
X130423Y166404D01*
X130420Y166380D01*
X130418Y166356D01*
X130416Y166332D01*
X130413Y166299D01*
X130409Y166267D01*
X130406Y166234D01*
X130402Y166202D01*
X130398Y166169D01*
X130394Y166136D01*
X130389Y166104D01*
X130385Y166071D01*
X130380Y166038D01*
X130375Y166005D01*
X130370Y165973D01*
X130365Y165940D01*
X130359Y165907D01*
X130354Y165874D01*
X130348Y165841D01*
X130342Y165808D01*
X130334Y165767D01*
X130326Y165725D01*
X130318Y165684D01*
X130309Y165643D01*
X130301Y165601D01*
X130292Y165560D01*
X130282Y165519D01*
X130271Y165469D01*
X130259Y165419D01*
X130247Y165370D01*
X130235Y165320D01*
X130220Y165262D01*
X130204Y165205D01*
X130186Y165139D01*
X130165Y165065D01*
X130141Y164983D01*
X130113Y164893D01*
X130074Y164771D01*
X130048Y164692D01*
X130017Y164603D01*
X129840Y164146D01*
X129839Y164146D01*
X129839D01*
X129639Y163708D01*
X129635Y163698D01*
X129617Y163662D01*
X129599Y163626D01*
X129580Y163591D01*
X129562Y163556D01*
X129547Y163528D01*
X129533Y163500D01*
X129499Y163437D01*
X129472Y163388D01*
X129446Y163338D01*
X129419Y163290D01*
X129393Y163242D01*
X129367Y163195D01*
X129341Y163148D01*
X129315Y163101D01*
X129289Y163056D01*
X129263Y163011D01*
X129237Y162966D01*
X129212Y162922D01*
X129186Y162878D01*
X129161Y162834D01*
X129136Y162792D01*
X129111Y162749D01*
X129080Y162697D01*
X129049Y162646D01*
X129018Y162595D01*
X128987Y162545D01*
X128957Y162496D01*
X128920Y162438D01*
X128884Y162381D01*
X128849Y162325D01*
X128807Y162260D01*
X128761Y162188D01*
X128703Y162101D01*
X128584Y161925D01*
X128463Y161751D01*
X128420Y161691D01*
X128388Y161646D01*
X128361Y161610D01*
X128335Y161574D01*
X128314Y161545D01*
X128294Y161517D01*
X128278Y161496D01*
X128263Y161476D01*
X128247Y161455D01*
X128232Y161434D01*
X128217Y161414D01*
X128197Y161388D01*
X128177Y161361D01*
X128167Y161348D01*
X128157Y161335D01*
X128147Y161322D01*
X128137Y161309D01*
X128128Y161296D01*
X128118Y161283D01*
X128108Y161271D01*
X128098Y161258D01*
X128089Y161245D01*
X128079Y161233D01*
X128069Y161220D01*
X128050Y161196D01*
X128031Y161171D01*
X128008Y161141D01*
X127989Y161117D01*
X127975Y161099D01*
X127961Y161081D01*
X127943Y161058D01*
X127920Y161029D01*
X127897Y161000D01*
X127870Y160966D01*
X127866Y160960D01*
X127861Y160955D01*
X127853Y160943D01*
X127792Y160866D01*
X127787Y160861D01*
X127775Y160845D01*
X127766Y160834D01*
X127762Y160828D01*
X127745Y160807D01*
X127736Y160797D01*
X127724Y160781D01*
X127707Y160760D01*
X127695Y160744D01*
X127687Y160734D01*
X127658Y160697D01*
X127642Y160677D01*
X127630Y160662D01*
X127615Y160642D01*
X127595Y160616D01*
X127583Y160601D01*
X127564Y160576D01*
X127557Y160567D01*
X127545Y160552D01*
X127534Y160537D01*
X127519Y160517D01*
X127508Y160503D01*
X127497Y160488D01*
X127486Y160474D01*
X127475Y160459D01*
X127471Y160454D01*
X127464Y160445D01*
X127453Y160430D01*
X127443Y160416D01*
X127436Y160406D01*
X127429Y160397D01*
X127422Y160387D01*
X127411Y160373D01*
X127404Y160363D01*
X127397Y160354D01*
X127391Y160344D01*
X127384Y160335D01*
X127377Y160325D01*
X127370Y160316D01*
X127364Y160306D01*
X127354Y160292D01*
X127347Y160283D01*
X127340Y160273D01*
X127334Y160264D01*
X127327Y160254D01*
X127324Y160249D01*
X127318Y160240D01*
X127311Y160231D01*
X127305Y160221D01*
X127299Y160212D01*
X127292Y160202D01*
X127286Y160193D01*
X127280Y160183D01*
X127274Y160174D01*
X127268Y160164D01*
X127261Y160155D01*
X127255Y160146D01*
X127249Y160136D01*
X127243Y160127D01*
X127237Y160117D01*
X127231Y160108D01*
X127225Y160098D01*
X127219Y160089D01*
X127214Y160079D01*
X127208Y160070D01*
X127202Y160060D01*
X127202Y160060D01*
X127196Y160051D01*
X127196Y160051D01*
X127191Y160041D01*
X127191Y160041D01*
X127185Y160032D01*
X127185Y160032D01*
X127179Y160022D01*
X127179Y160022D01*
X127174Y160013D01*
X127174Y160013D01*
X127168Y160003D01*
X127168Y160003D01*
X127163Y159994D01*
X127163Y159994D01*
X127157Y159984D01*
X127157Y159984D01*
X127152Y159974D01*
X127152Y159974D01*
X127144Y159960D01*
X127144Y159960D01*
X127136Y159945D01*
X127136Y159945D01*
X127128Y159931D01*
X127128Y159931D01*
X127120Y159916D01*
X127120Y159916D01*
X127112Y159902D01*
X127112Y159902D01*
X127104Y159887D01*
X127104Y159887D01*
X127097Y159873D01*
X127097Y159872D01*
X127087Y159853D01*
X127087Y159853D01*
X127077Y159833D01*
X127077Y159833D01*
X127067Y159813D01*
X127067Y159813D01*
X127056Y159788D01*
X127055Y159788D01*
X127041Y159758D01*
X127041Y159758D01*
X127026Y159723D01*
X127025Y159722D01*
X127022Y159715D01*
X127022Y159713D01*
X127015Y159698D01*
X127014Y159696D01*
X127008Y159681D01*
X127006Y159678D01*
X127001Y159664D01*
X126999Y159660D01*
X126997Y159656D01*
X126991Y159640D01*
X126978Y159608D01*
X126966Y159576D01*
X126955Y159544D01*
X126949Y159528D01*
X126936Y159490D01*
X126926Y159458D01*
X126925Y159457D01*
X126917Y159429D01*
X126917Y159429D01*
X126908Y159401D01*
X126908Y159400D01*
X126902Y159378D01*
X126901Y159377D01*
X126895Y159354D01*
X126895Y159354D01*
X126889Y159331D01*
X126889Y159331D01*
X126884Y159313D01*
X126884Y159313D01*
X126880Y159296D01*
X126880Y159295D01*
X126875Y159278D01*
X126875Y159278D01*
X126871Y159260D01*
X126871Y159260D01*
X126866Y159242D01*
X126866Y159241D01*
X126862Y159223D01*
X126862Y159223D01*
X126858Y159205D01*
X126858Y159205D01*
X126854Y159186D01*
X126854Y159186D01*
X126850Y159168D01*
X126850Y159168D01*
X126846Y159149D01*
X126846Y159149D01*
X126843Y159130D01*
X126843Y159130D01*
X126839Y159111D01*
X126839Y159111D01*
X126837Y159098D01*
X126837Y159098D01*
X126834Y159085D01*
X126834Y159085D01*
X126832Y159072D01*
X126830Y159059D01*
X126827Y159046D01*
X126825Y159033D01*
X126823Y159020D01*
X126821Y159006D01*
X126819Y158993D01*
X126817Y158979D01*
X126815Y158966D01*
X126813Y158952D01*
X126811Y158939D01*
X126809Y158925D01*
X126807Y158911D01*
X126805Y158897D01*
X126804Y158884D01*
X126802Y158870D01*
X126800Y158855D01*
X126798Y158841D01*
X126797Y158827D01*
X126795Y158813D01*
X126794Y158798D01*
X126792Y158784D01*
X126791Y158769D01*
X126789Y158755D01*
X126788Y158740D01*
X126787Y158725D01*
X126785Y158710D01*
X126784Y158695D01*
X126783Y158680D01*
X126782Y158665D01*
X126782Y158665D01*
X126780Y158650D01*
X126780Y158650D01*
X126779Y158634D01*
X126779Y158634D01*
X126778Y158619D01*
X126778Y158619D01*
X126777Y158604D01*
X126777Y158603D01*
X126776Y158588D01*
X126776Y158588D01*
X126776Y158572D01*
X126776Y158572D01*
X126775Y158557D01*
X126775Y158556D01*
X126774Y158541D01*
X126774Y158540D01*
X126773Y158525D01*
X126773Y158525D01*
X126772Y158509D01*
X126772Y158508D01*
X126771Y158493D01*
X126771Y158492D01*
X126771Y158476D01*
X126771Y158476D01*
X126770Y158460D01*
X126770Y158460D01*
X126769Y158444D01*
X126769Y158443D01*
X126769Y158427D01*
X126769Y158427D01*
X126768Y158411D01*
X126768Y158410D01*
X126768Y158394D01*
X126768Y158393D01*
X126767Y158377D01*
X126767Y158377D01*
X126767Y158361D01*
X126767Y158360D01*
X126767Y158344D01*
X126767Y158343D01*
X126766Y158326D01*
X126766Y158325D01*
X126766Y158309D01*
X126766Y158308D01*
X126766Y158292D01*
X126766Y158291D01*
X126766Y158275D01*
X126766Y158273D01*
X126765Y158257D01*
X126765Y158255D01*
X126765Y158240D01*
X126765Y158237D01*
X126765Y158222D01*
Y158218D01*
X126765Y158204D01*
X126765Y158195D01*
X126765Y158193D01*
X126765Y158189D01*
X126765Y158186D01*
X126765Y158168D01*
X126765Y158156D01*
X126765Y158150D01*
X126765Y158135D01*
X126766Y158132D01*
X126766Y158116D01*
X126766Y158114D01*
X126766Y158098D01*
X126766Y158096D01*
X126766Y158079D01*
X126766Y158077D01*
X126766Y158060D01*
X126766Y158059D01*
X126767Y158041D01*
X126767Y158040D01*
X126767Y158022D01*
X126767Y158021D01*
X126768Y158003D01*
X126768Y158002D01*
X126768Y157984D01*
X126768Y157983D01*
X126768Y157965D01*
X126768Y157964D01*
X126769Y157945D01*
X126769Y157945D01*
X126769Y157926D01*
X126770Y157925D01*
X126770Y157906D01*
X126770Y157906D01*
X126771Y157887D01*
X126771Y157886D01*
X126771Y157867D01*
X126771Y157867D01*
X126772Y157847D01*
X126772Y157847D01*
X126773Y157827D01*
X126773Y157827D01*
X126774Y157807D01*
X126774Y157807D01*
X126775Y157787D01*
X126775Y157787D01*
X126776Y157767D01*
X126776Y157766D01*
X126777Y157746D01*
X126777Y157746D01*
X126778Y157726D01*
X126778Y157725D01*
X126779Y157705D01*
X126779Y157705D01*
X126780Y157684D01*
X126781Y157663D01*
X126782Y157642D01*
X126783Y157621D01*
X126785Y157600D01*
X126786Y157578D01*
X126787Y157557D01*
X126788Y157535D01*
X126790Y157514D01*
X126791Y157492D01*
X126793Y157470D01*
X126794Y157448D01*
X126796Y157425D01*
X126798Y157403D01*
X126799Y157380D01*
X126801Y157358D01*
X126803Y157335D01*
X126804Y157312D01*
X126806Y157289D01*
X126808Y157266D01*
X126810Y157243D01*
X126812Y157220D01*
X126814Y157196D01*
X126816Y157172D01*
X126818Y157149D01*
X126820Y157125D01*
X126823Y157100D01*
X126825Y157076D01*
X126827Y157052D01*
X126829Y157027D01*
X126832Y157003D01*
X126834Y156978D01*
X126837Y156953D01*
X126839Y156928D01*
X126842Y156903D01*
X126844Y156878D01*
X126847Y156852D01*
X126849Y156827D01*
X126852Y156801D01*
X126855Y156775D01*
X126858Y156749D01*
X126860Y156723D01*
X126863Y156696D01*
X126866Y156670D01*
X126869Y156643D01*
X126872Y156617D01*
X126875Y156590D01*
X126878Y156563D01*
X126881Y156535D01*
X126885Y156508D01*
X126888Y156481D01*
X126891Y156453D01*
X126894Y156425D01*
X126898Y156397D01*
X126901Y156369D01*
X126904Y156341D01*
X126908Y156312D01*
X126911Y156284D01*
X126915Y156255D01*
X126919Y156226D01*
X126922Y156197D01*
X126926Y156168D01*
X126930Y156139D01*
X126934Y156109D01*
X126937Y156079D01*
X126941Y156050D01*
X126945Y156020D01*
X126949Y155989D01*
X126953Y155959D01*
X126957Y155929D01*
X126961Y155898D01*
X126965Y155867D01*
X126970Y155836D01*
X126974Y155805D01*
X126978Y155774D01*
X126982Y155742D01*
X126987Y155711D01*
X126991Y155679D01*
X126996Y155647D01*
X127000Y155615D01*
X127005Y155582D01*
X127009Y155550D01*
X127014Y155517D01*
X127018Y155484D01*
X127023Y155451D01*
X127028Y155418D01*
X127030Y155402D01*
X127020Y155347D01*
X127013Y155311D01*
X127006Y155275D01*
X126999Y155239D01*
X126992Y155203D01*
X126984Y155168D01*
X126977Y155133D01*
X126970Y155099D01*
X126962Y155064D01*
X126954Y155030D01*
X126947Y154996D01*
X126939Y154962D01*
X126931Y154928D01*
X126923Y154895D01*
X126915Y154862D01*
X126907Y154829D01*
X126898Y154797D01*
X126890Y154764D01*
X126882Y154732D01*
X126873Y154700D01*
X126865Y154668D01*
X126856Y154637D01*
X126847Y154606D01*
X126838Y154575D01*
X126830Y154544D01*
X126821Y154514D01*
X126812Y154483D01*
X126802Y154453D01*
X126793Y154423D01*
X126784Y154394D01*
X126775Y154364D01*
X126765Y154335D01*
X126756Y154306D01*
X126746Y154278D01*
X126736Y154249D01*
X126727Y154221D01*
X126717Y154193D01*
X126707Y154165D01*
X126697Y154138D01*
X126687Y154110D01*
X126677Y154083D01*
X126667Y154056D01*
X126656Y154030D01*
X126646Y154003D01*
X126636Y153977D01*
X126625Y153951D01*
X126615Y153925D01*
X126604Y153900D01*
X126594Y153874D01*
X126583Y153849D01*
X126572Y153824D01*
X126561Y153800D01*
X126550Y153775D01*
X126539Y153751D01*
X126528Y153727D01*
X126517Y153703D01*
X126506Y153680D01*
X126495Y153656D01*
X126484Y153633D01*
X126472Y153610D01*
X126461Y153587D01*
X126449Y153565D01*
X126438Y153542D01*
X126426Y153520D01*
X126414Y153498D01*
X126403Y153477D01*
X126391Y153455D01*
X126379Y153434D01*
X126367Y153413D01*
X126355Y153392D01*
X126343Y153372D01*
X126331Y153351D01*
X126319Y153331D01*
X126307Y153311D01*
X126295Y153291D01*
X126282Y153272D01*
X126270Y153252D01*
X126257Y153233D01*
X126245Y153215D01*
X126232Y153196D01*
X126220Y153177D01*
X126207Y153159D01*
X126195Y153141D01*
X126182Y153123D01*
X126169Y153105D01*
X126156Y153088D01*
X126143Y153070D01*
X126130Y153053D01*
X126117Y153036D01*
X126104Y153020D01*
X126091Y153003D01*
X126078Y152987D01*
X126065Y152971D01*
X126052Y152955D01*
X126039Y152939D01*
X126025Y152924D01*
X126012Y152909D01*
X125998Y152893D01*
X125985Y152878D01*
X125971Y152864D01*
X125958Y152849D01*
X125944Y152835D01*
X125931Y152821D01*
X125917Y152807D01*
X125903Y152793D01*
X125890Y152780D01*
X125876Y152767D01*
X125862Y152753D01*
X125848Y152740D01*
X125834Y152728D01*
X125820Y152715D01*
X125806Y152703D01*
X125792Y152691D01*
X125790Y152689D01*
X125578Y152550D01*
X125526Y152518D01*
X125391Y152444D01*
X125260Y152392D01*
X125094Y152344D01*
X125086Y152342D01*
X124999Y152326D01*
X124947Y152319D01*
X124873Y152311D01*
X124867Y152310D01*
X124726Y152306D01*
X124618Y152306D01*
X124453Y152335D01*
X124377Y152350D01*
X124305Y152369D01*
X124079Y152436D01*
X124060Y152444D01*
X124037Y152454D01*
X124014Y152464D01*
X123992Y152475D01*
X123969Y152487D01*
X123946Y152498D01*
X123923Y152510D01*
X123900Y152522D01*
X123878Y152534D01*
X123855Y152547D01*
X123832Y152560D01*
X123810Y152574D01*
X123787Y152587D01*
X123765Y152601D01*
X123742Y152616D01*
X123720Y152630D01*
X123698Y152645D01*
X123676Y152660D01*
X123653Y152675D01*
X123631Y152691D01*
X123609Y152707D01*
X123587Y152723D01*
X123565Y152740D01*
X123544Y152757D01*
X123522Y152774D01*
X123500Y152791D01*
X123479Y152809D01*
X123457Y152827D01*
X123436Y152845D01*
X123414Y152863D01*
X123393Y152882D01*
X123372Y152901D01*
X123351Y152920D01*
X123329Y152940D01*
X123309Y152960D01*
X123288Y152980D01*
X123267Y153000D01*
X123246Y153021D01*
X123225Y153042D01*
X123205Y153063D01*
X123185Y153084D01*
X123164Y153106D01*
X123144Y153127D01*
X123124Y153149D01*
X123104Y153172D01*
X123084Y153194D01*
X123064Y153217D01*
X123044Y153240D01*
X123025Y153264D01*
X123005Y153287D01*
X122986Y153311D01*
X122960Y153343D01*
X122935Y153376D01*
X122909Y153409D01*
X122885Y153442D01*
X122860Y153476D01*
X122835Y153510D01*
X122811Y153545D01*
X122786Y153579D01*
X122763Y153615D01*
X122739Y153651D01*
X122715Y153687D01*
X122692Y153723D01*
X122669Y153760D01*
X122641Y153807D01*
X122613Y153854D01*
X122585Y153902D01*
X122558Y153950D01*
X122531Y153999D01*
X122505Y154049D01*
X122474Y154109D01*
X122444Y154170D01*
X122414Y154231D01*
X122385Y154294D01*
X122352Y154367D01*
X122320Y154442D01*
X122315Y154453D01*
X122306Y154474D01*
X122297Y154496D01*
X122288Y154517D01*
X122284Y154528D01*
X122250Y154616D01*
X122245Y154629D01*
X122236Y154654D01*
X122226Y154679D01*
X122217Y154704D01*
X122208Y154730D01*
X122198Y154759D01*
X122188Y154787D01*
X122178Y154815D01*
X122168Y154845D01*
X122158Y154876D01*
X122148Y154908D01*
X122138Y154940D01*
X122128Y154973D01*
X122117Y155008D01*
X122115Y155016D01*
X122001Y155468D01*
X122001Y155468D01*
X121923Y155936D01*
X121915Y156004D01*
X121904Y156110D01*
X121899Y156163D01*
X121891Y156259D01*
X121881Y156451D01*
X121877Y156644D01*
X121879Y156837D01*
X121883Y156933D01*
X121883Y156933D01*
X121887Y157023D01*
X121900Y157202D01*
X121919Y157380D01*
X121943Y157558D01*
X121958Y157647D01*
X121964Y157684D01*
X121977Y157757D01*
X121991Y157830D01*
X122005Y157903D01*
X122013Y157940D01*
X122016Y157963D01*
X122018Y157982D01*
X122019Y158001D01*
X122021Y158019D01*
X122022Y158038D01*
X122024Y158056D01*
X122025Y158074D01*
X122026Y158092D01*
X122027Y158111D01*
X122028Y158129D01*
X122029Y158147D01*
X122030Y158164D01*
X122030Y158182D01*
X122031Y158200D01*
X122031Y158217D01*
X122031Y158235D01*
X122032Y158252D01*
X122032Y158270D01*
X122032Y158287D01*
X122032Y158304D01*
X122031Y158321D01*
X122031Y158338D01*
X122031Y158355D01*
X122030Y158372D01*
X122029Y158388D01*
X122029Y158409D01*
X122028Y158430D01*
X122027Y158443D01*
X122026Y158450D01*
X122026Y158450D01*
X122025Y158471D01*
X122025Y158471D01*
X122023Y158491D01*
X122023Y158491D01*
X122022Y158511D01*
X122022Y158511D01*
X122020Y158531D01*
X122020Y158531D01*
X122018Y158551D01*
X122018Y158551D01*
X122016Y158571D01*
X122016Y158571D01*
X122013Y158595D01*
X122013Y158595D01*
X122010Y158618D01*
X122010Y158618D01*
X122007Y158641D01*
X122007Y158642D01*
X122004Y158665D01*
X122004Y158665D01*
X122000Y158687D01*
X122000Y158688D01*
X121996Y158714D01*
X121995Y158714D01*
X121991Y158740D01*
X121991Y158741D01*
X121985Y158770D01*
X121985Y158771D01*
X121979Y158800D01*
X121979Y158800D01*
X121972Y158833D01*
X121971Y158834D01*
X121963Y158869D01*
X121963Y158870D01*
X121962Y158874D01*
X121961Y158875D01*
X121959Y158885D01*
X121958Y158887D01*
X121956Y158895D01*
X121955Y158899D01*
X121953Y158906D01*
X121953Y158906D01*
X121952Y158912D01*
X121950Y158918D01*
X121947Y158932D01*
X121943Y158945D01*
X121939Y158958D01*
X121937Y158964D01*
X121934Y158976D01*
X121927Y158998D01*
X121920Y159020D01*
X121912Y159043D01*
X121908Y159053D01*
X121900Y159075D01*
X121885Y159119D01*
X121868Y159161D01*
X121850Y159204D01*
X121841Y159225D01*
X121840Y159225D01*
X121838Y159231D01*
X121832Y159243D01*
X121827Y159255D01*
X121821Y159267D01*
X121818Y159273D01*
X121818Y159273D01*
X121816Y159277D01*
X121811Y159287D01*
X121807Y159296D01*
X121804Y159302D01*
X121800Y159310D01*
X121784Y159341D01*
X121770Y159368D01*
X121769Y159369D01*
X121756Y159393D01*
X121756Y159393D01*
X121743Y159417D01*
X121742Y159417D01*
X121730Y159438D01*
X121730Y159439D01*
X121718Y159459D01*
X121718Y159459D01*
X121707Y159477D01*
X121707Y159477D01*
X121696Y159495D01*
X121696Y159495D01*
X121685Y159512D01*
X121685Y159512D01*
X121674Y159530D01*
X121674Y159530D01*
X121665Y159544D01*
X121664Y159545D01*
X121655Y159559D01*
X121655Y159559D01*
X121645Y159573D01*
X121645Y159573D01*
X121635Y159588D01*
X121635Y159588D01*
X121625Y159602D01*
X121625Y159602D01*
X121616Y159616D01*
X121615Y159616D01*
X121605Y159630D01*
X121605Y159630D01*
X121595Y159644D01*
X121595Y159644D01*
X121587Y159655D01*
X121587Y159655D01*
X121579Y159667D01*
X121579Y159667D01*
X121570Y159678D01*
X121570Y159678D01*
X121562Y159689D01*
X121562Y159689D01*
X121553Y159700D01*
X121553Y159700D01*
X121550Y159705D01*
X121545Y159711D01*
X121536Y159722D01*
X121528Y159733D01*
X121519Y159744D01*
X121510Y159755D01*
X121501Y159766D01*
X121492Y159777D01*
X121483Y159788D01*
X121474Y159798D01*
X121465Y159809D01*
X121456Y159820D01*
X121449Y159828D01*
X121442Y159836D01*
X121435Y159844D01*
X121428Y159852D01*
X121421Y159860D01*
X121414Y159868D01*
X121407Y159876D01*
X121400Y159884D01*
X121393Y159892D01*
X121386Y159900D01*
X121378Y159907D01*
X121371Y159915D01*
X121364Y159923D01*
X121357Y159931D01*
X121349Y159939D01*
X121342Y159947D01*
X121335Y159955D01*
X121327Y159962D01*
X121320Y159970D01*
X121312Y159978D01*
X121305Y159986D01*
X121297Y159993D01*
X121290Y160001D01*
X121282Y160009D01*
X121274Y160017D01*
X121267Y160024D01*
X121259Y160032D01*
X121251Y160040D01*
X121244Y160047D01*
X121236Y160055D01*
X121228Y160063D01*
X121220Y160070D01*
X121212Y160078D01*
X121204Y160086D01*
X121197Y160093D01*
X121189Y160101D01*
X121181Y160108D01*
X121173Y160116D01*
X121165Y160124D01*
X121157Y160131D01*
X121146Y160141D01*
X121141Y160146D01*
X121130Y160157D01*
X121119Y160167D01*
X121113Y160172D01*
X121102Y160182D01*
X121091Y160192D01*
X121081Y160202D01*
X121064Y160217D01*
X121053Y160227D01*
X121042Y160237D01*
X121025Y160252D01*
X121019Y160257D01*
X121008Y160267D01*
X120997Y160277D01*
X120985Y160287D01*
X120974Y160296D01*
X120968Y160301D01*
X120951Y160316D01*
X120934Y160331D01*
X120922Y160341D01*
X120905Y160356D01*
X120887Y160371D01*
X120869Y160386D01*
X120864Y160391D01*
X120846Y160406D01*
X120834Y160416D01*
X120816Y160431D01*
X120804Y160441D01*
X120792Y160450D01*
X120768Y160470D01*
X120753Y160483D01*
X120741Y160493D01*
X120735Y160498D01*
X120732Y160500D01*
X120717Y160513D01*
X120707Y160520D01*
X120698Y160528D01*
X120677Y160545D01*
X120674Y160547D01*
X120671Y160550D01*
X120652Y160565D01*
X120649Y160567D01*
X120627Y160585D01*
X120621Y160590D01*
X120618Y160592D01*
X120606Y160602D01*
X120578Y160625D01*
X120571Y160630D01*
X120568Y160633D01*
X120565Y160635D01*
X120562Y160638D01*
X120559Y160640D01*
X120549Y160648D01*
X120534Y160660D01*
X120530Y160663D01*
X120512Y160678D01*
X120477Y160706D01*
X120467Y160714D01*
X120461Y160719D01*
X120451Y160726D01*
X120442Y160734D01*
X120429Y160744D01*
X120400Y160767D01*
X120397Y160770D01*
X120394Y160772D01*
X120381Y160783D01*
X120374Y160788D01*
X120371Y160790D01*
X120352Y160806D01*
X120349Y160808D01*
X120345Y160811D01*
X120319Y160832D01*
X120316Y160834D01*
X120303Y160845D01*
X120300Y160847D01*
X120293Y160852D01*
X120287Y160858D01*
X120267Y160873D01*
X120245Y160892D01*
X120238Y160897D01*
X120235Y160899D01*
X120212Y160918D01*
X120209Y160921D01*
X120195Y160931D01*
X120192Y160934D01*
X120185Y160939D01*
X120182Y160942D01*
X120169Y160952D01*
X120153Y160966D01*
X120143Y160974D01*
X120139Y160977D01*
X120126Y160987D01*
X120100Y161009D01*
X120082Y161023D01*
X120070Y161033D01*
X120058Y161042D01*
X120046Y161052D01*
X120034Y161062D01*
X120022Y161072D01*
X120010Y161082D01*
X119999Y161093D01*
X119987Y161103D01*
X119975Y161113D01*
X119963Y161124D01*
X119951Y161134D01*
X119939Y161145D01*
X119927Y161156D01*
X119915Y161166D01*
X119903Y161177D01*
X119891Y161188D01*
X119879Y161199D01*
X119868Y161210D01*
X119856Y161222D01*
X119844Y161233D01*
X119832Y161244D01*
X119820Y161256D01*
X119808Y161267D01*
X119796Y161279D01*
X119784Y161291D01*
X119772Y161302D01*
X119761Y161314D01*
X119749Y161326D01*
X119737Y161338D01*
X119725Y161350D01*
X119713Y161362D01*
X119701Y161375D01*
X119689Y161387D01*
X119677Y161399D01*
X119666Y161412D01*
X119654Y161425D01*
X119642Y161437D01*
X119630Y161450D01*
X119618Y161463D01*
X119606Y161476D01*
X119594Y161488D01*
X119583Y161501D01*
X119571Y161514D01*
X119553Y161534D01*
X119535Y161554D01*
X119518Y161574D01*
X119500Y161594D01*
X119483Y161615D01*
X119465Y161635D01*
X119447Y161656D01*
X119430Y161677D01*
X119412Y161698D01*
X119395Y161719D01*
X119377Y161741D01*
X119360Y161762D01*
X119342Y161784D01*
X119325Y161805D01*
X119307Y161827D01*
X119290Y161849D01*
X119273Y161872D01*
X119255Y161894D01*
X119238Y161916D01*
X119221Y161939D01*
X119204Y161962D01*
X119186Y161985D01*
X119169Y162008D01*
X119152Y162031D01*
X119135Y162054D01*
X119112Y162086D01*
X119090Y162117D01*
X119067Y162149D01*
X119045Y162181D01*
X119022Y162213D01*
X119000Y162245D01*
X118978Y162278D01*
X118955Y162311D01*
X118933Y162344D01*
X118911Y162377D01*
X118884Y162419D01*
X118856Y162461D01*
X118829Y162503D01*
X118802Y162546D01*
X118775Y162589D01*
X118743Y162641D01*
X118711Y162694D01*
X118675Y162755D01*
X118638Y162817D01*
X118597Y162889D01*
X118551Y162970D01*
X118500Y163061D01*
X118436Y163181D01*
X118422Y163207D01*
X118395Y163258D01*
X118369Y163309D01*
X118343Y163361D01*
X118300Y163446D01*
X118243Y163565D01*
X118186Y163685D01*
X118132Y163806D01*
X118105Y163866D01*
X118051Y163993D01*
X118006Y164101D01*
X117970Y164189D01*
X117939Y164268D01*
X117913Y164337D01*
X117887Y164407D01*
X117865Y164466D01*
X117844Y164525D01*
X117823Y164585D01*
X117803Y164645D01*
X117786Y164694D01*
X117770Y164744D01*
X117754Y164793D01*
X117738Y164843D01*
X117723Y164893D01*
X117708Y164942D01*
X117696Y164982D01*
X117684Y165022D01*
X117673Y165061D01*
X117662Y165101D01*
X117651Y165140D01*
X117640Y165180D01*
X117630Y165219D01*
X117619Y165259D01*
X117609Y165298D01*
X117599Y165338D01*
X117590Y165377D01*
X117580Y165417D01*
X117571Y165456D01*
X117565Y165485D01*
X117558Y165515D01*
X117552Y165544D01*
X117545Y165573D01*
X117539Y165603D01*
X117533Y165632D01*
X117528Y165661D01*
X117522Y165690D01*
X117516Y165719D01*
X117511Y165748D01*
X117506Y165777D01*
X117500Y165806D01*
X117496Y165835D01*
X117491Y165864D01*
X117486Y165893D01*
X117481Y165922D01*
X117477Y165951D01*
X117473Y165979D01*
X117469Y166008D01*
X117465Y166036D01*
X117461Y166065D01*
X117457Y166093D01*
X117454Y166122D01*
X117450Y166150D01*
X117447Y166178D01*
X117444Y166207D01*
X117441Y166235D01*
X117438Y166263D01*
X117436Y166291D01*
X117433Y166319D01*
X117431Y166347D01*
X117429Y166374D01*
X117427Y166402D01*
X117425Y166430D01*
X117424Y166457D01*
X117422Y166485D01*
X117421Y166512D01*
X117420Y166539D01*
X117419Y166567D01*
X117418Y166594D01*
X117417Y166621D01*
X117417Y166648D01*
X117416Y166675D01*
X117416Y166702D01*
X117416Y166712D01*
X117416Y166718D01*
X117416Y166728D01*
X117416Y166728D01*
X117416Y166746D01*
X117417Y166764D01*
X117417Y166781D01*
X117417Y166799D01*
X117418Y166817D01*
X117418Y166834D01*
X117419Y166852D01*
X117419Y166869D01*
X117420Y166887D01*
X117421Y166904D01*
X117422Y166921D01*
X117423Y166939D01*
X117424Y166956D01*
X117425Y166973D01*
X117426Y166990D01*
X117427Y167008D01*
X117429Y167025D01*
X117430Y167042D01*
X117432Y167059D01*
X117433Y167076D01*
X117435Y167092D01*
X117437Y167109D01*
X117439Y167126D01*
X117440Y167143D01*
X117443Y167159D01*
X117445Y167176D01*
X117447Y167192D01*
X117449Y167209D01*
X117451Y167226D01*
X117454Y167242D01*
X117456Y167258D01*
X117459Y167275D01*
X117462Y167291D01*
X117464Y167307D01*
X117467Y167323D01*
X117470Y167339D01*
X117473Y167355D01*
X117476Y167371D01*
X117479Y167387D01*
X117482Y167403D01*
X117486Y167419D01*
X117489Y167435D01*
X117493Y167450D01*
X117496Y167466D01*
X117500Y167482D01*
X117504Y167497D01*
X117508Y167513D01*
X117512Y167528D01*
X117516Y167544D01*
X117520Y167559D01*
X117524Y167574D01*
X117531Y167597D01*
X117537Y167619D01*
X117544Y167642D01*
X117551Y167664D01*
X117558Y167686D01*
X117566Y167709D01*
X117574Y167730D01*
X117581Y167752D01*
X117589Y167774D01*
X117598Y167795D01*
X117606Y167816D01*
X117615Y167838D01*
X117624Y167859D01*
X117633Y167879D01*
X117642Y167900D01*
X117652Y167921D01*
X117662Y167941D01*
X117672Y167961D01*
X117682Y167981D01*
X117692Y168001D01*
X117703Y168021D01*
X117714Y168041D01*
X117725Y168060D01*
X117740Y168086D01*
X117755Y168111D01*
X117771Y168136D01*
X117787Y168161D01*
X117804Y168185D01*
X117806Y168189D01*
X117812Y168196D01*
X117817Y168204D01*
X117822Y168211D01*
X117828Y168219D01*
X117833Y168226D01*
X117839Y168234D01*
X117844Y168241D01*
X117847Y168245D01*
X117850Y168249D01*
X117857Y168258D01*
X117864Y168266D01*
X117871Y168275D01*
X117878Y168284D01*
X117886Y168294D01*
X117894Y168304D01*
X118083Y168472D01*
X118322Y168658D01*
X118599Y168792D01*
X118767Y168868D01*
X118769Y168869D01*
X118790Y168878D01*
X118811Y168887D01*
X118832Y168896D01*
X118853Y168904D01*
X118873Y168912D01*
X118894Y168921D01*
X118914Y168928D01*
X118935Y168936D01*
X118955Y168944D01*
X118975Y168951D01*
X118995Y168958D01*
X119015Y168965D01*
X119035Y168972D01*
X119054Y168978D01*
X119074Y168985D01*
X119094Y168991D01*
X119113Y168997D01*
X119132Y169002D01*
X119151Y169008D01*
X119171Y169014D01*
X119190Y169019D01*
X119209Y169024D01*
X119228Y169029D01*
X119246Y169033D01*
X119265Y169038D01*
X119284Y169042D01*
X119302Y169046D01*
X119321Y169050D01*
X119339Y169054D01*
X119357Y169058D01*
X119375Y169061D01*
X119394Y169064D01*
X119412Y169068D01*
X119429Y169070D01*
X119447Y169073D01*
X119465Y169076D01*
X119483Y169078D01*
X119500Y169080D01*
X119518Y169082D01*
X119535Y169084D01*
X119552Y169086D01*
X119569Y169087D01*
X119587Y169089D01*
X119604Y169090D01*
X119621Y169091D01*
X119637Y169092D01*
X119654Y169092D01*
X119671Y169093D01*
X119687Y169093D01*
X119704Y169094D01*
X119720Y169094D01*
X119902Y169080D01*
X120141Y169015D01*
X120359Y168946D01*
X120541Y168827D01*
X120591Y168792D01*
X120809Y168631D01*
X120820Y168620D01*
X120831Y168609D01*
X120842Y168598D01*
X120853Y168587D01*
X120863Y168576D01*
X120874Y168565D01*
X120885Y168554D01*
X120896Y168542D01*
X120906Y168531D01*
X120917Y168519D01*
X120927Y168508D01*
X120938Y168496D01*
X120948Y168484D01*
X120958Y168472D01*
X120969Y168460D01*
X120979Y168448D01*
X120989Y168436D01*
X120999Y168423D01*
X121009Y168411D01*
X121019Y168399D01*
X121029Y168386D01*
X121039Y168373D01*
X121049Y168361D01*
X121059Y168348D01*
X121069Y168335D01*
X121079Y168322D01*
X121089Y168309D01*
X121099Y168296D01*
X121108Y168283D01*
X121118Y168269D01*
X121127Y168256D01*
X121137Y168243D01*
X121147Y168229D01*
X121156Y168215D01*
X121166Y168202D01*
X121175Y168188D01*
X121184Y168174D01*
X121194Y168160D01*
X121203Y168146D01*
X121212Y168132D01*
X121221Y168118D01*
X121231Y168104D01*
X121240Y168089D01*
X121249Y168075D01*
X121258Y168061D01*
X121267Y168046D01*
X121276Y168032D01*
X121285Y168017D01*
X121294Y168002D01*
X121303Y167988D01*
X121312Y167973D01*
X121320Y167958D01*
X121329Y167943D01*
X121338Y167928D01*
X121347Y167913D01*
X121355Y167898D01*
X121364Y167883D01*
X121373Y167868D01*
X121381Y167852D01*
X121390Y167837D01*
X121398Y167822D01*
X121407Y167806D01*
X121415Y167791D01*
X121424Y167775D01*
X121432Y167760D01*
X121441Y167744D01*
X121449Y167728D01*
X121457Y167713D01*
X121466Y167697D01*
X121474Y167681D01*
X121482Y167665D01*
X121491Y167649D01*
X121495Y167641D01*
X121503Y167625D01*
X121507Y167617D01*
X121511Y167609D01*
X121515Y167601D01*
X121523Y167585D01*
X121531Y167569D01*
X121543Y167544D01*
X121547Y167536D01*
X121555Y167520D01*
X121560Y167512D01*
X121567Y167495D01*
X121580Y167471D01*
X121587Y167454D01*
X121599Y167429D01*
X121607Y167413D01*
X121615Y167396D01*
X121623Y167379D01*
X121631Y167363D01*
X121639Y167346D01*
X121646Y167329D01*
X121654Y167313D01*
X121662Y167296D01*
X121674Y167271D01*
X121681Y167254D01*
X121689Y167237D01*
X121697Y167220D01*
X121704Y167203D01*
X121712Y167186D01*
X121716Y167177D01*
X121731Y167143D01*
X121739Y167126D01*
X121750Y167101D01*
X121761Y167075D01*
X121773Y167049D01*
X121784Y167023D01*
X121799Y166989D01*
X121806Y166972D01*
X121818Y166946D01*
X121821Y166937D01*
X121829Y166920D01*
X121844Y166885D01*
X121859Y166850D01*
X121873Y166816D01*
X121881Y166798D01*
X121895Y166763D01*
X121903Y166746D01*
X121906Y166737D01*
X121914Y166720D01*
X121917Y166711D01*
X121929Y166685D01*
X121947Y166641D01*
X121958Y166615D01*
X121998Y166519D01*
X122002Y166510D01*
X122009Y166493D01*
X122013Y166484D01*
X122020Y166467D01*
X122024Y166458D01*
X122035Y166432D01*
X122042Y166415D01*
X122046Y166406D01*
X122053Y166389D01*
X122057Y166380D01*
X122075Y166336D01*
X122086Y166310D01*
X122097Y166284D01*
X122104Y166267D01*
X122112Y166250D01*
X122126Y166215D01*
X122141Y166181D01*
X122148Y166163D01*
X122159Y166138D01*
X122170Y166112D01*
X122181Y166086D01*
X122193Y166060D01*
X122200Y166043D01*
X122211Y166018D01*
X122219Y166001D01*
X122226Y165984D01*
X122233Y165967D01*
X122237Y165958D01*
X122245Y165941D01*
X122256Y165916D01*
X122263Y165899D01*
X122271Y165882D01*
X122278Y165865D01*
X122286Y165849D01*
X122293Y165832D01*
X122301Y165815D01*
X122309Y165798D01*
X122316Y165782D01*
X122324Y165765D01*
X122331Y165749D01*
X122339Y165732D01*
X122347Y165716D01*
X122354Y165699D01*
X122366Y165675D01*
X122374Y165658D01*
X122385Y165634D01*
X122389Y165626D01*
X122397Y165609D01*
X122405Y165593D01*
X122412Y165577D01*
X122416Y165569D01*
X122424Y165553D01*
X122436Y165529D01*
X122444Y165513D01*
X122452Y165497D01*
X122463Y165473D01*
X122471Y165457D01*
X122479Y165442D01*
X122487Y165426D01*
X122491Y165418D01*
X122499Y165403D01*
X122507Y165387D01*
X122515Y165372D01*
X122520Y165364D01*
X122528Y165348D01*
X122536Y165333D01*
X122540Y165325D01*
X122548Y165310D01*
X122556Y165295D01*
X122560Y165287D01*
X122568Y165272D01*
X122577Y165257D01*
X122589Y165235D01*
X122597Y165220D01*
X122606Y165205D01*
X122614Y165190D01*
X122623Y165175D01*
X122631Y165161D01*
X122639Y165146D01*
X122648Y165131D01*
X122656Y165117D01*
X122665Y165103D01*
X122673Y165088D01*
X122682Y165074D01*
X122691Y165060D01*
X122699Y165046D01*
X122708Y165032D01*
X122717Y165018D01*
X122726Y165004D01*
X122734Y164990D01*
X122743Y164976D01*
X122752Y164962D01*
X122761Y164949D01*
X122770Y164935D01*
X122779Y164922D01*
X122788Y164908D01*
X122797Y164895D01*
X122806Y164882D01*
X122815Y164869D01*
X122824Y164856D01*
X122833Y164843D01*
X122843Y164830D01*
X122852Y164817D01*
X122861Y164804D01*
X122871Y164792D01*
X122880Y164779D01*
X122889Y164767D01*
X122899Y164754D01*
X122908Y164742D01*
X122918Y164730D01*
X122927Y164717D01*
X122937Y164705D01*
X122947Y164693D01*
X122956Y164682D01*
X122966Y164670D01*
X122976Y164658D01*
X122986Y164647D01*
X122995Y164635D01*
X123005Y164624D01*
X123015Y164612D01*
X123025Y164601D01*
X123035Y164590D01*
X123045Y164579D01*
X123056Y164568D01*
X123066Y164557D01*
X123076Y164547D01*
X123086Y164536D01*
X123097Y164526D01*
X123107Y164515D01*
X123117Y164505D01*
X123128Y164495D01*
X123138Y164485D01*
X123149Y164475D01*
X123159Y164465D01*
X123159Y164465D01*
X123170Y164455D01*
X123170Y164455D01*
X123181Y164445D01*
X123181Y164445D01*
X123191Y164436D01*
X123191Y164436D01*
X123202Y164426D01*
X123202Y164426D01*
X123213Y164417D01*
X123213Y164417D01*
X123224Y164408D01*
X123224Y164408D01*
X123235Y164399D01*
X123235Y164399D01*
X123246Y164390D01*
X123246Y164390D01*
X123257Y164381D01*
X123257Y164381D01*
X123268Y164372D01*
X123268Y164372D01*
X123279Y164364D01*
X123279Y164364D01*
X123290Y164355D01*
X123291Y164355D01*
X123302Y164347D01*
X123302Y164347D01*
X123313Y164338D01*
X123313Y164338D01*
X123324Y164330D01*
X123325Y164330D01*
X123336Y164322D01*
X123336Y164322D01*
X123347Y164314D01*
X123347Y164314D01*
X123359Y164306D01*
X123359Y164306D01*
X123370Y164298D01*
X123371Y164298D01*
X123382Y164291D01*
X123382Y164291D01*
X123394Y164284D01*
X123394Y164283D01*
X123412Y164272D01*
X123412Y164272D01*
X123429Y164262D01*
X123430Y164262D01*
X123447Y164251D01*
X123448Y164251D01*
X123465Y164241D01*
X123466Y164241D01*
X123484Y164232D01*
X123484Y164231D01*
X123502Y164222D01*
X123503Y164222D01*
X123520Y164213D01*
X123521Y164212D01*
X123523Y164211D01*
X123523Y164211D01*
X123530Y164208D01*
X123530Y164208D01*
X123536Y164205D01*
X123536Y164205D01*
X123542Y164202D01*
X123542Y164202D01*
X123545Y164201D01*
X123545Y164201D01*
X123548Y164199D01*
X123548Y164199D01*
X123554Y164197D01*
X123555Y164197D01*
X123561Y164194D01*
X123561Y164194D01*
X123567Y164191D01*
X123567Y164191D01*
X123570Y164190D01*
X123570Y164190D01*
X123574Y164188D01*
X123574Y164188D01*
X123582Y164184D01*
X123582Y164184D01*
X123590Y164181D01*
X123590Y164181D01*
X123598Y164178D01*
X123598Y164178D01*
X123602Y164176D01*
X123602Y164176D01*
X123607Y164174D01*
X123607Y164174D01*
X123616Y164170D01*
X123616Y164170D01*
X123626Y164167D01*
X123626Y164167D01*
X123635Y164163D01*
X123636Y164163D01*
X123640Y164161D01*
X123641Y164161D01*
X123668Y164151D01*
X123668Y164151D01*
X123723Y164134D01*
X123723Y164134D01*
X123778Y164119D01*
X123779Y164119D01*
X123835Y164107D01*
X123863Y164101D01*
X123865Y164101D01*
X123867Y164101D01*
X123874Y164100D01*
X123876Y164099D01*
X123883Y164098D01*
X123885Y164098D01*
X123893Y164097D01*
X123894Y164097D01*
X123897Y164096D01*
X123898Y164096D01*
X123901Y164095D01*
X123902Y164095D01*
X123909Y164094D01*
X123909Y164094D01*
X123916Y164094D01*
X123916Y164093D01*
X123923Y164093D01*
X123923Y164093D01*
X123930Y164092D01*
X123931Y164092D01*
X123937Y164091D01*
X123938Y164091D01*
X123945Y164090D01*
X123945Y164090D01*
X123952Y164089D01*
X123952Y164089D01*
X123956Y164089D01*
X123956Y164089D01*
X123977Y164087D01*
X123978Y164087D01*
X124000Y164085D01*
X124000Y164085D01*
X124022Y164084D01*
X124022Y164084D01*
X124044Y164083D01*
X124044Y164083D01*
X124067Y164083D01*
X124067Y164083D01*
X124090Y164083D01*
X124105Y164083D01*
X124120Y164083D01*
X124135Y164084D01*
X124151Y164084D01*
X124167Y164085D01*
X124182Y164086D01*
X124198Y164087D01*
X124214Y164088D01*
X124229Y164090D01*
X124245Y164091D01*
X124261Y164093D01*
X124277Y164095D01*
X124294Y164097D01*
X124310Y164099D01*
X124326Y164102D01*
X124351Y164124D01*
X124367Y164140D01*
X124384Y164155D01*
X124400Y164171D01*
X124416Y164187D01*
X124432Y164203D01*
X124448Y164219D01*
X124463Y164235D01*
X124479Y164252D01*
X124494Y164269D01*
X124509Y164285D01*
X124524Y164302D01*
X124536Y164315D01*
X124547Y164328D01*
X124558Y164341D01*
X124569Y164354D01*
X124580Y164367D01*
X124591Y164380D01*
X124602Y164393D01*
X124613Y164406D01*
X124624Y164420D01*
X124634Y164433D01*
X124645Y164446D01*
X124655Y164460D01*
X124666Y164474D01*
X124676Y164487D01*
X124687Y164501D01*
X124697Y164515D01*
X124707Y164529D01*
X124717Y164543D01*
X124727Y164557D01*
X124738Y164571D01*
X124748Y164585D01*
X124758Y164600D01*
X124767Y164614D01*
X124777Y164628D01*
X124787Y164643D01*
X124797Y164657D01*
X124806Y164672D01*
X124816Y164686D01*
X124826Y164701D01*
X124835Y164716D01*
X124845Y164730D01*
X124854Y164745D01*
X124863Y164760D01*
X124873Y164775D01*
X124882Y164790D01*
X124891Y164805D01*
X124900Y164820D01*
X124909Y164836D01*
X124919Y164851D01*
X124928Y164866D01*
X124934Y164876D01*
X124940Y164887D01*
X124945Y164897D01*
X124952Y164907D01*
X124957Y164918D01*
X124963Y164928D01*
X124969Y164938D01*
X124975Y164949D01*
X124981Y164959D01*
X124987Y164969D01*
X124992Y164980D01*
X124998Y164990D01*
X125004Y165001D01*
X125010Y165011D01*
X125015Y165022D01*
X125021Y165032D01*
X125027Y165043D01*
X125032Y165054D01*
X125038Y165064D01*
X125044Y165075D01*
X125049Y165086D01*
X125055Y165096D01*
X125060Y165107D01*
X125066Y165118D01*
X125072Y165129D01*
X125077Y165139D01*
X125083Y165150D01*
X125088Y165161D01*
X125093Y165172D01*
X125099Y165182D01*
X125104Y165193D01*
X125110Y165204D01*
X125115Y165215D01*
X125121Y165226D01*
X125126Y165237D01*
X125131Y165248D01*
X125137Y165259D01*
X125147Y165281D01*
X125158Y165303D01*
X125168Y165325D01*
X125174Y165336D01*
X125179Y165347D01*
X125184Y165358D01*
X125189Y165369D01*
X125194Y165380D01*
X125200Y165392D01*
X125205Y165403D01*
X125210Y165414D01*
X125215Y165425D01*
X125220Y165436D01*
X125225Y165447D01*
X125235Y165470D01*
X125241Y165481D01*
X125251Y165504D01*
X125261Y165526D01*
X125266Y165538D01*
X125271Y165549D01*
X125276Y165560D01*
X125281Y165572D01*
X125291Y165595D01*
X125301Y165617D01*
X125305Y165629D01*
X125310Y165640D01*
X125320Y165663D01*
X125325Y165675D01*
X125335Y165698D01*
X125340Y165709D01*
X125349Y165732D01*
X125357Y165749D01*
X125364Y165767D01*
X125366Y165772D01*
X125369Y165778D01*
X125376Y165796D01*
X125388Y165824D01*
X125390Y165830D01*
X125393Y165836D01*
X125397Y165848D01*
X125400Y165854D01*
X125407Y165871D01*
X125412Y165883D01*
X125423Y165912D01*
X125433Y165935D01*
X125440Y165952D01*
X125449Y165976D01*
X125461Y166005D01*
X125468Y166023D01*
X125470Y166028D01*
X125475Y166040D01*
X125480Y166052D01*
X125482Y166058D01*
X125489Y166075D01*
X125494Y166087D01*
X125498Y166099D01*
X125503Y166110D01*
X125505Y166116D01*
X125522Y166157D01*
X125524Y166163D01*
X125533Y166186D01*
X125538Y166198D01*
X125540Y166204D01*
X125563Y166263D01*
X125568Y166275D01*
X125575Y166292D01*
X125577Y166298D01*
X125582Y166310D01*
X125589Y166328D01*
X125591Y166333D01*
X125593Y166339D01*
X125598Y166351D01*
X125605Y166369D01*
X125607Y166375D01*
X125609Y166380D01*
X125619Y166404D01*
X125621Y166410D01*
X125623Y166416D01*
X125626Y166422D01*
X125630Y166433D01*
X125632Y166439D01*
X125637Y166451D01*
X125644Y166469D01*
X125660Y166510D01*
X125662Y166516D01*
X125669Y166533D01*
X125672Y166539D01*
X125679Y166557D01*
X125683Y166568D01*
X125688Y166580D01*
X125692Y166592D01*
X125707Y166627D01*
X125709Y166633D01*
X125711Y166639D01*
X125725Y166674D01*
X125734Y166697D01*
X125744Y166720D01*
X125746Y166726D01*
X125751Y166738D01*
X125760Y166761D01*
X125770Y166784D01*
X125781Y166813D01*
X125786Y166825D01*
X125793Y166842D01*
X125800Y166859D01*
X125807Y166877D01*
X125815Y166894D01*
X125824Y166917D01*
X125829Y166929D01*
X125831Y166935D01*
X125839Y166952D01*
X125848Y166975D01*
X125853Y166986D01*
X125858Y166998D01*
X125863Y167009D01*
X125868Y167021D01*
X125877Y167043D01*
X125887Y167066D01*
X125892Y167078D01*
X125902Y167100D01*
X125907Y167112D01*
X125912Y167123D01*
X125922Y167146D01*
X125932Y167168D01*
X125937Y167180D01*
X125942Y167191D01*
X125947Y167202D01*
X125952Y167213D01*
X125957Y167225D01*
X125967Y167247D01*
X125972Y167258D01*
X125977Y167269D01*
X125982Y167280D01*
X125987Y167291D01*
X125992Y167303D01*
X125997Y167314D01*
X126003Y167325D01*
X126013Y167347D01*
X126023Y167369D01*
X126029Y167380D01*
X126039Y167402D01*
X126044Y167413D01*
X126050Y167424D01*
X126055Y167435D01*
X126060Y167446D01*
X126066Y167456D01*
X126071Y167467D01*
X126076Y167478D01*
X126082Y167489D01*
X126087Y167500D01*
X126092Y167511D01*
X126098Y167521D01*
X126103Y167532D01*
X126109Y167543D01*
X126114Y167554D01*
X126120Y167564D01*
X126125Y167575D01*
X126131Y167586D01*
X126136Y167596D01*
X126142Y167607D01*
X126147Y167617D01*
X126153Y167628D01*
X126158Y167639D01*
X126164Y167649D01*
X126170Y167660D01*
X126175Y167670D01*
X126181Y167681D01*
X126187Y167691D01*
X126192Y167701D01*
X126198Y167712D01*
X126204Y167722D01*
X126210Y167733D01*
X126215Y167743D01*
X126221Y167753D01*
X126227Y167764D01*
X126233Y167774D01*
X126239Y167784D01*
X126245Y167794D01*
X126251Y167805D01*
X126256Y167815D01*
X126262Y167825D01*
X126268Y167835D01*
X126274Y167845D01*
X126280Y167855D01*
X126286Y167865D01*
X126292Y167875D01*
X126298Y167885D01*
X126308Y167900D01*
X126317Y167915D01*
X126326Y167930D01*
X126335Y167945D01*
X126345Y167959D01*
X126354Y167974D01*
X126363Y167989D01*
X126373Y168003D01*
X126382Y168018D01*
X126392Y168032D01*
X126402Y168046D01*
X126411Y168061D01*
X126421Y168075D01*
X126431Y168089D01*
X126441Y168103D01*
X126451Y168117D01*
X126461Y168131D01*
X126471Y168145D01*
X126481Y168159D01*
X126491Y168173D01*
X126501Y168186D01*
X126512Y168200D01*
X126522Y168214D01*
X126532Y168227D01*
X126543Y168240D01*
X126553Y168254D01*
X126564Y168267D01*
X126574Y168280D01*
X126585Y168293D01*
X126596Y168306D01*
X126607Y168319D01*
X126618Y168332D01*
X126629Y168345D01*
X126640Y168358D01*
X126651Y168370D01*
X126662Y168383D01*
X126673Y168395D01*
X126684Y168408D01*
X126699Y168424D01*
X126715Y168441D01*
X126730Y168457D01*
X126746Y168473D01*
X126761Y168489D01*
X126762Y168489D01*
X127136Y168793D01*
X127136Y168794D01*
X127554Y168992D01*
X127569Y168995D01*
X127591Y169000D01*
X127613Y169004D01*
X127636Y169009D01*
X127658Y169013D01*
X127680Y169017D01*
X127701Y169021D01*
X127723Y169025D01*
X127745Y169029D01*
X127766Y169033D01*
X127788Y169037D01*
X127809Y169040D01*
X127830Y169044D01*
X127851Y169047D01*
X127872Y169050D01*
X127893Y169053D01*
X127914Y169056D01*
X127935Y169059D01*
X127955Y169062D01*
X127976Y169065D01*
X127996Y169067D01*
X128017Y169070D01*
X128037Y169072D01*
X128057Y169074D01*
X128077Y169076D01*
X128097Y169078D01*
X128117Y169080D01*
X128136Y169082D01*
X128156Y169084D01*
X128175Y169085D01*
X128195Y169087D01*
X128214Y169088D01*
X128234Y169089D01*
X128253Y169090D01*
X128272Y169091D01*
X128291Y169092D01*
X128310Y169093D01*
X128328Y169094D01*
X128347Y169095D01*
X128366Y169095D01*
X128384Y169096D01*
X128402Y169096D01*
X128421Y169096D01*
X128439Y169096D01*
X128457D01*
X128475Y169096D01*
D02*
G37*
G36*
X151835Y168852D02*
X151907Y168851D01*
X151979Y168849D01*
X152051Y168846D01*
X152124Y168843D01*
X152197Y168839D01*
X152271Y168834D01*
X152345Y168828D01*
X152419Y168822D01*
X152494Y168815D01*
X152569Y168807D01*
X152645Y168799D01*
X152721Y168789D01*
X152797Y168779D01*
X152874Y168768D01*
X152951Y168756D01*
X153029Y168744D01*
X153107Y168730D01*
X153185Y168716D01*
X153264Y168702D01*
X153343Y168686D01*
X153423Y168669D01*
X153503Y168652D01*
X153583Y168634D01*
X153664Y168615D01*
X153745Y168595D01*
X153826Y168574D01*
X153908Y168553D01*
X153990Y168530D01*
X154073Y168507D01*
X154156Y168483D01*
X154239Y168458D01*
X154323Y168432D01*
X154407Y168406D01*
X154491Y168378D01*
X154576Y168350D01*
X154661Y168321D01*
X154747Y168290D01*
X154833Y168259D01*
X154919Y168227D01*
X155006Y168194D01*
X155093Y168161D01*
X155180Y168126D01*
X155268Y168090D01*
X155356Y168054D01*
X155444Y168017D01*
X155533Y167978D01*
X155622Y167939D01*
X155629Y167935D01*
X155641Y167927D01*
X155654Y167919D01*
X155666Y167911D01*
X155680Y167902D01*
X155694Y167892D01*
X155708Y167883D01*
X155722Y167873D01*
X155729Y167868D01*
X155740Y167859D01*
X155764Y167841D01*
X155787Y167824D01*
X155809Y167805D01*
X155821Y167796D01*
D01*
X156038Y167552D01*
X156171Y167370D01*
X156239Y167235D01*
X156280Y167151D01*
X156350Y166971D01*
X156385Y166839D01*
X156439Y166612D01*
X156454Y166261D01*
X156430Y165889D01*
X156342Y165545D01*
X156263Y165334D01*
X156165Y165126D01*
X155973Y164816D01*
X155971Y164813D01*
X155656Y164505D01*
X155344Y164307D01*
X155315Y164290D01*
X155306Y164284D01*
X154877Y164112D01*
X154875Y164111D01*
X154870Y164110D01*
X154865Y164109D01*
X154860Y164108D01*
X154855Y164107D01*
X154850Y164107D01*
X154845Y164106D01*
X154840Y164105D01*
X154830Y164103D01*
X154821Y164102D01*
X154815Y164101D01*
X154805Y164099D01*
X154800Y164098D01*
X154795Y164098D01*
X154790Y164097D01*
X154785Y164096D01*
X154780Y164095D01*
X154770Y164094D01*
X154760Y164093D01*
X154754Y164092D01*
X154744Y164091D01*
X154734Y164089D01*
X154723Y164088D01*
X154712Y164087D01*
X154702Y164086D01*
X154691Y164084D01*
X154681Y164083D01*
X154670Y164082D01*
X154659Y164081D01*
X154648Y164080D01*
X154638Y164079D01*
X154627Y164079D01*
X154616Y164078D01*
X154605Y164077D01*
X154594Y164076D01*
X154583Y164075D01*
X154571Y164075D01*
X154560Y164074D01*
X154549Y164073D01*
X154538Y164073D01*
X154526Y164072D01*
X154515Y164072D01*
X154504Y164071D01*
X154492Y164071D01*
X154481Y164070D01*
X154469Y164070D01*
X154458Y164069D01*
X154446Y164069D01*
X154435Y164069D01*
X154423Y164069D01*
X154411Y164068D01*
X154400Y164068D01*
X154388Y164068D01*
X154376Y164068D01*
X154364Y164068D01*
X154352Y164068D01*
X154340Y164068D01*
X154328Y164068D01*
X154316Y164068D01*
X154304Y164068D01*
X154292Y164068D01*
X154280Y164068D01*
X154268Y164068D01*
X154256Y164068D01*
X154244Y164068D01*
X154232Y164069D01*
X154219Y164069D01*
X154207Y164069D01*
X154195Y164069D01*
X154182Y164070D01*
X154170Y164070D01*
X154157Y164071D01*
X154145Y164071D01*
X154133Y164072D01*
X154120Y164072D01*
X154108Y164072D01*
X154095Y164073D01*
X154083Y164074D01*
X154070Y164074D01*
X154057Y164075D01*
X154045Y164075D01*
X154032Y164076D01*
X154019Y164076D01*
X154007Y164077D01*
X153994Y164078D01*
X153981Y164079D01*
X153968Y164079D01*
X153955Y164080D01*
X153943Y164081D01*
X153917Y164083D01*
X153904Y164084D01*
X153891Y164084D01*
X153865Y164086D01*
X153839Y164088D01*
X153813Y164090D01*
X153787Y164092D01*
X153761Y164094D01*
X153748Y164095D01*
X153721Y164097D01*
X153708Y164099D01*
X153682Y164101D01*
X153655Y164103D01*
X153629Y164106D01*
X153616Y164107D01*
X153596Y164109D01*
X153576Y164111D01*
X153563Y164112D01*
X153556Y164113D01*
X153549Y164113D01*
X153536Y164115D01*
X153516Y164117D01*
X153489Y164120D01*
X153469Y164121D01*
X153443Y164124D01*
X153416Y164127D01*
X153389Y164130D01*
X153362Y164133D01*
X153329Y164137D01*
X153282Y164142D01*
X153255Y164145D01*
X153222Y164149D01*
X153202Y164151D01*
X153175Y164154D01*
X153168Y164155D01*
X153148Y164157D01*
X153108Y164162D01*
X153101Y164163D01*
X153068Y164167D01*
X153014Y164173D01*
X152941Y164182D01*
X152935Y164183D01*
X152895Y164188D01*
X152888Y164189D01*
X152822Y164197D01*
X152816Y164197D01*
X152789Y164201D01*
X152743Y164206D01*
X152737Y164207D01*
X152717Y164209D01*
X152691Y164212D01*
X152685Y164213D01*
X152678Y164214D01*
X152639Y164218D01*
X152607Y164222D01*
X152601Y164223D01*
X152594Y164224D01*
X152556Y164228D01*
X152537Y164231D01*
X152511Y164233D01*
X152486Y164236D01*
X152461Y164239D01*
X152429Y164243D01*
X152410Y164245D01*
X152398Y164246D01*
X152373Y164249D01*
X152355Y164251D01*
X152336Y164253D01*
X152311Y164255D01*
X152293Y164257D01*
X152269Y164260D01*
X152251Y164261D01*
X152238Y164262D01*
X152220Y164264D01*
X152196Y164267D01*
X152173Y164269D01*
X152149Y164271D01*
X152131Y164272D01*
X152114Y164274D01*
X152102Y164275D01*
X152079Y164277D01*
X152061Y164278D01*
X152050Y164279D01*
X152044Y164279D01*
X152021Y164281D01*
X152010Y164282D01*
X151993Y164283D01*
X151982Y164284D01*
X151971Y164285D01*
X151959Y164286D01*
X151948Y164286D01*
X151932Y164287D01*
X151921Y164288D01*
X151910Y164288D01*
X151899Y164289D01*
X151888Y164290D01*
X151877Y164290D01*
X151866Y164291D01*
X151856Y164291D01*
X151845Y164292D01*
X151840Y164292D01*
X151834Y164292D01*
X151824Y164293D01*
X151813Y164293D01*
X151808Y164293D01*
X151797Y164294D01*
X151792Y164294D01*
X151787Y164294D01*
X151777Y164294D01*
X151766Y164295D01*
X151756Y164295D01*
X151746Y164295D01*
X151736Y164295D01*
X151726Y164295D01*
X151716Y164295D01*
X151706Y164295D01*
X151696Y164296D01*
X151686Y164296D01*
X151676Y164296D01*
X151661Y164296D01*
X151652Y164296D01*
X151647Y164296D01*
X151637Y164295D01*
X151628Y164295D01*
X151623Y164295D01*
X151613Y164295D01*
X151604Y164295D01*
X151595Y164295D01*
X151585Y164294D01*
X151576Y164294D01*
X151567Y164294D01*
X151558Y164293D01*
X151553Y164293D01*
X151544Y164293D01*
X151540Y164292D01*
X151531Y164292D01*
X151522Y164291D01*
X151518Y164291D01*
X151513Y164291D01*
X151504Y164290D01*
X151500Y164290D01*
X151491Y164289D01*
X151487Y164289D01*
X151483Y164289D01*
X151470Y164288D01*
X151466Y164287D01*
X151462Y164287D01*
X151453Y164286D01*
X151449Y164286D01*
X151449Y164286D01*
X151445Y164285D01*
X151445Y164285D01*
X151441Y164285D01*
X151441Y164285D01*
X151437Y164284D01*
X151437Y164284D01*
X151433Y164284D01*
X151433Y164284D01*
X151429Y164283D01*
X151429Y164283D01*
X151425Y164283D01*
X151425Y164283D01*
X151420Y164282D01*
X151420Y164282D01*
X151417Y164282D01*
X151417Y164282D01*
X151412Y164281D01*
X151412Y164281D01*
X151409Y164281D01*
X151409Y164281D01*
X151405Y164280D01*
X151405Y164280D01*
X151401Y164280D01*
X151400Y164280D01*
X151397Y164279D01*
X151397Y164279D01*
X151393Y164279D01*
X151393Y164279D01*
X151389Y164278D01*
X151389Y164278D01*
X151385Y164278D01*
X151385Y164278D01*
X151381Y164277D01*
X151381Y164277D01*
X151377Y164277D01*
X151377Y164277D01*
X151373Y164276D01*
X151373Y164276D01*
X151370Y164275D01*
X151370Y164275D01*
X151366Y164275D01*
X151366Y164275D01*
X151362Y164274D01*
X151362Y164274D01*
X151358Y164273D01*
X151358Y164273D01*
X151354Y164273D01*
X151354Y164273D01*
X151351Y164272D01*
X151351Y164272D01*
X151351Y164272D01*
X151347Y164271D01*
X151347Y164271D01*
X151343Y164271D01*
X151343Y164271D01*
X151340Y164270D01*
X151340Y164270D01*
X151336Y164269D01*
X151336Y164269D01*
X151332Y164269D01*
X151332Y164269D01*
X151329Y164268D01*
X151329Y164268D01*
X151325Y164267D01*
X151325Y164267D01*
X151321Y164267D01*
X151321Y164267D01*
X151318Y164266D01*
X151318Y164266D01*
X151314Y164265D01*
X151314Y164265D01*
X151311Y164264D01*
X151311Y164264D01*
X151307Y164263D01*
X151307Y164263D01*
X151304Y164263D01*
X151304Y164263D01*
X151300Y164262D01*
X151300Y164262D01*
X151294Y164260D01*
X151294Y164260D01*
X151293Y164260D01*
X151289Y164259D01*
X151289D01*
X151284Y164258D01*
X151284Y164258D01*
X151281Y164257D01*
X151281Y164257D01*
X151278Y164256D01*
X151278Y164256D01*
X151274Y164255D01*
Y164255D01*
X151273Y164255D01*
X151267Y164253D01*
X151261Y164251D01*
X151256Y164250D01*
X151250Y164248D01*
X151245Y164247D01*
X151242Y164246D01*
X151235Y164244D01*
X151229Y164242D01*
X151224Y164240D01*
X151220Y164238D01*
X151218Y164237D01*
X151211Y164235D01*
X151205Y164233D01*
X151200Y164230D01*
X151197Y164229D01*
X151191Y164227D01*
X151188Y164225D01*
X151183Y164223D01*
X151178Y164221D01*
X151174Y164219D01*
X151174Y164219D01*
X151172Y164218D01*
X151172Y164218D01*
X151169Y164217D01*
X151169Y164217D01*
X151166Y164215D01*
X151166Y164215D01*
X151164Y164214D01*
X151164Y164214D01*
X151161Y164213D01*
X151161Y164213D01*
X151159Y164211D01*
X151159Y164211D01*
X151156Y164210D01*
X151156Y164210D01*
X151154Y164208D01*
X151154Y164208D01*
X151151Y164207D01*
X151151Y164207D01*
X151149Y164206D01*
X151149Y164206D01*
X151146Y164204D01*
X151146Y164204D01*
X151144Y164203D01*
X151144Y164203D01*
X151142Y164201D01*
X151142Y164201D01*
X151139Y164200D01*
X151139Y164200D01*
X151137Y164199D01*
X151137Y164199D01*
X151135Y164197D01*
X151135Y164197D01*
X151132Y164196D01*
X151132Y164196D01*
X151130Y164194D01*
X151130Y164194D01*
X151128Y164193D01*
X151128Y164193D01*
X151125Y164191D01*
X151125Y164191D01*
X151123Y164190D01*
X151123Y164190D01*
X151121Y164188D01*
X151121Y164188D01*
X151119Y164187D01*
X151119Y164186D01*
X151117Y164185D01*
X151117Y164185D01*
X151114Y164183D01*
X151114Y164183D01*
X151112Y164182D01*
X151112Y164182D01*
X151110Y164180D01*
X151110Y164180D01*
X151108Y164179D01*
X151108Y164178D01*
X151106Y164177D01*
X151106Y164177D01*
X151104Y164175D01*
X151104Y164175D01*
X151102Y164173D01*
X151102Y164173D01*
X151100Y164172D01*
X151100Y164172D01*
X151098Y164170D01*
X151098Y164170D01*
X151096Y164168D01*
X151096Y164168D01*
X151094Y164167D01*
X151094Y164167D01*
X151092Y164165D01*
X151092Y164165D01*
X151091Y164163D01*
X151091Y164163D01*
X151089Y164162D01*
X151089Y164161D01*
X151087Y164160D01*
X151087Y164160D01*
X151085Y164158D01*
X151085Y164158D01*
X151083Y164156D01*
X151083Y164156D01*
X151083Y164156D01*
X151083Y164156D01*
X151082Y164155D01*
X151082Y164155D01*
X151081Y164154D01*
X151081Y164154D01*
X151080Y164153D01*
X151080Y164153D01*
X151080Y164152D01*
X151080Y164152D01*
X151079Y164152D01*
X151079Y164152D01*
X151078Y164151D01*
X151078Y164151D01*
X151078Y164150D01*
X151077Y164150D01*
X151077Y164149D01*
X151077Y164149D01*
X151076Y164149D01*
X151076Y164149D01*
X151076Y164148D01*
X151076Y164148D01*
X151075Y164147D01*
X151075Y164147D01*
X151074Y164146D01*
X151074Y164146D01*
X151073Y164146D01*
X151073Y164145D01*
X151073Y164145D01*
X151073Y164145D01*
X151073Y164145D01*
X151073Y164145D01*
X151072Y164144D01*
X151072Y164144D01*
X151071Y164143D01*
X151071Y164143D01*
X151070Y164142D01*
X151070Y164142D01*
X151070Y164141D01*
X151070Y164141D01*
X151069Y164141D01*
X151069Y164141D01*
X151069Y164140D01*
X151068Y164140D01*
X151068Y164139D01*
X151068Y164139D01*
X151067Y164138D01*
X151067Y164138D01*
X151067Y164137D01*
X151067Y164137D01*
X151066Y164137D01*
X151066Y164137D01*
X151066Y164136D01*
X151066Y164136D01*
X151065Y164135D01*
X151065Y164135D01*
X151064Y164134D01*
X151064Y164134D01*
X151064Y164133D01*
X151064Y164133D01*
X151063Y164133D01*
X151063Y164133D01*
X151063Y164132D01*
X151062Y164132D01*
X151062Y164131D01*
X151062Y164131D01*
X151061Y164130D01*
X151061Y164130D01*
X151061Y164129D01*
X151061Y164129D01*
X151060Y164129D01*
X151060Y164129D01*
X151059Y164127D01*
X151059Y164127D01*
X151058Y164126D01*
X151058Y164126D01*
X151057Y164124D01*
X151057Y164124D01*
X151057Y164123D01*
X151056Y164123D01*
X151056Y164123D01*
X151056Y164122D01*
X151055Y164121D01*
X151055Y164121D01*
X151054Y164120D01*
X151054Y164119D01*
X151053Y164118D01*
X151053Y164118D01*
X151052Y164117D01*
X151052Y164117D01*
X151051Y164116D01*
X151051Y164116D01*
X151049Y164112D01*
X151049Y164112D01*
X151048Y164109D01*
X151048Y164109D01*
X151046Y164106D01*
X151046Y164106D01*
X151045Y164104D01*
X151045Y164104D01*
X151044Y164102D01*
X151044Y164102D01*
X151041Y164097D01*
X151041Y164096D01*
X151039Y164092D01*
X151038Y164091D01*
X151037Y164087D01*
X151036Y164084D01*
X151034Y164082D01*
X151034Y164080D01*
X151032Y164076D01*
X151032Y164075D01*
X151031Y164073D01*
X151030Y164070D01*
X151030Y164069D01*
X151029Y164067D01*
X151029Y164066D01*
X151029Y164065D01*
X151029Y164065D01*
X151028Y164062D01*
X151028Y164061D01*
X151026Y164057D01*
X151026Y164056D01*
X151026Y164056D01*
X151026Y164055D01*
X151025Y164052D01*
X151025Y164051D01*
X151025Y164051D01*
X151024Y164049D01*
X151024Y164046D01*
X151024Y164046D01*
X151023Y164043D01*
X151023Y164040D01*
X151023Y164039D01*
X151022Y164038D01*
X151022Y164035D01*
X151021Y164032D01*
X151021Y164031D01*
X151021Y164030D01*
X151021Y164028D01*
X151021Y164027D01*
X151020Y164025D01*
X151020Y164025D01*
X151020Y164022D01*
X151020Y164022D01*
X151020Y164020D01*
X151020Y164019D01*
X151019Y164017D01*
X151019Y164016D01*
X151019Y164014D01*
X151019Y164014D01*
X151019Y164011D01*
X151019Y164011D01*
X151019Y164008D01*
X151019Y164008D01*
X151019Y164006D01*
X151019Y164005D01*
X151018Y164003D01*
X151018Y164003D01*
X151018Y164000D01*
X151018Y164000D01*
X151018Y163997D01*
X151018Y163997D01*
X151018Y163994D01*
X151018Y163994D01*
X151018Y163991D01*
X151018Y163991D01*
X151018Y163991D01*
X151018Y163991D01*
Y163990D01*
X151018Y163990D01*
X151018Y163990D01*
X151018Y163990D01*
X151018Y163989D01*
X151018Y163989D01*
X151018Y163989D01*
X151018Y163988D01*
X151018Y163986D01*
X151018Y163986D01*
X151018Y163983D01*
X151018Y163983D01*
X151018Y163980D01*
X151018Y163980D01*
X151018Y163977D01*
X151018Y163977D01*
X151019Y163974D01*
X151019Y163974D01*
X151019Y163971D01*
Y163971D01*
X151019Y163968D01*
Y163968D01*
X151019Y163965D01*
Y163965D01*
X151019Y163962D01*
Y163962D01*
X151020Y163959D01*
Y163959D01*
X151020Y163956D01*
Y163956D01*
X151020Y163953D01*
Y163953D01*
X151021Y163950D01*
Y163950D01*
X151021Y163947D01*
Y163947D01*
X151021Y163944D01*
Y163944D01*
X151022Y163940D01*
Y163940D01*
X151022Y163937D01*
Y163937D01*
X151023Y163934D01*
Y163934D01*
X151023Y163931D01*
Y163931D01*
X151024Y163928D01*
Y163928D01*
X151024Y163928D01*
X151024Y163924D01*
X151024Y163924D01*
X151025Y163921D01*
X151025Y163921D01*
X151025Y163918D01*
X151025Y163918D01*
X151026Y163915D01*
X151026Y163915D01*
X151027Y163911D01*
X151027Y163911D01*
X151028Y163908D01*
X151028Y163908D01*
X151028Y163905D01*
X151028Y163905D01*
X151029Y163901D01*
X151029Y163901D01*
X151030Y163898D01*
X151030Y163898D01*
X151031Y163895D01*
X151031Y163895D01*
X151031Y163891D01*
X151031Y163891D01*
X151032Y163888D01*
X151032Y163888D01*
X151033Y163884D01*
X151033Y163884D01*
X151034Y163881D01*
X151034Y163881D01*
X151035Y163878D01*
X151035Y163878D01*
X151036Y163874D01*
X151036Y163874D01*
X151037Y163871D01*
X151037Y163871D01*
X151038Y163867D01*
X151038Y163867D01*
X151039Y163864D01*
X151039Y163864D01*
X151040Y163860D01*
X151040Y163860D01*
X151041Y163856D01*
X151041Y163856D01*
X151043Y163853D01*
X151043Y163853D01*
X151044Y163849D01*
X151044Y163849D01*
X151045Y163846D01*
X151045Y163846D01*
X151046Y163842D01*
X151046Y163842D01*
X151048Y163838D01*
X151048Y163838D01*
X151049Y163835D01*
X151049Y163835D01*
X151050Y163831D01*
X151050Y163831D01*
X151052Y163827D01*
X151052Y163827D01*
X151053Y163824D01*
X151053Y163824D01*
X151054Y163820D01*
X151054Y163820D01*
X151056Y163816D01*
X151056Y163816D01*
X151057Y163812D01*
X151057Y163812D01*
X151059Y163809D01*
X151059Y163809D01*
X151060Y163805D01*
X151060Y163805D01*
X151062Y163801D01*
X151062Y163801D01*
X151064Y163797D01*
X151064Y163797D01*
X151065Y163793D01*
X151065Y163793D01*
X151067Y163789D01*
X151067Y163789D01*
X151068Y163785D01*
X151068Y163785D01*
X151070Y163781D01*
X151070Y163781D01*
X151072Y163777D01*
X151072Y163777D01*
X151074Y163774D01*
X151074Y163774D01*
X151076Y163770D01*
X151076Y163770D01*
X151077Y163766D01*
X151077Y163766D01*
X151079Y163762D01*
X151079Y163761D01*
X151081Y163758D01*
X151081Y163758D01*
X151083Y163753D01*
X151083Y163753D01*
X151085Y163749D01*
X151085Y163749D01*
X151087Y163745D01*
X151087Y163745D01*
X151089Y163741D01*
X151089Y163741D01*
X151091Y163737D01*
X151091Y163737D01*
X151093Y163733D01*
X151093Y163733D01*
X151095Y163729D01*
X151095Y163729D01*
X151098Y163725D01*
X151098Y163725D01*
X151100Y163720D01*
X151100Y163720D01*
X151102Y163716D01*
X151102Y163716D01*
X151104Y163712D01*
X151104Y163712D01*
X151106Y163708D01*
X151106Y163708D01*
X151109Y163703D01*
X151109Y163703D01*
X151111Y163699D01*
X151111Y163699D01*
X151113Y163695D01*
X151113Y163695D01*
X151116Y163690D01*
X151116Y163690D01*
X151118Y163686D01*
X151118Y163686D01*
X151121Y163682D01*
X151121Y163682D01*
X151123Y163677D01*
X151123Y163677D01*
X151126Y163673D01*
X151126Y163673D01*
X151128Y163669D01*
X151128Y163669D01*
X151131Y163664D01*
X151131Y163664D01*
X151133Y163660D01*
X151133Y163660D01*
X151136Y163655D01*
X151136Y163655D01*
X151139Y163651D01*
X151139Y163651D01*
X151141Y163646D01*
X151141Y163646D01*
X151144Y163642D01*
X151144Y163642D01*
X151147Y163637D01*
X151147Y163637D01*
X151150Y163632D01*
X151150Y163632D01*
X151152Y163628D01*
X151152Y163628D01*
X151155Y163623D01*
X151155Y163623D01*
X151158Y163619D01*
X151158Y163619D01*
X151161Y163614D01*
X151161Y163614D01*
X151164Y163609D01*
X151164Y163609D01*
X151167Y163604D01*
X151167Y163604D01*
X151170Y163600D01*
X151170Y163600D01*
X151176Y163590D01*
X151182Y163581D01*
X151186Y163576D01*
X151192Y163566D01*
X151199Y163556D01*
X151205Y163546D01*
X151209Y163541D01*
X151216Y163531D01*
X151219Y163526D01*
X151223Y163521D01*
X151226Y163516D01*
X151230Y163511D01*
X151230Y163511D01*
X151339Y163498D01*
X151339Y163498D01*
X151420Y163488D01*
X151420Y163488D01*
X151458Y163483D01*
X151501Y163477D01*
X151581Y163466D01*
X151661Y163454D01*
X151740Y163442D01*
X151819Y163429D01*
X151897Y163416D01*
X152001Y163398D01*
X152103Y163379D01*
X152205Y163359D01*
X152306Y163338D01*
X152406Y163317D01*
X152506Y163294D01*
X152604Y163271D01*
X152701Y163247D01*
X152798Y163223D01*
X152893Y163197D01*
X152988Y163171D01*
X153082Y163144D01*
X153175Y163117D01*
X153267Y163088D01*
X153358Y163059D01*
X153449Y163029D01*
X153538Y162999D01*
X153627Y162967D01*
X153715Y162935D01*
X153801Y162903D01*
X153887Y162869D01*
X153972Y162835D01*
X154057Y162801D01*
X154140Y162766D01*
X154222Y162730D01*
X154304Y162693D01*
X154384Y162656D01*
X154464Y162618D01*
X154543Y162579D01*
X154621Y162540D01*
X154698Y162500D01*
X154774Y162460D01*
X154850Y162419D01*
X154924Y162378D01*
X154998Y162335D01*
X155071Y162293D01*
X155142Y162250D01*
X155231Y162195D01*
X155318Y162139D01*
X155404Y162082D01*
X155488Y162025D01*
X155571Y161967D01*
X155653Y161908D01*
X155733Y161848D01*
X155812Y161787D01*
X155890Y161726D01*
X155966Y161664D01*
X156041Y161601D01*
X156114Y161538D01*
X156186Y161474D01*
X156256Y161409D01*
X156267Y161399D01*
X156288Y161380D01*
X156308Y161360D01*
X156329Y161340D01*
X156350Y161320D01*
X156370Y161300D01*
X156390Y161280D01*
X156410Y161260D01*
X156430Y161240D01*
X156450Y161220D01*
X156470Y161200D01*
X156490Y161180D01*
X156499Y161170D01*
X156509Y161160D01*
X156528Y161139D01*
X156548Y161119D01*
X156567Y161099D01*
X156576Y161088D01*
X156576D01*
X156586Y161078D01*
X156605Y161057D01*
X156623Y161037D01*
X156642Y161016D01*
X156660Y160996D01*
X156679Y160975D01*
X156697Y160954D01*
X156715Y160933D01*
X156733Y160912D01*
X156751Y160891D01*
X156769Y160870D01*
X156786Y160849D01*
X156795Y160839D01*
X156795D01*
X156804Y160828D01*
X156821Y160807D01*
X156838Y160786D01*
X156856Y160764D01*
X156874Y160741D01*
X156894Y160716D01*
X156913Y160691D01*
X156932Y160666D01*
X156942Y160654D01*
X156942D01*
X156952Y160641D01*
X156971Y160616D01*
X156989Y160591D01*
X157008Y160566D01*
X157027Y160540D01*
X157045Y160515D01*
X157063Y160489D01*
X157081Y160464D01*
X157099Y160438D01*
X157116Y160413D01*
X157134Y160387D01*
X157151Y160361D01*
X157160Y160348D01*
X157168Y160335D01*
X157185Y160309D01*
X157202Y160283D01*
X157219Y160257D01*
X157227Y160244D01*
X157227D01*
X157236Y160229D01*
X157255Y160200D01*
X157273Y160170D01*
X157291Y160140D01*
X157309Y160110D01*
X157327Y160080D01*
X157344Y160049D01*
X157362Y160019D01*
X157370Y160004D01*
X157379Y159989D01*
X157396Y159959D01*
X157412Y159928D01*
X157429Y159898D01*
X157445Y159867D01*
X157460Y159836D01*
X157476Y159806D01*
X157492Y159775D01*
X157499Y159760D01*
X157508Y159742D01*
X157525Y159708D01*
X157541Y159673D01*
X157558Y159638D01*
X157574Y159603D01*
X157590Y159568D01*
X157605Y159533D01*
X157620Y159498D01*
X157628Y159481D01*
X157628D01*
X157636Y159461D01*
X157652Y159422D01*
X157668Y159383D01*
X157684Y159344D01*
X157699Y159304D01*
X157714Y159265D01*
X157728Y159225D01*
X157742Y159186D01*
X157757Y159144D01*
X157772Y159101D01*
X157786Y159057D01*
X157800Y159013D01*
X157807Y158991D01*
X157814Y158968D01*
X157828Y158920D01*
X157842Y158872D01*
X157855Y158824D01*
X157869Y158774D01*
X157882Y158722D01*
X157895Y158670D01*
X157907Y158617D01*
X157919Y158563D01*
X157930Y158507D01*
X157941Y158450D01*
X157952Y158394D01*
X157962Y158333D01*
X157972Y158268D01*
X157982Y158204D01*
X157990Y158139D01*
X157994Y158106D01*
X157998Y158068D01*
X158006Y157991D01*
X158012Y157914D01*
X158017Y157837D01*
X158022Y157746D01*
X158025Y157640D01*
X158026Y157535D01*
X158024Y157430D01*
X158022Y157377D01*
X158014Y157174D01*
X157964Y156770D01*
X157878Y156372D01*
X157759Y155983D01*
X157683Y155795D01*
X157670Y155762D01*
X157643Y155697D01*
X157615Y155633D01*
X157585Y155569D01*
X157559Y155513D01*
X157535Y155464D01*
X157511Y155415D01*
X157486Y155367D01*
X157462Y155321D01*
X157438Y155277D01*
X157413Y155233D01*
X157388Y155189D01*
X157365Y155149D01*
X157343Y155113D01*
X157321Y155076D01*
X157299Y155040D01*
X157288Y155023D01*
X157278Y155006D01*
X157257Y154974D01*
X157236Y154942D01*
X157215Y154910D01*
X157193Y154878D01*
X157171Y154846D01*
X157150Y154815D01*
X157127Y154783D01*
X157106Y154753D01*
X157091Y154734D01*
X156870Y154459D01*
X156709Y154276D01*
X156598Y154161D01*
X156512Y154075D01*
X156333Y153904D01*
X156030Y153648D01*
X155972Y153603D01*
X155896Y153546D01*
X155818Y153490D01*
X155739Y153435D01*
X155675Y153392D01*
X155610Y153349D01*
X155544Y153306D01*
X155477Y153265D01*
X155409Y153223D01*
X155341Y153183D01*
X155271Y153143D01*
X155201Y153103D01*
X155129Y153065D01*
X155057Y153026D01*
X154984Y152989D01*
X154910Y152952D01*
X154835Y152916D01*
X154760Y152880D01*
X154683Y152845D01*
X154605Y152811D01*
X154527Y152777D01*
X154448Y152744D01*
X154367Y152712D01*
X154286Y152681D01*
X154204Y152650D01*
X154121Y152620D01*
X154038Y152590D01*
X153953Y152561D01*
X153889Y152540D01*
X153824Y152520D01*
X153759Y152499D01*
X153694Y152480D01*
X153628Y152460D01*
X153561Y152441D01*
X153494Y152423D01*
X153426Y152405D01*
X153358Y152387D01*
X153290Y152370D01*
X153221Y152353D01*
X153151Y152337D01*
X153081Y152321D01*
X153010Y152305D01*
X152939Y152290D01*
X152868Y152276D01*
X152796Y152262D01*
X152723Y152248D01*
X152650Y152235D01*
X152576Y152223D01*
X152502Y152210D01*
X152427Y152199D01*
X152352Y152187D01*
X152277Y152177D01*
X152201Y152166D01*
X152124Y152157D01*
X152047Y152147D01*
X151969Y152139D01*
X151891Y152130D01*
X151813Y152122D01*
X151734Y152115D01*
X151654Y152108D01*
X151574Y152102D01*
X151493Y152096D01*
X151412Y152091D01*
X151330Y152086D01*
X151248Y152082D01*
X151166Y152078D01*
X151083Y152075D01*
X151082Y152075D01*
X150999Y152073D01*
X150999Y152073D01*
X150971Y152072D01*
X150843Y152057D01*
X150589Y152034D01*
X150342Y152020D01*
X149919Y152025D01*
X149894Y152027D01*
X149820Y152032D01*
X149784Y152036D01*
X149784Y152036D01*
X149686Y152045D01*
X149491Y152072D01*
X149297Y152107D01*
X149105Y152150D01*
X149011Y152175D01*
X148986Y152182D01*
X148937Y152196D01*
X148888Y152210D01*
X148838Y152225D01*
X148794Y152239D01*
X148753Y152252D01*
X148712Y152266D01*
X148671Y152280D01*
X148635Y152293D01*
X148602Y152305D01*
X148569Y152317D01*
X148536Y152330D01*
X148503Y152342D01*
X148471Y152355D01*
X148439Y152368D01*
X148406Y152382D01*
X148390Y152388D01*
Y152388D01*
X148376Y152394D01*
X148347Y152407D01*
X148319Y152419D01*
X148291Y152431D01*
X148263Y152444D01*
X148234Y152457D01*
X148206Y152470D01*
X148179Y152483D01*
X148153Y152496D01*
X148128Y152507D01*
X148104Y152519D01*
X148080Y152531D01*
X148068Y152538D01*
Y152538D01*
X148056Y152544D01*
X148032Y152556D01*
X148021Y152561D01*
X147894Y152635D01*
X147876Y152646D01*
X147755Y152721D01*
X147457Y152909D01*
X147421Y152935D01*
X147324Y153007D01*
X147288Y153034D01*
X147248Y153064D01*
X147209Y153094D01*
X147170Y153125D01*
X147131Y153155D01*
X147092Y153186D01*
X147051Y153219D01*
X147010Y153253D01*
X146968Y153287D01*
X146910Y153337D01*
X146936Y153314D01*
X146894Y153349D01*
X146806Y153425D01*
X146831Y153402D01*
X146894Y153349D01*
X146933Y153316D01*
X146900Y153343D01*
X146831Y153402D01*
X146856Y153379D01*
X146900Y153343D01*
X146941Y153308D01*
X146915Y153329D01*
X146856Y153379D01*
X146881Y153356D01*
X146915Y153329D01*
X146952Y153297D01*
X146931Y153315D01*
X146881Y153356D01*
X146905Y153335D01*
X146931Y153315D01*
X146965Y153285D01*
X146947Y153299D01*
X146905Y153335D01*
X146927Y153315D01*
X146947Y153299D01*
X146981Y153271D01*
X146967Y153282D01*
X146999Y153255D01*
X146987Y153264D01*
X146950Y153295D01*
X146973Y153276D01*
X146987Y153264D01*
X147018Y153239D01*
X147008Y153246D01*
X146973Y153276D01*
X146996Y153256D01*
X147008Y153246D01*
X147038Y153222D01*
X147029Y153228D01*
X147058Y153205D01*
X147051Y153210D01*
X147019Y153236D01*
X147042Y153217D01*
X147051Y153210D01*
X147061Y153202D01*
X147052Y153208D01*
X147042Y153217D01*
X147049Y153210D01*
X147042Y153217D01*
X147019Y153236D01*
X146996Y153256D01*
X146973Y153276D01*
X146950Y153295D01*
X146927Y153315D01*
X146905Y153335D01*
X146881Y153356D01*
X146856Y153379D01*
X146831Y153402D01*
X146806Y153425D01*
X146780Y153449D01*
X146753Y153475D01*
X146726Y153501D01*
X146699Y153527D01*
X146671Y153554D01*
X146642Y153584D01*
X146613Y153613D01*
X146584Y153642D01*
X146554Y153674D01*
X146520Y153709D01*
X146487Y153745D01*
X146455Y153780D01*
X146415Y153824D01*
X146368Y153877D01*
X146323Y153930D01*
X146277Y153984D01*
X146190Y154090D01*
X146066Y154251D01*
X145948Y154416D01*
X145834Y154585D01*
X145781Y154671D01*
X145770Y154688D01*
X145750Y154721D01*
X145729Y154754D01*
X145709Y154788D01*
X145699Y154805D01*
X145691Y154818D01*
X145675Y154846D01*
X145659Y154874D01*
X145644Y154901D01*
X145629Y154927D01*
X145616Y154952D01*
X145602Y154976D01*
X145589Y155001D01*
X145582Y155013D01*
X145582Y155013D01*
X145537Y155100D01*
X145499Y155174D01*
X145463Y155248D01*
X145433Y155310D01*
X145405Y155373D01*
X145377Y155435D01*
X145356Y155484D01*
X145335Y155534D01*
X145315Y155584D01*
X145295Y155634D01*
X145276Y155683D01*
X145258Y155733D01*
X145240Y155783D01*
X145223Y155832D01*
X145210Y155869D01*
X145198Y155906D01*
X145186Y155943D01*
X145174Y155980D01*
X145163Y156017D01*
X145152Y156054D01*
X145141Y156091D01*
X145131Y156128D01*
X145121Y156165D01*
X145112Y156201D01*
X145103Y156238D01*
X145094Y156274D01*
X145085Y156311D01*
X145077Y156347D01*
X145069Y156383D01*
X145062Y156419D01*
X145055Y156455D01*
X145048Y156491D01*
X145042Y156527D01*
X145038Y156551D01*
X145034Y156575D01*
X145030Y156599D01*
X145026Y156622D01*
X145023Y156646D01*
X145020Y156669D01*
X145017Y156693D01*
X145014Y156717D01*
X145011Y156740D01*
X145008Y156763D01*
X145006Y156787D01*
X145003Y156810D01*
X145001Y156833D01*
X144999Y156856D01*
X144997Y156879D01*
X144996Y156902D01*
X144994Y156925D01*
X144993Y156948D01*
X144992Y156971D01*
X144991Y156993D01*
X144990Y157016D01*
X144989Y157039D01*
X144989Y157061D01*
X144988Y157083D01*
X144988Y157109D01*
X144988Y157120D01*
X144988Y157128D01*
X144988Y157150D01*
X144989Y157173D01*
X144989Y157194D01*
X144990Y157217D01*
X144990Y157238D01*
X144991Y157260D01*
X144993Y157282D01*
X144994Y157304D01*
X144995Y157325D01*
X144997Y157346D01*
X144999Y157368D01*
X145001Y157389D01*
X145003Y157410D01*
X145005Y157431D01*
X145008Y157452D01*
X145010Y157473D01*
X145013Y157494D01*
X145016Y157515D01*
X145019Y157536D01*
X145023Y157556D01*
X145026Y157576D01*
X145030Y157597D01*
X145034Y157617D01*
X145038Y157637D01*
X145042Y157657D01*
X145046Y157677D01*
X145051Y157697D01*
X145056Y157717D01*
X145061Y157736D01*
X145066Y157755D01*
X145071Y157775D01*
X145077Y157794D01*
X145082Y157813D01*
X145088Y157832D01*
X145094Y157851D01*
X145100Y157870D01*
X145106Y157889D01*
X145113Y157907D01*
X145120Y157926D01*
X145126Y157944D01*
X145133Y157962D01*
X145141Y157980D01*
X145148Y157998D01*
X145156Y158016D01*
X145163Y158034D01*
X145171Y158051D01*
X145179Y158069D01*
X145192Y158095D01*
X145205Y158120D01*
X145206Y158123D01*
X145210Y158130D01*
X145213Y158136D01*
X145217Y158142D01*
X145220Y158149D01*
X145223Y158155D01*
X145227Y158161D01*
X145230Y158167D01*
X145234Y158174D01*
X145237Y158180D01*
X145241Y158186D01*
X145244Y158192D01*
X145246Y158195D01*
X145251Y158204D01*
X145255Y158211D01*
X145259Y158217D01*
X145263Y158223D01*
X145266Y158229D01*
X145270Y158235D01*
X145274Y158241D01*
X145276Y158244D01*
X145276D01*
X145278Y158247D01*
X145281Y158253D01*
X145285Y158258D01*
X145289Y158265D01*
X145291Y158267D01*
X145294Y158271D01*
X145299Y158279D01*
X145304Y158287D01*
X145309Y158295D01*
X145315Y158302D01*
X145320Y158310D01*
X145326Y158318D01*
X145331Y158325D01*
X145334Y158329D01*
Y158329D01*
X145337Y158333D01*
X145342Y158341D01*
X145348Y158348D01*
X145354Y158355D01*
X145357Y158359D01*
X145360Y158364D01*
X145368Y158373D01*
X145375Y158382D01*
X145382Y158391D01*
X145386Y158396D01*
X145391Y158402D01*
X145402Y158415D01*
X145413Y158427D01*
X145424Y158439D01*
X145429Y158445D01*
Y158445D01*
X145454Y158473D01*
X145506Y158525D01*
X145561Y158574D01*
X145618Y158620D01*
X145653Y158645D01*
X145663Y158652D01*
X145673Y158659D01*
X145682Y158666D01*
X145687Y158669D01*
X145692Y158672D01*
X145700Y158677D01*
X145708Y158683D01*
X145716Y158688D01*
X145720Y158691D01*
X145724Y158694D01*
X145732Y158699D01*
X145741Y158704D01*
X145749Y158709D01*
X145756Y158713D01*
X145763Y158717D01*
X145769Y158721D01*
X145776Y158725D01*
X145779Y158727D01*
X145782Y158729D01*
X145789Y158732D01*
X145795Y158736D01*
X145802Y158739D01*
X145805Y158741D01*
Y158741D01*
X145808Y158743D01*
X145815Y158747D01*
X145821Y158750D01*
X145828Y158754D01*
X145835Y158757D01*
X145841Y158761D01*
X145848Y158764D01*
X145855Y158768D01*
X145861Y158771D01*
X145868Y158774D01*
X145875Y158778D01*
X145882Y158781D01*
X145889Y158784D01*
X145896Y158788D01*
X145903Y158791D01*
X145910Y158794D01*
X145913Y158796D01*
X145932Y158804D01*
X145951Y158812D01*
X145970Y158820D01*
X145989Y158828D01*
X146009Y158836D01*
X146028Y158843D01*
X146048Y158850D01*
X146069Y158857D01*
X146089Y158864D01*
X146109Y158871D01*
X146130Y158877D01*
X146151Y158884D01*
X146172Y158889D01*
X146194Y158895D01*
X146215Y158901D01*
X146237Y158906D01*
X146259Y158911D01*
X146281Y158916D01*
X146303Y158921D01*
X146326Y158926D01*
X146349Y158930D01*
X146372Y158934D01*
X146395Y158938D01*
X146418Y158942D01*
X146442Y158945D01*
X146466Y158948D01*
X146490Y158951D01*
X146514Y158954D01*
X146538Y158957D01*
X146563Y158959D01*
X146588Y158961D01*
X146613Y158963D01*
X146638Y158965D01*
X146664Y158966D01*
X146689Y158967D01*
X146715Y158968D01*
X146741Y158969D01*
X146768Y158969D01*
X146794Y158970D01*
X146821Y158970D01*
X146848Y158969D01*
X146875Y158969D01*
X146902Y158968D01*
X146930Y158967D01*
X146958Y158966D01*
X146986Y158965D01*
X147014Y158963D01*
X147042Y158961D01*
X147071Y158959D01*
X147100Y158957D01*
X147129Y158954D01*
X147158Y158951D01*
X147188Y158948D01*
X147217Y158944D01*
X147247Y158941D01*
X147277Y158937D01*
X147308Y158933D01*
X147338Y158928D01*
X147369Y158924D01*
X147400Y158919D01*
X147432Y158914D01*
X147463Y158908D01*
X147495Y158902D01*
X147527Y158896D01*
X147559Y158890D01*
X147591Y158884D01*
X147624Y158877D01*
X147656Y158870D01*
X147689Y158862D01*
X147722Y158855D01*
X147756Y158847D01*
X147790Y158839D01*
X147824Y158830D01*
X147858Y158822D01*
X147892Y158813D01*
X147926Y158803D01*
X147961Y158794D01*
X147996Y158784D01*
X148031Y158774D01*
X148067Y158764D01*
X148102Y158753D01*
X148138Y158742D01*
X148175Y158731D01*
X148211Y158719D01*
X148247Y158707D01*
X148284Y158695D01*
X148321Y158683D01*
X148358Y158670D01*
X148396Y158657D01*
X148434Y158644D01*
X148471Y158631D01*
X148510Y158617D01*
X148548Y158603D01*
X148587Y158588D01*
X148626Y158573D01*
X148664Y158558D01*
X148704Y158543D01*
X148743Y158528D01*
X148763Y158520D01*
X148781Y158487D01*
X148816Y158423D01*
X148854Y158359D01*
X148879Y158318D01*
X148892Y158297D01*
X148892Y158296D01*
X148912Y158265D01*
X148912Y158265D01*
X148941Y158222D01*
X148941Y158222D01*
X149000Y158137D01*
X149000Y158137D01*
X149061Y158054D01*
X149062Y158053D01*
X149126Y157973D01*
X149159Y157933D01*
X149159Y157933D01*
X149210Y157874D01*
X149316Y157760D01*
X149317Y157760D01*
X149428Y157651D01*
X149428Y157650D01*
X149546Y157546D01*
X149606Y157497D01*
X149622Y157483D01*
X149655Y157458D01*
X149689Y157432D01*
X149722Y157407D01*
X149739Y157395D01*
X149752Y157385D01*
X149779Y157367D01*
X149805Y157348D01*
X149832Y157330D01*
X149846Y157321D01*
X149846Y157321D01*
X149857Y157314D01*
X149879Y157299D01*
X149902Y157285D01*
X149925Y157271D01*
X149936Y157264D01*
X149946Y157257D01*
X149967Y157245D01*
X149987Y157232D01*
X150008Y157220D01*
X150019Y157214D01*
X150028Y157209D01*
X150046Y157199D01*
X150065Y157188D01*
X150084Y157178D01*
X150093Y157173D01*
X150102Y157168D01*
X150119Y157159D01*
X150137Y157150D01*
X150154Y157141D01*
X150163Y157136D01*
X150172Y157132D01*
X150188Y157124D01*
X150205Y157116D01*
X150222Y157108D01*
X150230Y157104D01*
X150238Y157100D01*
X150253Y157093D01*
X150269Y157086D01*
X150284Y157079D01*
X150292Y157075D01*
X150299Y157072D01*
X150314Y157065D01*
X150328Y157059D01*
X150343Y157053D01*
X150343Y157053D01*
X150350Y157050D01*
X150350Y157050D01*
X150357Y157047D01*
X150357Y157047D01*
X150372Y157041D01*
X150372Y157041D01*
X150386Y157035D01*
X150386Y157035D01*
X150401Y157029D01*
X150401Y157029D01*
X150408Y157026D01*
X150408Y157026D01*
X150415Y157023D01*
X150415Y157023D01*
X150428Y157018D01*
X150428Y157018D01*
X150441Y157013D01*
X150442Y157013D01*
X150455Y157008D01*
X150455Y157008D01*
X150461Y157005D01*
X150462Y157005D01*
X150468Y157003D01*
X150468Y157003D01*
X150482Y156998D01*
X150482Y156998D01*
X150495Y156993D01*
X150495Y156993D01*
X150509Y156988D01*
X150509Y156988D01*
X150515Y156986D01*
X150515Y156986D01*
X150522Y156983D01*
X150522Y156983D01*
X150536Y156979D01*
X150536Y156979D01*
X150549Y156974D01*
X150549Y156974D01*
X150563Y156970D01*
X150563Y156969D01*
X150569Y156967D01*
X150570Y156967D01*
X150575Y156965D01*
X150576Y156965D01*
X150588Y156961D01*
X150588Y156961D01*
X150600Y156957D01*
X150601Y156957D01*
X150612Y156954D01*
X150613Y156953D01*
X150619Y156952D01*
X150619Y156951D01*
X150625Y156950D01*
X150625Y156949D01*
X150637Y156946D01*
X150638Y156946D01*
X150649Y156942D01*
X150650Y156942D01*
X150662Y156939D01*
X150663Y156938D01*
X150668Y156937D01*
X150669Y156937D01*
X150674Y156935D01*
X150675Y156935D01*
X150687Y156931D01*
X150688Y156931D01*
X150699Y156928D01*
X150700Y156928D01*
X150712Y156924D01*
X150713Y156924D01*
X150718Y156923D01*
X150719Y156923D01*
X150724Y156921D01*
X150726Y156921D01*
X150736Y156918D01*
X150739Y156917D01*
X150749Y156915D01*
X150761Y156912D01*
X150768Y156910D01*
X150768Y156910D01*
X150774Y156908D01*
X150787Y156905D01*
X150799Y156902D01*
X150812Y156899D01*
X150818Y156898D01*
X150824Y156896D01*
X150837Y156894D01*
X150849Y156891D01*
X150862Y156888D01*
X150868Y156887D01*
X150874Y156886D01*
X150887Y156883D01*
X150899Y156881D01*
X150911Y156878D01*
X150918Y156877D01*
X150918Y156877D01*
X150924Y156876D01*
X150937Y156873D01*
X150950Y156871D01*
X150962Y156869D01*
X150968Y156868D01*
X150974Y156867D01*
X150985Y156865D01*
X150997Y156863D01*
X151008Y156861D01*
X151019Y156860D01*
X151031Y156858D01*
X151042Y156857D01*
X151053Y156855D01*
X151065Y156853D01*
X151076Y156852D01*
X151087Y156851D01*
X151099Y156849D01*
X151104Y156849D01*
X151111Y156848D01*
X151123Y156846D01*
X151136Y156845D01*
X151148Y156844D01*
X151161Y156843D01*
X151174Y156842D01*
X151186Y156841D01*
X151199Y156840D01*
X151206Y156839D01*
X151211Y156839D01*
X151212D01*
X151224Y156838D01*
X151224D01*
X151236Y156837D01*
X151237D01*
X151249Y156836D01*
X151249Y156836D01*
X151256Y156836D01*
X151256Y156836D01*
X151262Y156835D01*
X151262Y156835D01*
X151274Y156835D01*
X151274D01*
X151287Y156834D01*
X151287Y156834D01*
X151300Y156834D01*
X151312Y156834D01*
X151325Y156833D01*
X151337Y156833D01*
X151350Y156833D01*
X151357Y156833D01*
X151357Y156833D01*
X151363Y156833D01*
X151375Y156832D01*
X151388Y156832D01*
X151388Y156832D01*
X151401Y156832D01*
X151413Y156833D01*
X151426Y156833D01*
X151438Y156833D01*
X151451Y156833D01*
X151464Y156834D01*
X151478Y156834D01*
X151492Y156835D01*
X151506Y156835D01*
X151513Y156836D01*
X151520Y156836D01*
X151533Y156837D01*
X151547Y156838D01*
X151561Y156839D01*
X151568Y156840D01*
X151575Y156840D01*
X151590Y156841D01*
X151605Y156843D01*
X151620Y156844D01*
X151628Y156845D01*
X151636Y156846D01*
X151652Y156848D01*
X151668Y156850D01*
X151684Y156852D01*
X151692Y156853D01*
X151693Y156853D01*
Y156853D01*
X151701Y156854D01*
X151719Y156856D01*
X151736Y156859D01*
X151754Y156862D01*
X151762Y156863D01*
X151771Y156865D01*
X151790Y156868D01*
X151809Y156871D01*
X151827Y156875D01*
X151836Y156877D01*
X151848Y156879D01*
X151870Y156884D01*
X151892Y156889D01*
X151914Y156894D01*
X151925Y156897D01*
X151940Y156900D01*
X151969Y156908D01*
X151998Y156916D01*
X152027Y156924D01*
X152042Y156929D01*
X152101Y156948D01*
X152218Y156991D01*
X152333Y157041D01*
X152444Y157097D01*
X152498Y157128D01*
X152508Y157133D01*
X152526Y157144D01*
X152544Y157155D01*
X152562Y157166D01*
X152571Y157172D01*
X152578Y157177D01*
X152593Y157186D01*
X152607Y157196D01*
X152621Y157205D01*
X152629Y157210D01*
X152635Y157214D01*
X152647Y157223D01*
X152659Y157231D01*
X152671Y157240D01*
X152677Y157244D01*
X152683Y157248D01*
X152693Y157256D01*
X152704Y157264D01*
X152715Y157272D01*
X152721Y157276D01*
X152726Y157280D01*
X152735Y157287D01*
Y157287D01*
X152745Y157295D01*
Y157295D01*
X152755Y157302D01*
Y157302D01*
X152759Y157305D01*
Y157305D01*
X152763Y157309D01*
Y157309D01*
X152772Y157316D01*
Y157316D01*
X152780Y157323D01*
X152788Y157329D01*
X152793Y157333D01*
X152797Y157336D01*
X152806Y157344D01*
X152814Y157351D01*
X152823Y157358D01*
X152831Y157365D01*
X152840Y157373D01*
X152849Y157380D01*
X152856Y157387D01*
X152861Y157391D01*
X152861Y157391D01*
X152890Y157417D01*
X152919Y157444D01*
X152948Y157472D01*
X152972Y157496D01*
X152996Y157521D01*
X153020Y157546D01*
X153044Y157571D01*
X153068Y157597D01*
X153091Y157624D01*
X153110Y157646D01*
X153129Y157669D01*
X153148Y157692D01*
X153167Y157716D01*
X152751Y157787D01*
X152657Y157805D01*
X152657Y157805D01*
X152564Y157824D01*
X152471Y157843D01*
X152380Y157863D01*
X152288Y157883D01*
X152198Y157904D01*
X152109Y157926D01*
X152020Y157948D01*
X151932Y157971D01*
X151845Y157994D01*
X151759Y158018D01*
X151673Y158042D01*
X151588Y158066D01*
X151504Y158092D01*
X151420Y158118D01*
X151338Y158144D01*
X151256Y158171D01*
X151174Y158198D01*
X151094Y158226D01*
X151014Y158254D01*
X150935Y158283D01*
X150857Y158313D01*
X150779Y158343D01*
X150703Y158373D01*
X150627Y158404D01*
X150551Y158435D01*
X150477Y158467D01*
X150403Y158499D01*
X150330Y158532D01*
X150257Y158565D01*
X150186Y158598D01*
X150115Y158632D01*
X150045Y158667D01*
X149975Y158702D01*
X149906Y158737D01*
X149838Y158773D01*
X149771Y158809D01*
X149704Y158845D01*
X149638Y158882D01*
X149573Y158920D01*
X149509Y158958D01*
X149424Y159009D01*
X149340Y159060D01*
X149258Y159113D01*
X149177Y159166D01*
X149097Y159220D01*
X149018Y159274D01*
X148941Y159329D01*
X148865Y159385D01*
X148790Y159441D01*
X148716Y159498D01*
X148644Y159555D01*
X148573Y159614D01*
X148503Y159672D01*
X148434Y159731D01*
X148367Y159791D01*
X148284Y159867D01*
X148204Y159943D01*
X148125Y160020D01*
X148048Y160098D01*
X147973Y160177D01*
X147900Y160256D01*
X147829Y160336D01*
X147818Y160348D01*
X147797Y160372D01*
X147776Y160397D01*
X147756Y160421D01*
X147735Y160445D01*
X147715Y160470D01*
X147695Y160494D01*
X147675Y160519D01*
X147665Y160531D01*
X147655Y160543D01*
X147636Y160568D01*
X147616Y160593D01*
X147597Y160618D01*
X147578Y160643D01*
X147559Y160667D01*
X147540Y160692D01*
X147525Y160713D01*
X147260Y161103D01*
D01*
X147031Y161508D01*
X147017Y161537D01*
X147007Y161556D01*
X147007Y161556D01*
X146996Y161578D01*
X146975Y161623D01*
X146953Y161667D01*
X146933Y161711D01*
X146912Y161758D01*
X146890Y161807D01*
X146869Y161856D01*
X146848Y161906D01*
X146826Y161959D01*
X146803Y162018D01*
X146781Y162076D01*
X146759Y162135D01*
X146737Y162198D01*
X146714Y162266D01*
X146692Y162334D01*
X146671Y162403D01*
X146650Y162475D01*
X146628Y162553D01*
X146608Y162630D01*
X146589Y162708D01*
X146569Y162793D01*
X146550Y162884D01*
X146533Y162976D01*
X146517Y163068D01*
X146510Y163114D01*
X146501Y163169D01*
X146487Y163279D01*
X146475Y163389D01*
X146465Y163499D01*
X146457Y163616D01*
X146452Y163739D01*
X146450Y163863D01*
X146450Y163986D01*
X146452Y164048D01*
X146454Y164111D01*
X146461Y164237D01*
X146472Y164364D01*
X146485Y164490D01*
X146501Y164613D01*
X146520Y164733D01*
X146542Y164852D01*
X146566Y164971D01*
X146580Y165030D01*
X146594Y165089D01*
X146624Y165206D01*
X146657Y165322D01*
X146693Y165438D01*
X146732Y165552D01*
X146774Y165665D01*
X146818Y165778D01*
X146865Y165889D01*
X146890Y165944D01*
X146918Y166007D01*
X146979Y166131D01*
X147044Y166254D01*
X147112Y166375D01*
X147147Y166435D01*
X147147D01*
X147269Y166638D01*
X147552Y167018D01*
X147871Y167369D01*
X148224Y167687D01*
X148415Y167827D01*
X148441Y167847D01*
X148495Y167885D01*
X148549Y167923D01*
X148603Y167959D01*
X148653Y167992D01*
X148697Y168020D01*
X148741Y168048D01*
X148786Y168075D01*
X148827Y168100D01*
X148864Y168122D01*
X148901Y168143D01*
X148939Y168164D01*
X148958Y168175D01*
X148975Y168184D01*
X149009Y168202D01*
X149043Y168220D01*
X149077Y168238D01*
X149095Y168247D01*
X149112Y168256D01*
X149147Y168274D01*
X149182Y168291D01*
X149217Y168308D01*
X149250Y168324D01*
X149281Y168338D01*
X149313Y168352D01*
X149344Y168367D01*
X149376Y168380D01*
X149407Y168394D01*
X149439Y168408D01*
X149471Y168421D01*
X149501Y168433D01*
X149529Y168445D01*
X149557Y168456D01*
X149585Y168467D01*
X149599Y168472D01*
X149613Y168477D01*
X149641Y168488D01*
X149670Y168499D01*
X149698Y168509D01*
X149724Y168518D01*
X149748Y168527D01*
X149772Y168535D01*
X149796Y168543D01*
X149820Y168551D01*
X149844Y168559D01*
X149869Y168567D01*
X149893Y168575D01*
X149917Y168583D01*
X149942Y168590D01*
X149966Y168598D01*
X149991Y168605D01*
X150016Y168613D01*
X150040Y168620D01*
X150065Y168627D01*
X150090Y168634D01*
X150115Y168641D01*
X150141Y168648D01*
X150166Y168654D01*
X150191Y168661D01*
X150204Y168664D01*
X150204Y168664D01*
X150216Y168667D01*
X150242Y168674D01*
X150267Y168680D01*
X150293Y168686D01*
X150305Y168689D01*
Y168689D01*
X150388Y168708D01*
X150471Y168726D01*
X150555Y168743D01*
X150640Y168758D01*
X150726Y168772D01*
X150812Y168786D01*
X150899Y168798D01*
X150987Y168808D01*
X151075Y168818D01*
X151165Y168827D01*
X151255Y168834D01*
X151346Y168840D01*
X151415Y168844D01*
X151484Y168847D01*
X151553Y168850D01*
X151623Y168851D01*
X151693Y168852D01*
X151764Y168852D01*
X151835Y168852D01*
D02*
G37*
G36*
X119443Y178443D02*
X119045Y177946D01*
X118042Y176595D01*
X116902Y174885D01*
X115741Y172700D01*
X114380Y169555D01*
X113736Y167328D01*
X113293Y165270D01*
X112976Y163275D01*
X112875Y161437D01*
X112833Y160955D01*
X52917D01*
X52853Y161451D01*
X119171Y178862D01*
X119443Y178443D01*
D02*
G37*
G36*
X162096Y168998D02*
X162115Y168995D01*
X162135Y168992D01*
X162154Y168989D01*
X162173Y168986D01*
X162192Y168983D01*
X162211Y168980D01*
X162230Y168976D01*
X162248Y168973D01*
X162267Y168969D01*
X162285Y168966D01*
X162303Y168962D01*
X162322Y168958D01*
X162340Y168955D01*
X162358Y168951D01*
X162376Y168947D01*
X162393Y168943D01*
X162411Y168938D01*
X162429Y168934D01*
X162446Y168930D01*
X162463Y168925D01*
X162480Y168921D01*
X162498Y168916D01*
X162515Y168912D01*
X162531Y168907D01*
X162548Y168902D01*
X162565Y168897D01*
X162582Y168892D01*
X162598Y168887D01*
X162614Y168882D01*
X162630Y168877D01*
X162647Y168871D01*
X162663Y168866D01*
X162679Y168860D01*
X162702Y168852D01*
X162726Y168843D01*
X162749Y168835D01*
X162772Y168826D01*
X162795Y168817D01*
X162817Y168807D01*
X162839Y168798D01*
X162861Y168788D01*
X162883Y168779D01*
X162905Y168769D01*
X162926Y168759D01*
X162947Y168748D01*
X162968Y168738D01*
X162989Y168727D01*
X163009Y168716D01*
X163036Y168702D01*
X163320Y168497D01*
X163498Y168332D01*
X163657Y168140D01*
X163755Y167990D01*
X163917Y167689D01*
X163920Y167684D01*
X163928Y167664D01*
X163935Y167644D01*
X163943Y167624D01*
X163951Y167603D01*
X163958Y167583D01*
X163966Y167562D01*
X163973Y167542D01*
X163980Y167521D01*
X163987Y167500D01*
X163994Y167479D01*
X164000Y167458D01*
X164005Y167444D01*
X164009Y167430D01*
X164013Y167416D01*
X164017Y167402D01*
X164021Y167387D01*
X164025Y167373D01*
X164029Y167359D01*
X164033Y167344D01*
X164037Y167330D01*
X164041Y167315D01*
X164044Y167301D01*
X164048Y167287D01*
X164052Y167272D01*
X164055Y167257D01*
X164059Y167243D01*
X164062Y167228D01*
X164066Y167213D01*
X164069Y167198D01*
X164072Y167183D01*
X164075Y167169D01*
X164078Y167154D01*
X164082Y167139D01*
X164085Y167124D01*
X164088Y167109D01*
X164091Y167094D01*
X164093Y167079D01*
X164096Y167063D01*
X164099Y167048D01*
X164102Y167033D01*
X164104Y167018D01*
X164107Y167003D01*
X164110Y166987D01*
X164112Y166972D01*
X164115Y166957D01*
X164117Y166941D01*
X164119Y166926D01*
X164122Y166910D01*
X164124Y166895D01*
X164126Y166879D01*
X164128Y166864D01*
X164130Y166848D01*
X164132Y166832D01*
X164135Y166816D01*
X164137Y166801D01*
X164138Y166785D01*
X164140Y166769D01*
X164142Y166753D01*
X164144Y166738D01*
X164146Y166722D01*
X164147Y166706D01*
X164149Y166690D01*
X164151Y166674D01*
X164152Y166658D01*
X164154Y166642D01*
X164155Y166626D01*
X164156Y166610D01*
X164158Y166593D01*
X164159Y166577D01*
X164160Y166561D01*
X164162Y166545D01*
X164163Y166529D01*
X164164Y166512D01*
X164165Y166496D01*
X164166Y166480D01*
X164167Y166463D01*
X164168Y166447D01*
X164169Y166430D01*
X164170Y166414D01*
X164171Y166398D01*
X164172Y166381D01*
X164172Y166365D01*
X164173Y166348D01*
X164174Y166332D01*
X164174Y166315D01*
X164175Y166298D01*
X164176Y166282D01*
X164176Y166265D01*
X164177Y166248D01*
X164177Y166232D01*
X164178Y166215D01*
X164178Y166198D01*
X164178Y166181D01*
X164179Y166164D01*
X164179Y166148D01*
X164179Y166131D01*
X164180Y166114D01*
X164180Y166097D01*
X164180Y166080D01*
X164180Y166063D01*
X164180Y166046D01*
X164180Y166029D01*
X164180Y166012D01*
X164180Y165995D01*
X164180Y165978D01*
X164180Y165961D01*
X164180Y165944D01*
X164180Y165927D01*
X164180Y165910D01*
X164179Y165893D01*
X164179Y165875D01*
X164179Y165858D01*
X164178Y165841D01*
X164178Y165824D01*
X164178Y165806D01*
X164177Y165789D01*
X164177Y165772D01*
X164176Y165755D01*
X164176Y165737D01*
X164175Y165720D01*
X164175Y165703D01*
X164174Y165685D01*
X164174Y165668D01*
X164173Y165651D01*
X164173Y165633D01*
X164172Y165616D01*
X164171Y165598D01*
X164171Y165581D01*
X164170Y165563D01*
X164169Y165546D01*
X164168Y165529D01*
X164167Y165511D01*
X164167Y165494D01*
X164166Y165476D01*
X164165Y165459D01*
X164164Y165441D01*
X164163Y165424D01*
X164162Y165406D01*
X164161Y165388D01*
X164160Y165371D01*
X164159Y165353D01*
X164158Y165336D01*
X164157Y165318D01*
X164155Y165283D01*
X164153Y165247D01*
X164152Y165230D01*
X164150Y165212D01*
X164148Y165177D01*
X164146Y165141D01*
X164143Y165106D01*
X164140Y165070D01*
X164138Y165044D01*
X164136Y165008D01*
X164134Y164982D01*
X164131Y164955D01*
X164130Y164937D01*
X164127Y164902D01*
X164125Y164875D01*
X164123Y164848D01*
X164120Y164813D01*
X164118Y164786D01*
X164113Y164733D01*
X164111Y164706D01*
X164108Y164679D01*
X164107Y164670D01*
X164107Y164661D01*
X164103Y164626D01*
X164101Y164599D01*
X164099Y164572D01*
X164096Y164546D01*
X164093Y164519D01*
X164091Y164492D01*
X164087Y164448D01*
X164084Y164412D01*
X164083Y164403D01*
X164081Y164385D01*
X164079Y164368D01*
X164078Y164359D01*
X164072Y164288D01*
X164066Y164226D01*
X164054Y164102D01*
X164053Y164093D01*
X164050Y164066D01*
X164049Y164057D01*
X164045Y164013D01*
X164044Y164004D01*
X164043Y163987D01*
X164042Y163978D01*
X164041Y163969D01*
X164035Y163908D01*
X164034Y163899D01*
X164033Y163890D01*
X164027Y163820D01*
X164022Y163767D01*
X164019Y163732D01*
X164015Y163697D01*
X164015Y163689D01*
X164014Y163680D01*
X164012Y163654D01*
X164008Y163619D01*
X164005Y163576D01*
X164002Y163550D01*
X164000Y163524D01*
X163997Y163489D01*
X163996Y163472D01*
X163993Y163446D01*
X163991Y163412D01*
X163988Y163386D01*
X163986Y163352D01*
X163984Y163326D01*
X163982Y163301D01*
X163980Y163284D01*
X163979Y163258D01*
X163977Y163241D01*
X163976Y163224D01*
X163974Y163199D01*
X163973Y163182D01*
X163972Y163165D01*
X163971Y163148D01*
X163970Y163131D01*
X163968Y163106D01*
X163967Y163097D01*
X163966Y163081D01*
X163965Y163056D01*
X163964Y163047D01*
X163963Y163030D01*
X163962Y163014D01*
X163961Y162997D01*
X163960Y162980D01*
X163959Y162964D01*
X163958Y162947D01*
X163957Y162931D01*
X163956Y162914D01*
X163956Y162898D01*
X163955Y162881D01*
X163954Y162865D01*
X163953Y162848D01*
X163953Y162832D01*
X163952Y162815D01*
X163951Y162799D01*
X163951Y162783D01*
X163950Y162767D01*
X163949Y162750D01*
X163949Y162734D01*
X163948Y162718D01*
X163947Y162702D01*
X163947Y162686D01*
X163946Y162669D01*
X163946Y162653D01*
X163946Y162637D01*
X163945Y162621D01*
X163945Y162605D01*
X163944Y162589D01*
X163944Y162573D01*
X163944Y162557D01*
X163944Y162541D01*
X163943Y162526D01*
X163943Y162510D01*
X163943Y162494D01*
X163943Y162478D01*
X163943Y162463D01*
X163943Y162447D01*
X163943Y162431D01*
Y162418D01*
X163943Y162400D01*
X163943Y162384D01*
X163943Y162369D01*
X163943Y162354D01*
X163943Y162338D01*
X163943Y162323D01*
X163944Y162307D01*
X163944Y162292D01*
X163944Y162277D01*
X163944Y162261D01*
X163945Y162246D01*
X163945Y162231D01*
X163946Y162216D01*
X163946Y162201D01*
X163947Y162186D01*
X163947Y162171D01*
X163948Y162156D01*
X163949Y162141D01*
X163949Y162126D01*
X163950Y162111D01*
X163951Y162096D01*
X163952Y162081D01*
X163952Y162066D01*
X163953Y162052D01*
X163954Y162037D01*
X163955Y162022D01*
X163956Y162008D01*
X163957Y162000D01*
X163955Y161979D01*
X163954Y161965D01*
X163952Y161951D01*
X163951Y161937D01*
X163949Y161909D01*
X163948Y161895D01*
X163947Y161881D01*
X163946Y161867D01*
X163945Y161853D01*
X163943Y161825D01*
X163942Y161811D01*
X163941Y161797D01*
X163939Y161783D01*
X163938Y161769D01*
X163937Y161755D01*
X163937Y161741D01*
X163936Y161727D01*
X163934Y161699D01*
X163933Y161685D01*
X163932Y161671D01*
X163930Y161643D01*
X163929Y161615D01*
X163927Y161586D01*
X163926Y161558D01*
X163924Y161530D01*
X163923Y161516D01*
X163922Y161488D01*
X163921Y161474D01*
X163920Y161460D01*
X163919Y161432D01*
X163918Y161404D01*
X163917Y161376D01*
X163916Y161355D01*
X163915Y161334D01*
X163915Y161327D01*
X163914Y161320D01*
X163913Y161299D01*
X163912Y161278D01*
X163912Y161271D01*
X163912Y161257D01*
X163910Y161229D01*
X163909Y161187D01*
X163908Y161166D01*
X163908Y161159D01*
X163908Y161145D01*
X163906Y161103D01*
X163906Y161089D01*
X163904Y161047D01*
X163904Y161033D01*
X163903Y161026D01*
X163903Y161012D01*
X163903Y161005D01*
X163902Y160992D01*
X163902Y160971D01*
X163900Y160922D01*
X163900Y160915D01*
X163900Y160908D01*
X163899Y160880D01*
X163899Y160866D01*
X163899Y160860D01*
X163898Y160839D01*
X163898Y160832D01*
X163897Y160818D01*
X163896Y160769D01*
X163895Y160742D01*
X163895Y160735D01*
X163893Y160659D01*
X163893Y160652D01*
X163892Y160611D01*
X163891Y160604D01*
X163891Y160590D01*
X163890Y160549D01*
X163890Y160543D01*
X163889Y160536D01*
X163889Y160522D01*
X163889Y160515D01*
X163888Y160474D01*
X163886Y160433D01*
X163885Y160379D01*
X163884Y160365D01*
X163883Y160325D01*
X163882Y160291D01*
X163881Y160264D01*
X163880Y160223D01*
X163878Y160183D01*
X163876Y160143D01*
X163875Y160116D01*
X163874Y160096D01*
X163874Y160076D01*
X163873Y160050D01*
X163871Y160023D01*
X163870Y159990D01*
X163869Y159970D01*
X163868Y159957D01*
X163867Y159937D01*
X163866Y159917D01*
X163865Y159891D01*
X163864Y159878D01*
X163863Y159865D01*
X163863Y159852D01*
X163862Y159839D01*
X163861Y159826D01*
X163860Y159813D01*
X163859Y159800D01*
X163859Y159787D01*
X163857Y159761D01*
X163856Y159748D01*
X163855Y159722D01*
X163853Y159696D01*
X163852Y159683D01*
X163851Y159670D01*
X163850Y159657D01*
X163849Y159644D01*
X163848Y159632D01*
X163846Y159606D01*
X163845Y159593D01*
X163844Y159581D01*
X163843Y159568D01*
X163841Y159542D01*
X163840Y159530D01*
X163839Y159517D01*
X163837Y159504D01*
X163836Y159492D01*
X163835Y159479D01*
X163834Y159467D01*
X163833Y159454D01*
X163831Y159441D01*
X163830Y159429D01*
X163829Y159416D01*
X163828Y159404D01*
X163827Y159391D01*
X163825Y159379D01*
X163824Y159367D01*
X163822Y159354D01*
X163821Y159342D01*
X163820Y159329D01*
X163818Y159317D01*
X163817Y159305D01*
X163815Y159292D01*
X163814Y159280D01*
X163813Y159268D01*
X163811Y159255D01*
X163810Y159243D01*
X163808Y159231D01*
X163806Y159219D01*
X163805Y159206D01*
X163803Y159194D01*
X163802Y159182D01*
X163800Y159170D01*
X163798Y159158D01*
X163796Y159146D01*
X163795Y159134D01*
X163793Y159122D01*
X163791Y159110D01*
X163789Y159098D01*
X163788Y159086D01*
X163786Y159074D01*
X163784Y159062D01*
X163782Y159050D01*
X163780Y159038D01*
X163778Y159026D01*
X163776Y159014D01*
X163774Y159003D01*
X163772Y158991D01*
X163770Y158979D01*
X163768Y158967D01*
X163766Y158956D01*
X163764Y158944D01*
X163762Y158932D01*
X163760Y158921D01*
X163758Y158909D01*
X163755Y158897D01*
X163753Y158886D01*
X163751Y158874D01*
X163749Y158863D01*
X163746Y158851D01*
X163744Y158840D01*
X163741Y158828D01*
X163739Y158817D01*
X163736Y158805D01*
X163734Y158794D01*
X163732Y158782D01*
X163729Y158771D01*
X163726Y158760D01*
X163724Y158749D01*
X163721Y158737D01*
X163719Y158726D01*
X163716Y158715D01*
X163713Y158704D01*
X163711Y158693D01*
X163708Y158681D01*
X163705Y158670D01*
X163702Y158659D01*
X163699Y158648D01*
X163697Y158637D01*
X163694Y158626D01*
X163691Y158615D01*
X163688Y158604D01*
X163685Y158593D01*
X163682Y158582D01*
X163679Y158571D01*
X163675Y158561D01*
X163672Y158550D01*
X163669Y158539D01*
X163666Y158528D01*
X163663Y158517D01*
X163658Y158501D01*
X163653Y158485D01*
X163648Y158469D01*
X163643Y158454D01*
X163637Y158438D01*
X163632Y158422D01*
X163627Y158406D01*
X163621Y158391D01*
X163616Y158375D01*
X163610Y158360D01*
X163604Y158344D01*
X163599Y158329D01*
X163593Y158314D01*
X163587Y158298D01*
X163581Y158283D01*
X163575Y158268D01*
X163568Y158253D01*
X163562Y158238D01*
X163556Y158223D01*
X163549Y158209D01*
X163543Y158194D01*
X163536Y158179D01*
X163529Y158165D01*
X163523Y158150D01*
X163516Y158136D01*
X163509Y158121D01*
X163502Y158107D01*
X163494Y158093D01*
X163487Y158079D01*
X163480Y158064D01*
X163472Y158050D01*
X163465Y158036D01*
X163454Y158018D01*
X163444Y158000D01*
X163434Y157981D01*
X163423Y157963D01*
X163412Y157945D01*
X163401Y157928D01*
X163390Y157910D01*
X163378Y157892D01*
X163363Y157871D01*
X163349Y157849D01*
X163333Y157828D01*
X163318Y157807D01*
X163299Y157782D01*
X163280Y157757D01*
X163277Y157754D01*
X163271Y157747D01*
X163265Y157739D01*
X163259Y157732D01*
X163253Y157724D01*
X163054Y157545D01*
X162865Y157383D01*
X162450Y157178D01*
X162448Y157177D01*
X162430Y157171D01*
X162412Y157165D01*
X162394Y157158D01*
X162375Y157152D01*
X162357Y157146D01*
X162338Y157141D01*
X162320Y157135D01*
X162301Y157129D01*
X162282Y157124D01*
X162263Y157118D01*
X162243Y157113D01*
X162224Y157108D01*
X162204Y157103D01*
X162184Y157098D01*
X162164Y157093D01*
X162151Y157090D01*
X162137Y157087D01*
X162124Y157083D01*
X162110Y157080D01*
X162097Y157078D01*
X162083Y157074D01*
X162069Y157072D01*
X162055Y157069D01*
X162041Y157066D01*
X162027Y157063D01*
X162013Y157061D01*
X161999Y157058D01*
X161984Y157055D01*
X161970Y157053D01*
X161956Y157051D01*
X161941Y157048D01*
X161926Y157046D01*
X161912Y157043D01*
X161897Y157041D01*
X161882Y157039D01*
X161867Y157037D01*
X161853Y157035D01*
X161838Y157033D01*
X161822Y157031D01*
X161807Y157029D01*
X161792Y157027D01*
X161777Y157025D01*
X161761Y157023D01*
X161746Y157021D01*
X161730Y157020D01*
X161715Y157018D01*
X161699Y157017D01*
X161683Y157015D01*
X161667Y157014D01*
X161652Y157012D01*
X161635Y157011D01*
X161619Y157009D01*
X161136Y157034D01*
X161136D01*
X160699Y157184D01*
X160694Y157186D01*
X160563Y157255D01*
X160446Y157327D01*
X160299Y157437D01*
X160045Y157669D01*
X160029Y157688D01*
X160014Y157706D01*
X159999Y157725D01*
X159984Y157744D01*
X159969Y157763D01*
X159954Y157782D01*
X159940Y157801D01*
X159925Y157820D01*
X159911Y157840D01*
X159897Y157860D01*
X159884Y157880D01*
X159870Y157900D01*
X159857Y157920D01*
X159843Y157941D01*
X159830Y157961D01*
X159817Y157982D01*
X159805Y158003D01*
X159792Y158024D01*
X159778Y158048D01*
X159764Y158073D01*
X159750Y158098D01*
X159736Y158124D01*
X159723Y158149D01*
X159709Y158175D01*
X159696Y158200D01*
X159684Y158226D01*
X159671Y158252D01*
X159659Y158278D01*
X159647Y158305D01*
X159634Y158335D01*
X159620Y158365D01*
X159608Y158396D01*
X159595Y158427D01*
X159583Y158458D01*
X159570Y158493D01*
X159557Y158528D01*
X159544Y158563D01*
X159531Y158603D01*
X159518Y158642D01*
X159504Y158686D01*
X159490Y158734D01*
X159475Y158786D01*
X159460Y158843D01*
X159458Y158851D01*
X159454Y158867D01*
X159450Y158884D01*
X159446Y158900D01*
X159442Y158918D01*
X159438Y158938D01*
X159433Y158959D01*
X159429Y158979D01*
X159426Y158989D01*
X159423Y159005D01*
X159417Y159035D01*
X159411Y159066D01*
X159406Y159097D01*
X159395Y159157D01*
X159382Y159247D01*
X159371Y159337D01*
X159362Y159427D01*
X159359Y159473D01*
X159358Y159483D01*
X159356Y159502D01*
X159355Y159521D01*
X159354Y159541D01*
X159354Y159550D01*
X159354Y159550D01*
X159351Y159611D01*
X159350Y159664D01*
X159349Y159708D01*
X159349Y159713D01*
X159349Y159723D01*
X159349Y159733D01*
X159349Y159743D01*
X159349Y159748D01*
X159349Y159748D01*
X159350Y159788D01*
X159351Y159824D01*
X159352Y159856D01*
X159353Y159887D01*
X159368Y160004D01*
X159381Y160105D01*
X159391Y160192D01*
X159400Y160278D01*
X159409Y160364D01*
X159417Y160450D01*
X159424Y160522D01*
X159430Y160593D01*
X159435Y160664D01*
X159441Y160734D01*
X159446Y160805D01*
X159450Y160875D01*
X159455Y160945D01*
X159458Y161001D01*
X159461Y161057D01*
X159463Y161113D01*
X159466Y161168D01*
X159468Y161224D01*
X159470Y161279D01*
X159472Y161334D01*
X159474Y161389D01*
X159476Y161444D01*
X159477Y161498D01*
X159478Y161553D01*
X159479Y161594D01*
X159480Y161635D01*
X159480Y161675D01*
X159481Y161716D01*
X159481Y161756D01*
X159481Y161797D01*
X159482Y161837D01*
X159482Y161878D01*
X159482Y161918D01*
X159482Y161958D01*
X159482Y161998D01*
X159482Y162038D01*
X159481Y162078D01*
X159481Y162117D01*
X159480Y162157D01*
X159480Y162197D01*
X159479Y162236D01*
X159479Y162276D01*
X159478Y162302D01*
X159478Y162328D01*
X159477Y162354D01*
X159476Y162380D01*
X159476Y162407D01*
X159475Y162433D01*
X159475Y162459D01*
X159474Y162485D01*
X159473Y162511D01*
X159473Y162536D01*
X159472Y162562D01*
X159471Y162588D01*
X159470Y162614D01*
X159469Y162640D01*
X159468Y162665D01*
X159468Y162691D01*
X159467Y162717D01*
X159466Y162742D01*
X159465Y162768D01*
X159464Y162793D01*
X159463Y162819D01*
X159462Y162844D01*
X159461Y162870D01*
X159460Y162895D01*
X159458Y162920D01*
X159457Y162946D01*
X159456Y162971D01*
X159455Y162996D01*
X159454Y163021D01*
X159453Y163047D01*
X159451Y163072D01*
X159450Y163097D01*
X159449Y163122D01*
X159447Y163159D01*
X159445Y163197D01*
X159444Y163221D01*
X159441Y163271D01*
X159440Y163296D01*
X159438Y163333D01*
X159437Y163357D01*
X159434Y163406D01*
X159432Y163431D01*
X159430Y163468D01*
X159428Y163504D01*
X159426Y163541D01*
X159424Y163577D01*
X159422Y163601D01*
X159420Y163638D01*
X159418Y163674D01*
X159414Y163734D01*
X159412Y163770D01*
X159408Y163829D01*
X159407Y163841D01*
X159405Y163877D01*
X159403Y163912D01*
X159398Y163983D01*
X159397Y163995D01*
X159396Y164018D01*
X159395Y164030D01*
X159394Y164053D01*
X159393Y164065D01*
X159385Y164182D01*
X159384Y164193D01*
X159380Y164262D01*
X159378Y164285D01*
X159377Y164308D01*
X159375Y164343D01*
X159370Y164422D01*
X159368Y164456D01*
X159366Y164479D01*
X159365Y164490D01*
X159365Y164502D01*
X159363Y164524D01*
X159359Y164591D01*
X159359Y164602D01*
X159358Y164614D01*
X159356Y164636D01*
X159354Y164669D01*
X159353Y164702D01*
X159351Y164736D01*
X159349Y164758D01*
X159347Y164791D01*
X159346Y164813D01*
X159345Y164834D01*
X159343Y164878D01*
X159341Y164911D01*
X159340Y164932D01*
X159339Y164954D01*
X159337Y164986D01*
X159335Y165029D01*
X159334Y165061D01*
X159333Y165072D01*
X159332Y165104D01*
X159331Y165126D01*
X159330Y165147D01*
X159329Y165168D01*
X159328Y165189D01*
X159327Y165220D01*
X159326Y165252D01*
X159325Y165262D01*
X159325Y165283D01*
X159324Y165304D01*
X159323Y165325D01*
X159323Y165335D01*
X159323Y165346D01*
X159322Y165377D01*
X159321Y165398D01*
X159320Y165428D01*
X159320Y165449D01*
X159319Y165469D01*
X159319Y165490D01*
X159318Y165510D01*
X159318Y165531D01*
X159318Y165551D01*
X159317Y165581D01*
X159317Y165601D01*
X159317Y165621D01*
X159317Y165641D01*
X159317Y165662D01*
X159316Y165681D01*
X159316Y165701D01*
X159316Y165721D01*
Y165729D01*
X159316Y165734D01*
X159316Y165761D01*
X159316Y165780D01*
X159316Y165800D01*
X159317Y165820D01*
X159317Y165839D01*
X159317Y165859D01*
X159317Y165878D01*
X159318Y165898D01*
X159318Y165917D01*
X159318Y165937D01*
X159319Y165956D01*
X159319Y165975D01*
X159320Y165994D01*
X159320Y166013D01*
X159321Y166032D01*
X159321Y166051D01*
X159322Y166070D01*
X159323Y166089D01*
X159324Y166108D01*
X159325Y166127D01*
X159326Y166146D01*
X159326Y166164D01*
X159327Y166183D01*
X159328Y166202D01*
X159329Y166220D01*
X159331Y166239D01*
X159332Y166257D01*
X159333Y166276D01*
X159334Y166294D01*
X159336Y166312D01*
X159337Y166331D01*
X159338Y166349D01*
X159340Y166367D01*
X159342Y166385D01*
X159343Y166403D01*
X159345Y166421D01*
X159346Y166439D01*
X159348Y166457D01*
X159350Y166475D01*
X159352Y166492D01*
X159354Y166510D01*
X159356Y166528D01*
X159358Y166545D01*
X159360Y166563D01*
X159362Y166580D01*
X159364Y166598D01*
X159367Y166615D01*
X159369Y166633D01*
X159371Y166650D01*
X159374Y166667D01*
X159376Y166684D01*
X159379Y166702D01*
X159381Y166719D01*
X159384Y166736D01*
X159387Y166753D01*
X159390Y166770D01*
X159392Y166787D01*
X159395Y166803D01*
X159398Y166820D01*
X159402Y166837D01*
X159405Y166853D01*
X159408Y166870D01*
X159411Y166887D01*
X159415Y166903D01*
X159418Y166920D01*
X159421Y166936D01*
X159425Y166952D01*
X159429Y166969D01*
X159432Y166985D01*
X159436Y167001D01*
X159440Y167017D01*
X159444Y167033D01*
X159448Y167049D01*
X159452Y167065D01*
X159456Y167081D01*
X159460Y167097D01*
X159464Y167113D01*
X159468Y167128D01*
X159473Y167144D01*
X159477Y167160D01*
X159482Y167175D01*
X159487Y167191D01*
X159491Y167206D01*
X159496Y167222D01*
X159501Y167237D01*
X159506Y167252D01*
X159511Y167267D01*
X159516Y167283D01*
X159521Y167298D01*
X159526Y167313D01*
X159532Y167328D01*
X159540Y167350D01*
X159548Y167372D01*
X159557Y167394D01*
X159565Y167417D01*
X159574Y167438D01*
X159583Y167460D01*
X159592Y167482D01*
X159602Y167503D01*
X159611Y167525D01*
X159621Y167546D01*
X159631Y167567D01*
X159642Y167588D01*
X159652Y167609D01*
X159666Y167636D01*
X159681Y167664D01*
X159696Y167691D01*
X159711Y167718D01*
X159713Y167722D01*
X159718Y167730D01*
X159723Y167738D01*
X159728Y167747D01*
X159733Y167755D01*
X159738Y167763D01*
X159743Y167771D01*
X159748Y167780D01*
X159754Y167789D01*
X159760Y167798D01*
X159766Y167808D01*
X159773Y167818D01*
X159780Y167829D01*
X159789Y167842D01*
X159797Y167855D01*
X159806Y167868D01*
X159818Y167884D01*
X159832Y167905D01*
X159847Y167925D01*
X159863Y167945D01*
X159887Y167976D01*
X159920Y168017D01*
X159955Y168057D01*
X159990Y168096D01*
X160014Y168121D01*
X160025Y168132D01*
X160036Y168144D01*
X160047Y168155D01*
X160053Y168160D01*
X160057Y168165D01*
X160066Y168173D01*
X160074Y168181D01*
X160083Y168190D01*
X160091Y168197D01*
X160099Y168204D01*
X160106Y168211D01*
X160113Y168218D01*
X160117Y168221D01*
X160121Y168225D01*
X160128Y168231D01*
X160136Y168238D01*
X160143Y168245D01*
X160147Y168248D01*
Y168248D01*
X160172Y168270D01*
X160197Y168290D01*
X160223Y168311D01*
X160249Y168332D01*
X160269Y168347D01*
X160289Y168362D01*
X160310Y168377D01*
X160330Y168392D01*
X160351Y168407D01*
X160372Y168421D01*
X160394Y168436D01*
X160416Y168450D01*
X160438Y168464D01*
X160460Y168478D01*
X160483Y168492D01*
X160505Y168505D01*
X160521Y168514D01*
X160536Y168523D01*
X160552Y168532D01*
X160568Y168541D01*
X160584Y168550D01*
X160600Y168559D01*
X160616Y168567D01*
X160632Y168576D01*
X160649Y168584D01*
X160665Y168593D01*
X160682Y168601D01*
X160699Y168609D01*
X160716Y168618D01*
X160733Y168626D01*
X160750Y168634D01*
X160767Y168642D01*
X160785Y168650D01*
X160802Y168658D01*
X160820Y168666D01*
X160838Y168674D01*
X160856Y168681D01*
X160874Y168689D01*
X160892Y168696D01*
X160911Y168704D01*
X160929Y168711D01*
X160948Y168719D01*
X160967Y168726D01*
X160986Y168733D01*
X161005Y168741D01*
X161024Y168748D01*
X161044Y168755D01*
X161063Y168762D01*
X161083Y168769D01*
X161102Y168775D01*
X161122Y168782D01*
X161143Y168789D01*
X161163Y168796D01*
X161183Y168802D01*
X161204Y168809D01*
X161224Y168815D01*
X161245Y168822D01*
X161266Y168828D01*
X161287Y168834D01*
X161308Y168840D01*
X161330Y168846D01*
X161351Y168852D01*
X161373Y168859D01*
X161395Y168864D01*
X161416Y168870D01*
X161439Y168876D01*
X161461Y168882D01*
X161483Y168887D01*
X161506Y168893D01*
X161529Y168898D01*
X161551Y168904D01*
X161574Y168909D01*
X161598Y168914D01*
X161621Y168920D01*
X161644Y168925D01*
X161668Y168930D01*
X161692Y168935D01*
X161715Y168940D01*
X161740Y168945D01*
X161764Y168949D01*
X161788Y168954D01*
X161813Y168959D01*
X161837Y168964D01*
X161862Y168968D01*
X161887Y168972D01*
X161912Y168977D01*
X161938Y168981D01*
X161963Y168985D01*
X161989Y168990D01*
X162014Y168994D01*
X162040Y168998D01*
X162066Y169002D01*
X162096Y168998D01*
D02*
G37*
G36*
X162317Y156579D02*
Y156579D01*
X162751Y156419D01*
X162758Y156416D01*
X162781Y156404D01*
X162804Y156392D01*
X162827Y156379D01*
X162893Y156342D01*
X162998Y156275D01*
X163099Y156201D01*
X163442Y155860D01*
D01*
X163598Y155616D01*
X163735Y155380D01*
X163735Y155380D01*
X163887Y154943D01*
X163891Y154930D01*
X163895Y154910D01*
X163900Y154889D01*
X163903Y154879D01*
X163905Y154866D01*
X163911Y154840D01*
X163916Y154814D01*
X163921Y154788D01*
X163924Y154775D01*
X163924Y154775D01*
X163927Y154756D01*
X163933Y154720D01*
X163938Y154683D01*
X163944Y154646D01*
X163954Y154561D01*
X163964Y154427D01*
X163967Y154293D01*
X163963Y154158D01*
X163957Y154079D01*
X163955Y154054D01*
X163953Y154030D01*
X163950Y154005D01*
X163947Y153983D01*
X163945Y153962D01*
X163942Y153941D01*
X163939Y153920D01*
X163936Y153901D01*
X163934Y153884D01*
X163931Y153866D01*
X163928Y153849D01*
X163926Y153840D01*
X163925Y153832D01*
X163922Y153817D01*
X163919Y153802D01*
X163916Y153786D01*
X163913Y153771D01*
X163910Y153755D01*
X163907Y153740D01*
X163903Y153725D01*
X163901Y153717D01*
X163900Y153710D01*
X163897Y153696D01*
X163893Y153683D01*
X163890Y153669D01*
X163887Y153656D01*
X163883Y153642D01*
X163880Y153629D01*
X163876Y153615D01*
X163873Y153603D01*
X163869Y153591D01*
X163866Y153579D01*
X163863Y153568D01*
X163861Y153562D01*
X163859Y153556D01*
X163856Y153544D01*
X163852Y153533D01*
X163848Y153521D01*
X163845Y153509D01*
X163841Y153498D01*
X163837Y153486D01*
X163833Y153475D01*
X163830Y153463D01*
X163622Y153024D01*
X163620Y153018D01*
X163556Y152938D01*
X163556Y152937D01*
X163318Y152648D01*
X163261Y152582D01*
X163028Y152419D01*
X162840Y152300D01*
X162627Y152217D01*
X162407Y152144D01*
X161990Y152080D01*
X161987Y152080D01*
X161961Y152079D01*
X161935Y152078D01*
X161908Y152077D01*
X161882Y152077D01*
X161856Y152077D01*
X161829Y152077D01*
X161802Y152077D01*
X161775Y152078D01*
X161748Y152079D01*
X161721Y152080D01*
X161693Y152082D01*
X161665Y152084D01*
X161637Y152085D01*
X161609Y152088D01*
X161581Y152091D01*
X161553Y152093D01*
X161524Y152096D01*
X161489Y152098D01*
X161463Y152099D01*
X161437Y152100D01*
X161412Y152102D01*
X161386Y152103D01*
X161361Y152105D01*
X161336Y152108D01*
X161311Y152110D01*
X161286Y152113D01*
X161261Y152116D01*
X161237Y152119D01*
X161213Y152122D01*
X161189Y152126D01*
X161165Y152130D01*
X161141Y152134D01*
X161118Y152138D01*
X161094Y152143D01*
X161071Y152148D01*
X161048Y152153D01*
X161018Y152160D01*
X160988Y152167D01*
X160958Y152175D01*
X160928Y152183D01*
X160899Y152191D01*
X160871Y152200D01*
X160842Y152209D01*
X160814Y152219D01*
X160809Y152220D01*
X160801Y152224D01*
X160792Y152227D01*
X160783Y152230D01*
X160775Y152233D01*
X160766Y152236D01*
X160757Y152239D01*
X160749Y152243D01*
X160740Y152246D01*
X160732Y152249D01*
X160723Y152253D01*
X160715Y152256D01*
X160706Y152260D01*
X160698Y152263D01*
X160690Y152267D01*
X160681Y152270D01*
X160672Y152274D01*
X160662Y152278D01*
X160653Y152283D01*
X160643Y152287D01*
X160633Y152292D01*
X160623Y152296D01*
X160614Y152301D01*
X160604Y152306D01*
X160594Y152311D01*
X160583Y152316D01*
X160572Y152322D01*
X160561Y152327D01*
X160555Y152330D01*
Y152330D01*
X160549Y152333D01*
X160536Y152340D01*
X160524Y152347D01*
X160512Y152354D01*
X160505Y152357D01*
X160497Y152362D01*
X160481Y152371D01*
X160464Y152381D01*
X160448Y152391D01*
X160440Y152396D01*
X160426Y152404D01*
X160400Y152420D01*
X160375Y152438D01*
X160322Y152484D01*
X160270Y152532D01*
X159982Y152808D01*
X159871Y152979D01*
X159745Y153190D01*
X159596Y153592D01*
X159560Y153698D01*
X159560Y153699D01*
X159558Y153705D01*
X159556Y153716D01*
X159553Y153728D01*
X159551Y153740D01*
X159550Y153745D01*
X159549Y153751D01*
X159546Y153763D01*
X159544Y153774D01*
X159542Y153786D01*
X159540Y153798D01*
X159538Y153809D01*
X159536Y153821D01*
X159534Y153833D01*
X159532Y153845D01*
X159530Y153856D01*
X159529Y153868D01*
X159527Y153880D01*
X159526Y153886D01*
X159525Y153893D01*
X159523Y153906D01*
X159522Y153919D01*
X159520Y153933D01*
X159519Y153946D01*
X159517Y153960D01*
X159516Y153974D01*
X159514Y153987D01*
X159513Y154002D01*
X159511Y154017D01*
X159510Y154032D01*
X159509Y154048D01*
X159508Y154064D01*
X159506Y154081D01*
X159505Y154098D01*
X159504Y154115D01*
X159504Y154133D01*
X159503Y154152D01*
X159502Y154171D01*
X159502Y154189D01*
X159501Y154210D01*
X159501Y154232D01*
X159501Y154254D01*
X159501Y154277D01*
X159501Y154304D01*
X159502Y154334D01*
X159503Y154365D01*
X159504Y154396D01*
X159505Y154412D01*
X159509Y154482D01*
X159525Y154623D01*
X159547Y154763D01*
X159576Y154901D01*
X159598Y154981D01*
X159604Y155004D01*
X159611Y155027D01*
X159617Y155051D01*
X159624Y155071D01*
X159629Y155089D01*
X159635Y155107D01*
X159641Y155125D01*
X159647Y155142D01*
X159652Y155159D01*
X159658Y155175D01*
X159664Y155191D01*
X159669Y155206D01*
X159675Y155221D01*
X159680Y155235D01*
X159686Y155250D01*
X159692Y155264D01*
X159697Y155279D01*
X159703Y155293D01*
X159709Y155307D01*
X159714Y155321D01*
X159720Y155333D01*
X159725Y155346D01*
X159731Y155358D01*
X159736Y155371D01*
X159742Y155383D01*
X159748Y155396D01*
X159753Y155408D01*
X159756Y155414D01*
X159759Y155420D01*
X159764Y155431D01*
X159769Y155441D01*
X159774Y155452D01*
X159780Y155463D01*
X159785Y155474D01*
X159791Y155484D01*
X159796Y155495D01*
X159801Y155506D01*
X159807Y155516D01*
X159812Y155527D01*
X159818Y155537D01*
X159824Y155548D01*
X159830Y155558D01*
X159835Y155569D01*
X159841Y155579D01*
X159847Y155589D01*
X159853Y155600D01*
X159859Y155610D01*
X159865Y155620D01*
X159871Y155631D01*
X159877Y155641D01*
X159883Y155651D01*
X159890Y155661D01*
X159893Y155666D01*
Y155666D01*
X159915Y155701D01*
X159937Y155735D01*
X159940Y155739D01*
X159945Y155748D01*
X159951Y155756D01*
X159957Y155764D01*
X159963Y155773D01*
X159969Y155781D01*
X159975Y155789D01*
X159980Y155798D01*
X159986Y155806D01*
X159992Y155814D01*
X159999Y155822D01*
X160004Y155831D01*
X160011Y155839D01*
X160017Y155847D01*
X160023Y155855D01*
X160029Y155863D01*
X160032Y155867D01*
X160032D01*
X160035Y155871D01*
X160042Y155879D01*
X160048Y155887D01*
X160054Y155895D01*
X160057Y155899D01*
X160061Y155903D01*
X160067Y155911D01*
X160073Y155918D01*
X160080Y155926D01*
X160083Y155930D01*
Y155930D01*
X160087Y155934D01*
X160093Y155942D01*
X160100Y155949D01*
X160106Y155957D01*
X160114Y155965D01*
X160121Y155974D01*
X160129Y155983D01*
X160137Y155992D01*
X160145Y156001D01*
X160153Y156009D01*
X160161Y156018D01*
X160169Y156027D01*
X160177Y156035D01*
X160186Y156044D01*
X160194Y156052D01*
X160202Y156061D01*
X160206Y156065D01*
Y156065D01*
X160211Y156069D01*
X160219Y156078D01*
X160227Y156086D01*
X160236Y156094D01*
X160244Y156102D01*
X160253Y156111D01*
X160262Y156119D01*
X160270Y156127D01*
X160280Y156135D01*
X160290Y156144D01*
X160300Y156153D01*
X160310Y156162D01*
X160315Y156167D01*
X160320Y156171D01*
X160330Y156180D01*
X160341Y156189D01*
X160351Y156198D01*
X160356Y156202D01*
X160362Y156207D01*
X160374Y156216D01*
X160386Y156226D01*
X160398Y156235D01*
X160411Y156245D01*
X160424Y156256D01*
X160438Y156266D01*
X160452Y156276D01*
X160467Y156287D01*
X160484Y156299D01*
X160501Y156310D01*
X160517Y156322D01*
X160539Y156336D01*
X160565Y156352D01*
X160591Y156369D01*
X160618Y156385D01*
X160671Y156415D01*
X160752Y156456D01*
X160803Y156479D01*
X161244Y156617D01*
Y156617D01*
X161728Y156644D01*
X161871Y156645D01*
X162317Y156579D01*
D02*
G37*
G36*
X228977Y159532D02*
X162698Y142062D01*
X162406Y142468D01*
X162778Y143038D01*
X163780Y144389D01*
X164920Y146098D01*
X166081Y148283D01*
X167443Y151428D01*
X168087Y153655D01*
X168530Y155713D01*
X168846Y157708D01*
X168948Y159546D01*
X168990Y160028D01*
X228913D01*
X228977Y159532D01*
D02*
G37*
G36*
X171052Y143184D02*
X171052Y143184D01*
X189949Y113000D01*
X189558Y112689D01*
X161842Y140392D01*
X161974Y140875D01*
X171049Y143190D01*
X171052Y143184D01*
D02*
G37*
G36*
X119844Y140899D02*
X119993Y140341D01*
X92289Y112670D01*
X91897Y112980D01*
X110603Y143358D01*
X119844Y140899D01*
D02*
G37*
G36*
X121384Y139628D02*
X123797Y130452D01*
X93804Y111979D01*
X93494Y112371D01*
X120828Y139778D01*
X121384Y139628D01*
D02*
G37*
G36*
X188740Y111993D02*
X188428Y111602D01*
X158257Y130444D01*
X160604Y139454D01*
X161160Y139605D01*
X188740Y111993D01*
D02*
G37*
G36*
X123488Y138531D02*
X124839Y137529D01*
X126549Y136389D01*
X128734Y135228D01*
X131879Y133866D01*
X134106Y133222D01*
X136164Y132779D01*
X138159Y132462D01*
X139996Y132361D01*
X140479Y132319D01*
Y72403D01*
X139983Y72339D01*
X122572Y138657D01*
X122991Y138930D01*
X123488Y138531D01*
D02*
G37*
%LPC*%
G36*
X143914Y156671D02*
X143959Y156578D01*
X143924Y156655D01*
X143914Y156671D01*
D02*
G37*
G36*
X143976Y156560D02*
X143995Y156518D01*
X143987Y156538D01*
X143976Y156560D01*
D02*
G37*
G36*
X146781Y153448D02*
X146806Y153425D01*
X146910Y153337D01*
X146781Y153448D01*
D02*
G37*
%LPD*%
M02*
