G04*
G04 #@! TF.GenerationSoftware,Altium Limited,Altium Designer,21.8.1 (53)*
G04*
G04 Layer_Color=32768*
%FSLAX25Y25*%
%MOIN*%
G70*
G04*
G04 #@! TF.SameCoordinates,794F71C3-FEF2-4077-906F-4B950FC70F08*
G04*
G04*
G04 #@! TF.FilePolarity,Positive*
G04*
G01*
G75*
%ADD11C,0.01000*%
D11*
X137963Y246946D02*
G03*
X54569Y163498I3099J-86491D01*
G01*
X54566Y157502D02*
G03*
X137999Y73963I86496J2953D01*
G01*
X227565Y163523D02*
G03*
X144132Y247063I-86496J-2953D01*
G01*
X144117Y73963D02*
G03*
X202769Y99771I-3055J86493D01*
G01*
D02*
G03*
X227553Y157347I-61707J60684D01*
G01*
X157361Y278872D02*
G03*
X169870Y262592I16795J-41D01*
G01*
X157284Y278875D02*
G03*
X123732Y278541I-16784J625D01*
G01*
X111474Y262596D02*
G03*
X169623Y262853I29526J-102096D01*
G01*
X150343Y279500D02*
G03*
X150343Y279500I-9843J0D01*
G01*
X111223Y262261D02*
G03*
X123732Y278541I-4286J16239D01*
G01*
X172815Y143197D02*
X196581Y104840D01*
X158237Y128728D02*
X196581Y104840D01*
X123713Y192401D02*
X137963Y246946D01*
X85097Y216397D02*
X123713Y192401D01*
X85097Y216397D02*
X109131Y177770D01*
X54569Y163498D02*
X109131Y177770D01*
X173131Y177526D02*
X227565Y163523D01*
X173131Y177526D02*
X196867Y216128D01*
X158333Y192400D02*
X196867Y216128D01*
X144132Y247063D02*
X158333Y192400D01*
X123798Y128626D02*
X137999Y73963D01*
X85264Y104897D02*
X123798Y128626D01*
X85264Y104897D02*
X109000Y143500D01*
X54566Y157502D02*
X109000Y143500D01*
X172815Y143197D02*
X227553Y157347D01*
X144117Y73963D02*
X158237Y128728D01*
M02*
