G04*
G04 #@! TF.GenerationSoftware,Altium Limited,Altium Designer,21.8.1 (53)*
G04*
G04 Layer_Color=8388736*
%FSLAX25Y25*%
%MOIN*%
G70*
G04*
G04 #@! TF.SameCoordinates,2A3705A3-5D1E-4C85-BF93-37B68EBEE7C7*
G04*
G04*
G04 #@! TF.FilePolarity,Negative*
G04*
G01*
G75*
G36*
X159608Y181970D02*
X159188Y181698D01*
X158472Y182272D01*
X157121Y183275D01*
X155411Y184415D01*
X153227Y185575D01*
X150081Y186937D01*
X147854Y187581D01*
X145796Y188024D01*
X143801Y188341D01*
X141964Y188442D01*
X141481Y188484D01*
Y249058D01*
X141977Y249123D01*
X159608Y181970D01*
D02*
G37*
G36*
X123752Y190731D02*
X121227Y181065D01*
X120744Y180934D01*
X92154Y209483D01*
X92463Y209876D01*
X123752Y190731D01*
D02*
G37*
G36*
X190987Y209297D02*
X171561Y177656D01*
X161845Y180201D01*
X161714Y180684D01*
X190594Y209607D01*
X190987Y209297D01*
D02*
G37*
G36*
X139500Y169109D02*
X139541Y169109D01*
X139582Y169109D01*
X139623Y169108D01*
X139664Y169107D01*
X139705Y169106D01*
X139746Y169105D01*
X139787Y169104D01*
X139828Y169102D01*
X139868Y169100D01*
X139909Y169098D01*
X139949Y169096D01*
X139989Y169094D01*
X140029Y169091D01*
X140069Y169089D01*
X140109Y169086D01*
X140149Y169083D01*
X140189Y169079D01*
X140228Y169076D01*
X140268Y169072D01*
X140307Y169069D01*
X140347Y169065D01*
X140386Y169061D01*
X140425Y169056D01*
X140464Y169052D01*
X140503Y169047D01*
X140541Y169042D01*
X140580Y169037D01*
X140618Y169031D01*
X140656Y169026D01*
X140694Y169020D01*
X140732Y169014D01*
X140770Y169008D01*
X140808Y169001D01*
X140846Y168995D01*
X140883Y168988D01*
X140920Y168981D01*
X140957Y168974D01*
X140994Y168966D01*
X141031Y168959D01*
X141068Y168951D01*
X141104Y168943D01*
X141140Y168935D01*
X141176Y168926D01*
X141200Y168920D01*
X141224Y168914D01*
X141248Y168909D01*
X141272Y168903D01*
X141296Y168896D01*
X141319Y168890D01*
X141343Y168884D01*
X141366Y168877D01*
X141390Y168871D01*
X141413Y168864D01*
X141436Y168857D01*
X141459Y168851D01*
X141482Y168844D01*
X141505Y168837D01*
X141528Y168830D01*
X141551Y168822D01*
X141574Y168815D01*
X141596Y168807D01*
X141619Y168800D01*
X141641Y168792D01*
X141664Y168785D01*
X141686Y168777D01*
X141708Y168769D01*
X141730Y168761D01*
X141752Y168753D01*
X141774Y168745D01*
X141796Y168736D01*
X141818Y168728D01*
X141840Y168719D01*
X141861Y168710D01*
X141883Y168702D01*
X141904Y168693D01*
X141936Y168679D01*
X141967Y168666D01*
X141999Y168652D01*
X142030Y168638D01*
X142061Y168623D01*
X142092Y168608D01*
X142122Y168594D01*
X142153Y168579D01*
X142183Y168563D01*
X142213Y168547D01*
X142242Y168532D01*
X142272Y168516D01*
X142301Y168499D01*
X142330Y168482D01*
X142359Y168466D01*
X142387Y168448D01*
X142415Y168431D01*
X142443Y168414D01*
X142471Y168396D01*
X142498Y168378D01*
X142525Y168359D01*
X142552Y168341D01*
X142579Y168322D01*
X142605Y168303D01*
X142631Y168283D01*
X142657Y168264D01*
X142683Y168244D01*
X142708Y168224D01*
X142733Y168203D01*
X142766Y168175D01*
X142799Y168147D01*
X142831Y168119D01*
X142862Y168090D01*
X142893Y168060D01*
X142898Y168055D01*
X142905Y168048D01*
X143217Y167677D01*
D01*
X143349Y167438D01*
X143478Y167179D01*
X143482Y167172D01*
X143482Y167172D01*
X143618Y166699D01*
X143620Y166686D01*
X143627Y166650D01*
X143633Y166613D01*
X143639Y166577D01*
X143643Y166552D01*
X143647Y166527D01*
X143650Y166502D01*
X143653Y166477D01*
X143656Y166451D01*
X143659Y166426D01*
X143662Y166400D01*
X143664Y166374D01*
X143666Y166349D01*
X143668Y166323D01*
X143670Y166296D01*
X143672Y166270D01*
X143674Y166244D01*
X143675Y166217D01*
X143676Y166190D01*
X143677Y166163D01*
X143671Y166135D01*
X143667Y166117D01*
X143663Y166099D01*
X143658Y166080D01*
X143654Y166062D01*
X143649Y166044D01*
X143645Y166026D01*
X143640Y166009D01*
X143635Y165991D01*
X143630Y165974D01*
X143625Y165956D01*
X143620Y165939D01*
X143615Y165922D01*
X143610Y165905D01*
X143605Y165888D01*
X143599Y165871D01*
X143594Y165854D01*
X143588Y165838D01*
X143582Y165821D01*
X143577Y165805D01*
X143571Y165789D01*
X143562Y165764D01*
X143553Y165741D01*
X143544Y165717D01*
X143534Y165693D01*
X143530Y165683D01*
X143309Y165274D01*
D01*
X143092Y165031D01*
X142904Y164855D01*
X142706Y164721D01*
X142444Y164571D01*
X142443Y164570D01*
X142423Y164562D01*
X142403Y164553D01*
X142382Y164544D01*
X142362Y164536D01*
X142341Y164528D01*
X142321Y164520D01*
X142300Y164512D01*
X142279Y164504D01*
X142265Y164499D01*
X142251Y164494D01*
X142237Y164488D01*
X142223Y164484D01*
X142209Y164479D01*
X142195Y164474D01*
X142181Y164469D01*
X142167Y164464D01*
X142152Y164460D01*
X142138Y164455D01*
X142124Y164451D01*
X142109Y164446D01*
X142095Y164442D01*
X142080Y164438D01*
X142066Y164433D01*
X142051Y164429D01*
X142036Y164425D01*
X142022Y164421D01*
X142007Y164417D01*
X141992Y164413D01*
X141978Y164409D01*
X141963Y164405D01*
X141948Y164401D01*
X141933Y164398D01*
X141918Y164394D01*
X141903Y164390D01*
X141888Y164386D01*
X141873Y164383D01*
X141858Y164380D01*
X141842Y164376D01*
X141827Y164373D01*
X141812Y164369D01*
X141797Y164366D01*
X141781Y164363D01*
X141766Y164360D01*
X141751Y164357D01*
X141735Y164354D01*
X141720Y164351D01*
X141704Y164348D01*
X141689Y164345D01*
X141673Y164342D01*
X141658Y164339D01*
X141642Y164336D01*
X141627Y164334D01*
X141611Y164331D01*
X141595Y164328D01*
X141579Y164326D01*
X141564Y164323D01*
X141548Y164321D01*
X141532Y164318D01*
X141516Y164316D01*
X141500Y164314D01*
X141484Y164311D01*
X141468Y164309D01*
X141452Y164307D01*
X141436Y164305D01*
X141420Y164303D01*
X141404Y164301D01*
X141388Y164298D01*
X141372Y164296D01*
X141355Y164295D01*
X141339Y164293D01*
X141323Y164291D01*
X141307Y164289D01*
X141290Y164287D01*
X141274Y164285D01*
X141258Y164284D01*
X141241Y164282D01*
X141225Y164280D01*
X141208Y164279D01*
X141192Y164277D01*
X141175Y164276D01*
X141159Y164274D01*
X141142Y164273D01*
X141126Y164271D01*
X141109Y164270D01*
X141092Y164269D01*
X141076Y164268D01*
X141059Y164266D01*
X141042Y164265D01*
X141026Y164264D01*
X141009Y164263D01*
X140992Y164262D01*
X140975Y164261D01*
X140958Y164260D01*
X140942Y164259D01*
X140925Y164258D01*
X140908Y164257D01*
X140891Y164256D01*
X140874Y164255D01*
X140857Y164254D01*
X140840Y164253D01*
X140823Y164252D01*
X140806Y164252D01*
X140789Y164251D01*
X140772Y164250D01*
X140755Y164250D01*
X140738Y164249D01*
X140721Y164248D01*
X140704Y164248D01*
X140687Y164247D01*
X140669Y164247D01*
X140652Y164246D01*
X140635Y164246D01*
X140618Y164245D01*
X140601Y164245D01*
X140583Y164244D01*
X140566Y164244D01*
X140549Y164244D01*
X140531Y164243D01*
X140514Y164243D01*
X140497Y164243D01*
X140479Y164242D01*
X140462Y164242D01*
X140445Y164242D01*
X140427Y164242D01*
X140410Y164242D01*
X140375Y164241D01*
X140358Y164241D01*
X140340Y164241D01*
X140314Y164241D01*
X140305Y164241D01*
X140279Y164241D01*
X140261D01*
X140244Y164241D01*
X140218Y164241D01*
X140200Y164241D01*
X140183Y164241D01*
X140156Y164241D01*
X140139Y164242D01*
X140103Y164242D01*
X140077Y164242D01*
X140042Y164242D01*
X140007Y164243D01*
X139989Y164243D01*
X139954Y164244D01*
X139918Y164244D01*
X139883Y164245D01*
X139856Y164245D01*
X139812Y164246D01*
X139777Y164247D01*
X139724Y164248D01*
X139670Y164249D01*
X139635Y164250D01*
X139582Y164251D01*
X139511Y164253D01*
X139502Y164253D01*
X139484Y164254D01*
X139396Y164256D01*
X139378Y164257D01*
X139342Y164257D01*
X139307Y164258D01*
X139289Y164259D01*
X139280Y164259D01*
X139210Y164261D01*
X139201Y164261D01*
X139192Y164261D01*
X139183Y164261D01*
X139174Y164262D01*
X139139Y164262D01*
X139086Y164264D01*
X139077Y164264D01*
X139051Y164264D01*
X139016Y164265D01*
X138963Y164266D01*
X138945Y164267D01*
X138928Y164267D01*
X138919Y164267D01*
X138901Y164267D01*
X138866Y164268D01*
X138840Y164268D01*
X138823Y164269D01*
X138788Y164269D01*
X138753Y164270D01*
X138727Y164270D01*
X138709Y164270D01*
X138683Y164270D01*
X138657Y164270D01*
X138640Y164271D01*
X138614Y164271D01*
X138579Y164271D01*
X138553Y164271D01*
X138536Y164271D01*
X138519D01*
X138502Y164271D01*
X138484Y164271D01*
X138459Y164271D01*
X138433Y164271D01*
X138407Y164271D01*
X138399Y164270D01*
X138373Y164270D01*
X138364Y164270D01*
X138347Y164270D01*
X138322Y164270D01*
X138305Y164269D01*
X138288Y164269D01*
X138271Y164269D01*
X138254Y164269D01*
X138237Y164268D01*
X138220Y164268D01*
X138203Y164267D01*
X138186Y164267D01*
X138169Y164267D01*
X138153Y164266D01*
X138136Y164266D01*
X138119Y164265D01*
X138102Y164264D01*
X138085Y164264D01*
X138069Y164263D01*
X138052Y164263D01*
X138035Y164262D01*
X138019Y164261D01*
X138002Y164260D01*
X137986Y164260D01*
X137969Y164259D01*
X137952Y164258D01*
X137936Y164257D01*
X137919Y164256D01*
X137903Y164255D01*
X137887Y164255D01*
X137870Y164254D01*
X137854Y164253D01*
X137837Y164251D01*
X137821Y164251D01*
X137805Y164249D01*
X137788Y164248D01*
X137772Y164247D01*
X137756Y164246D01*
X137740Y164245D01*
X137724Y164243D01*
X137708Y164242D01*
X137692Y164241D01*
X137675Y164239D01*
X137660Y164238D01*
X137644Y164236D01*
X137627Y164235D01*
X137612Y164233D01*
X137596Y164232D01*
X137580Y164230D01*
X137564Y164228D01*
X137548Y164227D01*
X137532Y164225D01*
X137517Y164223D01*
X137501Y164221D01*
X137485Y164220D01*
X137470Y164218D01*
X137454Y164216D01*
X137439Y164214D01*
X137423Y164212D01*
X137408Y164210D01*
X137392Y164207D01*
X137377Y164205D01*
X137361Y164203D01*
X137346Y164201D01*
X137331Y164199D01*
X137315Y164196D01*
X137300Y164194D01*
X137285Y164191D01*
X137270Y164189D01*
X137255Y164187D01*
X137240Y164184D01*
X137224Y164181D01*
X137209Y164179D01*
X137195Y164176D01*
X137180Y164173D01*
X137165Y164170D01*
X137150Y164167D01*
X137135Y164165D01*
X137120Y164162D01*
X137106Y164159D01*
X137091Y164156D01*
X137076Y164153D01*
X137062Y164149D01*
X137047Y164146D01*
X137032Y164143D01*
X137018Y164139D01*
X137004Y164136D01*
X136989Y164133D01*
X136975Y164129D01*
X136961Y164126D01*
X136946Y164122D01*
X136932Y164119D01*
X136918Y164115D01*
X136904Y164111D01*
X136890Y164107D01*
X136876Y164103D01*
X136862Y164100D01*
X136848Y164095D01*
X136834Y164091D01*
X136820Y164087D01*
X136806Y164083D01*
X136793Y164079D01*
X136779Y164075D01*
X136765Y164070D01*
X136751Y164066D01*
X136738Y164062D01*
X136724Y164057D01*
X136711Y164052D01*
X136697Y164048D01*
X136684Y164043D01*
X136671Y164038D01*
X136658Y164034D01*
X136644Y164029D01*
X136631Y164024D01*
X136618Y164019D01*
X136605Y164014D01*
X136592Y164009D01*
X136579Y164003D01*
X136566Y163998D01*
X136553Y163993D01*
X136547Y163990D01*
X136533Y163980D01*
X136523Y163973D01*
X136519Y163970D01*
X136509Y163963D01*
X136505Y163960D01*
X136491Y163950D01*
X136482Y163943D01*
X136478Y163940D01*
X136469Y163933D01*
X136460Y163926D01*
X136456Y163923D01*
X136447Y163917D01*
X136443Y163913D01*
X136435Y163907D01*
X136426Y163900D01*
X136422Y163897D01*
X136418Y163894D01*
X136410Y163887D01*
X136406Y163884D01*
X136402Y163881D01*
X136394Y163874D01*
X136390Y163871D01*
X136386Y163868D01*
X136378Y163861D01*
X136374Y163858D01*
X136367Y163852D01*
X136363Y163849D01*
X136359Y163845D01*
X136352Y163839D01*
X136345Y163833D01*
X136337Y163827D01*
X136330Y163820D01*
X136327Y163817D01*
X136319Y163811D01*
X136316Y163808D01*
X136309Y163802D01*
X136302Y163795D01*
X136299Y163792D01*
X136292Y163786D01*
X136286Y163780D01*
X136279Y163774D01*
X136273Y163768D01*
X136266Y163762D01*
X136263Y163759D01*
X136257Y163753D01*
X136254Y163750D01*
X136251Y163747D01*
X136245Y163741D01*
X136239Y163735D01*
X136233Y163729D01*
X136230Y163726D01*
X136227Y163723D01*
X136222Y163717D01*
X136216Y163712D01*
X136216Y163711D01*
X136216Y163711D01*
X136213Y163708D01*
X136213Y163708D01*
X136210Y163705D01*
X136210Y163705D01*
X136208Y163702D01*
X136208Y163702D01*
X136205Y163699D01*
X136205Y163699D01*
X136202Y163696D01*
X136202Y163696D01*
X136200Y163693D01*
X136199Y163693D01*
X136197Y163690D01*
X136197Y163690D01*
X136194Y163688D01*
X136194Y163688D01*
X136192Y163685D01*
X136192Y163685D01*
X136189Y163682D01*
X136189Y163682D01*
X136187Y163679D01*
X136187Y163679D01*
X136184Y163676D01*
X136184Y163676D01*
X136181Y163673D01*
X136181Y163673D01*
X136179Y163670D01*
X136179Y163670D01*
X136177Y163667D01*
X136177Y163667D01*
X136174Y163665D01*
X136174Y163664D01*
X136172Y163662D01*
X136172Y163662D01*
X136169Y163659D01*
Y163659D01*
X136167Y163656D01*
X136167Y163656D01*
X136164Y163653D01*
X136164Y163653D01*
X136162Y163650D01*
X136162Y163650D01*
X136160Y163647D01*
X136160Y163647D01*
X136157Y163645D01*
X136157Y163645D01*
X136155Y163642D01*
X136155Y163642D01*
X136153Y163639D01*
X136153Y163639D01*
X136151Y163636D01*
X136151Y163636D01*
X136148Y163633D01*
X136148Y163633D01*
X136146Y163631D01*
X136146Y163631D01*
X136144Y163628D01*
X136144Y163628D01*
X136142Y163625D01*
X136142Y163625D01*
X136140Y163622D01*
X136140Y163622D01*
X136137Y163619D01*
X136137Y163619D01*
X136135Y163617D01*
X136135Y163617D01*
X136133Y163614D01*
X136133Y163614D01*
X136131Y163611D01*
X136131Y163611D01*
X136129Y163608D01*
X136129Y163608D01*
X136127Y163606D01*
X136127Y163606D01*
X136125Y163603D01*
X136125Y163603D01*
X136123Y163600D01*
X136123Y163600D01*
X136121Y163597D01*
X136121Y163597D01*
X136119Y163595D01*
X136119Y163595D01*
X136117Y163592D01*
X136117Y163592D01*
X136115Y163589D01*
X136115Y163589D01*
X136114Y163586D01*
X136114Y163586D01*
X136112Y163584D01*
X136112Y163584D01*
X136110Y163581D01*
X136110Y163581D01*
X136108Y163578D01*
X136108Y163578D01*
X136106Y163576D01*
X136106Y163576D01*
X136104Y163573D01*
X136104Y163573D01*
X136103Y163570D01*
X136103Y163570D01*
X136101Y163568D01*
X136101Y163568D01*
X136099Y163565D01*
X136099Y163565D01*
X136097Y163562D01*
X136097Y163562D01*
X136096Y163560D01*
X136096Y163560D01*
X136094Y163557D01*
X136094Y163557D01*
X136092Y163554D01*
X136092Y163554D01*
X136091Y163552D01*
X136091Y163552D01*
X136089Y163549D01*
X136089Y163549D01*
X136088Y163546D01*
X136088Y163546D01*
X136086Y163544D01*
X136086Y163544D01*
X136084Y163541D01*
X136084Y163541D01*
X136083Y163539D01*
X136083Y163538D01*
X136081Y163536D01*
X136081Y163536D01*
X136080Y163533D01*
X136080Y163533D01*
X136078Y163531D01*
X136078Y163531D01*
X136077Y163528D01*
X136077Y163528D01*
X136075Y163525D01*
X136075Y163525D01*
X136074Y163523D01*
X136074Y163523D01*
X136073Y163520D01*
X136073Y163520D01*
X136071Y163518D01*
X136071Y163518D01*
X136070Y163515D01*
X136070Y163515D01*
X136069Y163512D01*
X136069Y163512D01*
X136067Y163510D01*
X136067Y163510D01*
X136066Y163507D01*
X136066Y163507D01*
X136065Y163505D01*
X136065Y163505D01*
X136063Y163502D01*
X136063Y163502D01*
X136062Y163500D01*
X136062Y163500D01*
X136061Y163497D01*
X136061Y163497D01*
X136060Y163495D01*
X136060Y163495D01*
X136058Y163492D01*
X136058Y163492D01*
X136057Y163489D01*
X136057Y163489D01*
X136056Y163487D01*
X136056Y163487D01*
X136055Y163484D01*
X136055Y163484D01*
X136054Y163482D01*
X136054Y163482D01*
X136053Y163479D01*
X136053Y163479D01*
X136052Y163477D01*
X136052Y163477D01*
X136051Y163474D01*
X136051Y163474D01*
X136050Y163472D01*
Y163472D01*
X136049Y163469D01*
Y163469D01*
X136048Y163467D01*
Y163467D01*
X136047Y163464D01*
Y163464D01*
X136046Y163462D01*
Y163462D01*
X136045Y163460D01*
Y163459D01*
X136044Y163457D01*
Y163457D01*
X136043Y163454D01*
Y163454D01*
X136042Y163452D01*
Y163452D01*
X136041Y163450D01*
Y163450D01*
X136040Y163447D01*
Y163447D01*
X136039Y163445D01*
Y163445D01*
X136038Y163442D01*
Y163442D01*
X136038Y163440D01*
Y163440D01*
X136037Y163437D01*
Y163437D01*
X136036Y163435D01*
Y163435D01*
X136035Y163430D01*
Y163430D01*
X136033Y163425D01*
Y163425D01*
X136032Y163421D01*
Y163420D01*
X136030Y163416D01*
Y163416D01*
X136029Y163411D01*
Y163411D01*
X136028Y163406D01*
Y163406D01*
X136027Y163402D01*
Y163401D01*
X136026Y163397D01*
Y163397D01*
X136025Y163392D01*
Y163392D01*
X136024Y163388D01*
Y163388D01*
X136023Y163383D01*
Y163383D01*
X136023Y163378D01*
Y163378D01*
X136022Y163374D01*
Y163374D01*
X136021Y163369D01*
X136021Y163369D01*
X136021Y163365D01*
X136021Y163365D01*
X136020Y163360D01*
X136021Y163360D01*
X136020Y163356D01*
X136020Y163356D01*
X136020Y163356D01*
X136020Y163355D01*
X136020Y163351D01*
X136020Y163351D01*
X136020Y163351D01*
X136020Y163351D01*
X136020Y163347D01*
X136020Y163347D01*
X136020Y163347D01*
X136020Y163346D01*
X136019Y163342D01*
X136019Y163342D01*
Y163342D01*
Y163342D01*
X136019Y163338D01*
X136019Y163338D01*
Y163338D01*
Y163338D01*
X136019Y163337D01*
X136019Y163337D01*
Y163337D01*
Y163337D01*
X136019Y163335D01*
X136019Y163335D01*
Y163335D01*
X136019Y163335D01*
X136019Y163334D01*
X136019Y163334D01*
Y163333D01*
X136019Y163333D01*
X136019Y163332D01*
X136019Y163332D01*
Y163332D01*
X136019Y163332D01*
X136019Y163331D01*
X136019Y163331D01*
X136019Y163330D01*
X136019Y163330D01*
X136019Y163329D01*
X136019Y163329D01*
X136019Y163327D01*
X136019Y163327D01*
X136019Y163325D01*
X136019Y163325D01*
Y163324D01*
X136019Y163324D01*
Y163324D01*
X136019Y163324D01*
X136019Y163322D01*
X136019Y163322D01*
X136019Y163320D01*
X136019Y163320D01*
X136019Y163319D01*
X136019Y163319D01*
X136019Y163318D01*
X136019Y163318D01*
X136019Y163317D01*
X136020Y163317D01*
X136020Y163315D01*
X136020Y163315D01*
X136020Y163314D01*
X136020Y163314D01*
X136020Y163312D01*
X136020Y163312D01*
X136020Y163311D01*
X136020Y163311D01*
X136020Y163310D01*
X136020Y163310D01*
X136020Y163308D01*
X136020Y163308D01*
X136020Y163306D01*
X136020Y163306D01*
X136020Y163304D01*
X136020Y163304D01*
X136021Y163303D01*
X136021Y163303D01*
X136021Y163302D01*
X136021Y163301D01*
X136021Y163299D01*
X136021Y163299D01*
X136021Y163296D01*
X136021Y163296D01*
X136022Y163294D01*
X136022Y163293D01*
X136022Y163292D01*
X136022Y163292D01*
X136023Y163286D01*
X136023Y163286D01*
X136025Y163273D01*
X136025Y163273D01*
X136028Y163260D01*
X136028Y163260D01*
X136032Y163247D01*
X136032Y163247D01*
X136034Y163241D01*
X136034Y163241D01*
X136034Y163240D01*
X136034Y163240D01*
X136035Y163238D01*
X136035Y163238D01*
X136036Y163236D01*
X136036Y163235D01*
X136036Y163234D01*
X136036Y163234D01*
X136037Y163233D01*
X136037Y163233D01*
X136037Y163232D01*
X136037Y163232D01*
X136038Y163230D01*
X136038Y163230D01*
X136039Y163228D01*
X136039Y163227D01*
X136039Y163226D01*
X136039Y163225D01*
X136040Y163225D01*
X136040Y163225D01*
X136040Y163224D01*
X136040Y163224D01*
X136041Y163223D01*
X136041Y163222D01*
X136041Y163221D01*
X136041Y163221D01*
X136042Y163220D01*
X136042Y163219D01*
X136042Y163219D01*
X136043Y163218D01*
X136043Y163217D01*
X136044Y163216D01*
X136044Y163215D01*
X136044Y163215D01*
X136044Y163214D01*
X136045Y163213D01*
X136046Y163210D01*
X136047Y163210D01*
X136047Y163207D01*
X136048Y163206D01*
X136049Y163204D01*
X136051Y163201D01*
X136051Y163200D01*
X136053Y163197D01*
X136053Y163196D01*
X136055Y163193D01*
X136055Y163192D01*
X136057Y163189D01*
X136057Y163189D01*
X136059Y163185D01*
X136060Y163185D01*
X136062Y163182D01*
X136062Y163181D01*
X136064Y163178D01*
X136064Y163178D01*
X136066Y163174D01*
X136066Y163174D01*
X136069Y163170D01*
X136069Y163170D01*
X136071Y163167D01*
X136071Y163166D01*
X136074Y163163D01*
X136074Y163163D01*
X136076Y163160D01*
X136076Y163159D01*
X136079Y163156D01*
X136079Y163156D01*
X136081Y163152D01*
X136082Y163152D01*
X136084Y163149D01*
X136084Y163149D01*
X136087Y163145D01*
X136087Y163145D01*
X136090Y163142D01*
X136090Y163142D01*
X136093Y163138D01*
X136093Y163138D01*
X136096Y163135D01*
X136096Y163135D01*
X136099Y163131D01*
X136099Y163131D01*
X136102Y163128D01*
X136102Y163128D01*
X136105Y163124D01*
X136105Y163124D01*
X136108Y163121D01*
X136108Y163121D01*
X136111Y163118D01*
X136111Y163118D01*
X136114Y163114D01*
X136114Y163114D01*
X136117Y163111D01*
X136118Y163111D01*
X136121Y163108D01*
X136121Y163108D01*
X136124Y163104D01*
X136124Y163104D01*
X136128Y163101D01*
X136128Y163101D01*
X136131Y163098D01*
X136131Y163098D01*
X136135Y163094D01*
X136135Y163094D01*
X136138Y163091D01*
X136138Y163091D01*
X136142Y163088D01*
X136142Y163088D01*
X136146Y163085D01*
X136146Y163085D01*
X136149Y163082D01*
X136149Y163082D01*
X136153Y163078D01*
X136153Y163078D01*
X136157Y163075D01*
X136157Y163075D01*
X136161Y163072D01*
X136161Y163072D01*
X136165Y163069D01*
X136165Y163069D01*
X136169Y163066D01*
X136169Y163066D01*
X136173Y163063D01*
X136173Y163063D01*
X136177Y163060D01*
X136177Y163060D01*
X136181Y163057D01*
X136181Y163057D01*
X136185Y163054D01*
X136185Y163054D01*
X136189Y163051D01*
X136189Y163051D01*
X136193Y163048D01*
X136193Y163048D01*
X136198Y163045D01*
X136198Y163045D01*
X136202Y163042D01*
X136202Y163042D01*
X136206Y163039D01*
X136206Y163039D01*
X136211Y163036D01*
X136211Y163036D01*
X136215Y163033D01*
X136215Y163033D01*
X136220Y163030D01*
X136220Y163030D01*
X136224Y163028D01*
X136224Y163027D01*
X136229Y163025D01*
X136229Y163025D01*
X136234Y163022D01*
X136234Y163022D01*
X136238Y163019D01*
X136238Y163019D01*
X136243Y163016D01*
X136243Y163016D01*
X136248Y163014D01*
X136248Y163013D01*
X136252Y163011D01*
X136252Y163011D01*
X136257Y163008D01*
X136257Y163008D01*
X136262Y163005D01*
X136262Y163005D01*
X136267Y163003D01*
X136267Y163003D01*
X136272Y163000D01*
X136272Y163000D01*
X136277Y162997D01*
X136277Y162997D01*
X136282Y162995D01*
X136282Y162995D01*
X136287Y162992D01*
X136287Y162992D01*
X136293Y162989D01*
X136293Y162989D01*
X136298Y162987D01*
X136298Y162987D01*
X136303Y162984D01*
X136303Y162984D01*
X136308Y162982D01*
X136308Y162982D01*
X136313Y162979D01*
X136313Y162979D01*
X136319Y162977D01*
X136319Y162977D01*
X136324Y162974D01*
X136324Y162974D01*
X136329Y162971D01*
X136329Y162971D01*
X136335Y162969D01*
X136335Y162969D01*
X136340Y162967D01*
X136340Y162967D01*
X136346Y162964D01*
X136346Y162964D01*
X136352Y162962D01*
X136352Y162962D01*
X136357Y162959D01*
X136357Y162959D01*
X136363Y162957D01*
X136363Y162957D01*
X136368Y162955D01*
X136368Y162955D01*
X136374Y162952D01*
X136374Y162952D01*
X136380Y162950D01*
X136380Y162950D01*
X136386Y162948D01*
X136386Y162948D01*
X136391Y162945D01*
X136391Y162945D01*
X136397Y162943D01*
X136397Y162943D01*
X136403Y162941D01*
X136403Y162941D01*
X136409Y162938D01*
X136409Y162938D01*
X136415Y162936D01*
X136415Y162936D01*
X136421Y162934D01*
X136421Y162934D01*
X136433Y162930D01*
X136439Y162927D01*
X136445Y162925D01*
X136451Y162923D01*
X136457Y162921D01*
X136464Y162919D01*
X136470Y162917D01*
X136476Y162915D01*
X136482Y162913D01*
X136489Y162911D01*
X136495Y162909D01*
X136502Y162907D01*
X136508Y162905D01*
X136514Y162903D01*
X136521Y162901D01*
X136527Y162899D01*
X136534Y162897D01*
X136540Y162895D01*
X136547Y162893D01*
X136554Y162891D01*
X136560Y162890D01*
X136567Y162888D01*
X136574Y162886D01*
X136580Y162884D01*
X136587Y162882D01*
X136594Y162881D01*
X136601Y162879D01*
X136608Y162877D01*
X136615Y162875D01*
X136621Y162874D01*
X136628Y162872D01*
X136635Y162870D01*
X136642Y162869D01*
X136649Y162867D01*
X136656Y162865D01*
X136663Y162864D01*
X136670Y162862D01*
X136677Y162861D01*
X136685Y162859D01*
X136692Y162858D01*
X136699Y162856D01*
X136706Y162855D01*
X136713Y162853D01*
X136720Y162852D01*
X136728Y162850D01*
X136735Y162849D01*
X136742Y162847D01*
X136749Y162846D01*
X136757Y162845D01*
X136764Y162843D01*
X136772Y162842D01*
X136783Y162840D01*
X136794Y162838D01*
X136805Y162836D01*
X136816Y162834D01*
X136827Y162832D01*
X136839Y162830D01*
X136850Y162829D01*
X136861Y162827D01*
X136873Y162825D01*
X136884Y162823D01*
X136896Y162822D01*
X136907Y162820D01*
X136919Y162819D01*
X136930Y162817D01*
X136942Y162816D01*
X136953Y162814D01*
X136965Y162813D01*
X136977Y162811D01*
X136989Y162810D01*
X137000Y162809D01*
X137016Y162807D01*
X137032Y162805D01*
X137048Y162804D01*
X137064Y162802D01*
X137079Y162801D01*
X137095Y162799D01*
X137111Y162798D01*
X137131Y162796D01*
X137151Y162795D01*
X137171Y162793D01*
X137191Y162792D01*
X137216Y162791D01*
X137240Y162789D01*
X137268Y162788D01*
X137301Y162786D01*
X137341Y162785D01*
X137398Y162784D01*
X137423Y162783D01*
X137472Y162783D01*
X137521Y162783D01*
X137571Y162784D01*
X137595Y162785D01*
X137631Y162786D01*
X137663Y162787D01*
X137691Y162788D01*
X137714Y162790D01*
X137734Y162791D01*
X137753Y162792D01*
X137773Y162793D01*
X137788Y162794D01*
X137804Y162795D01*
X137819Y162796D01*
X137835Y162798D01*
X137850Y162799D01*
X137865Y162800D01*
X137880Y162802D01*
X137891Y162803D01*
X137902Y162804D01*
X137914Y162805D01*
X137925Y162806D01*
X137936Y162808D01*
X137947Y162809D01*
X137958Y162810D01*
X137969Y162811D01*
X137980Y162813D01*
X137991Y162814D01*
X138002Y162815D01*
X138013Y162817D01*
X138023Y162818D01*
X138041Y162821D01*
X138048Y162822D01*
X138062Y162824D01*
X138069Y162825D01*
X138083Y162827D01*
X138090Y162828D01*
X138097Y162829D01*
X138104Y162830D01*
X138111Y162831D01*
X138118Y162833D01*
X138124Y162834D01*
X138131Y162835D01*
X138138Y162836D01*
X138145Y162837D01*
X138151Y162838D01*
X138165Y162841D01*
X138171Y162842D01*
X138184Y162845D01*
X138191Y162846D01*
X138197Y162847D01*
X138204Y162848D01*
X138217Y162851D01*
X138229Y162854D01*
X138236Y162855D01*
X138242Y162857D01*
X138248Y162858D01*
X138254Y162859D01*
X138267Y162862D01*
X138273Y162864D01*
X138279Y162865D01*
X138291Y162868D01*
X138297Y162870D01*
X138303Y162871D01*
X138309Y162873D01*
X138321Y162876D01*
X138327Y162877D01*
X138332Y162879D01*
X138341Y162881D01*
X138353Y162886D01*
X138376Y162896D01*
X138399Y162906D01*
X138423Y162915D01*
X138446Y162925D01*
X138469Y162934D01*
X138493Y162943D01*
X138516Y162952D01*
X138540Y162961D01*
X138566Y162970D01*
X138592Y162979D01*
X138617Y162988D01*
X138645Y162998D01*
X138675Y163008D01*
X138706Y163017D01*
X138736Y163027D01*
X138751Y163031D01*
X138769Y163037D01*
X138804Y163047D01*
X138839Y163057D01*
X138874Y163066D01*
X138912Y163076D01*
X138954Y163086D01*
X138995Y163096D01*
X139037Y163105D01*
X139058Y163110D01*
X139085Y163115D01*
X139138Y163126D01*
X139191Y163135D01*
X139244Y163144D01*
X139311Y163153D01*
X139391Y163163D01*
X139471Y163171D01*
X139551Y163178D01*
X139656Y163183D01*
X139785Y163186D01*
X139914Y163183D01*
X140044Y163176D01*
X140108Y163170D01*
X140157Y163166D01*
X140256Y163154D01*
X140355Y163139D01*
X140441Y163124D01*
X140892Y163005D01*
Y163005D01*
X141129Y162907D01*
X141365Y162805D01*
Y162805D01*
X141763Y162559D01*
X141766Y162557D01*
X141803Y162530D01*
X141839Y162502D01*
X141875Y162473D01*
X141911Y162445D01*
X141939Y162420D01*
X141968Y162396D01*
X141996Y162371D01*
X142024Y162345D01*
X142051Y162320D01*
X142077Y162294D01*
X142104Y162268D01*
X142129Y162241D01*
X142155Y162215D01*
X142179Y162188D01*
X142204Y162161D01*
X142228Y162133D01*
X142246Y162111D01*
X142265Y162089D01*
X142283Y162067D01*
X142301Y162044D01*
X142318Y162021D01*
X142335Y161998D01*
X142352Y161975D01*
X142368Y161952D01*
X142385Y161929D01*
X142400Y161906D01*
X142416Y161882D01*
X142429Y161861D01*
X142549Y161613D01*
X142640Y161398D01*
X142684Y161175D01*
X142712Y160967D01*
X142698Y160690D01*
X142676Y160575D01*
X142642Y160430D01*
X142582Y160253D01*
X142518Y160124D01*
X142383Y159877D01*
X142378Y159870D01*
X142364Y159850D01*
X142349Y159831D01*
X142334Y159811D01*
X142319Y159791D01*
X142304Y159772D01*
X142288Y159752D01*
X142271Y159732D01*
X142255Y159713D01*
X142238Y159693D01*
X142221Y159674D01*
X142209Y159661D01*
X142198Y159648D01*
X142186Y159635D01*
X142174Y159622D01*
X142162Y159609D01*
X142149Y159597D01*
X142137Y159584D01*
X142124Y159571D01*
X142112Y159558D01*
X142099Y159546D01*
X142086Y159533D01*
X142072Y159520D01*
X142059Y159507D01*
X142046Y159495D01*
X142032Y159482D01*
X142018Y159469D01*
X142004Y159457D01*
X141990Y159444D01*
X141976Y159432D01*
X141962Y159419D01*
X141947Y159407D01*
X141932Y159394D01*
X141918Y159382D01*
X141903Y159369D01*
X141888Y159357D01*
X141872Y159345D01*
X141857Y159332D01*
X141841Y159320D01*
X141826Y159308D01*
X141810Y159295D01*
X141794Y159283D01*
X141778Y159271D01*
X141761Y159259D01*
X141745Y159247D01*
X141728Y159235D01*
X141711Y159222D01*
X141694Y159210D01*
X141677Y159198D01*
X141660Y159186D01*
X141643Y159175D01*
X141625Y159162D01*
X141608Y159151D01*
X141590Y159139D01*
X141572Y159127D01*
X141553Y159115D01*
X141535Y159103D01*
X141517Y159092D01*
X141498Y159080D01*
X141479Y159068D01*
X141460Y159057D01*
X141441Y159045D01*
X141422Y159034D01*
X141402Y159022D01*
X141383Y159011D01*
X141363Y158999D01*
X141343Y158988D01*
X141323Y158976D01*
X141303Y158965D01*
X141282Y158954D01*
X141262Y158942D01*
X141241Y158931D01*
X141220Y158920D01*
X141210Y158914D01*
X141201Y158907D01*
X141195Y158902D01*
X141189Y158897D01*
X141183Y158892D01*
X141177Y158887D01*
X141171Y158882D01*
X141165Y158878D01*
X141159Y158873D01*
X141152Y158868D01*
X141146Y158864D01*
X141140Y158859D01*
X141133Y158855D01*
X141127Y158850D01*
X141120Y158846D01*
X141113Y158841D01*
X141106Y158837D01*
X141100Y158833D01*
X141093Y158829D01*
X141086Y158824D01*
X141079Y158820D01*
X141072Y158816D01*
X141065Y158812D01*
X141058Y158808D01*
X141051Y158804D01*
X141043Y158800D01*
X141036Y158796D01*
X141029Y158792D01*
X141021Y158788D01*
X141014Y158785D01*
X141006Y158781D01*
X140999Y158777D01*
X140991Y158774D01*
X140983Y158770D01*
X140976Y158766D01*
X140968Y158763D01*
X140960Y158759D01*
X140952Y158756D01*
X140944Y158752D01*
X140936Y158749D01*
X140928Y158746D01*
X140920Y158742D01*
X140912Y158739D01*
X140904Y158736D01*
X140896Y158733D01*
X140887Y158730D01*
X140879Y158726D01*
X140871Y158723D01*
X140862Y158720D01*
X140854Y158717D01*
X140845Y158714D01*
X140837Y158711D01*
X140828Y158708D01*
X140819Y158706D01*
X140810Y158703D01*
X140802Y158700D01*
X140793Y158697D01*
X140784Y158695D01*
X140775Y158692D01*
X140766Y158689D01*
X140757Y158686D01*
X140748Y158684D01*
X140739Y158681D01*
X140730Y158679D01*
X140720Y158676D01*
X140711Y158674D01*
X140702Y158671D01*
X140693Y158669D01*
X140683Y158667D01*
X140674Y158664D01*
X140664Y158662D01*
X140655Y158660D01*
X140645Y158658D01*
X140636Y158655D01*
X140626Y158653D01*
X140616Y158651D01*
X140607Y158649D01*
X140597Y158647D01*
X140587Y158645D01*
X140577Y158643D01*
X140567Y158641D01*
X140557Y158639D01*
X140547Y158637D01*
X140537Y158635D01*
X140527Y158633D01*
X140517Y158632D01*
X140507Y158630D01*
X140497Y158628D01*
X140487Y158626D01*
X140477Y158624D01*
X140466Y158623D01*
X140456Y158621D01*
X140445Y158619D01*
X140435Y158618D01*
X140425Y158616D01*
X140414Y158615D01*
X140404Y158613D01*
X140393Y158612D01*
X140383Y158610D01*
X140372Y158609D01*
X140361Y158607D01*
X140351Y158606D01*
X140340Y158605D01*
X140329Y158603D01*
X140318Y158602D01*
X140308Y158601D01*
X140297Y158599D01*
X140286Y158598D01*
X140275Y158597D01*
X140264Y158596D01*
X140253Y158595D01*
X140242Y158593D01*
X140231Y158592D01*
X140220Y158591D01*
X140209Y158590D01*
X140198Y158589D01*
X140186Y158588D01*
X140175Y158587D01*
X140164Y158586D01*
X140153Y158585D01*
X140141Y158584D01*
X140130Y158583D01*
X140119Y158582D01*
X140107Y158581D01*
X140096Y158581D01*
X140085Y158580D01*
X140073Y158579D01*
X140061Y158578D01*
X140050Y158578D01*
X140038Y158577D01*
X140027Y158576D01*
X140015Y158575D01*
X140004Y158575D01*
X139992Y158574D01*
X139980Y158573D01*
X139969Y158573D01*
X139957Y158572D01*
X139945Y158571D01*
X139933Y158571D01*
X139921Y158570D01*
X139910Y158570D01*
X139898Y158569D01*
X139886Y158569D01*
X139874Y158568D01*
X139862Y158568D01*
X139850Y158567D01*
X139838Y158567D01*
X139826Y158566D01*
X139814Y158566D01*
X139802Y158565D01*
X139790Y158565D01*
X139778Y158565D01*
X139766Y158564D01*
X139754Y158564D01*
X139742Y158564D01*
X139729Y158563D01*
X139717Y158563D01*
X139705Y158563D01*
X139693Y158563D01*
X139681Y158562D01*
X139668Y158562D01*
X139644Y158562D01*
X139625Y158561D01*
X139607Y158561D01*
X139576Y158561D01*
X139563Y158561D01*
X139538Y158560D01*
X139526Y158560D01*
X139520Y158560D01*
X139514Y158560D01*
X139488Y158560D01*
X139476Y158560D01*
X139457Y158560D01*
X139438Y158560D01*
X139419Y158560D01*
X139388D01*
X139356Y158560D01*
X139325Y158560D01*
X139293Y158560D01*
X139287Y158560D01*
X139280Y158560D01*
X139268Y158560D01*
X139229Y158561D01*
X139198Y158561D01*
X139172Y158561D01*
X139140Y158561D01*
X139121Y158562D01*
X139114Y158562D01*
X139102Y158562D01*
X139095Y158562D01*
X139076Y158562D01*
X139037Y158563D01*
X139031Y158563D01*
X139018Y158563D01*
X139012Y158563D01*
X138992Y158563D01*
X138979Y158563D01*
X138967Y158563D01*
X138876Y158565D01*
X138863Y158565D01*
X138780Y158566D01*
X138747Y158566D01*
X138734Y158567D01*
X138722Y158567D01*
X138715Y158567D01*
X138702Y158567D01*
X138696Y158567D01*
X138670Y158568D01*
X138664Y158568D01*
X138638Y158568D01*
X138625Y158568D01*
X138619Y158568D01*
X138606Y158568D01*
X138599Y158568D01*
X138586Y158568D01*
X138580Y158569D01*
X138574Y158569D01*
X138541Y158569D01*
X138529Y158569D01*
X138490Y158569D01*
X138484Y158569D01*
X138477Y158569D01*
X138458Y158570D01*
X138452Y158570D01*
X138445Y158570D01*
X138407Y158570D01*
X138382Y158570D01*
X138350Y158570D01*
X138324D01*
X138312Y158570D01*
X138299Y158570D01*
X138286Y158570D01*
X138274Y158570D01*
X138261Y158570D01*
X138248Y158570D01*
X138236Y158570D01*
X138210Y158569D01*
X138198Y158569D01*
X138173Y158569D01*
X138148Y158569D01*
X138129Y158569D01*
X138110Y158568D01*
X138092Y158568D01*
X138067Y158568D01*
X138054Y158567D01*
X138042Y158567D01*
X138030Y158567D01*
X138017Y158566D01*
X138005Y158566D01*
X137993Y158566D01*
X137980Y158566D01*
X137968Y158565D01*
X137956Y158565D01*
X137943Y158564D01*
X137931Y158564D01*
X137919Y158564D01*
X137907Y158563D01*
X137894Y158563D01*
X137882Y158562D01*
X137870Y158562D01*
X137858Y158562D01*
X137846Y158561D01*
X137834Y158561D01*
X137822Y158560D01*
X137810Y158559D01*
X137798Y158559D01*
X137786Y158558D01*
X137774Y158558D01*
X137762Y158557D01*
X137750Y158556D01*
X137738Y158556D01*
X137726Y158555D01*
X137714Y158554D01*
X137703Y158554D01*
X137691Y158553D01*
X137679Y158552D01*
X137667Y158551D01*
X137655Y158551D01*
X137644Y158550D01*
X137632Y158549D01*
X137620Y158548D01*
X137609Y158547D01*
X137597Y158546D01*
X137586Y158545D01*
X137574Y158544D01*
X137563Y158544D01*
X137551Y158543D01*
X137540Y158542D01*
X137528Y158540D01*
X137517Y158539D01*
X137505Y158538D01*
X137494Y158537D01*
X137483Y158536D01*
X137471Y158535D01*
X137460Y158534D01*
X137449Y158533D01*
X137438Y158531D01*
X137427Y158530D01*
X137415Y158529D01*
X137404Y158528D01*
X137393Y158526D01*
X137382Y158525D01*
X137371Y158524D01*
X137360Y158522D01*
X137349Y158521D01*
X137338Y158519D01*
X137328Y158518D01*
X137317Y158516D01*
X137306Y158515D01*
X137295Y158513D01*
X137284Y158512D01*
X137274Y158510D01*
X137263Y158509D01*
X137252Y158507D01*
X137242Y158505D01*
X137231Y158503D01*
X137221Y158502D01*
X137210Y158500D01*
X137200Y158498D01*
X137189Y158496D01*
X137179Y158494D01*
X137169Y158493D01*
X137158Y158491D01*
X137148Y158489D01*
X137138Y158487D01*
X137127Y158485D01*
X137117Y158483D01*
X137107Y158481D01*
X137097Y158478D01*
X137087Y158476D01*
X137077Y158474D01*
X137067Y158472D01*
X137057Y158470D01*
X137047Y158467D01*
X137038Y158465D01*
X137028Y158463D01*
X137018Y158460D01*
X137008Y158458D01*
X136999Y158456D01*
X136989Y158453D01*
X136979Y158451D01*
X136970Y158448D01*
X136960Y158446D01*
X136951Y158443D01*
X136941Y158440D01*
X136932Y158438D01*
X136923Y158435D01*
X136913Y158432D01*
X136904Y158430D01*
X136895Y158427D01*
X136886Y158424D01*
X136877Y158421D01*
X136868Y158418D01*
X136859Y158415D01*
X136850Y158412D01*
X136841Y158409D01*
X136832Y158406D01*
X136823Y158403D01*
X136814Y158400D01*
X136806Y158397D01*
X136797Y158394D01*
X136788Y158390D01*
X136780Y158387D01*
X136771Y158384D01*
X136763Y158381D01*
X136754Y158377D01*
X136746Y158374D01*
X136738Y158370D01*
X136729Y158367D01*
X136721Y158363D01*
X136713Y158360D01*
X136705Y158356D01*
X136697Y158352D01*
X136689Y158349D01*
X136681Y158345D01*
X136673Y158341D01*
X136665Y158337D01*
X136657Y158334D01*
X136649Y158330D01*
X136642Y158326D01*
X136634Y158322D01*
X136626Y158318D01*
X136619Y158314D01*
X136611Y158309D01*
X136604Y158305D01*
X136596Y158301D01*
X136589Y158297D01*
X136582Y158292D01*
X136574Y158288D01*
X136567Y158284D01*
X136560Y158279D01*
X136553Y158275D01*
X136546Y158270D01*
X136539Y158266D01*
X136532Y158261D01*
X136526Y158257D01*
X136519Y158252D01*
X136512Y158247D01*
X136512Y158247D01*
X136505Y158242D01*
X136505Y158242D01*
X136499Y158238D01*
X136499Y158238D01*
X136492Y158233D01*
X136492Y158233D01*
X136486Y158228D01*
X136486Y158228D01*
X136479Y158223D01*
X136479Y158223D01*
X136473Y158218D01*
X136473Y158218D01*
X136467Y158213D01*
X136467Y158213D01*
X136460Y158208D01*
X136460Y158208D01*
X136454Y158203D01*
X136454Y158203D01*
X136448Y158197D01*
X136448Y158197D01*
X136442Y158192D01*
X136442Y158192D01*
X136433Y158184D01*
X136433Y158184D01*
X136424Y158176D01*
X136424Y158176D01*
X136416Y158168D01*
X136416Y158168D01*
X136407Y158160D01*
X136407Y158160D01*
X136399Y158151D01*
X136399Y158151D01*
X136390Y158143D01*
X136390Y158143D01*
X136382Y158134D01*
X136382Y158134D01*
X136374Y158125D01*
X136374Y158125D01*
X136373Y158124D01*
X136373Y158124D01*
X136371Y158121D01*
X136371Y158121D01*
X136368Y158118D01*
X136368Y158118D01*
X136365Y158115D01*
X136365Y158115D01*
X136364Y158114D01*
X136364Y158114D01*
X136363Y158112D01*
X136363Y158112D01*
X136360Y158109D01*
X136360Y158109D01*
X136358Y158106D01*
X136358Y158106D01*
X136355Y158103D01*
X136355Y158103D01*
X136354Y158101D01*
X136354Y158101D01*
X136352Y158100D01*
X136352Y158100D01*
X136349Y158096D01*
X136349Y158096D01*
X136346Y158092D01*
X136346Y158092D01*
X136343Y158088D01*
X136343Y158088D01*
X136342Y158086D01*
X136342Y158086D01*
X136340Y158084D01*
X136340Y158084D01*
X136336Y158079D01*
X136336Y158079D01*
X136333Y158074D01*
X136333Y158074D01*
X136329Y158070D01*
X136329Y158070D01*
X136327Y158067D01*
X136327Y158067D01*
X136325Y158064D01*
X136325Y158064D01*
X136320Y158057D01*
X136320Y158056D01*
X136315Y158049D01*
X136315Y158049D01*
X136310Y158042D01*
X136310Y158042D01*
X136307Y158038D01*
X136307Y158038D01*
X136301Y158028D01*
X136301Y158028D01*
X136288Y158008D01*
X136288Y158008D01*
X136277Y157987D01*
X136276Y157987D01*
X136266Y157966D01*
X136265Y157966D01*
X136260Y157956D01*
X136260Y157955D01*
X136259Y157953D01*
X136259Y157952D01*
X136256Y157947D01*
X136256Y157947D01*
X136254Y157942D01*
X136254Y157941D01*
X136251Y157936D01*
X136251Y157936D01*
X136250Y157933D01*
X136250Y157933D01*
X136249Y157931D01*
X136249Y157931D01*
X136247Y157926D01*
X136247Y157926D01*
X136245Y157922D01*
X136245Y157921D01*
X136243Y157917D01*
X136243Y157917D01*
X136242Y157915D01*
X136242Y157914D01*
X136241Y157913D01*
X136241Y157912D01*
X136240Y157909D01*
X136240Y157908D01*
X136238Y157905D01*
X136238Y157904D01*
X136237Y157902D01*
X136237Y157900D01*
X136236Y157900D01*
X136236Y157898D01*
X136235Y157898D01*
X136235Y157896D01*
X136234Y157894D01*
X136233Y157892D01*
X136233Y157890D01*
X136231Y157886D01*
X136231Y157884D01*
X136231Y157884D01*
X136228Y157876D01*
X136236Y157857D01*
X136236Y157857D01*
X136242Y157843D01*
X136242Y157843D01*
X136248Y157829D01*
X136248Y157829D01*
X136254Y157815D01*
X136254Y157815D01*
X136261Y157801D01*
X136261Y157801D01*
X136267Y157787D01*
X136267Y157787D01*
X136274Y157774D01*
X136274Y157774D01*
X136283Y157756D01*
X136283Y157756D01*
X136293Y157738D01*
X136293Y157738D01*
X136302Y157721D01*
X136302Y157721D01*
X136312Y157704D01*
X136312Y157704D01*
X136314Y157702D01*
X136314Y157702D01*
X136317Y157696D01*
X136317Y157696D01*
X136320Y157691D01*
X136323Y157686D01*
X136326Y157681D01*
X136330Y157676D01*
X136333Y157671D01*
X136336Y157666D01*
X136338Y157663D01*
X136340Y157660D01*
X136344Y157654D01*
X136348Y157648D01*
X136352Y157642D01*
X136357Y157635D01*
X136362Y157627D01*
X136368Y157619D01*
X136374Y157612D01*
X136376Y157608D01*
X136382Y157601D01*
X136393Y157587D01*
X136404Y157573D01*
X136415Y157559D01*
X136421Y157552D01*
X136430Y157542D01*
X136448Y157522D01*
X136466Y157503D01*
X136475Y157494D01*
X136485Y157483D01*
X136485Y157483D01*
X136495Y157474D01*
X136495Y157474D01*
X136498Y157471D01*
X136498Y157471D01*
X136505Y157465D01*
X136505Y157464D01*
X136512Y157458D01*
X136512Y157458D01*
X136519Y157452D01*
X136519Y157452D01*
X136522Y157449D01*
X136522Y157449D01*
X136525Y157446D01*
X136525Y157446D01*
X136530Y157442D01*
X136530Y157442D01*
X136535Y157437D01*
X136536Y157437D01*
X136541Y157433D01*
X136541Y157432D01*
X136543Y157430D01*
X136544Y157430D01*
X136546Y157428D01*
X136546Y157428D01*
X136551Y157424D01*
X136552Y157423D01*
X136557Y157419D01*
X136557Y157419D01*
X136562Y157415D01*
X136562Y157414D01*
X136565Y157413D01*
X136565Y157412D01*
X136567Y157411D01*
X136567Y157410D01*
X136572Y157407D01*
X136572Y157407D01*
X136576Y157403D01*
X136577Y157403D01*
X136581Y157400D01*
X136581Y157399D01*
X136583Y157398D01*
X136584Y157397D01*
X136585Y157396D01*
X136586Y157396D01*
X136590Y157393D01*
X136592Y157391D01*
X136595Y157389D01*
X136602Y157384D01*
X136602Y157384D01*
X136602Y157384D01*
X136617Y157373D01*
X136631Y157363D01*
X136632Y157362D01*
X136647Y157352D01*
X136648Y157352D01*
X136663Y157341D01*
X136663Y157341D01*
X136675Y157334D01*
X136675Y157334D01*
X136687Y157326D01*
X136687Y157326D01*
X136699Y157319D01*
X136699Y157319D01*
X136711Y157312D01*
X136712Y157311D01*
X136724Y157305D01*
X136724Y157304D01*
X136736Y157298D01*
X136736Y157297D01*
X136749Y157291D01*
X136749Y157291D01*
X136761Y157284D01*
X136762Y157284D01*
X136774Y157277D01*
X136774Y157277D01*
X136787Y157271D01*
X136787Y157271D01*
X136800Y157264D01*
X136800Y157264D01*
X136813Y157258D01*
X136813Y157258D01*
X136826Y157252D01*
X136826Y157252D01*
X136839Y157246D01*
X136839Y157246D01*
X136853Y157240D01*
X136853Y157240D01*
X136866Y157234D01*
X136866Y157234D01*
X136880Y157229D01*
X136880Y157229D01*
X136893Y157223D01*
X136893Y157223D01*
X136902Y157219D01*
X136903Y157219D01*
X136912Y157216D01*
X136912Y157216D01*
X136921Y157212D01*
X136921Y157212D01*
X136930Y157209D01*
X136930Y157209D01*
X136940Y157205D01*
X136940Y157205D01*
X136949Y157202D01*
X136949Y157202D01*
X136958Y157199D01*
X136958Y157199D01*
X136968Y157195D01*
X136968Y157195D01*
X136977Y157192D01*
X136977Y157192D01*
X136987Y157189D01*
X136987Y157189D01*
X136996Y157186D01*
X136996Y157186D01*
X137006Y157183D01*
X137006Y157183D01*
X137015Y157180D01*
X137015Y157180D01*
X137017Y157179D01*
X137025Y157177D01*
X137035Y157174D01*
X137045Y157171D01*
X137054Y157168D01*
X137064Y157165D01*
X137074Y157162D01*
X137084Y157160D01*
X137094Y157157D01*
X137104Y157155D01*
X137114Y157152D01*
X137124Y157149D01*
X137134Y157147D01*
X137144Y157144D01*
X137154Y157142D01*
X137165Y157140D01*
X137175Y157138D01*
X137185Y157135D01*
X137196Y157133D01*
X137206Y157131D01*
X137216Y157129D01*
X137227Y157127D01*
X137237Y157125D01*
X137248Y157123D01*
X137258Y157121D01*
X137269Y157119D01*
X137279Y157117D01*
X137290Y157115D01*
X137301Y157114D01*
X137311Y157112D01*
X137322Y157110D01*
X137333Y157109D01*
X137344Y157107D01*
X137355Y157106D01*
X137365Y157104D01*
X137376Y157103D01*
X137387Y157101D01*
X137398Y157100D01*
X137409Y157099D01*
X137420Y157097D01*
X137431Y157096D01*
X137442Y157095D01*
X137453Y157094D01*
X137465Y157093D01*
X137476Y157092D01*
X137487Y157091D01*
X137498Y157090D01*
X137510Y157089D01*
X137521Y157088D01*
X137532Y157087D01*
X137544Y157086D01*
X137555Y157085D01*
X137566Y157085D01*
X137578Y157084D01*
X137590Y157083D01*
X137601Y157083D01*
X137613Y157082D01*
X137624Y157081D01*
X137636Y157081D01*
X137647Y157080D01*
X137659Y157080D01*
X137671Y157080D01*
X137682Y157079D01*
X137694Y157079D01*
X137706Y157079D01*
X137718Y157078D01*
X137730Y157078D01*
X137741Y157078D01*
X137753Y157078D01*
X137765Y157078D01*
X137777Y157078D01*
X137789Y157078D01*
X137801Y157078D01*
X137813Y157078D01*
X137825Y157078D01*
X137837Y157078D01*
X137849Y157078D01*
X137861Y157078D01*
X137873Y157078D01*
X137886Y157079D01*
X137898Y157079D01*
X137910Y157079D01*
X137922Y157080D01*
X137934Y157080D01*
X137947Y157080D01*
X137959Y157081D01*
X137971Y157081D01*
X137984Y157082D01*
X137996Y157082D01*
X138008Y157083D01*
X138021Y157083D01*
X138033Y157084D01*
X138046Y157085D01*
X138058Y157086D01*
X138071Y157086D01*
X138083Y157087D01*
X138096Y157088D01*
X138108Y157089D01*
X138121Y157090D01*
X138133Y157090D01*
X138146Y157091D01*
X138159Y157092D01*
X138171Y157093D01*
X138184Y157094D01*
X138197Y157095D01*
X138209Y157096D01*
X138222Y157098D01*
X138235Y157099D01*
X138248Y157100D01*
X138260Y157101D01*
X138273Y157102D01*
X138286Y157104D01*
X138299Y157105D01*
X138312Y157106D01*
X138324Y157107D01*
X138337Y157109D01*
X138350Y157110D01*
X138363Y157112D01*
X138376Y157113D01*
X138389Y157115D01*
X138402Y157116D01*
X138415Y157117D01*
X138428Y157119D01*
X138441Y157121D01*
X138454Y157122D01*
X138467Y157124D01*
X138480Y157125D01*
X138493Y157127D01*
X138506Y157129D01*
X138519Y157131D01*
X138532Y157132D01*
X138545Y157134D01*
X138558Y157136D01*
X138572Y157138D01*
X138585Y157140D01*
X138598Y157141D01*
X138611Y157143D01*
X138624Y157145D01*
X138637Y157147D01*
X138651Y157149D01*
X138664Y157151D01*
X138677Y157153D01*
X138690Y157155D01*
X138704Y157157D01*
X138717Y157159D01*
X138730Y157161D01*
X138743Y157164D01*
X138757Y157166D01*
X138783Y157170D01*
X138797Y157172D01*
X138810Y157175D01*
X138823Y157177D01*
X138850Y157181D01*
X138864Y157184D01*
X138877Y157186D01*
X138890Y157188D01*
X138917Y157193D01*
X138930Y157195D01*
X138944Y157198D01*
X138971Y157203D01*
X138998Y157208D01*
X139011Y157210D01*
X139025Y157213D01*
X139038Y157215D01*
X139065Y157221D01*
X139078Y157223D01*
X139092Y157226D01*
X139105Y157229D01*
X139132Y157234D01*
X139146Y157237D01*
X139173Y157242D01*
X139200Y157247D01*
X139227Y157253D01*
X139241Y157256D01*
X139268Y157262D01*
X139295Y157267D01*
X139308Y157270D01*
X139335Y157276D01*
X139349Y157279D01*
X139376Y157285D01*
X139403Y157291D01*
X139417Y157294D01*
X139444Y157299D01*
X139471Y157306D01*
X139484Y157309D01*
X139511Y157315D01*
X139538Y157321D01*
X139565Y157327D01*
X139593Y157333D01*
X139606Y157336D01*
X139633Y157343D01*
X139647Y157346D01*
X139674Y157352D01*
X139701Y157359D01*
X139728Y157365D01*
X139754Y157372D01*
X139781Y157378D01*
X139795Y157381D01*
X139822Y157388D01*
X139849Y157395D01*
X139876Y157401D01*
X139902Y157408D01*
X139943Y157418D01*
X139983Y157428D01*
X140009Y157434D01*
X140036Y157441D01*
X140076Y157451D01*
X140129Y157465D01*
X140136Y157466D01*
X140142Y157468D01*
X140149Y157470D01*
X140169Y157475D01*
X140189Y157480D01*
X140195Y157482D01*
X140241Y157494D01*
X140281Y157504D01*
X140313Y157512D01*
X140320Y157514D01*
X140333Y157518D01*
X140385Y157531D01*
X140392Y157533D01*
X140418Y157540D01*
X140424Y157541D01*
X140456Y157550D01*
X140521Y157567D01*
X140546Y157573D01*
X140553Y157575D01*
X140566Y157579D01*
X140578Y157582D01*
X140585Y157584D01*
X140617Y157592D01*
X140686Y157610D01*
X140767Y157632D01*
X140798Y157640D01*
X140842Y157651D01*
X140891Y157664D01*
X140903Y157668D01*
X140934Y157676D01*
X140946Y157679D01*
X140952Y157680D01*
X141000Y157693D01*
X141024Y157699D01*
X141030Y157701D01*
X141042Y157704D01*
X141048Y157705D01*
X141066Y157710D01*
X141090Y157716D01*
X141107Y157721D01*
X141137Y157728D01*
X141143Y157730D01*
X141166Y157736D01*
X141195Y157743D01*
X141218Y157749D01*
X141235Y157753D01*
X141253Y157757D01*
X141281Y157765D01*
X141298Y157769D01*
X141315Y157773D01*
X141332Y157777D01*
X141349Y157781D01*
X141371Y157787D01*
X141399Y157794D01*
X141410Y157796D01*
X141432Y157801D01*
X141454Y157807D01*
X141464Y157809D01*
X141470Y157811D01*
X141491Y157816D01*
X141513Y157821D01*
X141529Y157824D01*
X141545Y157828D01*
X141561Y157832D01*
X141566Y157833D01*
X141577Y157835D01*
X141603Y157841D01*
X141608Y157842D01*
X141613Y157843D01*
X141629Y157847D01*
X141649Y157851D01*
X141659Y157854D01*
X141680Y157858D01*
X141695Y157861D01*
X141720Y157867D01*
X141735Y157870D01*
X141745Y157872D01*
X141754Y157874D01*
X141764Y157876D01*
X141796Y157883D01*
X141822Y157889D01*
X141853Y157896D01*
X141884Y157902D01*
X141915Y157907D01*
X141920Y157908D01*
X141929Y157909D01*
X141938Y157911D01*
X141947Y157912D01*
X141952Y157913D01*
X141956Y157913D01*
X141965Y157914D01*
X141974Y157916D01*
X141983Y157917D01*
X141993Y157918D01*
X142003Y157919D01*
X142013Y157920D01*
X142023Y157922D01*
X142028Y157922D01*
X142034Y157923D01*
X142045Y157924D01*
X142057Y157925D01*
X142068Y157926D01*
X142074Y157926D01*
X142074Y157926D01*
X142398Y157904D01*
X142622Y157870D01*
X142775Y157816D01*
X142850Y157789D01*
X143049Y157701D01*
X143376Y157486D01*
X143382Y157482D01*
X143404Y157463D01*
X143426Y157444D01*
X143448Y157424D01*
X143470Y157405D01*
X143492Y157385D01*
X143513Y157364D01*
X143538Y157340D01*
X143562Y157315D01*
X143586Y157290D01*
X143610Y157265D01*
X143633Y157239D01*
X143656Y157213D01*
X143679Y157187D01*
X143705Y157156D01*
X143730Y157125D01*
X143755Y157094D01*
X143779Y157062D01*
X143806Y157025D01*
X143833Y156988D01*
X143836Y156983D01*
X143844Y156973D01*
X143851Y156962D01*
X143858Y156952D01*
X143865Y156941D01*
X143873Y156929D01*
X143881Y156918D01*
X143888Y156906D01*
X143896Y156894D01*
X143904Y156881D01*
X143912Y156868D01*
X143921Y156855D01*
X143929Y156842D01*
X143938Y156828D01*
X143946Y156814D01*
X143954Y156799D01*
X143963Y156784D01*
X143973Y156768D01*
X143982Y156751D01*
X143992Y156734D01*
X144002Y156715D01*
X144014Y156694D01*
X144025Y156673D01*
X144036Y156651D01*
X144052Y156621D01*
X144071Y156582D01*
X144080Y156561D01*
X144080Y156561D01*
X144071Y156582D01*
X144083Y156553D01*
X144089Y156536D01*
X144078Y156561D01*
X144071Y156582D01*
X144052Y156621D01*
X144078Y156561D01*
X144083Y156547D01*
X144060Y156598D01*
X144052Y156621D01*
X144036Y156651D01*
X144060Y156598D01*
X144065Y156584D01*
X144044Y156631D01*
X144051Y156612D01*
X144035Y156648D01*
X144025Y156673D01*
X144014Y156694D01*
X144035Y156648D01*
X144044Y156626D01*
X144027Y156663D01*
X144014Y156694D01*
X144002Y156715D01*
X144027Y156663D01*
X144036Y156640D01*
X144017Y156680D01*
X144002Y156715D01*
X143992Y156734D01*
X144017Y156680D01*
X144028Y156654D01*
X144009Y156694D01*
X143992Y156734D01*
X143982Y156751D01*
X144009Y156694D01*
X144024Y156661D01*
X144007Y156697D01*
X143982Y156751D01*
X143973Y156767D01*
X144007Y156697D01*
X144025Y156656D01*
X144008Y156691D01*
X143973Y156768D01*
X143963Y156784D01*
X144008Y156691D01*
X144020Y156665D01*
X143996Y156716D01*
X144041Y156621D01*
X144053Y156595D01*
X144065Y156568D01*
X144078Y156537D01*
X144091Y156506D01*
X144106Y156471D01*
X144120Y156436D01*
X144138Y156389D01*
X144158Y156335D01*
X144159Y156334D01*
X144226Y156137D01*
X144236Y156108D01*
X144245Y156073D01*
X144299Y155799D01*
X144339Y155565D01*
X144350Y155426D01*
X144359Y155300D01*
X144358Y155278D01*
X144357Y155243D01*
X144355Y155213D01*
X144353Y155184D01*
X144351Y155155D01*
X144348Y155125D01*
X144345Y155096D01*
X144342Y155067D01*
X144338Y155037D01*
X144338Y155034D01*
X144287Y154836D01*
X144183Y154535D01*
X143983Y154295D01*
X143836Y154136D01*
X143817Y154119D01*
X143786Y154090D01*
X143755Y154062D01*
X143723Y154034D01*
X143692Y154006D01*
X143659Y153978D01*
X143626Y153951D01*
X143593Y153924D01*
X143560Y153897D01*
X143535Y153877D01*
X143509Y153858D01*
X143484Y153838D01*
X143458Y153819D01*
X143432Y153799D01*
X143405Y153780D01*
X143379Y153761D01*
X143352Y153742D01*
X143326Y153723D01*
X143299Y153705D01*
X143272Y153686D01*
X143244Y153668D01*
X143217Y153650D01*
X143189Y153632D01*
X143161Y153614D01*
X143133Y153596D01*
X143105Y153579D01*
X143077Y153561D01*
X143048Y153544D01*
X143019Y153527D01*
X142990Y153510D01*
X142961Y153493D01*
X142932Y153476D01*
X142903Y153459D01*
X142873Y153443D01*
X142843Y153427D01*
X142813Y153410D01*
X142783Y153394D01*
X142753Y153378D01*
X142723Y153363D01*
X142692Y153347D01*
X142662Y153332D01*
X142631Y153316D01*
X142600Y153301D01*
X142569Y153286D01*
X142537Y153271D01*
X142506Y153256D01*
X142474Y153242D01*
X142443Y153227D01*
X142411Y153213D01*
X142379Y153199D01*
X142347Y153184D01*
X142314Y153171D01*
X142282Y153157D01*
X142238Y153138D01*
X142195Y153121D01*
X142151Y153103D01*
X142107Y153085D01*
X142062Y153068D01*
X142018Y153051D01*
X141973Y153034D01*
X141928Y153018D01*
X141882Y153001D01*
X141837Y152985D01*
X141791Y152970D01*
X141745Y152954D01*
X141699Y152939D01*
X141653Y152924D01*
X141606Y152909D01*
X141559Y152894D01*
X141513Y152880D01*
X141465Y152866D01*
X141418Y152852D01*
X141371Y152838D01*
X141323Y152825D01*
X141275Y152811D01*
X141227Y152798D01*
X141179Y152786D01*
X141130Y152773D01*
X141082Y152761D01*
X141033Y152749D01*
X140984Y152737D01*
X140935Y152726D01*
X140874Y152711D01*
X140812Y152698D01*
X140750Y152684D01*
X140688Y152671D01*
X140626Y152658D01*
X140563Y152646D01*
X140500Y152634D01*
X140438Y152622D01*
X140374Y152611D01*
X140311Y152600D01*
X140248Y152590D01*
X140171Y152577D01*
X140094Y152566D01*
X140018Y152554D01*
X139941Y152544D01*
X139863Y152533D01*
X139786Y152524D01*
X139695Y152513D01*
X139604Y152503D01*
X139513Y152494D01*
X139409Y152484D01*
X139304Y152475D01*
X139186Y152466D01*
X139055Y152457D01*
X138910Y152449D01*
X138752Y152442D01*
X138555Y152435D01*
X138522Y152435D01*
X138456Y152433D01*
X138390Y152433D01*
X138324Y152432D01*
X138152Y152431D01*
X137873Y152436D01*
X137665Y152444D01*
X137178Y152474D01*
X137178Y152474D01*
X136697Y152522D01*
X136600Y152533D01*
X136499Y152546D01*
X136398Y152560D01*
X136311Y152573D01*
X136223Y152586D01*
X136149Y152598D01*
X136074Y152611D01*
X136001Y152623D01*
X135927Y152637D01*
X135854Y152650D01*
X135793Y152662D01*
X135732Y152674D01*
X135672Y152686D01*
X135612Y152699D01*
X135553Y152711D01*
X135493Y152725D01*
X135434Y152738D01*
X135387Y152749D01*
X135340Y152760D01*
X135293Y152771D01*
X135247Y152783D01*
X135200Y152795D01*
X135154Y152806D01*
X135108Y152818D01*
X135063Y152831D01*
X135017Y152843D01*
X134972Y152856D01*
X134927Y152868D01*
X134882Y152881D01*
X134837Y152894D01*
X134793Y152908D01*
X134749Y152921D01*
X134716Y152931D01*
X134683Y152942D01*
X134651Y152952D01*
X134618Y152963D01*
X134585Y152973D01*
X134553Y152984D01*
X134521Y152995D01*
X134489Y153006D01*
X134457Y153017D01*
X134426Y153028D01*
X134394Y153039D01*
X134363Y153050D01*
X134331Y153062D01*
X134300Y153073D01*
X134269Y153085D01*
X134239Y153096D01*
X134208Y153108D01*
X134177Y153120D01*
X134147Y153132D01*
X134117Y153144D01*
X134087Y153156D01*
X134057Y153169D01*
X134027Y153181D01*
X133998Y153193D01*
X133968Y153206D01*
X133939Y153219D01*
X133910Y153231D01*
X133881Y153244D01*
X133852Y153257D01*
X133824Y153270D01*
X133795Y153283D01*
X133767Y153297D01*
X133739Y153310D01*
X133712Y153323D01*
X133684Y153337D01*
X133656Y153350D01*
X133629Y153364D01*
X133602Y153378D01*
X133575Y153392D01*
X133548Y153406D01*
X133522Y153420D01*
X133495Y153434D01*
X133478Y153443D01*
X133460Y153453D01*
X133443Y153463D01*
X133426Y153472D01*
X133409Y153482D01*
X133392Y153491D01*
X133375Y153501D01*
X133358Y153511D01*
X133341Y153521D01*
X133324Y153531D01*
X133308Y153541D01*
X133291Y153550D01*
X133275Y153560D01*
X133258Y153570D01*
X133242Y153580D01*
X133226Y153591D01*
X133210Y153601D01*
X133194Y153611D01*
X133178Y153621D01*
X133162Y153631D01*
X133146Y153642D01*
X133131Y153652D01*
X133115Y153662D01*
X133100Y153673D01*
X133079Y153695D01*
X133064Y153710D01*
X133051Y153726D01*
X133037Y153742D01*
X133023Y153757D01*
X133009Y153773D01*
X132995Y153789D01*
X132981Y153805D01*
X132968Y153821D01*
X132954Y153838D01*
X132941Y153855D01*
X132927Y153871D01*
X132914Y153888D01*
X132900Y153905D01*
X132887Y153922D01*
X132873Y153940D01*
X132860Y153957D01*
X132847Y153975D01*
X132834Y153992D01*
X132821Y154010D01*
X132808Y154028D01*
X132794Y154046D01*
X132781Y154065D01*
X132768Y154083D01*
X132756Y154102D01*
X132743Y154120D01*
X132730Y154139D01*
X132717Y154158D01*
X132704Y154177D01*
X132692Y154197D01*
X132679Y154216D01*
X132667Y154235D01*
X132654Y154255D01*
X132642Y154275D01*
X132629Y154295D01*
X132617Y154315D01*
X132605Y154335D01*
X132592Y154355D01*
X132580Y154376D01*
X132568Y154396D01*
X132556Y154417D01*
X132544Y154438D01*
X132532Y154459D01*
X132520Y154480D01*
X132508Y154501D01*
X132496Y154522D01*
X132484Y154544D01*
X132473Y154565D01*
X132461Y154587D01*
X132449Y154609D01*
X132438Y154631D01*
X132426Y154653D01*
X132414Y154675D01*
X132403Y154697D01*
X132392Y154720D01*
X132380Y154742D01*
X132369Y154765D01*
X132358Y154788D01*
X132347Y154810D01*
X132335Y154833D01*
X132324Y154857D01*
X132313Y154880D01*
X132302Y154903D01*
X132291Y154927D01*
X132280Y154950D01*
X132270Y154974D01*
X132259Y154998D01*
X132248Y155021D01*
X132237Y155045D01*
X132227Y155070D01*
X132216Y155094D01*
X132205Y155118D01*
X132195Y155143D01*
X132185Y155167D01*
X132174Y155192D01*
X132164Y155217D01*
X132154Y155241D01*
X132143Y155266D01*
X132133Y155291D01*
X132123Y155317D01*
X132113Y155342D01*
X132103Y155367D01*
X132093Y155393D01*
X132083Y155419D01*
X132073Y155444D01*
X132063Y155470D01*
X132054Y155496D01*
X132039Y155535D01*
X132025Y155574D01*
X132010Y155614D01*
X131996Y155653D01*
X131982Y155693D01*
X131968Y155733D01*
X131954Y155774D01*
X131940Y155814D01*
X131927Y155855D01*
X131913Y155896D01*
X131900Y155937D01*
X131887Y155978D01*
X131874Y156020D01*
X131861Y156061D01*
X131848Y156103D01*
X131835Y156146D01*
X131822Y156188D01*
X131810Y156230D01*
X131798Y156273D01*
X131785Y156316D01*
X131773Y156359D01*
X131761Y156402D01*
X131749Y156445D01*
X131737Y156489D01*
X131726Y156533D01*
X131714Y156577D01*
X131703Y156621D01*
X131691Y156665D01*
X131680Y156709D01*
X131669Y156754D01*
X131658Y156799D01*
X131644Y156859D01*
X131630Y156919D01*
X131616Y156979D01*
X131602Y157040D01*
X131588Y157101D01*
X131575Y157162D01*
X131562Y157223D01*
X131549Y157285D01*
X131536Y157347D01*
X131524Y157409D01*
X131512Y157472D01*
X131500Y157534D01*
X131485Y157613D01*
X131471Y157692D01*
X131457Y157771D01*
X131443Y157851D01*
X131430Y157931D01*
X131417Y158011D01*
X131402Y158107D01*
X131388Y158204D01*
X131374Y158302D01*
X131360Y158399D01*
X131345Y158514D01*
X131331Y158629D01*
X131316Y158761D01*
X131299Y158910D01*
X131282Y159076D01*
X131264Y159276D01*
X131243Y159545D01*
X131231Y159713D01*
X131213Y160051D01*
X131201Y160389D01*
X131196Y160727D01*
X131196Y160896D01*
X131197Y161099D01*
X131200Y161268D01*
X131203Y161419D01*
X131208Y161554D01*
X131213Y161688D01*
X131219Y161805D01*
X131225Y161921D01*
X131231Y162021D01*
X131238Y162121D01*
X131245Y162220D01*
X131252Y162303D01*
X131258Y162385D01*
X131265Y162467D01*
X131273Y162549D01*
X131281Y162630D01*
X131290Y162712D01*
X131298Y162793D01*
X131306Y162858D01*
X131313Y162922D01*
X131321Y162987D01*
X131329Y163051D01*
X131338Y163115D01*
X131346Y163179D01*
X131355Y163242D01*
X131364Y163306D01*
X131374Y163369D01*
X131384Y163432D01*
X131393Y163495D01*
X131404Y163557D01*
X131414Y163619D01*
X131425Y163681D01*
X131433Y163728D01*
X131441Y163774D01*
X131450Y163820D01*
X131459Y163866D01*
X131467Y163912D01*
X131476Y163958D01*
X131485Y164003D01*
X131495Y164049D01*
X131504Y164094D01*
X131514Y164139D01*
X131523Y164184D01*
X131533Y164229D01*
X131543Y164273D01*
X131553Y164318D01*
X131564Y164362D01*
X131574Y164406D01*
X131585Y164450D01*
X131596Y164494D01*
X131606Y164538D01*
X131618Y164581D01*
X131629Y164624D01*
X131640Y164667D01*
X131652Y164710D01*
X131663Y164753D01*
X131675Y164795D01*
X131687Y164838D01*
X131699Y164880D01*
X131712Y164922D01*
X131724Y164964D01*
X131737Y165005D01*
X131749Y165047D01*
X131762Y165088D01*
X131775Y165129D01*
X131789Y165170D01*
X131802Y165210D01*
X131816Y165251D01*
X131829Y165291D01*
X131843Y165331D01*
X131857Y165371D01*
X131871Y165410D01*
X131885Y165450D01*
X131895Y165476D01*
X131905Y165502D01*
X131914Y165527D01*
X131924Y165553D01*
X131934Y165579D01*
X131944Y165605D01*
X131954Y165630D01*
X131964Y165656D01*
X131974Y165681D01*
X131985Y165706D01*
X131995Y165731D01*
X132005Y165756D01*
X132016Y165781D01*
X132026Y165806D01*
X132037Y165830D01*
X132048Y165855D01*
X132058Y165879D01*
X132069Y165904D01*
X132080Y165928D01*
X132091Y165952D01*
X132102Y165976D01*
X132113Y166000D01*
X132124Y166024D01*
X132135Y166047D01*
X132147Y166071D01*
X132158Y166095D01*
X132169Y166118D01*
X132181Y166141D01*
X132193Y166164D01*
X132204Y166187D01*
X132216Y166210D01*
X132228Y166233D01*
X132239Y166255D01*
X132251Y166278D01*
X132263Y166300D01*
X132275Y166323D01*
X132288Y166345D01*
X132300Y166367D01*
X132312Y166389D01*
X132325Y166411D01*
X132337Y166432D01*
X132349Y166454D01*
X132362Y166475D01*
X132375Y166497D01*
X132387Y166518D01*
X132400Y166539D01*
X132413Y166560D01*
X132426Y166581D01*
X132439Y166601D01*
X132452Y166622D01*
X132465Y166642D01*
X132478Y166663D01*
X132492Y166683D01*
X132505Y166703D01*
X132518Y166723D01*
X132532Y166743D01*
X132545Y166762D01*
X132559Y166782D01*
X132573Y166801D01*
X132587Y166820D01*
X132600Y166839D01*
X132614Y166858D01*
X132628Y166877D01*
X132642Y166896D01*
X132657Y166914D01*
X132671Y166933D01*
X132685Y166951D01*
X132700Y166969D01*
X132714Y166987D01*
X132728Y167005D01*
X132743Y167023D01*
X132758Y167041D01*
X132772Y167058D01*
X132787Y167075D01*
X132802Y167093D01*
X132817Y167110D01*
X132832Y167126D01*
X132847Y167143D01*
X132862Y167160D01*
X132878Y167176D01*
X132893Y167192D01*
X132908Y167209D01*
X132924Y167225D01*
X132939Y167240D01*
X132955Y167256D01*
X132971Y167272D01*
X132986Y167287D01*
X133002Y167302D01*
X133018Y167317D01*
X133042Y167340D01*
X133066Y167362D01*
X133091Y167383D01*
X133099Y167391D01*
X133121Y167406D01*
X133136Y167416D01*
X133152Y167427D01*
X133167Y167437D01*
X133183Y167447D01*
X133199Y167458D01*
X133214Y167468D01*
X133230Y167478D01*
X133247Y167489D01*
X133263Y167499D01*
X133279Y167509D01*
X133296Y167519D01*
X133312Y167529D01*
X133329Y167540D01*
X133346Y167550D01*
X133363Y167560D01*
X133380Y167570D01*
X133397Y167581D01*
X133414Y167591D01*
X133431Y167601D01*
X133449Y167611D01*
X133467Y167621D01*
X133484Y167631D01*
X133502Y167642D01*
X133520Y167652D01*
X133539Y167662D01*
X133557Y167672D01*
X133575Y167682D01*
X133594Y167692D01*
X133612Y167702D01*
X133631Y167712D01*
X133650Y167722D01*
X133669Y167733D01*
X133688Y167743D01*
X133707Y167753D01*
X133726Y167762D01*
X133745Y167772D01*
X133765Y167782D01*
X133784Y167792D01*
X133804Y167802D01*
X133824Y167812D01*
X133844Y167822D01*
X133864Y167832D01*
X133884Y167842D01*
X133904Y167852D01*
X133924Y167862D01*
X133944Y167871D01*
X133965Y167881D01*
X133986Y167891D01*
X134006Y167901D01*
X134027Y167911D01*
X134048Y167920D01*
X134069Y167930D01*
X134090Y167940D01*
X134111Y167949D01*
X134132Y167959D01*
X134165Y167973D01*
X134197Y167988D01*
X134229Y168002D01*
X134262Y168017D01*
X134295Y168031D01*
X134328Y168045D01*
X134361Y168059D01*
X134395Y168073D01*
X134429Y168087D01*
X134462Y168101D01*
X134496Y168115D01*
X134531Y168129D01*
X134565Y168143D01*
X134600Y168157D01*
X134635Y168170D01*
X134670Y168184D01*
X134705Y168198D01*
X134740Y168211D01*
X134788Y168229D01*
X134836Y168247D01*
X134884Y168264D01*
X134932Y168282D01*
X134980Y168300D01*
X135029Y168317D01*
X135079Y168334D01*
X135128Y168351D01*
X135190Y168372D01*
X135253Y168393D01*
X135316Y168414D01*
X135379Y168435D01*
X135456Y168459D01*
X135533Y168483D01*
X135624Y168511D01*
X135728Y168542D01*
X135847Y168576D01*
X135993Y168617D01*
X136208Y168674D01*
X136311Y168700D01*
X136517Y168750D01*
X136724Y168797D01*
X136931Y168840D01*
X137036Y168861D01*
X137036Y168861D01*
X137204Y168893D01*
X137345Y168918D01*
X137458Y168937D01*
X137571Y168955D01*
X137670Y168971D01*
X137755Y168983D01*
X137840Y168995D01*
X137925Y169006D01*
X138011Y169017D01*
X138082Y169026D01*
X138153Y169034D01*
X138224Y169042D01*
X138294Y169049D01*
X138365Y169056D01*
X138436Y169063D01*
X138493Y169068D01*
X138549Y169072D01*
X138606Y169077D01*
X138662Y169081D01*
X138719Y169085D01*
X138775Y169089D01*
X138831Y169092D01*
X138888Y169095D01*
X138944Y169098D01*
X139000Y169100D01*
X139056Y169103D01*
X139112Y169104D01*
X139168Y169106D01*
X139209Y169107D01*
X139251Y169108D01*
X139293Y169109D01*
X139334Y169109D01*
X139376Y169109D01*
X139417Y169110D01*
X139459Y169110D01*
X139500Y169109D01*
D02*
G37*
G36*
X128524Y169209D02*
X128542Y169209D01*
X128560Y169208D01*
X128577Y169208D01*
X128595Y169208D01*
X128612Y169207D01*
X128630Y169206D01*
X128647Y169205D01*
X128665Y169204D01*
X128682Y169203D01*
X128699Y169202D01*
X128716Y169201D01*
X128733Y169200D01*
X128749Y169199D01*
X128766Y169197D01*
X128782Y169195D01*
X128799Y169194D01*
X128815Y169192D01*
X128832Y169190D01*
X128848Y169188D01*
X128864Y169186D01*
X128880Y169184D01*
X128896Y169182D01*
X128912Y169179D01*
X128928Y169177D01*
X128943Y169174D01*
X128959Y169172D01*
X128974Y169169D01*
X128990Y169166D01*
X129005Y169163D01*
X129020Y169160D01*
X129035Y169157D01*
X129050Y169154D01*
X129065Y169150D01*
X129087Y169145D01*
X129110Y169140D01*
X129131Y169134D01*
X129153Y169129D01*
X129174Y169123D01*
X129196Y169117D01*
X129217Y169110D01*
X129238Y169104D01*
X129258Y169097D01*
X129279Y169090D01*
X129299Y169083D01*
X129319Y169076D01*
X129339Y169068D01*
X129359Y169061D01*
X129378Y169053D01*
X129397Y169045D01*
X129423Y169034D01*
X129448Y169022D01*
X129473Y169010D01*
X129497Y168998D01*
X129574Y168952D01*
X129745Y168821D01*
X129832Y168751D01*
X130000Y168591D01*
X130118Y168413D01*
X130146Y168370D01*
X130150Y168362D01*
X130291Y168109D01*
X130298Y168090D01*
X130305Y168072D01*
X130313Y168053D01*
X130320Y168034D01*
X130326Y168015D01*
X130333Y167996D01*
X130340Y167977D01*
X130346Y167957D01*
X130352Y167938D01*
X130358Y167918D01*
X130364Y167898D01*
X130370Y167879D01*
X130376Y167859D01*
X130381Y167839D01*
X130387Y167819D01*
X130392Y167798D01*
X130397Y167778D01*
X130402Y167758D01*
X130407Y167737D01*
X130411Y167717D01*
X130416Y167696D01*
X130420Y167675D01*
X130425Y167654D01*
X130429Y167633D01*
X130433Y167612D01*
X130436Y167591D01*
X130440Y167570D01*
X130444Y167549D01*
X130447Y167527D01*
X130450Y167506D01*
X130454Y167484D01*
X130457Y167463D01*
X130459Y167441D01*
X130462Y167419D01*
X130465Y167397D01*
X130467Y167375D01*
X130470Y167353D01*
X130472Y167331D01*
X130474Y167309D01*
X130476Y167287D01*
X130478Y167264D01*
X130479Y167242D01*
X130481Y167219D01*
X130482Y167197D01*
X130484Y167174D01*
X130485Y167151D01*
X130486Y167129D01*
X130487Y167106D01*
X130488Y167083D01*
X130489Y167060D01*
X130489Y167037D01*
X130490Y167014D01*
X130490Y166991D01*
X130490Y166968D01*
X130490Y166944D01*
X130490Y166921D01*
X130490Y166898D01*
X130490Y166874D01*
X130489Y166851D01*
X130489Y166827D01*
X130488Y166804D01*
X130488Y166780D01*
X130487Y166756D01*
X130486Y166733D01*
X130485Y166709D01*
X130483Y166685D01*
X130482Y166661D01*
X130481Y166637D01*
X130479Y166613D01*
X130477Y166589D01*
X130476Y166565D01*
X130474Y166541D01*
X130472Y166517D01*
X130470Y166493D01*
X130467Y166469D01*
X130465Y166444D01*
X130462Y166412D01*
X130458Y166379D01*
X130455Y166347D01*
X130451Y166314D01*
X130447Y166282D01*
X130443Y166249D01*
X130438Y166217D01*
X130434Y166184D01*
X130429Y166151D01*
X130424Y166118D01*
X130419Y166085D01*
X130414Y166052D01*
X130408Y166020D01*
X130403Y165987D01*
X130397Y165954D01*
X130391Y165921D01*
X130383Y165879D01*
X130375Y165838D01*
X130367Y165797D01*
X130359Y165755D01*
X130350Y165714D01*
X130341Y165673D01*
X130332Y165631D01*
X130320Y165582D01*
X130309Y165532D01*
X130297Y165483D01*
X130284Y165433D01*
X130269Y165375D01*
X130254Y165317D01*
X130236Y165252D01*
X130215Y165178D01*
X130190Y165096D01*
X130163Y165006D01*
X130123Y164884D01*
X130097Y164805D01*
X130066Y164716D01*
X129889Y164259D01*
X129888Y164259D01*
X129888D01*
X129689Y163820D01*
X129684Y163811D01*
X129666Y163775D01*
X129648Y163739D01*
X129630Y163704D01*
X129611Y163668D01*
X129597Y163640D01*
X129582Y163613D01*
X129548Y163550D01*
X129522Y163500D01*
X129495Y163451D01*
X129469Y163403D01*
X129442Y163355D01*
X129416Y163307D01*
X129390Y163261D01*
X129364Y163214D01*
X129338Y163169D01*
X129312Y163123D01*
X129287Y163078D01*
X129261Y163034D01*
X129236Y162990D01*
X129210Y162947D01*
X129185Y162905D01*
X129160Y162862D01*
X129129Y162810D01*
X129098Y162759D01*
X129067Y162708D01*
X129036Y162658D01*
X129006Y162609D01*
X128970Y162551D01*
X128934Y162493D01*
X128898Y162437D01*
X128857Y162373D01*
X128810Y162301D01*
X128752Y162213D01*
X128633Y162037D01*
X128512Y161864D01*
X128469Y161803D01*
X128437Y161759D01*
X128410Y161723D01*
X128384Y161687D01*
X128364Y161658D01*
X128343Y161630D01*
X128327Y161609D01*
X128312Y161588D01*
X128297Y161568D01*
X128281Y161547D01*
X128266Y161527D01*
X128246Y161500D01*
X128226Y161474D01*
X128216Y161461D01*
X128206Y161448D01*
X128196Y161435D01*
X128187Y161422D01*
X128177Y161409D01*
X128167Y161396D01*
X128157Y161383D01*
X128147Y161371D01*
X128138Y161358D01*
X128128Y161346D01*
X128119Y161333D01*
X128099Y161308D01*
X128080Y161284D01*
X128057Y161253D01*
X128038Y161229D01*
X128024Y161212D01*
X128010Y161194D01*
X127992Y161170D01*
X127969Y161141D01*
X127946Y161113D01*
X127920Y161079D01*
X127915Y161073D01*
X127911Y161067D01*
X127902Y161056D01*
X127841Y160979D01*
X127837Y160974D01*
X127824Y160958D01*
X127815Y160947D01*
X127811Y160941D01*
X127794Y160920D01*
X127786Y160909D01*
X127773Y160893D01*
X127757Y160872D01*
X127744Y160857D01*
X127736Y160846D01*
X127708Y160810D01*
X127692Y160790D01*
X127680Y160775D01*
X127664Y160754D01*
X127644Y160729D01*
X127633Y160714D01*
X127613Y160689D01*
X127606Y160679D01*
X127594Y160665D01*
X127583Y160650D01*
X127568Y160630D01*
X127557Y160616D01*
X127546Y160601D01*
X127535Y160586D01*
X127524Y160572D01*
X127521Y160567D01*
X127513Y160557D01*
X127503Y160543D01*
X127492Y160529D01*
X127485Y160519D01*
X127478Y160509D01*
X127471Y160500D01*
X127460Y160485D01*
X127453Y160476D01*
X127447Y160466D01*
X127440Y160457D01*
X127433Y160447D01*
X127426Y160438D01*
X127419Y160428D01*
X127413Y160419D01*
X127403Y160405D01*
X127396Y160395D01*
X127390Y160386D01*
X127383Y160376D01*
X127377Y160367D01*
X127373Y160362D01*
X127367Y160353D01*
X127361Y160343D01*
X127354Y160334D01*
X127348Y160325D01*
X127342Y160315D01*
X127335Y160306D01*
X127329Y160296D01*
X127323Y160287D01*
X127317Y160277D01*
X127311Y160268D01*
X127304Y160258D01*
X127298Y160249D01*
X127292Y160240D01*
X127286Y160230D01*
X127280Y160221D01*
X127275Y160211D01*
X127269Y160202D01*
X127263Y160192D01*
X127257Y160183D01*
X127251Y160173D01*
X127251Y160173D01*
X127246Y160164D01*
X127245Y160164D01*
X127240Y160154D01*
X127240Y160154D01*
X127234Y160145D01*
X127234Y160144D01*
X127229Y160135D01*
X127229Y160135D01*
X127223Y160126D01*
X127223Y160125D01*
X127217Y160116D01*
X127217Y160116D01*
X127212Y160106D01*
X127212Y160106D01*
X127207Y160097D01*
X127206Y160097D01*
X127201Y160087D01*
X127201Y160087D01*
X127193Y160073D01*
X127193Y160073D01*
X127185Y160058D01*
X127185Y160058D01*
X127177Y160044D01*
X127177Y160044D01*
X127169Y160029D01*
X127169Y160029D01*
X127162Y160015D01*
X127161Y160014D01*
X127154Y160000D01*
X127154Y160000D01*
X127146Y159985D01*
X127146Y159985D01*
X127136Y159966D01*
X127136Y159966D01*
X127126Y159946D01*
X127126Y159946D01*
X127117Y159926D01*
X127117Y159926D01*
X127105Y159901D01*
X127105Y159901D01*
X127091Y159871D01*
X127091Y159871D01*
X127075Y159836D01*
X127075Y159835D01*
X127071Y159827D01*
X127071Y159826D01*
X127064Y159811D01*
X127063Y159809D01*
X127057Y159794D01*
X127055Y159790D01*
X127050Y159777D01*
X127048Y159772D01*
X127047Y159769D01*
X127040Y159753D01*
X127028Y159721D01*
X127016Y159689D01*
X127004Y159657D01*
X126998Y159641D01*
X126985Y159603D01*
X126975Y159571D01*
X126975Y159570D01*
X126966Y159542D01*
X126966Y159541D01*
X126957Y159513D01*
X126957Y159513D01*
X126951Y159491D01*
X126951Y159490D01*
X126944Y159467D01*
X126944Y159467D01*
X126938Y159444D01*
X126938Y159444D01*
X126933Y159426D01*
X126933Y159426D01*
X126929Y159408D01*
X126929Y159408D01*
X126924Y159391D01*
X126924Y159390D01*
X126920Y159373D01*
X126920Y159372D01*
X126916Y159354D01*
X126916Y159354D01*
X126912Y159336D01*
X126911Y159336D01*
X126907Y159318D01*
X126907Y159318D01*
X126903Y159299D01*
X126903Y159299D01*
X126900Y159281D01*
X126899Y159280D01*
X126896Y159262D01*
X126896Y159262D01*
X126892Y159243D01*
X126892Y159243D01*
X126888Y159224D01*
X126888Y159223D01*
X126886Y159211D01*
X126886Y159211D01*
X126883Y159198D01*
X126883Y159198D01*
X126881Y159185D01*
X126879Y159172D01*
X126877Y159159D01*
X126874Y159146D01*
X126872Y159132D01*
X126870Y159119D01*
X126868Y159106D01*
X126866Y159092D01*
X126864Y159079D01*
X126862Y159065D01*
X126860Y159052D01*
X126858Y159038D01*
X126856Y159024D01*
X126855Y159010D01*
X126853Y158996D01*
X126851Y158982D01*
X126849Y158968D01*
X126848Y158954D01*
X126846Y158940D01*
X126845Y158925D01*
X126843Y158911D01*
X126841Y158897D01*
X126840Y158882D01*
X126839Y158867D01*
X126837Y158853D01*
X126836Y158838D01*
X126835Y158823D01*
X126833Y158808D01*
X126832Y158793D01*
X126831Y158778D01*
X126831Y158778D01*
X126830Y158763D01*
X126830Y158762D01*
X126829Y158747D01*
X126829Y158747D01*
X126828Y158732D01*
X126828Y158732D01*
X126827Y158716D01*
X126827Y158716D01*
X126826Y158701D01*
X126826Y158701D01*
X126825Y158685D01*
X126825Y158685D01*
X126824Y158669D01*
X126824Y158669D01*
X126823Y158654D01*
X126823Y158653D01*
X126822Y158638D01*
X126822Y158637D01*
X126821Y158622D01*
X126821Y158621D01*
X126821Y158606D01*
X126821Y158605D01*
X126820Y158589D01*
X126820Y158589D01*
X126819Y158573D01*
X126819Y158573D01*
X126819Y158557D01*
X126819Y158556D01*
X126818Y158540D01*
X126818Y158540D01*
X126818Y158524D01*
X126818Y158523D01*
X126817Y158507D01*
X126817Y158506D01*
X126817Y158490D01*
X126817Y158489D01*
X126816Y158473D01*
X126816Y158473D01*
X126816Y158456D01*
X126816Y158455D01*
X126816Y158439D01*
X126816Y158438D01*
X126815Y158422D01*
X126815Y158421D01*
X126815Y158405D01*
X126815Y158403D01*
X126815Y158387D01*
X126815Y158386D01*
X126815Y158370D01*
X126815Y158368D01*
X126815Y158352D01*
X126815Y158349D01*
X126814Y158335D01*
Y158331D01*
X126814Y158317D01*
X126814Y158308D01*
X126814Y158306D01*
X126814Y158301D01*
X126814Y158299D01*
X126814Y158281D01*
X126815Y158269D01*
X126815Y158263D01*
X126815Y158248D01*
X126815Y158245D01*
X126815Y158229D01*
X126815Y158227D01*
X126815Y158211D01*
X126815Y158208D01*
X126815Y158192D01*
X126815Y158190D01*
X126816Y158173D01*
X126816Y158171D01*
X126816Y158154D01*
X126816Y158153D01*
X126816Y158135D01*
X126816Y158134D01*
X126817Y158116D01*
X126817Y158115D01*
X126817Y158097D01*
X126817Y158096D01*
X126818Y158078D01*
X126818Y158077D01*
X126818Y158058D01*
X126818Y158057D01*
X126819Y158039D01*
X126819Y158038D01*
X126819Y158019D01*
X126819Y158019D01*
X126820Y158000D01*
X126820Y157999D01*
X126821Y157980D01*
X126821Y157979D01*
X126821Y157960D01*
X126821Y157959D01*
X126822Y157940D01*
X126822Y157940D01*
X126823Y157920D01*
X126823Y157920D01*
X126824Y157900D01*
X126824Y157899D01*
X126825Y157879D01*
X126825Y157879D01*
X126826Y157859D01*
X126826Y157859D01*
X126827Y157839D01*
X126827Y157838D01*
X126828Y157818D01*
X126828Y157817D01*
X126829Y157797D01*
X126830Y157776D01*
X126831Y157755D01*
X126832Y157734D01*
X126834Y157712D01*
X126835Y157691D01*
X126836Y157670D01*
X126838Y157648D01*
X126839Y157626D01*
X126841Y157605D01*
X126842Y157582D01*
X126844Y157560D01*
X126845Y157538D01*
X126847Y157516D01*
X126848Y157493D01*
X126850Y157471D01*
X126852Y157448D01*
X126854Y157425D01*
X126856Y157402D01*
X126857Y157379D01*
X126859Y157356D01*
X126861Y157332D01*
X126863Y157309D01*
X126865Y157285D01*
X126868Y157261D01*
X126870Y157237D01*
X126872Y157213D01*
X126874Y157189D01*
X126876Y157165D01*
X126879Y157140D01*
X126881Y157116D01*
X126883Y157091D01*
X126886Y157066D01*
X126888Y157041D01*
X126891Y157016D01*
X126893Y156991D01*
X126896Y156965D01*
X126899Y156939D01*
X126901Y156914D01*
X126904Y156888D01*
X126907Y156862D01*
X126910Y156836D01*
X126913Y156809D01*
X126916Y156783D01*
X126918Y156756D01*
X126921Y156729D01*
X126925Y156703D01*
X126927Y156676D01*
X126931Y156648D01*
X126934Y156621D01*
X126937Y156594D01*
X126940Y156566D01*
X126944Y156538D01*
X126947Y156510D01*
X126950Y156482D01*
X126954Y156454D01*
X126957Y156425D01*
X126961Y156397D01*
X126964Y156368D01*
X126968Y156339D01*
X126972Y156310D01*
X126975Y156281D01*
X126979Y156251D01*
X126983Y156222D01*
X126987Y156192D01*
X126990Y156162D01*
X126994Y156132D01*
X126998Y156102D01*
X127002Y156072D01*
X127006Y156041D01*
X127011Y156011D01*
X127015Y155980D01*
X127019Y155949D01*
X127023Y155918D01*
X127027Y155886D01*
X127032Y155855D01*
X127036Y155823D01*
X127040Y155792D01*
X127045Y155760D01*
X127049Y155728D01*
X127054Y155695D01*
X127058Y155663D01*
X127063Y155630D01*
X127068Y155597D01*
X127072Y155564D01*
X127077Y155531D01*
X127080Y155514D01*
X127069Y155460D01*
X127062Y155423D01*
X127055Y155387D01*
X127048Y155352D01*
X127041Y155316D01*
X127034Y155281D01*
X127026Y155246D01*
X127019Y155211D01*
X127011Y155177D01*
X127004Y155143D01*
X126996Y155109D01*
X126988Y155075D01*
X126980Y155041D01*
X126972Y155008D01*
X126964Y154975D01*
X126956Y154942D01*
X126948Y154909D01*
X126939Y154877D01*
X126931Y154845D01*
X126922Y154813D01*
X126914Y154781D01*
X126905Y154750D01*
X126896Y154719D01*
X126888Y154688D01*
X126879Y154657D01*
X126870Y154626D01*
X126861Y154596D01*
X126852Y154566D01*
X126842Y154536D01*
X126833Y154507D01*
X126824Y154477D01*
X126814Y154448D01*
X126805Y154419D01*
X126795Y154391D01*
X126786Y154362D01*
X126776Y154334D01*
X126766Y154306D01*
X126756Y154278D01*
X126746Y154250D01*
X126736Y154223D01*
X126726Y154196D01*
X126716Y154169D01*
X126706Y154142D01*
X126695Y154116D01*
X126685Y154090D01*
X126675Y154064D01*
X126664Y154038D01*
X126654Y154012D01*
X126643Y153987D01*
X126632Y153962D01*
X126621Y153937D01*
X126611Y153912D01*
X126600Y153888D01*
X126589Y153864D01*
X126578Y153840D01*
X126567Y153816D01*
X126555Y153792D01*
X126544Y153769D01*
X126533Y153746D01*
X126521Y153723D01*
X126510Y153700D01*
X126498Y153678D01*
X126487Y153655D01*
X126475Y153633D01*
X126464Y153611D01*
X126452Y153590D01*
X126440Y153568D01*
X126428Y153547D01*
X126416Y153526D01*
X126404Y153505D01*
X126392Y153485D01*
X126380Y153464D01*
X126368Y153444D01*
X126356Y153424D01*
X126344Y153404D01*
X126331Y153385D01*
X126319Y153365D01*
X126307Y153346D01*
X126294Y153327D01*
X126282Y153308D01*
X126269Y153290D01*
X126256Y153272D01*
X126244Y153254D01*
X126231Y153236D01*
X126218Y153218D01*
X126205Y153200D01*
X126192Y153183D01*
X126180Y153166D01*
X126167Y153149D01*
X126154Y153132D01*
X126140Y153116D01*
X126127Y153100D01*
X126114Y153084D01*
X126101Y153068D01*
X126088Y153052D01*
X126074Y153037D01*
X126061Y153021D01*
X126048Y153006D01*
X126034Y152991D01*
X126021Y152977D01*
X126007Y152962D01*
X125994Y152948D01*
X125980Y152934D01*
X125966Y152920D01*
X125953Y152906D01*
X125939Y152893D01*
X125925Y152879D01*
X125911Y152866D01*
X125897Y152853D01*
X125883Y152840D01*
X125870Y152828D01*
X125856Y152815D01*
X125841Y152803D01*
X125839Y152802D01*
X125628Y152662D01*
X125575Y152631D01*
X125441Y152557D01*
X125309Y152505D01*
X125143Y152457D01*
X125135Y152455D01*
X125048Y152438D01*
X124997Y152431D01*
X124923Y152423D01*
X124916Y152423D01*
X124776Y152419D01*
X124668Y152418D01*
X124502Y152448D01*
X124426Y152463D01*
X124355Y152482D01*
X124128Y152548D01*
X124110Y152556D01*
X124087Y152567D01*
X124064Y152577D01*
X124041Y152588D01*
X124018Y152599D01*
X123995Y152611D01*
X123972Y152623D01*
X123950Y152635D01*
X123927Y152647D01*
X123904Y152660D01*
X123882Y152673D01*
X123859Y152687D01*
X123837Y152700D01*
X123814Y152714D01*
X123792Y152728D01*
X123769Y152743D01*
X123747Y152758D01*
X123725Y152773D01*
X123703Y152788D01*
X123681Y152804D01*
X123659Y152820D01*
X123637Y152836D01*
X123615Y152853D01*
X123593Y152869D01*
X123571Y152887D01*
X123549Y152904D01*
X123528Y152922D01*
X123506Y152939D01*
X123485Y152958D01*
X123463Y152976D01*
X123442Y152995D01*
X123421Y153014D01*
X123400Y153033D01*
X123379Y153053D01*
X123358Y153073D01*
X123337Y153093D01*
X123316Y153113D01*
X123295Y153133D01*
X123275Y153154D01*
X123254Y153175D01*
X123234Y153197D01*
X123214Y153218D01*
X123193Y153240D01*
X123173Y153262D01*
X123153Y153285D01*
X123133Y153307D01*
X123113Y153330D01*
X123094Y153353D01*
X123074Y153376D01*
X123055Y153400D01*
X123035Y153424D01*
X123010Y153456D01*
X122984Y153489D01*
X122959Y153522D01*
X122934Y153555D01*
X122909Y153589D01*
X122884Y153623D01*
X122860Y153657D01*
X122836Y153692D01*
X122812Y153728D01*
X122788Y153763D01*
X122765Y153800D01*
X122741Y153836D01*
X122719Y153873D01*
X122690Y153920D01*
X122662Y153967D01*
X122634Y154015D01*
X122607Y154063D01*
X122581Y154112D01*
X122554Y154161D01*
X122523Y154221D01*
X122493Y154282D01*
X122463Y154344D01*
X122434Y154406D01*
X122401Y154480D01*
X122369Y154555D01*
X122364Y154566D01*
X122355Y154587D01*
X122346Y154609D01*
X122338Y154630D01*
X122333Y154641D01*
X122299Y154729D01*
X122294Y154741D01*
X122285Y154766D01*
X122276Y154791D01*
X122267Y154816D01*
X122257Y154843D01*
X122247Y154871D01*
X122237Y154900D01*
X122228Y154928D01*
X122218Y154958D01*
X122207Y154989D01*
X122197Y155021D01*
X122187Y155052D01*
X122177Y155086D01*
X122167Y155121D01*
X122164Y155128D01*
X122050Y155581D01*
X122050Y155581D01*
X121972Y156049D01*
X121964Y156117D01*
X121953Y156223D01*
X121948Y156276D01*
X121940Y156372D01*
X121930Y156564D01*
X121926Y156757D01*
X121928Y156949D01*
X121932Y157046D01*
X121932Y157046D01*
X121936Y157135D01*
X121950Y157314D01*
X121968Y157493D01*
X121992Y157671D01*
X122007Y157760D01*
X122013Y157796D01*
X122026Y157870D01*
X122040Y157943D01*
X122055Y158016D01*
X122063Y158052D01*
X122065Y158076D01*
X122067Y158095D01*
X122069Y158113D01*
X122070Y158132D01*
X122072Y158150D01*
X122073Y158169D01*
X122074Y158187D01*
X122075Y158205D01*
X122076Y158223D01*
X122077Y158241D01*
X122078Y158259D01*
X122079Y158277D01*
X122079Y158295D01*
X122080Y158313D01*
X122080Y158330D01*
X122081Y158348D01*
X122081Y158365D01*
X122081Y158382D01*
X122081Y158400D01*
X122081Y158417D01*
X122081Y158434D01*
X122080Y158451D01*
X122080Y158468D01*
X122079Y158484D01*
X122079Y158501D01*
X122078Y158522D01*
X122077Y158543D01*
X122076Y158555D01*
X122076Y158563D01*
X122076Y158563D01*
X122074Y158584D01*
X122074Y158584D01*
X122073Y158604D01*
X122073Y158604D01*
X122071Y158624D01*
X122071Y158624D01*
X122069Y158644D01*
X122069Y158644D01*
X122067Y158664D01*
X122067Y158664D01*
X122065Y158684D01*
X122065Y158684D01*
X122062Y158707D01*
X122062Y158708D01*
X122059Y158731D01*
X122059Y158731D01*
X122056Y158754D01*
X122056Y158754D01*
X122053Y158777D01*
X122053Y158777D01*
X122049Y158800D01*
X122049Y158800D01*
X122045Y158827D01*
X122045Y158827D01*
X122040Y158853D01*
X122040Y158853D01*
X122034Y158883D01*
X122034Y158883D01*
X122028Y158913D01*
X122028Y158913D01*
X122021Y158946D01*
X122021Y158946D01*
X122012Y158982D01*
X122012Y158982D01*
X122011Y158987D01*
X122011Y158988D01*
X122008Y158997D01*
X122008Y159000D01*
X122005Y159008D01*
X122005Y159012D01*
X122003Y159019D01*
X122003Y159019D01*
X122001Y159025D01*
X121999Y159031D01*
X121996Y159044D01*
X121992Y159057D01*
X121988Y159071D01*
X121986Y159077D01*
X121983Y159089D01*
X121976Y159111D01*
X121969Y159133D01*
X121961Y159155D01*
X121958Y159166D01*
X121950Y159188D01*
X121934Y159231D01*
X121917Y159274D01*
X121899Y159317D01*
X121890Y159338D01*
X121890Y159338D01*
X121887Y159344D01*
X121881Y159356D01*
X121876Y159368D01*
X121870Y159379D01*
X121868Y159385D01*
X121868Y159386D01*
X121865Y159390D01*
X121861Y159400D01*
X121856Y159409D01*
X121853Y159414D01*
X121849Y159423D01*
X121833Y159454D01*
X121819Y159481D01*
X121819Y159482D01*
X121806Y159506D01*
X121805Y159506D01*
X121792Y159530D01*
X121792Y159530D01*
X121780Y159551D01*
X121780Y159551D01*
X121767Y159572D01*
X121767Y159572D01*
X121756Y159590D01*
X121756Y159590D01*
X121746Y159608D01*
X121746Y159608D01*
X121734Y159625D01*
X121734Y159625D01*
X121723Y159643D01*
X121723Y159643D01*
X121714Y159657D01*
X121714Y159657D01*
X121704Y159672D01*
X121704Y159672D01*
X121695Y159686D01*
X121694Y159686D01*
X121685Y159700D01*
X121685Y159700D01*
X121675Y159714D01*
X121675Y159715D01*
X121665Y159729D01*
X121665Y159729D01*
X121655Y159743D01*
X121655Y159743D01*
X121644Y159757D01*
X121644Y159757D01*
X121636Y159768D01*
X121636Y159768D01*
X121628Y159779D01*
X121628Y159780D01*
X121620Y159791D01*
X121619Y159791D01*
X121611Y159802D01*
X121611Y159802D01*
X121603Y159813D01*
X121603Y159813D01*
X121599Y159818D01*
X121594Y159824D01*
X121585Y159835D01*
X121577Y159846D01*
X121568Y159857D01*
X121559Y159868D01*
X121550Y159879D01*
X121542Y159889D01*
X121532Y159900D01*
X121523Y159911D01*
X121514Y159922D01*
X121505Y159933D01*
X121498Y159941D01*
X121491Y159949D01*
X121484Y159957D01*
X121477Y159965D01*
X121470Y159973D01*
X121463Y159981D01*
X121456Y159989D01*
X121449Y159997D01*
X121442Y160004D01*
X121435Y160012D01*
X121428Y160020D01*
X121420Y160028D01*
X121413Y160036D01*
X121406Y160044D01*
X121398Y160052D01*
X121391Y160059D01*
X121384Y160067D01*
X121376Y160075D01*
X121369Y160083D01*
X121361Y160091D01*
X121354Y160099D01*
X121346Y160106D01*
X121339Y160114D01*
X121331Y160122D01*
X121324Y160129D01*
X121316Y160137D01*
X121308Y160145D01*
X121300Y160152D01*
X121293Y160160D01*
X121285Y160168D01*
X121277Y160176D01*
X121269Y160183D01*
X121262Y160191D01*
X121254Y160198D01*
X121246Y160206D01*
X121238Y160214D01*
X121230Y160221D01*
X121222Y160229D01*
X121214Y160237D01*
X121206Y160244D01*
X121195Y160254D01*
X121190Y160259D01*
X121179Y160269D01*
X121168Y160279D01*
X121163Y160284D01*
X121152Y160294D01*
X121141Y160304D01*
X121130Y160315D01*
X121113Y160329D01*
X121102Y160339D01*
X121091Y160350D01*
X121074Y160364D01*
X121069Y160370D01*
X121057Y160380D01*
X121046Y160389D01*
X121035Y160399D01*
X121023Y160409D01*
X121017Y160414D01*
X121000Y160429D01*
X120983Y160444D01*
X120971Y160454D01*
X120954Y160469D01*
X120936Y160484D01*
X120919Y160499D01*
X120913Y160504D01*
X120895Y160519D01*
X120883Y160529D01*
X120865Y160543D01*
X120853Y160553D01*
X120842Y160563D01*
X120817Y160583D01*
X120802Y160596D01*
X120790Y160606D01*
X120784Y160610D01*
X120781Y160613D01*
X120766Y160625D01*
X120757Y160633D01*
X120748Y160640D01*
X120726Y160658D01*
X120723Y160660D01*
X120720Y160663D01*
X120702Y160678D01*
X120698Y160680D01*
X120677Y160698D01*
X120670Y160703D01*
X120667Y160705D01*
X120655Y160715D01*
X120627Y160738D01*
X120621Y160743D01*
X120617Y160745D01*
X120614Y160748D01*
X120611Y160750D01*
X120608Y160753D01*
X120599Y160760D01*
X120583Y160773D01*
X120580Y160776D01*
X120561Y160791D01*
X120526Y160819D01*
X120516Y160826D01*
X120510Y160831D01*
X120501Y160839D01*
X120491Y160847D01*
X120478Y160857D01*
X120449Y160880D01*
X120446Y160882D01*
X120443Y160885D01*
X120430Y160895D01*
X120424Y160900D01*
X120420Y160903D01*
X120401Y160918D01*
X120398Y160921D01*
X120395Y160924D01*
X120369Y160944D01*
X120365Y160947D01*
X120352Y160957D01*
X120349Y160960D01*
X120343Y160965D01*
X120336Y160970D01*
X120317Y160986D01*
X120294Y161004D01*
X120287Y161010D01*
X120284Y161012D01*
X120261Y161031D01*
X120258Y161033D01*
X120245Y161044D01*
X120241Y161047D01*
X120235Y161052D01*
X120231Y161055D01*
X120218Y161065D01*
X120202Y161079D01*
X120192Y161087D01*
X120189Y161089D01*
X120176Y161100D01*
X120149Y161122D01*
X120131Y161136D01*
X120119Y161146D01*
X120107Y161155D01*
X120096Y161165D01*
X120084Y161175D01*
X120072Y161185D01*
X120060Y161195D01*
X120048Y161205D01*
X120036Y161216D01*
X120024Y161226D01*
X120012Y161237D01*
X120000Y161247D01*
X119988Y161258D01*
X119976Y161268D01*
X119965Y161279D01*
X119953Y161290D01*
X119941Y161301D01*
X119929Y161312D01*
X119917Y161323D01*
X119905Y161334D01*
X119893Y161346D01*
X119881Y161357D01*
X119869Y161369D01*
X119857Y161380D01*
X119845Y161392D01*
X119834Y161403D01*
X119822Y161415D01*
X119810Y161427D01*
X119798Y161439D01*
X119786Y161451D01*
X119774Y161463D01*
X119762Y161475D01*
X119750Y161487D01*
X119738Y161500D01*
X119727Y161512D01*
X119715Y161525D01*
X119703Y161537D01*
X119691Y161550D01*
X119679Y161563D01*
X119667Y161575D01*
X119656Y161588D01*
X119644Y161601D01*
X119632Y161614D01*
X119620Y161627D01*
X119602Y161647D01*
X119585Y161667D01*
X119567Y161687D01*
X119549Y161707D01*
X119532Y161728D01*
X119514Y161748D01*
X119497Y161769D01*
X119479Y161790D01*
X119461Y161811D01*
X119444Y161832D01*
X119426Y161853D01*
X119409Y161875D01*
X119392Y161897D01*
X119374Y161918D01*
X119357Y161940D01*
X119339Y161962D01*
X119322Y161985D01*
X119305Y162007D01*
X119287Y162029D01*
X119270Y162052D01*
X119253Y162075D01*
X119236Y162098D01*
X119219Y162121D01*
X119201Y162144D01*
X119184Y162167D01*
X119162Y162198D01*
X119139Y162230D01*
X119116Y162262D01*
X119094Y162294D01*
X119071Y162326D01*
X119049Y162358D01*
X119027Y162391D01*
X119005Y162424D01*
X118983Y162457D01*
X118960Y162490D01*
X118933Y162532D01*
X118906Y162574D01*
X118878Y162616D01*
X118851Y162659D01*
X118825Y162702D01*
X118792Y162754D01*
X118761Y162806D01*
X118724Y162868D01*
X118687Y162930D01*
X118646Y163002D01*
X118600Y163083D01*
X118550Y163174D01*
X118485Y163294D01*
X118472Y163319D01*
X118445Y163371D01*
X118418Y163422D01*
X118392Y163474D01*
X118350Y163559D01*
X118292Y163678D01*
X118236Y163798D01*
X118181Y163918D01*
X118154Y163979D01*
X118100Y164106D01*
X118055Y164214D01*
X118020Y164302D01*
X117989Y164381D01*
X117962Y164450D01*
X117936Y164519D01*
X117915Y164579D01*
X117893Y164638D01*
X117873Y164698D01*
X117852Y164757D01*
X117835Y164807D01*
X117819Y164857D01*
X117803Y164906D01*
X117787Y164956D01*
X117772Y165006D01*
X117757Y165055D01*
X117745Y165095D01*
X117733Y165134D01*
X117722Y165174D01*
X117711Y165214D01*
X117700Y165253D01*
X117689Y165293D01*
X117679Y165332D01*
X117668Y165372D01*
X117658Y165411D01*
X117649Y165451D01*
X117639Y165490D01*
X117630Y165529D01*
X117621Y165569D01*
X117614Y165598D01*
X117607Y165627D01*
X117601Y165657D01*
X117595Y165686D01*
X117589Y165715D01*
X117583Y165745D01*
X117577Y165774D01*
X117571Y165803D01*
X117566Y165832D01*
X117560Y165861D01*
X117555Y165890D01*
X117550Y165919D01*
X117545Y165948D01*
X117540Y165977D01*
X117535Y166006D01*
X117531Y166035D01*
X117526Y166063D01*
X117522Y166092D01*
X117518Y166121D01*
X117514Y166149D01*
X117510Y166178D01*
X117506Y166206D01*
X117503Y166235D01*
X117499Y166263D01*
X117496Y166291D01*
X117493Y166319D01*
X117490Y166348D01*
X117488Y166376D01*
X117485Y166403D01*
X117483Y166431D01*
X117480Y166459D01*
X117478Y166487D01*
X117476Y166515D01*
X117474Y166542D01*
X117473Y166570D01*
X117471Y166597D01*
X117470Y166625D01*
X117469Y166652D01*
X117468Y166680D01*
X117467Y166707D01*
X117466Y166734D01*
X117466Y166761D01*
X117466Y166788D01*
X117465Y166814D01*
X117465Y166824D01*
X117465Y166831D01*
X117466Y166841D01*
X117466Y166841D01*
X117466Y166859D01*
X117466Y166877D01*
X117466Y166894D01*
X117466Y166912D01*
X117467Y166930D01*
X117467Y166947D01*
X117468Y166965D01*
X117469Y166982D01*
X117469Y166999D01*
X117470Y167017D01*
X117471Y167034D01*
X117472Y167052D01*
X117473Y167069D01*
X117474Y167086D01*
X117475Y167103D01*
X117477Y167120D01*
X117478Y167137D01*
X117480Y167154D01*
X117481Y167171D01*
X117483Y167188D01*
X117484Y167205D01*
X117486Y167222D01*
X117488Y167239D01*
X117490Y167255D01*
X117492Y167272D01*
X117494Y167289D01*
X117496Y167305D01*
X117498Y167322D01*
X117501Y167338D01*
X117503Y167355D01*
X117506Y167371D01*
X117508Y167387D01*
X117511Y167404D01*
X117514Y167420D01*
X117516Y167436D01*
X117519Y167452D01*
X117522Y167468D01*
X117525Y167484D01*
X117528Y167500D01*
X117532Y167516D01*
X117535Y167532D01*
X117539Y167548D01*
X117542Y167563D01*
X117546Y167579D01*
X117549Y167595D01*
X117553Y167610D01*
X117557Y167626D01*
X117561Y167641D01*
X117565Y167656D01*
X117569Y167672D01*
X117573Y167687D01*
X117580Y167710D01*
X117586Y167732D01*
X117593Y167755D01*
X117600Y167777D01*
X117608Y167799D01*
X117615Y167821D01*
X117623Y167843D01*
X117631Y167865D01*
X117639Y167886D01*
X117647Y167908D01*
X117656Y167929D01*
X117664Y167950D01*
X117673Y167971D01*
X117682Y167992D01*
X117692Y168013D01*
X117701Y168034D01*
X117711Y168054D01*
X117721Y168074D01*
X117731Y168094D01*
X117741Y168114D01*
X117752Y168134D01*
X117763Y168153D01*
X117774Y168173D01*
X117789Y168198D01*
X117804Y168224D01*
X117820Y168249D01*
X117836Y168273D01*
X117853Y168298D01*
X117856Y168302D01*
X117861Y168309D01*
X117866Y168317D01*
X117872Y168324D01*
X117877Y168332D01*
X117882Y168339D01*
X117888Y168346D01*
X117893Y168354D01*
X117896Y168357D01*
X117900Y168362D01*
X117906Y168371D01*
X117913Y168379D01*
X117920Y168388D01*
X117927Y168397D01*
X117936Y168407D01*
X117944Y168417D01*
X118132Y168585D01*
X118371Y168771D01*
X118648Y168905D01*
X118816Y168981D01*
X118819Y168982D01*
X118840Y168991D01*
X118860Y169000D01*
X118881Y169008D01*
X118902Y169017D01*
X118923Y169025D01*
X118943Y169033D01*
X118964Y169041D01*
X118984Y169049D01*
X119004Y169056D01*
X119024Y169064D01*
X119044Y169071D01*
X119064Y169078D01*
X119084Y169085D01*
X119104Y169091D01*
X119123Y169097D01*
X119143Y169104D01*
X119162Y169110D01*
X119182Y169115D01*
X119201Y169121D01*
X119220Y169126D01*
X119239Y169132D01*
X119258Y169137D01*
X119277Y169141D01*
X119296Y169146D01*
X119314Y169151D01*
X119333Y169155D01*
X119351Y169159D01*
X119370Y169163D01*
X119388Y169167D01*
X119406Y169170D01*
X119425Y169174D01*
X119443Y169177D01*
X119461Y169180D01*
X119479Y169183D01*
X119496Y169186D01*
X119514Y169188D01*
X119532Y169191D01*
X119549Y169193D01*
X119567Y169195D01*
X119584Y169197D01*
X119601Y169199D01*
X119619Y169200D01*
X119636Y169202D01*
X119653Y169203D01*
X119670Y169204D01*
X119687Y169205D01*
X119703Y169205D01*
X119720Y169206D01*
X119737Y169206D01*
X119753Y169206D01*
X119770Y169206D01*
X119951Y169193D01*
X120190Y169127D01*
X120409Y169058D01*
X120590Y168940D01*
X120641Y168905D01*
X120858Y168744D01*
X120869Y168733D01*
X120880Y168722D01*
X120891Y168711D01*
X120902Y168700D01*
X120913Y168689D01*
X120923Y168678D01*
X120934Y168667D01*
X120945Y168655D01*
X120955Y168644D01*
X120966Y168632D01*
X120976Y168621D01*
X120987Y168609D01*
X120997Y168597D01*
X121008Y168585D01*
X121018Y168573D01*
X121028Y168561D01*
X121038Y168549D01*
X121049Y168536D01*
X121059Y168524D01*
X121069Y168511D01*
X121079Y168499D01*
X121089Y168486D01*
X121099Y168473D01*
X121109Y168461D01*
X121118Y168448D01*
X121128Y168435D01*
X121138Y168422D01*
X121148Y168409D01*
X121158Y168395D01*
X121167Y168382D01*
X121177Y168369D01*
X121186Y168355D01*
X121196Y168342D01*
X121205Y168328D01*
X121215Y168315D01*
X121224Y168301D01*
X121234Y168287D01*
X121243Y168273D01*
X121252Y168259D01*
X121261Y168245D01*
X121271Y168231D01*
X121280Y168217D01*
X121289Y168202D01*
X121298Y168188D01*
X121307Y168174D01*
X121316Y168159D01*
X121325Y168145D01*
X121334Y168130D01*
X121343Y168115D01*
X121352Y168101D01*
X121361Y168086D01*
X121370Y168071D01*
X121379Y168056D01*
X121387Y168041D01*
X121396Y168026D01*
X121405Y168011D01*
X121413Y167996D01*
X121422Y167981D01*
X121431Y167965D01*
X121439Y167950D01*
X121448Y167935D01*
X121456Y167919D01*
X121465Y167904D01*
X121473Y167888D01*
X121482Y167873D01*
X121490Y167857D01*
X121498Y167841D01*
X121507Y167825D01*
X121515Y167809D01*
X121523Y167794D01*
X121531Y167778D01*
X121540Y167762D01*
X121544Y167754D01*
X121552Y167738D01*
X121556Y167730D01*
X121560Y167722D01*
X121564Y167714D01*
X121572Y167698D01*
X121581Y167681D01*
X121593Y167657D01*
X121597Y167649D01*
X121605Y167633D01*
X121609Y167624D01*
X121617Y167608D01*
X121629Y167583D01*
X121637Y167567D01*
X121649Y167542D01*
X121656Y167526D01*
X121664Y167509D01*
X121672Y167492D01*
X121680Y167476D01*
X121688Y167459D01*
X121696Y167442D01*
X121703Y167426D01*
X121711Y167409D01*
X121723Y167383D01*
X121730Y167367D01*
X121738Y167350D01*
X121746Y167333D01*
X121754Y167316D01*
X121761Y167299D01*
X121765Y167290D01*
X121780Y167256D01*
X121788Y167239D01*
X121799Y167213D01*
X121811Y167188D01*
X121822Y167162D01*
X121833Y167136D01*
X121848Y167102D01*
X121856Y167084D01*
X121867Y167059D01*
X121871Y167050D01*
X121878Y167033D01*
X121893Y166998D01*
X121908Y166963D01*
X121923Y166928D01*
X121930Y166911D01*
X121945Y166876D01*
X121952Y166859D01*
X121956Y166850D01*
X121963Y166833D01*
X121967Y166824D01*
X121978Y166798D01*
X121996Y166754D01*
X122007Y166728D01*
X122047Y166632D01*
X122051Y166623D01*
X122058Y166606D01*
X122062Y166597D01*
X122069Y166580D01*
X122073Y166571D01*
X122084Y166545D01*
X122091Y166527D01*
X122095Y166519D01*
X122102Y166501D01*
X122106Y166493D01*
X122124Y166449D01*
X122135Y166423D01*
X122146Y166397D01*
X122153Y166380D01*
X122161Y166363D01*
X122176Y166328D01*
X122190Y166293D01*
X122198Y166276D01*
X122209Y166250D01*
X122220Y166225D01*
X122231Y166199D01*
X122242Y166173D01*
X122249Y166156D01*
X122260Y166130D01*
X122268Y166113D01*
X122275Y166096D01*
X122283Y166079D01*
X122286Y166071D01*
X122294Y166054D01*
X122305Y166029D01*
X122313Y166012D01*
X122320Y165995D01*
X122328Y165978D01*
X122335Y165961D01*
X122343Y165945D01*
X122350Y165928D01*
X122358Y165911D01*
X122365Y165895D01*
X122373Y165878D01*
X122381Y165861D01*
X122388Y165845D01*
X122396Y165829D01*
X122404Y165812D01*
X122415Y165787D01*
X122423Y165771D01*
X122434Y165747D01*
X122438Y165738D01*
X122446Y165722D01*
X122454Y165706D01*
X122462Y165690D01*
X122466Y165682D01*
X122473Y165666D01*
X122485Y165642D01*
X122493Y165626D01*
X122501Y165610D01*
X122513Y165586D01*
X122521Y165570D01*
X122529Y165555D01*
X122537Y165539D01*
X122541Y165531D01*
X122549Y165515D01*
X122557Y165500D01*
X122565Y165484D01*
X122569Y165477D01*
X122577Y165461D01*
X122585Y165446D01*
X122589Y165438D01*
X122597Y165423D01*
X122605Y165408D01*
X122609Y165400D01*
X122618Y165385D01*
X122626Y165370D01*
X122638Y165347D01*
X122647Y165332D01*
X122655Y165318D01*
X122663Y165303D01*
X122672Y165288D01*
X122680Y165273D01*
X122689Y165259D01*
X122697Y165244D01*
X122706Y165230D01*
X122714Y165215D01*
X122723Y165201D01*
X122731Y165187D01*
X122740Y165173D01*
X122749Y165158D01*
X122757Y165144D01*
X122766Y165130D01*
X122775Y165117D01*
X122784Y165103D01*
X122792Y165089D01*
X122801Y165075D01*
X122810Y165062D01*
X122819Y165048D01*
X122828Y165034D01*
X122837Y165021D01*
X122846Y165008D01*
X122855Y164995D01*
X122864Y164981D01*
X122873Y164968D01*
X122883Y164955D01*
X122892Y164943D01*
X122901Y164930D01*
X122910Y164917D01*
X122920Y164904D01*
X122929Y164892D01*
X122939Y164879D01*
X122948Y164867D01*
X122958Y164855D01*
X122967Y164842D01*
X122977Y164830D01*
X122986Y164818D01*
X122996Y164806D01*
X123005Y164794D01*
X123015Y164783D01*
X123025Y164771D01*
X123035Y164759D01*
X123045Y164748D01*
X123055Y164736D01*
X123064Y164725D01*
X123074Y164714D01*
X123085Y164703D01*
X123095Y164692D01*
X123105Y164681D01*
X123115Y164670D01*
X123125Y164660D01*
X123135Y164649D01*
X123146Y164638D01*
X123156Y164628D01*
X123167Y164618D01*
X123177Y164608D01*
X123187Y164597D01*
X123198Y164587D01*
X123209Y164578D01*
X123209Y164578D01*
X123219Y164568D01*
X123219Y164568D01*
X123230Y164558D01*
X123230Y164558D01*
X123241Y164549D01*
X123241Y164549D01*
X123251Y164539D01*
X123251Y164539D01*
X123262Y164530D01*
X123262Y164530D01*
X123273Y164521D01*
X123273Y164521D01*
X123284Y164512D01*
X123284Y164512D01*
X123295Y164503D01*
X123295Y164503D01*
X123306Y164494D01*
X123306Y164494D01*
X123317Y164485D01*
X123317Y164485D01*
X123328Y164476D01*
X123329Y164476D01*
X123340Y164468D01*
X123340Y164468D01*
X123351Y164459D01*
X123351Y164459D01*
X123362Y164451D01*
X123362Y164451D01*
X123374Y164443D01*
X123374Y164443D01*
X123385Y164435D01*
X123385Y164435D01*
X123397Y164427D01*
X123397Y164427D01*
X123408Y164419D01*
X123408Y164419D01*
X123420Y164411D01*
X123420Y164411D01*
X123431Y164404D01*
X123432Y164404D01*
X123443Y164396D01*
X123443Y164396D01*
X123461Y164385D01*
X123461Y164385D01*
X123478Y164375D01*
X123479Y164375D01*
X123496Y164364D01*
X123497Y164364D01*
X123514Y164354D01*
X123515Y164354D01*
X123533Y164344D01*
X123533Y164344D01*
X123551Y164335D01*
X123552Y164334D01*
X123570Y164325D01*
X123570Y164325D01*
X123573Y164324D01*
X123573Y164324D01*
X123579Y164321D01*
X123579Y164321D01*
X123585Y164318D01*
X123585Y164318D01*
X123591Y164315D01*
X123591Y164315D01*
X123594Y164314D01*
X123594Y164314D01*
X123597Y164312D01*
X123598Y164312D01*
X123604Y164309D01*
X123604Y164309D01*
X123610Y164306D01*
X123610Y164306D01*
X123616Y164304D01*
X123616Y164304D01*
X123619Y164302D01*
X123620Y164302D01*
X123623Y164301D01*
X123623Y164301D01*
X123631Y164297D01*
X123631Y164297D01*
X123639Y164294D01*
X123639Y164294D01*
X123647Y164290D01*
X123647Y164290D01*
X123651Y164289D01*
X123651Y164289D01*
X123656Y164287D01*
X123656Y164287D01*
X123665Y164283D01*
X123666Y164283D01*
X123675Y164279D01*
X123675Y164279D01*
X123685Y164276D01*
X123685Y164276D01*
X123690Y164274D01*
X123690Y164274D01*
X123717Y164264D01*
X123717Y164264D01*
X123772Y164247D01*
X123772Y164247D01*
X123828Y164232D01*
X123828Y164232D01*
X123884Y164219D01*
X123912Y164214D01*
X123914Y164214D01*
X123917Y164214D01*
X123923Y164213D01*
X123925Y164212D01*
X123933Y164211D01*
X123934Y164211D01*
X123942Y164209D01*
X123943Y164209D01*
X123946Y164209D01*
X123948Y164209D01*
X123951Y164208D01*
X123951Y164208D01*
X123958Y164207D01*
X123958Y164207D01*
X123965Y164206D01*
X123966Y164206D01*
X123972Y164206D01*
X123973Y164205D01*
X123979Y164205D01*
X123980Y164205D01*
X123987Y164204D01*
X123987Y164204D01*
X123994Y164203D01*
X123994Y164203D01*
X124001Y164202D01*
X124002Y164202D01*
X124005Y164202D01*
X124005Y164202D01*
X124027Y164200D01*
X124027Y164200D01*
X124049Y164198D01*
X124049Y164198D01*
X124071Y164197D01*
X124071Y164197D01*
X124093Y164196D01*
X124094Y164196D01*
X124116Y164196D01*
X124116Y164196D01*
X124139Y164196D01*
X124154Y164196D01*
X124169Y164196D01*
X124185Y164196D01*
X124200Y164197D01*
X124216Y164198D01*
X124231Y164199D01*
X124247Y164200D01*
X124263Y164201D01*
X124279Y164202D01*
X124295Y164204D01*
X124311Y164206D01*
X124327Y164208D01*
X124343Y164210D01*
X124359Y164212D01*
X124375Y164214D01*
X124400Y164237D01*
X124417Y164253D01*
X124433Y164268D01*
X124449Y164284D01*
X124465Y164300D01*
X124481Y164316D01*
X124497Y164332D01*
X124512Y164348D01*
X124528Y164365D01*
X124543Y164381D01*
X124558Y164398D01*
X124574Y164415D01*
X124585Y164428D01*
X124596Y164441D01*
X124607Y164453D01*
X124618Y164466D01*
X124629Y164479D01*
X124640Y164493D01*
X124651Y164506D01*
X124662Y164519D01*
X124673Y164532D01*
X124683Y164546D01*
X124694Y164559D01*
X124705Y164573D01*
X124715Y164586D01*
X124725Y164600D01*
X124736Y164614D01*
X124746Y164628D01*
X124756Y164642D01*
X124767Y164656D01*
X124777Y164670D01*
X124787Y164684D01*
X124797Y164698D01*
X124807Y164712D01*
X124817Y164727D01*
X124827Y164741D01*
X124836Y164755D01*
X124846Y164770D01*
X124856Y164784D01*
X124865Y164799D01*
X124875Y164814D01*
X124884Y164828D01*
X124894Y164843D01*
X124903Y164858D01*
X124913Y164873D01*
X124922Y164888D01*
X124931Y164903D01*
X124941Y164918D01*
X124950Y164933D01*
X124959Y164948D01*
X124968Y164964D01*
X124977Y164979D01*
X124983Y164989D01*
X124989Y164999D01*
X124995Y165010D01*
X125001Y165020D01*
X125007Y165030D01*
X125013Y165041D01*
X125018Y165051D01*
X125024Y165061D01*
X125030Y165072D01*
X125036Y165082D01*
X125042Y165093D01*
X125047Y165103D01*
X125053Y165114D01*
X125059Y165124D01*
X125065Y165135D01*
X125070Y165145D01*
X125076Y165156D01*
X125082Y165166D01*
X125087Y165177D01*
X125093Y165188D01*
X125099Y165198D01*
X125104Y165209D01*
X125110Y165220D01*
X125115Y165231D01*
X125121Y165241D01*
X125126Y165252D01*
X125132Y165263D01*
X125137Y165274D01*
X125143Y165284D01*
X125148Y165295D01*
X125154Y165306D01*
X125159Y165317D01*
X125164Y165328D01*
X125170Y165339D01*
X125175Y165350D01*
X125180Y165361D01*
X125186Y165372D01*
X125197Y165394D01*
X125207Y165416D01*
X125218Y165438D01*
X125223Y165449D01*
X125228Y165460D01*
X125233Y165471D01*
X125239Y165482D01*
X125244Y165493D01*
X125249Y165504D01*
X125254Y165516D01*
X125259Y165527D01*
X125264Y165538D01*
X125269Y165549D01*
X125275Y165560D01*
X125285Y165583D01*
X125290Y165594D01*
X125300Y165617D01*
X125310Y165639D01*
X125315Y165651D01*
X125320Y165662D01*
X125325Y165673D01*
X125330Y165685D01*
X125340Y165707D01*
X125350Y165730D01*
X125355Y165742D01*
X125360Y165753D01*
X125369Y165776D01*
X125374Y165787D01*
X125384Y165810D01*
X125389Y165822D01*
X125399Y165845D01*
X125406Y165862D01*
X125413Y165879D01*
X125416Y165885D01*
X125418Y165891D01*
X125425Y165908D01*
X125437Y165937D01*
X125439Y165943D01*
X125442Y165949D01*
X125447Y165961D01*
X125449Y165966D01*
X125456Y165984D01*
X125461Y165995D01*
X125473Y166024D01*
X125482Y166048D01*
X125489Y166065D01*
X125499Y166088D01*
X125510Y166118D01*
X125517Y166135D01*
X125520Y166141D01*
X125524Y166153D01*
X125529Y166165D01*
X125531Y166170D01*
X125538Y166188D01*
X125543Y166200D01*
X125548Y166211D01*
X125552Y166223D01*
X125555Y166229D01*
X125571Y166270D01*
X125573Y166276D01*
X125582Y166299D01*
X125587Y166311D01*
X125589Y166317D01*
X125612Y166376D01*
X125617Y166387D01*
X125624Y166405D01*
X125626Y166411D01*
X125631Y166423D01*
X125638Y166440D01*
X125640Y166446D01*
X125642Y166452D01*
X125647Y166464D01*
X125654Y166481D01*
X125656Y166487D01*
X125659Y166493D01*
X125668Y166517D01*
X125670Y166523D01*
X125672Y166528D01*
X125675Y166534D01*
X125679Y166546D01*
X125682Y166552D01*
X125686Y166564D01*
X125693Y166581D01*
X125709Y166622D01*
X125712Y166628D01*
X125719Y166646D01*
X125721Y166652D01*
X125728Y166669D01*
X125733Y166681D01*
X125737Y166693D01*
X125742Y166704D01*
X125756Y166740D01*
X125758Y166745D01*
X125760Y166751D01*
X125774Y166786D01*
X125784Y166810D01*
X125793Y166833D01*
X125795Y166839D01*
X125800Y166850D01*
X125810Y166874D01*
X125819Y166897D01*
X125831Y166926D01*
X125835Y166938D01*
X125842Y166955D01*
X125850Y166972D01*
X125857Y166990D01*
X125864Y167007D01*
X125873Y167030D01*
X125878Y167042D01*
X125881Y167047D01*
X125888Y167065D01*
X125898Y167088D01*
X125902Y167099D01*
X125907Y167111D01*
X125912Y167122D01*
X125917Y167133D01*
X125927Y167156D01*
X125936Y167179D01*
X125941Y167190D01*
X125951Y167213D01*
X125956Y167225D01*
X125961Y167236D01*
X125971Y167259D01*
X125981Y167281D01*
X125986Y167292D01*
X125991Y167304D01*
X125996Y167315D01*
X126001Y167326D01*
X126006Y167337D01*
X126016Y167360D01*
X126021Y167371D01*
X126026Y167382D01*
X126031Y167393D01*
X126037Y167404D01*
X126042Y167415D01*
X126047Y167427D01*
X126052Y167438D01*
X126062Y167460D01*
X126073Y167482D01*
X126078Y167493D01*
X126088Y167515D01*
X126094Y167526D01*
X126099Y167537D01*
X126104Y167548D01*
X126110Y167558D01*
X126115Y167569D01*
X126120Y167580D01*
X126126Y167591D01*
X126131Y167602D01*
X126136Y167613D01*
X126142Y167623D01*
X126147Y167634D01*
X126153Y167645D01*
X126158Y167656D01*
X126163Y167666D01*
X126169Y167677D01*
X126174Y167688D01*
X126180Y167699D01*
X126185Y167709D01*
X126191Y167720D01*
X126197Y167730D01*
X126202Y167741D01*
X126208Y167751D01*
X126213Y167762D01*
X126219Y167772D01*
X126225Y167783D01*
X126230Y167794D01*
X126236Y167804D01*
X126242Y167814D01*
X126247Y167825D01*
X126253Y167835D01*
X126259Y167845D01*
X126265Y167856D01*
X126270Y167866D01*
X126276Y167876D01*
X126282Y167887D01*
X126288Y167897D01*
X126294Y167907D01*
X126300Y167917D01*
X126306Y167928D01*
X126312Y167938D01*
X126318Y167948D01*
X126323Y167958D01*
X126330Y167968D01*
X126336Y167978D01*
X126342Y167988D01*
X126348Y167998D01*
X126357Y168013D01*
X126366Y168028D01*
X126375Y168043D01*
X126384Y168058D01*
X126394Y168072D01*
X126403Y168087D01*
X126413Y168102D01*
X126422Y168116D01*
X126432Y168131D01*
X126441Y168145D01*
X126451Y168159D01*
X126461Y168174D01*
X126470Y168188D01*
X126480Y168202D01*
X126490Y168216D01*
X126500Y168230D01*
X126510Y168244D01*
X126520Y168258D01*
X126530Y168272D01*
X126540Y168286D01*
X126550Y168299D01*
X126561Y168313D01*
X126571Y168326D01*
X126582Y168340D01*
X126592Y168353D01*
X126602Y168367D01*
X126613Y168380D01*
X126624Y168393D01*
X126634Y168406D01*
X126645Y168419D01*
X126656Y168432D01*
X126667Y168445D01*
X126678Y168458D01*
X126689Y168471D01*
X126700Y168483D01*
X126711Y168496D01*
X126722Y168508D01*
X126734Y168521D01*
X126749Y168537D01*
X126764Y168553D01*
X126779Y168570D01*
X126795Y168586D01*
X126811Y168601D01*
X126811Y168602D01*
X127185Y168906D01*
X127185Y168906D01*
X127603Y169104D01*
X127618Y169108D01*
X127640Y169112D01*
X127663Y169117D01*
X127685Y169121D01*
X127707Y169126D01*
X127729Y169130D01*
X127751Y169134D01*
X127772Y169138D01*
X127794Y169142D01*
X127815Y169146D01*
X127837Y169149D01*
X127858Y169153D01*
X127879Y169156D01*
X127901Y169160D01*
X127922Y169163D01*
X127943Y169166D01*
X127963Y169169D01*
X127984Y169172D01*
X128005Y169175D01*
X128025Y169177D01*
X128045Y169180D01*
X128066Y169182D01*
X128086Y169185D01*
X128106Y169187D01*
X128126Y169189D01*
X128146Y169191D01*
X128166Y169193D01*
X128186Y169195D01*
X128205Y169196D01*
X128225Y169198D01*
X128244Y169200D01*
X128264Y169201D01*
X128283Y169202D01*
X128302Y169203D01*
X128321Y169204D01*
X128340Y169205D01*
X128359Y169206D01*
X128377Y169207D01*
X128396Y169207D01*
X128415Y169208D01*
X128433Y169208D01*
X128452Y169209D01*
X128470Y169209D01*
X128488Y169209D01*
X128506D01*
X128524Y169209D01*
D02*
G37*
G36*
X151884Y168965D02*
X151956Y168964D01*
X152028Y168962D01*
X152100Y168959D01*
X152173Y168956D01*
X152246Y168952D01*
X152320Y168947D01*
X152394Y168941D01*
X152468Y168935D01*
X152543Y168928D01*
X152618Y168920D01*
X152694Y168911D01*
X152770Y168902D01*
X152847Y168892D01*
X152923Y168881D01*
X153000Y168869D01*
X153078Y168857D01*
X153156Y168843D01*
X153234Y168829D01*
X153313Y168814D01*
X153392Y168799D01*
X153472Y168782D01*
X153552Y168765D01*
X153632Y168747D01*
X153713Y168728D01*
X153794Y168708D01*
X153875Y168687D01*
X153957Y168666D01*
X154039Y168643D01*
X154122Y168620D01*
X154205Y168596D01*
X154288Y168571D01*
X154372Y168545D01*
X154456Y168519D01*
X154541Y168491D01*
X154625Y168463D01*
X154710Y168433D01*
X154796Y168403D01*
X154882Y168372D01*
X154968Y168340D01*
X155055Y168307D01*
X155142Y168274D01*
X155229Y168239D01*
X155317Y168203D01*
X155405Y168167D01*
X155493Y168129D01*
X155582Y168091D01*
X155672Y168052D01*
X155678Y168048D01*
X155691Y168040D01*
X155703Y168032D01*
X155716Y168024D01*
X155729Y168015D01*
X155743Y168005D01*
X155757Y167995D01*
X155771Y167985D01*
X155778Y167981D01*
X155790Y167972D01*
X155813Y167954D01*
X155836Y167936D01*
X155859Y167918D01*
X155870Y167909D01*
D01*
X156087Y167665D01*
X156220Y167483D01*
X156289Y167348D01*
X156330Y167263D01*
X156400Y167084D01*
X156434Y166952D01*
X156488Y166725D01*
X156504Y166374D01*
X156479Y166001D01*
X156391Y165658D01*
X156313Y165446D01*
X156214Y165239D01*
X156023Y164929D01*
X156020Y164925D01*
X155705Y164618D01*
X155393Y164420D01*
X155364Y164403D01*
X155355Y164396D01*
X154927Y164224D01*
X154924Y164224D01*
X154919Y164223D01*
X154914Y164222D01*
X154909Y164221D01*
X154904Y164220D01*
X154900Y164219D01*
X154895Y164218D01*
X154890Y164218D01*
X154880Y164216D01*
X154870Y164214D01*
X154865Y164214D01*
X154855Y164212D01*
X154850Y164211D01*
X154844Y164210D01*
X154840Y164210D01*
X154834Y164209D01*
X154829Y164208D01*
X154819Y164207D01*
X154809Y164205D01*
X154804Y164205D01*
X154793Y164203D01*
X154783Y164202D01*
X154772Y164201D01*
X154762Y164200D01*
X154751Y164199D01*
X154741Y164197D01*
X154730Y164196D01*
X154719Y164195D01*
X154708Y164194D01*
X154698Y164193D01*
X154687Y164192D01*
X154676Y164191D01*
X154665Y164191D01*
X154654Y164190D01*
X154643Y164189D01*
X154632Y164188D01*
X154621Y164188D01*
X154610Y164187D01*
X154598Y164186D01*
X154587Y164186D01*
X154576Y164185D01*
X154564Y164184D01*
X154553Y164184D01*
X154542Y164183D01*
X154530Y164183D01*
X154519Y164183D01*
X154507Y164182D01*
X154496Y164182D01*
X154484Y164182D01*
X154472Y164181D01*
X154461Y164181D01*
X154449Y164181D01*
X154437Y164181D01*
X154425Y164181D01*
X154413Y164181D01*
X154401Y164181D01*
X154390Y164181D01*
X154378Y164181D01*
X154366Y164181D01*
X154354Y164181D01*
X154341Y164181D01*
X154329Y164181D01*
X154317Y164181D01*
X154305Y164181D01*
X154293Y164181D01*
X154281Y164181D01*
X154269Y164182D01*
X154256Y164182D01*
X154244Y164182D01*
X154232Y164183D01*
X154219Y164183D01*
X154207Y164183D01*
X154194Y164184D01*
X154182Y164184D01*
X154169Y164185D01*
X154157Y164185D01*
X154144Y164186D01*
X154132Y164186D01*
X154119Y164187D01*
X154106Y164187D01*
X154094Y164188D01*
X154081Y164189D01*
X154069Y164189D01*
X154056Y164190D01*
X154043Y164191D01*
X154030Y164191D01*
X154017Y164192D01*
X154005Y164193D01*
X153992Y164194D01*
X153966Y164195D01*
X153953Y164196D01*
X153940Y164197D01*
X153914Y164199D01*
X153888Y164201D01*
X153862Y164203D01*
X153836Y164205D01*
X153810Y164207D01*
X153797Y164208D01*
X153771Y164210D01*
X153758Y164211D01*
X153731Y164214D01*
X153705Y164216D01*
X153678Y164219D01*
X153665Y164220D01*
X153645Y164222D01*
X153625Y164224D01*
X153612Y164225D01*
X153605Y164226D01*
X153599Y164226D01*
X153585Y164227D01*
X153565Y164230D01*
X153539Y164232D01*
X153519Y164234D01*
X153492Y164237D01*
X153465Y164240D01*
X153438Y164243D01*
X153412Y164246D01*
X153378Y164250D01*
X153331Y164255D01*
X153304Y164258D01*
X153271Y164262D01*
X153251Y164264D01*
X153224Y164267D01*
X153217Y164268D01*
X153197Y164270D01*
X153157Y164275D01*
X153150Y164276D01*
X153117Y164280D01*
X153064Y164286D01*
X152990Y164295D01*
X152984Y164296D01*
X152944Y164301D01*
X152937Y164301D01*
X152872Y164309D01*
X152865Y164310D01*
X152839Y164313D01*
X152793Y164319D01*
X152786Y164320D01*
X152767Y164322D01*
X152741Y164325D01*
X152734Y164326D01*
X152728Y164327D01*
X152689Y164331D01*
X152656Y164335D01*
X152650Y164336D01*
X152644Y164337D01*
X152605Y164341D01*
X152586Y164343D01*
X152561Y164346D01*
X152535Y164349D01*
X152510Y164352D01*
X152479Y164356D01*
X152460Y164357D01*
X152447Y164359D01*
X152422Y164362D01*
X152404Y164364D01*
X152385Y164365D01*
X152361Y164368D01*
X152342Y164370D01*
X152318Y164372D01*
X152300Y164374D01*
X152288Y164375D01*
X152270Y164377D01*
X152246Y164379D01*
X152222Y164382D01*
X152198Y164384D01*
X152181Y164385D01*
X152163Y164387D01*
X152151Y164388D01*
X152128Y164390D01*
X152111Y164391D01*
X152099Y164392D01*
X152093Y164392D01*
X152071Y164394D01*
X152059Y164395D01*
X152042Y164396D01*
X152031Y164397D01*
X152020Y164398D01*
X152009Y164398D01*
X151998Y164399D01*
X151981Y164400D01*
X151970Y164401D01*
X151959Y164401D01*
X151948Y164402D01*
X151937Y164402D01*
X151926Y164403D01*
X151916Y164404D01*
X151905Y164404D01*
X151894Y164404D01*
X151889Y164405D01*
X151884Y164405D01*
X151873Y164405D01*
X151862Y164406D01*
X151857Y164406D01*
X151847Y164406D01*
X151841Y164407D01*
X151836Y164407D01*
X151826Y164407D01*
X151816Y164407D01*
X151805Y164408D01*
X151795Y164408D01*
X151785Y164408D01*
X151775Y164408D01*
X151765Y164408D01*
X151755Y164408D01*
X151745Y164408D01*
X151735Y164409D01*
X151725Y164409D01*
X151710Y164409D01*
X151701Y164408D01*
X151696Y164408D01*
X151686Y164408D01*
X151677Y164408D01*
X151672Y164408D01*
X151663Y164408D01*
X151653Y164408D01*
X151644Y164407D01*
X151635Y164407D01*
X151625Y164407D01*
X151616Y164407D01*
X151607Y164406D01*
X151602Y164406D01*
X151593Y164405D01*
X151589Y164405D01*
X151580Y164405D01*
X151571Y164404D01*
X151567Y164404D01*
X151562Y164404D01*
X151554Y164403D01*
X151549Y164403D01*
X151541Y164402D01*
X151536Y164402D01*
X151532Y164401D01*
X151519Y164400D01*
X151515Y164400D01*
X151511Y164400D01*
X151503Y164399D01*
X151498Y164398D01*
X151498Y164398D01*
X151494Y164398D01*
X151494Y164398D01*
X151490Y164398D01*
X151490Y164398D01*
X151486Y164397D01*
X151486Y164397D01*
X151482Y164397D01*
X151482Y164397D01*
X151478Y164396D01*
X151478Y164396D01*
X151474Y164396D01*
X151474Y164396D01*
X151470Y164395D01*
X151470Y164395D01*
X151466Y164395D01*
X151466Y164395D01*
X151462Y164394D01*
X151462Y164394D01*
X151458Y164394D01*
X151458Y164394D01*
X151454Y164393D01*
X151454Y164393D01*
X151450Y164393D01*
X151450Y164393D01*
X151446Y164392D01*
X151446Y164392D01*
X151442Y164392D01*
X151442Y164392D01*
X151438Y164391D01*
X151438Y164391D01*
X151434Y164391D01*
X151434Y164391D01*
X151430Y164390D01*
X151430Y164390D01*
X151426Y164389D01*
X151426Y164389D01*
X151423Y164389D01*
X151423Y164389D01*
X151419Y164388D01*
X151419Y164388D01*
X151415Y164388D01*
X151415Y164388D01*
X151411Y164387D01*
X151411Y164387D01*
X151407Y164386D01*
X151407Y164386D01*
X151404Y164386D01*
X151404Y164386D01*
X151400Y164385D01*
X151400Y164385D01*
X151400Y164385D01*
X151396Y164384D01*
X151396Y164384D01*
X151393Y164384D01*
X151392Y164383D01*
X151389Y164383D01*
X151389Y164383D01*
X151385Y164382D01*
X151385Y164382D01*
X151382Y164382D01*
X151382Y164381D01*
X151378Y164381D01*
X151378Y164381D01*
X151374Y164380D01*
X151374Y164380D01*
X151371Y164379D01*
X151371Y164379D01*
X151367Y164378D01*
X151367Y164378D01*
X151364Y164378D01*
X151364Y164378D01*
X151360Y164377D01*
X151360Y164377D01*
X151357Y164376D01*
X151357Y164376D01*
X151353Y164375D01*
X151353Y164375D01*
X151350Y164375D01*
X151350Y164375D01*
X151343Y164373D01*
X151343Y164373D01*
X151342Y164373D01*
X151339Y164372D01*
X151339D01*
X151334Y164371D01*
X151333Y164371D01*
X151330Y164370D01*
X151330Y164370D01*
X151327Y164369D01*
X151327Y164369D01*
X151323Y164368D01*
Y164368D01*
X151322Y164368D01*
X151316Y164366D01*
X151310Y164364D01*
X151305Y164363D01*
X151300Y164361D01*
X151294Y164359D01*
X151291Y164358D01*
X151285Y164356D01*
X151279Y164354D01*
X151273Y164352D01*
X151269Y164351D01*
X151267Y164350D01*
X151261Y164348D01*
X151254Y164345D01*
X151249Y164343D01*
X151246Y164342D01*
X151241Y164340D01*
X151237Y164338D01*
X151232Y164336D01*
X151227Y164333D01*
X151224Y164332D01*
X151224Y164332D01*
X151221Y164331D01*
X151221Y164331D01*
X151218Y164329D01*
X151218Y164329D01*
X151216Y164328D01*
X151216Y164328D01*
X151213Y164327D01*
X151213Y164327D01*
X151211Y164325D01*
X151211Y164325D01*
X151208Y164324D01*
X151208Y164324D01*
X151206Y164323D01*
X151206Y164323D01*
X151203Y164321D01*
X151203Y164321D01*
X151200Y164320D01*
X151200Y164320D01*
X151198Y164319D01*
X151198Y164319D01*
X151196Y164317D01*
X151196Y164317D01*
X151193Y164316D01*
X151193Y164316D01*
X151191Y164314D01*
X151191Y164314D01*
X151188Y164313D01*
X151188Y164313D01*
X151186Y164311D01*
X151186Y164311D01*
X151184Y164310D01*
X151184Y164310D01*
X151181Y164308D01*
X151181Y164308D01*
X151179Y164307D01*
X151179Y164307D01*
X151177Y164305D01*
X151177Y164305D01*
X151175Y164304D01*
X151175Y164304D01*
X151172Y164302D01*
X151172Y164302D01*
X151170Y164301D01*
X151170Y164301D01*
X151168Y164299D01*
X151168Y164299D01*
X151166Y164298D01*
X151166Y164298D01*
X151164Y164296D01*
X151164Y164296D01*
X151162Y164295D01*
X151162Y164295D01*
X151160Y164293D01*
X151159Y164293D01*
X151157Y164291D01*
X151157Y164291D01*
X151155Y164290D01*
X151155Y164290D01*
X151153Y164288D01*
X151153Y164288D01*
X151151Y164286D01*
X151151Y164286D01*
X151149Y164285D01*
X151149Y164285D01*
X151147Y164283D01*
X151147Y164283D01*
X151145Y164281D01*
X151145Y164281D01*
X151144Y164279D01*
X151144Y164279D01*
X151142Y164278D01*
X151142Y164278D01*
X151140Y164276D01*
X151140Y164276D01*
X151138Y164274D01*
X151138Y164274D01*
X151136Y164272D01*
X151136Y164272D01*
X151134Y164271D01*
X151134Y164271D01*
X151132Y164269D01*
X151132Y164269D01*
X151132Y164268D01*
X151132Y164268D01*
X151131Y164268D01*
X151131Y164268D01*
X151130Y164267D01*
X151130Y164267D01*
X151129Y164266D01*
X151129Y164266D01*
X151129Y164265D01*
X151129Y164265D01*
X151129Y164265D01*
X151128Y164265D01*
X151128Y164264D01*
X151128Y164264D01*
X151127Y164263D01*
X151127Y164263D01*
X151126Y164262D01*
X151126Y164262D01*
X151126Y164262D01*
X151126Y164261D01*
X151125Y164261D01*
X151125Y164261D01*
X151124Y164260D01*
X151124Y164260D01*
X151123Y164259D01*
X151123Y164259D01*
X151123Y164258D01*
X151123Y164258D01*
X151122Y164258D01*
X151122Y164258D01*
X151122Y164257D01*
X151122Y164257D01*
X151121Y164256D01*
X151121Y164256D01*
X151120Y164255D01*
X151120Y164255D01*
X151119Y164254D01*
X151119Y164254D01*
X151119Y164254D01*
X151119Y164254D01*
X151119Y164254D01*
X151119Y164253D01*
X151118Y164253D01*
X151118Y164252D01*
X151117Y164252D01*
X151117Y164251D01*
X151116Y164251D01*
X151116Y164251D01*
X151116Y164250D01*
X151116Y164250D01*
X151116Y164250D01*
X151116Y164250D01*
X151115Y164249D01*
X151115Y164249D01*
X151114Y164248D01*
X151114Y164248D01*
X151113Y164247D01*
X151113Y164247D01*
X151113Y164246D01*
X151113Y164246D01*
X151112Y164246D01*
X151112Y164246D01*
X151112Y164245D01*
X151112Y164245D01*
X151111Y164244D01*
X151111Y164244D01*
X151110Y164243D01*
X151110Y164243D01*
X151110Y164242D01*
X151110Y164242D01*
X151109Y164242D01*
X151109Y164241D01*
X151108Y164240D01*
X151108Y164240D01*
X151107Y164239D01*
X151107Y164238D01*
X151106Y164237D01*
X151106Y164237D01*
X151106Y164236D01*
X151106Y164236D01*
X151105Y164235D01*
X151105Y164235D01*
X151104Y164234D01*
X151104Y164234D01*
X151103Y164232D01*
X151103Y164232D01*
X151102Y164231D01*
X151102Y164231D01*
X151102Y164230D01*
X151102Y164230D01*
X151101Y164228D01*
X151101Y164228D01*
X151099Y164225D01*
X151099Y164225D01*
X151097Y164222D01*
X151097Y164222D01*
X151095Y164219D01*
X151095Y164219D01*
X151094Y164217D01*
X151094Y164217D01*
X151093Y164215D01*
X151093Y164215D01*
X151091Y164210D01*
X151090Y164209D01*
X151088Y164205D01*
X151088Y164204D01*
X151086Y164200D01*
X151085Y164197D01*
X151084Y164195D01*
X151083Y164193D01*
X151082Y164189D01*
X151081Y164188D01*
X151081Y164186D01*
X151080Y164183D01*
X151079Y164182D01*
X151079Y164180D01*
X151078Y164179D01*
X151078Y164178D01*
X151078Y164178D01*
X151077Y164175D01*
X151077Y164174D01*
X151076Y164170D01*
X151075Y164169D01*
X151075Y164168D01*
X151075Y164168D01*
X151075Y164165D01*
X151074Y164164D01*
X151074Y164164D01*
X151074Y164161D01*
X151073Y164159D01*
X151073Y164158D01*
X151073Y164156D01*
X151072Y164153D01*
X151072Y164152D01*
X151072Y164151D01*
X151071Y164148D01*
X151071Y164145D01*
X151070Y164144D01*
X151070Y164143D01*
X151070Y164141D01*
X151070Y164140D01*
X151069Y164138D01*
X151069Y164137D01*
X151069Y164135D01*
X151069Y164135D01*
X151069Y164132D01*
X151069Y164132D01*
X151069Y164130D01*
X151069Y164129D01*
X151068Y164127D01*
X151068Y164127D01*
X151068Y164124D01*
X151068Y164124D01*
X151068Y164121D01*
X151068Y164121D01*
X151068Y164119D01*
X151068Y164118D01*
X151068Y164116D01*
X151068Y164116D01*
X151068Y164113D01*
X151067Y164113D01*
X151067Y164110D01*
X151067Y164110D01*
X151067Y164107D01*
X151067Y164107D01*
X151067Y164104D01*
X151067Y164104D01*
X151067Y164104D01*
X151067Y164104D01*
Y164103D01*
X151067Y164103D01*
X151067Y164102D01*
X151067Y164102D01*
X151067Y164102D01*
X151067Y164102D01*
X151067Y164101D01*
X151067Y164101D01*
X151067Y164099D01*
X151067Y164098D01*
X151067Y164096D01*
X151067Y164095D01*
X151067Y164093D01*
X151067Y164093D01*
X151068Y164090D01*
X151068Y164090D01*
X151068Y164087D01*
X151068Y164087D01*
X151068Y164084D01*
Y164084D01*
X151068Y164081D01*
Y164081D01*
X151068Y164078D01*
Y164078D01*
X151068Y164075D01*
Y164075D01*
X151069Y164072D01*
Y164072D01*
X151069Y164069D01*
Y164069D01*
X151069Y164066D01*
Y164066D01*
X151070Y164063D01*
Y164062D01*
X151070Y164059D01*
Y164059D01*
X151070Y164056D01*
Y164056D01*
X151071Y164053D01*
Y164053D01*
X151071Y164050D01*
Y164050D01*
X151072Y164047D01*
Y164047D01*
X151072Y164044D01*
Y164044D01*
X151073Y164041D01*
Y164041D01*
X151073Y164040D01*
X151074Y164037D01*
X151074Y164037D01*
X151074Y164034D01*
X151074Y164034D01*
X151075Y164031D01*
X151075Y164031D01*
X151075Y164028D01*
X151075Y164028D01*
X151076Y164024D01*
X151076Y164024D01*
X151077Y164021D01*
X151077Y164021D01*
X151077Y164018D01*
X151077Y164018D01*
X151078Y164014D01*
X151078Y164014D01*
X151079Y164011D01*
X151079Y164011D01*
X151080Y164007D01*
X151080Y164007D01*
X151081Y164004D01*
X151081Y164004D01*
X151082Y164001D01*
X151082Y164001D01*
X151083Y163997D01*
X151083Y163997D01*
X151083Y163994D01*
X151083Y163994D01*
X151084Y163990D01*
X151084Y163990D01*
X151085Y163987D01*
X151085Y163987D01*
X151086Y163983D01*
X151086Y163983D01*
X151087Y163980D01*
X151087Y163980D01*
X151089Y163976D01*
X151089Y163976D01*
X151090Y163973D01*
X151090Y163973D01*
X151091Y163969D01*
X151091Y163969D01*
X151092Y163966D01*
X151092Y163966D01*
X151093Y163962D01*
X151093Y163962D01*
X151094Y163959D01*
X151094Y163959D01*
X151096Y163955D01*
X151096Y163955D01*
X151097Y163951D01*
X151097Y163951D01*
X151098Y163948D01*
X151098Y163947D01*
X151100Y163944D01*
X151100Y163944D01*
X151101Y163940D01*
X151101Y163940D01*
X151102Y163936D01*
X151102Y163936D01*
X151104Y163933D01*
X151104Y163933D01*
X151105Y163929D01*
X151105Y163929D01*
X151107Y163925D01*
X151107Y163925D01*
X151108Y163921D01*
X151108Y163921D01*
X151110Y163918D01*
X151110Y163918D01*
X151111Y163914D01*
X151111Y163914D01*
X151113Y163910D01*
X151113Y163910D01*
X151114Y163906D01*
X151114Y163906D01*
X151116Y163902D01*
X151116Y163902D01*
X151118Y163898D01*
X151118Y163898D01*
X151119Y163894D01*
X151119Y163894D01*
X151121Y163890D01*
X151121Y163890D01*
X151123Y163886D01*
X151123Y163886D01*
X151125Y163882D01*
X151125Y163882D01*
X151127Y163878D01*
X151127Y163878D01*
X151128Y163874D01*
X151128Y163874D01*
X151130Y163870D01*
X151130Y163870D01*
X151132Y163866D01*
X151132Y163866D01*
X151134Y163862D01*
X151134Y163862D01*
X151136Y163858D01*
X151136Y163858D01*
X151138Y163854D01*
X151138Y163854D01*
X151140Y163850D01*
X151140Y163850D01*
X151143Y163846D01*
X151143Y163846D01*
X151145Y163842D01*
X151145Y163842D01*
X151147Y163837D01*
X151147Y163837D01*
X151149Y163833D01*
X151149Y163833D01*
X151151Y163829D01*
X151151Y163829D01*
X151153Y163825D01*
X151153Y163825D01*
X151156Y163821D01*
X151156Y163821D01*
X151158Y163816D01*
X151158Y163816D01*
X151160Y163812D01*
X151160Y163812D01*
X151163Y163808D01*
X151163Y163808D01*
X151165Y163803D01*
X151165Y163803D01*
X151167Y163799D01*
X151167Y163799D01*
X151170Y163795D01*
X151170Y163795D01*
X151172Y163790D01*
X151172Y163790D01*
X151175Y163786D01*
X151175Y163786D01*
X151177Y163781D01*
X151177Y163781D01*
X151180Y163777D01*
X151180Y163777D01*
X151182Y163772D01*
X151182Y163772D01*
X151185Y163768D01*
X151185Y163768D01*
X151188Y163763D01*
X151188Y163763D01*
X151190Y163759D01*
X151191Y163759D01*
X151193Y163754D01*
X151193Y163754D01*
X151196Y163750D01*
X151196Y163750D01*
X151199Y163745D01*
X151199Y163745D01*
X151202Y163741D01*
X151202Y163741D01*
X151205Y163736D01*
X151205Y163736D01*
X151207Y163731D01*
X151207Y163731D01*
X151210Y163727D01*
X151210Y163727D01*
X151213Y163722D01*
X151213Y163722D01*
X151216Y163717D01*
X151216Y163717D01*
X151219Y163713D01*
X151219Y163713D01*
X151225Y163703D01*
X151232Y163693D01*
X151235Y163689D01*
X151241Y163679D01*
X151248Y163669D01*
X151255Y163659D01*
X151258Y163654D01*
X151265Y163644D01*
X151268Y163639D01*
X151272Y163634D01*
X151276Y163629D01*
X151279Y163624D01*
X151279Y163624D01*
X151388Y163611D01*
X151388Y163611D01*
X151470Y163601D01*
X151470Y163601D01*
X151507Y163596D01*
X151550Y163590D01*
X151630Y163579D01*
X151710Y163567D01*
X151789Y163555D01*
X151868Y163542D01*
X151946Y163529D01*
X152050Y163511D01*
X152153Y163491D01*
X152255Y163472D01*
X152356Y163451D01*
X152455Y163429D01*
X152555Y163407D01*
X152653Y163384D01*
X152750Y163360D01*
X152847Y163335D01*
X152943Y163310D01*
X153037Y163284D01*
X153131Y163257D01*
X153224Y163229D01*
X153316Y163201D01*
X153408Y163172D01*
X153498Y163142D01*
X153587Y163111D01*
X153676Y163080D01*
X153764Y163048D01*
X153850Y163016D01*
X153937Y162982D01*
X154022Y162948D01*
X154106Y162914D01*
X154189Y162878D01*
X154271Y162842D01*
X154353Y162806D01*
X154434Y162768D01*
X154513Y162731D01*
X154592Y162692D01*
X154670Y162653D01*
X154747Y162613D01*
X154824Y162573D01*
X154899Y162532D01*
X154973Y162490D01*
X155047Y162448D01*
X155120Y162406D01*
X155192Y162362D01*
X155280Y162308D01*
X155367Y162252D01*
X155453Y162195D01*
X155538Y162138D01*
X155621Y162080D01*
X155702Y162021D01*
X155782Y161961D01*
X155861Y161900D01*
X155939Y161839D01*
X156015Y161777D01*
X156090Y161714D01*
X156163Y161651D01*
X156235Y161586D01*
X156306Y161522D01*
X156316Y161512D01*
X156337Y161492D01*
X156358Y161473D01*
X156378Y161453D01*
X156399Y161433D01*
X156419Y161413D01*
X156439Y161393D01*
X156460Y161373D01*
X156480Y161353D01*
X156499Y161333D01*
X156519Y161313D01*
X156539Y161293D01*
X156549Y161283D01*
X156558Y161273D01*
X156578Y161252D01*
X156597Y161232D01*
X156616Y161211D01*
X156625Y161201D01*
X156625D01*
X156635Y161191D01*
X156654Y161170D01*
X156673Y161150D01*
X156691Y161129D01*
X156710Y161108D01*
X156728Y161088D01*
X156746Y161067D01*
X156764Y161046D01*
X156782Y161025D01*
X156800Y161004D01*
X156818Y160983D01*
X156836Y160962D01*
X156844Y160951D01*
X156844D01*
X156853Y160941D01*
X156870Y160920D01*
X156888Y160899D01*
X156905Y160877D01*
X156923Y160854D01*
X156943Y160829D01*
X156962Y160804D01*
X156982Y160779D01*
X156991Y160767D01*
X156991D01*
X157001Y160754D01*
X157020Y160729D01*
X157039Y160704D01*
X157057Y160678D01*
X157076Y160653D01*
X157094Y160628D01*
X157112Y160602D01*
X157130Y160576D01*
X157148Y160551D01*
X157166Y160525D01*
X157183Y160500D01*
X157200Y160474D01*
X157209Y160461D01*
X157218Y160448D01*
X157235Y160422D01*
X157251Y160396D01*
X157268Y160370D01*
X157276Y160357D01*
X157276D01*
X157285Y160342D01*
X157304Y160312D01*
X157323Y160283D01*
X157341Y160252D01*
X157359Y160222D01*
X157376Y160192D01*
X157394Y160162D01*
X157411Y160132D01*
X157420Y160117D01*
X157428Y160102D01*
X157445Y160071D01*
X157461Y160041D01*
X157478Y160010D01*
X157494Y159980D01*
X157510Y159949D01*
X157526Y159919D01*
X157541Y159888D01*
X157549Y159872D01*
X157557Y159855D01*
X157574Y159820D01*
X157591Y159786D01*
X157607Y159751D01*
X157623Y159716D01*
X157639Y159681D01*
X157654Y159646D01*
X157669Y159611D01*
X157677Y159593D01*
X157677D01*
X157685Y159574D01*
X157702Y159535D01*
X157717Y159496D01*
X157733Y159456D01*
X157748Y159417D01*
X157763Y159378D01*
X157778Y159338D01*
X157792Y159299D01*
X157806Y159257D01*
X157821Y159214D01*
X157835Y159170D01*
X157849Y159126D01*
X157856Y159104D01*
X157863Y159080D01*
X157878Y159033D01*
X157891Y158985D01*
X157905Y158937D01*
X157918Y158887D01*
X157931Y158835D01*
X157944Y158782D01*
X157956Y158730D01*
X157968Y158676D01*
X157980Y158619D01*
X157991Y158563D01*
X158001Y158506D01*
X158011Y158446D01*
X158021Y158381D01*
X158031Y158317D01*
X158039Y158252D01*
X158043Y158219D01*
X158047Y158181D01*
X158055Y158104D01*
X158061Y158027D01*
X158067Y157950D01*
X158071Y157859D01*
X158074Y157753D01*
X158075Y157648D01*
X158073Y157543D01*
X158071Y157490D01*
X158063Y157287D01*
X158013Y156883D01*
X157928Y156485D01*
X157809Y156096D01*
X157732Y155907D01*
X157719Y155875D01*
X157692Y155810D01*
X157664Y155746D01*
X157635Y155682D01*
X157608Y155625D01*
X157584Y155577D01*
X157560Y155528D01*
X157535Y155480D01*
X157511Y155434D01*
X157487Y155390D01*
X157462Y155346D01*
X157437Y155302D01*
X157414Y155262D01*
X157393Y155225D01*
X157370Y155189D01*
X157348Y155153D01*
X157337Y155135D01*
X157327Y155119D01*
X157306Y155087D01*
X157285Y155055D01*
X157264Y155023D01*
X157243Y154991D01*
X157221Y154959D01*
X157199Y154927D01*
X157176Y154896D01*
X157155Y154866D01*
X157141Y154846D01*
X156920Y154572D01*
X156758Y154389D01*
X156647Y154274D01*
X156562Y154187D01*
X156382Y154017D01*
X156079Y153761D01*
X156021Y153716D01*
X155945Y153659D01*
X155867Y153603D01*
X155788Y153548D01*
X155724Y153505D01*
X155659Y153462D01*
X155593Y153419D01*
X155526Y153377D01*
X155458Y153336D01*
X155390Y153296D01*
X155320Y153256D01*
X155250Y153216D01*
X155179Y153177D01*
X155106Y153139D01*
X155033Y153102D01*
X154959Y153065D01*
X154885Y153029D01*
X154809Y152993D01*
X154732Y152958D01*
X154655Y152924D01*
X154576Y152890D01*
X154497Y152857D01*
X154417Y152825D01*
X154335Y152793D01*
X154253Y152762D01*
X154171Y152732D01*
X154087Y152703D01*
X154002Y152674D01*
X153938Y152653D01*
X153874Y152632D01*
X153808Y152612D01*
X153743Y152593D01*
X153677Y152573D01*
X153610Y152554D01*
X153543Y152536D01*
X153476Y152518D01*
X153408Y152500D01*
X153339Y152483D01*
X153270Y152466D01*
X153200Y152450D01*
X153130Y152434D01*
X153059Y152418D01*
X152988Y152403D01*
X152917Y152389D01*
X152845Y152375D01*
X152772Y152361D01*
X152699Y152348D01*
X152626Y152335D01*
X152551Y152323D01*
X152477Y152312D01*
X152402Y152300D01*
X152326Y152289D01*
X152250Y152279D01*
X152173Y152269D01*
X152096Y152260D01*
X152019Y152251D01*
X151941Y152243D01*
X151862Y152235D01*
X151783Y152228D01*
X151703Y152221D01*
X151623Y152215D01*
X151542Y152209D01*
X151461Y152204D01*
X151380Y152199D01*
X151298Y152195D01*
X151215Y152191D01*
X151132Y152188D01*
X151132Y152188D01*
X151048Y152185D01*
X151048Y152185D01*
X151020Y152185D01*
X150892Y152169D01*
X150638Y152147D01*
X150391Y152132D01*
X149969Y152138D01*
X149944Y152139D01*
X149870Y152145D01*
X149833Y152149D01*
X149833Y152149D01*
X149735Y152158D01*
X149540Y152185D01*
X149347Y152220D01*
X149155Y152263D01*
X149060Y152288D01*
X149035Y152295D01*
X148986Y152309D01*
X148937Y152323D01*
X148888Y152338D01*
X148843Y152352D01*
X148802Y152365D01*
X148761Y152379D01*
X148721Y152393D01*
X148684Y152406D01*
X148651Y152418D01*
X148618Y152430D01*
X148585Y152443D01*
X148553Y152455D01*
X148520Y152468D01*
X148488Y152481D01*
X148456Y152494D01*
X148439Y152501D01*
Y152501D01*
X148425Y152507D01*
X148397Y152519D01*
X148368Y152532D01*
X148340Y152544D01*
X148312Y152557D01*
X148284Y152570D01*
X148256Y152583D01*
X148228Y152596D01*
X148202Y152608D01*
X148178Y152620D01*
X148153Y152632D01*
X148129Y152644D01*
X148117Y152650D01*
Y152650D01*
X148105Y152656D01*
X148081Y152669D01*
X148071Y152674D01*
X147943Y152748D01*
X147925Y152759D01*
X147804Y152834D01*
X147506Y153022D01*
X147470Y153047D01*
X147373Y153119D01*
X147337Y153147D01*
X147298Y153177D01*
X147258Y153207D01*
X147219Y153237D01*
X147180Y153268D01*
X147141Y153299D01*
X147100Y153332D01*
X147059Y153366D01*
X147018Y153400D01*
X146959Y153450D01*
X146986Y153427D01*
X146943Y153462D01*
X146855Y153538D01*
X146880Y153515D01*
X146943Y153462D01*
X146982Y153428D01*
X146950Y153455D01*
X146880Y153515D01*
X146905Y153492D01*
X146950Y153455D01*
X146990Y153421D01*
X146964Y153442D01*
X146905Y153492D01*
X146930Y153469D01*
X146964Y153442D01*
X147002Y153410D01*
X146980Y153427D01*
X146930Y153469D01*
X146954Y153448D01*
X146980Y153427D01*
X147014Y153398D01*
X146997Y153412D01*
X146954Y153448D01*
X146977Y153428D01*
X146997Y153412D01*
X147030Y153384D01*
X147016Y153395D01*
X147048Y153368D01*
X147036Y153377D01*
X146999Y153408D01*
X147022Y153388D01*
X147036Y153377D01*
X147067Y153351D01*
X147057Y153359D01*
X147022Y153388D01*
X147045Y153369D01*
X147057Y153359D01*
X147087Y153335D01*
X147078Y153341D01*
X147107Y153318D01*
X147100Y153323D01*
X147068Y153349D01*
X147091Y153330D01*
X147100Y153323D01*
X147110Y153315D01*
X147102Y153321D01*
X147091Y153330D01*
X147099Y153323D01*
X147091Y153330D01*
X147068Y153349D01*
X147045Y153369D01*
X147022Y153388D01*
X146999Y153408D01*
X146976Y153428D01*
X146954Y153448D01*
X146930Y153469D01*
X146905Y153492D01*
X146880Y153515D01*
X146855Y153538D01*
X146829Y153562D01*
X146802Y153588D01*
X146775Y153614D01*
X146748Y153640D01*
X146720Y153667D01*
X146691Y153696D01*
X146662Y153726D01*
X146634Y153755D01*
X146603Y153787D01*
X146570Y153822D01*
X146537Y153858D01*
X146504Y153893D01*
X146464Y153937D01*
X146418Y153990D01*
X146372Y154043D01*
X146326Y154097D01*
X146240Y154202D01*
X146116Y154364D01*
X145997Y154529D01*
X145884Y154698D01*
X145830Y154784D01*
X145819Y154800D01*
X145799Y154834D01*
X145779Y154867D01*
X145759Y154901D01*
X145749Y154918D01*
X145741Y154931D01*
X145725Y154959D01*
X145709Y154986D01*
X145693Y155014D01*
X145678Y155040D01*
X145665Y155065D01*
X145651Y155089D01*
X145638Y155114D01*
X145631Y155126D01*
X145631Y155126D01*
X145586Y155213D01*
X145548Y155287D01*
X145512Y155361D01*
X145483Y155423D01*
X145454Y155485D01*
X145427Y155548D01*
X145405Y155597D01*
X145385Y155647D01*
X145364Y155697D01*
X145345Y155746D01*
X145326Y155796D01*
X145307Y155846D01*
X145289Y155895D01*
X145272Y155945D01*
X145259Y155982D01*
X145247Y156019D01*
X145235Y156056D01*
X145223Y156093D01*
X145212Y156130D01*
X145201Y156167D01*
X145191Y156204D01*
X145181Y156241D01*
X145171Y156277D01*
X145161Y156314D01*
X145152Y156351D01*
X145143Y156387D01*
X145135Y156423D01*
X145126Y156460D01*
X145119Y156496D01*
X145111Y156532D01*
X145104Y156568D01*
X145097Y156604D01*
X145091Y156640D01*
X145087Y156664D01*
X145083Y156688D01*
X145079Y156711D01*
X145076Y156735D01*
X145072Y156759D01*
X145069Y156782D01*
X145066Y156806D01*
X145063Y156829D01*
X145060Y156853D01*
X145057Y156876D01*
X145055Y156899D01*
X145053Y156923D01*
X145051Y156946D01*
X145048Y156969D01*
X145047Y156992D01*
X145045Y157015D01*
X145044Y157038D01*
X145042Y157061D01*
X145041Y157083D01*
X145040Y157106D01*
X145039Y157129D01*
X145038Y157151D01*
X145038Y157174D01*
X145038Y157196D01*
X145037Y157221D01*
X145037Y157233D01*
X145037Y157241D01*
X145037Y157263D01*
X145038Y157285D01*
X145038Y157307D01*
X145039Y157329D01*
X145040Y157351D01*
X145041Y157373D01*
X145042Y157395D01*
X145043Y157416D01*
X145045Y157438D01*
X145046Y157459D01*
X145048Y157481D01*
X145050Y157502D01*
X145052Y157523D01*
X145054Y157544D01*
X145057Y157565D01*
X145060Y157586D01*
X145062Y157607D01*
X145065Y157628D01*
X145069Y157648D01*
X145072Y157669D01*
X145076Y157689D01*
X145079Y157710D01*
X145083Y157730D01*
X145087Y157750D01*
X145091Y157770D01*
X145096Y157790D01*
X145100Y157810D01*
X145105Y157829D01*
X145110Y157849D01*
X145115Y157868D01*
X145120Y157888D01*
X145126Y157907D01*
X145131Y157926D01*
X145137Y157945D01*
X145143Y157964D01*
X145149Y157983D01*
X145156Y158001D01*
X145162Y158020D01*
X145169Y158038D01*
X145176Y158057D01*
X145183Y158075D01*
X145190Y158093D01*
X145197Y158111D01*
X145205Y158129D01*
X145213Y158147D01*
X145221Y158164D01*
X145229Y158182D01*
X145241Y158207D01*
X145254Y158233D01*
X145256Y158236D01*
X145259Y158242D01*
X145262Y158249D01*
X145266Y158255D01*
X145269Y158262D01*
X145273Y158268D01*
X145276Y158274D01*
X145279Y158280D01*
X145283Y158286D01*
X145286Y158293D01*
X145290Y158299D01*
X145293Y158305D01*
X145295Y158308D01*
X145301Y158317D01*
X145304Y158323D01*
X145308Y158329D01*
X145312Y158335D01*
X145315Y158342D01*
X145319Y158347D01*
X145323Y158353D01*
X145325Y158356D01*
X145325D01*
X145327Y158360D01*
X145331Y158365D01*
X145334Y158371D01*
X145338Y158377D01*
X145340Y158380D01*
X145343Y158384D01*
X145348Y158392D01*
X145353Y158400D01*
X145359Y158407D01*
X145364Y158415D01*
X145370Y158423D01*
X145375Y158431D01*
X145380Y158438D01*
X145383Y158442D01*
Y158442D01*
X145386Y158446D01*
X145392Y158453D01*
X145397Y158461D01*
X145403Y158468D01*
X145406Y158472D01*
X145410Y158477D01*
X145417Y158486D01*
X145424Y158495D01*
X145432Y158504D01*
X145435Y158509D01*
X145440Y158515D01*
X145451Y158527D01*
X145462Y158540D01*
X145473Y158552D01*
X145478Y158558D01*
Y158558D01*
X145503Y158586D01*
X145555Y158637D01*
X145610Y158686D01*
X145667Y158733D01*
X145702Y158758D01*
X145712Y158765D01*
X145722Y158772D01*
X145732Y158779D01*
X145737Y158782D01*
X145741Y158785D01*
X145749Y158790D01*
X145757Y158796D01*
X145765Y158801D01*
X145769Y158804D01*
X145773Y158806D01*
X145782Y158811D01*
X145790Y158817D01*
X145798Y158822D01*
X145806Y158826D01*
X145812Y158830D01*
X145818Y158834D01*
X145825Y158838D01*
X145828Y158839D01*
X145831Y158841D01*
X145838Y158845D01*
X145844Y158849D01*
X145851Y158852D01*
X145854Y158854D01*
Y158854D01*
X145857Y158856D01*
X145864Y158860D01*
X145871Y158863D01*
X145877Y158867D01*
X145884Y158870D01*
X145890Y158874D01*
X145897Y158877D01*
X145904Y158880D01*
X145911Y158884D01*
X145917Y158887D01*
X145924Y158891D01*
X145931Y158894D01*
X145938Y158897D01*
X145945Y158900D01*
X145952Y158904D01*
X145959Y158907D01*
X145962Y158908D01*
X145981Y158917D01*
X146000Y158925D01*
X146019Y158933D01*
X146038Y158941D01*
X146058Y158949D01*
X146078Y158956D01*
X146098Y158963D01*
X146118Y158970D01*
X146138Y158977D01*
X146159Y158984D01*
X146179Y158990D01*
X146200Y158996D01*
X146222Y159002D01*
X146243Y159008D01*
X146264Y159014D01*
X146286Y159019D01*
X146308Y159024D01*
X146330Y159029D01*
X146353Y159034D01*
X146375Y159038D01*
X146398Y159043D01*
X146421Y159047D01*
X146444Y159051D01*
X146468Y159055D01*
X146491Y159058D01*
X146515Y159061D01*
X146539Y159064D01*
X146563Y159067D01*
X146588Y159070D01*
X146612Y159072D01*
X146637Y159074D01*
X146662Y159076D01*
X146687Y159077D01*
X146713Y159079D01*
X146739Y159080D01*
X146765Y159081D01*
X146791Y159082D01*
X146817Y159082D01*
X146843Y159082D01*
X146870Y159082D01*
X146897Y159082D01*
X146924Y159082D01*
X146952Y159081D01*
X146979Y159080D01*
X147007Y159079D01*
X147035Y159078D01*
X147063Y159076D01*
X147092Y159074D01*
X147120Y159072D01*
X147149Y159069D01*
X147178Y159067D01*
X147207Y159064D01*
X147237Y159061D01*
X147267Y159057D01*
X147297Y159054D01*
X147327Y159050D01*
X147357Y159046D01*
X147388Y159041D01*
X147418Y159036D01*
X147450Y159031D01*
X147481Y159026D01*
X147512Y159021D01*
X147544Y159015D01*
X147576Y159009D01*
X147608Y159003D01*
X147640Y158996D01*
X147673Y158990D01*
X147706Y158982D01*
X147739Y158975D01*
X147772Y158967D01*
X147805Y158960D01*
X147839Y158951D01*
X147873Y158943D01*
X147907Y158934D01*
X147941Y158925D01*
X147976Y158916D01*
X148010Y158907D01*
X148045Y158897D01*
X148081Y158887D01*
X148116Y158876D01*
X148152Y158866D01*
X148188Y158855D01*
X148224Y158844D01*
X148260Y158832D01*
X148297Y158820D01*
X148333Y158808D01*
X148370Y158796D01*
X148408Y158783D01*
X148445Y158770D01*
X148483Y158757D01*
X148521Y158744D01*
X148559Y158730D01*
X148597Y158715D01*
X148636Y158701D01*
X148675Y158686D01*
X148714Y158671D01*
X148753Y158656D01*
X148793Y158640D01*
X148812Y158632D01*
X148830Y158600D01*
X148865Y158536D01*
X148903Y158472D01*
X148928Y158431D01*
X148941Y158409D01*
X148942Y158409D01*
X148961Y158378D01*
X148961Y158378D01*
X148990Y158335D01*
X148990Y158335D01*
X149049Y158250D01*
X149049Y158250D01*
X149110Y158167D01*
X149111Y158166D01*
X149175Y158086D01*
X149208Y158046D01*
X149208Y158046D01*
X149259Y157987D01*
X149365Y157873D01*
X149366Y157872D01*
X149478Y157763D01*
X149478Y157763D01*
X149595Y157659D01*
X149655Y157609D01*
X149672Y157596D01*
X149705Y157570D01*
X149738Y157545D01*
X149772Y157520D01*
X149789Y157508D01*
X149802Y157498D01*
X149828Y157480D01*
X149855Y157461D01*
X149881Y157443D01*
X149895Y157434D01*
X149895Y157434D01*
X149906Y157427D01*
X149928Y157412D01*
X149951Y157398D01*
X149974Y157383D01*
X149985Y157376D01*
X149996Y157370D01*
X150016Y157358D01*
X150037Y157345D01*
X150057Y157333D01*
X150068Y157327D01*
X150077Y157322D01*
X150096Y157311D01*
X150114Y157301D01*
X150133Y157291D01*
X150142Y157286D01*
X150151Y157281D01*
X150169Y157272D01*
X150186Y157263D01*
X150204Y157254D01*
X150213Y157249D01*
X150221Y157245D01*
X150237Y157237D01*
X150254Y157229D01*
X150271Y157220D01*
X150279Y157217D01*
X150287Y157213D01*
X150302Y157206D01*
X150318Y157198D01*
X150333Y157191D01*
X150341Y157188D01*
X150348Y157185D01*
X150363Y157178D01*
X150377Y157172D01*
X150392Y157166D01*
X150392Y157166D01*
X150399Y157163D01*
X150399Y157163D01*
X150406Y157160D01*
X150406Y157160D01*
X150421Y157154D01*
X150421Y157154D01*
X150435Y157148D01*
X150435Y157148D01*
X150450Y157142D01*
X150450Y157142D01*
X150457Y157139D01*
X150457Y157139D01*
X150464Y157136D01*
X150464Y157136D01*
X150477Y157131D01*
X150477Y157131D01*
X150491Y157126D01*
X150491Y157126D01*
X150504Y157121D01*
X150504Y157121D01*
X150511Y157118D01*
X150511Y157118D01*
X150517Y157116D01*
X150518Y157116D01*
X150531Y157111D01*
X150531Y157111D01*
X150544Y157106D01*
X150545Y157106D01*
X150558Y157101D01*
X150558Y157101D01*
X150565Y157099D01*
X150565Y157099D01*
X150571Y157096D01*
X150572Y157096D01*
X150585Y157092D01*
X150585Y157091D01*
X150598Y157087D01*
X150599Y157087D01*
X150612Y157082D01*
X150612Y157082D01*
X150619Y157080D01*
X150619Y157080D01*
X150625Y157078D01*
X150625Y157078D01*
X150637Y157074D01*
X150637Y157074D01*
X150649Y157070D01*
X150650Y157070D01*
X150662Y157066D01*
X150662Y157066D01*
X150668Y157064D01*
X150669Y157064D01*
X150674Y157062D01*
X150675Y157062D01*
X150686Y157059D01*
X150687Y157059D01*
X150699Y157055D01*
X150699Y157055D01*
X150711Y157051D01*
X150712Y157051D01*
X150717Y157050D01*
X150718Y157049D01*
X150724Y157048D01*
X150724Y157048D01*
X150736Y157044D01*
X150737Y157044D01*
X150748Y157041D01*
X150749Y157041D01*
X150761Y157037D01*
X150762Y157037D01*
X150767Y157036D01*
X150768Y157035D01*
X150773Y157034D01*
X150775Y157034D01*
X150786Y157031D01*
X150788Y157030D01*
X150798Y157027D01*
X150811Y157024D01*
X150817Y157023D01*
X150818Y157023D01*
X150823Y157021D01*
X150836Y157018D01*
X150848Y157015D01*
X150861Y157012D01*
X150867Y157011D01*
X150873Y157009D01*
X150886Y157007D01*
X150898Y157004D01*
X150911Y157001D01*
X150917Y157000D01*
X150923Y156998D01*
X150936Y156996D01*
X150948Y156993D01*
X150961Y156991D01*
X150967Y156990D01*
X150967Y156990D01*
X150974Y156989D01*
X150986Y156986D01*
X150999Y156984D01*
X151011Y156982D01*
X151018Y156981D01*
X151023Y156980D01*
X151034Y156978D01*
X151046Y156976D01*
X151057Y156974D01*
X151068Y156973D01*
X151080Y156971D01*
X151091Y156969D01*
X151102Y156968D01*
X151114Y156966D01*
X151125Y156965D01*
X151137Y156963D01*
X151148Y156962D01*
X151154Y156961D01*
X151160Y156961D01*
X151172Y156959D01*
X151185Y156958D01*
X151198Y156957D01*
X151210Y156956D01*
X151223Y156954D01*
X151236Y156953D01*
X151248Y156952D01*
X151255Y156952D01*
X151261Y156951D01*
X151261D01*
X151273Y156950D01*
X151273D01*
X151286Y156950D01*
X151286D01*
X151298Y156949D01*
X151298Y156949D01*
X151305Y156949D01*
X151305Y156949D01*
X151311Y156948D01*
X151311Y156948D01*
X151323Y156948D01*
X151324D01*
X151336Y156947D01*
X151336Y156947D01*
X151349Y156947D01*
X151362Y156946D01*
X151374Y156946D01*
X151387Y156946D01*
X151399Y156945D01*
X151406Y156945D01*
X151406Y156945D01*
X151412Y156945D01*
X151425Y156945D01*
X151437Y156945D01*
X151437Y156945D01*
X151450Y156945D01*
X151462Y156945D01*
X151475Y156946D01*
X151488Y156946D01*
X151500Y156946D01*
X151513Y156947D01*
X151527Y156947D01*
X151541Y156948D01*
X151555Y156948D01*
X151562Y156949D01*
X151569Y156949D01*
X151583Y156950D01*
X151596Y156951D01*
X151610Y156952D01*
X151617Y156952D01*
X151625Y156953D01*
X151639Y156954D01*
X151655Y156956D01*
X151670Y156957D01*
X151677Y156958D01*
X151685Y156959D01*
X151701Y156960D01*
X151718Y156962D01*
X151734Y156965D01*
X151742Y156965D01*
X151742Y156966D01*
Y156966D01*
X151751Y156967D01*
X151768Y156969D01*
X151785Y156972D01*
X151803Y156975D01*
X151812Y156976D01*
X151821Y156978D01*
X151839Y156981D01*
X151858Y156984D01*
X151876Y156988D01*
X151886Y156990D01*
X151897Y156992D01*
X151919Y156997D01*
X151941Y157002D01*
X151963Y157007D01*
X151974Y157009D01*
X151989Y157013D01*
X152018Y157021D01*
X152048Y157029D01*
X152077Y157037D01*
X152091Y157042D01*
X152151Y157061D01*
X152268Y157104D01*
X152382Y157154D01*
X152493Y157210D01*
X152548Y157241D01*
X152557Y157246D01*
X152575Y157257D01*
X152593Y157268D01*
X152611Y157279D01*
X152620Y157285D01*
X152627Y157290D01*
X152642Y157299D01*
X152656Y157308D01*
X152671Y157318D01*
X152678Y157323D01*
X152684Y157327D01*
X152696Y157335D01*
X152708Y157344D01*
X152720Y157352D01*
X152726Y157357D01*
X152732Y157361D01*
X152743Y157369D01*
X152754Y157377D01*
X152764Y157385D01*
X152770Y157389D01*
X152775Y157393D01*
X152785Y157400D01*
Y157400D01*
X152794Y157407D01*
Y157407D01*
X152804Y157415D01*
Y157415D01*
X152808Y157418D01*
Y157418D01*
X152812Y157422D01*
Y157422D01*
X152822Y157429D01*
Y157429D01*
X152830Y157436D01*
X152838Y157442D01*
X152842Y157446D01*
X152846Y157449D01*
X152856Y157457D01*
X152864Y157464D01*
X152873Y157471D01*
X152881Y157478D01*
X152890Y157486D01*
X152898Y157493D01*
X152905Y157499D01*
X152910Y157504D01*
X152910Y157504D01*
X152940Y157530D01*
X152969Y157557D01*
X152997Y157585D01*
X153022Y157609D01*
X153046Y157633D01*
X153070Y157659D01*
X153093Y157684D01*
X153117Y157710D01*
X153140Y157737D01*
X153159Y157759D01*
X153179Y157782D01*
X153198Y157805D01*
X153216Y157828D01*
X152800Y157900D01*
X152706Y157918D01*
X152706Y157918D01*
X152613Y157937D01*
X152521Y157956D01*
X152429Y157976D01*
X152338Y157996D01*
X152248Y158017D01*
X152158Y158039D01*
X152069Y158061D01*
X151981Y158083D01*
X151894Y158107D01*
X151808Y158130D01*
X151722Y158154D01*
X151637Y158179D01*
X151553Y158205D01*
X151470Y158230D01*
X151387Y158257D01*
X151305Y158284D01*
X151224Y158311D01*
X151143Y158339D01*
X151064Y158367D01*
X150985Y158396D01*
X150906Y158425D01*
X150829Y158455D01*
X150752Y158486D01*
X150676Y158517D01*
X150601Y158548D01*
X150526Y158580D01*
X150452Y158612D01*
X150379Y158644D01*
X150307Y158677D01*
X150235Y158711D01*
X150164Y158745D01*
X150094Y158780D01*
X150024Y158814D01*
X149955Y158850D01*
X149887Y158886D01*
X149820Y158922D01*
X149753Y158958D01*
X149688Y158995D01*
X149622Y159033D01*
X149558Y159071D01*
X149473Y159122D01*
X149389Y159173D01*
X149307Y159226D01*
X149226Y159279D01*
X149146Y159332D01*
X149068Y159387D01*
X148990Y159442D01*
X148914Y159497D01*
X148839Y159554D01*
X148766Y159611D01*
X148693Y159668D01*
X148622Y159726D01*
X148552Y159785D01*
X148484Y159844D01*
X148416Y159904D01*
X148334Y159979D01*
X148253Y160056D01*
X148174Y160133D01*
X148097Y160211D01*
X148022Y160289D01*
X147949Y160369D01*
X147878Y160449D01*
X147867Y160461D01*
X147846Y160485D01*
X147826Y160509D01*
X147805Y160534D01*
X147785Y160558D01*
X147765Y160582D01*
X147744Y160607D01*
X147724Y160632D01*
X147714Y160644D01*
X147705Y160656D01*
X147685Y160681D01*
X147666Y160706D01*
X147646Y160731D01*
X147627Y160755D01*
X147608Y160780D01*
X147590Y160805D01*
X147574Y160826D01*
X147309Y161216D01*
D01*
X147081Y161621D01*
X147066Y161649D01*
X147056Y161669D01*
X147056Y161669D01*
X147045Y161691D01*
X147024Y161735D01*
X147003Y161780D01*
X146982Y161824D01*
X146961Y161871D01*
X146939Y161920D01*
X146918Y161969D01*
X146897Y162019D01*
X146875Y162072D01*
X146852Y162130D01*
X146830Y162189D01*
X146809Y162248D01*
X146786Y162311D01*
X146763Y162379D01*
X146741Y162447D01*
X146720Y162515D01*
X146699Y162588D01*
X146677Y162666D01*
X146657Y162743D01*
X146638Y162821D01*
X146619Y162906D01*
X146599Y162997D01*
X146582Y163089D01*
X146566Y163181D01*
X146559Y163227D01*
X146551Y163282D01*
X146536Y163392D01*
X146524Y163502D01*
X146514Y163612D01*
X146506Y163729D01*
X146501Y163852D01*
X146499Y163975D01*
X146500Y164099D01*
X146502Y164160D01*
X146503Y164224D01*
X146511Y164350D01*
X146521Y164477D01*
X146534Y164603D01*
X146551Y164726D01*
X146569Y164846D01*
X146591Y164965D01*
X146616Y165084D01*
X146629Y165143D01*
X146643Y165202D01*
X146673Y165319D01*
X146707Y165435D01*
X146742Y165550D01*
X146781Y165665D01*
X146823Y165778D01*
X146867Y165890D01*
X146914Y166001D01*
X146939Y166056D01*
X146968Y166120D01*
X147029Y166244D01*
X147093Y166367D01*
X147161Y166488D01*
X147197Y166547D01*
X147197D01*
X147318Y166751D01*
X147601Y167131D01*
X147921Y167482D01*
X148273Y167799D01*
X148464Y167940D01*
X148491Y167959D01*
X148544Y167998D01*
X148598Y168035D01*
X148653Y168072D01*
X148702Y168105D01*
X148746Y168133D01*
X148790Y168161D01*
X148835Y168188D01*
X148876Y168212D01*
X148913Y168234D01*
X148951Y168256D01*
X148988Y168277D01*
X149007Y168287D01*
X149024Y168297D01*
X149058Y168315D01*
X149092Y168333D01*
X149127Y168351D01*
X149144Y168360D01*
X149161Y168369D01*
X149196Y168386D01*
X149231Y168404D01*
X149266Y168421D01*
X149299Y168436D01*
X149331Y168451D01*
X149362Y168465D01*
X149393Y168479D01*
X149425Y168493D01*
X149457Y168507D01*
X149489Y168521D01*
X149521Y168534D01*
X149551Y168546D01*
X149578Y168558D01*
X149606Y168569D01*
X149634Y168579D01*
X149648Y168585D01*
X149662Y168590D01*
X149690Y168601D01*
X149719Y168612D01*
X149747Y168622D01*
X149773Y168631D01*
X149797Y168640D01*
X149821Y168648D01*
X149845Y168656D01*
X149869Y168664D01*
X149893Y168672D01*
X149918Y168680D01*
X149942Y168688D01*
X149967Y168696D01*
X149991Y168703D01*
X150016Y168711D01*
X150040Y168718D01*
X150065Y168726D01*
X150090Y168733D01*
X150115Y168740D01*
X150140Y168747D01*
X150165Y168754D01*
X150190Y168761D01*
X150215Y168767D01*
X150240Y168774D01*
X150253Y168777D01*
X150253Y168777D01*
X150266Y168780D01*
X150291Y168787D01*
X150317Y168793D01*
X150342Y168799D01*
X150355Y168802D01*
Y168802D01*
X150437Y168821D01*
X150521Y168839D01*
X150604Y168855D01*
X150689Y168871D01*
X150775Y168885D01*
X150861Y168898D01*
X150948Y168910D01*
X151036Y168921D01*
X151125Y168931D01*
X151214Y168940D01*
X151304Y168947D01*
X151395Y168953D01*
X151464Y168957D01*
X151533Y168960D01*
X151602Y168962D01*
X151672Y168964D01*
X151743Y168965D01*
X151813Y168965D01*
X151884Y168965D01*
D02*
G37*
G36*
X119455Y178467D02*
X119056Y177970D01*
X118054Y176619D01*
X116914Y174909D01*
X115753Y172724D01*
X114391Y169579D01*
X113747Y167352D01*
X113304Y165294D01*
X112987Y163299D01*
X112886Y161462D01*
X112844Y160979D01*
X52928D01*
X52864Y161475D01*
X119183Y178886D01*
X119455Y178467D01*
D02*
G37*
G36*
X162145Y169110D02*
X162165Y169108D01*
X162184Y169105D01*
X162203Y169102D01*
X162222Y169099D01*
X162241Y169096D01*
X162260Y169092D01*
X162279Y169089D01*
X162297Y169086D01*
X162316Y169082D01*
X162335Y169079D01*
X162353Y169075D01*
X162371Y169071D01*
X162389Y169067D01*
X162407Y169063D01*
X162425Y169059D01*
X162443Y169055D01*
X162460Y169051D01*
X162478Y169047D01*
X162495Y169043D01*
X162513Y169038D01*
X162530Y169034D01*
X162547Y169029D01*
X162564Y169024D01*
X162581Y169020D01*
X162598Y169015D01*
X162614Y169010D01*
X162631Y169005D01*
X162647Y169000D01*
X162663Y168995D01*
X162680Y168989D01*
X162696Y168984D01*
X162712Y168979D01*
X162728Y168973D01*
X162751Y168965D01*
X162775Y168956D01*
X162798Y168948D01*
X162821Y168939D01*
X162844Y168930D01*
X162866Y168920D01*
X162889Y168911D01*
X162911Y168901D01*
X162932Y168892D01*
X162954Y168881D01*
X162975Y168871D01*
X162996Y168861D01*
X163017Y168851D01*
X163038Y168840D01*
X163059Y168829D01*
X163085Y168815D01*
X163369Y168610D01*
X163547Y168445D01*
X163706Y168253D01*
X163804Y168102D01*
X163967Y167802D01*
X163969Y167797D01*
X163977Y167777D01*
X163985Y167757D01*
X163993Y167736D01*
X164000Y167716D01*
X164008Y167696D01*
X164015Y167675D01*
X164022Y167655D01*
X164029Y167634D01*
X164036Y167613D01*
X164043Y167592D01*
X164049Y167571D01*
X164054Y167557D01*
X164058Y167543D01*
X164062Y167529D01*
X164066Y167515D01*
X164070Y167500D01*
X164075Y167486D01*
X164078Y167472D01*
X164082Y167457D01*
X164086Y167443D01*
X164090Y167428D01*
X164094Y167414D01*
X164097Y167399D01*
X164101Y167385D01*
X164104Y167370D01*
X164108Y167355D01*
X164111Y167341D01*
X164115Y167326D01*
X164118Y167311D01*
X164121Y167296D01*
X164125Y167281D01*
X164128Y167267D01*
X164131Y167252D01*
X164134Y167237D01*
X164137Y167222D01*
X164140Y167207D01*
X164143Y167192D01*
X164146Y167176D01*
X164148Y167161D01*
X164151Y167146D01*
X164154Y167131D01*
X164156Y167115D01*
X164159Y167100D01*
X164161Y167085D01*
X164164Y167069D01*
X164166Y167054D01*
X164169Y167039D01*
X164171Y167023D01*
X164173Y167008D01*
X164175Y166992D01*
X164178Y166976D01*
X164180Y166961D01*
X164182Y166945D01*
X164184Y166929D01*
X164186Y166914D01*
X164188Y166898D01*
X164190Y166882D01*
X164191Y166866D01*
X164193Y166850D01*
X164195Y166834D01*
X164197Y166819D01*
X164198Y166803D01*
X164200Y166787D01*
X164201Y166771D01*
X164203Y166755D01*
X164204Y166738D01*
X164206Y166722D01*
X164207Y166706D01*
X164208Y166690D01*
X164210Y166674D01*
X164211Y166658D01*
X164212Y166641D01*
X164213Y166625D01*
X164214Y166609D01*
X164215Y166593D01*
X164216Y166576D01*
X164217Y166560D01*
X164218Y166543D01*
X164219Y166527D01*
X164220Y166510D01*
X164221Y166494D01*
X164222Y166477D01*
X164222Y166461D01*
X164223Y166444D01*
X164224Y166428D01*
X164224Y166411D01*
X164225Y166394D01*
X164225Y166378D01*
X164226Y166361D01*
X164226Y166344D01*
X164227Y166328D01*
X164227Y166311D01*
X164228Y166294D01*
X164228Y166277D01*
X164228Y166260D01*
X164228Y166244D01*
X164229Y166227D01*
X164229Y166210D01*
X164229Y166193D01*
X164229Y166176D01*
X164229Y166159D01*
X164229Y166142D01*
X164229Y166125D01*
X164229Y166108D01*
X164229Y166091D01*
X164229Y166074D01*
X164229Y166057D01*
X164229Y166040D01*
X164229Y166022D01*
X164228Y166005D01*
X164228Y165988D01*
X164228Y165971D01*
X164228Y165954D01*
X164227Y165937D01*
X164227Y165919D01*
X164227Y165902D01*
X164226Y165885D01*
X164226Y165867D01*
X164225Y165850D01*
X164225Y165833D01*
X164224Y165815D01*
X164224Y165798D01*
X164223Y165781D01*
X164223Y165763D01*
X164222Y165746D01*
X164221Y165729D01*
X164220Y165711D01*
X164220Y165694D01*
X164219Y165676D01*
X164218Y165659D01*
X164217Y165641D01*
X164217Y165624D01*
X164216Y165606D01*
X164215Y165589D01*
X164214Y165571D01*
X164213Y165554D01*
X164212Y165536D01*
X164211Y165519D01*
X164210Y165501D01*
X164209Y165483D01*
X164208Y165466D01*
X164207Y165448D01*
X164206Y165431D01*
X164204Y165395D01*
X164202Y165360D01*
X164201Y165342D01*
X164200Y165325D01*
X164197Y165289D01*
X164195Y165254D01*
X164192Y165219D01*
X164190Y165183D01*
X164188Y165157D01*
X164185Y165121D01*
X164183Y165094D01*
X164181Y165068D01*
X164179Y165050D01*
X164176Y165015D01*
X164174Y164988D01*
X164172Y164961D01*
X164169Y164926D01*
X164167Y164899D01*
X164162Y164845D01*
X164160Y164819D01*
X164157Y164792D01*
X164157Y164783D01*
X164156Y164774D01*
X164153Y164739D01*
X164150Y164712D01*
X164148Y164685D01*
X164145Y164658D01*
X164143Y164632D01*
X164140Y164605D01*
X164136Y164560D01*
X164133Y164525D01*
X164132Y164516D01*
X164130Y164498D01*
X164128Y164480D01*
X164128Y164472D01*
X164121Y164400D01*
X164115Y164338D01*
X164103Y164214D01*
X164102Y164206D01*
X164100Y164179D01*
X164099Y164170D01*
X164094Y164126D01*
X164094Y164117D01*
X164092Y164100D01*
X164091Y164091D01*
X164090Y164082D01*
X164084Y164020D01*
X164084Y164012D01*
X164083Y164003D01*
X164076Y163933D01*
X164071Y163880D01*
X164068Y163845D01*
X164065Y163810D01*
X164064Y163802D01*
X164063Y163793D01*
X164061Y163767D01*
X164058Y163732D01*
X164054Y163689D01*
X164051Y163663D01*
X164049Y163637D01*
X164046Y163602D01*
X164045Y163585D01*
X164043Y163559D01*
X164040Y163524D01*
X164038Y163499D01*
X164035Y163465D01*
X164033Y163439D01*
X164031Y163413D01*
X164030Y163396D01*
X164028Y163371D01*
X164026Y163354D01*
X164025Y163337D01*
X164023Y163311D01*
X164022Y163294D01*
X164021Y163278D01*
X164020Y163261D01*
X164019Y163244D01*
X164017Y163219D01*
X164017Y163210D01*
X164015Y163194D01*
X164014Y163168D01*
X164013Y163160D01*
X164012Y163143D01*
X164011Y163127D01*
X164010Y163110D01*
X164009Y163093D01*
X164008Y163077D01*
X164007Y163060D01*
X164007Y163043D01*
X164006Y163027D01*
X164005Y163011D01*
X164004Y162994D01*
X164003Y162978D01*
X164003Y162961D01*
X164002Y162945D01*
X164001Y162928D01*
X164000Y162912D01*
X164000Y162896D01*
X163999Y162879D01*
X163998Y162863D01*
X163998Y162847D01*
X163997Y162831D01*
X163997Y162814D01*
X163996Y162798D01*
X163996Y162782D01*
X163995Y162766D01*
X163995Y162750D01*
X163994Y162734D01*
X163994Y162718D01*
X163994Y162702D01*
X163993Y162686D01*
X163993Y162670D01*
X163993Y162654D01*
X163993Y162638D01*
X163992Y162623D01*
X163992Y162607D01*
X163992Y162591D01*
X163992Y162575D01*
X163992Y162560D01*
X163992Y162544D01*
Y162530D01*
X163992Y162513D01*
X163992Y162497D01*
X163992Y162482D01*
X163992Y162466D01*
X163992Y162451D01*
X163993Y162435D01*
X163993Y162420D01*
X163993Y162405D01*
X163993Y162390D01*
X163994Y162374D01*
X163994Y162359D01*
X163995Y162344D01*
X163995Y162329D01*
X163996Y162313D01*
X163996Y162298D01*
X163997Y162283D01*
X163997Y162268D01*
X163998Y162253D01*
X163998Y162239D01*
X163999Y162224D01*
X164000Y162209D01*
X164001Y162194D01*
X164002Y162179D01*
X164003Y162164D01*
X164003Y162150D01*
X164004Y162135D01*
X164005Y162120D01*
X164006Y162113D01*
X164004Y162092D01*
X164003Y162078D01*
X164002Y162064D01*
X164000Y162050D01*
X163998Y162022D01*
X163997Y162008D01*
X163996Y161994D01*
X163995Y161980D01*
X163994Y161966D01*
X163992Y161938D01*
X163991Y161924D01*
X163990Y161910D01*
X163989Y161896D01*
X163988Y161882D01*
X163987Y161868D01*
X163986Y161854D01*
X163985Y161840D01*
X163983Y161812D01*
X163982Y161798D01*
X163981Y161784D01*
X163980Y161756D01*
X163978Y161727D01*
X163976Y161699D01*
X163975Y161671D01*
X163973Y161643D01*
X163973Y161629D01*
X163971Y161601D01*
X163970Y161587D01*
X163970Y161573D01*
X163968Y161545D01*
X163967Y161517D01*
X163966Y161489D01*
X163965Y161468D01*
X163964Y161447D01*
X163964Y161440D01*
X163963Y161433D01*
X163962Y161412D01*
X163962Y161391D01*
X163961Y161384D01*
X163961Y161370D01*
X163960Y161342D01*
X163958Y161300D01*
X163957Y161279D01*
X163957Y161272D01*
X163957Y161258D01*
X163955Y161216D01*
X163955Y161202D01*
X163953Y161160D01*
X163953Y161146D01*
X163953Y161139D01*
X163952Y161125D01*
X163952Y161118D01*
X163952Y161104D01*
X163951Y161083D01*
X163950Y161035D01*
X163949Y161028D01*
X163949Y161021D01*
X163948Y160993D01*
X163948Y160979D01*
X163948Y160972D01*
X163947Y160951D01*
X163947Y160945D01*
X163947Y160931D01*
X163945Y160882D01*
X163944Y160855D01*
X163944Y160848D01*
X163942Y160772D01*
X163942Y160765D01*
X163941Y160724D01*
X163941Y160717D01*
X163940Y160703D01*
X163939Y160662D01*
X163939Y160655D01*
X163939Y160648D01*
X163938Y160635D01*
X163938Y160628D01*
X163937Y160587D01*
X163936Y160546D01*
X163934Y160492D01*
X163934Y160478D01*
X163932Y160437D01*
X163931Y160404D01*
X163930Y160377D01*
X163929Y160336D01*
X163927Y160296D01*
X163926Y160256D01*
X163925Y160229D01*
X163924Y160209D01*
X163923Y160189D01*
X163922Y160162D01*
X163921Y160136D01*
X163919Y160103D01*
X163918Y160083D01*
X163917Y160070D01*
X163916Y160050D01*
X163915Y160030D01*
X163914Y160004D01*
X163913Y159991D01*
X163912Y159978D01*
X163912Y159965D01*
X163911Y159951D01*
X163910Y159938D01*
X163909Y159925D01*
X163909Y159912D01*
X163908Y159899D01*
X163906Y159873D01*
X163905Y159860D01*
X163904Y159835D01*
X163902Y159809D01*
X163901Y159796D01*
X163900Y159783D01*
X163899Y159770D01*
X163898Y159757D01*
X163897Y159745D01*
X163895Y159719D01*
X163894Y159706D01*
X163893Y159693D01*
X163892Y159681D01*
X163890Y159655D01*
X163889Y159643D01*
X163888Y159630D01*
X163887Y159617D01*
X163886Y159605D01*
X163884Y159592D01*
X163883Y159579D01*
X163882Y159567D01*
X163881Y159554D01*
X163880Y159542D01*
X163878Y159529D01*
X163877Y159517D01*
X163876Y159504D01*
X163874Y159492D01*
X163873Y159479D01*
X163872Y159467D01*
X163870Y159455D01*
X163869Y159442D01*
X163868Y159430D01*
X163866Y159417D01*
X163865Y159405D01*
X163863Y159393D01*
X163862Y159380D01*
X163860Y159368D01*
X163859Y159356D01*
X163857Y159344D01*
X163856Y159332D01*
X163854Y159319D01*
X163852Y159307D01*
X163851Y159295D01*
X163849Y159283D01*
X163847Y159271D01*
X163846Y159259D01*
X163844Y159247D01*
X163842Y159235D01*
X163840Y159223D01*
X163839Y159211D01*
X163837Y159199D01*
X163835Y159187D01*
X163833Y159175D01*
X163831Y159163D01*
X163829Y159151D01*
X163828Y159139D01*
X163826Y159127D01*
X163823Y159116D01*
X163821Y159104D01*
X163820Y159092D01*
X163817Y159080D01*
X163815Y159068D01*
X163813Y159057D01*
X163811Y159045D01*
X163809Y159033D01*
X163807Y159022D01*
X163804Y159010D01*
X163802Y158999D01*
X163800Y158987D01*
X163798Y158975D01*
X163795Y158964D01*
X163793Y158952D01*
X163791Y158941D01*
X163788Y158930D01*
X163786Y158918D01*
X163783Y158907D01*
X163781Y158895D01*
X163778Y158884D01*
X163776Y158873D01*
X163773Y158861D01*
X163771Y158850D01*
X163768Y158839D01*
X163765Y158828D01*
X163763Y158817D01*
X163760Y158805D01*
X163757Y158794D01*
X163754Y158783D01*
X163751Y158772D01*
X163749Y158761D01*
X163746Y158750D01*
X163743Y158739D01*
X163740Y158728D01*
X163737Y158717D01*
X163734Y158706D01*
X163731Y158695D01*
X163728Y158684D01*
X163725Y158673D01*
X163722Y158663D01*
X163718Y158652D01*
X163715Y158641D01*
X163712Y158630D01*
X163707Y158614D01*
X163702Y158598D01*
X163697Y158582D01*
X163692Y158566D01*
X163687Y158551D01*
X163681Y158535D01*
X163676Y158519D01*
X163671Y158503D01*
X163665Y158488D01*
X163659Y158473D01*
X163654Y158457D01*
X163648Y158442D01*
X163642Y158426D01*
X163636Y158411D01*
X163630Y158396D01*
X163624Y158381D01*
X163618Y158366D01*
X163611Y158351D01*
X163605Y158336D01*
X163599Y158321D01*
X163592Y158307D01*
X163585Y158292D01*
X163579Y158277D01*
X163572Y158263D01*
X163565Y158248D01*
X163558Y158234D01*
X163551Y158220D01*
X163544Y158205D01*
X163536Y158191D01*
X163529Y158177D01*
X163522Y158163D01*
X163514Y158149D01*
X163504Y158131D01*
X163493Y158112D01*
X163483Y158094D01*
X163472Y158076D01*
X163461Y158058D01*
X163450Y158040D01*
X163439Y158023D01*
X163427Y158005D01*
X163413Y157984D01*
X163398Y157962D01*
X163383Y157941D01*
X163367Y157920D01*
X163348Y157895D01*
X163329Y157870D01*
X163326Y157867D01*
X163320Y157859D01*
X163314Y157852D01*
X163309Y157845D01*
X163302Y157837D01*
X163103Y157658D01*
X162914Y157495D01*
X162499Y157291D01*
X162497Y157290D01*
X162479Y157284D01*
X162461Y157277D01*
X162443Y157271D01*
X162425Y157265D01*
X162406Y157259D01*
X162388Y157253D01*
X162369Y157248D01*
X162350Y157242D01*
X162331Y157237D01*
X162312Y157231D01*
X162293Y157226D01*
X162273Y157221D01*
X162253Y157215D01*
X162233Y157211D01*
X162214Y157206D01*
X162200Y157202D01*
X162187Y157199D01*
X162173Y157196D01*
X162160Y157193D01*
X162146Y157190D01*
X162132Y157187D01*
X162118Y157185D01*
X162104Y157182D01*
X162090Y157179D01*
X162076Y157176D01*
X162062Y157174D01*
X162048Y157171D01*
X162034Y157168D01*
X162019Y157166D01*
X162005Y157163D01*
X161990Y157161D01*
X161976Y157159D01*
X161961Y157156D01*
X161946Y157154D01*
X161932Y157152D01*
X161917Y157150D01*
X161902Y157148D01*
X161887Y157146D01*
X161872Y157143D01*
X161857Y157141D01*
X161841Y157140D01*
X161826Y157138D01*
X161811Y157136D01*
X161795Y157134D01*
X161780Y157133D01*
X161764Y157131D01*
X161748Y157129D01*
X161732Y157128D01*
X161717Y157126D01*
X161701Y157125D01*
X161685Y157124D01*
X161669Y157122D01*
X161185Y157147D01*
X161185D01*
X160748Y157297D01*
X160743Y157299D01*
X160612Y157368D01*
X160496Y157440D01*
X160348Y157550D01*
X160094Y157782D01*
X160079Y157800D01*
X160063Y157819D01*
X160048Y157838D01*
X160033Y157856D01*
X160018Y157875D01*
X160004Y157895D01*
X159989Y157914D01*
X159975Y157933D01*
X159961Y157953D01*
X159947Y157973D01*
X159933Y157993D01*
X159919Y158013D01*
X159906Y158033D01*
X159893Y158054D01*
X159880Y158074D01*
X159867Y158095D01*
X159854Y158116D01*
X159841Y158137D01*
X159827Y158161D01*
X159813Y158186D01*
X159799Y158211D01*
X159785Y158237D01*
X159772Y158262D01*
X159759Y158287D01*
X159746Y158313D01*
X159733Y158339D01*
X159721Y158365D01*
X159708Y158391D01*
X159696Y158418D01*
X159683Y158448D01*
X159670Y158478D01*
X159657Y158509D01*
X159644Y158540D01*
X159632Y158571D01*
X159619Y158606D01*
X159606Y158641D01*
X159594Y158676D01*
X159580Y158715D01*
X159567Y158755D01*
X159554Y158799D01*
X159539Y158847D01*
X159525Y158899D01*
X159510Y158956D01*
X159508Y158964D01*
X159503Y158980D01*
X159500Y158996D01*
X159496Y159013D01*
X159491Y159031D01*
X159487Y159051D01*
X159482Y159072D01*
X159478Y159092D01*
X159476Y159102D01*
X159473Y159117D01*
X159466Y159148D01*
X159460Y159179D01*
X159455Y159210D01*
X159444Y159270D01*
X159431Y159360D01*
X159420Y159450D01*
X159411Y159540D01*
X159408Y159586D01*
X159407Y159595D01*
X159406Y159615D01*
X159405Y159634D01*
X159404Y159653D01*
X159403Y159663D01*
X159403Y159663D01*
X159400Y159724D01*
X159399Y159776D01*
X159399Y159821D01*
X159399Y159826D01*
X159398Y159836D01*
X159399Y159846D01*
X159399Y159856D01*
X159399Y159861D01*
X159399Y159861D01*
X159399Y159901D01*
X159400Y159937D01*
X159401Y159968D01*
X159402Y160000D01*
X159418Y160117D01*
X159430Y160218D01*
X159440Y160305D01*
X159449Y160391D01*
X159458Y160477D01*
X159467Y160563D01*
X159473Y160634D01*
X159479Y160706D01*
X159485Y160776D01*
X159490Y160847D01*
X159495Y160918D01*
X159500Y160988D01*
X159504Y161058D01*
X159507Y161114D01*
X159510Y161170D01*
X159513Y161225D01*
X159515Y161281D01*
X159517Y161336D01*
X159520Y161392D01*
X159521Y161447D01*
X159523Y161502D01*
X159525Y161557D01*
X159526Y161611D01*
X159527Y161666D01*
X159528Y161707D01*
X159529Y161748D01*
X159529Y161788D01*
X159530Y161829D01*
X159530Y161869D01*
X159531Y161910D01*
X159531Y161950D01*
X159531Y161990D01*
X159531Y162030D01*
X159531Y162071D01*
X159531Y162111D01*
X159531Y162151D01*
X159530Y162190D01*
X159530Y162230D01*
X159530Y162270D01*
X159529Y162310D01*
X159529Y162349D01*
X159528Y162388D01*
X159527Y162415D01*
X159527Y162441D01*
X159526Y162467D01*
X159526Y162493D01*
X159525Y162519D01*
X159525Y162545D01*
X159524Y162571D01*
X159523Y162597D01*
X159522Y162623D01*
X159522Y162649D01*
X159521Y162675D01*
X159520Y162701D01*
X159519Y162727D01*
X159519Y162752D01*
X159518Y162778D01*
X159517Y162804D01*
X159516Y162829D01*
X159515Y162855D01*
X159514Y162881D01*
X159513Y162906D01*
X159512Y162932D01*
X159511Y162957D01*
X159510Y162983D01*
X159509Y163008D01*
X159508Y163033D01*
X159507Y163059D01*
X159505Y163084D01*
X159504Y163109D01*
X159503Y163134D01*
X159502Y163159D01*
X159501Y163184D01*
X159500Y163209D01*
X159498Y163234D01*
X159496Y163272D01*
X159494Y163309D01*
X159493Y163334D01*
X159491Y163384D01*
X159489Y163409D01*
X159487Y163445D01*
X159486Y163470D01*
X159483Y163519D01*
X159482Y163544D01*
X159479Y163580D01*
X159477Y163617D01*
X159475Y163654D01*
X159473Y163690D01*
X159471Y163714D01*
X159469Y163750D01*
X159467Y163787D01*
X159463Y163847D01*
X159461Y163883D01*
X159457Y163942D01*
X159457Y163954D01*
X159454Y163990D01*
X159452Y164025D01*
X159447Y164096D01*
X159447Y164108D01*
X159445Y164131D01*
X159444Y164143D01*
X159443Y164166D01*
X159442Y164178D01*
X159434Y164294D01*
X159434Y164306D01*
X159429Y164375D01*
X159428Y164398D01*
X159426Y164421D01*
X159424Y164455D01*
X159419Y164535D01*
X159417Y164569D01*
X159415Y164592D01*
X159415Y164603D01*
X159414Y164614D01*
X159413Y164637D01*
X159408Y164704D01*
X159408Y164715D01*
X159407Y164726D01*
X159406Y164749D01*
X159404Y164782D01*
X159402Y164815D01*
X159400Y164848D01*
X159399Y164871D01*
X159397Y164903D01*
X159396Y164925D01*
X159394Y164947D01*
X159392Y164991D01*
X159390Y165024D01*
X159389Y165045D01*
X159388Y165067D01*
X159386Y165099D01*
X159384Y165142D01*
X159383Y165174D01*
X159382Y165185D01*
X159381Y165217D01*
X159380Y165238D01*
X159379Y165260D01*
X159378Y165281D01*
X159377Y165302D01*
X159376Y165333D01*
X159375Y165365D01*
X159375Y165375D01*
X159374Y165396D01*
X159373Y165417D01*
X159372Y165438D01*
X159372Y165448D01*
X159372Y165459D01*
X159371Y165490D01*
X159370Y165510D01*
X159370Y165541D01*
X159369Y165562D01*
X159369Y165582D01*
X159368Y165603D01*
X159368Y165623D01*
X159367Y165643D01*
X159367Y165664D01*
X159367Y165694D01*
X159366Y165714D01*
X159366Y165734D01*
X159366Y165754D01*
X159366Y165774D01*
X159366Y165794D01*
X159365Y165814D01*
X159365Y165834D01*
Y165841D01*
X159365Y165846D01*
X159365Y165874D01*
X159366Y165893D01*
X159366Y165913D01*
X159366Y165933D01*
X159366Y165952D01*
X159366Y165972D01*
X159367Y165991D01*
X159367Y166011D01*
X159367Y166030D01*
X159368Y166049D01*
X159368Y166069D01*
X159369Y166088D01*
X159369Y166107D01*
X159370Y166126D01*
X159370Y166145D01*
X159371Y166164D01*
X159371Y166183D01*
X159372Y166202D01*
X159373Y166221D01*
X159374Y166240D01*
X159375Y166259D01*
X159376Y166277D01*
X159377Y166296D01*
X159378Y166314D01*
X159379Y166333D01*
X159380Y166351D01*
X159381Y166370D01*
X159382Y166388D01*
X159383Y166407D01*
X159385Y166425D01*
X159386Y166443D01*
X159388Y166462D01*
X159389Y166480D01*
X159391Y166498D01*
X159392Y166516D01*
X159394Y166534D01*
X159396Y166552D01*
X159397Y166570D01*
X159399Y166587D01*
X159401Y166605D01*
X159403Y166623D01*
X159405Y166641D01*
X159407Y166658D01*
X159409Y166676D01*
X159411Y166693D01*
X159413Y166711D01*
X159416Y166728D01*
X159418Y166746D01*
X159420Y166763D01*
X159423Y166780D01*
X159425Y166797D01*
X159428Y166814D01*
X159431Y166832D01*
X159433Y166849D01*
X159436Y166866D01*
X159439Y166883D01*
X159442Y166899D01*
X159445Y166916D01*
X159448Y166933D01*
X159451Y166950D01*
X159454Y166966D01*
X159457Y166983D01*
X159460Y166999D01*
X159464Y167016D01*
X159467Y167032D01*
X159471Y167049D01*
X159474Y167065D01*
X159478Y167081D01*
X159482Y167098D01*
X159485Y167114D01*
X159489Y167130D01*
X159493Y167146D01*
X159497Y167162D01*
X159501Y167178D01*
X159505Y167194D01*
X159509Y167210D01*
X159513Y167226D01*
X159518Y167241D01*
X159522Y167257D01*
X159527Y167272D01*
X159531Y167288D01*
X159536Y167304D01*
X159540Y167319D01*
X159545Y167334D01*
X159550Y167350D01*
X159555Y167365D01*
X159560Y167380D01*
X159565Y167395D01*
X159570Y167411D01*
X159576Y167426D01*
X159581Y167440D01*
X159589Y167463D01*
X159597Y167485D01*
X159606Y167507D01*
X159615Y167529D01*
X159623Y167551D01*
X159633Y167573D01*
X159642Y167595D01*
X159651Y167616D01*
X159661Y167637D01*
X159671Y167659D01*
X159681Y167680D01*
X159691Y167701D01*
X159701Y167721D01*
X159715Y167749D01*
X159730Y167777D01*
X159745Y167804D01*
X159760Y167830D01*
X159763Y167835D01*
X159767Y167843D01*
X159772Y167851D01*
X159777Y167860D01*
X159782Y167868D01*
X159787Y167876D01*
X159792Y167884D01*
X159797Y167893D01*
X159803Y167902D01*
X159809Y167911D01*
X159816Y167921D01*
X159822Y167931D01*
X159829Y167942D01*
X159838Y167955D01*
X159847Y167968D01*
X159855Y167980D01*
X159867Y167997D01*
X159882Y168017D01*
X159897Y168038D01*
X159912Y168058D01*
X159936Y168089D01*
X159969Y168130D01*
X160004Y168170D01*
X160039Y168209D01*
X160063Y168234D01*
X160074Y168245D01*
X160085Y168256D01*
X160097Y168268D01*
X160102Y168273D01*
X160106Y168278D01*
X160115Y168286D01*
X160124Y168294D01*
X160132Y168303D01*
X160140Y168310D01*
X160148Y168317D01*
X160155Y168324D01*
X160163Y168331D01*
X160166Y168334D01*
X160170Y168337D01*
X160178Y168344D01*
X160185Y168351D01*
X160193Y168358D01*
X160197Y168361D01*
Y168361D01*
X160221Y168382D01*
X160247Y168403D01*
X160272Y168424D01*
X160298Y168445D01*
X160318Y168460D01*
X160338Y168475D01*
X160359Y168490D01*
X160379Y168505D01*
X160400Y168519D01*
X160422Y168534D01*
X160443Y168548D01*
X160465Y168563D01*
X160487Y168577D01*
X160509Y168591D01*
X160532Y168605D01*
X160555Y168618D01*
X160570Y168627D01*
X160586Y168636D01*
X160601Y168645D01*
X160617Y168654D01*
X160633Y168663D01*
X160649Y168671D01*
X160665Y168680D01*
X160681Y168689D01*
X160698Y168697D01*
X160714Y168705D01*
X160731Y168714D01*
X160748Y168722D01*
X160765Y168730D01*
X160782Y168739D01*
X160799Y168747D01*
X160817Y168755D01*
X160834Y168763D01*
X160852Y168771D01*
X160869Y168779D01*
X160887Y168786D01*
X160905Y168794D01*
X160923Y168802D01*
X160942Y168809D01*
X160960Y168817D01*
X160979Y168824D01*
X160997Y168832D01*
X161016Y168839D01*
X161035Y168846D01*
X161054Y168853D01*
X161073Y168860D01*
X161093Y168868D01*
X161112Y168875D01*
X161132Y168881D01*
X161152Y168888D01*
X161172Y168895D01*
X161192Y168902D01*
X161212Y168909D01*
X161232Y168915D01*
X161253Y168922D01*
X161274Y168928D01*
X161294Y168934D01*
X161315Y168941D01*
X161336Y168947D01*
X161357Y168953D01*
X161379Y168959D01*
X161400Y168965D01*
X161422Y168971D01*
X161444Y168977D01*
X161466Y168983D01*
X161488Y168989D01*
X161510Y168994D01*
X161532Y169000D01*
X161555Y169006D01*
X161578Y169011D01*
X161601Y169017D01*
X161624Y169022D01*
X161647Y169027D01*
X161670Y169033D01*
X161694Y169038D01*
X161717Y169043D01*
X161741Y169048D01*
X161765Y169053D01*
X161789Y169058D01*
X161813Y169062D01*
X161837Y169067D01*
X161862Y169072D01*
X161887Y169076D01*
X161911Y169081D01*
X161936Y169085D01*
X161961Y169090D01*
X161987Y169094D01*
X162012Y169098D01*
X162038Y169102D01*
X162064Y169106D01*
X162090Y169111D01*
X162116Y169114D01*
X162145Y169110D01*
D02*
G37*
G36*
X162366Y156692D02*
Y156692D01*
X162800Y156532D01*
X162807Y156529D01*
X162830Y156517D01*
X162853Y156505D01*
X162876Y156492D01*
X162942Y156455D01*
X163047Y156388D01*
X163148Y156314D01*
X163491Y155973D01*
D01*
X163647Y155729D01*
X163785Y155493D01*
X163785Y155493D01*
X163937Y155056D01*
X163940Y155043D01*
X163945Y155023D01*
X163950Y155002D01*
X163952Y154991D01*
X163955Y154979D01*
X163960Y154953D01*
X163965Y154927D01*
X163970Y154900D01*
X163973Y154887D01*
X163973Y154887D01*
X163976Y154869D01*
X163982Y154832D01*
X163988Y154796D01*
X163993Y154759D01*
X164003Y154674D01*
X164013Y154540D01*
X164016Y154405D01*
X164012Y154271D01*
X164006Y154192D01*
X164004Y154167D01*
X164002Y154143D01*
X163999Y154118D01*
X163997Y154095D01*
X163994Y154075D01*
X163991Y154054D01*
X163988Y154033D01*
X163986Y154014D01*
X163983Y153996D01*
X163980Y153979D01*
X163977Y153962D01*
X163976Y153953D01*
X163974Y153945D01*
X163971Y153930D01*
X163969Y153914D01*
X163965Y153899D01*
X163962Y153883D01*
X163959Y153868D01*
X163956Y153853D01*
X163952Y153837D01*
X163951Y153830D01*
X163949Y153823D01*
X163946Y153809D01*
X163943Y153796D01*
X163939Y153782D01*
X163936Y153769D01*
X163933Y153755D01*
X163929Y153742D01*
X163925Y153728D01*
X163922Y153716D01*
X163919Y153704D01*
X163915Y153692D01*
X163912Y153680D01*
X163910Y153674D01*
X163908Y153669D01*
X163905Y153657D01*
X163901Y153645D01*
X163898Y153634D01*
X163894Y153622D01*
X163890Y153611D01*
X163886Y153599D01*
X163883Y153588D01*
X163879Y153576D01*
X163672Y153137D01*
X163669Y153131D01*
X163606Y153050D01*
X163605Y153050D01*
X163367Y152761D01*
X163311Y152695D01*
X163077Y152532D01*
X162889Y152413D01*
X162676Y152330D01*
X162457Y152256D01*
X162040Y152193D01*
X162036Y152193D01*
X162010Y152191D01*
X161984Y152191D01*
X161958Y152190D01*
X161931Y152190D01*
X161905Y152190D01*
X161878Y152190D01*
X161851Y152190D01*
X161824Y152191D01*
X161797Y152192D01*
X161770Y152193D01*
X161742Y152194D01*
X161715Y152196D01*
X161687Y152198D01*
X161659Y152201D01*
X161630Y152203D01*
X161602Y152206D01*
X161574Y152209D01*
X161539Y152210D01*
X161513Y152211D01*
X161487Y152213D01*
X161461Y152214D01*
X161436Y152216D01*
X161410Y152218D01*
X161385Y152220D01*
X161360Y152223D01*
X161335Y152226D01*
X161311Y152229D01*
X161286Y152232D01*
X161262Y152235D01*
X161238Y152239D01*
X161214Y152243D01*
X161190Y152247D01*
X161167Y152251D01*
X161144Y152256D01*
X161120Y152260D01*
X161097Y152266D01*
X161067Y152272D01*
X161037Y152280D01*
X161007Y152287D01*
X160978Y152296D01*
X160949Y152304D01*
X160920Y152313D01*
X160891Y152322D01*
X160863Y152332D01*
X160859Y152333D01*
X160850Y152336D01*
X160841Y152339D01*
X160833Y152343D01*
X160824Y152346D01*
X160815Y152349D01*
X160807Y152352D01*
X160798Y152356D01*
X160790Y152359D01*
X160781Y152362D01*
X160773Y152366D01*
X160764Y152369D01*
X160756Y152372D01*
X160747Y152376D01*
X160739Y152379D01*
X160731Y152383D01*
X160722Y152387D01*
X160712Y152391D01*
X160702Y152396D01*
X160692Y152400D01*
X160682Y152405D01*
X160673Y152409D01*
X160663Y152414D01*
X160653Y152418D01*
X160643Y152423D01*
X160632Y152429D01*
X160621Y152435D01*
X160610Y152440D01*
X160604Y152443D01*
Y152443D01*
X160598Y152446D01*
X160586Y152453D01*
X160573Y152460D01*
X160561Y152466D01*
X160555Y152470D01*
X160546Y152474D01*
X160530Y152484D01*
X160513Y152494D01*
X160497Y152504D01*
X160489Y152508D01*
X160476Y152517D01*
X160450Y152533D01*
X160424Y152550D01*
X160372Y152597D01*
X160320Y152645D01*
X160031Y152920D01*
X159920Y153092D01*
X159795Y153303D01*
X159645Y153705D01*
X159609Y153811D01*
X159609Y153812D01*
X159608Y153818D01*
X159605Y153829D01*
X159603Y153841D01*
X159600Y153852D01*
X159599Y153858D01*
X159598Y153864D01*
X159596Y153876D01*
X159594Y153887D01*
X159591Y153899D01*
X159589Y153911D01*
X159587Y153922D01*
X159585Y153934D01*
X159583Y153946D01*
X159582Y153957D01*
X159580Y153969D01*
X159578Y153981D01*
X159576Y153993D01*
X159575Y153999D01*
X159575Y154005D01*
X159573Y154019D01*
X159571Y154032D01*
X159569Y154046D01*
X159568Y154059D01*
X159566Y154073D01*
X159565Y154086D01*
X159563Y154100D01*
X159562Y154114D01*
X159561Y154130D01*
X159559Y154145D01*
X159558Y154160D01*
X159557Y154176D01*
X159556Y154194D01*
X159555Y154211D01*
X159554Y154228D01*
X159553Y154246D01*
X159552Y154264D01*
X159551Y154283D01*
X159551Y154302D01*
X159550Y154323D01*
X159550Y154345D01*
X159550Y154367D01*
X159550Y154390D01*
X159550Y154416D01*
X159551Y154447D01*
X159552Y154478D01*
X159554Y154509D01*
X159555Y154525D01*
X159559Y154595D01*
X159574Y154736D01*
X159596Y154875D01*
X159626Y155014D01*
X159647Y155094D01*
X159653Y155117D01*
X159660Y155140D01*
X159667Y155163D01*
X159673Y155184D01*
X159679Y155202D01*
X159684Y155220D01*
X159690Y155238D01*
X159696Y155255D01*
X159702Y155271D01*
X159707Y155288D01*
X159713Y155304D01*
X159719Y155319D01*
X159724Y155334D01*
X159730Y155348D01*
X159735Y155363D01*
X159741Y155377D01*
X159747Y155391D01*
X159752Y155406D01*
X159758Y155420D01*
X159764Y155433D01*
X159769Y155446D01*
X159775Y155459D01*
X159780Y155471D01*
X159786Y155484D01*
X159791Y155496D01*
X159797Y155509D01*
X159803Y155521D01*
X159806Y155527D01*
X159808Y155533D01*
X159813Y155543D01*
X159818Y155554D01*
X159824Y155565D01*
X159829Y155576D01*
X159834Y155587D01*
X159840Y155597D01*
X159845Y155608D01*
X159851Y155618D01*
X159856Y155629D01*
X159862Y155640D01*
X159867Y155650D01*
X159873Y155661D01*
X159879Y155671D01*
X159885Y155682D01*
X159890Y155692D01*
X159896Y155702D01*
X159902Y155713D01*
X159908Y155723D01*
X159914Y155733D01*
X159920Y155744D01*
X159926Y155754D01*
X159933Y155764D01*
X159939Y155774D01*
X159942Y155779D01*
Y155779D01*
X159964Y155814D01*
X159986Y155848D01*
X159989Y155852D01*
X159995Y155860D01*
X160001Y155869D01*
X160006Y155877D01*
X160012Y155886D01*
X160018Y155894D01*
X160024Y155902D01*
X160030Y155910D01*
X160036Y155919D01*
X160042Y155927D01*
X160048Y155935D01*
X160054Y155943D01*
X160060Y155951D01*
X160066Y155959D01*
X160072Y155968D01*
X160078Y155976D01*
X160082Y155980D01*
X160082D01*
X160085Y155984D01*
X160091Y155992D01*
X160097Y156000D01*
X160103Y156008D01*
X160107Y156012D01*
X160110Y156016D01*
X160116Y156023D01*
X160123Y156031D01*
X160129Y156039D01*
X160133Y156043D01*
Y156043D01*
X160136Y156047D01*
X160142Y156055D01*
X160149Y156062D01*
X160155Y156070D01*
X160163Y156078D01*
X160171Y156087D01*
X160178Y156096D01*
X160186Y156105D01*
X160194Y156114D01*
X160202Y156122D01*
X160210Y156131D01*
X160219Y156140D01*
X160227Y156148D01*
X160235Y156157D01*
X160243Y156165D01*
X160251Y156174D01*
X160256Y156178D01*
Y156178D01*
X160260Y156182D01*
X160268Y156190D01*
X160277Y156199D01*
X160285Y156207D01*
X160294Y156215D01*
X160302Y156223D01*
X160311Y156231D01*
X160319Y156239D01*
X160329Y156248D01*
X160339Y156257D01*
X160349Y156266D01*
X160359Y156275D01*
X160364Y156280D01*
X160369Y156284D01*
X160380Y156293D01*
X160390Y156302D01*
X160400Y156310D01*
X160406Y156315D01*
X160412Y156320D01*
X160423Y156329D01*
X160435Y156339D01*
X160447Y156348D01*
X160460Y156358D01*
X160474Y156368D01*
X160487Y156379D01*
X160501Y156389D01*
X160516Y156400D01*
X160533Y156412D01*
X160550Y156423D01*
X160567Y156435D01*
X160588Y156449D01*
X160614Y156465D01*
X160641Y156482D01*
X160667Y156497D01*
X160720Y156528D01*
X160801Y156569D01*
X160852Y156592D01*
X161294Y156730D01*
Y156730D01*
X161778Y156757D01*
X161920Y156758D01*
X162366Y156692D01*
D02*
G37*
G36*
X228977Y159532D02*
X162698Y142062D01*
X162406Y142468D01*
X162778Y143038D01*
X163780Y144389D01*
X164920Y146098D01*
X166081Y148283D01*
X167443Y151428D01*
X168087Y153655D01*
X168530Y155713D01*
X168846Y157708D01*
X168948Y159546D01*
X168990Y160028D01*
X228913D01*
X228977Y159532D01*
D02*
G37*
G36*
X119882Y140866D02*
X120013Y140383D01*
X91474Y111802D01*
X91081Y112112D01*
X110279Y143382D01*
X119882Y140866D01*
D02*
G37*
G36*
X189864Y111542D02*
X189554Y111150D01*
X158285Y130347D01*
X160800Y139950D01*
X161283Y140081D01*
X189864Y111542D01*
D02*
G37*
G36*
X123488Y138531D02*
X124839Y137529D01*
X126549Y136389D01*
X128734Y135228D01*
X131879Y133866D01*
X134106Y133222D01*
X136164Y132779D01*
X138159Y132462D01*
X139996Y132361D01*
X140479Y132319D01*
Y72403D01*
X139983Y72339D01*
X122572Y138657D01*
X122991Y138930D01*
X123488Y138531D01*
D02*
G37*
%LPC*%
G36*
X144025Y156673D02*
X144044Y156631D01*
X144036Y156651D01*
X144025Y156673D01*
D02*
G37*
G36*
X146831Y153561D02*
X146855Y153538D01*
X146959Y153450D01*
X146831Y153561D01*
D02*
G37*
%LPD*%
M02*
