G04*
G04 #@! TF.GenerationSoftware,Altium Limited,Altium Designer,21.8.1 (53)*
G04*
G04 Layer_Color=32768*
%FSLAX25Y25*%
%MOIN*%
G70*
G04*
G04 #@! TF.SameCoordinates,DAEDDD48-B243-4404-BE66-89772E550788*
G04*
G04*
G04 #@! TF.FilePolarity,Positive*
G04*
G01*
G75*
%ADD10C,0.01000*%
D10*
X144079Y74005D02*
G03*
X199649Y96838I-3062J86492D01*
G01*
X82464Y96764D02*
G03*
X137872Y74008I58552J63733D01*
G01*
X205055Y102279D02*
G03*
X227504Y157312I-64039J58218D01*
G01*
X199509Y224286D02*
G03*
X144451Y246976I-58492J-63788D01*
G01*
X227509Y163552D02*
G03*
X204760Y219039I-86493J-3055D01*
G01*
X54716Y157502D02*
G03*
X77051Y101894I86920J2623D01*
G01*
X77128Y218949D02*
G03*
X54334Y163448I64104J-58759D01*
G01*
X137997Y247089D02*
G03*
X82590Y224401I3236J-86900D01*
G01*
X130508Y265927D02*
G03*
X150592Y266057I10725J-105737D01*
G01*
X150343Y279500D02*
G03*
X150343Y279500I-9843J0D01*
G01*
X150577Y266064D02*
G03*
X130543Y265975I-10077J13436D01*
G01*
X77128Y218949D02*
X98666Y174846D01*
X54334Y163448D02*
X98666Y174846D01*
X183374Y145858D02*
X227504Y157312D01*
X183374Y145858D02*
X205055Y102279D01*
X126406Y118253D02*
X137872Y74008D01*
X82464Y96764D02*
X126406Y118253D01*
X156000Y203000D02*
X199509Y224286D01*
X144451Y246976D02*
X156000Y203000D01*
X183173Y175038D02*
X204821Y218959D01*
X183173Y175038D02*
X227509Y163552D01*
X155564Y118341D02*
X199485Y96693D01*
X144079Y74005D02*
X155564Y118341D01*
X77404Y102095D02*
X99052Y146016D01*
X54716Y157502D02*
X99052Y146016D01*
X126512Y202753D02*
X137997Y247089D01*
X82590Y224401D02*
X126512Y202753D01*
M02*
