G75*
%MOIN*%
%OFA0B0*%
%FSLAX25Y25*%
%IPPOS*%
%LPD*%
%AMOC8*
5,1,8,0,0,1.08239X$1,22.5*
%
%ADD10R,0.01800X0.00067*%
%ADD11R,0.02060X0.00066*%
%ADD12R,0.02800X0.00067*%
%ADD13R,0.03130X0.00067*%
%ADD14R,0.03400X0.00066*%
%ADD15R,0.03800X0.00067*%
%ADD16R,0.04000X0.00067*%
%ADD17R,0.04400X0.00066*%
%ADD18R,0.04530X0.00067*%
%ADD19R,0.04870X0.00067*%
%ADD20R,0.05000X0.00066*%
%ADD21R,0.05270X0.00067*%
%ADD22R,0.05400X0.00067*%
%ADD23R,0.05600X0.00066*%
%ADD24R,0.05660X0.00067*%
%ADD25R,0.05860X0.00067*%
%ADD26R,0.06070X0.00066*%
%ADD27R,0.06200X0.00067*%
%ADD28R,0.06400X0.00067*%
%ADD29R,0.06470X0.00066*%
%ADD30R,0.06600X0.00067*%
%ADD31R,0.06670X0.00067*%
%ADD32R,0.06800X0.00066*%
%ADD33R,0.06870X0.00067*%
%ADD34R,0.07070X0.00067*%
%ADD35R,0.07140X0.00066*%
%ADD36R,0.07200X0.00067*%
%ADD37R,0.07270X0.00067*%
%ADD38R,0.07400X0.00066*%
%ADD39R,0.07400X0.00067*%
%ADD40R,0.07470X0.00067*%
%ADD41R,0.07530X0.00066*%
%ADD42R,0.03660X0.00067*%
%ADD43R,0.03600X0.00067*%
%ADD44R,0.03540X0.00067*%
%ADD45R,0.03530X0.00066*%
%ADD46R,0.03470X0.00066*%
%ADD47R,0.03530X0.00067*%
%ADD48R,0.03470X0.00067*%
%ADD49R,0.03400X0.00067*%
%ADD50R,0.03340X0.00066*%
%ADD51R,0.03260X0.00067*%
%ADD52R,0.03270X0.00067*%
%ADD53R,0.03200X0.00067*%
%ADD54R,0.03140X0.00066*%
%ADD55R,0.03200X0.00066*%
%ADD56R,0.03060X0.00067*%
%ADD57R,0.03070X0.00067*%
%ADD58R,0.03000X0.00066*%
%ADD59R,0.02940X0.00066*%
%ADD60R,0.02930X0.00067*%
%ADD61R,0.02940X0.00067*%
%ADD62R,0.02870X0.00067*%
%ADD63R,0.02800X0.00066*%
%ADD64R,0.02730X0.00066*%
%ADD65R,0.02730X0.00067*%
%ADD66R,0.02600X0.00066*%
%ADD67R,0.02670X0.00067*%
%ADD68R,0.02600X0.00067*%
%ADD69R,0.02660X0.00067*%
%ADD70R,0.02670X0.00066*%
%ADD71R,0.02530X0.00067*%
%ADD72R,0.02470X0.00067*%
%ADD73R,0.02470X0.00066*%
%ADD74R,0.02400X0.00067*%
%ADD75R,0.02460X0.00066*%
%ADD76R,0.02460X0.00067*%
%ADD77R,0.02740X0.00067*%
%ADD78R,0.02400X0.00066*%
%ADD79R,0.03330X0.00066*%
%ADD80R,0.03600X0.00066*%
%ADD81R,0.02530X0.00066*%
%ADD82R,0.03670X0.00067*%
%ADD83R,0.03930X0.00066*%
%ADD84R,0.04140X0.00067*%
%ADD85R,0.04200X0.00066*%
%ADD86R,0.04330X0.00067*%
%ADD87R,0.04400X0.00067*%
%ADD88R,0.03000X0.00067*%
%ADD89R,0.04530X0.00066*%
%ADD90R,0.04600X0.00067*%
%ADD91R,0.04670X0.00067*%
%ADD92R,0.06130X0.00067*%
%ADD93R,0.04800X0.00066*%
%ADD94R,0.06330X0.00066*%
%ADD95R,0.04930X0.00067*%
%ADD96R,0.06800X0.00067*%
%ADD97R,0.05000X0.00067*%
%ADD98R,0.06940X0.00067*%
%ADD99R,0.07200X0.00066*%
%ADD100R,0.05200X0.00067*%
%ADD101R,0.07330X0.00067*%
%ADD102R,0.05340X0.00067*%
%ADD103R,0.07530X0.00067*%
%ADD104R,0.05400X0.00066*%
%ADD105R,0.07670X0.00066*%
%ADD106R,0.05470X0.00067*%
%ADD107R,0.07870X0.00067*%
%ADD108R,0.05540X0.00067*%
%ADD109R,0.08200X0.00067*%
%ADD110R,0.05660X0.00066*%
%ADD111R,0.08400X0.00066*%
%ADD112R,0.05800X0.00067*%
%ADD113R,0.08800X0.00067*%
%ADD114R,0.05870X0.00067*%
%ADD115R,0.09000X0.00067*%
%ADD116R,0.05930X0.00066*%
%ADD117R,0.09200X0.00066*%
%ADD118R,0.06000X0.00067*%
%ADD119R,0.09460X0.00067*%
%ADD120R,0.06140X0.00067*%
%ADD121R,0.09670X0.00067*%
%ADD122R,0.06200X0.00066*%
%ADD123R,0.09800X0.00066*%
%ADD124R,0.06260X0.00067*%
%ADD125R,0.10070X0.00067*%
%ADD126R,0.06330X0.00067*%
%ADD127R,0.10200X0.00067*%
%ADD128R,0.06400X0.00066*%
%ADD129R,0.10330X0.00066*%
%ADD130R,0.06460X0.00067*%
%ADD131R,0.10530X0.00067*%
%ADD132R,0.17270X0.00067*%
%ADD133R,0.17400X0.00066*%
%ADD134R,0.17540X0.00067*%
%ADD135R,0.17600X0.00067*%
%ADD136R,0.17670X0.00066*%
%ADD137R,0.17740X0.00067*%
%ADD138R,0.17860X0.00066*%
%ADD139R,0.17930X0.00067*%
%ADD140R,0.18000X0.00067*%
%ADD141R,0.18000X0.00066*%
%ADD142R,0.18130X0.00067*%
%ADD143R,0.18200X0.00067*%
%ADD144R,0.18340X0.00066*%
%ADD145R,0.18400X0.00067*%
%ADD146R,0.01870X0.00066*%
%ADD147R,0.14860X0.00066*%
%ADD148R,0.01200X0.00066*%
%ADD149R,0.01870X0.00067*%
%ADD150R,0.14460X0.00067*%
%ADD151R,0.01270X0.00067*%
%ADD152R,0.13940X0.00067*%
%ADD153R,0.01200X0.00067*%
%ADD154R,0.01800X0.00066*%
%ADD155R,0.13140X0.00066*%
%ADD156R,0.12600X0.00067*%
%ADD157R,0.01330X0.00067*%
%ADD158R,0.12200X0.00067*%
%ADD159R,0.01860X0.00066*%
%ADD160R,0.11660X0.00066*%
%ADD161R,0.01330X0.00066*%
%ADD162R,0.01860X0.00067*%
%ADD163R,0.10860X0.00067*%
%ADD164R,0.10340X0.00067*%
%ADD165R,0.01400X0.00067*%
%ADD166R,0.09940X0.00066*%
%ADD167R,0.01460X0.00066*%
%ADD168R,0.01930X0.00067*%
%ADD169R,0.09540X0.00067*%
%ADD170R,0.01460X0.00067*%
%ADD171R,0.08600X0.00067*%
%ADD172R,0.01470X0.00067*%
%ADD173R,0.08200X0.00066*%
%ADD174R,0.01470X0.00066*%
%ADD175R,0.07660X0.00067*%
%ADD176R,0.01540X0.00067*%
%ADD177R,0.07600X0.00067*%
%ADD178R,0.07600X0.00066*%
%ADD179R,0.01540X0.00066*%
%ADD180R,0.01600X0.00067*%
%ADD181R,0.01530X0.00067*%
%ADD182R,0.07730X0.00066*%
%ADD183R,0.01530X0.00066*%
%ADD184R,0.07730X0.00067*%
%ADD185R,0.07800X0.00067*%
%ADD186R,0.07800X0.00066*%
%ADD187R,0.01600X0.00066*%
%ADD188R,0.01670X0.00067*%
%ADD189R,0.01670X0.00066*%
%ADD190R,0.01730X0.00067*%
%ADD191R,0.01730X0.00066*%
%ADD192R,0.07660X0.00066*%
%ADD193R,0.07940X0.00067*%
%ADD194R,0.08340X0.00066*%
%ADD195R,0.08860X0.00067*%
%ADD196R,0.09660X0.00067*%
%ADD197R,0.10200X0.00066*%
%ADD198R,0.01930X0.00066*%
%ADD199R,0.10600X0.00067*%
%ADD200R,0.11140X0.00067*%
%ADD201R,0.11940X0.00066*%
%ADD202R,0.12340X0.00067*%
%ADD203R,0.12860X0.00067*%
%ADD204R,0.13330X0.00066*%
%ADD205R,0.14200X0.00067*%
%ADD206R,0.14600X0.00067*%
%ADD207R,0.02000X0.00067*%
%ADD208R,0.15140X0.00066*%
%ADD209R,0.02000X0.00066*%
%ADD210R,0.19270X0.00067*%
%ADD211R,0.19270X0.00066*%
%ADD212R,0.19200X0.00067*%
%ADD213R,0.19200X0.00066*%
%ADD214R,0.19060X0.00067*%
%ADD215R,0.19000X0.00066*%
%ADD216R,0.18940X0.00067*%
%ADD217R,0.18940X0.00066*%
%ADD218R,0.18870X0.00066*%
%ADD219R,0.05260X0.00067*%
%ADD220R,0.06730X0.00067*%
%ADD221R,0.06670X0.00066*%
%ADD222R,0.04860X0.00067*%
%ADD223R,0.06140X0.00066*%
%ADD224R,0.04460X0.00066*%
%ADD225R,0.04200X0.00067*%
%ADD226R,0.05930X0.00067*%
%ADD227R,0.05870X0.00066*%
%ADD228R,0.03800X0.00066*%
%ADD229R,0.06070X0.00067*%
%ADD230R,0.02340X0.00067*%
%ADD231R,0.02200X0.00066*%
%ADD232R,0.02200X0.00067*%
%ADD233R,0.05600X0.00067*%
%ADD234R,0.02270X0.00067*%
%ADD235R,0.05530X0.00067*%
%ADD236R,0.05060X0.00066*%
%ADD237R,0.02340X0.00066*%
%ADD238R,0.05130X0.00066*%
%ADD239R,0.05070X0.00067*%
%ADD240R,0.04740X0.00067*%
%ADD241R,0.04070X0.00067*%
%ADD242R,0.03860X0.00066*%
%ADD243R,0.02860X0.00066*%
%ADD244R,0.04260X0.00066*%
%ADD245R,0.02860X0.00067*%
%ADD246R,0.02930X0.00066*%
%ADD247R,0.03330X0.00067*%
%ADD248R,0.03730X0.00067*%
%ADD249R,0.03260X0.00066*%
%ADD250R,0.03140X0.00067*%
%ADD251R,0.02540X0.00067*%
%ADD252R,0.03540X0.00066*%
%ADD253R,0.03660X0.00066*%
%ADD254R,0.03130X0.00066*%
%ADD255R,0.02870X0.00066*%
%ADD256R,0.03870X0.00066*%
%ADD257R,0.03940X0.00067*%
%ADD258R,0.04060X0.00066*%
%ADD259R,0.04060X0.00067*%
%ADD260R,0.04130X0.00067*%
%ADD261R,0.03730X0.00066*%
%ADD262R,0.03460X0.00067*%
%ADD263R,0.04270X0.00067*%
%ADD264R,0.04340X0.00067*%
%ADD265R,0.04340X0.00066*%
%ADD266R,0.04460X0.00067*%
%ADD267R,0.12470X0.00066*%
%ADD268R,0.12270X0.00067*%
%ADD269R,0.12130X0.00067*%
%ADD270R,0.12000X0.00066*%
%ADD271R,0.11730X0.00067*%
%ADD272R,0.11600X0.00067*%
%ADD273R,0.11330X0.00066*%
%ADD274R,0.11200X0.00067*%
%ADD275R,0.10930X0.00067*%
%ADD276R,0.10800X0.00066*%
%ADD277R,0.10470X0.00067*%
%ADD278R,0.10330X0.00067*%
%ADD279R,0.10070X0.00066*%
%ADD280R,0.09870X0.00067*%
%ADD281R,0.09530X0.00067*%
%ADD282R,0.09330X0.00066*%
%ADD283R,0.09200X0.00067*%
%ADD284R,0.08670X0.00066*%
%ADD285R,0.08140X0.00067*%
%ADD286R,0.08000X0.00067*%
%ADD287R,0.07340X0.00067*%
%ADD288R,0.06540X0.00066*%
%ADD289R,0.08274X0.04337*%
%ADD290R,0.03550X0.03943*%
%ADD291R,0.04731X0.04337*%
%ADD292R,0.02900X0.05400*%
%ADD293C,0.00500*%
D10*
X0183650Y0109506D03*
X0183650Y0109573D03*
X0183520Y0110706D03*
X0183520Y0110773D03*
X0183520Y0110906D03*
X0183520Y0110973D03*
X0183520Y0111106D03*
X0183520Y0111173D03*
X0183520Y0111306D03*
X0183520Y0111373D03*
X0183650Y0112506D03*
X0183650Y0112573D03*
X0191920Y0101373D03*
X0201120Y0111306D03*
X0201120Y0111373D03*
X0201120Y0111506D03*
X0201120Y0111573D03*
D11*
X0191920Y0101440D03*
D12*
X0191690Y0101506D03*
X0191750Y0104373D03*
X0186490Y0104506D03*
X0186420Y0104573D03*
X0185690Y0116573D03*
X0186490Y0117573D03*
X0199150Y0116773D03*
X0199150Y0116706D03*
D13*
X0198385Y0117506D03*
X0187055Y0117973D03*
X0191655Y0101573D03*
D14*
X0191590Y0101640D03*
X0191850Y0103840D03*
X0192320Y0116840D03*
X0187450Y0118240D03*
D15*
X0188050Y0118573D03*
X0185790Y0115906D03*
X0192320Y0117506D03*
X0192320Y0117573D03*
X0197120Y0118373D03*
X0197250Y0118306D03*
X0199050Y0116106D03*
X0185790Y0106173D03*
X0188050Y0103506D03*
X0191450Y0101706D03*
D16*
X0191420Y0101773D03*
X0185820Y0106306D03*
X0192350Y0114373D03*
X0192350Y0117773D03*
X0196890Y0118506D03*
X0199020Y0115973D03*
X0185820Y0115773D03*
D17*
X0185890Y0115440D03*
X0191290Y0101840D03*
D18*
X0191285Y0101906D03*
D19*
X0191185Y0101973D03*
D20*
X0191190Y0102040D03*
X0185990Y0107040D03*
X0192320Y0114040D03*
X0192450Y0120440D03*
D21*
X0198785Y0115106D03*
X0191055Y0102106D03*
D22*
X0191050Y0102173D03*
D23*
X0190950Y0102240D03*
X0186090Y0114640D03*
X0198750Y0114840D03*
D24*
X0198720Y0114773D03*
X0190920Y0102306D03*
X0186120Y0114573D03*
D25*
X0192420Y0120306D03*
X0190820Y0102373D03*
D26*
X0190785Y0102440D03*
D27*
X0190790Y0102506D03*
X0198590Y0114373D03*
D28*
X0190690Y0102573D03*
D29*
X0190655Y0102640D03*
D30*
X0190590Y0102706D03*
X0186320Y0113906D03*
X0198520Y0114106D03*
D31*
X0190555Y0102773D03*
D32*
X0190490Y0102840D03*
D33*
X0190455Y0102906D03*
D34*
X0190355Y0102973D03*
D35*
X0190320Y0103040D03*
D36*
X0190290Y0103106D03*
D37*
X0190255Y0103173D03*
D38*
X0190190Y0103240D03*
D39*
X0190120Y0103306D03*
D40*
X0190085Y0103373D03*
D41*
X0189985Y0103440D03*
X0192455Y0120040D03*
D42*
X0192320Y0117306D03*
X0192320Y0117173D03*
X0187920Y0118506D03*
X0191920Y0103506D03*
D43*
X0187890Y0103573D03*
X0192350Y0117106D03*
X0197490Y0118173D03*
D44*
X0192320Y0116973D03*
X0192320Y0116906D03*
X0192320Y0114506D03*
X0191920Y0103573D03*
D45*
X0187785Y0103640D03*
D46*
X0191885Y0103640D03*
X0197685Y0118040D03*
D47*
X0197585Y0118106D03*
X0185785Y0105973D03*
X0187655Y0103706D03*
D48*
X0187555Y0103773D03*
X0191885Y0103706D03*
X0185755Y0116106D03*
X0187685Y0118373D03*
X0199085Y0116306D03*
D49*
X0199120Y0116373D03*
X0197850Y0117906D03*
X0197790Y0117973D03*
X0192320Y0116773D03*
X0185790Y0105906D03*
X0191920Y0103773D03*
D50*
X0187420Y0103840D03*
D51*
X0187320Y0103906D03*
X0192320Y0114573D03*
X0192320Y0116573D03*
D52*
X0187255Y0118106D03*
X0198055Y0117773D03*
X0192655Y0106706D03*
X0191855Y0103906D03*
D53*
X0191820Y0103973D03*
X0187220Y0103973D03*
X0185750Y0105773D03*
X0192350Y0116373D03*
X0192350Y0116506D03*
X0198150Y0117706D03*
D54*
X0192320Y0116440D03*
X0192320Y0116240D03*
X0187120Y0104040D03*
D55*
X0191820Y0104040D03*
X0192620Y0106640D03*
X0198220Y0117640D03*
X0187150Y0118040D03*
D56*
X0198620Y0117306D03*
X0191820Y0104173D03*
X0191820Y0104106D03*
X0187020Y0104106D03*
D57*
X0186955Y0104173D03*
X0185755Y0105706D03*
X0192355Y0116173D03*
X0186955Y0117906D03*
X0198555Y0117373D03*
X0199155Y0116573D03*
D58*
X0198650Y0117240D03*
X0192320Y0114640D03*
X0186850Y0117840D03*
X0185720Y0105640D03*
X0186850Y0104240D03*
D59*
X0191820Y0104240D03*
D60*
X0186755Y0104306D03*
X0185685Y0105573D03*
X0198755Y0117173D03*
X0198955Y0116973D03*
D61*
X0198820Y0117106D03*
X0192420Y0106506D03*
X0191820Y0104306D03*
D62*
X0186655Y0104373D03*
X0186655Y0117706D03*
X0198985Y0116906D03*
D63*
X0199090Y0116840D03*
X0192420Y0106440D03*
X0186550Y0104440D03*
X0186350Y0104640D03*
D64*
X0191785Y0104440D03*
X0186385Y0117440D03*
D65*
X0186455Y0117506D03*
X0191785Y0104573D03*
X0191785Y0104506D03*
D66*
X0191790Y0104640D03*
X0191790Y0104840D03*
X0192250Y0106240D03*
X0185920Y0105040D03*
X0192320Y0115440D03*
D67*
X0186085Y0117173D03*
X0186285Y0104706D03*
X0192285Y0106306D03*
D68*
X0192190Y0106173D03*
X0191790Y0104773D03*
X0191790Y0104706D03*
X0185990Y0104973D03*
X0192320Y0114706D03*
X0192320Y0115373D03*
X0192320Y0115506D03*
X0192320Y0115573D03*
X0185990Y0117106D03*
D69*
X0186220Y0117306D03*
X0186220Y0104773D03*
D70*
X0186155Y0104840D03*
X0185685Y0105440D03*
X0185685Y0116640D03*
X0186155Y0117240D03*
X0192355Y0115640D03*
D71*
X0192355Y0115306D03*
X0185885Y0116973D03*
X0185685Y0116706D03*
X0185685Y0105373D03*
X0185885Y0105106D03*
X0186085Y0104906D03*
X0191755Y0104906D03*
X0192085Y0105973D03*
X0192155Y0106106D03*
D72*
X0192055Y0105906D03*
X0191985Y0105773D03*
X0191785Y0105106D03*
X0191785Y0104973D03*
X0185785Y0105173D03*
D73*
X0191785Y0105040D03*
X0191855Y0105240D03*
X0192055Y0105840D03*
D74*
X0191950Y0105706D03*
X0191950Y0105573D03*
X0191890Y0105373D03*
X0191890Y0105306D03*
X0191820Y0105173D03*
X0192350Y0115106D03*
X0192420Y0120706D03*
D75*
X0192320Y0115240D03*
X0191920Y0105440D03*
X0185720Y0105240D03*
D76*
X0185720Y0105306D03*
X0191920Y0105506D03*
X0192320Y0115173D03*
X0185720Y0116773D03*
D77*
X0186320Y0117373D03*
X0192320Y0115773D03*
X0192320Y0115706D03*
X0192320Y0106373D03*
X0185720Y0105506D03*
D78*
X0191950Y0105640D03*
D79*
X0185755Y0105840D03*
X0197955Y0117840D03*
D80*
X0199090Y0116240D03*
X0187820Y0118440D03*
X0185750Y0116040D03*
X0185750Y0106040D03*
D81*
X0192155Y0106040D03*
X0185755Y0116840D03*
X0185955Y0117040D03*
D82*
X0185785Y0115973D03*
X0185785Y0106106D03*
D83*
X0185785Y0106240D03*
X0199055Y0116040D03*
D84*
X0199020Y0115906D03*
X0185820Y0106373D03*
D85*
X0185850Y0106440D03*
X0185850Y0115640D03*
X0192320Y0118040D03*
X0192320Y0118240D03*
D86*
X0185855Y0115573D03*
X0185855Y0106506D03*
X0198985Y0115706D03*
X0198985Y0115773D03*
D87*
X0192350Y0120506D03*
X0185890Y0115506D03*
X0185890Y0106573D03*
D88*
X0192520Y0106573D03*
X0192320Y0116106D03*
X0186790Y0117773D03*
X0185720Y0116373D03*
D89*
X0185885Y0106640D03*
X0198955Y0115640D03*
D90*
X0192320Y0118573D03*
X0185920Y0115373D03*
X0185920Y0106706D03*
D91*
X0185955Y0106773D03*
X0192355Y0114173D03*
X0185955Y0115306D03*
X0198955Y0115573D03*
D92*
X0194155Y0106773D03*
D93*
X0185950Y0106840D03*
X0185950Y0115240D03*
X0198890Y0115440D03*
D94*
X0194255Y0106840D03*
D95*
X0185955Y0106906D03*
X0185955Y0115173D03*
X0198885Y0115373D03*
D96*
X0198490Y0113906D03*
X0194550Y0106906D03*
D97*
X0185990Y0106973D03*
X0185990Y0115106D03*
D98*
X0194620Y0106973D03*
D99*
X0194750Y0107040D03*
D100*
X0192350Y0113973D03*
X0186020Y0114973D03*
X0186020Y0107106D03*
X0198820Y0115173D03*
D101*
X0194885Y0107106D03*
D102*
X0186020Y0107173D03*
X0186020Y0114906D03*
D103*
X0194985Y0107173D03*
D104*
X0198790Y0115040D03*
X0186050Y0114840D03*
X0186050Y0107240D03*
D105*
X0195055Y0107240D03*
D106*
X0186085Y0107306D03*
X0186085Y0114773D03*
D107*
X0195085Y0107306D03*
D108*
X0186120Y0107373D03*
X0186120Y0114706D03*
D109*
X0195050Y0107373D03*
D110*
X0186120Y0107440D03*
D111*
X0195020Y0107440D03*
D112*
X0198720Y0114706D03*
X0186120Y0114506D03*
X0186120Y0107506D03*
D113*
X0195020Y0107506D03*
X0192490Y0119773D03*
D114*
X0186155Y0107573D03*
D115*
X0194990Y0107573D03*
D116*
X0186185Y0107640D03*
D117*
X0195020Y0107640D03*
D118*
X0186220Y0107706D03*
X0186220Y0114306D03*
D119*
X0195020Y0107706D03*
D120*
X0186220Y0107773D03*
D121*
X0194985Y0107773D03*
D122*
X0186250Y0107840D03*
D123*
X0194990Y0107840D03*
D124*
X0186220Y0107906D03*
X0186220Y0114173D03*
D125*
X0194985Y0107906D03*
D126*
X0198585Y0114306D03*
X0186255Y0114106D03*
X0186255Y0107973D03*
D127*
X0194990Y0107973D03*
D128*
X0198550Y0114240D03*
X0186290Y0114040D03*
X0186290Y0108040D03*
D129*
X0194985Y0108040D03*
D130*
X0198520Y0114173D03*
X0186320Y0113973D03*
X0186320Y0108106D03*
D131*
X0194955Y0108106D03*
D132*
X0191655Y0108173D03*
D133*
X0191720Y0108240D03*
D134*
X0191720Y0108306D03*
D135*
X0191750Y0108373D03*
D136*
X0191785Y0108440D03*
D137*
X0191820Y0108506D03*
X0191820Y0108573D03*
D138*
X0191820Y0108640D03*
D139*
X0191855Y0108706D03*
D140*
X0191890Y0108773D03*
D141*
X0191890Y0108840D03*
D142*
X0191885Y0108906D03*
D143*
X0191920Y0108973D03*
D144*
X0191920Y0109040D03*
D145*
X0191950Y0109106D03*
X0191950Y0109173D03*
D146*
X0183685Y0109240D03*
X0183555Y0110040D03*
X0183555Y0110240D03*
X0183555Y0110440D03*
X0183555Y0110640D03*
X0183555Y0111440D03*
X0183555Y0111640D03*
X0183555Y0111840D03*
X0183555Y0112040D03*
X0183685Y0112840D03*
X0201085Y0112040D03*
X0201085Y0111840D03*
D147*
X0192320Y0109240D03*
D148*
X0200620Y0109240D03*
X0200690Y0109440D03*
D149*
X0201085Y0111706D03*
X0201085Y0111773D03*
X0201085Y0111906D03*
X0201085Y0111973D03*
X0201085Y0112106D03*
X0183685Y0112706D03*
X0183685Y0112773D03*
X0183555Y0111973D03*
X0183555Y0111906D03*
X0183555Y0111773D03*
X0183555Y0111706D03*
X0183555Y0111573D03*
X0183555Y0111506D03*
X0183555Y0110573D03*
X0183555Y0110506D03*
X0183555Y0110373D03*
X0183555Y0110306D03*
X0183555Y0110173D03*
X0183555Y0110106D03*
X0183685Y0109373D03*
X0183685Y0109306D03*
D150*
X0192320Y0109306D03*
D151*
X0200655Y0109306D03*
D152*
X0192320Y0109373D03*
D153*
X0200690Y0109373D03*
D154*
X0201120Y0111240D03*
X0201120Y0111440D03*
X0201120Y0111640D03*
X0183650Y0112440D03*
X0183650Y0112640D03*
X0183520Y0111240D03*
X0183520Y0111040D03*
X0183520Y0110840D03*
X0183650Y0109440D03*
D155*
X0192320Y0109440D03*
D156*
X0192320Y0109506D03*
D157*
X0200685Y0109506D03*
X0200755Y0109573D03*
X0200755Y0109706D03*
D158*
X0192320Y0109573D03*
D159*
X0183620Y0109640D03*
X0183620Y0109840D03*
X0183620Y0112240D03*
D160*
X0192320Y0109640D03*
D161*
X0200755Y0109640D03*
D162*
X0183620Y0109706D03*
X0183620Y0109773D03*
X0183620Y0112306D03*
X0183620Y0112373D03*
D163*
X0192320Y0109706D03*
D164*
X0192320Y0109773D03*
D165*
X0200790Y0109773D03*
D166*
X0192320Y0109840D03*
D167*
X0200820Y0109840D03*
D168*
X0201055Y0112173D03*
X0201055Y0112306D03*
X0201055Y0112373D03*
X0201055Y0112506D03*
X0201055Y0112573D03*
X0201055Y0112706D03*
X0183585Y0112173D03*
X0183585Y0112106D03*
X0183585Y0109973D03*
X0183585Y0109906D03*
D169*
X0192320Y0109906D03*
D170*
X0200820Y0109906D03*
D171*
X0192320Y0109973D03*
D172*
X0200885Y0109973D03*
D173*
X0192320Y0110040D03*
D174*
X0200885Y0110040D03*
D175*
X0192320Y0110106D03*
X0192320Y0110306D03*
X0192320Y0110373D03*
X0192320Y0111706D03*
X0192320Y0111773D03*
D176*
X0200920Y0110173D03*
X0200920Y0110106D03*
D177*
X0192350Y0110173D03*
X0192350Y0111906D03*
D178*
X0192350Y0111840D03*
X0192350Y0110240D03*
D179*
X0200920Y0110240D03*
D180*
X0200950Y0110306D03*
X0201020Y0110573D03*
X0201020Y0110706D03*
D181*
X0200985Y0110506D03*
X0200985Y0110373D03*
D182*
X0192355Y0110440D03*
D183*
X0200985Y0110440D03*
D184*
X0192355Y0110506D03*
X0192355Y0111573D03*
D185*
X0192320Y0111506D03*
X0192320Y0111373D03*
X0192320Y0111306D03*
X0192320Y0111173D03*
X0192320Y0111106D03*
X0192320Y0110973D03*
X0192320Y0110906D03*
X0192320Y0110773D03*
X0192320Y0110706D03*
X0192320Y0110573D03*
D186*
X0192320Y0110640D03*
X0192320Y0110840D03*
X0192320Y0111040D03*
X0192320Y0111240D03*
X0192320Y0111440D03*
D187*
X0201020Y0110640D03*
D188*
X0201055Y0110773D03*
X0201055Y0110906D03*
D189*
X0201055Y0110840D03*
D190*
X0201085Y0110973D03*
X0201085Y0111106D03*
X0201085Y0111173D03*
D191*
X0201085Y0111040D03*
D192*
X0192320Y0111640D03*
D193*
X0192320Y0111973D03*
D194*
X0192320Y0112040D03*
D195*
X0192320Y0112106D03*
D196*
X0192320Y0112173D03*
D197*
X0192320Y0112240D03*
D198*
X0201055Y0112240D03*
X0201055Y0112440D03*
X0201055Y0112640D03*
D199*
X0192320Y0112306D03*
D200*
X0192320Y0112373D03*
D201*
X0192320Y0112440D03*
D202*
X0192320Y0112506D03*
D203*
X0192320Y0112573D03*
D204*
X0192355Y0112640D03*
D205*
X0192320Y0112706D03*
D206*
X0192320Y0112773D03*
D207*
X0201020Y0112773D03*
D208*
X0192320Y0112840D03*
D209*
X0201020Y0112840D03*
D210*
X0192385Y0112906D03*
X0192385Y0112973D03*
D211*
X0192385Y0113040D03*
D212*
X0192420Y0113106D03*
X0192420Y0113173D03*
D213*
X0192420Y0113240D03*
D214*
X0192420Y0113306D03*
X0192420Y0113373D03*
D215*
X0192390Y0113440D03*
D216*
X0192420Y0113506D03*
X0192420Y0113573D03*
X0192420Y0113706D03*
X0192420Y0113773D03*
D217*
X0192420Y0113640D03*
D218*
X0192455Y0113840D03*
D219*
X0192320Y0113906D03*
D220*
X0198455Y0113973D03*
X0192455Y0120173D03*
D221*
X0198485Y0114040D03*
D222*
X0192320Y0114106D03*
D223*
X0186220Y0114240D03*
X0198620Y0114440D03*
D224*
X0192320Y0114240D03*
D225*
X0192320Y0114306D03*
X0192320Y0118106D03*
X0192320Y0118173D03*
D226*
X0186185Y0114373D03*
X0198655Y0114573D03*
D227*
X0198685Y0114640D03*
X0186155Y0114440D03*
D228*
X0192320Y0114440D03*
X0192320Y0117440D03*
D229*
X0198655Y0114506D03*
D230*
X0192320Y0114773D03*
D231*
X0192320Y0114840D03*
D232*
X0192320Y0114906D03*
D233*
X0192420Y0120373D03*
X0198750Y0114906D03*
D234*
X0192355Y0114973D03*
D235*
X0198785Y0114973D03*
D236*
X0186020Y0115040D03*
D237*
X0192320Y0115040D03*
D238*
X0198855Y0115240D03*
D239*
X0198885Y0115306D03*
D240*
X0198920Y0115506D03*
D241*
X0192385Y0120573D03*
X0185855Y0115706D03*
D242*
X0185820Y0115840D03*
X0197020Y0118440D03*
D243*
X0192320Y0115840D03*
D244*
X0199020Y0115840D03*
D245*
X0192320Y0115906D03*
X0192320Y0115973D03*
X0185720Y0116506D03*
D246*
X0185685Y0116440D03*
X0192355Y0116040D03*
X0192355Y0120640D03*
X0198885Y0117040D03*
X0199155Y0116640D03*
D247*
X0192355Y0116706D03*
X0187355Y0118173D03*
X0185755Y0116173D03*
D248*
X0192355Y0117373D03*
X0199085Y0116173D03*
D249*
X0199120Y0116440D03*
X0192320Y0116640D03*
X0185720Y0116240D03*
D250*
X0185720Y0116306D03*
X0192320Y0116306D03*
X0198320Y0117573D03*
X0199120Y0116506D03*
D251*
X0185820Y0116906D03*
D252*
X0192320Y0117040D03*
D253*
X0192320Y0117240D03*
D254*
X0198455Y0117440D03*
D255*
X0186585Y0117640D03*
D256*
X0192355Y0117640D03*
D257*
X0192320Y0117706D03*
D258*
X0192320Y0117840D03*
D259*
X0192320Y0117906D03*
D260*
X0192355Y0117973D03*
X0196755Y0118573D03*
D261*
X0197355Y0118240D03*
D262*
X0187620Y0118306D03*
D263*
X0192355Y0118306D03*
D264*
X0192320Y0118373D03*
D265*
X0192320Y0118440D03*
D266*
X0192320Y0118506D03*
D267*
X0192455Y0118640D03*
D268*
X0192485Y0118706D03*
D269*
X0192485Y0118773D03*
D270*
X0192490Y0118840D03*
D271*
X0192485Y0118906D03*
D272*
X0192490Y0118973D03*
D273*
X0192485Y0119040D03*
D274*
X0192490Y0119106D03*
D275*
X0192485Y0119173D03*
D276*
X0192490Y0119240D03*
D277*
X0192455Y0119306D03*
D278*
X0192455Y0119373D03*
D279*
X0192455Y0119440D03*
D280*
X0192485Y0119506D03*
D281*
X0192455Y0119573D03*
D282*
X0192485Y0119640D03*
D283*
X0192490Y0119706D03*
D284*
X0192485Y0119840D03*
D285*
X0192420Y0119906D03*
D286*
X0192420Y0119973D03*
D287*
X0192420Y0120106D03*
D288*
X0192420Y0120240D03*
D289*
X0062188Y0035736D03*
X0077188Y0045736D03*
X0062188Y0055736D03*
X0077188Y0065736D03*
X0062188Y0075736D03*
X0077188Y0085736D03*
X0062188Y0095736D03*
X0077188Y0105736D03*
X0062188Y0115736D03*
X0077188Y0125736D03*
X0062188Y0135736D03*
X0077188Y0145736D03*
X0062188Y0155736D03*
X0077188Y0165736D03*
X0062188Y0175736D03*
X0077188Y0185736D03*
X0147223Y0175665D03*
X0162223Y0165665D03*
X0147223Y0155665D03*
X0162223Y0145665D03*
X0147223Y0135665D03*
X0162223Y0125665D03*
X0147223Y0115665D03*
X0162223Y0105665D03*
X0147223Y0095665D03*
X0162223Y0085665D03*
X0147223Y0075665D03*
X0162223Y0185665D03*
D290*
X0115535Y0186326D03*
X0108054Y0186326D03*
X0111794Y0178059D03*
D291*
X0114787Y0192800D03*
X0108094Y0192800D03*
X0108229Y0200848D03*
X0114922Y0200848D03*
D292*
X0115033Y0040272D03*
X0111033Y0040272D03*
X0107033Y0040272D03*
D293*
X0108283Y0040030D02*
X0109783Y0040030D01*
X0109783Y0039772D02*
X0109783Y0040772D01*
X0108283Y0040772D01*
X0108283Y0039772D01*
X0109783Y0039772D01*
X0109783Y0040529D02*
X0108283Y0040529D01*
M02*
