M48
;Layer_Color=9474304
;FILE_FORMAT=2:5
INCH,LZ
;TYPE=PLATED
T1F00S00C0.01200
T2F00S00C0.04724
;TYPE=NON_PLATED
T3F00S00C0.03543
%
T01
X0311116Y0147568
X03165Y01425
X0323116Y0096568
X03305Y00955
X03475Y0078
X03475Y00705
X03515Y0067
X03415Y0072
X03605Y0078
X036642Y0060353
X0407159Y0048212
X0415495Y0048426
X0410711Y0042767
X0461116Y0055568
X0463Y0062
X0480414Y0103312
X0498Y00985
X0500116Y0091568
X051Y01465
X0514616Y0142568
X0501616Y0194568
X0495616Y0195568
X0482418Y0183415
X0466116Y0231568
X046Y02295
X0407Y0225
X04115Y02415
X0416Y02465
X0364618Y0234327
X03635Y0227
X0327116Y0199568
X0329Y01915
T02
X03955Y00705
X0395505Y0078
T03
X0338404Y0064446
X0360334Y0049091
M30
