G04*
G04 #@! TF.GenerationSoftware,Altium Limited,Altium Designer,21.8.1 (53)*
G04*
G04 Layer_Color=65535*
%FSLAX25Y25*%
%MOIN*%
G70*
G04*
G04 #@! TF.SameCoordinates,118D29FF-A6AF-4579-8667-5FF08CD40519*
G04*
G04*
G04 #@! TF.FilePolarity,Positive*
G04*
G01*
G75*
G36*
X109893Y208721D02*
X107514D01*
Y207469D01*
X108641D01*
Y206343D01*
X108516D01*
Y206217D01*
X105511D01*
Y206343D01*
X105260D01*
Y206217D01*
X105135D01*
Y206092D01*
X105010D01*
Y205716D01*
X105135D01*
Y205591D01*
X105010D01*
Y205216D01*
X105135D01*
Y205090D01*
X106262D01*
Y202712D01*
X107389D01*
Y202586D01*
X107514D01*
Y201460D01*
X108641D01*
Y203838D01*
X109893D01*
Y200583D01*
X112272D01*
Y199456D01*
X112397D01*
Y199331D01*
X113148D01*
Y198204D01*
D01*
D01*
X115527D01*
Y197077D01*
X115652D01*
Y196952D01*
X117906D01*
Y196827D01*
X118031D01*
Y194573D01*
X119158D01*
Y193446D01*
X119033D01*
Y193321D01*
X118031D01*
Y192194D01*
X119033D01*
Y192069D01*
X119158D01*
Y182554D01*
X118031D01*
Y183680D01*
X117906D01*
Y183806D01*
X116904D01*
Y183680D01*
X116779D01*
Y182554D01*
X115527D01*
Y183305D01*
X115652D01*
Y183555D01*
X115527D01*
Y183680D01*
X115402D01*
Y183806D01*
X114525D01*
Y183680D01*
X114400D01*
Y183305D01*
Y183180D01*
Y182554D01*
X115527D01*
Y181677D01*
X114400D01*
Y180550D01*
X114275D01*
Y180425D01*
X113148D01*
Y179298D01*
X112272D01*
Y180425D01*
X111145D01*
Y180300D01*
X111020D01*
Y178422D01*
X111145D01*
Y178297D01*
X111020D01*
Y178046D01*
X108641D01*
Y179173D01*
X108516D01*
Y179298D01*
X106638D01*
Y179173D01*
X106512D01*
Y179298D01*
X106262D01*
Y180425D01*
X105135D01*
Y180300D01*
X105010D01*
Y177170D01*
Y177044D01*
Y176794D01*
X104008D01*
Y176919D01*
X103883D01*
Y178046D01*
X102756D01*
Y178171D01*
X102631D01*
Y180300D01*
X102756D01*
Y180425D01*
X103758D01*
Y180550D01*
X103883D01*
Y181552D01*
X104008D01*
Y181677D01*
X106262D01*
Y180425D01*
X107389D01*
Y180550D01*
X107514D01*
Y181552D01*
X107389D01*
Y181677D01*
X106262D01*
Y182428D01*
X106387D01*
Y182554D01*
X107389D01*
Y182679D01*
X107514D01*
Y184932D01*
X108641D01*
Y186059D01*
X108766D01*
Y186185D01*
X111020D01*
Y186310D01*
X111145D01*
Y186560D01*
X111020D01*
Y187311D01*
D01*
D01*
X108766D01*
Y187437D01*
X108641D01*
Y189690D01*
X109267D01*
Y189815D01*
X109517D01*
Y189690D01*
X110394D01*
Y189815D01*
X110644D01*
Y189690D01*
X110895D01*
Y189815D01*
X111020D01*
Y189941D01*
X111145D01*
Y190191D01*
X111020D01*
Y191568D01*
X111145D01*
Y191694D01*
X111020D01*
Y192069D01*
X111145D01*
Y192194D01*
X112272D01*
Y193321D01*
X113148D01*
Y192194D01*
X114400D01*
Y191068D01*
X114275D01*
Y190942D01*
X112272D01*
Y189815D01*
X112397D01*
Y189690D01*
X112773D01*
Y189815D01*
X112898D01*
Y189690D01*
X114901D01*
Y189815D01*
X115152D01*
Y189690D01*
X115402D01*
Y189815D01*
X115527D01*
Y189941D01*
X115652D01*
Y190191D01*
X115527D01*
Y191819D01*
X115652D01*
Y191944D01*
X115527D01*
Y192194D01*
X114400D01*
Y193321D01*
X115527D01*
Y193572D01*
X115652D01*
Y193697D01*
X115527D01*
Y194448D01*
X115652D01*
Y194573D01*
X116779D01*
Y195700D01*
X116654D01*
Y195825D01*
X116278D01*
Y195700D01*
X116028D01*
Y195825D01*
X115778D01*
Y195700D01*
X115527D01*
Y194573D01*
X111145D01*
Y194448D01*
X111020D01*
Y193697D01*
X111145D01*
Y193572D01*
X111020D01*
Y193321D01*
X109893D01*
Y194448D01*
X109768D01*
Y194573D01*
X108766D01*
Y194699D01*
X108641D01*
Y195700D01*
D01*
D01*
X108140D01*
Y195825D01*
X107764D01*
Y195700D01*
X107639D01*
Y195825D01*
X107514D01*
Y198204D01*
X109893D01*
Y199331D01*
X107514D01*
Y200458D01*
X107389D01*
Y200583D01*
X106262D01*
Y202712D01*
X105135D01*
Y203212D01*
X105010D01*
Y203463D01*
X105135D01*
Y203713D01*
X105010D01*
Y203838D01*
X102756D01*
Y203964D01*
X102631D01*
Y204965D01*
X102756D01*
Y205090D01*
X103883D01*
Y206217D01*
X103633D01*
Y206343D01*
X103507D01*
Y206217D01*
X102756D01*
Y206343D01*
X102631D01*
Y207469D01*
X99125D01*
Y207344D01*
X99000D01*
Y206969D01*
X99125D01*
Y206843D01*
X99000D01*
Y206718D01*
X99125D01*
Y206468D01*
X99000D01*
Y206217D01*
X97873D01*
Y208596D01*
X97748D01*
Y208721D01*
X96621D01*
Y209723D01*
X96746D01*
Y209848D01*
X99000D01*
Y209723D01*
X99125D01*
Y209473D01*
X99000D01*
Y209222D01*
X99125D01*
Y209097D01*
X99000D01*
Y208847D01*
X99125D01*
Y208721D01*
X99250D01*
Y208596D01*
X99376D01*
Y208721D01*
X100252D01*
Y209848D01*
X103883D01*
Y208721D01*
X102756D01*
Y208596D01*
X102631D01*
Y207469D01*
X106262D01*
Y208596D01*
X106137D01*
Y208721D01*
X105135D01*
Y208847D01*
X105010D01*
Y209097D01*
X105135D01*
Y209473D01*
X105010D01*
Y209723D01*
X105135D01*
Y209848D01*
X109893D01*
Y208721D01*
D02*
G37*
G36*
X119158Y201460D02*
X111145D01*
Y201585D01*
X111020D01*
Y201960D01*
X111145D01*
Y202086D01*
X111020D01*
Y209222D01*
X111145D01*
Y209348D01*
X111020D01*
Y209723D01*
X111145D01*
Y209848D01*
X119158D01*
Y201460D01*
D02*
G37*
G36*
X95369Y208596D02*
X95494D01*
Y208095D01*
Y207970D01*
Y207469D01*
X96621D01*
Y206217D01*
X97873D01*
Y205090D01*
X100252D01*
Y206217D01*
X100503D01*
Y206343D01*
X100628D01*
Y206217D01*
X101504D01*
Y202712D01*
X102506D01*
Y202586D01*
X102631D01*
Y201960D01*
Y201835D01*
Y201460D01*
X101504D01*
Y202712D01*
X100252D01*
Y202837D01*
Y202962D01*
Y203838D01*
X97873D01*
Y201460D01*
X99000D01*
Y201334D01*
X99125D01*
Y201084D01*
X99000D01*
Y200708D01*
X99125D01*
Y200583D01*
X100252D01*
Y201460D01*
X99125D01*
Y202336D01*
X99000D01*
Y202461D01*
X99125D01*
Y202712D01*
X100252D01*
Y202586D01*
Y202461D01*
Y201460D01*
X101504D01*
Y200583D01*
X102631D01*
Y199331D01*
X103883D01*
Y198705D01*
Y198580D01*
Y198204D01*
X102631D01*
Y199331D01*
X101504D01*
Y198204D01*
X99125D01*
Y198329D01*
X99000D01*
Y198580D01*
X99125D01*
Y199206D01*
X99000D01*
Y199331D01*
X96621D01*
Y196952D01*
X95494D01*
Y195825D01*
X95619D01*
Y195700D01*
X96245D01*
Y195825D01*
X96496D01*
Y195700D01*
X96621D01*
Y194699D01*
X96746D01*
Y194573D01*
X97873D01*
Y195700D01*
X97998D01*
Y195825D01*
X98249D01*
Y195700D01*
X99125D01*
Y194949D01*
X99000D01*
Y194699D01*
X99125D01*
Y194573D01*
X101379D01*
Y194699D01*
X101504D01*
Y196952D01*
X102631D01*
Y195825D01*
X102756D01*
Y195700D01*
X104885D01*
Y195825D01*
X105010D01*
Y195950D01*
X105135D01*
Y196201D01*
X105010D01*
Y196326D01*
X105135D01*
Y196576D01*
X105010D01*
Y196827D01*
X105135D01*
Y196952D01*
X106262D01*
Y195825D01*
X106387D01*
Y195700D01*
X107514D01*
Y194699D01*
X107389D01*
Y194573D01*
X106262D01*
Y193321D01*
X109893D01*
Y192194D01*
X108766D01*
Y192069D01*
X108641D01*
Y189815D01*
X107639D01*
Y189690D01*
X107514D01*
Y189565D01*
Y189440D01*
Y186310D01*
X107389D01*
Y186185D01*
X106262D01*
Y188563D01*
X105135D01*
Y190567D01*
X105010D01*
Y190817D01*
X105135D01*
Y190942D01*
X107389D01*
Y191068D01*
X107514D01*
Y192069D01*
X107389D01*
Y192194D01*
X106262D01*
Y193321D01*
X105135D01*
Y193572D01*
X105010D01*
Y193822D01*
X105135D01*
Y193947D01*
X105010D01*
Y194072D01*
X105135D01*
Y194448D01*
X105010D01*
Y194573D01*
X102756D01*
Y194448D01*
X102631D01*
Y193321D01*
X103883D01*
Y192194D01*
X102631D01*
Y193321D01*
X101504D01*
Y192194D01*
X102631D01*
Y191068D01*
X102756D01*
Y190942D01*
X103883D01*
Y189815D01*
X103758D01*
Y189690D01*
X103507D01*
Y189815D01*
X100628D01*
Y189690D01*
X100377D01*
Y189815D01*
X100252D01*
Y190942D01*
X99125D01*
Y191193D01*
X99000D01*
Y191318D01*
X99125D01*
Y192194D01*
X100252D01*
Y193321D01*
X99125D01*
Y193196D01*
X99000D01*
Y192946D01*
X99125D01*
Y192320D01*
X99000D01*
Y192194D01*
X97998D01*
Y192069D01*
X97873D01*
Y189815D01*
X97748D01*
Y189690D01*
X97497D01*
Y189815D01*
X96746D01*
Y189690D01*
X96621D01*
Y187311D01*
X97748D01*
Y187437D01*
X97873D01*
Y188563D01*
X99000D01*
Y188438D01*
X99125D01*
Y188063D01*
X99000D01*
Y187937D01*
X99125D01*
Y186685D01*
X99000D01*
Y186435D01*
X99125D01*
Y185809D01*
X99000D01*
Y185684D01*
X99125D01*
Y185433D01*
X99000D01*
Y185058D01*
X99125D01*
Y184932D01*
X100252D01*
Y183806D01*
X100377D01*
Y183680D01*
X100628D01*
Y183806D01*
X101379D01*
Y183680D01*
X101504D01*
Y182679D01*
X101379D01*
Y182554D01*
X100252D01*
Y181677D01*
X101379D01*
Y181552D01*
X101504D01*
Y179298D01*
X101254D01*
Y179173D01*
X101128D01*
Y179298D01*
X100628D01*
Y179173D01*
X100503D01*
Y179298D01*
X100252D01*
Y180801D01*
Y180926D01*
Y181677D01*
X97873D01*
Y182554D01*
X96746D01*
Y182428D01*
X96621D01*
Y181677D01*
X95494D01*
Y183806D01*
X94618D01*
Y183680D01*
X94493D01*
Y183806D01*
X94242D01*
Y184932D01*
X92239D01*
Y185058D01*
X92114D01*
Y185558D01*
Y185684D01*
Y186059D01*
X92239D01*
Y186185D01*
X94117D01*
Y186059D01*
X94242D01*
Y184932D01*
X95369D01*
Y184807D01*
X95494D01*
Y183806D01*
X97497D01*
Y183680D01*
X97748D01*
Y183806D01*
X97873D01*
Y186059D01*
X97748D01*
Y186185D01*
X96746D01*
Y186310D01*
X96621D01*
Y187311D01*
X95619D01*
Y187437D01*
X95494D01*
Y190942D01*
X93366D01*
Y192069D01*
X93241D01*
Y192194D01*
X88608D01*
Y194198D01*
X88483D01*
Y194323D01*
X88608D01*
Y194573D01*
X89735D01*
Y193446D01*
X89860D01*
Y193321D01*
X90862D01*
Y193446D01*
X90987D01*
Y194573D01*
X89735D01*
Y195700D01*
X89610D01*
Y195825D01*
X89359D01*
Y195700D01*
X89109D01*
Y195825D01*
X88984D01*
Y195700D01*
X88733D01*
Y195825D01*
X88608D01*
Y195950D01*
X88483D01*
Y196076D01*
X88608D01*
Y196952D01*
X86104D01*
Y198079D01*
X86229D01*
Y198204D01*
X87356D01*
Y199331D01*
X86229D01*
Y199206D01*
X86104D01*
Y198204D01*
X84977D01*
Y200583D01*
X87231D01*
Y200458D01*
X87356D01*
Y199331D01*
X89735D01*
Y198204D01*
X88608D01*
Y197954D01*
X88483D01*
Y197829D01*
X88608D01*
Y196952D01*
X90862D01*
Y196827D01*
X90987D01*
Y194573D01*
X92114D01*
Y193446D01*
X92239D01*
Y193321D01*
X93241D01*
Y193446D01*
X93366D01*
Y194573D01*
X92114D01*
Y195700D01*
X92364D01*
Y195825D01*
X92615D01*
Y195700D01*
X94117D01*
Y195825D01*
X94242D01*
Y196952D01*
X92239D01*
Y197077D01*
X92114D01*
Y198079D01*
X92239D01*
Y198204D01*
X95494D01*
Y199331D01*
X94367D01*
Y199456D01*
X94242D01*
Y202586D01*
X94367D01*
Y202712D01*
X95369D01*
Y202586D01*
X95494D01*
Y200583D01*
X97873D01*
Y201460D01*
X96746D01*
Y201585D01*
X96621D01*
Y206217D01*
X95619D01*
Y206343D01*
X95494D01*
Y207469D01*
X94367D01*
Y207595D01*
X94242D01*
Y208596D01*
X94367D01*
Y208721D01*
X95369D01*
Y208596D01*
D02*
G37*
G36*
X93366Y201460D02*
X84977D01*
Y209848D01*
X93366D01*
Y201460D01*
D02*
G37*
G36*
X105010Y200583D02*
X103883D01*
Y202586D01*
X104008D01*
Y202712D01*
X105010D01*
Y200583D01*
D02*
G37*
G36*
X106262Y199456D02*
X106137D01*
Y199331D01*
X105135D01*
Y199582D01*
X105010D01*
Y199832D01*
X105135D01*
Y200583D01*
X106262D01*
Y199456D01*
D02*
G37*
G36*
X93241Y200458D02*
X93366D01*
Y199456D01*
X93241D01*
Y199331D01*
X92239D01*
Y199456D01*
X92114D01*
Y200082D01*
Y200207D01*
Y200458D01*
X92239D01*
Y200583D01*
X93241D01*
Y200458D01*
D02*
G37*
G36*
X117906D02*
X118031D01*
Y199707D01*
X117906D01*
Y199582D01*
X118031D01*
Y199331D01*
X119158D01*
Y198204D01*
X115527D01*
Y198455D01*
Y198580D01*
Y199206D01*
X115652D01*
Y199331D01*
X116654D01*
Y199456D01*
X116779D01*
Y200458D01*
X116904D01*
Y200583D01*
X117906D01*
Y200458D01*
D02*
G37*
G36*
X100252Y195825D02*
X100127D01*
Y195700D01*
X99751D01*
Y195825D01*
X99501D01*
Y195700D01*
X99125D01*
Y196576D01*
X99000D01*
Y196827D01*
X99125D01*
Y196952D01*
X100252D01*
Y195825D01*
D02*
G37*
G36*
X102631Y187311D02*
X101504D01*
Y188438D01*
Y188563D01*
X102631D01*
Y187311D01*
D02*
G37*
G36*
X86104Y195700D02*
X86980D01*
Y195825D01*
X87231D01*
Y195700D01*
X87356D01*
Y190942D01*
X93366D01*
Y189815D01*
X92239D01*
Y189690D01*
X92114D01*
Y188563D01*
X93366D01*
Y189690D01*
X93867D01*
Y189815D01*
X94117D01*
Y189690D01*
X94242D01*
Y187437D01*
X94117D01*
Y187311D01*
X92239D01*
Y187437D01*
X92114D01*
Y188563D01*
X90987D01*
Y186185D01*
X89735D01*
Y188563D01*
X88608D01*
Y189690D01*
X88358D01*
Y189815D01*
X87982D01*
Y189690D01*
X87857D01*
Y189815D01*
X87481D01*
Y189690D01*
X87356D01*
Y188563D01*
X88608D01*
Y187812D01*
Y187687D01*
Y187437D01*
X88483D01*
Y187311D01*
X87481D01*
Y187437D01*
X87356D01*
Y188563D01*
X86229D01*
Y188689D01*
X86104D01*
Y195700D01*
X85728D01*
Y195825D01*
X85353D01*
Y195700D01*
X85102D01*
Y195825D01*
X84977D01*
Y196952D01*
X86104D01*
Y195700D01*
D02*
G37*
G36*
X105010Y185058D02*
X105135D01*
Y184932D01*
X106262D01*
Y183806D01*
X106011D01*
Y183680D01*
X105886D01*
Y183806D01*
X104008D01*
Y183680D01*
X103883D01*
Y182554D01*
X102756D01*
Y182679D01*
X102631D01*
Y183680D01*
X102506D01*
Y183806D01*
X101504D01*
Y184807D01*
X101379D01*
Y184932D01*
X100252D01*
Y187311D01*
X101504D01*
Y186185D01*
X103883D01*
Y186560D01*
Y186685D01*
Y188563D01*
X105010D01*
Y185058D01*
D02*
G37*
G36*
X89735Y184932D02*
X88608D01*
Y185183D01*
X88483D01*
Y185308D01*
X88608D01*
Y185809D01*
X88483D01*
Y185934D01*
X88608D01*
Y186185D01*
X89735D01*
Y184932D01*
D02*
G37*
G36*
X86104Y186310D02*
X86229D01*
Y186185D01*
X87231D01*
Y186059D01*
X87356D01*
Y185058D01*
X87231D01*
Y184932D01*
X84977D01*
Y187311D01*
X86104D01*
Y186310D01*
D02*
G37*
G36*
X93241Y183680D02*
X93366D01*
Y175667D01*
X84977D01*
Y176168D01*
Y176293D01*
Y183680D01*
X85102D01*
Y183806D01*
X85478D01*
Y183680D01*
X85603D01*
Y183806D01*
X92740D01*
Y183680D01*
X92865D01*
Y183806D01*
X93241D01*
Y183680D01*
D02*
G37*
G36*
X97873Y179298D02*
X97623D01*
Y179173D01*
X97497D01*
Y179298D01*
X95494D01*
Y180425D01*
X97873D01*
Y179298D01*
D02*
G37*
G36*
X119158Y180550D02*
Y180425D01*
Y179298D01*
X118156D01*
Y179173D01*
X118031D01*
Y179048D01*
X117906D01*
Y178923D01*
X118031D01*
Y178171D01*
X117906D01*
Y178046D01*
X116779D01*
Y180425D01*
X115652D01*
Y180550D01*
X115527D01*
Y181552D01*
X115652D01*
Y181677D01*
X119158D01*
Y180550D01*
D02*
G37*
G36*
X108641Y176919D02*
X108516D01*
Y176794D01*
X107514D01*
Y178046D01*
X108641D01*
Y176919D01*
D02*
G37*
G36*
X116779Y176794D02*
X117906D01*
Y176669D01*
X118031D01*
Y175793D01*
X117906D01*
Y175667D01*
X116779D01*
Y176794D01*
X113524D01*
Y176919D01*
X113399D01*
Y176794D01*
X113148D01*
Y175667D01*
X112272D01*
Y178046D01*
X116779D01*
Y176794D01*
D02*
G37*
G36*
X111020Y176669D02*
X111145D01*
Y176544D01*
X111020D01*
Y176043D01*
X111145D01*
Y175793D01*
X111020D01*
Y175667D01*
X109893D01*
Y176794D01*
X111020D01*
Y176669D01*
D02*
G37*
G36*
X107514Y176168D02*
Y176043D01*
Y175793D01*
X107389D01*
Y175667D01*
X105135D01*
Y175793D01*
X105010D01*
Y176043D01*
X105135D01*
Y176794D01*
X107514D01*
Y176168D01*
D02*
G37*
G36*
X100252Y176794D02*
X101504D01*
Y175793D01*
X101379D01*
Y175667D01*
X100252D01*
Y176794D01*
X99125D01*
Y177044D01*
X99000D01*
Y177170D01*
Y177295D01*
X99125D01*
Y177671D01*
X99000D01*
Y177921D01*
X99125D01*
Y178046D01*
X100252D01*
Y176794D01*
D02*
G37*
G36*
X96621Y176919D02*
X96496D01*
Y176794D01*
X95494D01*
Y175667D01*
X94242D01*
Y177921D01*
X94367D01*
Y178046D01*
X96621D01*
Y176919D01*
D02*
G37*
%LPC*%
G36*
X113148Y198204D02*
X112397D01*
Y198079D01*
X112272D01*
Y195825D01*
X112397D01*
Y195700D01*
X113023D01*
Y195825D01*
X113148D01*
Y198204D01*
D01*
D01*
D02*
G37*
G36*
X111020Y196952D02*
X108766D01*
Y196827D01*
X108641D01*
Y195700D01*
D01*
D01*
X110895D01*
Y195825D01*
X111020D01*
Y195950D01*
X111145D01*
Y196201D01*
X111020D01*
Y196576D01*
X111145D01*
Y196827D01*
X111020D01*
Y196952D01*
D02*
G37*
G36*
X118031Y192194D02*
X116904D01*
Y192069D01*
X116779D01*
Y190942D01*
X117906D01*
Y191068D01*
X118031D01*
Y192194D01*
D02*
G37*
G36*
X117906Y189815D02*
X117405D01*
Y189690D01*
X117280D01*
Y189815D01*
X116904D01*
Y189690D01*
X116779D01*
Y188563D01*
X115652D01*
Y188438D01*
X115527D01*
Y187687D01*
X115652D01*
Y187562D01*
X115527D01*
Y187311D01*
X114400D01*
Y188438D01*
X114275D01*
Y188563D01*
X113273D01*
Y188438D01*
X113148D01*
Y187437D01*
X113273D01*
Y187311D01*
X114400D01*
Y186185D01*
X115527D01*
Y185934D01*
X115652D01*
Y185809D01*
X115527D01*
Y185058D01*
X115652D01*
Y184932D01*
X116779D01*
Y186059D01*
X116904D01*
Y186185D01*
X117906D01*
Y186310D01*
X118031D01*
Y189690D01*
X117906D01*
Y189815D01*
D02*
G37*
G36*
X112272Y188563D02*
X111145D01*
Y188438D01*
X111020D01*
Y187311D01*
D01*
D01*
X112146D01*
Y187437D01*
X112272D01*
Y188563D01*
D02*
G37*
G36*
X113148Y184932D02*
X109893D01*
Y181677D01*
X113148D01*
Y184932D01*
D02*
G37*
%LPD*%
G36*
X112146Y183680D02*
X112272D01*
Y182554D01*
X111145D01*
Y182679D01*
X111020D01*
Y183054D01*
X111145D01*
Y183305D01*
X111020D01*
Y183555D01*
X111145D01*
Y183680D01*
X111270D01*
Y183806D01*
X111521D01*
Y183680D01*
X111771D01*
Y183806D01*
X112146D01*
Y183680D01*
D02*
G37*
%LPC*%
G36*
X117906Y208721D02*
X112397D01*
Y208596D01*
X112272D01*
Y202712D01*
X118031D01*
Y208596D01*
X117906D01*
Y208721D01*
D02*
G37*
%LPD*%
G36*
X116779Y203964D02*
X116654D01*
Y203838D01*
X113273D01*
Y203964D01*
X113148D01*
Y204214D01*
Y204339D01*
Y207344D01*
X113273D01*
Y207469D01*
X116779D01*
Y203964D01*
D02*
G37*
%LPC*%
G36*
X95369Y194573D02*
X94367D01*
Y194448D01*
X94242D01*
Y193446D01*
X94367D01*
Y193321D01*
X95494D01*
Y192194D01*
X96621D01*
Y193071D01*
Y193196D01*
Y193321D01*
X95494D01*
Y194448D01*
X95369D01*
Y194573D01*
D02*
G37*
G36*
X91988Y208721D02*
X86229D01*
Y208596D01*
X86104D01*
Y202837D01*
X86229D01*
Y202712D01*
X92114D01*
Y205216D01*
Y205341D01*
Y208596D01*
X91988D01*
Y208721D01*
D02*
G37*
%LPD*%
G36*
X90862Y207344D02*
X90987D01*
Y207219D01*
Y203964D01*
X90862D01*
Y203838D01*
X87481D01*
Y203964D01*
X87356D01*
Y207469D01*
X90862D01*
Y207344D01*
D02*
G37*
%LPC*%
G36*
X92114Y182554D02*
X86229D01*
Y182428D01*
X86104D01*
Y176919D01*
X86229D01*
Y176794D01*
X92114D01*
Y182554D01*
D02*
G37*
%LPD*%
G36*
X90862Y181552D02*
X90987D01*
Y178171D01*
X90862D01*
Y178046D01*
X87356D01*
Y181552D01*
X87481D01*
Y181677D01*
X90862D01*
Y181552D01*
D02*
G37*
M02*
