G04*
G04 #@! TF.GenerationSoftware,Altium Limited,Altium Designer,21.8.1 (53)*
G04*
G04 Layer_Color=65535*
%FSLAX25Y25*%
%MOIN*%
G70*
G04*
G04 #@! TF.SameCoordinates,F7B90343-5375-4ADF-B2E4-EC9B57443FC4*
G04*
G04*
G04 #@! TF.FilePolarity,Positive*
G04*
G01*
G75*
G36*
X404747Y250125D02*
X404789Y250124D01*
X404831Y250123D01*
X404873Y250122D01*
X404913Y250121D01*
X404951Y250119D01*
X404989Y250118D01*
X405027Y250116D01*
X405064Y250114D01*
X405101Y250111D01*
X405138Y250109D01*
X405174Y250106D01*
X405210Y250103D01*
X405244Y250100D01*
X405278Y250097D01*
X405311Y250094D01*
X405329Y250092D01*
Y250092D01*
X405345Y250090D01*
X405377Y250087D01*
X405410Y250083D01*
X405442Y250079D01*
X405459Y250077D01*
X405474Y250075D01*
X405506Y250071D01*
X405537Y250067D01*
X405568Y250063D01*
X405598Y250058D01*
X405628Y250054D01*
X405658Y250049D01*
X405671Y250047D01*
X406133Y249953D01*
X406463Y249858D01*
X406783Y249751D01*
X406783Y249751D01*
X407207Y249568D01*
X407248Y249548D01*
X407654Y249321D01*
X408043Y249052D01*
X408050Y249045D01*
X408071Y249030D01*
X408091Y249013D01*
X408098Y249008D01*
X408126Y248980D01*
X408140Y248965D01*
X408142Y248961D01*
X408174Y248901D01*
X408191Y248854D01*
X408217Y248730D01*
X408218Y248726D01*
X408224Y248653D01*
X408235Y248409D01*
X407834Y247947D01*
X407817Y247930D01*
X407791Y247909D01*
X407767Y247892D01*
X407753Y247883D01*
X407732Y247872D01*
X407705Y247861D01*
X407688Y247856D01*
X407669Y247850D01*
X407269Y247792D01*
X407246Y247813D01*
X407223Y247833D01*
X407211Y247843D01*
X407195Y247856D01*
X407163Y247882D01*
X407131Y247908D01*
X407098Y247933D01*
X407082Y247946D01*
X407002Y248006D01*
X406836Y248118D01*
X406665Y248221D01*
X406488Y248315D01*
X406398Y248358D01*
X406383Y248365D01*
X406358Y248376D01*
X406354Y248378D01*
X406354Y248378D01*
X406324Y248391D01*
X406324Y248391D01*
X406295Y248404D01*
X406294Y248404D01*
X406280Y248410D01*
X406280Y248410D01*
X406267Y248415D01*
X406267Y248415D01*
X406242Y248426D01*
X406242Y248426D01*
X406217Y248436D01*
X406217Y248436D01*
X406192Y248446D01*
X406192Y248446D01*
X406180Y248451D01*
X406179Y248451D01*
X406168Y248455D01*
X406168Y248455D01*
X406145Y248464D01*
X406145Y248464D01*
X406122Y248472D01*
X406122Y248472D01*
X406099Y248481D01*
X406099Y248481D01*
X406088Y248485D01*
X406087Y248485D01*
X406078Y248488D01*
X406077Y248488D01*
X406057Y248495D01*
X406056Y248496D01*
X406036Y248502D01*
X406035Y248503D01*
X406016Y248510D01*
X406014Y248510D01*
X406005Y248513D01*
X406004Y248514D01*
X405995Y248516D01*
X405993Y248517D01*
X405975Y248523D01*
X405972Y248524D01*
X405955Y248529D01*
X405947Y248532D01*
X405935Y248535D01*
X405925Y248538D01*
X405922Y248539D01*
X405916Y248541D01*
X405904Y248545D01*
X405898Y248547D01*
X405883Y248551D01*
X405879Y248552D01*
X405863Y248557D01*
X405861Y248558D01*
X405854Y248560D01*
X405852Y248560D01*
X405844Y248562D01*
X405843Y248563D01*
X405827Y248567D01*
X405825Y248568D01*
X405809Y248572D01*
X405807Y248573D01*
X405791Y248577D01*
X405790Y248577D01*
X405782Y248580D01*
X405781Y248580D01*
X405773Y248582D01*
X405772Y248582D01*
X405756Y248586D01*
X405755Y248587D01*
X405739Y248591D01*
X405738Y248591D01*
X405722Y248595D01*
X405721Y248595D01*
X405705Y248599D01*
X405704Y248599D01*
X405688Y248603D01*
X405687Y248604D01*
X405670Y248607D01*
X405670Y248607D01*
X405653Y248611D01*
X405653Y248611D01*
X405645Y248613D01*
X405644Y248613D01*
X405580Y248628D01*
X405579Y248628D01*
X405517Y248640D01*
X405517Y248640D01*
X405454Y248652D01*
X405392Y248663D01*
X405332Y248672D01*
X405272Y248680D01*
X405212Y248688D01*
X405156Y248694D01*
X405098Y248700D01*
X405042Y248705D01*
X404984Y248709D01*
X404927Y248713D01*
X404869Y248715D01*
X404815Y248717D01*
X404761Y248719D01*
X404706Y248720D01*
X404652Y248720D01*
X404597Y248719D01*
X404542Y248718D01*
X404487Y248716D01*
X404432Y248714D01*
X404377Y248711D01*
X404321Y248707D01*
X404266Y248703D01*
X404251Y248702D01*
X404187Y248696D01*
X404130Y248690D01*
X404074Y248683D01*
X404018Y248676D01*
X403962Y248669D01*
X403907Y248660D01*
X403852Y248651D01*
X403798Y248642D01*
X403743Y248632D01*
X403690Y248621D01*
X403630Y248608D01*
X403570Y248595D01*
X403511Y248580D01*
X403452Y248565D01*
X403394Y248550D01*
X403337Y248533D01*
X403273Y248514D01*
X403210Y248494D01*
X403148Y248473D01*
X403087Y248451D01*
X403087Y248451D01*
X403079Y248448D01*
X403062Y248442D01*
X403045Y248436D01*
X403028Y248430D01*
X403020Y248427D01*
X403012Y248423D01*
X402995Y248417D01*
X402979Y248410D01*
X402962Y248404D01*
X402954Y248400D01*
X402945Y248397D01*
X402927Y248390D01*
X402909Y248382D01*
X402891Y248375D01*
X402882Y248371D01*
X402874Y248367D01*
X402856Y248360D01*
X402839Y248352D01*
X402821Y248344D01*
X402812Y248340D01*
X402803Y248336D01*
X402784Y248327D01*
X402765Y248319D01*
X402746Y248310D01*
X402737Y248306D01*
X402728Y248301D01*
X402709Y248292D01*
X402691Y248283D01*
X402672Y248274D01*
X402663Y248270D01*
X402653Y248265D01*
X402634Y248255D01*
X402614Y248245D01*
X402594Y248235D01*
X402585Y248229D01*
X402574Y248224D01*
X402554Y248213D01*
X402533Y248201D01*
X402512Y248190D01*
X402502Y248184D01*
X402491Y248178D01*
X402469Y248166D01*
X402448Y248153D01*
X402426Y248141D01*
X402416Y248134D01*
X402404Y248127D01*
X402380Y248113D01*
X402356Y248098D01*
X402332Y248083D01*
X402321Y248076D01*
X402307Y248067D01*
X402280Y248049D01*
X402253Y248031D01*
X402226Y248013D01*
X402213Y248004D01*
X402197Y247993D01*
X402165Y247971D01*
X402134Y247949D01*
X402103Y247926D01*
X402088Y247914D01*
X402067Y247899D01*
X402026Y247867D01*
X401986Y247834D01*
X401946Y247801D01*
X401926Y247785D01*
Y247785D01*
X401834Y247705D01*
X401660Y247536D01*
X401498Y247356D01*
X401348Y247165D01*
X401278Y247066D01*
X401267Y247049D01*
X401245Y247016D01*
X401224Y246983D01*
X401203Y246950D01*
X401192Y246933D01*
X401183Y246919D01*
X401166Y246890D01*
X401149Y246861D01*
X401132Y246832D01*
X401123Y246817D01*
X401116Y246804D01*
X401102Y246779D01*
X401088Y246753D01*
X401074Y246728D01*
X401067Y246715D01*
X401061Y246703D01*
X401049Y246680D01*
X401037Y246657D01*
X401025Y246633D01*
X401019Y246621D01*
X401014Y246610D01*
X401003Y246588D01*
X400992Y246566D01*
X400982Y246543D01*
X400977Y246532D01*
X400972Y246521D01*
X400962Y246500D01*
X400953Y246479D01*
X400943Y246458D01*
X400939Y246447D01*
X400934Y246437D01*
X400926Y246417D01*
X400917Y246397D01*
X400909Y246376D01*
X400905Y246366D01*
X400901Y246356D01*
X400892Y246336D01*
X400884Y246316D01*
X400877Y246295D01*
X400873Y246285D01*
X400869Y246275D01*
X400862Y246256D01*
X400855Y246237D01*
X400848Y246218D01*
X400844Y246208D01*
X400841Y246198D01*
X400834Y246179D01*
X400827Y246159D01*
X400821Y246140D01*
X400817Y246130D01*
X400817Y246130D01*
X400814Y246121D01*
X400808Y246103D01*
X400803Y246085D01*
X400797Y246067D01*
X400794Y246058D01*
X400791Y246049D01*
X400785Y246030D01*
X400780Y246012D01*
X400774Y245994D01*
X400772Y245984D01*
X400752Y245917D01*
X400734Y245848D01*
X400717Y245779D01*
X400701Y245709D01*
X400688Y245646D01*
X400675Y245581D01*
X400663Y245516D01*
X400652Y245451D01*
X400642Y245386D01*
X400633Y245319D01*
X400626Y245259D01*
X400619Y245199D01*
X400614Y245139D01*
X400609Y245077D01*
X400604Y245016D01*
X400601Y244954D01*
X400598Y244892D01*
X400596Y244830D01*
X400595Y244767D01*
X400594Y244704D01*
Y244696D01*
X400595Y244680D01*
X400595Y244665D01*
X400595Y244649D01*
X400595Y244641D01*
X400596Y244584D01*
X400597Y244527D01*
X400600Y244470D01*
X400602Y244413D01*
X400606Y244356D01*
X400610Y244298D01*
X400614Y244254D01*
X400620Y244189D01*
X400626Y244131D01*
X400633Y244066D01*
X400641Y244002D01*
X400650Y243938D01*
X400660Y243875D01*
X400670Y243812D01*
X400681Y243749D01*
X400693Y243687D01*
X400705Y243625D01*
X400718Y243564D01*
X400732Y243504D01*
X400747Y243443D01*
X400762Y243384D01*
X400778Y243324D01*
X400797Y243259D01*
X400816Y243194D01*
X400836Y243130D01*
X400857Y243067D01*
X400879Y243004D01*
X400902Y242942D01*
X400928Y242874D01*
X400955Y242807D01*
X400983Y242741D01*
X401012Y242675D01*
X401042Y242611D01*
X401042Y242611D01*
X401046Y242602D01*
X401054Y242585D01*
X401063Y242567D01*
X401071Y242550D01*
X401076Y242541D01*
X401080Y242532D01*
X401089Y242515D01*
X401097Y242498D01*
X401106Y242481D01*
X401111Y242473D01*
X401115Y242464D01*
X401124Y242447D01*
X401133Y242430D01*
X401142Y242413D01*
X401147Y242405D01*
X401151Y242396D01*
X401161Y242378D01*
X401171Y242360D01*
X401182Y242342D01*
X401187Y242333D01*
X401192Y242324D01*
X401202Y242306D01*
X401212Y242288D01*
X401223Y242270D01*
X401228Y242262D01*
X401234Y242252D01*
X401245Y242233D01*
X401257Y242214D01*
X401268Y242196D01*
X401274Y242186D01*
X401280Y242176D01*
X401293Y242156D01*
X401306Y242137D01*
X401319Y242117D01*
X401325Y242107D01*
X401332Y242097D01*
X401345Y242078D01*
X401358Y242058D01*
X401371Y242039D01*
X401378Y242030D01*
X401385Y242019D01*
X401399Y241999D01*
X401414Y241979D01*
X401428Y241959D01*
X401436Y241949D01*
X401444Y241937D01*
X401461Y241915D01*
X401478Y241893D01*
X401495Y241871D01*
X401503Y241860D01*
X401512Y241848D01*
X401531Y241825D01*
X401549Y241803D01*
X401568Y241780D01*
X401577Y241769D01*
X401587Y241756D01*
X401608Y241732D01*
X401629Y241707D01*
X401650Y241683D01*
X401661Y241671D01*
X401674Y241657D01*
X401700Y241628D01*
X401726Y241600D01*
X401752Y241573D01*
X401765Y241559D01*
X401783Y241541D01*
X401817Y241507D01*
X401852Y241473D01*
X401887Y241439D01*
X401905Y241423D01*
X401938Y241393D01*
X402004Y241335D01*
X402071Y241278D01*
X402140Y241223D01*
X402175Y241196D01*
X402238Y241150D01*
X402365Y241061D01*
X402462Y241000D01*
X402496Y240978D01*
X402497Y240978D01*
X402631Y240901D01*
X402632Y240901D01*
X402700Y240865D01*
X402700Y240864D01*
X402721Y240854D01*
X402722Y240854D01*
X402764Y240832D01*
X402765Y240832D01*
X402807Y240812D01*
X402809Y240810D01*
X402850Y240792D01*
X402871Y240782D01*
Y240782D01*
X402888Y240774D01*
X402919Y240760D01*
X402922Y240759D01*
X402955Y240745D01*
X402956Y240744D01*
X402990Y240730D01*
X402990Y240730D01*
X403007Y240723D01*
X403008Y240723D01*
X403022Y240717D01*
X403023Y240717D01*
X403053Y240705D01*
X403053Y240705D01*
X403083Y240693D01*
X403084Y240693D01*
X403114Y240682D01*
X403114Y240682D01*
X403129Y240676D01*
X403129Y240676D01*
X403142Y240671D01*
X403142Y240671D01*
X403169Y240662D01*
X403169Y240662D01*
X403195Y240653D01*
X403196Y240653D01*
X403222Y240644D01*
X403222Y240644D01*
X403235Y240639D01*
X403235Y240639D01*
X403248Y240635D01*
X403248Y240635D01*
X403273Y240627D01*
X403274Y240627D01*
X403299Y240619D01*
X403299Y240619D01*
X403303Y240617D01*
X403325Y240611D01*
X403337Y240607D01*
X403349Y240604D01*
X403371Y240597D01*
X403394Y240590D01*
X403417Y240584D01*
X403428Y240581D01*
X403439Y240578D01*
X403461Y240572D01*
X403482Y240566D01*
X403504Y240561D01*
X403514Y240558D01*
X403525Y240556D01*
X403547Y240550D01*
X403569Y240545D01*
X403590Y240540D01*
X403601Y240538D01*
Y240538D01*
X403611Y240535D01*
X403632Y240531D01*
X403652Y240526D01*
X403673Y240522D01*
X403692Y240518D01*
X403711Y240514D01*
X403730Y240511D01*
X403749Y240507D01*
X403759Y240505D01*
X403768Y240504D01*
X403787Y240500D01*
X403806Y240497D01*
X403826Y240493D01*
X403835Y240492D01*
X403906Y240481D01*
X403977Y240471D01*
X404049Y240462D01*
X404115Y240456D01*
X404181Y240450D01*
X404248Y240445D01*
X404315Y240441D01*
X404376Y240439D01*
X404437Y240437D01*
X404498Y240436D01*
X404560Y240436D01*
X404622Y240437D01*
X404684Y240438D01*
X404747Y240441D01*
X404803Y240444D01*
X404859Y240447D01*
X404915Y240451D01*
X404936Y240453D01*
X404996Y240458D01*
X405050Y240464D01*
X405104Y240470D01*
X405157Y240477D01*
X405205Y240483D01*
X405253Y240490D01*
X405301Y240498D01*
X405348Y240506D01*
X405395Y240514D01*
X405442Y240523D01*
X405489Y240532D01*
X405536Y240542D01*
X405582Y240553D01*
X405628Y240563D01*
X405674Y240575D01*
X405720Y240586D01*
X405765Y240599D01*
X405810Y240611D01*
X405855Y240625D01*
X405899Y240638D01*
X405944Y240652D01*
X405988Y240667D01*
X406032Y240682D01*
X406075Y240698D01*
X406123Y240716D01*
X406171Y240734D01*
X406219Y240753D01*
X406219Y240754D01*
X406266Y240773D01*
X406266Y240773D01*
X406312Y240793D01*
X406313Y240793D01*
X406359Y240814D01*
X406359Y240814D01*
X406404Y240836D01*
X406405Y240836D01*
X406455Y240860D01*
X406455Y240861D01*
X406504Y240885D01*
X406505Y240886D01*
X406553Y240911D01*
X406602Y240938D01*
X406603Y240939D01*
X406608Y240941D01*
X406622Y240949D01*
X406635Y240956D01*
X406648Y240964D01*
X406653Y240967D01*
X406654Y240967D01*
X406661Y240971D01*
X406674Y240979D01*
X406687Y240986D01*
X406700Y240994D01*
X406706Y240998D01*
X406713Y241002D01*
X406727Y241011D01*
X406741Y241019D01*
X406755Y241028D01*
X406762Y241032D01*
X406768Y241037D01*
X406782Y241045D01*
X406796Y241054D01*
X406809Y241063D01*
X406816Y241068D01*
X406823Y241072D01*
X406834Y241079D01*
X406838Y241082D01*
X406851Y241091D01*
X406853Y241092D01*
X406866Y241101D01*
X406867Y241102D01*
X406873Y241106D01*
X406874Y241107D01*
X406881Y241112D01*
X406882Y241112D01*
X406897Y241122D01*
X406897Y241123D01*
X406912Y241133D01*
X406913Y241134D01*
X406927Y241144D01*
X406928Y241144D01*
X406935Y241150D01*
X406936Y241150D01*
X406943Y241156D01*
X406944Y241156D01*
X406959Y241167D01*
X406960Y241168D01*
X406976Y241179D01*
X406976Y241180D01*
X406991Y241191D01*
X406992Y241192D01*
X406999Y241197D01*
X407000Y241198D01*
X407008Y241204D01*
X407009Y241205D01*
X407026Y241218D01*
X407026Y241218D01*
X407044Y241232D01*
X407044Y241232D01*
X407061Y241246D01*
X407062Y241246D01*
X407070Y241253D01*
X407070Y241253D01*
X407081Y241261D01*
X407081Y241261D01*
X407101Y241278D01*
X407101Y241278D01*
X407121Y241295D01*
X407121Y241295D01*
X407141Y241312D01*
X407141Y241312D01*
X407151Y241320D01*
X407151Y241320D01*
X407164Y241332D01*
X407164Y241332D01*
X407190Y241355D01*
X407190Y241355D01*
X407195Y241359D01*
X407216Y241378D01*
X407242Y241402D01*
X407255Y241414D01*
X407320Y241477D01*
X407444Y241610D01*
X407557Y241744D01*
X407561Y241749D01*
X407561Y241749D01*
X407669Y241894D01*
X407669Y241895D01*
X407720Y241970D01*
X407720Y241970D01*
X407720Y241970D01*
X407720Y241970D01*
X407727Y241981D01*
X407727Y241981D01*
X407727Y241981D01*
X407727Y241981D01*
X407741Y242002D01*
X407741Y242003D01*
X407741Y242003D01*
X407742Y242003D01*
X407755Y242024D01*
X407755Y242024D01*
X407756Y242025D01*
X407756Y242025D01*
X407769Y242046D01*
X407769Y242046D01*
X407769Y242047D01*
X407769Y242047D01*
X407776Y242057D01*
X407776Y242057D01*
X407776Y242058D01*
X407776Y242058D01*
X407781Y242067D01*
X407782Y242067D01*
X407782Y242068D01*
X407782Y242068D01*
X407793Y242086D01*
X407793Y242086D01*
X407794Y242088D01*
X407794Y242088D01*
X407804Y242105D01*
X407804Y242105D01*
X407806Y242109D01*
X407806Y242109D01*
X407815Y242124D01*
X407816Y242125D01*
X407821Y242134D01*
X407822Y242135D01*
X407826Y242143D01*
X407826Y242143D01*
X407836Y242160D01*
X407836Y242160D01*
X407845Y242177D01*
X407845Y242178D01*
X407855Y242195D01*
X407855Y242195D01*
X407860Y242203D01*
X407860Y242204D01*
X407864Y242211D01*
X407864Y242211D01*
X407872Y242226D01*
X407872Y242227D01*
X407880Y242241D01*
X407880Y242242D01*
X407888Y242257D01*
X407888Y242258D01*
X407892Y242264D01*
X407892Y242265D01*
X407895Y242271D01*
X407896Y242273D01*
X407903Y242286D01*
X407904Y242288D01*
X407910Y242300D01*
X407912Y242304D01*
X407917Y242315D01*
X407921Y242322D01*
X407922Y242324D01*
X407924Y242328D01*
X407927Y242336D01*
X407930Y242342D01*
X407935Y242351D01*
X407937Y242355D01*
X407942Y242366D01*
X407943Y242368D01*
X407945Y242373D01*
X407946Y242375D01*
X407948Y242380D01*
X407949Y242382D01*
X407955Y242394D01*
X407956Y242395D01*
X407961Y242407D01*
X407962Y242409D01*
X407967Y242421D01*
X407968Y242423D01*
X407970Y242428D01*
X407971Y242429D01*
X407992Y242478D01*
X407993Y242479D01*
X408013Y242529D01*
X408014Y242530D01*
X408032Y242575D01*
X408032Y242576D01*
X408050Y242622D01*
X408050Y242622D01*
X408067Y242669D01*
X408067Y242669D01*
X408082Y242711D01*
X408082Y242712D01*
X408097Y242754D01*
X408097Y242754D01*
X408099Y242761D01*
X408111Y242797D01*
X408124Y242841D01*
X408136Y242879D01*
X408147Y242918D01*
X408158Y242957D01*
X408168Y242996D01*
X408178Y243036D01*
X408188Y243076D01*
X408197Y243116D01*
X408207Y243157D01*
X408214Y243192D01*
X408221Y243227D01*
X408228Y243263D01*
X408235Y243299D01*
X408241Y243335D01*
X408247Y243371D01*
X408253Y243407D01*
X408258Y243444D01*
X408263Y243481D01*
X408263Y243481D01*
X408268Y243518D01*
X408268Y243518D01*
X408273Y243555D01*
X408273Y243556D01*
X408277Y243593D01*
X408277Y243594D01*
X408281Y243631D01*
X408285Y243669D01*
X408289Y243707D01*
X408292Y243746D01*
X408295Y243785D01*
X408297Y243817D01*
X408299Y243850D01*
X408301Y243883D01*
X408302Y243916D01*
X408303Y243942D01*
X407963Y243913D01*
X407801Y243900D01*
X404697Y243636D01*
X404610Y244653D01*
X404933Y245035D01*
X409739Y245443D01*
X409740Y245440D01*
X409741Y245435D01*
X409743Y245430D01*
X409744Y245424D01*
X409745Y245422D01*
X409746Y245418D01*
X409747Y245412D01*
X409751Y245397D01*
X409754Y245386D01*
X409756Y245379D01*
X409760Y245365D01*
X409762Y245356D01*
X409762Y245355D01*
X409762Y245353D01*
X409763Y245351D01*
X409763Y245349D01*
X409764Y245345D01*
X409765Y245344D01*
X409766Y245340D01*
X409766Y245339D01*
X409766Y245337D01*
X409768Y245329D01*
X409770Y245321D01*
X409772Y245314D01*
X409774Y245306D01*
X409776Y245298D01*
X409777Y245293D01*
X409778Y245285D01*
X409785Y245255D01*
X409786Y245249D01*
X409787Y245244D01*
X409788Y245235D01*
X409790Y245228D01*
X409792Y245215D01*
X409793Y245209D01*
X409794Y245200D01*
X409796Y245192D01*
X409797Y245185D01*
X409798Y245178D01*
X409799Y245169D01*
X409801Y245159D01*
X409802Y245149D01*
X409804Y245139D01*
X409805Y245130D01*
X409805Y245128D01*
X409806Y245124D01*
X409806Y245122D01*
X409807Y245118D01*
X409808Y245108D01*
X409809Y245102D01*
X409810Y245095D01*
X409811Y245087D01*
X409812Y245072D01*
X409814Y245063D01*
X409814Y245061D01*
X409815Y245054D01*
X409815Y245052D01*
X409815Y245047D01*
X409816Y245045D01*
X409817Y245038D01*
X409817Y245035D01*
X409818Y245026D01*
X409820Y245011D01*
X409821Y244999D01*
X409823Y244981D01*
X409824Y244967D01*
X409825Y244959D01*
X409827Y244940D01*
X409828Y244931D01*
X409828Y244929D01*
X409829Y244920D01*
X409829Y244917D01*
X409830Y244908D01*
X409832Y244887D01*
X409833Y244878D01*
X409833Y244875D01*
X409835Y244856D01*
X409837Y244833D01*
X409839Y244809D01*
X409845Y244731D01*
X409850Y244663D01*
X409854Y244596D01*
X409857Y244529D01*
X409860Y244462D01*
X409862Y244396D01*
X409863Y244330D01*
X409864Y244264D01*
X409864Y244189D01*
X409863Y244115D01*
X409861Y244041D01*
X409859Y243967D01*
X409855Y243894D01*
X409851Y243821D01*
X409846Y243749D01*
X409840Y243677D01*
X409833Y243605D01*
X409826Y243534D01*
X409816Y243455D01*
X409806Y243376D01*
X409794Y243298D01*
X409782Y243220D01*
X409768Y243143D01*
X409752Y243057D01*
X409734Y242973D01*
X409716Y242889D01*
X409696Y242806D01*
X409672Y242716D01*
X409672Y242716D01*
X409669Y242705D01*
X409663Y242682D01*
X409657Y242660D01*
X409651Y242638D01*
X409645Y242615D01*
X409638Y242593D01*
X409632Y242571D01*
X409625Y242549D01*
X409618Y242526D01*
X409559Y242363D01*
X409557Y242358D01*
X409618Y242526D01*
X409618Y242527D01*
X409557Y242357D01*
X409542Y242317D01*
X409529Y242281D01*
X409515Y242244D01*
X409500Y242208D01*
X409488Y242177D01*
X409471Y242135D01*
X409455Y242096D01*
X409439Y242058D01*
X409423Y242020D01*
X409404Y241978D01*
X409394Y241955D01*
X409379Y241921D01*
X409368Y241895D01*
X409357Y241871D01*
X409350Y241858D01*
X409173Y241514D01*
X408998Y241228D01*
X409162Y241493D01*
X409162Y241493D01*
X408931Y241120D01*
X408922Y241106D01*
X408704Y240826D01*
X408465Y240563D01*
X408207Y240318D01*
X408069Y240207D01*
X408050Y240191D01*
X408011Y240160D01*
X407972Y240130D01*
X407933Y240100D01*
X407895Y240072D01*
X407860Y240046D01*
X407825Y240020D01*
X407789Y239995D01*
X407755Y239972D01*
X407724Y239951D01*
X407692Y239930D01*
X407661Y239909D01*
X407645Y239899D01*
Y239899D01*
X407630Y239889D01*
X407599Y239869D01*
X407569Y239850D01*
X407538Y239831D01*
X407523Y239822D01*
X407509Y239814D01*
X407503Y239810D01*
X407096Y239591D01*
X407096Y239591D01*
X406670Y239409D01*
X406661Y239405D01*
X406637Y239397D01*
X406614Y239388D01*
X406591Y239380D01*
X406567Y239371D01*
X406543Y239363D01*
X406531Y239359D01*
X406444Y239329D01*
X406356Y239301D01*
X406267Y239274D01*
X406177Y239249D01*
X406094Y239227D01*
X406011Y239206D01*
X405927Y239186D01*
X405842Y239167D01*
X405757Y239150D01*
X405671Y239134D01*
X405585Y239119D01*
X405498Y239105D01*
X405419Y239093D01*
X405339Y239083D01*
X405259Y239073D01*
X405179Y239064D01*
X405098Y239056D01*
X405071Y239054D01*
X404957Y239045D01*
X404853Y239039D01*
X404750Y239035D01*
X404647Y239032D01*
X404545Y239031D01*
X404531Y239031D01*
X404503Y239031D01*
X404476Y239031D01*
X404448Y239031D01*
X404420Y239032D01*
X404393Y239032D01*
X404365Y239033D01*
X404338Y239033D01*
X404310Y239034D01*
X404283Y239035D01*
X404255Y239036D01*
X404228Y239038D01*
X404201Y239039D01*
X404173Y239040D01*
X404146Y239042D01*
X404119Y239044D01*
X404105Y239045D01*
X404091Y239046D01*
X404061Y239048D01*
X404032Y239050D01*
X404003Y239053D01*
X403974Y239055D01*
X403944Y239058D01*
X403915Y239061D01*
X403886Y239064D01*
X403872Y239065D01*
X403857Y239067D01*
X403828Y239070D01*
X403799Y239073D01*
X403771Y239077D01*
X403756Y239079D01*
X403741Y239081D01*
X403718Y239084D01*
X403252Y239166D01*
X403252Y239166D01*
X402959Y239243D01*
X402669Y239328D01*
X402238Y239495D01*
X402212Y239506D01*
X402164Y239528D01*
X402112Y239551D01*
X402057Y239578D01*
X402002Y239605D01*
X401948Y239632D01*
X401887Y239664D01*
X401821Y239700D01*
X401755Y239736D01*
X401690Y239774D01*
X401605Y239825D01*
X401503Y239889D01*
X401402Y239956D01*
X401303Y240025D01*
X401254Y240061D01*
X401133Y240150D01*
X400902Y240342D01*
X400682Y240548D01*
X400475Y240766D01*
X400378Y240881D01*
X400354Y240909D01*
X400307Y240967D01*
X400261Y241024D01*
X400216Y241083D01*
X400177Y241135D01*
X400143Y241181D01*
X400109Y241228D01*
X400077Y241275D01*
X400047Y241319D01*
X400019Y241360D01*
X399992Y241401D01*
X399966Y241442D01*
X399941Y241482D01*
X399917Y241520D01*
X399894Y241559D01*
X399871Y241598D01*
X399859Y241617D01*
X399849Y241635D01*
X399829Y241671D01*
X399808Y241706D01*
X399789Y241742D01*
X399769Y241777D01*
X399751Y241812D01*
X399733Y241847D01*
X399715Y241881D01*
X399698Y241915D01*
X399683Y241946D01*
X399667Y241977D01*
X399652Y242009D01*
X399645Y242024D01*
X399644D01*
X399638Y242039D01*
X399623Y242069D01*
X399610Y242099D01*
X399596Y242129D01*
X399589Y242144D01*
X399583Y242159D01*
X399569Y242190D01*
X399556Y242220D01*
X399543Y242251D01*
X399531Y242280D01*
X399519Y242309D01*
X399507Y242338D01*
X399496Y242367D01*
X399485Y242395D01*
X399474Y242422D01*
X399464Y242449D01*
X399454Y242477D01*
X399444Y242504D01*
X399434Y242531D01*
X399424Y242559D01*
X399414Y242586D01*
X399410Y242600D01*
X399405Y242613D01*
X399396Y242639D01*
X399388Y242664D01*
X399379Y242690D01*
X399375Y242703D01*
X399375D01*
X399371Y242716D01*
X399362Y242742D01*
X399354Y242768D01*
X399346Y242794D01*
X399338Y242820D01*
X399330Y242846D01*
X399323Y242873D01*
X399315Y242899D01*
X399311Y242912D01*
X399284Y243010D01*
X399259Y243108D01*
X399235Y243208D01*
X399213Y243308D01*
X399194Y243400D01*
X399176Y243493D01*
X399160Y243587D01*
X399144Y243681D01*
X399131Y243776D01*
X399119Y243862D01*
X399109Y243949D01*
X399100Y244037D01*
X399092Y244125D01*
X399091Y244136D01*
X399068Y244627D01*
X399068Y244627D01*
X399083Y245105D01*
X399132Y245565D01*
X399132Y245565D01*
X399220Y246029D01*
X399221Y246035D01*
X399229Y246067D01*
X399237Y246100D01*
X399245Y246132D01*
X399248Y246141D01*
X399341Y246450D01*
X399416Y246670D01*
X399502Y246883D01*
X399632Y247179D01*
X399662Y247239D01*
X399709Y247327D01*
X399757Y247414D01*
X399806Y247500D01*
X399923Y247694D01*
X400126Y247983D01*
X400348Y248257D01*
X400588Y248516D01*
X400717Y248636D01*
X400745Y248662D01*
X400802Y248714D01*
X400860Y248765D01*
X400919Y248815D01*
X400954Y248845D01*
X401336Y249132D01*
Y249132D01*
X401733Y249379D01*
X401738Y249382D01*
X401779Y249404D01*
X401820Y249427D01*
X401840Y249437D01*
X401860Y249448D01*
X401899Y249469D01*
X401939Y249489D01*
X401979Y249509D01*
X402018Y249529D01*
X402057Y249547D01*
X402095Y249565D01*
X402134Y249583D01*
X402172Y249601D01*
X402209Y249617D01*
X402246Y249634D01*
X402284Y249650D01*
X402321Y249665D01*
X402359Y249681D01*
X402397Y249696D01*
X402435Y249711D01*
X402454Y249719D01*
X402472Y249726D01*
X402509Y249740D01*
X402545Y249753D01*
X402582Y249767D01*
X402619Y249780D01*
X402656Y249793D01*
X402693Y249805D01*
X402730Y249818D01*
X402766Y249830D01*
X402802Y249841D01*
X402837Y249852D01*
X402873Y249863D01*
X402908Y249873D01*
X402944Y249884D01*
X402980Y249894D01*
X403016Y249904D01*
X403051Y249914D01*
X403085Y249923D01*
X403120Y249932D01*
X403154Y249940D01*
X403171Y249944D01*
X403188Y249949D01*
X403223Y249957D01*
X403257Y249965D01*
X403292Y249973D01*
X403327Y249980D01*
X403362Y249988D01*
X403397Y249995D01*
X403432Y250002D01*
X403467Y250009D01*
X403502Y250016D01*
X403537Y250023D01*
X403573Y250029D01*
X403607Y250035D01*
X403641Y250040D01*
X403656Y250043D01*
X404096Y250097D01*
X404338Y250111D01*
X404610Y250124D01*
X404704Y250125D01*
X404747Y250125D01*
D02*
G37*
G36*
X395380Y248541D02*
X397502Y238415D01*
X396201Y238141D01*
X388877Y244837D01*
X390530Y236953D01*
X389440Y236724D01*
X389021Y236998D01*
X386898Y247125D01*
X388200Y247398D01*
X395523Y240702D01*
X393871Y248586D01*
X394961Y248815D01*
X395380Y248541D01*
D02*
G37*
G36*
X378466Y244253D02*
X382095Y234943D01*
X381894Y234485D01*
X380985Y234131D01*
X372661Y239531D01*
X375459Y232356D01*
X375258Y231898D01*
X374550Y231622D01*
X374092Y231822D01*
X370462Y241133D01*
X370663Y241591D01*
X371572Y241945D01*
X379896Y236544D01*
X377098Y243720D01*
X377299Y244178D01*
X378008Y244454D01*
X378466Y244253D01*
D02*
G37*
G36*
X386367Y235813D02*
X384961Y235394D01*
X381905Y245644D01*
X383311Y246064D01*
X386367Y235813D01*
D02*
G37*
G36*
X366342Y239068D02*
X366393Y239067D01*
X366444Y239065D01*
X366451Y239065D01*
X366465Y239064D01*
X366479Y239063D01*
X366493Y239062D01*
X366506Y239061D01*
X366520Y239060D01*
X366534Y239059D01*
X366548Y239058D01*
X366562Y239057D01*
X366577Y239056D01*
X366592Y239055D01*
X366607Y239053D01*
X366622Y239052D01*
X366637Y239050D01*
X366652Y239048D01*
X366666Y239047D01*
X366674Y239046D01*
X366682Y239045D01*
X366698Y239042D01*
X366714Y239040D01*
X366730Y239038D01*
X366743Y239036D01*
X367199Y238930D01*
Y238930D01*
X367625Y238753D01*
X367760Y238678D01*
X367845Y238624D01*
X367868Y238609D01*
X367890Y238595D01*
X367912Y238580D01*
X367923Y238572D01*
X367932Y238566D01*
X367950Y238553D01*
X367968Y238541D01*
X367986Y238528D01*
X367994Y238521D01*
X367994D01*
X368002Y238515D01*
X368190Y238350D01*
X368279Y238271D01*
X368606Y237905D01*
X368606Y237905D01*
X368653Y237836D01*
X368774Y237658D01*
X368807Y237608D01*
X368841Y237554D01*
X368937Y237396D01*
X368942Y237387D01*
X368962Y237347D01*
X368980Y237312D01*
X368998Y237276D01*
X369015Y237241D01*
X369031Y237205D01*
X369047Y237170D01*
X369065Y237129D01*
X369082Y237089D01*
X369098Y237049D01*
X369114Y237009D01*
X369129Y236969D01*
X369144Y236929D01*
X369158Y236889D01*
X369172Y236849D01*
X369185Y236808D01*
X369199Y236764D01*
X369212Y236719D01*
X369224Y236675D01*
X369236Y236630D01*
X369249Y236581D01*
X369260Y236532D01*
X369271Y236483D01*
X369280Y236434D01*
X369282Y236428D01*
X369284Y236414D01*
X369286Y236401D01*
X369289Y236388D01*
X369291Y236374D01*
X369293Y236361D01*
X369296Y236348D01*
X369298Y236334D01*
X369300Y236320D01*
X369302Y236306D01*
X369304Y236292D01*
X369306Y236277D01*
X369307Y236270D01*
X369307Y236270D01*
X369309Y236224D01*
X369330Y235742D01*
Y235742D01*
X369266Y235269D01*
X369241Y235163D01*
X369217Y235084D01*
X369056Y234675D01*
X368934Y234461D01*
X368820Y234269D01*
X368546Y233923D01*
X368519Y233895D01*
X368490Y233863D01*
X368459Y233832D01*
X368432Y233804D01*
X368404Y233777D01*
X368376Y233750D01*
X368347Y233723D01*
X368318Y233696D01*
X368288Y233669D01*
X368259Y233643D01*
X367880Y233349D01*
X368249Y233151D01*
X368362Y233090D01*
X372178Y231042D01*
X372176Y230542D01*
X370997Y229926D01*
X366398Y232523D01*
X364597Y231581D01*
X366486Y227967D01*
X366336Y227490D01*
X365663Y227138D01*
X365186Y227288D01*
X360395Y236454D01*
X364444Y238570D01*
X364483Y238591D01*
X364517Y238608D01*
X364551Y238625D01*
X364585Y238642D01*
X364619Y238658D01*
X364653Y238674D01*
X364687Y238690D01*
X364721Y238705D01*
X364755Y238720D01*
X364789Y238735D01*
X364823Y238749D01*
X364856Y238763D01*
X364890Y238777D01*
X364923Y238790D01*
X364957Y238803D01*
X364990Y238816D01*
X365024Y238828D01*
X365057Y238841D01*
X365091Y238852D01*
X365124Y238864D01*
X365157Y238875D01*
X365196Y238888D01*
X365235Y238900D01*
X365273Y238912D01*
X365312Y238923D01*
X365350Y238934D01*
X365388Y238944D01*
X365427Y238954D01*
X365465Y238964D01*
X365503Y238973D01*
X365541Y238982D01*
X365579Y238990D01*
X365617Y238998D01*
X365655Y239005D01*
X365692Y239012D01*
X365730Y239019D01*
X365767Y239025D01*
X365810Y239032D01*
X365852Y239038D01*
X365895Y239043D01*
X365937Y239048D01*
X365980Y239053D01*
X366021Y239056D01*
X366063Y239060D01*
X366105Y239062D01*
X366152Y239065D01*
X366199Y239067D01*
X366245Y239068D01*
X366291Y239068D01*
X366342Y239068D01*
D02*
G37*
G36*
X357284Y234251D02*
X360341Y229716D01*
X360365Y229679D01*
X360384Y229650D01*
X360404Y229621D01*
X360423Y229592D01*
X360442Y229563D01*
X360461Y229534D01*
X360479Y229505D01*
X360498Y229476D01*
X360517Y229447D01*
X360535Y229418D01*
X360553Y229389D01*
X360571Y229360D01*
X360589Y229331D01*
X360607Y229303D01*
X360625Y229274D01*
X360642Y229245D01*
X360660Y229216D01*
X360677Y229187D01*
X360694Y229158D01*
X360711Y229129D01*
X360728Y229100D01*
X360745Y229071D01*
X360762Y229043D01*
X360778Y229014D01*
X360794Y228985D01*
X360811Y228956D01*
X360827Y228927D01*
X360843Y228899D01*
X360859Y228870D01*
X360874Y228841D01*
X360890Y228812D01*
X360905Y228784D01*
X360920Y228755D01*
X360935Y228726D01*
X360950Y228697D01*
X360965Y228669D01*
X360980Y228640D01*
X360994Y228611D01*
X361009Y228583D01*
X361023Y228554D01*
X361037Y228525D01*
X361051Y228497D01*
X361065Y228468D01*
X361078Y228440D01*
X361092Y228411D01*
X361105Y228383D01*
X361118Y228354D01*
X361131Y228326D01*
X361144Y228297D01*
X361157Y228269D01*
X361169Y228240D01*
X361181Y228211D01*
X361194Y228183D01*
X361206Y228155D01*
X361217Y228126D01*
X361229Y228098D01*
X361241Y228069D01*
X361252Y228041D01*
X361263Y228013D01*
X361274Y227984D01*
X361285Y227956D01*
X361296Y227928D01*
X361307Y227899D01*
X361317Y227871D01*
X361327Y227843D01*
X361337Y227814D01*
X361347Y227786D01*
X361357Y227758D01*
X361366Y227730D01*
X361376Y227701D01*
X361385Y227673D01*
X361394Y227645D01*
X361403Y227617D01*
X361411Y227589D01*
X361420Y227561D01*
X361428Y227533D01*
X361436Y227505D01*
X361444Y227477D01*
X361452Y227449D01*
X361460Y227420D01*
X361467Y227393D01*
X361474Y227365D01*
X361481Y227337D01*
X361488Y227309D01*
X361495Y227281D01*
X361501Y227253D01*
X361508Y227225D01*
X361514Y227197D01*
X361520Y227169D01*
X361526Y227141D01*
X361532Y227107D01*
X361539Y227072D01*
X361545Y227037D01*
X361551Y227003D01*
X361557Y226968D01*
X361563Y226933D01*
X361568Y226899D01*
X361573Y226864D01*
X361577Y226830D01*
X361581Y226795D01*
X361585Y226761D01*
X361589Y226726D01*
X361592Y226692D01*
X361595Y226658D01*
X361598Y226617D01*
X361599Y226599D01*
X361598Y226100D01*
Y226100D01*
X361529Y225635D01*
X361509Y225550D01*
X361475Y225426D01*
X361437Y225304D01*
X361415Y225243D01*
X361411Y225232D01*
X361402Y225209D01*
X361393Y225186D01*
X361385Y225164D01*
X361377Y225143D01*
X361369Y225125D01*
X361362Y225108D01*
X361355Y225090D01*
X361351Y225081D01*
X361348Y225073D01*
X361341Y225056D01*
X361334Y225040D01*
X361327Y225024D01*
X361320Y225009D01*
X361313Y224994D01*
X361306Y224980D01*
X361300Y224965D01*
X361296Y224958D01*
X361271Y224906D01*
X361249Y224862D01*
X361226Y224817D01*
X361202Y224772D01*
X361180Y224734D01*
X361159Y224695D01*
X361136Y224657D01*
X361113Y224619D01*
X361090Y224581D01*
X361069Y224550D01*
X361049Y224518D01*
X361028Y224486D01*
X361007Y224455D01*
X360985Y224424D01*
X360963Y224392D01*
X360940Y224361D01*
X360917Y224330D01*
X360894Y224299D01*
X360875Y224274D01*
X360856Y224249D01*
X360836Y224224D01*
X360816Y224199D01*
X360796Y224174D01*
X360776Y224150D01*
X360755Y224125D01*
X360734Y224100D01*
X360713Y224076D01*
X360692Y224051D01*
X360670Y224026D01*
X360648Y224002D01*
X360626Y223977D01*
X360603Y223953D01*
X360580Y223928D01*
X360557Y223904D01*
X360533Y223880D01*
X360510Y223855D01*
X360486Y223831D01*
X360461Y223807D01*
X360437Y223783D01*
X360412Y223759D01*
X360387Y223734D01*
X360362Y223710D01*
X360336Y223686D01*
X360310Y223662D01*
X360284Y223638D01*
X360257Y223614D01*
X360230Y223590D01*
X360203Y223567D01*
X360182Y223549D01*
X360162Y223531D01*
X360141Y223513D01*
X360120Y223495D01*
X360099Y223477D01*
X360077Y223460D01*
X360056Y223442D01*
X360034Y223424D01*
X360012Y223406D01*
X359990Y223389D01*
X359968Y223371D01*
X359945Y223353D01*
X359923Y223336D01*
X359900Y223318D01*
X359877Y223301D01*
X359854Y223283D01*
X359831Y223266D01*
X359807Y223248D01*
X359784Y223231D01*
X359760Y223213D01*
X359736Y223196D01*
X359712Y223178D01*
X359688Y223161D01*
X359664Y223144D01*
X359639Y223126D01*
X359614Y223109D01*
X359589Y223092D01*
X359564Y223074D01*
X359539Y223057D01*
X359513Y223040D01*
X359480Y223017D01*
X359455Y223001D01*
X359430Y222984D01*
X359404Y222968D01*
X359379Y222952D01*
X359354Y222936D01*
X359330Y222920D01*
X359305Y222904D01*
X359280Y222888D01*
X359255Y222873D01*
X359230Y222858D01*
X359206Y222843D01*
X359181Y222828D01*
X359156Y222813D01*
X359132Y222798D01*
X359107Y222784D01*
X359083Y222770D01*
X359058Y222756D01*
X359034Y222742D01*
X359009Y222728D01*
X358985Y222714D01*
X358961Y222701D01*
X358936Y222688D01*
X358912Y222674D01*
X358888Y222661D01*
X358864Y222649D01*
X358840Y222636D01*
X358816Y222623D01*
X358791Y222611D01*
X358768Y222599D01*
X358744Y222587D01*
X358712Y222571D01*
X358680Y222555D01*
X358648Y222540D01*
X358616Y222525D01*
X358585Y222510D01*
X358553Y222496D01*
X358522Y222482D01*
X358490Y222468D01*
X358459Y222454D01*
X358428Y222441D01*
X358397Y222428D01*
X358366Y222415D01*
X358334Y222402D01*
X358303Y222390D01*
X358273Y222378D01*
X358242Y222366D01*
X358211Y222355D01*
X358180Y222343D01*
X358150Y222333D01*
X358119Y222322D01*
X358088Y222311D01*
X358058Y222301D01*
X358028Y222291D01*
X357997Y222282D01*
X357967Y222272D01*
X357937Y222263D01*
X357907Y222254D01*
X357877Y222246D01*
X357847Y222237D01*
X357817Y222229D01*
X357780Y222219D01*
X357742Y222210D01*
X357705Y222201D01*
X357668Y222193D01*
X357631Y222184D01*
X357595Y222177D01*
X357558Y222169D01*
X357521Y222162D01*
X357485Y222156D01*
X357441Y222148D01*
X357398Y222141D01*
X357354Y222135D01*
X357311Y222129D01*
X357268Y222124D01*
X357218Y222119D01*
X357168Y222114D01*
X357118Y222110D01*
X357117Y222110D01*
X356631Y222112D01*
X356631D01*
X356367Y222152D01*
X355890Y222258D01*
X355457Y222430D01*
X355448Y222434D01*
X355411Y222452D01*
X355374Y222471D01*
X355344Y222486D01*
X355313Y222502D01*
X355282Y222519D01*
X355252Y222535D01*
X355221Y222552D01*
X355191Y222570D01*
X355161Y222587D01*
X355131Y222605D01*
X355101Y222623D01*
X355071Y222641D01*
X355041Y222660D01*
X355011Y222679D01*
X354981Y222698D01*
X354951Y222718D01*
X354928Y222734D01*
X354904Y222750D01*
X354880Y222766D01*
X354857Y222783D01*
X354833Y222799D01*
X354810Y222816D01*
X354786Y222833D01*
X354763Y222850D01*
X354740Y222868D01*
X354716Y222885D01*
X354693Y222903D01*
X354670Y222921D01*
X354647Y222939D01*
X354624Y222957D01*
X354601Y222975D01*
X354578Y222994D01*
X354555Y223013D01*
X354532Y223032D01*
X354509Y223051D01*
X354486Y223070D01*
X354464Y223090D01*
X354441Y223109D01*
X354418Y223129D01*
X354396Y223149D01*
X354373Y223169D01*
X354350Y223189D01*
X354328Y223210D01*
X354306Y223230D01*
X354283Y223251D01*
X354261Y223272D01*
X354239Y223293D01*
X354216Y223315D01*
X354194Y223336D01*
X354172Y223358D01*
X354150Y223379D01*
X354128Y223401D01*
X354106Y223424D01*
X354084Y223446D01*
X354062Y223468D01*
X354040Y223491D01*
X354018Y223514D01*
X353996Y223536D01*
X353974Y223559D01*
X353952Y223583D01*
X353931Y223606D01*
X353909Y223630D01*
X353888Y223653D01*
X353866Y223677D01*
X353844Y223701D01*
X353823Y223725D01*
X353801Y223750D01*
X353780Y223774D01*
X353759Y223799D01*
X353737Y223823D01*
X353716Y223848D01*
X353695Y223873D01*
X353674Y223899D01*
X353652Y223924D01*
X353631Y223949D01*
X353610Y223975D01*
X353589Y224001D01*
X353568Y224027D01*
X353547Y224053D01*
X353526Y224079D01*
X353505Y224105D01*
X353484Y224132D01*
X353464Y224159D01*
X353443Y224185D01*
X353422Y224212D01*
X353401Y224239D01*
X353381Y224267D01*
X353360Y224294D01*
X353340Y224321D01*
X353319Y224349D01*
X353298Y224377D01*
X353278Y224405D01*
X353257Y224433D01*
X353237Y224461D01*
X353217Y224489D01*
X353196Y224518D01*
X353176Y224546D01*
X353156Y224575D01*
X353136Y224604D01*
X353116Y224633D01*
X353095Y224662D01*
X353075Y224691D01*
X353055Y224720D01*
X353035Y224750D01*
X353015Y224779D01*
X349959Y229315D01*
X350055Y229805D01*
X351029Y230462D01*
X354283Y225633D01*
X354300Y225607D01*
X354314Y225587D01*
X354327Y225568D01*
X354340Y225548D01*
X354354Y225529D01*
X354367Y225509D01*
X354380Y225490D01*
X354394Y225471D01*
X354407Y225452D01*
X354420Y225433D01*
X354433Y225414D01*
X354447Y225396D01*
X354460Y225377D01*
X354473Y225359D01*
X354486Y225340D01*
X354499Y225322D01*
X354512Y225304D01*
X354526Y225286D01*
X354539Y225268D01*
X354552Y225250D01*
X354565Y225232D01*
X354578Y225214D01*
X354591Y225197D01*
X354604Y225179D01*
X354617Y225162D01*
X354630Y225144D01*
X354643Y225127D01*
X354656Y225110D01*
X354669Y225093D01*
X354682Y225076D01*
X354695Y225059D01*
X354708Y225042D01*
X354721Y225026D01*
X354734Y225009D01*
X354747Y224993D01*
X354760Y224976D01*
X354773Y224960D01*
X354786Y224944D01*
X354799Y224928D01*
X354812Y224912D01*
X354825Y224896D01*
X354838Y224880D01*
X354851Y224864D01*
X354864Y224849D01*
X354876Y224833D01*
X354889Y224818D01*
X354902Y224803D01*
X354915Y224787D01*
X354928Y224772D01*
X354941Y224757D01*
X354953Y224742D01*
X354966Y224727D01*
X354979Y224713D01*
X354992Y224698D01*
X355005Y224683D01*
X355017Y224669D01*
X355030Y224655D01*
X355043Y224640D01*
X355056Y224626D01*
X355068Y224612D01*
X355081Y224598D01*
X355094Y224584D01*
X355107Y224571D01*
X355119Y224557D01*
X355132Y224543D01*
X355145Y224530D01*
X355157Y224517D01*
X355170Y224503D01*
X355183Y224490D01*
X355196Y224477D01*
X355208Y224464D01*
X355221Y224451D01*
X355234Y224438D01*
X355246Y224425D01*
X355259Y224413D01*
X355272Y224400D01*
X355284Y224388D01*
X355297Y224375D01*
X355310Y224363D01*
X355322Y224351D01*
X355335Y224339D01*
X355347Y224327D01*
X355360Y224315D01*
X355373Y224303D01*
X355385Y224292D01*
X355398Y224280D01*
X355411Y224269D01*
X355423Y224257D01*
X355436Y224246D01*
X355448Y224235D01*
X355461Y224223D01*
X355474Y224213D01*
X355486Y224201D01*
X355499Y224191D01*
X355511Y224180D01*
X355524Y224169D01*
X355537Y224159D01*
X355549Y224148D01*
X355562Y224138D01*
X355574Y224128D01*
X355587Y224117D01*
X355599Y224107D01*
X355612Y224097D01*
X355625Y224088D01*
X355637Y224078D01*
X355650Y224068D01*
X355662Y224058D01*
X355675Y224049D01*
X355687Y224039D01*
X355700Y224030D01*
X355713Y224021D01*
X355725Y224012D01*
X355738Y224003D01*
X355750Y223994D01*
X355763Y223985D01*
X355775Y223976D01*
X355788Y223967D01*
X355801Y223959D01*
X355813Y223950D01*
X355826Y223942D01*
X355838Y223933D01*
X355851Y223925D01*
X355863Y223917D01*
X355876Y223909D01*
X355889Y223901D01*
X355901Y223893D01*
X355914Y223885D01*
X355931Y223875D01*
X355947Y223865D01*
X355964Y223855D01*
X355981Y223846D01*
X355998Y223836D01*
X356015Y223827D01*
X356031Y223818D01*
X356048Y223809D01*
X356065Y223800D01*
X356082Y223791D01*
X356099Y223782D01*
X356116Y223774D01*
X356132Y223766D01*
X356149Y223758D01*
X356166Y223750D01*
X356183Y223742D01*
X356204Y223733D01*
X356225Y223724D01*
X356246Y223714D01*
X356267Y223706D01*
X356289Y223697D01*
X356310Y223689D01*
X356335Y223680D01*
X356361Y223671D01*
X356386Y223662D01*
X356416Y223652D01*
X356446Y223643D01*
Y223643D01*
X356458Y223639D01*
X356467Y223637D01*
X356475Y223634D01*
X356480Y223633D01*
X356484Y223632D01*
X356494Y223629D01*
X356504Y223626D01*
X356513Y223624D01*
X356518Y223623D01*
X356523Y223621D01*
X356534Y223619D01*
X356545Y223616D01*
X356555Y223613D01*
X356561Y223612D01*
X356568Y223610D01*
X356581Y223607D01*
X356595Y223604D01*
X356609Y223601D01*
X356616Y223600D01*
X356628Y223597D01*
X356652Y223593D01*
X356676Y223589D01*
X356699Y223585D01*
X356711Y223583D01*
X356735Y223579D01*
X356784Y223573D01*
X356833Y223568D01*
X356882Y223565D01*
X356906Y223563D01*
X356913Y223563D01*
X356928Y223562D01*
X356942Y223562D01*
X356956Y223562D01*
X356963Y223561D01*
X356969Y223561D01*
X356980Y223561D01*
X356991Y223561D01*
X357002Y223561D01*
X357012Y223561D01*
X357022Y223561D01*
X357032Y223561D01*
X357042Y223562D01*
X357047Y223562D01*
X357051Y223562D01*
X357060Y223562D01*
X357069Y223562D01*
X357078Y223563D01*
X357082Y223563D01*
X357113Y223564D01*
X357144Y223566D01*
X357171Y223569D01*
X357198Y223571D01*
X357224Y223574D01*
X357247Y223576D01*
X357269Y223579D01*
X357292Y223582D01*
X357314Y223586D01*
X357337Y223589D01*
X357360Y223593D01*
X357378Y223597D01*
X357396Y223600D01*
X357414Y223604D01*
X357432Y223607D01*
X357450Y223611D01*
X357469Y223615D01*
X357487Y223619D01*
X357505Y223624D01*
X357523Y223628D01*
X357542Y223633D01*
X357560Y223638D01*
X357579Y223643D01*
X357597Y223648D01*
X357616Y223653D01*
X357634Y223659D01*
X357653Y223664D01*
X357671Y223670D01*
X357685Y223675D01*
X357699Y223679D01*
X357713Y223684D01*
X357727Y223688D01*
X357741Y223693D01*
X357755Y223698D01*
X357770Y223703D01*
X357784Y223708D01*
X357798Y223713D01*
X357812Y223718D01*
X357826Y223724D01*
X357840Y223729D01*
X357855Y223734D01*
X357869Y223740D01*
X357883Y223746D01*
X357897Y223751D01*
X357912Y223757D01*
X357926Y223763D01*
X357940Y223769D01*
X357955Y223775D01*
X357969Y223781D01*
X357983Y223787D01*
X357998Y223794D01*
X358012Y223800D01*
X358027Y223807D01*
X358041Y223813D01*
X358056Y223820D01*
X358070Y223827D01*
X358085Y223834D01*
X358099Y223840D01*
X358114Y223848D01*
X358128Y223855D01*
X358143Y223862D01*
X358158Y223869D01*
X358172Y223877D01*
X358187Y223884D01*
X358202Y223891D01*
X358217Y223899D01*
X358231Y223907D01*
X358246Y223915D01*
X358261Y223922D01*
X358276Y223931D01*
X358291Y223938D01*
X358306Y223947D01*
X358321Y223955D01*
X358336Y223963D01*
X358351Y223972D01*
X358366Y223980D01*
X358381Y223989D01*
X358396Y223997D01*
X358411Y224006D01*
X358426Y224015D01*
X358441Y224024D01*
X358456Y224033D01*
X358471Y224042D01*
X358486Y224051D01*
X358502Y224060D01*
X358517Y224069D01*
X358532Y224079D01*
X358547Y224088D01*
X358563Y224098D01*
X358578Y224108D01*
X358594Y224117D01*
X358609Y224127D01*
X358624Y224137D01*
X358640Y224147D01*
X358655Y224157D01*
X358671Y224167D01*
X358686Y224178D01*
X358702Y224188D01*
X358718Y224199D01*
X358728Y224205D01*
X358749Y224219D01*
X358764Y224230D01*
X358779Y224240D01*
X358794Y224251D01*
X358809Y224261D01*
X358824Y224272D01*
X358839Y224282D01*
X358854Y224293D01*
X358869Y224303D01*
X358884Y224314D01*
X358898Y224324D01*
X358913Y224335D01*
X358927Y224345D01*
X358941Y224356D01*
X358956Y224367D01*
X358970Y224377D01*
X358984Y224388D01*
X358998Y224398D01*
X359012Y224409D01*
X359026Y224419D01*
X359039Y224430D01*
X359053Y224441D01*
X359066Y224451D01*
X359080Y224462D01*
X359093Y224473D01*
X359106Y224483D01*
X359120Y224494D01*
X359133Y224504D01*
X359146Y224515D01*
X359159Y224526D01*
X359172Y224537D01*
X359184Y224547D01*
X359197Y224558D01*
X359210Y224569D01*
X359222Y224579D01*
X359234Y224590D01*
X359247Y224601D01*
X359259Y224612D01*
X359271Y224623D01*
X359283Y224633D01*
X359295Y224644D01*
X359307Y224655D01*
X359319Y224666D01*
X359331Y224676D01*
X359342Y224687D01*
X359354Y224698D01*
X359365Y224709D01*
X359377Y224720D01*
X359388Y224731D01*
X359399Y224742D01*
X359410Y224753D01*
X359421Y224764D01*
X359432Y224775D01*
X359443Y224785D01*
X359454Y224797D01*
X359465Y224808D01*
X359475Y224818D01*
X359486Y224830D01*
X359496Y224840D01*
X359507Y224851D01*
X359517Y224863D01*
X359527Y224874D01*
X359537Y224885D01*
X359547Y224896D01*
X359557Y224907D01*
X359567Y224918D01*
X359576Y224929D01*
X359586Y224940D01*
X359596Y224952D01*
X359605Y224963D01*
X359614Y224974D01*
X359624Y224985D01*
X359633Y224996D01*
X359642Y225008D01*
X359654Y225023D01*
X359666Y225038D01*
X359678Y225053D01*
X359689Y225068D01*
X359701Y225083D01*
X359709Y225094D01*
X359712Y225098D01*
X359712Y225098D01*
X359723Y225113D01*
X359723Y225113D01*
X359734Y225129D01*
X359734Y225129D01*
X359745Y225144D01*
X359745Y225144D01*
X359755Y225159D01*
X359755Y225159D01*
X359766Y225174D01*
X359766Y225174D01*
X359776Y225190D01*
X359776Y225190D01*
X359787Y225205D01*
X359787Y225205D01*
X359797Y225221D01*
X359797Y225221D01*
X359806Y225236D01*
X359806Y225236D01*
X359816Y225252D01*
X359816Y225252D01*
X359828Y225271D01*
X359828Y225271D01*
X359840Y225290D01*
X359840Y225290D01*
X359851Y225310D01*
X359851Y225310D01*
X359862Y225329D01*
X359862Y225330D01*
X359873Y225349D01*
X359874Y225349D01*
X359884Y225369D01*
X359884Y225369D01*
X359897Y225392D01*
X359897Y225393D01*
X359909Y225416D01*
X359909Y225417D01*
X359921Y225440D01*
X359921Y225441D01*
X359934Y225468D01*
X359947Y225496D01*
X359949Y225500D01*
X359949Y225501D01*
X359952Y225508D01*
X359956Y225516D01*
X359960Y225524D01*
X359961Y225527D01*
X359961Y225528D01*
X359963Y225533D01*
X359966Y225538D01*
X359967Y225542D01*
X359971Y225551D01*
X359975Y225560D01*
X359977Y225565D01*
X359979Y225570D01*
X359983Y225580D01*
X359987Y225590D01*
X359991Y225600D01*
X359993Y225605D01*
X359995Y225612D01*
X360000Y225625D01*
X360005Y225639D01*
X360010Y225652D01*
X360012Y225659D01*
X360016Y225671D01*
X360025Y225697D01*
X360033Y225723D01*
X360041Y225749D01*
X360045Y225762D01*
X360050Y225783D01*
X360061Y225824D01*
X360070Y225865D01*
X360079Y225907D01*
X360083Y225928D01*
X360085Y225935D01*
X360087Y225949D01*
X360090Y225963D01*
X360091Y225969D01*
X360092Y225977D01*
X360093Y225984D01*
X360093Y225984D01*
X360094Y225989D01*
X360095Y225997D01*
X360096Y226000D01*
X360097Y226009D01*
X360097Y226011D01*
X360098Y226021D01*
X360099Y226022D01*
X360099Y226027D01*
X360099Y226027D01*
X360100Y226031D01*
X360100Y226032D01*
X360101Y226041D01*
X360101Y226042D01*
X360102Y226051D01*
X360103Y226052D01*
X360104Y226061D01*
X360104Y226062D01*
X360104Y226066D01*
X360104Y226067D01*
X360105Y226071D01*
X360105Y226071D01*
X360106Y226079D01*
X360106Y226080D01*
X360106Y226088D01*
X360107Y226089D01*
X360107Y226097D01*
X360107Y226097D01*
X360108Y226101D01*
X360108Y226102D01*
X360111Y226133D01*
X360111Y226133D01*
X360113Y226164D01*
X360113Y226164D01*
X360114Y226191D01*
X360114Y226191D01*
X360116Y226218D01*
X360116Y226218D01*
X360116Y226245D01*
X360116Y226245D01*
X360117Y226267D01*
X360117Y226268D01*
X360117Y226290D01*
X360117Y226313D01*
X360117Y226336D01*
X360116Y226359D01*
X360115Y226382D01*
X360115Y226401D01*
X360114Y226419D01*
X360113Y226438D01*
X360111Y226456D01*
X360110Y226475D01*
X360108Y226494D01*
X360106Y226513D01*
X360105Y226532D01*
X360103Y226551D01*
X360100Y226570D01*
X360098Y226589D01*
X360096Y226608D01*
X360093Y226627D01*
X360090Y226647D01*
X360087Y226666D01*
X360084Y226685D01*
X360081Y226705D01*
X360078Y226719D01*
X360075Y226734D01*
X360073Y226749D01*
X360070Y226764D01*
X360067Y226778D01*
X360064Y226793D01*
X360061Y226808D01*
X360058Y226823D01*
X360054Y226838D01*
X360051Y226853D01*
X360048Y226868D01*
X360044Y226883D01*
X360041Y226898D01*
X360037Y226913D01*
X360033Y226928D01*
X360029Y226943D01*
X360025Y226959D01*
X360021Y226974D01*
X360017Y226989D01*
X360013Y227004D01*
X360009Y227020D01*
X360004Y227035D01*
X360000Y227051D01*
X359995Y227066D01*
X359991Y227082D01*
X359986Y227097D01*
X359981Y227113D01*
X359976Y227128D01*
X359971Y227144D01*
X359966Y227160D01*
X359961Y227175D01*
X359955Y227191D01*
X359950Y227207D01*
X359945Y227223D01*
X359939Y227239D01*
X359933Y227255D01*
X359928Y227271D01*
X359922Y227287D01*
X359916Y227303D01*
X359910Y227319D01*
X359904Y227335D01*
X359898Y227351D01*
X359892Y227367D01*
X359885Y227384D01*
X359879Y227400D01*
X359872Y227416D01*
X359866Y227433D01*
X359859Y227449D01*
X359852Y227466D01*
X359846Y227482D01*
X359839Y227499D01*
X359832Y227515D01*
X359824Y227532D01*
X359817Y227549D01*
X359810Y227565D01*
X359803Y227582D01*
X359795Y227599D01*
X359788Y227616D01*
X359780Y227633D01*
X359772Y227649D01*
X359765Y227666D01*
X359757Y227683D01*
X359749Y227701D01*
X359740Y227718D01*
X359732Y227735D01*
X359724Y227752D01*
X359716Y227769D01*
X359707Y227786D01*
X359699Y227804D01*
X359690Y227821D01*
X359682Y227839D01*
X359673Y227856D01*
X359664Y227873D01*
X359655Y227891D01*
X359646Y227909D01*
X359637Y227926D01*
X359628Y227944D01*
X359618Y227962D01*
X359609Y227979D01*
X359599Y227997D01*
X359590Y228015D01*
X359580Y228033D01*
X359571Y228051D01*
X359561Y228069D01*
X359551Y228087D01*
X359541Y228105D01*
X359531Y228123D01*
X359521Y228141D01*
X359510Y228160D01*
X359500Y228178D01*
X359489Y228196D01*
X359479Y228215D01*
X359468Y228233D01*
X359458Y228252D01*
X359447Y228270D01*
X359436Y228289D01*
X359425Y228307D01*
X359414Y228326D01*
X359403Y228345D01*
X359391Y228363D01*
X359380Y228382D01*
X359369Y228401D01*
X359357Y228420D01*
X359346Y228439D01*
X359334Y228458D01*
X359322Y228477D01*
X359310Y228496D01*
X359298Y228515D01*
X359286Y228534D01*
X359274Y228554D01*
X359262Y228573D01*
X359250Y228592D01*
X359238Y228612D01*
X359225Y228631D01*
X359212Y228651D01*
X359200Y228670D01*
X359187Y228690D01*
X359174Y228710D01*
X359161Y228729D01*
X359148Y228749D01*
X359135Y228769D01*
X359122Y228789D01*
X359109Y228808D01*
X359096Y228828D01*
X359082Y228849D01*
X359073Y228862D01*
X355819Y233690D01*
X356794Y234347D01*
X357284Y234251D01*
D02*
G37*
G36*
X346984Y226297D02*
X347008Y226295D01*
X347032Y226292D01*
X347060Y226289D01*
X347093Y226285D01*
X347126Y226280D01*
X347158Y226275D01*
X347245Y226260D01*
X347384Y226227D01*
X347521Y226187D01*
X347655Y226139D01*
X347732Y226107D01*
X347754Y226097D01*
X347776Y226087D01*
X347798Y226077D01*
X347818Y226068D01*
X347836Y226059D01*
X347854Y226050D01*
X347872Y226041D01*
X347889Y226033D01*
X347905Y226025D01*
X347921Y226016D01*
X347936Y226008D01*
X347952Y226000D01*
X347966Y225992D01*
X347981Y225983D01*
X347995Y225975D01*
X348009Y225967D01*
X348022Y225960D01*
X348034Y225952D01*
X348047Y225945D01*
X348059Y225938D01*
X348070Y225930D01*
X348082Y225923D01*
X348093Y225916D01*
X348105Y225909D01*
X348116Y225901D01*
X348128Y225894D01*
X348139Y225887D01*
X348150Y225879D01*
X348160Y225872D01*
X348170Y225865D01*
X348181Y225858D01*
X348191Y225851D01*
X348201Y225844D01*
X348212Y225837D01*
X348222Y225829D01*
X348227Y225826D01*
X348264Y225799D01*
X348301Y225771D01*
X348337Y225742D01*
X348370Y225716D01*
X348402Y225689D01*
X348434Y225662D01*
X348465Y225634D01*
X348497Y225605D01*
X348525Y225579D01*
X348552Y225553D01*
X348580Y225526D01*
X348607Y225499D01*
X348634Y225471D01*
X348660Y225443D01*
X348687Y225414D01*
X348713Y225385D01*
X348736Y225359D01*
X348758Y225333D01*
X348782Y225304D01*
X348804Y225277D01*
X348826Y225251D01*
X348847Y225224D01*
X348867Y225198D01*
X348887Y225171D01*
X348907Y225144D01*
X348927Y225117D01*
X348946Y225090D01*
X348965Y225063D01*
X348983Y225036D01*
X349003Y225006D01*
X349023Y224976D01*
X349042Y224945D01*
X349060Y224915D01*
X349078Y224885D01*
X349096Y224854D01*
X349113Y224823D01*
X349129Y224793D01*
X349147Y224759D01*
X349158Y224738D01*
X349281Y224431D01*
X349341Y224237D01*
X349368Y224112D01*
X349393Y223979D01*
X349413Y223775D01*
X349413Y223481D01*
X349367Y223175D01*
X349355Y223092D01*
X349247Y222800D01*
X349108Y222496D01*
X349513Y222694D01*
X349567Y222718D01*
X349594Y222728D01*
X349915Y222814D01*
X350178Y222860D01*
X350419Y222880D01*
X350439Y222880D01*
X350459Y222880D01*
X350484Y222879D01*
X350515Y222878D01*
X350545Y222877D01*
X350576Y222874D01*
X350591Y222873D01*
X350638Y222869D01*
X350731Y222858D01*
X350823Y222842D01*
X350914Y222822D01*
X350960Y222810D01*
X350969Y222808D01*
X350989Y222803D01*
X351008Y222797D01*
X351027Y222792D01*
X351036Y222789D01*
X351044Y222786D01*
X351060Y222781D01*
X351076Y222776D01*
X351092Y222771D01*
X351107Y222766D01*
X351120Y222762D01*
X351134Y222757D01*
X351147Y222752D01*
X351154Y222749D01*
X351160Y222747D01*
X351172Y222743D01*
X351183Y222739D01*
X351195Y222734D01*
X351207Y222730D01*
X351218Y222725D01*
X351228Y222721D01*
X351239Y222716D01*
X351250Y222712D01*
X351260Y222708D01*
X351270Y222703D01*
X351280Y222699D01*
X351290Y222695D01*
X351300Y222691D01*
X351309Y222686D01*
X351318Y222682D01*
X351323Y222680D01*
X351327Y222678D01*
X351337Y222674D01*
X351346Y222669D01*
X351355Y222665D01*
X351360Y222663D01*
X351394Y222646D01*
X351427Y222629D01*
X351458Y222613D01*
X351488Y222596D01*
X351519Y222579D01*
X351549Y222561D01*
X351576Y222545D01*
X351603Y222528D01*
X351630Y222511D01*
X351656Y222493D01*
X351683Y222476D01*
X351707Y222459D01*
X351730Y222443D01*
X351753Y222426D01*
X351777Y222408D01*
X351800Y222391D01*
X351823Y222373D01*
X351846Y222355D01*
X351869Y222336D01*
X351892Y222318D01*
X351912Y222301D01*
X351932Y222284D01*
X351951Y222267D01*
X351971Y222249D01*
X351991Y222232D01*
X352010Y222214D01*
X352030Y222195D01*
X352049Y222177D01*
X352068Y222158D01*
X352088Y222140D01*
X352107Y222120D01*
X352126Y222101D01*
X352145Y222081D01*
X352164Y222061D01*
X352183Y222042D01*
X352201Y222021D01*
X352220Y222001D01*
X352239Y221980D01*
X352257Y221959D01*
X352275Y221937D01*
X352283Y221928D01*
X352285Y221926D01*
X352477Y221665D01*
X352581Y221507D01*
X352696Y221304D01*
X352783Y221114D01*
X352819Y221024D01*
X352901Y220806D01*
X352995Y220367D01*
X353008Y220264D01*
X353019Y220064D01*
X353015Y219864D01*
X353004Y219750D01*
X353001Y219720D01*
X352998Y219690D01*
X352994Y219661D01*
X352992Y219646D01*
X352991Y219634D01*
X352987Y219609D01*
X352983Y219584D01*
X352979Y219559D01*
X352975Y219536D01*
X352971Y219515D01*
X352967Y219494D01*
X352963Y219472D01*
X352961Y219462D01*
X352959Y219452D01*
X352955Y219433D01*
X352951Y219414D01*
X352947Y219395D01*
X352943Y219377D01*
X352939Y219359D01*
X352934Y219342D01*
X352930Y219324D01*
X352925Y219307D01*
X352921Y219290D01*
X352917Y219274D01*
X352912Y219257D01*
X352910Y219249D01*
X352908Y219242D01*
X352903Y219226D01*
X352899Y219211D01*
X352894Y219196D01*
X352890Y219180D01*
X352885Y219165D01*
X352880Y219150D01*
X352875Y219134D01*
X352873Y219127D01*
X352870Y219120D01*
X352866Y219106D01*
X352861Y219092D01*
X352856Y219077D01*
X352851Y219063D01*
X352846Y219049D01*
X352841Y219035D01*
X352836Y219021D01*
X352831Y219008D01*
X352826Y218995D01*
X352821Y218982D01*
X352816Y218969D01*
X352811Y218956D01*
X352806Y218944D01*
X352801Y218931D01*
X352796Y218918D01*
X352793Y218911D01*
X352772Y218860D01*
X352751Y218814D01*
X352730Y218767D01*
X352708Y218721D01*
X352685Y218675D01*
X352663Y218633D01*
X352641Y218592D01*
X352618Y218551D01*
X352595Y218510D01*
X352571Y218468D01*
X352546Y218428D01*
X352523Y218391D01*
X352500Y218355D01*
X352476Y218319D01*
X352452Y218283D01*
X352427Y218247D01*
X352402Y218212D01*
X352376Y218176D01*
X352350Y218140D01*
X352323Y218105D01*
X352295Y218070D01*
X352267Y218035D01*
X352242Y218004D01*
X352217Y217973D01*
X352191Y217943D01*
X352165Y217913D01*
X352138Y217882D01*
X352111Y217852D01*
X352083Y217822D01*
X352055Y217792D01*
X352027Y217762D01*
X351998Y217733D01*
X351969Y217703D01*
X351939Y217674D01*
X351909Y217644D01*
X351879Y217615D01*
X351848Y217586D01*
X351817Y217557D01*
X351785Y217528D01*
X351753Y217500D01*
X351720Y217471D01*
X351687Y217443D01*
X347720Y214061D01*
X341006Y221936D01*
X341046Y222434D01*
X344477Y225359D01*
X344509Y225386D01*
X344537Y225409D01*
X344565Y225432D01*
X344592Y225455D01*
X344620Y225477D01*
X344648Y225499D01*
X344676Y225520D01*
X344704Y225541D01*
X344731Y225563D01*
X344759Y225583D01*
X344787Y225604D01*
X344815Y225624D01*
X344843Y225643D01*
X344871Y225663D01*
X344899Y225682D01*
X344927Y225701D01*
X344955Y225720D01*
X344983Y225738D01*
X345011Y225756D01*
X345039Y225774D01*
X345067Y225791D01*
X345095Y225808D01*
X345123Y225825D01*
X345151Y225841D01*
X345180Y225858D01*
X345208Y225874D01*
X345236Y225889D01*
X345264Y225905D01*
X345292Y225920D01*
X345320Y225935D01*
X345348Y225949D01*
X345381Y225966D01*
X345414Y225982D01*
X345446Y225998D01*
X345479Y226013D01*
X345512Y226028D01*
X345545Y226042D01*
X345578Y226057D01*
X345610Y226070D01*
X345643Y226084D01*
X345676Y226097D01*
X345708Y226109D01*
X345741Y226121D01*
X345774Y226133D01*
X345807Y226145D01*
X345839Y226156D01*
X345872Y226167D01*
X345904Y226177D01*
X345942Y226188D01*
X345979Y226199D01*
X346003Y226205D01*
X346251Y226253D01*
X346444Y226286D01*
X346663Y226296D01*
X346959Y226299D01*
X346984Y226297D01*
D02*
G37*
G36*
X419427Y250167D02*
X422192Y242129D01*
X426335Y249551D01*
X428526Y249356D01*
X427576Y238705D01*
X426116Y238835D01*
X426893Y247554D01*
X422841Y240292D01*
X421228Y240436D01*
X418524Y248300D01*
X417747Y239581D01*
X416286Y239711D01*
X417236Y250362D01*
X419427Y250167D01*
D02*
G37*
G36*
X437484Y247536D02*
X439375Y236577D01*
X439013Y236232D01*
X437855Y236491D01*
X437362Y239545D01*
X432572Y240613D01*
X430828Y238058D01*
X429670Y238316D01*
X429489Y238782D01*
X435857Y247899D01*
X437484Y247536D01*
D02*
G37*
G36*
X445858Y245258D02*
X448662Y235752D01*
X451320Y243346D01*
X452704Y242862D01*
X449173Y232774D01*
X447919Y233213D01*
X445116Y242720D01*
X442457Y235125D01*
X441074Y235609D01*
X444604Y245697D01*
X445858Y245258D01*
D02*
G37*
G36*
X460671Y238643D02*
X460705Y238642D01*
X460738Y238641D01*
X460772Y238640D01*
X460789Y238639D01*
X460806Y238639D01*
X460839Y238637D01*
X460872Y238635D01*
X460904Y238633D01*
X460937Y238631D01*
X460969Y238628D01*
X461000Y238625D01*
X461032Y238622D01*
X461064Y238619D01*
X461095Y238615D01*
X461126Y238611D01*
X461156Y238607D01*
X461172Y238605D01*
X461187Y238603D01*
X461217Y238599D01*
X461246Y238594D01*
X461276Y238589D01*
X461306Y238584D01*
X461336Y238579D01*
X461366Y238573D01*
X461395Y238568D01*
X461425Y238562D01*
X461455Y238555D01*
X461484Y238549D01*
X461514Y238542D01*
X461544Y238535D01*
X461573Y238528D01*
X461603Y238521D01*
X461633Y238513D01*
X461662Y238506D01*
X461692Y238498D01*
X461721Y238490D01*
X461739Y238484D01*
X461846Y238446D01*
X462136Y238337D01*
X462356Y238240D01*
X462469Y238190D01*
X462496Y238176D01*
X462569Y238137D01*
X462640Y238099D01*
X462676Y238079D01*
X462781Y238019D01*
X462845Y237981D01*
X462884Y237956D01*
X463075Y237835D01*
X463115Y237806D01*
X463158Y237773D01*
X463201Y237739D01*
X463244Y237705D01*
X463285Y237671D01*
X463327Y237636D01*
X463367Y237601D01*
X463407Y237565D01*
X463446Y237529D01*
X463484Y237492D01*
X463513Y237464D01*
X463834Y237098D01*
X464088Y236703D01*
X464096Y236689D01*
X464107Y236668D01*
X464118Y236646D01*
X464124Y236636D01*
X464130Y236623D01*
X464143Y236598D01*
X464155Y236573D01*
X464167Y236548D01*
X464180Y236520D01*
X464195Y236487D01*
X464209Y236455D01*
X464222Y236422D01*
X464241Y236378D01*
X464262Y236321D01*
X464283Y236264D01*
X464302Y236207D01*
X464329Y236122D01*
X464360Y236009D01*
X464386Y235894D01*
X464408Y235779D01*
X464419Y235705D01*
X464423Y235671D01*
X464427Y235638D01*
X464431Y235605D01*
X464434Y235575D01*
X464436Y235549D01*
X464439Y235523D01*
X464440Y235497D01*
X464442Y235473D01*
X464443Y235454D01*
X464436Y235083D01*
X464409Y234837D01*
X464358Y234522D01*
X464353Y234502D01*
X464342Y234457D01*
X464330Y234413D01*
X464320Y234374D01*
X464309Y234334D01*
X464297Y234295D01*
X464285Y234256D01*
X464272Y234216D01*
X464259Y234177D01*
X464245Y234137D01*
X464231Y234097D01*
X464217Y234058D01*
X464201Y234018D01*
X464188Y233984D01*
X464174Y233949D01*
X464160Y233915D01*
X464146Y233881D01*
X464131Y233847D01*
X464116Y233812D01*
X464100Y233778D01*
X464084Y233744D01*
X464068Y233709D01*
X464051Y233675D01*
X464035Y233640D01*
X464017Y233606D01*
X463999Y233571D01*
X463993Y233559D01*
X463983Y233540D01*
X463975Y233524D01*
X463966Y233509D01*
X463958Y233493D01*
X463949Y233477D01*
X463941Y233462D01*
X463932Y233446D01*
X463923Y233431D01*
X463915Y233415D01*
X463904Y233397D01*
X463894Y233379D01*
X463883Y233361D01*
X463873Y233343D01*
X463862Y233325D01*
X463851Y233308D01*
X463840Y233290D01*
X463830Y233273D01*
X463819Y233255D01*
X463808Y233238D01*
X463795Y233218D01*
X463782Y233198D01*
X463769Y233179D01*
X463756Y233159D01*
X463743Y233140D01*
X463730Y233121D01*
X463715Y233099D01*
X463699Y233077D01*
X463684Y233056D01*
X463666Y233032D01*
X463649Y233009D01*
X463629Y232983D01*
X463609Y232957D01*
X463587Y232929D01*
X463563Y232899D01*
X463536Y232867D01*
X463505Y232831D01*
X463500Y232825D01*
X463499Y232823D01*
X463144Y232475D01*
X462759Y232196D01*
X462745Y232187D01*
X462728Y232176D01*
X462711Y232166D01*
X462694Y232156D01*
X462677Y232146D01*
X462660Y232135D01*
X462643Y232125D01*
X462626Y232115D01*
X462608Y232105D01*
X462594Y232097D01*
X462579Y232089D01*
X462565Y232081D01*
X462550Y232073D01*
X462535Y232065D01*
X462520Y232056D01*
X462505Y232048D01*
X462490Y232040D01*
X462475Y232032D01*
X462460Y232025D01*
X462445Y232017D01*
X462430Y232009D01*
X462414Y232001D01*
X462399Y231993D01*
X462383Y231985D01*
X462368Y231978D01*
X462352Y231970D01*
X462336Y231962D01*
X462324Y231956D01*
X462311Y231950D01*
X462298Y231944D01*
X462286Y231938D01*
X462273Y231932D01*
X462260Y231926D01*
X462247Y231920D01*
X462234Y231914D01*
X462221Y231908D01*
X462208Y231902D01*
X462195Y231896D01*
X462182Y231890D01*
X462169Y231885D01*
X462156Y231879D01*
X462142Y231873D01*
X462129Y231867D01*
X462116Y231861D01*
X462102Y231855D01*
X462089Y231850D01*
X462075Y231844D01*
X462062Y231838D01*
X462048Y231832D01*
X462035Y231827D01*
X462021Y231821D01*
X462007Y231815D01*
X461993Y231809D01*
X461980Y231804D01*
X461966Y231798D01*
X461952Y231793D01*
X461938Y231787D01*
X461924Y231781D01*
X461910Y231776D01*
X461896Y231770D01*
X461881Y231765D01*
X461867Y231759D01*
X461853Y231753D01*
X461839Y231748D01*
X461824Y231743D01*
X461810Y231737D01*
X461795Y231732D01*
X461781Y231726D01*
X461766Y231721D01*
X461752Y231715D01*
X461737Y231710D01*
X461726Y231706D01*
X461704Y231698D01*
X461692Y231693D01*
X461681Y231689D01*
X461670Y231685D01*
X461648Y231677D01*
X461636Y231673D01*
X461625Y231669D01*
X461602Y231661D01*
X461591Y231657D01*
X461568Y231649D01*
X461545Y231641D01*
X461533Y231637D01*
X461510Y231629D01*
X461487Y231621D01*
X461475Y231617D01*
X461464Y231613D01*
X461440Y231606D01*
X461416Y231598D01*
X461405Y231594D01*
X461381Y231586D01*
X461357Y231578D01*
X461345Y231574D01*
X461321Y231566D01*
X457580Y230360D01*
X461153Y228492D01*
X461303Y228015D01*
X460829Y227109D01*
X454857Y230231D01*
X455374Y231220D01*
X455387Y231247D01*
X460805Y233001D01*
X460813Y233004D01*
X460830Y233009D01*
X460841Y233013D01*
X460878Y233025D01*
X460894Y233031D01*
X460916Y233038D01*
X460932Y233043D01*
X460953Y233050D01*
X460974Y233057D01*
X461000Y233066D01*
X461010Y233070D01*
X461030Y233077D01*
X461051Y233084D01*
X461071Y233091D01*
X461081Y233094D01*
X461096Y233100D01*
X461111Y233105D01*
X461131Y233112D01*
X461151Y233119D01*
X461161Y233123D01*
X461170Y233126D01*
X461190Y233133D01*
X461209Y233140D01*
X461219Y233144D01*
X461226Y233147D01*
X461240Y233152D01*
X461255Y233157D01*
X461262Y233160D01*
X461276Y233166D01*
X461283Y233168D01*
X461297Y233174D01*
X461311Y233179D01*
X461325Y233184D01*
X461332Y233187D01*
X461353Y233195D01*
X461360Y233198D01*
X461373Y233204D01*
X461380Y233206D01*
X461394Y233212D01*
X461400Y233215D01*
X461414Y233220D01*
X461427Y233226D01*
X461434Y233228D01*
X461447Y233234D01*
X461454Y233237D01*
X461467Y233242D01*
X461474Y233245D01*
X461480Y233248D01*
X461493Y233254D01*
X461506Y233259D01*
X461519Y233265D01*
X461532Y233271D01*
X461545Y233277D01*
X461557Y233282D01*
X461564Y233285D01*
X461577Y233291D01*
X461589Y233297D01*
X461595Y233300D01*
X461604Y233304D01*
X461612Y233308D01*
X461620Y233312D01*
X461628Y233316D01*
X461637Y233320D01*
X461645Y233324D01*
X461653Y233328D01*
X461669Y233336D01*
X461677Y233340D01*
X461685Y233344D01*
X461693Y233348D01*
X461701Y233352D01*
X461709Y233356D01*
X461717Y233360D01*
X461725Y233364D01*
X461733Y233369D01*
X461741Y233373D01*
X461749Y233377D01*
X461764Y233385D01*
X461772Y233390D01*
X461780Y233394D01*
X461788Y233398D01*
X461797Y233403D01*
X461807Y233409D01*
X461816Y233414D01*
X461826Y233420D01*
X461835Y233425D01*
X461844Y233431D01*
X461854Y233436D01*
X461863Y233442D01*
X461872Y233448D01*
X461881Y233453D01*
X461891Y233459D01*
X461902Y233466D01*
X461912Y233473D01*
X461923Y233480D01*
X461934Y233487D01*
X461945Y233494D01*
X461956Y233501D01*
X461968Y233509D01*
X461980Y233518D01*
X461993Y233526D01*
X462005Y233535D01*
X462018Y233545D01*
X462032Y233555D01*
X462048Y233566D01*
X462063Y233577D01*
X462079Y233590D01*
X462098Y233605D01*
X462119Y233622D01*
X462145Y233644D01*
X462149Y233648D01*
X462158Y233655D01*
X462167Y233663D01*
X462176Y233671D01*
X462180Y233674D01*
X462199Y233691D01*
X462236Y233726D01*
X462271Y233761D01*
X462306Y233797D01*
X462323Y233816D01*
X462332Y233825D01*
X462338Y233832D01*
X462344Y233839D01*
X462346Y233842D01*
X462365Y233863D01*
X462382Y233884D01*
X462397Y233902D01*
X462411Y233920D01*
X462424Y233935D01*
X462436Y233951D01*
X462447Y233966D01*
X462458Y233980D01*
X462467Y233993D01*
X462477Y234006D01*
X462486Y234019D01*
X462495Y234033D01*
X462504Y234046D01*
X462512Y234057D01*
X462520Y234069D01*
X462528Y234081D01*
X462536Y234093D01*
X462543Y234105D01*
X462551Y234117D01*
X462559Y234129D01*
X462565Y234139D01*
X462571Y234149D01*
X462578Y234160D01*
X462584Y234170D01*
X462590Y234181D01*
X462596Y234191D01*
X462603Y234202D01*
X462609Y234212D01*
X462615Y234223D01*
X462621Y234234D01*
X462627Y234245D01*
X462633Y234256D01*
X462639Y234267D01*
X462645Y234278D01*
X462651Y234289D01*
X462657Y234301D01*
X462661Y234308D01*
X462672Y234330D01*
X462682Y234349D01*
X462691Y234368D01*
X462701Y234387D01*
X462710Y234406D01*
X462718Y234425D01*
X462727Y234443D01*
X462736Y234462D01*
X462744Y234481D01*
X462752Y234500D01*
X462760Y234519D01*
X462768Y234538D01*
X462776Y234557D01*
X462783Y234576D01*
X462791Y234594D01*
X462798Y234613D01*
X462805Y234632D01*
X462812Y234651D01*
X462818Y234670D01*
X462824Y234688D01*
X462831Y234707D01*
X462837Y234726D01*
X462843Y234744D01*
X462848Y234763D01*
X462854Y234782D01*
X462860Y234803D01*
X462866Y234825D01*
X462872Y234846D01*
X462877Y234868D01*
X462882Y234890D01*
X462887Y234911D01*
X462892Y234933D01*
X462897Y234954D01*
X462901Y234976D01*
X462905Y234997D01*
X462909Y235018D01*
X462912Y235039D01*
X462916Y235061D01*
X462919Y235085D01*
X462922Y235109D01*
X462925Y235133D01*
X462927Y235157D01*
X462930Y235181D01*
X462931Y235205D01*
X462933Y235232D01*
X462935Y235259D01*
X462935Y235285D01*
X462936Y235312D01*
X462936Y235341D01*
X462936Y235371D01*
X462936Y235383D01*
X462935Y235391D01*
X462935Y235399D01*
X462935Y235403D01*
X462935Y235407D01*
X462934Y235415D01*
X462934Y235423D01*
X462934Y235431D01*
X462933Y235435D01*
X462933Y235439D01*
X462932Y235448D01*
X462932Y235457D01*
X462931Y235465D01*
X462931Y235470D01*
X462931Y235474D01*
X462930Y235484D01*
X462929Y235493D01*
X462928Y235502D01*
X462927Y235512D01*
X462926Y235522D01*
X462925Y235532D01*
X462924Y235542D01*
X462923Y235547D01*
X462922Y235553D01*
X462921Y235564D01*
X462919Y235576D01*
X462918Y235587D01*
X462917Y235593D01*
X462916Y235599D01*
X462914Y235613D01*
X462911Y235626D01*
X462909Y235640D01*
X462908Y235646D01*
X462906Y235655D01*
X462902Y235672D01*
X462899Y235690D01*
X462895Y235707D01*
X462893Y235716D01*
X462881Y235761D01*
X462855Y235851D01*
X462823Y235939D01*
X462786Y236024D01*
X462766Y236067D01*
X462763Y236073D01*
X462763Y236073D01*
X462756Y236085D01*
X462756Y236085D01*
X462750Y236097D01*
X462750Y236097D01*
X462744Y236109D01*
X462744Y236109D01*
X462740Y236115D01*
X462740Y236115D01*
X462738Y236120D01*
X462738Y236120D01*
X462732Y236130D01*
X462732Y236130D01*
X462726Y236140D01*
X462726Y236140D01*
X462721Y236150D01*
X462720Y236151D01*
X462718Y236155D01*
X462718Y236156D01*
X462715Y236160D01*
X462715Y236160D01*
X462710Y236169D01*
X462710Y236169D01*
X462705Y236177D01*
X462705Y236177D01*
X462699Y236186D01*
X462699Y236186D01*
X462697Y236190D01*
X462697Y236191D01*
X462694Y236194D01*
X462694Y236194D01*
X462689Y236202D01*
X462689Y236203D01*
X462684Y236210D01*
X462684Y236211D01*
X462679Y236218D01*
X462679Y236219D01*
X462677Y236222D01*
X462676Y236223D01*
X462674Y236226D01*
X462674Y236226D01*
X462669Y236233D01*
X462669Y236234D01*
X462665Y236241D01*
X462664Y236241D01*
X462660Y236248D01*
X462659Y236248D01*
X462655Y236255D01*
X462655Y236256D01*
X462650Y236262D01*
X462650Y236262D01*
X462646Y236268D01*
X462645Y236269D01*
X462641Y236275D01*
X462641Y236276D01*
X462639Y236278D01*
X462638Y236279D01*
X462637Y236282D01*
X462636Y236283D01*
X462632Y236288D01*
X462631Y236290D01*
X462627Y236295D01*
X462625Y236298D01*
X462620Y236305D01*
X462602Y236329D01*
X462585Y236351D01*
X462584Y236352D01*
X462567Y236373D01*
X462567Y236373D01*
X462550Y236394D01*
X462550Y236394D01*
X462533Y236415D01*
X462532Y236415D01*
X462516Y236433D01*
X462516Y236433D01*
X462500Y236451D01*
X462500Y236452D01*
X462484Y236469D01*
X462484Y236470D01*
X462467Y236487D01*
X462467Y236488D01*
X462450Y236505D01*
X462449Y236505D01*
X462434Y236521D01*
X462434Y236521D01*
X462419Y236536D01*
X462419Y236536D01*
X462403Y236551D01*
X462403Y236551D01*
X462387Y236566D01*
X462387Y236566D01*
X462371Y236581D01*
X462371Y236581D01*
X462354Y236596D01*
X462354Y236596D01*
X462337Y236611D01*
X462337Y236611D01*
X462321Y236626D01*
X462321Y236626D01*
X462303Y236640D01*
X462303Y236640D01*
X462301Y236642D01*
X462286Y236655D01*
X462271Y236667D01*
X462256Y236679D01*
X462240Y236691D01*
X462224Y236703D01*
X462209Y236715D01*
X462193Y236727D01*
X462177Y236739D01*
X462160Y236751D01*
X462144Y236762D01*
X462127Y236774D01*
X462111Y236785D01*
X462093Y236796D01*
X462076Y236807D01*
X462059Y236819D01*
X462042Y236830D01*
X462041Y236830D01*
X462024Y236841D01*
X462024Y236841D01*
X462006Y236852D01*
X462006Y236852D01*
X461988Y236862D01*
X461988Y236862D01*
X461970Y236873D01*
X461970Y236873D01*
X461951Y236884D01*
X461951Y236884D01*
X461933Y236894D01*
X461933Y236894D01*
X461914Y236905D01*
X461914Y236905D01*
X461895Y236915D01*
X461895Y236915D01*
X461876Y236925D01*
X461876Y236925D01*
X461860Y236933D01*
X461860Y236933D01*
X461820Y236954D01*
X461820Y236954D01*
X461779Y236974D01*
X461779Y236974D01*
X461774Y236977D01*
X461774Y236977D01*
X461763Y236982D01*
X461763Y236982D01*
X461753Y236987D01*
X461752Y236987D01*
X461742Y236992D01*
X461741Y236992D01*
X461736Y236994D01*
X461736Y236995D01*
X461731Y236997D01*
X461730Y236997D01*
X461719Y237002D01*
X461719Y237002D01*
X461708Y237007D01*
X461707Y237007D01*
X461696Y237012D01*
X461695Y237013D01*
X461690Y237015D01*
X461690Y237015D01*
X461684Y237017D01*
X461683Y237018D01*
X461672Y237023D01*
X461670Y237023D01*
X461660Y237028D01*
X461656Y237029D01*
X461648Y237033D01*
X461642Y237035D01*
Y237035D01*
X461635Y237038D01*
X461627Y237041D01*
X461622Y237043D01*
X461612Y237048D01*
X461610Y237048D01*
X461598Y237053D01*
X461597Y237053D01*
X461591Y237056D01*
X461590Y237056D01*
X461584Y237058D01*
X461583Y237059D01*
X461570Y237064D01*
X461569Y237064D01*
X461556Y237069D01*
X461555Y237069D01*
X461541Y237074D01*
X461541Y237075D01*
X461534Y237077D01*
X461534Y237077D01*
X461526Y237080D01*
X461526Y237080D01*
X461510Y237086D01*
X461510Y237086D01*
X461494Y237091D01*
X461493Y237091D01*
X461477Y237097D01*
X461477Y237097D01*
X461469Y237100D01*
X461469Y237100D01*
X461460Y237103D01*
X461460Y237103D01*
X461441Y237109D01*
X461441Y237109D01*
X461422Y237115D01*
X461422Y237115D01*
X461403Y237120D01*
X461403Y237120D01*
X461394Y237123D01*
X461394Y237123D01*
X461382Y237126D01*
X461382Y237127D01*
X461360Y237133D01*
X461360Y237133D01*
X461337Y237139D01*
X461337Y237139D01*
X461314Y237145D01*
X461314Y237145D01*
X461303Y237148D01*
X461302Y237148D01*
X461286Y237153D01*
X461285Y237153D01*
X461252Y237161D01*
X461251Y237161D01*
X461217Y237169D01*
X461217Y237169D01*
X461183Y237176D01*
X461166Y237179D01*
X461106Y237190D01*
X460986Y237208D01*
X460864Y237219D01*
X460743Y237225D01*
X460681Y237225D01*
X460669Y237225D01*
X460669Y237225D01*
X460645Y237225D01*
X460644Y237225D01*
X460620Y237224D01*
X460620Y237224D01*
X460595Y237223D01*
X460595Y237223D01*
X460583Y237223D01*
X460583Y237223D01*
X460573Y237222D01*
X460573Y237222D01*
X460553Y237221D01*
X460553Y237221D01*
X460533Y237220D01*
X460533Y237220D01*
X460513Y237219D01*
X460513Y237219D01*
X460503Y237218D01*
X460503Y237218D01*
X460494Y237217D01*
X460494Y237217D01*
X460476Y237216D01*
X460476Y237216D01*
X460458Y237214D01*
X460458Y237214D01*
X460440Y237213D01*
X460440Y237213D01*
X460431Y237212D01*
X460431Y237212D01*
X460423Y237211D01*
X460423Y237211D01*
X460407Y237209D01*
X460407Y237209D01*
X460391Y237207D01*
X460391Y237207D01*
X460375Y237205D01*
X460375Y237205D01*
X460367Y237204D01*
X460367Y237204D01*
X460360Y237203D01*
X460359Y237203D01*
X460346Y237201D01*
X460345Y237201D01*
X460331Y237199D01*
X460330Y237199D01*
X460316Y237197D01*
X460315Y237197D01*
X460309Y237196D01*
X460308Y237196D01*
X460302Y237195D01*
X460300Y237195D01*
X460288Y237193D01*
X460286Y237192D01*
X460274Y237190D01*
X460270Y237190D01*
X460260Y237188D01*
X460253Y237187D01*
X460253Y237187D01*
X460246Y237186D01*
X460233Y237183D01*
X460220Y237181D01*
X460206Y237178D01*
X460200Y237177D01*
X460193Y237176D01*
X460181Y237173D01*
X460168Y237171D01*
X460155Y237168D01*
X460149Y237167D01*
X460131Y237163D01*
X460119Y237160D01*
X460112Y237158D01*
X460102Y237156D01*
X460056Y237145D01*
X460012Y237133D01*
X460011Y237133D01*
X459970Y237121D01*
X459969Y237121D01*
X459927Y237109D01*
X459927Y237109D01*
X459887Y237097D01*
X459887Y237096D01*
X459848Y237084D01*
X459848Y237083D01*
X459808Y237070D01*
X459808Y237070D01*
X459771Y237057D01*
X459771Y237057D01*
X459735Y237043D01*
X459734Y237043D01*
X459698Y237029D01*
X459698Y237029D01*
X459661Y237014D01*
X459661Y237014D01*
X459627Y236999D01*
X459502Y237015D01*
X459222Y237105D01*
X459200Y237115D01*
X459178Y237125D01*
X459157Y237138D01*
X459136Y237153D01*
X459112Y237173D01*
X459097Y237189D01*
X459079Y237210D01*
X459051Y237251D01*
X459042Y237266D01*
X458689Y238090D01*
X458707Y238102D01*
X458743Y238123D01*
X458780Y238145D01*
X458817Y238166D01*
X458861Y238191D01*
X458915Y238220D01*
X458968Y238248D01*
X459022Y238275D01*
X459161Y238341D01*
X459391Y238432D01*
X459627Y238507D01*
X459867Y238566D01*
X459989Y238587D01*
X460014Y238592D01*
X460063Y238599D01*
X460112Y238607D01*
X460161Y238613D01*
X460186Y238616D01*
X460207Y238619D01*
X460250Y238623D01*
X460292Y238627D01*
X460334Y238631D01*
X460375Y238634D01*
X460414Y238636D01*
X460453Y238638D01*
X460491Y238640D01*
X460528Y238641D01*
X460564Y238642D01*
X460600Y238643D01*
X460636Y238643D01*
X460671Y238643D01*
D02*
G37*
G36*
X469830Y233269D02*
X469873Y233269D01*
X469916Y233268D01*
X469966Y233266D01*
X470022Y233263D01*
X470079Y233259D01*
X470136Y233255D01*
X470164Y233252D01*
X470298Y233240D01*
X470563Y233197D01*
X470824Y233136D01*
X471081Y233058D01*
X471206Y233010D01*
X471226Y233003D01*
X471265Y232987D01*
X471304Y232972D01*
X471342Y232956D01*
X471378Y232941D01*
X471409Y232927D01*
X471441Y232912D01*
X471473Y232898D01*
X471502Y232884D01*
X471528Y232872D01*
X471539Y232866D01*
X471944Y232641D01*
X471945Y232641D01*
X471946Y232640D01*
X472266Y232414D01*
X472579Y232155D01*
D01*
X472921Y231796D01*
X472936Y231779D01*
X473034Y231660D01*
X473180Y231457D01*
X473313Y231246D01*
X473430Y231033D01*
X473614Y230610D01*
X473614Y230610D01*
X473752Y230167D01*
X473754Y230160D01*
X473757Y230147D01*
X473760Y230135D01*
X473837Y229728D01*
X473861Y229516D01*
X473882Y229254D01*
X473887Y228867D01*
X473886Y228851D01*
X473883Y228774D01*
X473878Y228696D01*
X473872Y228619D01*
X473865Y228541D01*
X473857Y228463D01*
X473847Y228384D01*
X473837Y228306D01*
X473825Y228227D01*
X473811Y228148D01*
X473797Y228069D01*
X473783Y227997D01*
X473769Y227926D01*
X473753Y227854D01*
X473736Y227783D01*
X473718Y227711D01*
X473699Y227639D01*
X473679Y227567D01*
X473659Y227495D01*
X473637Y227422D01*
X473614Y227350D01*
X473590Y227278D01*
X473566Y227205D01*
X473540Y227133D01*
X473513Y227061D01*
X473485Y226988D01*
X473457Y226916D01*
X473427Y226843D01*
X473396Y226770D01*
X473364Y226698D01*
X473332Y226625D01*
X473298Y226553D01*
X473263Y226480D01*
X473228Y226408D01*
X473191Y226335D01*
X473153Y226263D01*
X473114Y226191D01*
X473074Y226118D01*
X473034Y226046D01*
X472992Y225974D01*
X472949Y225902D01*
X472905Y225830D01*
X472860Y225758D01*
X472814Y225686D01*
X472778Y225630D01*
X472725Y225551D01*
X472677Y225481D01*
X472628Y225412D01*
X472579Y225343D01*
X472530Y225276D01*
X472479Y225209D01*
X472429Y225144D01*
X472378Y225079D01*
X472327Y225015D01*
X472275Y224952D01*
X472223Y224890D01*
X472170Y224829D01*
X472117Y224769D01*
X472063Y224710D01*
X472009Y224651D01*
X471955Y224594D01*
X471900Y224537D01*
X471845Y224482D01*
X471790Y224427D01*
X471734Y224373D01*
X471678Y224320D01*
X471621Y224269D01*
X471564Y224218D01*
X471507Y224168D01*
X471450Y224118D01*
X471392Y224070D01*
X471333Y224023D01*
X471275Y223977D01*
X471216Y223932D01*
X471157Y223887D01*
X471098Y223844D01*
X471038Y223801D01*
X470978Y223760D01*
X470918Y223719D01*
X470857Y223680D01*
X470797Y223641D01*
X470729Y223599D01*
X470661Y223559D01*
X470592Y223519D01*
X470524Y223481D01*
X470455Y223444D01*
X470386Y223408D01*
X470317Y223373D01*
X470247Y223340D01*
X470177Y223308D01*
X470108Y223276D01*
X470041Y223248D01*
X469824Y223170D01*
X469756Y223148D01*
X469691Y223127D01*
X469578Y223092D01*
X469514Y223074D01*
X469480Y223064D01*
X469446Y223055D01*
X469415Y223046D01*
X469390Y223040D01*
X469383Y223038D01*
X469356Y223032D01*
X469023Y222962D01*
X468677Y222919D01*
X468977Y222953D01*
X468977Y222953D01*
X468581Y222909D01*
X468367Y222903D01*
X468033Y222908D01*
X467981Y222912D01*
X467827Y222927D01*
X467583Y222966D01*
X467342Y223019D01*
X467270Y223040D01*
X466956Y223147D01*
X466648Y223280D01*
X466395Y223411D01*
X466297Y223463D01*
X466293Y223465D01*
X466265Y223483D01*
X466208Y223519D01*
X466033Y223636D01*
X465876Y223743D01*
X465729Y223853D01*
X465840Y223768D01*
X465840Y223768D01*
X465605Y223949D01*
X465601Y223953D01*
X465576Y223975D01*
X465552Y223997D01*
X465527Y224019D01*
X465501Y224044D01*
X465474Y224070D01*
X465447Y224097D01*
X465419Y224124D01*
X465389Y224155D01*
X465355Y224190D01*
X465321Y224225D01*
X465288Y224261D01*
X465240Y224315D01*
X465179Y224388D01*
X465119Y224461D01*
X465061Y224536D01*
X464987Y224637D01*
X464900Y224765D01*
X464818Y224897D01*
X464742Y225031D01*
X464706Y225100D01*
X464706Y225100D01*
X464694Y225123D01*
X464671Y225169D01*
X464648Y225216D01*
X464626Y225262D01*
X464607Y225305D01*
X464591Y225342D01*
X464574Y225380D01*
X464559Y225417D01*
X464544Y225453D01*
X464531Y225486D01*
X464518Y225519D01*
X464505Y225553D01*
X464494Y225585D01*
X464483Y225615D01*
X464472Y225646D01*
X464462Y225676D01*
X464457Y225692D01*
X464452Y225705D01*
X464443Y225732D01*
X464435Y225760D01*
X464426Y225787D01*
X464422Y225801D01*
X464418Y225814D01*
X464411Y225839D01*
X464338Y226151D01*
X464294Y226383D01*
X464274Y226547D01*
X464263Y226635D01*
X464241Y226905D01*
X464234Y227119D01*
X464234Y227119D01*
X464235Y227196D01*
X464237Y227272D01*
X464240Y227349D01*
X464245Y227426D01*
X464250Y227504D01*
X464257Y227581D01*
X464265Y227659D01*
X464274Y227737D01*
X464284Y227816D01*
X464294Y227887D01*
X464306Y227958D01*
X464318Y228029D01*
X464331Y228100D01*
X464345Y228171D01*
X464361Y228243D01*
X464377Y228314D01*
X464394Y228386D01*
X464412Y228458D01*
X464431Y228530D01*
X464451Y228602D01*
X464472Y228674D01*
X464494Y228747D01*
X464517Y228819D01*
X464541Y228891D01*
X464566Y228964D01*
X464593Y229036D01*
X464620Y229109D01*
X464648Y229182D01*
X464677Y229254D01*
X464707Y229327D01*
X464738Y229399D01*
X464770Y229472D01*
X464803Y229545D01*
X464837Y229618D01*
X464872Y229690D01*
X464909Y229763D01*
X464946Y229836D01*
X464984Y229908D01*
X465023Y229981D01*
X465063Y230053D01*
X465104Y230126D01*
X465147Y230199D01*
X465190Y230271D01*
X465234Y230343D01*
X465280Y230415D01*
X465326Y230487D01*
X465352Y230527D01*
X465405Y230607D01*
X465454Y230677D01*
X465502Y230747D01*
X465552Y230816D01*
X465601Y230884D01*
X465652Y230950D01*
X465702Y231016D01*
X465753Y231081D01*
X465805Y231145D01*
X465857Y231209D01*
X465909Y231271D01*
X465962Y231332D01*
X466015Y231393D01*
X466069Y231452D01*
X466123Y231511D01*
X466177Y231568D01*
X466232Y231625D01*
X466287Y231681D01*
X466343Y231735D01*
X466399Y231789D01*
X466455Y231842D01*
X466512Y231894D01*
X466569Y231945D01*
X466626Y231996D01*
X466683Y232045D01*
X466741Y232093D01*
X466799Y232140D01*
X466858Y232187D01*
X466917Y232232D01*
X466976Y232276D01*
X467035Y232320D01*
X467095Y232362D01*
X467155Y232404D01*
X467215Y232445D01*
X467275Y232484D01*
X467336Y232523D01*
X467397Y232561D01*
X467458Y232597D01*
X467519Y232633D01*
X467588Y232672D01*
X467656Y232709D01*
X467725Y232746D01*
X467794Y232781D01*
X467864Y232815D01*
X467933Y232847D01*
X468003Y232879D01*
X468073Y232909D01*
X468143Y232938D01*
X468213Y232966D01*
X468291Y232995D01*
X468368Y233023D01*
X468378Y233026D01*
X468397Y233033D01*
X468417Y233040D01*
X468436Y233046D01*
X468456Y233052D01*
X468475Y233059D01*
X468495Y233065D01*
X468514Y233071D01*
X468524Y233074D01*
Y233074D01*
X468534Y233077D01*
X468553Y233083D01*
X468573Y233089D01*
X468592Y233095D01*
X468613Y233101D01*
X468634Y233107D01*
X468655Y233113D01*
X468677Y233119D01*
X468698Y233124D01*
X468719Y233130D01*
X468741Y233135D01*
X468762Y233141D01*
X468784Y233146D01*
X468805Y233151D01*
X468826Y233156D01*
X468848Y233161D01*
X468870Y233166D01*
X468893Y233171D01*
X468916Y233176D01*
X468940Y233181D01*
X468951Y233184D01*
X468963Y233186D01*
X468986Y233191D01*
X469009Y233195D01*
X469032Y233199D01*
X469044Y233202D01*
X469057Y233204D01*
X469082Y233208D01*
X469107Y233212D01*
X469132Y233217D01*
X469144Y233219D01*
X469158Y233221D01*
X469184Y233225D01*
X469211Y233228D01*
X469238Y233232D01*
X469266Y233236D01*
X469294Y233239D01*
X469323Y233243D01*
X469352Y233246D01*
X469381Y233249D01*
X469412Y233252D01*
X469442Y233255D01*
X469472Y233257D01*
X469504Y233259D01*
X469536Y233262D01*
X469568Y233263D01*
X469600Y233265D01*
X469635Y233267D01*
X469672Y233268D01*
X469710Y233269D01*
X469747Y233269D01*
X469788Y233270D01*
X469830Y233269D01*
D02*
G37*
G36*
X477842Y227433D02*
X478335Y227397D01*
X478335Y227397D01*
X478797Y227306D01*
X478805Y227304D01*
X478836Y227295D01*
X478868Y227286D01*
X478884Y227282D01*
X478899Y227277D01*
X478930Y227268D01*
X478961Y227259D01*
X478991Y227249D01*
X479021Y227239D01*
X479051Y227230D01*
X479080Y227220D01*
X479110Y227209D01*
X479124Y227204D01*
X479139Y227199D01*
X479167Y227188D01*
X479195Y227178D01*
X479223Y227167D01*
X479251Y227156D01*
X479280Y227145D01*
X479308Y227133D01*
X479336Y227122D01*
X479363Y227110D01*
X479391Y227098D01*
X479419Y227085D01*
X479447Y227073D01*
X479461Y227066D01*
X479474Y227060D01*
X479502Y227047D01*
X479529Y227034D01*
X479557Y227020D01*
X479584Y227007D01*
X479610Y226993D01*
X479636Y226980D01*
X479663Y226966D01*
X479689Y226952D01*
X479715Y226938D01*
X479741Y226923D01*
X479767Y226909D01*
X479793Y226894D01*
X479818Y226879D01*
X479844Y226864D01*
X479870Y226849D01*
X479896Y226833D01*
X479922Y226817D01*
X479948Y226800D01*
X479974Y226783D01*
X480000Y226766D01*
X480026Y226749D01*
X480052Y226732D01*
X480078Y226714D01*
X480104Y226697D01*
X480129Y226679D01*
X480155Y226661D01*
X480180Y226642D01*
X480205Y226624D01*
X480231Y226605D01*
X480256Y226586D01*
X480281Y226567D01*
X480302Y226550D01*
X480320Y226536D01*
X480339Y226521D01*
X480357Y226507D01*
X480366Y226500D01*
X480729Y226170D01*
X480746Y226153D01*
X480780Y226117D01*
X480814Y226080D01*
X480851Y226040D01*
X480887Y225999D01*
X480922Y225957D01*
X480957Y225916D01*
X480991Y225873D01*
X481025Y225831D01*
X481057Y225788D01*
X481089Y225746D01*
X481120Y225702D01*
X481150Y225659D01*
X481180Y225615D01*
X481212Y225566D01*
X481242Y225517D01*
X481272Y225468D01*
X481294Y225431D01*
X481496Y225015D01*
X481636Y224572D01*
X481637Y224567D01*
X481645Y224533D01*
X481653Y224498D01*
X481660Y224463D01*
X481663Y224446D01*
X481669Y224414D01*
X481679Y224351D01*
X481689Y224287D01*
X481696Y224223D01*
X481705Y224136D01*
X481712Y224025D01*
X481714Y223914D01*
X481713Y223803D01*
X481710Y223748D01*
X481709Y223731D01*
X481707Y223698D01*
X481704Y223664D01*
X481702Y223631D01*
X481699Y223608D01*
X481649Y223325D01*
X481597Y223084D01*
X481528Y222881D01*
X481410Y222568D01*
X481409Y222566D01*
X481389Y222524D01*
X481369Y222482D01*
X481351Y222446D01*
X481332Y222410D01*
X481313Y222374D01*
X481293Y222338D01*
X481273Y222301D01*
X481252Y222265D01*
X481231Y222229D01*
X481210Y222193D01*
X481187Y222157D01*
X481165Y222121D01*
X481145Y222090D01*
X481125Y222059D01*
X481104Y222029D01*
X481083Y221998D01*
X481062Y221967D01*
X481041Y221936D01*
X481019Y221906D01*
X480996Y221875D01*
X480974Y221845D01*
X480950Y221814D01*
X480927Y221784D01*
X480903Y221753D01*
X480879Y221723D01*
X480867Y221708D01*
X480853Y221691D01*
X480842Y221677D01*
X480830Y221663D01*
X480819Y221650D01*
X480807Y221636D01*
X480796Y221622D01*
X480784Y221609D01*
X480773Y221596D01*
X480761Y221582D01*
X480747Y221567D01*
X480733Y221551D01*
X480720Y221535D01*
X480706Y221520D01*
X480692Y221504D01*
X480678Y221489D01*
X480663Y221474D01*
X480650Y221459D01*
X480635Y221445D01*
X480621Y221430D01*
X480605Y221413D01*
X480588Y221396D01*
X480572Y221379D01*
X480554Y221362D01*
X480201Y221060D01*
X480004Y220933D01*
X479805Y220807D01*
X479404Y220623D01*
X479389Y220617D01*
X479371Y220610D01*
X479352Y220603D01*
X479334Y220597D01*
X479315Y220590D01*
X479296Y220583D01*
X479278Y220577D01*
X479259Y220570D01*
X479240Y220564D01*
X479221Y220558D01*
X479205Y220552D01*
X479189Y220547D01*
X479173Y220542D01*
X479157Y220537D01*
X479141Y220532D01*
X479125Y220527D01*
X479108Y220522D01*
X479092Y220517D01*
X479076Y220513D01*
X479060Y220508D01*
X479043Y220503D01*
X479027Y220498D01*
X479010Y220494D01*
X478993Y220489D01*
X478976Y220485D01*
X478960Y220480D01*
X478943Y220476D01*
X478926Y220471D01*
X478912Y220468D01*
X478899Y220464D01*
X478885Y220461D01*
X478871Y220458D01*
X478858Y220454D01*
X478844Y220451D01*
X478830Y220448D01*
X478816Y220444D01*
X478802Y220441D01*
X478788Y220438D01*
X478774Y220435D01*
X478760Y220431D01*
X478746Y220428D01*
X478732Y220425D01*
X478718Y220422D01*
X478704Y220419D01*
X478690Y220416D01*
X478675Y220413D01*
X478661Y220410D01*
X478647Y220407D01*
X478632Y220404D01*
X478618Y220401D01*
X478603Y220398D01*
X478589Y220395D01*
X478574Y220392D01*
X478560Y220390D01*
X478545Y220387D01*
X478530Y220384D01*
X478515Y220381D01*
X478501Y220378D01*
X478486Y220376D01*
X478471Y220373D01*
X478456Y220370D01*
X478441Y220368D01*
X478426Y220365D01*
X478411Y220363D01*
X478396Y220360D01*
X478380Y220357D01*
X478365Y220355D01*
X478350Y220352D01*
X478335Y220350D01*
X478319Y220347D01*
X478304Y220345D01*
X478288Y220343D01*
X478277Y220341D01*
X478265Y220339D01*
X478253Y220337D01*
X478242Y220336D01*
X478230Y220334D01*
X478218Y220332D01*
X478206Y220330D01*
X478183Y220327D01*
X478159Y220323D01*
X478147Y220322D01*
X478123Y220318D01*
X478099Y220315D01*
X478087Y220314D01*
X478075Y220312D01*
X478063Y220310D01*
X478050Y220309D01*
X478038Y220307D01*
X478026Y220306D01*
X478014Y220304D01*
X478001Y220303D01*
X477989Y220301D01*
X477977Y220299D01*
X477964Y220298D01*
X477952Y220296D01*
X477940Y220295D01*
X477927Y220293D01*
X477915Y220292D01*
X477890Y220289D01*
X477877Y220287D01*
X477865Y220286D01*
X477852Y220285D01*
X473947Y219844D01*
X477353Y217083D01*
X476710Y216289D01*
X476213Y216237D01*
X471528Y220035D01*
X471476Y220532D01*
X471956Y221124D01*
X471975Y221148D01*
X477631Y221793D01*
X477657Y221796D01*
X477674Y221798D01*
X477685Y221800D01*
X477708Y221802D01*
X477719Y221804D01*
X477741Y221806D01*
X477747Y221807D01*
X477764Y221809D01*
X477780Y221811D01*
X477791Y221813D01*
X477797Y221813D01*
X477808Y221815D01*
X477818Y221816D01*
X477824Y221817D01*
X477829Y221817D01*
X477845Y221819D01*
X477872Y221823D01*
X477883Y221825D01*
X477894Y221826D01*
X477910Y221828D01*
X477936Y221832D01*
X477952Y221834D01*
X477968Y221836D01*
X477988Y221839D01*
X478004Y221842D01*
X478014Y221843D01*
X478024Y221845D01*
X478035Y221846D01*
X478045Y221848D01*
X478055Y221849D01*
X478073Y221852D01*
X478088Y221854D01*
X478095Y221856D01*
X478111Y221858D01*
X478125Y221861D01*
X478133Y221862D01*
X478148Y221864D01*
X478155Y221866D01*
X478170Y221868D01*
X478177Y221869D01*
X478185Y221871D01*
X478199Y221873D01*
X478214Y221876D01*
X478228Y221879D01*
X478235Y221880D01*
X478250Y221883D01*
X478257Y221884D01*
X478264Y221885D01*
X478271Y221887D01*
X478286Y221889D01*
X478293Y221891D01*
X478314Y221895D01*
X478328Y221898D01*
X478335Y221899D01*
X478349Y221902D01*
X478363Y221905D01*
X478370Y221907D01*
X478383Y221910D01*
X478390Y221911D01*
X478404Y221915D01*
X478418Y221918D01*
X478431Y221921D01*
X478438Y221922D01*
X478452Y221926D01*
X478467Y221929D01*
X478476Y221932D01*
X478485Y221934D01*
X478494Y221936D01*
X478503Y221938D01*
X478512Y221941D01*
X478521Y221943D01*
X478529Y221945D01*
X478538Y221948D01*
X478547Y221950D01*
X478556Y221952D01*
X478564Y221955D01*
X478573Y221957D01*
X478582Y221959D01*
X478590Y221962D01*
X478599Y221964D01*
X478607Y221967D01*
X478616Y221969D01*
X478624Y221972D01*
X478633Y221974D01*
X478641Y221977D01*
X478650Y221980D01*
X478658Y221982D01*
X478667Y221985D01*
X478675Y221988D01*
X478686Y221991D01*
X478696Y221994D01*
X478706Y221998D01*
X478717Y222001D01*
X478727Y222005D01*
X478737Y222008D01*
X478748Y222012D01*
X478758Y222016D01*
X478768Y222019D01*
X478778Y222023D01*
X478788Y222027D01*
X478800Y222031D01*
X478812Y222036D01*
X478824Y222041D01*
X478836Y222045D01*
X478848Y222050D01*
X478860Y222055D01*
X478874Y222061D01*
X478888Y222067D01*
X478901Y222073D01*
X478917Y222080D01*
X478932Y222087D01*
X478948Y222094D01*
X478965Y222102D01*
X478984Y222111D01*
X479005Y222121D01*
X479027Y222133D01*
X479053Y222147D01*
X479058Y222149D01*
X479065Y222153D01*
X479073Y222158D01*
X479081Y222162D01*
X479085Y222164D01*
X479091Y222168D01*
X479104Y222175D01*
X479116Y222182D01*
X479128Y222189D01*
X479135Y222193D01*
X479152Y222203D01*
X479185Y222225D01*
X479219Y222247D01*
X479252Y222270D01*
X479268Y222281D01*
X479272Y222284D01*
X479280Y222290D01*
X479288Y222296D01*
X479296Y222302D01*
X479300Y222305D01*
X479324Y222323D01*
X479345Y222339D01*
X479364Y222355D01*
X479381Y222369D01*
X479396Y222382D01*
X479411Y222395D01*
X479425Y222407D01*
X479438Y222419D01*
X479452Y222431D01*
X479464Y222442D01*
X479475Y222453D01*
X479487Y222464D01*
X479499Y222475D01*
X479509Y222485D01*
X479519Y222495D01*
X479529Y222505D01*
X479539Y222515D01*
X479549Y222525D01*
X479559Y222535D01*
X479568Y222545D01*
X479578Y222556D01*
X479586Y222565D01*
X479595Y222573D01*
X479603Y222582D01*
X479611Y222591D01*
X479619Y222601D01*
X479627Y222610D01*
X479635Y222619D01*
X479644Y222628D01*
X479652Y222638D01*
X479660Y222647D01*
X479668Y222657D01*
X479676Y222666D01*
X479684Y222676D01*
X479692Y222686D01*
X479700Y222695D01*
X479708Y222705D01*
X479724Y222725D01*
X479737Y222742D01*
X479750Y222758D01*
X479763Y222775D01*
X479776Y222792D01*
X479788Y222809D01*
X479801Y222826D01*
X479813Y222842D01*
X479825Y222859D01*
X479837Y222876D01*
X479848Y222893D01*
X479860Y222910D01*
X479871Y222927D01*
X479882Y222944D01*
X479893Y222961D01*
X479904Y222978D01*
X479914Y222995D01*
X479924Y223012D01*
X479935Y223029D01*
X479945Y223046D01*
X479954Y223063D01*
X479964Y223080D01*
X479974Y223097D01*
X479983Y223114D01*
X479992Y223132D01*
X480002Y223152D01*
X480012Y223172D01*
X480022Y223192D01*
X480032Y223212D01*
X480041Y223232D01*
X480051Y223252D01*
X480059Y223272D01*
X480068Y223292D01*
X480076Y223312D01*
X480085Y223332D01*
X480092Y223353D01*
X480100Y223373D01*
X480108Y223393D01*
X480116Y223416D01*
X480124Y223439D01*
X480131Y223462D01*
X480138Y223485D01*
X480145Y223508D01*
X480152Y223531D01*
X480159Y223557D01*
X480166Y223583D01*
X480172Y223609D01*
X480178Y223635D01*
X480184Y223664D01*
X480189Y223693D01*
X480190Y223697D01*
X480191Y223705D01*
X480193Y223712D01*
X480194Y223720D01*
X480195Y223724D01*
X480197Y223736D01*
X480198Y223744D01*
X480199Y223752D01*
X480200Y223760D01*
X480201Y223769D01*
X480202Y223778D01*
X480203Y223786D01*
X480204Y223791D01*
X480205Y223795D01*
X480206Y223804D01*
X480207Y223814D01*
X480208Y223823D01*
X480208Y223828D01*
X480209Y223833D01*
X480210Y223843D01*
X480210Y223853D01*
X480211Y223863D01*
X480212Y223874D01*
X480213Y223885D01*
X480214Y223897D01*
X480214Y223908D01*
X480215Y223921D01*
X480215Y223934D01*
X480216Y223948D01*
X480216Y223961D01*
X480216Y223968D01*
X480216Y223977D01*
X480216Y223995D01*
X480216Y224013D01*
X480216Y224031D01*
X480216Y224040D01*
X480213Y224086D01*
X480205Y224179D01*
X480205Y224179D01*
X480191Y224271D01*
X480191Y224272D01*
X480172Y224363D01*
X480172Y224363D01*
X480160Y224408D01*
X480160Y224408D01*
X480159Y224415D01*
X480159Y224415D01*
X480155Y224428D01*
X480155Y224428D01*
X480151Y224441D01*
X480151Y224441D01*
X480147Y224454D01*
X480147Y224454D01*
X480145Y224461D01*
X480145Y224461D01*
X480143Y224466D01*
X480143Y224466D01*
X480140Y224477D01*
X480140Y224478D01*
X480136Y224488D01*
X480136Y224489D01*
X480133Y224499D01*
X480133Y224500D01*
X480131Y224505D01*
X480131Y224505D01*
X480129Y224510D01*
X480129Y224510D01*
X480126Y224519D01*
X480126Y224520D01*
X480123Y224529D01*
X480122Y224529D01*
X480119Y224538D01*
X480119Y224539D01*
X480117Y224543D01*
X480117Y224544D01*
X480116Y224548D01*
X480115Y224549D01*
X480113Y224556D01*
X480112Y224558D01*
X480109Y224565D01*
X480108Y224568D01*
X480106Y224574D01*
X480104Y224578D01*
X480104Y224578D01*
X480102Y224583D01*
X480100Y224587D01*
X480099Y224591D01*
X480096Y224597D01*
X480096Y224599D01*
X480093Y224606D01*
X480092Y224607D01*
X480091Y224610D01*
X480091Y224611D01*
X480090Y224614D01*
X480089Y224615D01*
X480086Y224622D01*
X480086Y224622D01*
X480083Y224629D01*
X480083Y224630D01*
X480080Y224637D01*
X480080Y224637D01*
X480078Y224640D01*
X480078Y224641D01*
X480077Y224644D01*
X480076Y224645D01*
X480073Y224652D01*
X480073Y224652D01*
X480070Y224659D01*
X480070Y224659D01*
X480066Y224667D01*
X480066Y224667D01*
X480065Y224670D01*
X480065Y224671D01*
X480052Y224697D01*
X480052Y224697D01*
X480039Y224723D01*
X480039Y224724D01*
X480027Y224748D01*
X480026Y224748D01*
X480014Y224772D01*
X480014Y224772D01*
X480001Y224796D01*
X480001Y224796D01*
X479989Y224817D01*
X479989Y224817D01*
X479976Y224838D01*
X479976Y224838D01*
X479964Y224859D01*
X479964Y224859D01*
X479951Y224880D01*
X479951Y224880D01*
X479937Y224901D01*
X479937Y224901D01*
X479925Y224919D01*
X479925Y224919D01*
X479913Y224937D01*
X479913Y224937D01*
X479901Y224955D01*
X479901Y224955D01*
X479888Y224973D01*
X479888Y224973D01*
X479875Y224991D01*
X479875Y224991D01*
X479862Y225009D01*
X479862Y225009D01*
X479848Y225026D01*
X479848Y225027D01*
X479835Y225044D01*
X479835Y225044D01*
X479821Y225062D01*
X479821Y225062D01*
X479809Y225077D01*
X479796Y225092D01*
X479784Y225107D01*
X479771Y225122D01*
X479758Y225137D01*
X479745Y225152D01*
X479732Y225167D01*
X479718Y225181D01*
X479705Y225196D01*
X479691Y225211D01*
X479691Y225211D01*
X479677Y225225D01*
X479677Y225225D01*
X479663Y225240D01*
X479663Y225240D01*
X479648Y225254D01*
X479648Y225254D01*
X479634Y225269D01*
X479634Y225269D01*
X479619Y225283D01*
X479619Y225283D01*
X479604Y225297D01*
X479604Y225297D01*
X479589Y225311D01*
X479589Y225312D01*
X479574Y225326D01*
X479574Y225326D01*
X479558Y225340D01*
X479558Y225340D01*
X479543Y225354D01*
X479542Y225354D01*
X479527Y225368D01*
X479527Y225368D01*
X479511Y225382D01*
X479510Y225382D01*
X479494Y225396D01*
X479494Y225396D01*
X479478Y225410D01*
X479478Y225410D01*
X479461Y225423D01*
X479461Y225424D01*
X479445Y225437D01*
X479444Y225437D01*
X479409Y225465D01*
X479408Y225466D01*
X479373Y225493D01*
X479373Y225493D01*
X479369Y225496D01*
X479367Y225497D01*
X479359Y225503D01*
X479357Y225505D01*
X479350Y225511D01*
X479347Y225513D01*
X479340Y225518D01*
X479337Y225520D01*
X479335Y225521D01*
X479330Y225525D01*
X479320Y225532D01*
X479310Y225540D01*
X479299Y225547D01*
X479294Y225551D01*
X479289Y225554D01*
X479278Y225562D01*
X479267Y225569D01*
X479256Y225577D01*
X479245Y225584D01*
X479234Y225592D01*
X479222Y225600D01*
X479210Y225607D01*
X479205Y225611D01*
X479198Y225615D01*
X479185Y225623D01*
X479173Y225631D01*
X479160Y225639D01*
X479146Y225647D01*
X479131Y225656D01*
X479116Y225665D01*
X479102Y225673D01*
X479095Y225677D01*
X479094Y225678D01*
X479086Y225682D01*
X479072Y225691D01*
X479069Y225692D01*
X479052Y225701D01*
X479051Y225702D01*
X479035Y225711D01*
X479034Y225711D01*
X479026Y225715D01*
X479025Y225716D01*
X479015Y225721D01*
X479014Y225721D01*
X478993Y225732D01*
X478993Y225733D01*
X478971Y225743D01*
X478971Y225744D01*
X478950Y225754D01*
X478949Y225754D01*
X478939Y225760D01*
X478938Y225760D01*
X478922Y225767D01*
X478922Y225767D01*
X478889Y225783D01*
X478889Y225783D01*
X478856Y225798D01*
X478856Y225798D01*
X478823Y225812D01*
X478823Y225812D01*
X478806Y225819D01*
X478806Y225819D01*
X478751Y225841D01*
X478751Y225841D01*
X478640Y225880D01*
X478527Y225914D01*
X478413Y225943D01*
X478356Y225955D01*
X478356Y225955D01*
X478355Y225955D01*
X478343Y225958D01*
X478318Y225963D01*
X478293Y225967D01*
X478268Y225971D01*
X478256Y225973D01*
X478246Y225975D01*
X478246Y225975D01*
X478225Y225978D01*
X478225Y225978D01*
X478205Y225981D01*
X478205Y225981D01*
X478184Y225984D01*
X478184Y225984D01*
X478174Y225985D01*
X478174Y225985D01*
X478165Y225986D01*
X478165Y225986D01*
X478147Y225988D01*
X478147Y225988D01*
X478129Y225990D01*
X478129Y225990D01*
X478111Y225992D01*
X478111Y225992D01*
X478102Y225993D01*
X478102Y225993D01*
X478094Y225994D01*
X478094Y225994D01*
X478078Y225995D01*
X478078D01*
X478062Y225997D01*
X478062D01*
X478046Y225998D01*
X478046D01*
X478038Y225998D01*
X478038D01*
X478031Y225999D01*
X478031D01*
X478016Y226000D01*
X478016D01*
X478001Y226001D01*
X478001D01*
X477987Y226002D01*
X477986D01*
X477979Y226002D01*
X477979D01*
X477972Y226002D01*
X477972D01*
X477958Y226003D01*
X477958D01*
X477944Y226004D01*
X477944D01*
X477930Y226004D01*
X477929D01*
X477923Y226004D01*
X477923Y226004D01*
X477922Y226004D01*
X477916Y226004D01*
X477916Y226004D01*
X477916Y226004D01*
X477903Y226005D01*
X477903Y226005D01*
X477902Y226005D01*
X477889Y226005D01*
X477889Y226005D01*
X477888Y226005D01*
X477876Y226005D01*
X477875Y226005D01*
X477869Y226005D01*
X477868Y226005D01*
X477862Y226005D01*
X477862Y226005D01*
X477849Y226005D01*
X477849Y226005D01*
X477837Y226005D01*
X477836Y226005D01*
X477824Y226005D01*
X477823Y226005D01*
X477817Y226005D01*
X477816Y226005D01*
X477811Y226005D01*
X477810Y226005D01*
X477799Y226005D01*
X477797Y226005D01*
X477787Y226005D01*
X477783Y226004D01*
X477774Y226004D01*
X477768Y226004D01*
X477768Y226004D01*
X477722Y226002D01*
X477677Y226000D01*
X477675Y226000D01*
X477632Y225997D01*
X477632Y225997D01*
X477588Y225993D01*
X477588Y225993D01*
X477547Y225989D01*
X477547Y225989D01*
X477505Y225984D01*
X477505Y225984D01*
X477464Y225978D01*
X477464Y225978D01*
X477425Y225973D01*
X477425Y225973D01*
X477387Y225966D01*
X477386Y225966D01*
X477348Y225960D01*
X477348Y225960D01*
X477309Y225953D01*
X477309Y225953D01*
X477291Y225949D01*
X477273Y225945D01*
X477154Y225982D01*
X476936Y226102D01*
X476875Y226141D01*
X476856Y226156D01*
X476837Y226172D01*
X476820Y226191D01*
X476801Y226216D01*
X476789Y226234D01*
X476776Y226258D01*
X476756Y226301D01*
X476749Y226322D01*
X476567Y227200D01*
X476586Y227208D01*
X476626Y227222D01*
X476666Y227236D01*
X476706Y227249D01*
X476726Y227256D01*
X476754Y227265D01*
X476810Y227282D01*
X476866Y227298D01*
X476922Y227313D01*
X477075Y227351D01*
X477327Y227396D01*
X477583Y227424D01*
X477839Y227433D01*
X477842Y227433D01*
D02*
G37*
G36*
X484750Y221479D02*
X484763Y221479D01*
X484777Y221479D01*
X484784Y221479D01*
X484834Y221477D01*
X484885Y221475D01*
X484933Y221473D01*
X484980Y221469D01*
X485028Y221465D01*
X485073Y221460D01*
X485117Y221455D01*
X485162Y221449D01*
X485207Y221442D01*
X485251Y221435D01*
X485292Y221427D01*
X485334Y221420D01*
X485375Y221411D01*
X485417Y221402D01*
X485458Y221392D01*
X485500Y221382D01*
X485541Y221372D01*
X485583Y221360D01*
X485624Y221349D01*
X485662Y221338D01*
X485700Y221326D01*
X485738Y221314D01*
X485777Y221301D01*
X485815Y221288D01*
X485853Y221274D01*
X485891Y221260D01*
X485929Y221246D01*
X485967Y221231D01*
X486005Y221216D01*
X486043Y221200D01*
X486081Y221183D01*
X486119Y221166D01*
X486157Y221149D01*
X486195Y221132D01*
X486233Y221113D01*
X486271Y221095D01*
X486309Y221076D01*
X486346Y221056D01*
X486384Y221036D01*
X486422Y221016D01*
X486460Y220995D01*
X486497Y220974D01*
X486535Y220952D01*
X486573Y220930D01*
X486610Y220907D01*
X486647Y220884D01*
X486685Y220861D01*
X486722Y220837D01*
X486759Y220812D01*
X486796Y220787D01*
X486833Y220762D01*
X486870Y220736D01*
X486911Y220708D01*
X486951Y220678D01*
X486991Y220649D01*
X487031Y220619D01*
X487071Y220588D01*
X487111Y220557D01*
X487150Y220525D01*
X487190Y220493D01*
X487229Y220460D01*
X487269Y220427D01*
X487308Y220393D01*
X487347Y220358D01*
X487386Y220323D01*
X487425Y220288D01*
X487463Y220252D01*
X487502Y220216D01*
X487540Y220179D01*
X487587Y220132D01*
X487629Y220091D01*
X487665Y220053D01*
X487701Y220016D01*
X487736Y219978D01*
X487771Y219941D01*
X487806Y219903D01*
X487839Y219865D01*
X487873Y219827D01*
X487906Y219788D01*
X487938Y219750D01*
X487970Y219711D01*
X488001Y219673D01*
X488032Y219634D01*
X488062Y219595D01*
X488092Y219556D01*
X488122Y219517D01*
X488151Y219478D01*
X488179Y219439D01*
X488207Y219399D01*
X488234Y219360D01*
X488261Y219321D01*
X488287Y219281D01*
X488313Y219241D01*
X488338Y219201D01*
X488363Y219162D01*
X488387Y219122D01*
X488410Y219081D01*
X488434Y219041D01*
X488456Y219001D01*
X488478Y218961D01*
X488500Y218921D01*
X488521Y218881D01*
X488541Y218840D01*
X488561Y218800D01*
X488581Y218759D01*
X488600Y218719D01*
X488618Y218678D01*
X488636Y218638D01*
X488654Y218597D01*
X488670Y218557D01*
X488687Y218516D01*
X488702Y218475D01*
X488718Y218435D01*
X488732Y218394D01*
X488747Y218353D01*
X488760Y218313D01*
X488773Y218272D01*
X488786Y218231D01*
X488798Y218191D01*
X488810Y218150D01*
X488821Y218109D01*
X488831Y218069D01*
X488841Y218028D01*
X488851Y217987D01*
X488860Y217947D01*
X488869Y217901D01*
X488877Y217856D01*
X488885Y217810D01*
X488893Y217764D01*
X488899Y217719D01*
X488905Y217674D01*
X488910Y217628D01*
X488915Y217578D01*
X488919Y217528D01*
X488923Y217478D01*
X488925Y217428D01*
X488925Y217428D01*
X488926Y217421D01*
X488926Y217407D01*
X488926Y217394D01*
X488927Y217380D01*
X488927Y217366D01*
X488927Y217353D01*
X488928Y217339D01*
X488928Y217325D01*
X488928Y217318D01*
X488928Y217312D01*
X488928Y217298D01*
X488928Y217284D01*
X488927Y217271D01*
X488927Y217256D01*
X488927Y217242D01*
X488926Y217227D01*
X488926Y217212D01*
X488925Y217196D01*
X488925Y217180D01*
X488924Y217164D01*
X488923Y217148D01*
X488922Y217132D01*
X488921Y217115D01*
X488920Y217098D01*
X488918Y217080D01*
X488917Y217063D01*
X488915Y217044D01*
X488913Y217026D01*
X488911Y217008D01*
X488909Y216989D01*
X488907Y216969D01*
X488904Y216950D01*
X488902Y216931D01*
X488899Y216909D01*
X488895Y216886D01*
X488892Y216863D01*
X488888Y216841D01*
X488886Y216829D01*
X488883Y216815D01*
X488878Y216788D01*
X488873Y216760D01*
X488867Y216733D01*
X488859Y216698D01*
X488849Y216657D01*
X488839Y216616D01*
X488828Y216574D01*
X488822Y216554D01*
X488805Y216495D01*
X488765Y216379D01*
X488720Y216265D01*
X488671Y216156D01*
X488434Y215754D01*
X488434Y215754D01*
X488121Y215384D01*
X488120Y215383D01*
X488096Y215359D01*
X488072Y215336D01*
X488048Y215313D01*
X488021Y215288D01*
X487995Y215265D01*
X487968Y215241D01*
X487939Y215216D01*
X487909Y215191D01*
X487880Y215167D01*
X487848Y215142D01*
X487815Y215117D01*
X487780Y215092D01*
X487776Y215088D01*
X487766Y215082D01*
X487757Y215075D01*
X487747Y215068D01*
X487743Y215065D01*
X487743D01*
X487738Y215061D01*
X487728Y215054D01*
X487718Y215048D01*
X487708Y215041D01*
X487697Y215034D01*
X487687Y215027D01*
X487676Y215020D01*
X487665Y215013D01*
X487654Y215006D01*
X487643Y214998D01*
X487631Y214991D01*
X487620Y214984D01*
X487608Y214977D01*
X487595Y214969D01*
X487582Y214962D01*
X487570Y214954D01*
X487556Y214946D01*
X487541Y214938D01*
X487527Y214930D01*
X487512Y214921D01*
X487496Y214913D01*
X487479Y214903D01*
X487462Y214894D01*
X487444Y214885D01*
X487425Y214875D01*
X487402Y214864D01*
X487380Y214854D01*
X487357Y214843D01*
X487327Y214829D01*
X487288Y214812D01*
X487248Y214796D01*
X487209Y214780D01*
X487145Y214757D01*
X487057Y214728D01*
X486969Y214702D01*
X486879Y214680D01*
X486821Y214668D01*
X486795Y214663D01*
X486770Y214658D01*
X486744Y214654D01*
X486732Y214652D01*
X486732Y214652D01*
X486245Y214620D01*
X486212Y214621D01*
X486168Y214623D01*
X486126Y214626D01*
X486084Y214630D01*
X486042Y214634D01*
X485898Y214659D01*
X485560Y214725D01*
X485693Y214314D01*
X485710Y214253D01*
X485718Y214222D01*
X485718Y214221D01*
X485718Y214221D01*
X485726Y214187D01*
X485733Y214153D01*
X485740Y214119D01*
X485746Y214085D01*
X485752Y214050D01*
X485755Y214034D01*
X485776Y213758D01*
X485786Y213513D01*
X485746Y213155D01*
X485723Y212990D01*
X485717Y212967D01*
X485679Y212832D01*
X485633Y212700D01*
X485579Y212571D01*
X485544Y212499D01*
X485535Y212481D01*
X485526Y212463D01*
X485517Y212446D01*
X485512Y212437D01*
X485512D01*
X485508Y212429D01*
X485500Y212414D01*
X485492Y212399D01*
X485484Y212385D01*
X485476Y212371D01*
X485468Y212358D01*
X485461Y212345D01*
X485454Y212332D01*
X485446Y212320D01*
X485439Y212309D01*
X485433Y212297D01*
X485426Y212286D01*
X485422Y212280D01*
X485422D01*
X485419Y212275D01*
X485412Y212264D01*
X485405Y212254D01*
X485398Y212243D01*
X485392Y212233D01*
X485385Y212223D01*
X485379Y212213D01*
X485372Y212203D01*
X485369Y212198D01*
X485343Y212161D01*
X485319Y212128D01*
X485294Y212094D01*
X485271Y212063D01*
X485247Y212033D01*
X485224Y212005D01*
X485201Y211977D01*
X485178Y211949D01*
X485156Y211924D01*
X485134Y211899D01*
X485111Y211875D01*
X485088Y211850D01*
X485065Y211826D01*
X485060Y211821D01*
X485060D01*
X485055Y211816D01*
X485046Y211806D01*
X485036Y211797D01*
X485027Y211787D01*
X485022Y211783D01*
X484987Y211749D01*
X484987D01*
X484982Y211744D01*
X484973Y211735D01*
X484963Y211726D01*
X484953Y211717D01*
X484948Y211712D01*
X484944Y211708D01*
X484934Y211699D01*
X484924Y211690D01*
X484914Y211681D01*
X484909Y211677D01*
X484909D01*
X484904Y211672D01*
X484893Y211662D01*
X484882Y211652D01*
X484871Y211643D01*
X484860Y211634D01*
X484849Y211624D01*
X484838Y211615D01*
X484827Y211606D01*
X484815Y211596D01*
X484803Y211586D01*
X484791Y211577D01*
X484778Y211567D01*
X484765Y211556D01*
X484751Y211545D01*
X484736Y211534D01*
X484722Y211523D01*
X484714Y211518D01*
X484714D01*
X484706Y211512D01*
X484691Y211501D01*
X484675Y211489D01*
X484659Y211478D01*
X484642Y211466D01*
X484623Y211453D01*
X484604Y211440D01*
X484584Y211427D01*
X484562Y211413D01*
X484536Y211396D01*
X484510Y211380D01*
X484483Y211364D01*
X484470Y211357D01*
Y211357D01*
X484395Y211313D01*
X484240Y211235D01*
X484079Y211168D01*
X484025Y211149D01*
X483575Y211031D01*
Y211031D01*
X483090Y211000D01*
X482882Y210997D01*
X482872Y210997D01*
X482824Y211001D01*
X482777Y211005D01*
X482734Y211010D01*
X482692Y211015D01*
X482649Y211020D01*
X482607Y211026D01*
X482564Y211033D01*
X482521Y211040D01*
X482479Y211048D01*
X482436Y211056D01*
X482393Y211065D01*
X482350Y211075D01*
X482307Y211085D01*
X482264Y211096D01*
X482221Y211107D01*
X482177Y211119D01*
X482134Y211131D01*
X482091Y211144D01*
X482053Y211156D01*
X482015Y211168D01*
X481977Y211180D01*
X481939Y211193D01*
X481901Y211207D01*
X481863Y211221D01*
X481825Y211235D01*
X481787Y211250D01*
X481749Y211265D01*
X481711Y211280D01*
X481673Y211297D01*
X481635Y211313D01*
X481597Y211330D01*
X481559Y211347D01*
X481521Y211365D01*
X481484Y211383D01*
X481446Y211402D01*
X481408Y211421D01*
X481370Y211440D01*
X481332Y211460D01*
X481294Y211480D01*
X481256Y211501D01*
X481218Y211522D01*
X481175Y211547D01*
X481132Y211572D01*
X481089Y211598D01*
X481046Y211624D01*
X481003Y211651D01*
X480960Y211678D01*
X480917Y211706D01*
X480874Y211735D01*
X480831Y211764D01*
X480789Y211794D01*
X480746Y211824D01*
X480703Y211855D01*
X480661Y211886D01*
X480619Y211918D01*
X480577Y211950D01*
X480534Y211983D01*
X480492Y212017D01*
X480450Y212051D01*
X480408Y212085D01*
X480367Y212121D01*
X480325Y212156D01*
X480283Y212193D01*
X480242Y212229D01*
X480201Y212267D01*
X480160Y212304D01*
X480118Y212343D01*
X480078Y212382D01*
X480047Y212411D01*
X480006Y212452D01*
X479969Y212489D01*
X479932Y212526D01*
X479896Y212563D01*
X479857Y212604D01*
X479818Y212645D01*
X479781Y212686D01*
X479744Y212727D01*
X479707Y212768D01*
X479671Y212809D01*
X479636Y212851D01*
X479601Y212892D01*
X479567Y212934D01*
X479533Y212975D01*
X479500Y213017D01*
X479468Y213058D01*
X479436Y213100D01*
X479404Y213142D01*
X479374Y213184D01*
X479343Y213226D01*
X479314Y213268D01*
X479285Y213310D01*
X479256Y213352D01*
X479228Y213394D01*
X479201Y213436D01*
X479174Y213478D01*
X479148Y213520D01*
X479123Y213563D01*
X479098Y213605D01*
X479073Y213647D01*
X479049Y213689D01*
X479026Y213731D01*
X479003Y213774D01*
X478981Y213816D01*
X478959Y213858D01*
X478938Y213900D01*
X478917Y213943D01*
X478897Y213985D01*
X478878Y214027D01*
X478859Y214069D01*
X478840Y214111D01*
X478823Y214153D01*
X478805Y214195D01*
X478789Y214237D01*
X478772Y214279D01*
X478757Y214321D01*
X478742Y214363D01*
X478727Y214405D01*
X478713Y214447D01*
X478700Y214489D01*
X478687Y214530D01*
X478674Y214572D01*
X478662Y214613D01*
X478651Y214655D01*
X478640Y214696D01*
X478630Y214737D01*
X478620Y214778D01*
X478611Y214820D01*
X478602Y214861D01*
X478594Y214901D01*
X478586Y214942D01*
X478579Y214983D01*
X478574Y215017D01*
X478545Y215370D01*
X478588Y215551D01*
X478893Y215841D01*
X479442Y215861D01*
X479473Y215858D01*
X479490Y215856D01*
X479504Y215854D01*
X479524Y215849D01*
X479534Y215847D01*
X479546Y215844D01*
X479567Y215836D01*
X479578Y215831D01*
X479585Y215827D01*
X479613Y215811D01*
X479625Y215803D01*
X479694Y215751D01*
X479934Y215560D01*
X479936Y215510D01*
X479943Y215411D01*
X479954Y215312D01*
X479969Y215214D01*
X479978Y215165D01*
X479980Y215157D01*
X479983Y215139D01*
X479987Y215122D01*
X479991Y215104D01*
X479993Y215096D01*
X479994Y215089D01*
X479998Y215075D01*
X480001Y215061D01*
X480004Y215047D01*
X480006Y215040D01*
X480008Y215034D01*
X480011Y215022D01*
X480014Y215010D01*
X480017Y214998D01*
X480019Y214992D01*
X480020Y214987D01*
X480023Y214976D01*
X480026Y214965D01*
X480029Y214954D01*
X480031Y214949D01*
X480043Y214907D01*
X480056Y214868D01*
X480068Y214832D01*
X480080Y214797D01*
X480092Y214766D01*
X480104Y214734D01*
X480116Y214704D01*
X480128Y214675D01*
X480139Y214648D01*
X480151Y214621D01*
X480163Y214594D01*
X480174Y214569D01*
X480186Y214544D01*
X480198Y214519D01*
X480210Y214494D01*
X480221Y214472D01*
X480233Y214450D01*
X480245Y214427D01*
X480257Y214405D01*
X480269Y214382D01*
X480281Y214360D01*
X480294Y214337D01*
X480306Y214317D01*
X480317Y214297D01*
X480329Y214277D01*
X480342Y214257D01*
X480354Y214237D01*
X480367Y214217D01*
X480379Y214197D01*
X480392Y214177D01*
X480406Y214156D01*
X480419Y214136D01*
X480433Y214116D01*
X480446Y214096D01*
X480459Y214078D01*
X480471Y214060D01*
X480484Y214043D01*
X480497Y214025D01*
X480510Y214007D01*
X480523Y213989D01*
X480536Y213972D01*
X480549Y213954D01*
X480563Y213936D01*
X480577Y213918D01*
X480591Y213900D01*
X480605Y213882D01*
X480619Y213865D01*
X480633Y213847D01*
X480648Y213829D01*
X480663Y213811D01*
X480678Y213793D01*
X480693Y213775D01*
X480708Y213757D01*
X480724Y213739D01*
X480739Y213721D01*
X480755Y213703D01*
X480771Y213685D01*
X480787Y213667D01*
X480804Y213650D01*
X480818Y213634D01*
X480832Y213619D01*
X480847Y213603D01*
X480861Y213588D01*
X480876Y213572D01*
X480891Y213557D01*
X480906Y213541D01*
X480921Y213526D01*
X480936Y213510D01*
X480951Y213495D01*
X480967Y213479D01*
X480982Y213464D01*
X480998Y213448D01*
X481014Y213433D01*
X481017Y213430D01*
X481037Y213410D01*
X481054Y213394D01*
X481071Y213378D01*
X481088Y213362D01*
X481105Y213346D01*
X481122Y213331D01*
X481139Y213315D01*
X481155Y213300D01*
X481172Y213284D01*
X481189Y213269D01*
X481206Y213254D01*
X481223Y213240D01*
X481240Y213225D01*
X481257Y213210D01*
X481274Y213196D01*
X481291Y213182D01*
X481308Y213168D01*
X481324Y213154D01*
X481341Y213140D01*
X481358Y213126D01*
X481375Y213113D01*
X481392Y213099D01*
X481409Y213086D01*
X481426Y213073D01*
X481442Y213060D01*
X481459Y213047D01*
X481476Y213034D01*
X481493Y213022D01*
X481509Y213009D01*
X481526Y212997D01*
X481543Y212985D01*
X481560Y212973D01*
X481577Y212961D01*
X481593Y212949D01*
X481610Y212937D01*
X481627Y212926D01*
X481643Y212915D01*
X481660Y212903D01*
X481677Y212893D01*
X481694Y212882D01*
X481710Y212871D01*
X481727Y212860D01*
X481743Y212850D01*
X481760Y212839D01*
X481777Y212829D01*
X481793Y212819D01*
X481810Y212809D01*
X481826Y212799D01*
X481843Y212790D01*
X481859Y212780D01*
X481876Y212771D01*
X481892Y212762D01*
X481909Y212753D01*
X481925Y212744D01*
X481942Y212735D01*
X481958Y212726D01*
X481975Y212718D01*
X481991Y212709D01*
X482008Y212701D01*
X482024Y212693D01*
X482040Y212685D01*
X482057Y212677D01*
X482073Y212669D01*
X482089Y212662D01*
X482105Y212654D01*
X482122Y212647D01*
X482138Y212640D01*
X482154Y212633D01*
X482170Y212626D01*
X482186Y212619D01*
X482203Y212613D01*
X482219Y212606D01*
X482235Y212600D01*
X482251Y212594D01*
X482267Y212588D01*
X482283Y212582D01*
X482299Y212576D01*
X482315Y212571D01*
X482331Y212565D01*
X482347Y212560D01*
X482363Y212554D01*
X482378Y212549D01*
X482394Y212544D01*
X482410Y212540D01*
X482426Y212535D01*
X482442Y212530D01*
X482457Y212526D01*
X482473Y212522D01*
X482489Y212518D01*
X482505Y212514D01*
X482520Y212510D01*
X482536Y212506D01*
X482551Y212503D01*
X482567Y212499D01*
X482583Y212496D01*
X482598Y212493D01*
X482617Y212489D01*
X482617D01*
X482635Y212486D01*
X482635D01*
X482654Y212483D01*
X482654D01*
X482672Y212480D01*
X482672D01*
X482690Y212477D01*
X482690D01*
X482709Y212474D01*
X482709D01*
X482727Y212472D01*
X482727D01*
X482745Y212470D01*
X482745D01*
X482763Y212468D01*
X482763D01*
X482781Y212466D01*
X482782D01*
X482799Y212464D01*
X482800D01*
X482818Y212463D01*
X482818D01*
X482835Y212462D01*
X482836D01*
X482857Y212460D01*
X482857D01*
X482877Y212460D01*
X482877D01*
X482898Y212459D01*
X482898Y212459D01*
X482919Y212459D01*
X482919Y212459D01*
X482939Y212458D01*
X482940Y212458D01*
X482963Y212459D01*
X482963Y212459D01*
X482986Y212459D01*
X482987Y212459D01*
X483010Y212460D01*
X483010Y212460D01*
X483033Y212461D01*
X483034Y212462D01*
X483059Y212463D01*
X483085Y212466D01*
X483085Y212466D01*
X483085Y212466D01*
X483088Y212466D01*
X483096Y212467D01*
X483100Y212467D01*
X483103Y212468D01*
X483109Y212468D01*
X483110Y212468D01*
X483112Y212469D01*
X483113Y212469D01*
X483116Y212469D01*
X483117Y212469D01*
X483124Y212470D01*
X483125Y212470D01*
X483132Y212471D01*
X483133Y212471D01*
X483140Y212472D01*
X483141Y212472D01*
X483144Y212473D01*
X483145Y212473D01*
X483148Y212473D01*
X483149Y212473D01*
X483157Y212474D01*
X483157Y212474D01*
X483165Y212476D01*
X483166Y212476D01*
X483174Y212477D01*
X483174Y212477D01*
X483178Y212478D01*
X483179Y212478D01*
X483183Y212478D01*
X483183Y212479D01*
X483192Y212480D01*
X483192Y212480D01*
X483201Y212482D01*
X483201Y212482D01*
X483210Y212483D01*
X483210Y212483D01*
X483215Y212484D01*
X483215Y212484D01*
X483220Y212485D01*
X483220Y212485D01*
X483230Y212487D01*
X483231Y212487D01*
X483241Y212489D01*
X483241Y212490D01*
X483251Y212492D01*
X483251Y212492D01*
X483256Y212493D01*
X483257Y212493D01*
X483263Y212494D01*
X483263Y212494D01*
X483276Y212497D01*
X483276Y212497D01*
X483289Y212500D01*
X483289Y212501D01*
X483302Y212504D01*
X483302Y212504D01*
X483309Y212505D01*
X483309Y212505D01*
X483320Y212509D01*
X483320Y212509D01*
X483343Y212515D01*
X483343Y212515D01*
X483358Y212519D01*
X483366Y212522D01*
X483389Y212529D01*
X483401Y212533D01*
X483423Y212541D01*
X483466Y212557D01*
X483466Y212557D01*
X483509Y212575D01*
X483509Y212575D01*
X483526Y212582D01*
X483526Y212582D01*
X483552Y212594D01*
X483552Y212594D01*
X483572Y212604D01*
X483573Y212604D01*
X483579Y212607D01*
X483579Y212607D01*
X483591Y212613D01*
X483591Y212613D01*
X483603Y212619D01*
X483603Y212619D01*
X483614Y212626D01*
X483615Y212626D01*
X483620Y212629D01*
X483621Y212629D01*
X483625Y212631D01*
X483625Y212632D01*
X483635Y212637D01*
X483635Y212637D01*
X483644Y212642D01*
X483644Y212642D01*
X483653Y212647D01*
X483653Y212647D01*
X483658Y212650D01*
X483658Y212650D01*
X483662Y212652D01*
X483662Y212652D01*
X483670Y212657D01*
X483670Y212657D01*
X483678Y212662D01*
X483678Y212662D01*
X483686Y212667D01*
X483686Y212667D01*
X483690Y212669D01*
X483690Y212669D01*
X483693Y212671D01*
X483694Y212671D01*
X483701Y212676D01*
X483701Y212676D01*
X483708Y212681D01*
X483708Y212681D01*
X483715Y212685D01*
X483715Y212685D01*
X483719Y212687D01*
X483719Y212688D01*
X483722Y212690D01*
X483722Y212690D01*
X483729Y212694D01*
X483729Y212694D01*
X483735Y212699D01*
X483736Y212699D01*
X483742Y212703D01*
X483743Y212703D01*
X483745Y212705D01*
X483746Y212706D01*
X483748Y212707D01*
X483749Y212708D01*
X483754Y212711D01*
X483755Y212712D01*
X483760Y212716D01*
X483763Y212718D01*
X483769Y212722D01*
X483777Y212727D01*
X483781Y212730D01*
X483782Y212731D01*
X483786Y212734D01*
X483788Y212735D01*
X483789Y212737D01*
X483790Y212737D01*
X483810Y212752D01*
X483811Y212753D01*
X483830Y212768D01*
X483848Y212782D01*
X483867Y212797D01*
X483882Y212811D01*
X483898Y212825D01*
X483914Y212839D01*
X483929Y212853D01*
X483945Y212868D01*
X483958Y212880D01*
X483971Y212893D01*
X483983Y212906D01*
X483986Y212909D01*
X484000Y212924D01*
X484013Y212937D01*
X484025Y212950D01*
X484037Y212964D01*
X484049Y212977D01*
X484062Y212993D01*
X484075Y213008D01*
X484088Y213024D01*
X484101Y213040D01*
X484113Y213056D01*
X484114Y213057D01*
X484127Y213075D01*
X484128Y213076D01*
X484140Y213094D01*
X484154Y213113D01*
X484159Y213121D01*
X484163Y213126D01*
X484166Y213131D01*
X484170Y213137D01*
X484172Y213140D01*
X484174Y213142D01*
X484176Y213146D01*
X484177Y213147D01*
X484180Y213152D01*
X484180Y213153D01*
X484182Y213155D01*
X484182Y213156D01*
X484184Y213158D01*
X484184Y213158D01*
X484188Y213164D01*
X484188Y213164D01*
X484191Y213170D01*
X484192Y213171D01*
X484195Y213176D01*
X484196Y213177D01*
X484197Y213179D01*
X484197Y213180D01*
X484199Y213183D01*
X484199Y213183D01*
X484203Y213189D01*
X484203Y213190D01*
X484207Y213196D01*
X484207Y213196D01*
X484211Y213203D01*
X484211Y213203D01*
X484213Y213206D01*
X484213Y213206D01*
X484215Y213210D01*
X484215Y213210D01*
X484219Y213217D01*
X484220Y213217D01*
X484224Y213225D01*
X484224Y213225D01*
X484228Y213232D01*
X484228Y213232D01*
X484230Y213236D01*
X484230Y213236D01*
X484232Y213240D01*
X484232Y213240D01*
X484237Y213249D01*
X484237Y213249D01*
X484241Y213257D01*
X484241Y213257D01*
X484246Y213266D01*
X484246Y213266D01*
X484248Y213270D01*
X484248Y213270D01*
X484251Y213276D01*
X484251Y213276D01*
X484256Y213286D01*
X484256Y213286D01*
X484261Y213297D01*
X484262Y213297D01*
X484267Y213308D01*
X484267Y213308D01*
X484269Y213313D01*
X484269Y213313D01*
X484273Y213321D01*
X484273Y213321D01*
X484280Y213337D01*
X484280Y213337D01*
X484287Y213353D01*
X484287Y213353D01*
X484291Y213363D01*
X484291Y213363D01*
X484294Y213369D01*
X484294Y213369D01*
X484297Y213377D01*
X484297Y213377D01*
X484308Y213405D01*
X484308Y213405D01*
X484329Y213463D01*
X484329Y213463D01*
X484347Y213521D01*
X484347Y213521D01*
X484353Y213544D01*
X484362Y213580D01*
X484362Y213580D01*
X484369Y213610D01*
X484369Y213610D01*
X484370Y213616D01*
X484370Y213616D01*
X484372Y213627D01*
X484372Y213627D01*
X484375Y213639D01*
X484375Y213639D01*
X484377Y213650D01*
X484377Y213651D01*
X484378Y213656D01*
X484378Y213656D01*
X484378Y213661D01*
X484378Y213661D01*
X484380Y213671D01*
X484380Y213671D01*
X484382Y213680D01*
X484382Y213681D01*
X484383Y213690D01*
X484383Y213690D01*
X484384Y213695D01*
X484384Y213695D01*
X484384Y213699D01*
X484384Y213699D01*
X484386Y213707D01*
X484386Y213708D01*
X484387Y213716D01*
X484387Y213716D01*
X484388Y213724D01*
X484388Y213724D01*
X484388Y213728D01*
X484388Y213729D01*
X484389Y213732D01*
X484389Y213732D01*
X484390Y213740D01*
X484390Y213740D01*
X484390Y213748D01*
X484391Y213748D01*
X484391Y213755D01*
X484391Y213756D01*
X484392Y213759D01*
X484392Y213759D01*
X484392Y213763D01*
X484392Y213763D01*
X484393Y213770D01*
X484393Y213770D01*
X484393Y213777D01*
X484394Y213777D01*
X484394Y213784D01*
X484394Y213784D01*
X484394Y213787D01*
X484394Y213788D01*
X484395Y213791D01*
X484395Y213792D01*
X484395Y213798D01*
X484395Y213799D01*
X484396Y213805D01*
X484396Y213808D01*
X484396Y213812D01*
X484396Y213815D01*
X484396Y213815D01*
X484396Y213815D01*
X484397Y213819D01*
X484397Y213823D01*
X484397Y213825D01*
X484397Y213830D01*
X484397Y213831D01*
X484397Y213837D01*
X484397Y213838D01*
X484398Y213840D01*
X484398Y213841D01*
X484398Y213866D01*
X484399Y213867D01*
X484399Y213889D01*
X484399Y213890D01*
X484399Y213913D01*
X484399Y213936D01*
X484398Y213956D01*
X484397Y213976D01*
X484396Y213997D01*
X484395Y214017D01*
X484393Y214038D01*
X484392Y214055D01*
X484390Y214073D01*
X484388Y214091D01*
X484386Y214109D01*
X484383Y214126D01*
X484381Y214144D01*
X484378Y214162D01*
X484375Y214180D01*
X484372Y214198D01*
X484368Y214216D01*
X484365Y214234D01*
X484361Y214253D01*
X484358Y214268D01*
X484354Y214283D01*
X484351Y214298D01*
X484347Y214313D01*
X484343Y214329D01*
X484339Y214344D01*
X484335Y214359D01*
X484331Y214374D01*
X484327Y214390D01*
X484322Y214405D01*
X484317Y214421D01*
X484312Y214436D01*
X484307Y214451D01*
X484303Y214467D01*
X484297Y214482D01*
X484292Y214498D01*
X484286Y214513D01*
X484281Y214529D01*
X484275Y214545D01*
X484269Y214560D01*
X484263Y214576D01*
X484257Y214591D01*
X484250Y214607D01*
X484244Y214623D01*
X484237Y214638D01*
X484231Y214654D01*
X484224Y214670D01*
X484217Y214686D01*
X484210Y214702D01*
X484202Y214717D01*
X484195Y214733D01*
X484187Y214749D01*
X484180Y214765D01*
X484172Y214781D01*
X484164Y214797D01*
X484156Y214813D01*
X484147Y214829D01*
X484139Y214845D01*
X484130Y214861D01*
X484122Y214877D01*
X484113Y214893D01*
X484104Y214909D01*
X484095Y214925D01*
X484086Y214941D01*
X484076Y214957D01*
X484067Y214973D01*
X484057Y214989D01*
X484047Y215005D01*
X484037Y215021D01*
X484027Y215037D01*
X484017Y215054D01*
X484007Y215070D01*
X483996Y215086D01*
X483986Y215102D01*
X483975Y215118D01*
X483964Y215135D01*
X483953Y215151D01*
X483942Y215167D01*
X483930Y215183D01*
X483919Y215199D01*
X483907Y215216D01*
X483896Y215232D01*
X483884Y215248D01*
X483872Y215265D01*
X483859Y215281D01*
X483847Y215297D01*
X483835Y215314D01*
X483822Y215330D01*
X483810Y215346D01*
X483797Y215363D01*
X483784Y215379D01*
X483770Y215395D01*
X483757Y215412D01*
X483744Y215428D01*
X483730Y215445D01*
X483716Y215461D01*
X483703Y215477D01*
X483689Y215494D01*
X483674Y215510D01*
X483660Y215527D01*
X483646Y215543D01*
X483631Y215560D01*
X483617Y215576D01*
X483602Y215592D01*
X483587Y215609D01*
X483572Y215625D01*
X483556Y215642D01*
X483541Y215658D01*
X483526Y215675D01*
X483510Y215691D01*
X483494Y215708D01*
X483478Y215724D01*
X483462Y215740D01*
X483446Y215757D01*
X483429Y215774D01*
X483413Y215790D01*
X483396Y215806D01*
X483379Y215823D01*
X483373Y215829D01*
X482452Y216725D01*
X483433Y217733D01*
X484321Y216870D01*
X484339Y216853D01*
X484353Y216838D01*
X484368Y216824D01*
X484383Y216810D01*
X484398Y216796D01*
X484412Y216783D01*
X484427Y216769D01*
X484442Y216756D01*
X484457Y216742D01*
X484472Y216729D01*
X484486Y216716D01*
X484501Y216703D01*
X484516Y216690D01*
X484531Y216677D01*
X484546Y216664D01*
X484561Y216652D01*
X484575Y216639D01*
X484590Y216627D01*
X484605Y216615D01*
X484620Y216603D01*
X484635Y216591D01*
X484649Y216579D01*
X484664Y216567D01*
X484679Y216556D01*
X484694Y216544D01*
X484709Y216533D01*
X484723Y216521D01*
X484738Y216510D01*
X484753Y216499D01*
X484768Y216488D01*
X484783Y216477D01*
X484797Y216467D01*
X484812Y216456D01*
X484827Y216446D01*
X484842Y216435D01*
X484856Y216425D01*
X484871Y216415D01*
X484886Y216405D01*
X484901Y216395D01*
X484915Y216386D01*
X484930Y216376D01*
X484945Y216366D01*
X484960Y216357D01*
X484974Y216348D01*
X484989Y216339D01*
X485004Y216330D01*
X485018Y216321D01*
X485033Y216312D01*
X485048Y216303D01*
X485062Y216295D01*
X485077Y216286D01*
X485092Y216278D01*
X485106Y216270D01*
X485121Y216262D01*
X485136Y216254D01*
X485150Y216246D01*
X485165Y216239D01*
X485179Y216231D01*
X485194Y216224D01*
X485208Y216216D01*
X485223Y216209D01*
X485238Y216202D01*
X485252Y216195D01*
X485266Y216188D01*
X485281Y216182D01*
X485296Y216175D01*
X485310Y216169D01*
X485324Y216162D01*
X485339Y216156D01*
X485353Y216150D01*
X485368Y216144D01*
X485382Y216138D01*
X485397Y216133D01*
X485411Y216127D01*
X485425Y216122D01*
X485440Y216116D01*
X485454Y216111D01*
X485468Y216106D01*
X485483Y216101D01*
X485497Y216096D01*
X485511Y216091D01*
X485526Y216087D01*
X485540Y216082D01*
X485554Y216078D01*
X485568Y216074D01*
X485582Y216070D01*
X485597Y216066D01*
X485597Y216066D01*
X485611Y216062D01*
X485611Y216062D01*
X485625Y216058D01*
X485625Y216058D01*
X485639Y216055D01*
X485639Y216055D01*
X485653Y216051D01*
X485653Y216051D01*
X485667Y216048D01*
X485667Y216048D01*
X485681Y216045D01*
X485681Y216045D01*
X485696Y216042D01*
X485696Y216042D01*
X485712Y216038D01*
X485712Y216038D01*
X485729Y216035D01*
X485729Y216035D01*
X485746Y216032D01*
X485746Y216032D01*
X485763Y216029D01*
X485763Y216028D01*
X485779Y216026D01*
X485779Y216026D01*
X485796Y216023D01*
X485796Y216023D01*
X485813Y216021D01*
X485813Y216021D01*
X485829Y216019D01*
X485830Y216018D01*
X485846Y216016D01*
X485846Y216016D01*
X485863Y216015D01*
X485863Y216015D01*
X485879Y216013D01*
X485879Y216013D01*
X485898Y216011D01*
X485899Y216011D01*
X485918Y216010D01*
X485918D01*
X485937Y216008D01*
X485937D01*
X485956Y216007D01*
X485956D01*
X485975Y216007D01*
X485976D01*
X485997Y216006D01*
X485997D01*
X486019Y216006D01*
X486020Y216006D01*
X486040Y216006D01*
X486064Y216006D01*
X486064Y216006D01*
X486064Y216006D01*
X486067Y216007D01*
X486073Y216007D01*
X486077Y216007D01*
X486080Y216007D01*
X486084Y216007D01*
X486086Y216007D01*
X486088Y216007D01*
X486089Y216007D01*
X486091Y216008D01*
X486092Y216008D01*
X486098Y216008D01*
X486099Y216008D01*
X486105Y216008D01*
X486105Y216008D01*
X486111Y216009D01*
X486112Y216009D01*
X486115Y216009D01*
X486115Y216009D01*
X486119Y216009D01*
X486119Y216009D01*
X486126Y216010D01*
X486126Y216010D01*
X486133Y216010D01*
X486134Y216010D01*
X486141Y216011D01*
X486141Y216011D01*
X486144Y216011D01*
X486145Y216011D01*
X486148Y216012D01*
X486149Y216012D01*
X486156Y216012D01*
X486157Y216012D01*
X486164Y216013D01*
X486165Y216013D01*
X486172Y216014D01*
X486172Y216014D01*
X486176Y216015D01*
X486176Y216015D01*
X486181Y216015D01*
X486181Y216015D01*
X486190Y216016D01*
X486190Y216016D01*
X486199Y216017D01*
X486200Y216017D01*
X486209Y216019D01*
X486209Y216019D01*
X486213Y216019D01*
X486213Y216019D01*
X486219Y216020D01*
X486219Y216020D01*
X486222Y216021D01*
X486231Y216022D01*
X486243Y216024D01*
X486255Y216026D01*
X486261Y216027D01*
X486271Y216029D01*
X486292Y216033D01*
X486313Y216037D01*
X486333Y216042D01*
X486343Y216044D01*
X486364Y216050D01*
X486403Y216061D01*
X486443Y216073D01*
X486481Y216087D01*
X486481Y216087D01*
X486501Y216094D01*
X486501Y216094D01*
X486506Y216096D01*
X486506Y216096D01*
X486517Y216101D01*
X486517Y216101D01*
X486520Y216102D01*
X486520Y216102D01*
X486529Y216105D01*
X486529Y216106D01*
X486540Y216110D01*
X486540Y216110D01*
X486545Y216112D01*
X486546Y216113D01*
X486550Y216114D01*
X486550Y216114D01*
X486558Y216118D01*
X486559Y216118D01*
X486567Y216122D01*
X486567Y216122D01*
X486575Y216126D01*
X486576Y216126D01*
X486580Y216128D01*
X486580Y216128D01*
X486583Y216129D01*
X486584Y216130D01*
X486591Y216133D01*
X486591Y216133D01*
X486598Y216137D01*
X486599Y216137D01*
X486605Y216140D01*
X486606Y216140D01*
X486609Y216142D01*
X486610Y216142D01*
X486612Y216143D01*
X486613Y216144D01*
X486619Y216147D01*
X486620Y216147D01*
X486626Y216150D01*
X486627Y216151D01*
X486632Y216154D01*
X486634Y216154D01*
X486636Y216155D01*
X486637Y216156D01*
X486639Y216157D01*
X486641Y216158D01*
X486645Y216160D01*
X486647Y216161D01*
X486651Y216163D01*
X486655Y216165D01*
X486657Y216167D01*
X486661Y216169D01*
X486662Y216170D01*
X486665Y216171D01*
X486668Y216173D01*
X486671Y216174D01*
X486673Y216176D01*
X486677Y216178D01*
X486679Y216179D01*
X486680Y216179D01*
X486681Y216180D01*
X486683Y216181D01*
X486684Y216182D01*
X486688Y216184D01*
X486689Y216185D01*
X486694Y216187D01*
X486695Y216188D01*
X486699Y216191D01*
X486700Y216191D01*
X486702Y216192D01*
X486703Y216193D01*
X486721Y216204D01*
X486722Y216204D01*
X486740Y216216D01*
X486741Y216216D01*
X486757Y216226D01*
X486757Y216227D01*
X486773Y216237D01*
X486773Y216238D01*
X486789Y216248D01*
X486790Y216249D01*
X486806Y216260D01*
X486806Y216260D01*
X486820Y216270D01*
X486820Y216270D01*
X486833Y216280D01*
X486833Y216280D01*
X486847Y216291D01*
X486847Y216291D01*
X486861Y216301D01*
X486861Y216301D01*
X486874Y216312D01*
X486874Y216312D01*
X486888Y216323D01*
X486888Y216323D01*
X486901Y216334D01*
X486902Y216334D01*
X486915Y216346D01*
X486915Y216346D01*
X486926Y216355D01*
X486926Y216355D01*
X486937Y216365D01*
X486937Y216365D01*
X486948Y216375D01*
X486948Y216375D01*
X486959Y216385D01*
X486959Y216385D01*
X486965Y216391D01*
X486965Y216391D01*
X486970Y216395D01*
X486970Y216395D01*
X486981Y216406D01*
X486981Y216406D01*
X486992Y216416D01*
X486992Y216416D01*
X487003Y216427D01*
X487003Y216427D01*
X487013Y216437D01*
X487014Y216437D01*
X487024Y216448D01*
X487024Y216448D01*
X487029Y216453D01*
X487034Y216459D01*
X487042Y216467D01*
X487042Y216467D01*
X487055Y216481D01*
X487056Y216481D01*
X487069Y216495D01*
X487069Y216495D01*
X487082Y216510D01*
X487082Y216510D01*
X487094Y216524D01*
X487094Y216524D01*
X487107Y216539D01*
X487107Y216539D01*
X487119Y216553D01*
X487119Y216553D01*
X487131Y216568D01*
X487132Y216568D01*
X487143Y216583D01*
X487143Y216583D01*
X487155Y216598D01*
X487155Y216598D01*
X487167Y216613D01*
X487167Y216613D01*
X487179Y216630D01*
X487180Y216630D01*
X487192Y216648D01*
X487192Y216648D01*
X487204Y216665D01*
X487205Y216665D01*
X487216Y216683D01*
X487217Y216683D01*
X487228Y216700D01*
X487228Y216701D01*
X487241Y216720D01*
X487242Y216721D01*
X487254Y216741D01*
X487266Y216761D01*
X487266D01*
X487268Y216766D01*
X487271Y216770D01*
X487273Y216773D01*
X487274Y216775D01*
X487277Y216780D01*
X487277Y216781D01*
X487279Y216783D01*
X487279Y216784D01*
X487280Y216786D01*
X487281Y216787D01*
X487283Y216792D01*
X487284Y216792D01*
X487287Y216797D01*
X487287Y216798D01*
X487290Y216803D01*
X487290Y216804D01*
X487291Y216806D01*
X487292Y216807D01*
X487293Y216810D01*
X487293Y216810D01*
X487297Y216816D01*
X487297Y216816D01*
X487300Y216822D01*
X487300Y216823D01*
X487303Y216829D01*
X487303Y216829D01*
X487305Y216832D01*
X487305Y216832D01*
X487307Y216835D01*
X487307Y216836D01*
X487310Y216842D01*
X487311Y216843D01*
X487314Y216849D01*
X487314Y216850D01*
X487317Y216857D01*
X487318Y216857D01*
X487319Y216860D01*
X487319Y216860D01*
X487321Y216864D01*
X487321Y216864D01*
X487325Y216872D01*
X487325Y216872D01*
X487328Y216879D01*
X487328Y216879D01*
X487332Y216887D01*
X487332Y216887D01*
X487334Y216891D01*
X487334Y216891D01*
X487336Y216895D01*
X487336Y216895D01*
X487340Y216904D01*
X487340Y216904D01*
X487344Y216913D01*
X487344Y216913D01*
X487347Y216922D01*
X487348Y216922D01*
X487349Y216926D01*
X487349Y216927D01*
X487352Y216932D01*
X487352Y216932D01*
X487356Y216943D01*
X487356Y216943D01*
X487360Y216953D01*
X487360Y216953D01*
X487365Y216964D01*
X487365Y216964D01*
X487367Y216970D01*
X487367Y216970D01*
X487370Y216977D01*
X487370Y216977D01*
X487375Y216991D01*
X487375Y216992D01*
X487380Y217006D01*
X487380Y217006D01*
X487386Y217021D01*
X487386Y217021D01*
X487388Y217028D01*
X487388Y217028D01*
X487399Y217062D01*
X487399Y217062D01*
X487418Y217131D01*
X487418Y217131D01*
X487433Y217201D01*
X487445Y217272D01*
X487450Y217307D01*
X487450Y217313D01*
X487451Y217324D01*
X487453Y217335D01*
X487454Y217346D01*
X487454Y217352D01*
X487454Y217357D01*
X487455Y217366D01*
X487456Y217375D01*
X487456Y217385D01*
X487457Y217393D01*
X487457Y217402D01*
X487457Y217411D01*
X487458Y217424D01*
X487458Y217427D01*
X487458Y217435D01*
X487458Y217442D01*
X487458Y217450D01*
X487458Y217453D01*
X487458Y217457D01*
X487458Y217464D01*
X487458Y217472D01*
X487458Y217479D01*
X487458Y217483D01*
X487458Y217493D01*
X487458Y217500D01*
X487458Y217510D01*
X487457Y217534D01*
X487455Y217559D01*
X487454Y217581D01*
X487452Y217603D01*
X487450Y217625D01*
X487447Y217647D01*
X487444Y217667D01*
X487442Y217686D01*
X487439Y217706D01*
X487435Y217725D01*
X487432Y217745D01*
X487429Y217762D01*
X487425Y217779D01*
X487422Y217796D01*
X487418Y217813D01*
X487414Y217830D01*
X487409Y217847D01*
X487405Y217864D01*
X487401Y217882D01*
X487396Y217899D01*
X487391Y217916D01*
X487386Y217933D01*
X487381Y217948D01*
X487377Y217962D01*
X487372Y217977D01*
X487367Y217991D01*
X487362Y218006D01*
X487357Y218020D01*
X487352Y218035D01*
X487346Y218050D01*
X487341Y218064D01*
X487335Y218079D01*
X487329Y218094D01*
X487323Y218108D01*
X487317Y218123D01*
X487311Y218138D01*
X487304Y218153D01*
X487298Y218167D01*
X487291Y218182D01*
X487285Y218197D01*
X487278Y218212D01*
X487270Y218227D01*
X487263Y218242D01*
X487256Y218257D01*
X487248Y218272D01*
X487241Y218287D01*
X487233Y218302D01*
X487225Y218317D01*
X487217Y218332D01*
X487209Y218347D01*
X487200Y218362D01*
X487192Y218377D01*
X487183Y218392D01*
X487175Y218407D01*
X487166Y218422D01*
X487157Y218437D01*
X487147Y218453D01*
X487138Y218468D01*
X487128Y218483D01*
X487119Y218498D01*
X487109Y218513D01*
X487099Y218529D01*
X487089Y218544D01*
X487081Y218556D01*
X487073Y218569D01*
X487064Y218581D01*
X487056Y218593D01*
X487047Y218605D01*
X487039Y218618D01*
X487030Y218630D01*
X487021Y218642D01*
X487012Y218655D01*
X487003Y218667D01*
X486994Y218679D01*
X486985Y218692D01*
X486975Y218704D01*
X486966Y218716D01*
X486957Y218729D01*
X486947Y218741D01*
X486937Y218754D01*
X486927Y218766D01*
X486917Y218778D01*
X486907Y218791D01*
X486898Y218803D01*
X486887Y218816D01*
X486877Y218828D01*
X486867Y218841D01*
X486856Y218853D01*
X486846Y218866D01*
X486835Y218878D01*
X486824Y218891D01*
X486813Y218903D01*
X486802Y218916D01*
X486791Y218928D01*
X486780Y218941D01*
X486769Y218953D01*
X486758Y218966D01*
X486746Y218978D01*
X486735Y218991D01*
X486723Y219004D01*
X486711Y219016D01*
X486699Y219029D01*
X486687Y219041D01*
X486675Y219054D01*
X486663Y219067D01*
X486651Y219079D01*
X486639Y219092D01*
X486626Y219104D01*
X486614Y219117D01*
X486601Y219130D01*
X486588Y219142D01*
X486572Y219158D01*
X486559Y219171D01*
X486543Y219187D01*
X486528Y219201D01*
X486514Y219215D01*
X486499Y219228D01*
X486485Y219242D01*
X486471Y219255D01*
X486456Y219268D01*
X486442Y219281D01*
X486428Y219294D01*
X486413Y219307D01*
X486399Y219320D01*
X486385Y219332D01*
X486370Y219345D01*
X486356Y219357D01*
X486342Y219370D01*
X486328Y219382D01*
X486313Y219394D01*
X486299Y219406D01*
X486285Y219418D01*
X486271Y219429D01*
X486257Y219441D01*
X486242Y219452D01*
X486228Y219464D01*
X486214Y219475D01*
X486200Y219486D01*
X486186Y219497D01*
X486171Y219508D01*
X486157Y219519D01*
X486143Y219530D01*
X486129Y219540D01*
X486115Y219550D01*
X486101Y219561D01*
X486087Y219571D01*
X486073Y219581D01*
X486059Y219591D01*
X486044Y219601D01*
X486030Y219611D01*
X486016Y219620D01*
X486002Y219630D01*
X485988Y219639D01*
X485974Y219649D01*
X485960Y219658D01*
X485946Y219667D01*
X485932Y219676D01*
X485918Y219685D01*
X485902Y219695D01*
X485886Y219706D01*
X485869Y219715D01*
X485853Y219725D01*
X485837Y219735D01*
X485821Y219744D01*
X485805Y219754D01*
X485788Y219763D01*
X485772Y219772D01*
X485756Y219781D01*
X485740Y219790D01*
X485724Y219798D01*
X485708Y219807D01*
X485692Y219815D01*
X485675Y219823D01*
X485659Y219831D01*
X485643Y219839D01*
X485627Y219847D01*
X485611Y219855D01*
X485593Y219863D01*
X485575Y219871D01*
X485557Y219880D01*
X485538Y219888D01*
X485520Y219896D01*
X485502Y219903D01*
X485484Y219911D01*
X485465Y219918D01*
X485447Y219925D01*
X485427Y219933D01*
X485407Y219940D01*
X485386Y219947D01*
X485366Y219954D01*
X485346Y219961D01*
X485326Y219968D01*
X485303Y219975D01*
X485281Y219982D01*
X485258Y219988D01*
X485236Y219994D01*
X485211Y220001D01*
X485187Y220007D01*
X485160Y220013D01*
X485134Y220020D01*
X485105Y220025D01*
X485074Y220031D01*
X485043Y220037D01*
X485043Y220037D01*
X485039Y220038D01*
X485030Y220039D01*
X485021Y220041D01*
X485012Y220042D01*
X485008Y220043D01*
X485003Y220043D01*
X484994Y220045D01*
X484984Y220046D01*
X484975Y220047D01*
X484965Y220049D01*
X484955Y220050D01*
X484945Y220051D01*
X484934Y220052D01*
X484929Y220053D01*
X484923Y220054D01*
X484911Y220055D01*
X484899Y220056D01*
X484887Y220057D01*
X484881Y220057D01*
X484881D01*
X484873Y220058D01*
X484873D01*
X484858Y220059D01*
X484858D01*
X484843Y220060D01*
X484843D01*
X484828Y220061D01*
X484828Y220061D01*
X484820Y220061D01*
X484820Y220061D01*
X484808Y220062D01*
X484808Y220062D01*
X484784Y220063D01*
X484784Y220063D01*
X484760Y220063D01*
X484760Y220063D01*
X484735Y220064D01*
X484735Y220064D01*
X484723Y220064D01*
X484691Y220063D01*
X484627Y220061D01*
X484564Y220056D01*
X484289Y220414D01*
X484283Y220424D01*
X484281Y220428D01*
X484274Y220449D01*
X484270Y220461D01*
X484267Y220471D01*
X484261Y220495D01*
X484260Y220501D01*
X484257Y220515D01*
X484200Y221051D01*
X484269Y221165D01*
X484279Y221179D01*
X484295Y221201D01*
X484307Y221217D01*
X484438Y221364D01*
X484486Y221410D01*
X484521Y221434D01*
X484547Y221448D01*
X484587Y221466D01*
X484626Y221474D01*
X484649Y221477D01*
X484736Y221479D01*
X484750Y221479D01*
D02*
G37*
%LPC*%
G36*
X366185Y237614D02*
X366169Y237614D01*
X366169Y237614D01*
X366152Y237614D01*
X366152Y237614D01*
X366136Y237614D01*
X366135Y237614D01*
X366119Y237613D01*
X366119Y237613D01*
X366102Y237612D01*
X366102D01*
X366085Y237612D01*
X366085D01*
X366068Y237611D01*
X366068D01*
X366054Y237610D01*
X366054D01*
X366040Y237608D01*
X366040D01*
X366025Y237607D01*
X366025D01*
X366011Y237606D01*
X366011D01*
X365997Y237604D01*
X365997D01*
X365983Y237603D01*
X365982D01*
X365968Y237601D01*
X365968D01*
X365954Y237599D01*
X365954D01*
X365939Y237597D01*
X365939D01*
X365925Y237595D01*
X365925D01*
X365918Y237594D01*
X365910Y237593D01*
X365895Y237591D01*
X365881Y237588D01*
X365866Y237586D01*
X365851Y237583D01*
X365837Y237580D01*
X365822Y237577D01*
X365807Y237574D01*
X365792Y237571D01*
X365777Y237568D01*
X365762Y237564D01*
X365747Y237561D01*
X365732Y237557D01*
X365717Y237554D01*
X365702Y237550D01*
X365690Y237546D01*
X365677Y237543D01*
X365665Y237540D01*
X365653Y237537D01*
X365641Y237533D01*
X365629Y237529D01*
X365616Y237526D01*
X365604Y237522D01*
X365592Y237518D01*
X365579Y237514D01*
X365567Y237510D01*
X365554Y237506D01*
X365542Y237502D01*
X365530Y237498D01*
X365517Y237494D01*
X365505Y237489D01*
X365492Y237485D01*
X365479Y237480D01*
X365467Y237476D01*
X365454Y237471D01*
X365442Y237467D01*
X365429Y237462D01*
X365416Y237457D01*
X365404Y237452D01*
X365391Y237447D01*
X365378Y237442D01*
X365365Y237437D01*
X365353Y237431D01*
X365340Y237426D01*
X365327Y237421D01*
X365314Y237415D01*
X365301Y237409D01*
X365288Y237404D01*
X365275Y237398D01*
X365262Y237392D01*
X365249Y237386D01*
X365236Y237380D01*
X365223Y237374D01*
X365210Y237368D01*
X365197Y237362D01*
X365184Y237355D01*
X365171Y237349D01*
X365158Y237343D01*
X365144Y237336D01*
X365131Y237330D01*
X365118Y237323D01*
X365105Y237316D01*
X365091Y237309D01*
X365078Y237302D01*
X362329Y235865D01*
X363929Y232805D01*
X366677Y234242D01*
X366694Y234250D01*
X366707Y234258D01*
X366720Y234265D01*
X366733Y234272D01*
X366746Y234279D01*
X366759Y234286D01*
X366772Y234293D01*
X366785Y234300D01*
X366797Y234307D01*
X366810Y234314D01*
X366822Y234322D01*
X366835Y234329D01*
X366847Y234336D01*
X366859Y234344D01*
X366871Y234351D01*
X366883Y234358D01*
X366896Y234366D01*
X366907Y234373D01*
X366919Y234380D01*
X366931Y234388D01*
X366943Y234395D01*
X366954Y234403D01*
X366966Y234410D01*
X366978Y234418D01*
X366989Y234425D01*
X367000Y234433D01*
X367011Y234441D01*
X367023Y234448D01*
X367034Y234456D01*
X367045Y234464D01*
X367056Y234472D01*
X367067Y234479D01*
X367077Y234487D01*
X367088Y234495D01*
X367099Y234503D01*
X367109Y234510D01*
X367120Y234518D01*
X367130Y234526D01*
X367140Y234534D01*
X367150Y234542D01*
X367161Y234550D01*
X367171Y234558D01*
X367181Y234566D01*
X367191Y234574D01*
X367200Y234582D01*
X367210Y234590D01*
X367220Y234598D01*
X367230Y234606D01*
X367239Y234615D01*
X367249Y234623D01*
X367258Y234631D01*
X367269Y234641D01*
X367281Y234651D01*
X367292Y234662D01*
X367304Y234672D01*
X367315Y234683D01*
X367326Y234693D01*
X367337Y234704D01*
X367347Y234714D01*
X367358Y234725D01*
X367369Y234735D01*
X367379Y234746D01*
X367389Y234757D01*
X367399Y234767D01*
X367409Y234778D01*
X367419Y234789D01*
X367429Y234800D01*
X367439Y234810D01*
X367448Y234821D01*
X367458Y234832D01*
X367467Y234843D01*
X367476Y234854D01*
X367485Y234865D01*
X367494Y234876D01*
X367503Y234887D01*
X367513Y234901D01*
X367524Y234914D01*
X367533Y234928D01*
X367543Y234941D01*
X367553Y234955D01*
X367563Y234968D01*
X367572Y234982D01*
X367581Y234995D01*
X367592Y235012D01*
X367602Y235028D01*
X367612Y235044D01*
X367622Y235060D01*
X367631Y235076D01*
X367642Y235095D01*
X367652Y235114D01*
X367663Y235135D01*
X367674Y235156D01*
X367675Y235159D01*
X367678Y235165D01*
X367681Y235171D01*
X367684Y235177D01*
X367687Y235183D01*
X367690Y235190D01*
X367693Y235196D01*
X367696Y235203D01*
X367699Y235210D01*
X367702Y235217D01*
X367705Y235224D01*
X367709Y235231D01*
X367712Y235239D01*
X367715Y235248D01*
X367719Y235256D01*
X367722Y235265D01*
X367726Y235275D01*
X367730Y235285D01*
X367734Y235297D01*
X367738Y235308D01*
X367743Y235322D01*
X367750Y235341D01*
X367756Y235359D01*
X367761Y235378D01*
X367764Y235387D01*
X367770Y235408D01*
X367780Y235450D01*
X367790Y235493D01*
X367797Y235535D01*
X367801Y235557D01*
X367801Y235557D01*
X367801Y235557D01*
X367801Y235563D01*
X367803Y235574D01*
X367805Y235586D01*
X367806Y235597D01*
X367807Y235608D01*
X367808Y235617D01*
X367809Y235626D01*
X367810Y235635D01*
X367811Y235644D01*
X367811Y235651D01*
X367812Y235659D01*
X367813Y235667D01*
X367813Y235675D01*
X367814Y235682D01*
X367814Y235689D01*
X367814Y235696D01*
X367815Y235703D01*
X367815Y235710D01*
X367815Y235716D01*
X367815Y235723D01*
X367815Y235726D01*
X367815Y235726D01*
X367816Y235750D01*
X367816Y235774D01*
X367816Y235774D01*
X367816Y235795D01*
X367816Y235795D01*
X367815Y235817D01*
X367815Y235817D01*
X367814Y235838D01*
Y235838D01*
X367813Y235857D01*
Y235857D01*
X367812Y235876D01*
Y235876D01*
X367810Y235895D01*
Y235895D01*
X367808Y235914D01*
Y235914D01*
X367807Y235930D01*
Y235930D01*
X367805Y235946D01*
Y235946D01*
X367803Y235963D01*
Y235963D01*
X367800Y235979D01*
Y235979D01*
X367798Y235996D01*
Y235996D01*
X367795Y236012D01*
Y236012D01*
X367793Y236029D01*
Y236029D01*
X367790Y236046D01*
X367786Y236062D01*
X367784Y236076D01*
X367781Y236090D01*
X367778Y236104D01*
X367775Y236118D01*
X367771Y236132D01*
X367768Y236146D01*
X367765Y236160D01*
X367761Y236174D01*
X367757Y236188D01*
X367753Y236202D01*
X367749Y236216D01*
X367745Y236230D01*
X367741Y236245D01*
X367737Y236259D01*
X367732Y236273D01*
X367728Y236287D01*
X367723Y236301D01*
X367718Y236316D01*
X367713Y236330D01*
X367708Y236344D01*
X367703Y236359D01*
X367698Y236373D01*
X367692Y236388D01*
X367687Y236402D01*
X367681Y236417D01*
X367675Y236431D01*
X367669Y236445D01*
X367664Y236457D01*
X367659Y236469D01*
X367654Y236480D01*
X367649Y236492D01*
X367644Y236504D01*
X367639Y236515D01*
X367634Y236527D01*
X367628Y236539D01*
X367623Y236550D01*
X367617Y236562D01*
X367612Y236574D01*
X367606Y236586D01*
X367600Y236598D01*
X367595Y236609D01*
X367588Y236621D01*
X367583Y236633D01*
X367577Y236645D01*
X367570Y236657D01*
X367563Y236671D01*
X367556Y236683D01*
X367550Y236695D01*
X367544Y236706D01*
X367537Y236718D01*
X367531Y236730D01*
X367524Y236741D01*
X367518Y236752D01*
X367512Y236763D01*
X367505Y236775D01*
X367498Y236786D01*
X367492Y236797D01*
X367485Y236808D01*
X367478Y236819D01*
X367472Y236829D01*
X367465Y236840D01*
X367458Y236851D01*
X367452Y236861D01*
X367445Y236872D01*
X367438Y236882D01*
X367431Y236893D01*
X367422Y236905D01*
X367414Y236918D01*
X367405Y236931D01*
X367396Y236943D01*
X367387Y236956D01*
X367378Y236968D01*
X367369Y236980D01*
X367360Y236992D01*
X367351Y237004D01*
X367342Y237016D01*
X367333Y237028D01*
X367324Y237039D01*
X367315Y237051D01*
X367305Y237062D01*
X367296Y237073D01*
X367286Y237085D01*
X367277Y237095D01*
X367267Y237106D01*
X367258Y237117D01*
X367248Y237128D01*
X367239Y237139D01*
X367229Y237149D01*
X367229Y237149D01*
X367219Y237159D01*
X367219Y237159D01*
X367209Y237170D01*
X367209Y237170D01*
X367200Y237180D01*
X367199Y237180D01*
X367188Y237192D01*
X367188Y237192D01*
X367176Y237203D01*
X367176Y237203D01*
X367164Y237215D01*
X367164Y237215D01*
X367152Y237227D01*
X367151Y237227D01*
X367139Y237238D01*
X367139Y237238D01*
X367127Y237249D01*
X367127Y237249D01*
X367115Y237260D01*
X367115Y237260D01*
X367103Y237271D01*
X367102Y237271D01*
X367090Y237281D01*
X367090Y237281D01*
X367075Y237294D01*
X367075Y237294D01*
X367061Y237306D01*
X367061Y237306D01*
X367046Y237317D01*
X367046Y237317D01*
X367031Y237329D01*
X367031Y237329D01*
X367014Y237342D01*
X367014Y237342D01*
X366997Y237354D01*
X366997Y237355D01*
X366979Y237367D01*
X366979Y237367D01*
X366960Y237380D01*
X366959Y237381D01*
X366940Y237393D01*
X366939Y237394D01*
X366937Y237395D01*
X366936Y237396D01*
X366931Y237399D01*
X366931Y237399D01*
X366926Y237402D01*
X366925Y237403D01*
X366920Y237406D01*
X366920Y237406D01*
X366917Y237407D01*
X366917Y237408D01*
X366914Y237409D01*
X366914Y237410D01*
X366908Y237413D01*
X366907Y237414D01*
X366902Y237417D01*
X366901Y237418D01*
X366896Y237421D01*
X366895Y237421D01*
X366893Y237423D01*
X366892Y237423D01*
X366889Y237425D01*
X366888Y237426D01*
X366882Y237429D01*
X366879Y237430D01*
X366874Y237433D01*
X366871Y237435D01*
X366867Y237438D01*
X366865Y237439D01*
X366859Y237442D01*
X366855Y237444D01*
X366850Y237447D01*
X366846Y237449D01*
X366845Y237450D01*
X366843Y237451D01*
X366842Y237451D01*
X366834Y237456D01*
X366833Y237456D01*
X366824Y237461D01*
X366823Y237461D01*
X366812Y237467D01*
X366812Y237467D01*
X366800Y237473D01*
X366800Y237473D01*
X366789Y237479D01*
X366788Y237479D01*
X366786Y237480D01*
X366786Y237480D01*
X366753Y237496D01*
X366753Y237496D01*
X366692Y237521D01*
X366692Y237521D01*
X366630Y237544D01*
X366629Y237544D01*
X366566Y237563D01*
X366566Y237563D01*
X366534Y237571D01*
X366534Y237571D01*
X366529Y237572D01*
X366529Y237572D01*
X366520Y237575D01*
X366520Y237575D01*
X366511Y237577D01*
X366511Y237577D01*
X366501Y237579D01*
X366501Y237579D01*
X366496Y237580D01*
X366496Y237580D01*
X366492Y237581D01*
X366492Y237581D01*
X366484Y237583D01*
X366484Y237583D01*
X366475Y237584D01*
X366475Y237584D01*
X366467Y237586D01*
X366467Y237586D01*
X366463Y237587D01*
X366463Y237587D01*
X366459Y237588D01*
X366459Y237588D01*
X366452Y237589D01*
X366452Y237589D01*
X366445Y237590D01*
X366445Y237590D01*
X366438Y237592D01*
X366438Y237592D01*
X366434Y237592D01*
X366434Y237592D01*
X366431Y237593D01*
X366431Y237593D01*
X366428Y237593D01*
X366428Y237593D01*
X366424Y237594D01*
X366424Y237594D01*
X366424D01*
X366423Y237594D01*
X366418Y237595D01*
X366415Y237596D01*
X366411Y237596D01*
X366405Y237597D01*
X366404Y237597D01*
X366398Y237598D01*
X366392Y237599D01*
X366387Y237600D01*
X366385Y237600D01*
X366385Y237600D01*
X366382Y237600D01*
X366358Y237603D01*
X366338Y237606D01*
X366337Y237606D01*
X366316Y237608D01*
X366316Y237608D01*
X366295Y237610D01*
X366294Y237610D01*
X366276Y237611D01*
X366275Y237611D01*
X366257Y237612D01*
X366256Y237612D01*
X366237Y237613D01*
X366237Y237613D01*
X366218Y237614D01*
X366218Y237614D01*
X366202Y237614D01*
X366202Y237614D01*
X366185Y237614D01*
X366185Y237614D01*
D02*
G37*
G36*
X346569Y224836D02*
X346563Y224836D01*
X346557Y224836D01*
X346551Y224836D01*
X346545Y224836D01*
X346540Y224836D01*
X346538Y224836D01*
X346537Y224836D01*
X346516Y224835D01*
X346497Y224834D01*
X346496Y224834D01*
X346478Y224833D01*
X346478Y224833D01*
X346460Y224831D01*
X346459Y224831D01*
X346444Y224830D01*
X346443Y224830D01*
X346427Y224828D01*
X346427Y224828D01*
X346411Y224826D01*
X346411Y224826D01*
X346395Y224824D01*
X346395Y224824D01*
X346379Y224821D01*
X346379Y224821D01*
X346365Y224819D01*
X346365Y224819D01*
X346351Y224816D01*
X346351Y224816D01*
X346337Y224814D01*
X346337Y224814D01*
X346323Y224811D01*
X346323Y224811D01*
X346309Y224808D01*
X346309Y224808D01*
X346295Y224805D01*
X346295Y224805D01*
X346281Y224802D01*
X346281Y224802D01*
X346267Y224799D01*
X346266Y224799D01*
X346252Y224795D01*
X346252Y224795D01*
X346240Y224792D01*
X346240Y224792D01*
X346229Y224789D01*
X346229Y224789D01*
X346217Y224786D01*
X346217Y224786D01*
X346205Y224782D01*
X346205Y224782D01*
X346193Y224779D01*
X346193Y224779D01*
X346181Y224776D01*
X346181Y224776D01*
X346169Y224772D01*
X346169Y224772D01*
X346157Y224768D01*
X346157Y224768D01*
X346145Y224764D01*
X346145Y224764D01*
X346133Y224760D01*
X346133Y224760D01*
X346121Y224756D01*
X346121Y224756D01*
X346109Y224752D01*
X346109Y224752D01*
X346097Y224747D01*
X346097Y224747D01*
X346085Y224743D01*
X346085Y224743D01*
X346073Y224738D01*
X346061Y224734D01*
X346049Y224729D01*
X346037Y224724D01*
X346025Y224719D01*
X346013Y224714D01*
X346001Y224709D01*
X345988Y224704D01*
X345976Y224698D01*
X345964Y224693D01*
X345952Y224687D01*
X345942Y224682D01*
X345932Y224678D01*
X345922Y224673D01*
X345912Y224668D01*
X345903Y224663D01*
X345893Y224658D01*
X345883Y224653D01*
X345873Y224648D01*
X345863Y224643D01*
X345853Y224638D01*
X345843Y224632D01*
X345833Y224627D01*
X345824Y224622D01*
X345814Y224616D01*
X345804Y224610D01*
X345794Y224605D01*
X345784Y224599D01*
X345774Y224593D01*
X345764Y224587D01*
X345754Y224581D01*
X345744Y224575D01*
X345734Y224569D01*
X345724Y224563D01*
X345714Y224557D01*
X345704Y224551D01*
X345694Y224544D01*
X345684Y224538D01*
X345674Y224531D01*
X345663Y224525D01*
X345653Y224518D01*
X345643Y224511D01*
X345633Y224505D01*
X345623Y224498D01*
X345613Y224491D01*
X345603Y224484D01*
X345593Y224477D01*
X345583Y224470D01*
X345572Y224462D01*
X345562Y224455D01*
X345552Y224448D01*
X345542Y224440D01*
X345532Y224433D01*
X345522Y224425D01*
X345511Y224417D01*
X345501Y224410D01*
X345491Y224402D01*
X345481Y224394D01*
X345470Y224386D01*
X345460Y224378D01*
X345450Y224370D01*
X345440Y224362D01*
X345429Y224354D01*
X345419Y224345D01*
X345409Y224337D01*
X345399Y224329D01*
X345388Y224320D01*
X345378Y224311D01*
X345368Y224303D01*
X345357Y224294D01*
X345352Y224290D01*
X342769Y222088D01*
X344823Y219679D01*
X347405Y221881D01*
X347418Y221892D01*
X347428Y221901D01*
X347438Y221909D01*
X347448Y221918D01*
X347458Y221927D01*
X347468Y221936D01*
X347478Y221945D01*
X347487Y221954D01*
X347497Y221963D01*
X347507Y221972D01*
X347516Y221981D01*
X347526Y221990D01*
X347535Y221999D01*
X347544Y222008D01*
X347553Y222017D01*
X347562Y222025D01*
X347571Y222035D01*
X347580Y222044D01*
X347589Y222053D01*
X347598Y222062D01*
X347606Y222071D01*
X347615Y222080D01*
X347624Y222089D01*
X347632Y222098D01*
X347640Y222107D01*
X347651Y222118D01*
X347661Y222130D01*
X347671Y222141D01*
X347681Y222153D01*
X347691Y222164D01*
X347701Y222176D01*
X347710Y222187D01*
X347720Y222199D01*
X347729Y222210D01*
X347738Y222222D01*
X347747Y222233D01*
X347756Y222245D01*
X347765Y222256D01*
X347774Y222268D01*
X347783Y222280D01*
X347791Y222291D01*
X347799Y222303D01*
X347808Y222315D01*
X347816Y222326D01*
X347824Y222338D01*
X347832Y222350D01*
X347839Y222361D01*
X347847Y222373D01*
X347855Y222385D01*
X347862Y222397D01*
X347869Y222409D01*
X347876Y222420D01*
X347885Y222434D01*
X347893Y222449D01*
X347901Y222463D01*
X347909Y222477D01*
X347917Y222491D01*
X347924Y222506D01*
X347932Y222520D01*
X347939Y222534D01*
X347946Y222549D01*
X347954Y222565D01*
X347961Y222582D01*
X347969Y222599D01*
X347976Y222616D01*
X347983Y222633D01*
X347991Y222652D01*
X347998Y222671D01*
X348006Y222691D01*
X348013Y222712D01*
X348014Y222715D01*
X348016Y222721D01*
X348018Y222727D01*
X348021Y222737D01*
X348024Y222746D01*
X348026Y222752D01*
X348028Y222758D01*
X348029Y222761D01*
X348029Y222761D01*
X348029Y222761D01*
X348030Y222764D01*
X348032Y222771D01*
X348034Y222778D01*
X348035Y222784D01*
X348038Y222792D01*
X348040Y222800D01*
X348042Y222808D01*
X348044Y222815D01*
Y222815D01*
X348045Y222819D01*
Y222819D01*
X348046Y222824D01*
Y222824D01*
X348048Y222833D01*
Y222833D01*
X348050Y222842D01*
Y222842D01*
X348052Y222851D01*
Y222851D01*
X348054Y222856D01*
Y222856D01*
X348055Y222862D01*
Y222862D01*
X348057Y222873D01*
Y222874D01*
X348060Y222885D01*
Y222885D01*
X348062Y222897D01*
Y222897D01*
X348063Y222903D01*
Y222903D01*
X348065Y222915D01*
Y222915D01*
X348069Y222939D01*
Y222939D01*
X348073Y222963D01*
Y222963D01*
X348076Y222987D01*
Y222987D01*
X348077Y222999D01*
Y222999D01*
X348079Y223016D01*
Y223016D01*
X348082Y223050D01*
Y223050D01*
X348083Y223084D01*
X348083Y223084D01*
X348084Y223118D01*
X348084Y223118D01*
X348084Y223135D01*
X348084Y223135D01*
X348084Y223141D01*
X348084Y223153D01*
X348084Y223153D01*
X348084Y223165D01*
X348084Y223165D01*
X348084Y223176D01*
X348084Y223176D01*
X348084Y223182D01*
X348084Y223182D01*
X348084Y223187D01*
X348084Y223187D01*
X348083Y223196D01*
X348083Y223196D01*
X348083Y223206D01*
X348083Y223206D01*
X348082Y223215D01*
X348082Y223215D01*
X348082Y223220D01*
X348082Y223220D01*
X348082Y223224D01*
X348082Y223224D01*
X348081Y223232D01*
X348081Y223240D01*
X348080Y223248D01*
X348079Y223256D01*
X348079Y223264D01*
X348078Y223271D01*
X348077Y223278D01*
X348077Y223282D01*
X348077Y223282D01*
X348077Y223284D01*
X348077Y223285D01*
X348076Y223292D01*
X348075Y223298D01*
X348074Y223304D01*
X348074Y223307D01*
X348074Y223310D01*
X348073Y223317D01*
X348072Y223323D01*
X348071Y223329D01*
X348071Y223331D01*
X348071Y223332D01*
X348067Y223355D01*
X348063Y223377D01*
X348060Y223397D01*
X348056Y223418D01*
X348051Y223438D01*
X348047Y223455D01*
X348043Y223473D01*
X348038Y223491D01*
X348034Y223508D01*
X348029Y223526D01*
X348024Y223541D01*
X348020Y223556D01*
X348015Y223571D01*
X348010Y223586D01*
X348005Y223601D01*
X348000Y223617D01*
X347994Y223632D01*
X347989Y223647D01*
X347983Y223662D01*
X347977Y223677D01*
X347971Y223692D01*
X347966Y223705D01*
X347961Y223717D01*
X347955Y223730D01*
X347950Y223743D01*
X347944Y223755D01*
X347938Y223768D01*
X347933Y223781D01*
X347927Y223793D01*
X347920Y223806D01*
X347914Y223819D01*
X347908Y223831D01*
X347902Y223844D01*
X347895Y223856D01*
X347888Y223869D01*
X347882Y223882D01*
X347875Y223894D01*
X347868Y223907D01*
X347861Y223920D01*
X347853Y223932D01*
X347846Y223945D01*
X347839Y223958D01*
X347831Y223970D01*
X347823Y223983D01*
X347815Y223995D01*
X347808Y224008D01*
X347800Y224021D01*
X347792Y224033D01*
X347783Y224046D01*
X347775Y224059D01*
X347766Y224071D01*
X347758Y224084D01*
X347749Y224096D01*
X347740Y224109D01*
X347731Y224122D01*
X347722Y224134D01*
X347713Y224147D01*
X347704Y224160D01*
X347695Y224172D01*
X347685Y224185D01*
X347676Y224197D01*
X347666Y224210D01*
X347656Y224223D01*
X347646Y224235D01*
X347636Y224248D01*
X347626Y224260D01*
X347616Y224273D01*
X347605Y224286D01*
X347595Y224298D01*
X347584Y224311D01*
X347578Y224318D01*
X347567Y224330D01*
X347558Y224341D01*
X347550Y224351D01*
X347541Y224360D01*
X347532Y224370D01*
X347523Y224380D01*
X347514Y224390D01*
X347505Y224399D01*
X347496Y224409D01*
X347487Y224418D01*
X347478Y224427D01*
X347469Y224436D01*
X347460Y224445D01*
X347450Y224454D01*
X347441Y224463D01*
X347432Y224472D01*
X347423Y224480D01*
X347413Y224489D01*
X347404Y224497D01*
X347395Y224506D01*
X347385Y224514D01*
X347376Y224522D01*
X347367Y224530D01*
X347357Y224538D01*
X347348Y224546D01*
X347338Y224553D01*
X347329Y224561D01*
X347319Y224568D01*
X347309Y224576D01*
X347309Y224576D01*
X347300Y224583D01*
X347300Y224583D01*
X347288Y224592D01*
X347288Y224592D01*
X347277Y224600D01*
X347277Y224600D01*
X347265Y224608D01*
X347265Y224609D01*
X347253Y224617D01*
X347253Y224617D01*
X347242Y224625D01*
X347242Y224625D01*
X347230Y224633D01*
X347230Y224633D01*
X347218Y224640D01*
X347218Y224640D01*
X347206Y224648D01*
X347206Y224648D01*
X347195Y224655D01*
X347194Y224655D01*
X347183Y224663D01*
X347182Y224663D01*
X347169Y224671D01*
X347169Y224671D01*
X347155Y224679D01*
X347155Y224679D01*
X347141Y224687D01*
X347141Y224687D01*
X347127Y224695D01*
X347127Y224695D01*
X347110Y224703D01*
X347110Y224703D01*
X347094Y224712D01*
X347094Y224712D01*
X347078Y224720D01*
X347078Y224720D01*
X347059Y224728D01*
X347059Y224728D01*
X347041Y224737D01*
X347041Y224737D01*
X347039Y224738D01*
X347038Y224738D01*
X347033Y224740D01*
X347033Y224740D01*
X347028Y224742D01*
X347028Y224742D01*
X347023Y224745D01*
X347023Y224745D01*
X347020Y224746D01*
X347020Y224746D01*
X347018Y224747D01*
X347017Y224747D01*
X347012Y224749D01*
X347012Y224749D01*
X347006Y224752D01*
X347006Y224752D01*
X347001Y224754D01*
X347000Y224754D01*
X346998Y224755D01*
X346997Y224755D01*
X346995Y224756D01*
X346994Y224756D01*
X346988Y224759D01*
X346988Y224759D01*
X346982Y224761D01*
X346982Y224761D01*
X346976Y224763D01*
X346975Y224764D01*
X346973Y224765D01*
X346972Y224765D01*
X346969Y224766D01*
X346969Y224766D01*
X346962Y224769D01*
X346961Y224769D01*
X346954Y224771D01*
X346954Y224771D01*
X346947Y224774D01*
X346947Y224774D01*
X346943Y224775D01*
X346943Y224775D01*
X346939Y224777D01*
X346938Y224777D01*
X346930Y224780D01*
X346929Y224780D01*
X346921Y224782D01*
X346912Y224785D01*
X346901Y224789D01*
X346887Y224793D01*
X346873Y224797D01*
X346859Y224800D01*
X346856Y224801D01*
X346831Y224807D01*
X346788Y224816D01*
X346745Y224824D01*
X346702Y224830D01*
X346675Y224832D01*
X346666Y224833D01*
X346657Y224833D01*
X346647Y224834D01*
X346638Y224835D01*
X346631Y224835D01*
X346623Y224835D01*
X346615Y224836D01*
X346613Y224836D01*
X346608Y224836D01*
X346601Y224836D01*
X346594Y224836D01*
X346588Y224836D01*
X346584Y224836D01*
X346584Y224836D01*
X346581Y224836D01*
X346575Y224836D01*
X346569Y224836D01*
D02*
G37*
G36*
X349829Y221616D02*
X349829Y221616D01*
X349824Y221616D01*
X349823Y221616D01*
X349819Y221616D01*
X349819Y221616D01*
X349810Y221616D01*
X349810Y221616D01*
X349801Y221616D01*
X349801Y221616D01*
X349792Y221616D01*
X349792Y221616D01*
X349788Y221616D01*
X349788Y221616D01*
X349784Y221616D01*
X349784Y221616D01*
X349776Y221615D01*
X349776Y221615D01*
X349769Y221615D01*
X349768Y221615D01*
X349761Y221615D01*
X349761Y221615D01*
X349757Y221614D01*
X349757Y221614D01*
X349754Y221614D01*
X349753Y221614D01*
X349747Y221614D01*
X349746Y221614D01*
X349740Y221613D01*
X349739Y221613D01*
X349732Y221613D01*
X349732Y221613D01*
X349729Y221613D01*
X349728Y221612D01*
X349726Y221612D01*
X349725Y221612D01*
X349719Y221612D01*
X349717Y221612D01*
X349713Y221611D01*
X349710Y221611D01*
X349703Y221610D01*
X349680Y221608D01*
X349658Y221605D01*
X349657Y221605D01*
X349637Y221602D01*
X349636Y221602D01*
X349616Y221599D01*
X349616Y221599D01*
X349595Y221596D01*
X349595Y221596D01*
X349577Y221593D01*
X349576Y221593D01*
X349558Y221589D01*
X349558Y221589D01*
X349540Y221585D01*
X349540Y221585D01*
X349522Y221581D01*
X349522Y221581D01*
X349506Y221578D01*
X349506Y221578D01*
X349490Y221574D01*
X349490Y221574D01*
X349475Y221570D01*
X349475Y221570D01*
X349459Y221566D01*
X349459Y221566D01*
X349443Y221562D01*
X349443Y221562D01*
X349427Y221557D01*
X349427Y221557D01*
X349412Y221553D01*
X349412Y221552D01*
X349396Y221548D01*
X349396Y221548D01*
X349380Y221543D01*
X349380Y221543D01*
X349364Y221537D01*
X349364Y221537D01*
X349351Y221533D01*
X349351Y221533D01*
X349338Y221529D01*
X349338Y221529D01*
X349324Y221524D01*
X349324Y221524D01*
X349311Y221519D01*
X349311Y221519D01*
X349298Y221514D01*
X349298Y221514D01*
X349284Y221509D01*
X349284Y221509D01*
X349271Y221504D01*
X349271Y221504D01*
X349258Y221498D01*
X349258Y221498D01*
X349244Y221493D01*
X349244Y221493D01*
X349232Y221488D01*
X349218Y221482D01*
X349204Y221476D01*
X349191Y221470D01*
X349178Y221464D01*
X349164Y221458D01*
X349151Y221451D01*
X349137Y221445D01*
X349124Y221439D01*
X349111Y221432D01*
X349097Y221425D01*
X349084Y221418D01*
X349070Y221411D01*
X349057Y221404D01*
X349043Y221396D01*
X349030Y221389D01*
X349016Y221381D01*
X349005Y221375D01*
X348994Y221369D01*
X348984Y221363D01*
X348973Y221357D01*
X348962Y221350D01*
X348951Y221344D01*
X348940Y221337D01*
X348930Y221330D01*
X348919Y221323D01*
X348908Y221317D01*
X348897Y221310D01*
X348886Y221303D01*
X348875Y221296D01*
X348864Y221288D01*
X348853Y221281D01*
X348842Y221274D01*
X348832Y221267D01*
X348821Y221259D01*
X348810Y221252D01*
X348799Y221244D01*
X348788Y221236D01*
X348777Y221228D01*
X348766Y221220D01*
X348755Y221212D01*
X348744Y221204D01*
X348733Y221196D01*
X348722Y221188D01*
X348711Y221180D01*
X348700Y221171D01*
X348689Y221163D01*
X348678Y221154D01*
X348667Y221146D01*
X348656Y221137D01*
X348645Y221128D01*
X348634Y221119D01*
X348623Y221111D01*
X348612Y221101D01*
X348601Y221092D01*
X348590Y221083D01*
X348579Y221074D01*
X348568Y221065D01*
X345715Y218632D01*
X347926Y216038D01*
X350778Y218468D01*
X350791Y218479D01*
X350802Y218489D01*
X350813Y218498D01*
X350824Y218508D01*
X350834Y218517D01*
X350845Y218527D01*
X350855Y218536D01*
X350866Y218546D01*
X350876Y218555D01*
X350886Y218564D01*
X350896Y218574D01*
X350906Y218583D01*
X350916Y218593D01*
X350926Y218602D01*
X350936Y218612D01*
X350946Y218622D01*
X350956Y218631D01*
X350965Y218641D01*
X350975Y218650D01*
X350984Y218660D01*
X350993Y218669D01*
X351003Y218679D01*
X351012Y218689D01*
X351021Y218698D01*
X351030Y218708D01*
X351039Y218718D01*
X351048Y218727D01*
X351057Y218737D01*
X351065Y218746D01*
X351074Y218756D01*
X351082Y218766D01*
X351091Y218775D01*
X351099Y218785D01*
X351108Y218795D01*
X351116Y218805D01*
X351124Y218814D01*
X351134Y218826D01*
X351144Y218839D01*
X351154Y218851D01*
X351163Y218863D01*
X351173Y218875D01*
X351182Y218887D01*
X351192Y218899D01*
X351201Y218912D01*
X351210Y218924D01*
X351219Y218936D01*
X351228Y218948D01*
X351236Y218961D01*
X351245Y218973D01*
X351253Y218985D01*
X351262Y218998D01*
X351270Y219010D01*
X351278Y219022D01*
X351286Y219034D01*
X351293Y219047D01*
X351301Y219059D01*
X351309Y219071D01*
X351316Y219084D01*
X351324Y219096D01*
X351331Y219109D01*
X351338Y219121D01*
X351345Y219133D01*
X351351Y219146D01*
X351358Y219158D01*
X351366Y219173D01*
X351374Y219188D01*
X351381Y219203D01*
X351389Y219218D01*
X351396Y219233D01*
X351403Y219248D01*
X351409Y219263D01*
X351416Y219278D01*
X351422Y219293D01*
X351430Y219310D01*
X351437Y219328D01*
X351444Y219345D01*
X351450Y219363D01*
X351456Y219380D01*
X351463Y219400D01*
X351470Y219421D01*
X351476Y219441D01*
X351483Y219463D01*
X351489Y219486D01*
X351490Y219489D01*
X351492Y219495D01*
X351493Y219502D01*
X351495Y219508D01*
X351496Y219511D01*
X351497Y219514D01*
X351498Y219521D01*
X351500Y219528D01*
X351501Y219535D01*
X351502Y219539D01*
X351502Y219539D01*
X351502Y219539D01*
X351503Y219543D01*
X351505Y219550D01*
X351506Y219558D01*
X351508Y219565D01*
X351510Y219573D01*
X351511Y219582D01*
X351513Y219591D01*
X351515Y219600D01*
X351516Y219610D01*
X351518Y219620D01*
X351520Y219631D01*
X351522Y219642D01*
X351522Y219647D01*
X351523Y219655D01*
X351525Y219670D01*
X351527Y219685D01*
X351529Y219701D01*
X351533Y219736D01*
X351536Y219792D01*
X351536Y219848D01*
X351536Y219848D01*
X351535Y219903D01*
X351535Y219904D01*
X351533Y219931D01*
Y219931D01*
X351532Y219937D01*
Y219937D01*
X351531Y219948D01*
Y219948D01*
X351531Y219958D01*
Y219958D01*
X351530Y219969D01*
Y219969D01*
X351529Y219975D01*
Y219975D01*
X351529Y219979D01*
Y219979D01*
X351528Y219988D01*
Y219988D01*
X351526Y219997D01*
Y219997D01*
X351525Y220006D01*
Y220006D01*
X351525Y220010D01*
Y220010D01*
X351523Y220022D01*
X351522Y220029D01*
X351521Y220037D01*
X351520Y220044D01*
X351519Y220051D01*
X351518Y220058D01*
X351517Y220065D01*
X351514Y220078D01*
X351513Y220085D01*
X351512Y220091D01*
X351511Y220094D01*
X351511Y220094D01*
X351511Y220094D01*
X351507Y220117D01*
X351502Y220140D01*
X351496Y220163D01*
X351491Y220183D01*
X351486Y220203D01*
X351480Y220224D01*
X351475Y220241D01*
X351469Y220259D01*
X351464Y220277D01*
X351458Y220295D01*
X351452Y220312D01*
X351446Y220328D01*
X351441Y220343D01*
X351435Y220358D01*
X351429Y220373D01*
X351423Y220388D01*
X351416Y220404D01*
X351410Y220419D01*
X351403Y220434D01*
X351396Y220449D01*
X351389Y220464D01*
X351383Y220477D01*
X351377Y220490D01*
X351371Y220502D01*
X351371Y220502D01*
X351364Y220515D01*
X351364Y220515D01*
X351358Y220527D01*
X351358Y220528D01*
X351351Y220540D01*
X351351Y220540D01*
X351348Y220546D01*
X351345Y220553D01*
X351338Y220565D01*
X351331Y220578D01*
X351324Y220590D01*
X351317Y220603D01*
X351309Y220616D01*
X351302Y220628D01*
X351295Y220641D01*
X351287Y220653D01*
X351279Y220666D01*
X351271Y220678D01*
X351263Y220691D01*
X351255Y220704D01*
X351247Y220716D01*
X351239Y220729D01*
X351230Y220741D01*
X351222Y220754D01*
X351213Y220766D01*
X351204Y220779D01*
X351195Y220791D01*
X351186Y220804D01*
X351177Y220816D01*
X351168Y220829D01*
X351158Y220841D01*
X351149Y220854D01*
X351139Y220866D01*
X351130Y220879D01*
X351120Y220891D01*
X351110Y220903D01*
X351100Y220916D01*
X351089Y220928D01*
X351079Y220941D01*
X351069Y220953D01*
X351062Y220961D01*
X351052Y220973D01*
X351043Y220983D01*
X351035Y220992D01*
X351026Y221002D01*
X351018Y221012D01*
X351009Y221021D01*
X351001Y221030D01*
X350992Y221040D01*
X350984Y221049D01*
X350975Y221058D01*
X350966Y221067D01*
X350958Y221076D01*
X350949Y221085D01*
X350940Y221094D01*
X350929Y221105D01*
X350919Y221116D01*
X350908Y221127D01*
X350897Y221138D01*
X350886Y221148D01*
X350875Y221159D01*
X350864Y221169D01*
X350853Y221179D01*
X350842Y221189D01*
X350831Y221199D01*
X350820Y221209D01*
X350809Y221219D01*
X350797Y221229D01*
X350786Y221238D01*
X350775Y221247D01*
X350764Y221257D01*
X350752Y221266D01*
X350741Y221275D01*
X350730Y221284D01*
X350719Y221293D01*
X350707Y221301D01*
X350696Y221310D01*
X350685Y221318D01*
X350673Y221327D01*
X350662Y221335D01*
X350650Y221343D01*
X350639Y221351D01*
X350627Y221359D01*
X350616Y221367D01*
X350605Y221374D01*
X350593Y221382D01*
X350579Y221391D01*
X350565Y221399D01*
X350551Y221408D01*
X350537Y221416D01*
X350523Y221424D01*
X350509Y221432D01*
X350495Y221440D01*
X350481Y221448D01*
X350467Y221456D01*
X350450Y221464D01*
X350434Y221472D01*
X350417Y221480D01*
X350401Y221488D01*
X350384Y221496D01*
X350365Y221504D01*
X350346Y221513D01*
X350326Y221520D01*
X350305Y221529D01*
X350283Y221537D01*
X350280Y221538D01*
X350274Y221540D01*
X350268Y221542D01*
X350262Y221544D01*
X350259Y221545D01*
X350255Y221546D01*
X350249Y221549D01*
X350242Y221551D01*
X350236Y221553D01*
X350232Y221554D01*
X350229Y221555D01*
X350221Y221557D01*
X350214Y221560D01*
X350207Y221562D01*
X350199Y221564D01*
X350190Y221567D01*
X350182Y221569D01*
X350173Y221571D01*
X350164Y221574D01*
X350163Y221574D01*
X350163D01*
X350152Y221577D01*
X350152D01*
X350141Y221580D01*
X350141D01*
X350130Y221582D01*
X350130D01*
X350124Y221583D01*
X350124D01*
X350116Y221585D01*
X350116D01*
X350098Y221589D01*
X350098D01*
X350081Y221593D01*
X350081D01*
X350064Y221596D01*
X350064D01*
X350055Y221597D01*
X350055D01*
X350032Y221601D01*
X350032D01*
X349986Y221608D01*
X349986D01*
X349939Y221612D01*
X349939D01*
X349893Y221615D01*
X349892D01*
X349869Y221616D01*
X349869D01*
X349864Y221616D01*
X349864Y221616D01*
X349852Y221616D01*
X349852Y221616D01*
X349841Y221616D01*
X349841Y221616D01*
X349829Y221616D01*
D02*
G37*
G36*
X436299Y246068D02*
X433392Y241813D01*
X437107Y240985D01*
X436299Y246068D01*
D02*
G37*
G36*
X469902Y231824D02*
X469901Y231824D01*
X469895Y231824D01*
X469894Y231824D01*
X469887Y231824D01*
X469886Y231824D01*
X469873Y231824D01*
X469872Y231824D01*
X469859Y231823D01*
X469858Y231823D01*
X469844Y231823D01*
X469843Y231823D01*
X469837Y231823D01*
X469836Y231823D01*
X469830Y231823D01*
X469829Y231823D01*
X469817Y231823D01*
X469816Y231822D01*
X469804Y231822D01*
X469803Y231822D01*
X469790Y231822D01*
X469789Y231822D01*
X469777Y231821D01*
X469764Y231820D01*
X469750Y231820D01*
X469737Y231819D01*
X469732Y231819D01*
X469731Y231819D01*
Y231819D01*
X469724Y231818D01*
X469712Y231817D01*
X469700Y231816D01*
X469688Y231816D01*
X469682Y231815D01*
X469676Y231815D01*
X469664Y231814D01*
X469652Y231812D01*
X469639Y231811D01*
X469633Y231811D01*
X469590Y231806D01*
X469546Y231800D01*
X469502Y231794D01*
X469458Y231787D01*
X469414Y231780D01*
X469375Y231772D01*
X469336Y231764D01*
X469296Y231756D01*
X469257Y231747D01*
X469218Y231737D01*
X469179Y231727D01*
X469139Y231716D01*
X469100Y231705D01*
X469061Y231693D01*
X469022Y231681D01*
X468987Y231669D01*
X468953Y231658D01*
X468919Y231645D01*
X468884Y231633D01*
X468850Y231620D01*
X468816Y231606D01*
X468782Y231592D01*
X468747Y231578D01*
X468713Y231563D01*
X468679Y231548D01*
X468645Y231532D01*
X468610Y231516D01*
X468576Y231500D01*
X468542Y231483D01*
X468508Y231466D01*
X468474Y231448D01*
X468440Y231430D01*
X468406Y231411D01*
X468372Y231392D01*
X468339Y231373D01*
X468305Y231353D01*
X468271Y231333D01*
X468237Y231312D01*
X468204Y231291D01*
X468170Y231270D01*
X468137Y231247D01*
X468103Y231225D01*
X468070Y231203D01*
X468037Y231179D01*
X468004Y231156D01*
X467970Y231132D01*
X467937Y231107D01*
X467904Y231083D01*
X467872Y231057D01*
X467839Y231032D01*
X467806Y231006D01*
X467773Y230979D01*
X467741Y230952D01*
X467708Y230925D01*
X467676Y230897D01*
X467643Y230869D01*
X467611Y230841D01*
X467579Y230812D01*
X467547Y230782D01*
X467515Y230753D01*
X467484Y230723D01*
X467452Y230692D01*
X467420Y230661D01*
X467389Y230630D01*
X467358Y230598D01*
X467326Y230566D01*
X467296Y230533D01*
X467265Y230500D01*
X467234Y230467D01*
X467199Y230428D01*
X467164Y230389D01*
X467129Y230349D01*
X467095Y230309D01*
X467060Y230268D01*
X467026Y230227D01*
X466992Y230185D01*
X466958Y230143D01*
X466925Y230100D01*
X466891Y230057D01*
X466858Y230013D01*
X466825Y229969D01*
X466792Y229924D01*
X466760Y229878D01*
X466727Y229833D01*
X466695Y229786D01*
X466664Y229739D01*
X466632Y229692D01*
X466628Y229686D01*
X466593Y229632D01*
X466562Y229584D01*
X466532Y229537D01*
X466503Y229489D01*
X466474Y229441D01*
X466446Y229393D01*
X466418Y229345D01*
X466391Y229298D01*
X466364Y229250D01*
X466338Y229202D01*
X466312Y229154D01*
X466287Y229107D01*
X466263Y229059D01*
X466239Y229012D01*
X466215Y228964D01*
X466193Y228916D01*
X466173Y228875D01*
X466154Y228833D01*
X466135Y228792D01*
X466117Y228750D01*
X466099Y228709D01*
X466082Y228668D01*
X466065Y228626D01*
X466048Y228585D01*
X466032Y228544D01*
X466016Y228503D01*
X466001Y228462D01*
X465986Y228421D01*
X465972Y228380D01*
X465958Y228339D01*
X465944Y228298D01*
X465931Y228257D01*
X465918Y228217D01*
X465906Y228176D01*
X465894Y228135D01*
X465882Y228095D01*
X465871Y228055D01*
X465860Y228014D01*
X465850Y227974D01*
X465840Y227934D01*
X465830Y227894D01*
X465821Y227854D01*
X465812Y227814D01*
X465804Y227774D01*
X465796Y227735D01*
X465789Y227695D01*
X465782Y227656D01*
X465775Y227616D01*
X465769Y227577D01*
X465763Y227538D01*
X465758Y227499D01*
X465753Y227460D01*
X465748Y227421D01*
X465744Y227383D01*
X465740Y227344D01*
X465736Y227306D01*
X465733Y227268D01*
X465731Y227229D01*
X465729Y227191D01*
X465727Y227154D01*
X465725Y227116D01*
X465724Y227078D01*
X465724Y227041D01*
X465724Y227003D01*
X465724Y226999D01*
X465724Y226990D01*
X465724Y226980D01*
X465724Y226971D01*
X465724Y226966D01*
X465724Y226929D01*
X465725Y226892D01*
X465727Y226856D01*
X465729Y226819D01*
X465731Y226783D01*
X465733Y226747D01*
X465736Y226710D01*
X465740Y226675D01*
X465743Y226639D01*
X465748Y226598D01*
X465754Y226558D01*
X465759Y226517D01*
X465766Y226478D01*
X465772Y226438D01*
X465780Y226398D01*
X465788Y226359D01*
X465796Y226320D01*
X465805Y226281D01*
X465816Y226238D01*
X465827Y226195D01*
X465839Y226152D01*
X465851Y226110D01*
X465851Y226110D01*
X465853Y226104D01*
X465857Y226093D01*
X465861Y226081D01*
X465864Y226069D01*
X465868Y226058D01*
X465872Y226046D01*
X465876Y226034D01*
X465880Y226023D01*
X465884Y226011D01*
X465888Y226000D01*
X465892Y225989D01*
X465896Y225977D01*
X465896Y225977D01*
X465898Y225972D01*
X465898Y225971D01*
X465900Y225965D01*
X465900Y225965D01*
X465905Y225953D01*
X465905Y225953D01*
X465909Y225940D01*
X465909Y225940D01*
X465914Y225928D01*
X465914Y225928D01*
X465917Y225922D01*
X465917Y225922D01*
X465919Y225916D01*
X465919Y225915D01*
X465924Y225903D01*
X465924Y225903D01*
X465929Y225891D01*
X465929Y225891D01*
X465934Y225879D01*
X465934Y225878D01*
X465936Y225872D01*
X465937Y225872D01*
X465939Y225866D01*
X465939Y225866D01*
X465945Y225852D01*
X465945Y225852D01*
X465950Y225839D01*
X465950Y225839D01*
X465956Y225826D01*
X465956Y225826D01*
X465959Y225819D01*
X465959Y225819D01*
X465962Y225812D01*
X465962Y225812D01*
X465969Y225798D01*
X465969Y225798D01*
X465975Y225784D01*
X465975Y225783D01*
X465981Y225769D01*
X465982Y225769D01*
X465985Y225763D01*
X465985Y225762D01*
X465988Y225755D01*
X465988Y225755D01*
X465996Y225740D01*
X465996Y225740D01*
X466003Y225725D01*
X466003Y225725D01*
X466010Y225710D01*
X466011Y225709D01*
X466014Y225702D01*
X466014Y225702D01*
X466018Y225694D01*
X466018Y225694D01*
X466026Y225678D01*
X466026Y225678D01*
X466035Y225662D01*
X466035Y225662D01*
X466043Y225647D01*
X466043Y225646D01*
X466047Y225639D01*
X466047Y225638D01*
X466052Y225629D01*
X466053Y225628D01*
X466063Y225610D01*
X466063Y225609D01*
X466073Y225592D01*
X466075Y225589D01*
X466084Y225573D01*
X466089Y225564D01*
X466089Y225564D01*
X466096Y225553D01*
X466108Y225532D01*
X466109Y225530D01*
X466122Y225509D01*
X466123Y225508D01*
X466136Y225486D01*
X466137Y225486D01*
X466144Y225475D01*
X466144Y225475D01*
X466155Y225457D01*
X466155Y225457D01*
X466179Y225422D01*
X466179Y225421D01*
X466203Y225386D01*
X466204Y225386D01*
X466228Y225352D01*
X466229Y225351D01*
X466241Y225334D01*
X466242Y225334D01*
X466271Y225294D01*
X466272Y225294D01*
X466335Y225216D01*
X466335Y225216D01*
X466368Y225179D01*
X466402Y225141D01*
X466471Y225069D01*
X466508Y225034D01*
X466508Y225034D01*
X466517Y225026D01*
X466517Y225026D01*
X466536Y225008D01*
X466536Y225008D01*
X466554Y224991D01*
X466554Y224991D01*
X466573Y224974D01*
X466573Y224974D01*
X466583Y224966D01*
X466583Y224966D01*
X466590Y224959D01*
X466591Y224959D01*
X466606Y224946D01*
X466606Y224945D01*
X466622Y224932D01*
X466622Y224932D01*
X466638Y224919D01*
X466638Y224919D01*
X466646Y224912D01*
X466646Y224912D01*
X466652Y224907D01*
X466653Y224907D01*
X466666Y224896D01*
X466666Y224896D01*
X466679Y224886D01*
X466679Y224886D01*
X466693Y224875D01*
X466693Y224875D01*
X466699Y224870D01*
X466700Y224870D01*
X466706Y224865D01*
X466706Y224865D01*
X466718Y224855D01*
X466719Y224855D01*
X466731Y224846D01*
X466732Y224845D01*
X466744Y224836D01*
X466744Y224836D01*
X466750Y224831D01*
X466751Y224831D01*
X466756Y224827D01*
X466757Y224827D01*
X466769Y224818D01*
X466769Y224818D01*
X466781Y224810D01*
X466781Y224809D01*
X466793Y224801D01*
X466793Y224801D01*
X466804Y224793D01*
X466805Y224792D01*
X466816Y224785D01*
X466817Y224784D01*
X466827Y224777D01*
X466828Y224776D01*
X466838Y224770D01*
X466840Y224768D01*
X466844Y224766D01*
X466856Y224758D01*
Y224758D01*
X466862Y224754D01*
X466870Y224748D01*
X466874Y224746D01*
X466884Y224740D01*
X466886Y224739D01*
X466896Y224732D01*
X466897Y224731D01*
X466903Y224728D01*
X466903Y224727D01*
X466909Y224724D01*
X466909Y224724D01*
X466920Y224717D01*
X466921Y224716D01*
X466932Y224709D01*
X466933Y224709D01*
X466944Y224702D01*
X466945Y224702D01*
X466950Y224698D01*
X466951Y224698D01*
X466957Y224695D01*
X466957Y224694D01*
X466970Y224687D01*
X466970Y224687D01*
X466983Y224679D01*
X466983Y224679D01*
X466996Y224672D01*
X466996Y224672D01*
X467002Y224668D01*
X467003Y224668D01*
X467009Y224664D01*
X467010Y224664D01*
X467024Y224656D01*
X467024Y224656D01*
X467038Y224648D01*
X467038Y224648D01*
X467052Y224640D01*
X467052Y224640D01*
X467059Y224637D01*
X467059Y224637D01*
X467067Y224633D01*
X467067Y224632D01*
X467082Y224624D01*
X467082Y224624D01*
X467098Y224616D01*
X467098Y224616D01*
X467113Y224608D01*
X467113Y224608D01*
X467121Y224605D01*
X467121Y224605D01*
X467130Y224600D01*
X467130Y224600D01*
X467147Y224591D01*
X467148Y224591D01*
X467165Y224583D01*
X467165Y224583D01*
X467183Y224574D01*
X467183Y224574D01*
X467192Y224570D01*
X467192Y224570D01*
X467204Y224565D01*
X467204Y224565D01*
X467227Y224554D01*
X467227Y224554D01*
X467251Y224544D01*
X467251Y224544D01*
X467275Y224534D01*
X467305Y224521D01*
X467342Y224507D01*
X467380Y224492D01*
X467418Y224479D01*
X467437Y224472D01*
X467489Y224455D01*
X467594Y224424D01*
X467701Y224399D01*
X467808Y224378D01*
X467876Y224368D01*
X467902Y224364D01*
X467928Y224361D01*
X467954Y224358D01*
X467978Y224355D01*
X468000Y224353D01*
X468022Y224351D01*
X468043Y224349D01*
X468063Y224348D01*
X468081Y224347D01*
X468099Y224346D01*
X468117Y224345D01*
X468126Y224344D01*
X468135Y224344D01*
X468152Y224344D01*
X468169Y224343D01*
X468186Y224343D01*
X468194Y224343D01*
X468202Y224342D01*
X468218Y224342D01*
X468234Y224342D01*
X468249Y224342D01*
X468250Y224342D01*
X468257Y224342D01*
X468258Y224342D01*
X468265Y224342D01*
X468265Y224342D01*
X468279Y224343D01*
X468280Y224343D01*
X468294Y224343D01*
X468295Y224343D01*
X468308Y224343D01*
X468309Y224343D01*
X468316Y224343D01*
X468317Y224344D01*
X468323Y224344D01*
X468324Y224344D01*
X468336Y224344D01*
X468338Y224344D01*
X468349Y224345D01*
X468353Y224345D01*
X468363Y224345D01*
X468369Y224346D01*
X468369Y224346D01*
X468376Y224346D01*
X468385Y224347D01*
X468390Y224347D01*
X468401Y224347D01*
X468403Y224348D01*
X468415Y224348D01*
X468417Y224349D01*
X468423Y224349D01*
X468423Y224349D01*
X468428Y224349D01*
X468429Y224349D01*
X468441Y224350D01*
X468442Y224350D01*
X468453Y224351D01*
X468454Y224351D01*
X468466Y224352D01*
X468466Y224353D01*
X468472Y224353D01*
X468472Y224353D01*
X468478Y224354D01*
X468478Y224354D01*
X468490Y224355D01*
X468491Y224355D01*
X468502Y224356D01*
X468503Y224356D01*
X468515Y224357D01*
X468515Y224357D01*
X468521Y224358D01*
X468521Y224358D01*
X468527Y224359D01*
X468527Y224359D01*
X468539Y224360D01*
X468540Y224360D01*
X468552Y224361D01*
X468552Y224361D01*
X468564Y224363D01*
X468564Y224363D01*
X468570Y224364D01*
X468570Y224364D01*
X468614Y224370D01*
X468615Y224370D01*
X468659Y224376D01*
X468659Y224376D01*
X468703Y224384D01*
X468703Y224384D01*
X468747Y224392D01*
X468748Y224392D01*
X468792Y224401D01*
X468792Y224401D01*
X468831Y224409D01*
X468831Y224409D01*
X468842Y224412D01*
X468871Y224418D01*
X468910Y224428D01*
X468950Y224438D01*
X468989Y224449D01*
X469029Y224460D01*
X469068Y224472D01*
X469108Y224484D01*
X469147Y224497D01*
X469187Y224511D01*
X469221Y224523D01*
X469256Y224536D01*
X469290Y224549D01*
X469325Y224563D01*
X469359Y224576D01*
X469393Y224591D01*
X469428Y224606D01*
X469462Y224621D01*
X469496Y224637D01*
X469531Y224653D01*
X469565Y224670D01*
X469599Y224687D01*
X469633Y224704D01*
X469667Y224722D01*
X469701Y224740D01*
X469735Y224759D01*
X469769Y224778D01*
X469803Y224797D01*
X469837Y224817D01*
X469871Y224837D01*
X469905Y224858D01*
X469938Y224879D01*
X469972Y224901D01*
X470006Y224923D01*
X470039Y224945D01*
X470072Y224968D01*
X470106Y224991D01*
X470139Y225015D01*
X470172Y225039D01*
X470205Y225064D01*
X470238Y225089D01*
X470271Y225114D01*
X470304Y225139D01*
X470337Y225166D01*
X470369Y225192D01*
X470402Y225219D01*
X470434Y225246D01*
X470467Y225274D01*
X470499Y225302D01*
X470531Y225331D01*
X470563Y225360D01*
X470595Y225389D01*
X470627Y225419D01*
X470658Y225449D01*
X470690Y225480D01*
X470722Y225511D01*
X470757Y225546D01*
X470793Y225583D01*
X470828Y225620D01*
X470864Y225657D01*
X470899Y225695D01*
X470934Y225733D01*
X470969Y225773D01*
X471003Y225812D01*
X471038Y225852D01*
X471072Y225893D01*
X471106Y225934D01*
X471140Y225975D01*
X471173Y226017D01*
X471207Y226060D01*
X471240Y226103D01*
X471273Y226147D01*
X471306Y226191D01*
X471339Y226235D01*
X471371Y226280D01*
X471403Y226326D01*
X471435Y226372D01*
X471467Y226419D01*
X471498Y226466D01*
X471502Y226472D01*
X471537Y226525D01*
X471567Y226573D01*
X471597Y226620D01*
X471626Y226668D01*
X471655Y226715D01*
X471683Y226763D01*
X471711Y226811D01*
X471738Y226858D01*
X471765Y226905D01*
X471791Y226953D01*
X471816Y227000D01*
X471841Y227048D01*
X471865Y227095D01*
X471889Y227143D01*
X471912Y227190D01*
X471935Y227238D01*
X471957Y227285D01*
X471979Y227332D01*
X472000Y227379D01*
X472020Y227427D01*
X472040Y227474D01*
X472057Y227515D01*
X472074Y227556D01*
X472090Y227597D01*
X472106Y227638D01*
X472121Y227679D01*
X472136Y227720D01*
X472151Y227761D01*
X472165Y227802D01*
X472178Y227843D01*
X472192Y227884D01*
X472204Y227924D01*
X472217Y227965D01*
X472229Y228006D01*
X472241Y228046D01*
X472252Y228086D01*
X472263Y228127D01*
X472273Y228167D01*
X472283Y228207D01*
X472293Y228247D01*
X472302Y228287D01*
X472310Y228327D01*
X472319Y228367D01*
X472327Y228407D01*
X472334Y228446D01*
X472341Y228486D01*
X472348Y228525D01*
X472355Y228564D01*
X472360Y228604D01*
X472366Y228643D01*
X472371Y228682D01*
X472376Y228721D01*
X472380Y228759D01*
X472384Y228798D01*
X472387Y228837D01*
X472390Y228875D01*
X472393Y228913D01*
X472395Y228951D01*
X472397Y228989D01*
X472399Y229027D01*
X472400Y229065D01*
X472400Y229103D01*
X472401Y229140D01*
X472400Y229178D01*
X472400Y229215D01*
X472399Y229252D01*
X472398Y229289D01*
X472396Y229326D01*
X472394Y229362D01*
X472391Y229398D01*
X472388Y229435D01*
X472384Y229476D01*
X472380Y229517D01*
X472375Y229558D01*
X472369Y229599D01*
X472369Y229599D01*
X472364Y229639D01*
X472364Y229639D01*
X472357Y229679D01*
X472357Y229679D01*
X472350Y229719D01*
X472350Y229719D01*
X472343Y229759D01*
X472342Y229759D01*
X472335Y229798D01*
X472334Y229799D01*
X472325Y229843D01*
X472325Y229843D01*
X472315Y229886D01*
X472315Y229887D01*
X472304Y229930D01*
X472303Y229931D01*
X472292Y229973D01*
X472280Y230016D01*
X472276Y230029D01*
X472274Y230034D01*
X472272Y230043D01*
X472271Y230046D01*
X472268Y230056D01*
X472267Y230057D01*
X472266Y230062D01*
X472265Y230063D01*
X472264Y230068D01*
X472264Y230069D01*
X472260Y230080D01*
X472260Y230081D01*
X472256Y230092D01*
X472256Y230093D01*
X472252Y230104D01*
X472252Y230104D01*
X472251Y230110D01*
X472250Y230110D01*
X472249Y230115D01*
X472248Y230116D01*
X472245Y230127D01*
X472244Y230127D01*
X472240Y230139D01*
X472240Y230139D01*
X472236Y230150D01*
X472236Y230151D01*
X472234Y230156D01*
X472234Y230156D01*
X472232Y230162D01*
X472232Y230163D01*
X472228Y230175D01*
X472227Y230175D01*
X472223Y230188D01*
X472223Y230188D01*
X472218Y230200D01*
X472218Y230201D01*
X472216Y230207D01*
X472216Y230207D01*
X472214Y230213D01*
X472214Y230213D01*
X472209Y230225D01*
X472209Y230226D01*
X472204Y230238D01*
X472204Y230238D01*
X472199Y230251D01*
X472199Y230251D01*
X472196Y230257D01*
X472196Y230257D01*
X472194Y230263D01*
X472194Y230264D01*
X472188Y230277D01*
X472188Y230277D01*
X472183Y230291D01*
X472183Y230291D01*
X472177Y230304D01*
X472177Y230304D01*
X472174Y230311D01*
X472174Y230311D01*
X472171Y230318D01*
X472171Y230318D01*
X472165Y230332D01*
X472165Y230333D01*
X472158Y230347D01*
X472158Y230347D01*
X472152Y230361D01*
X472152Y230362D01*
X472149Y230368D01*
X472149Y230369D01*
X472145Y230376D01*
X472145Y230376D01*
X472138Y230392D01*
X472138Y230392D01*
X472131Y230407D01*
X472131Y230407D01*
X472123Y230422D01*
X472123Y230422D01*
X472120Y230430D01*
X472120Y230430D01*
X472115Y230438D01*
X472115Y230439D01*
X472107Y230456D01*
X472098Y230473D01*
X472089Y230490D01*
X472080Y230508D01*
X472069Y230527D01*
X472059Y230546D01*
X472048Y230566D01*
X472036Y230587D01*
X472022Y230611D01*
X472008Y230634D01*
X471993Y230658D01*
X471986Y230670D01*
X471972Y230692D01*
X471942Y230736D01*
X471912Y230780D01*
X471881Y230822D01*
X471840Y230877D01*
X471787Y230942D01*
X471732Y231004D01*
X471675Y231065D01*
X471636Y231104D01*
X471616Y231123D01*
X471597Y231142D01*
X471578Y231159D01*
X471577Y231160D01*
X471577Y231160D01*
X471567Y231169D01*
X471567Y231169D01*
X471559Y231176D01*
X471559Y231176D01*
X471544Y231190D01*
X471544Y231190D01*
X471528Y231204D01*
X471528Y231204D01*
X471513Y231218D01*
X471512Y231218D01*
X471504Y231225D01*
X471504Y231225D01*
X471497Y231231D01*
X471497Y231231D01*
X471483Y231243D01*
X471483Y231243D01*
X471469Y231255D01*
X471469Y231255D01*
X471454Y231266D01*
X471454Y231266D01*
X471447Y231272D01*
X471447Y231272D01*
X471441Y231277D01*
X471441Y231277D01*
X471428Y231287D01*
X471428Y231287D01*
X471416Y231297D01*
X471415Y231297D01*
X471403Y231307D01*
X471403Y231307D01*
X471396Y231312D01*
X471396Y231312D01*
X471390Y231317D01*
X471390Y231317D01*
X471378Y231326D01*
X471378Y231326D01*
X471366Y231335D01*
X471366Y231335D01*
X471354Y231344D01*
X471354Y231344D01*
X471348Y231348D01*
X471348Y231348D01*
X471343Y231352D01*
X471342Y231352D01*
X471331Y231360D01*
X471331Y231360D01*
X471320Y231368D01*
X471320Y231368D01*
X471309Y231376D01*
X471308Y231377D01*
X471303Y231380D01*
X471303Y231380D01*
X471298Y231384D01*
X471297Y231384D01*
X471287Y231391D01*
X471287Y231391D01*
X471277Y231398D01*
X471276Y231398D01*
X471267Y231405D01*
X471266Y231405D01*
X471261Y231409D01*
X471260Y231409D01*
X471249Y231417D01*
X471247Y231418D01*
X471242Y231421D01*
X471241Y231422D01*
X471230Y231429D01*
X471228Y231430D01*
X471217Y231437D01*
X471214Y231439D01*
X471205Y231445D01*
X471198Y231450D01*
X471198Y231450D01*
X471192Y231453D01*
X471181Y231460D01*
X471169Y231467D01*
X471157Y231474D01*
X471145Y231482D01*
X471132Y231489D01*
X471120Y231497D01*
X471107Y231504D01*
X471104Y231506D01*
X471093Y231512D01*
X471078Y231520D01*
X471063Y231528D01*
X471048Y231537D01*
X471044Y231539D01*
X471032Y231545D01*
X471014Y231554D01*
X470997Y231563D01*
X470979Y231572D01*
X470971Y231576D01*
Y231576D01*
X470960Y231581D01*
X470942Y231590D01*
X470940Y231591D01*
X470920Y231600D01*
X470919Y231601D01*
X470898Y231610D01*
X470898Y231610D01*
X470888Y231615D01*
X470887Y231615D01*
X470872Y231622D01*
X470872Y231622D01*
X470841Y231635D01*
X470841Y231635D01*
X470810Y231648D01*
X470810Y231648D01*
X470779Y231660D01*
X470779Y231660D01*
X470763Y231666D01*
X470763Y231666D01*
X470703Y231689D01*
X470703Y231689D01*
X470582Y231728D01*
X470582Y231728D01*
X470538Y231739D01*
X470459Y231760D01*
X470334Y231786D01*
X470258Y231797D01*
X470234Y231801D01*
X470218Y231803D01*
X470209Y231804D01*
X470209Y231804D01*
X470184Y231807D01*
X470184Y231807D01*
X470172Y231809D01*
X470171Y231809D01*
X470162Y231810D01*
X470161Y231810D01*
X470141Y231812D01*
X470141Y231812D01*
X470121Y231814D01*
X470121D01*
X470101Y231815D01*
X470101D01*
X470091Y231816D01*
X470090D01*
X470082Y231817D01*
X470082D01*
X470064Y231818D01*
X470064D01*
X470046Y231819D01*
X470046D01*
X470028Y231820D01*
X470028D01*
X470019Y231821D01*
X470019D01*
X470011Y231821D01*
X470011Y231821D01*
X469994Y231822D01*
X469994Y231822D01*
X469978Y231822D01*
X469977Y231822D01*
X469961Y231823D01*
X469960Y231823D01*
X469952Y231823D01*
X469952Y231823D01*
X469945Y231823D01*
X469944Y231823D01*
X469931Y231823D01*
X469930Y231823D01*
X469916Y231824D01*
X469915Y231824D01*
X469902Y231824D01*
D02*
G37*
%LPD*%
M02*
