G04*
G04 #@! TF.GenerationSoftware,Altium Limited,Altium Designer,21.8.1 (53)*
G04*
G04 Layer_Color=32896*
%FSLAX25Y25*%
%MOIN*%
G70*
G04*
G04 #@! TF.SameCoordinates,EB8F0981-F331-4B65-8FC5-092454EF7568*
G04*
G04*
G04 #@! TF.FilePolarity,Positive*
G04*
G01*
G75*
G36*
X404166Y54763D02*
X403106D01*
X402515Y55638D01*
X401947Y54763D01*
X400887D01*
X402056Y56206D01*
X403051D01*
X404166Y54763D01*
D02*
G37*
G36*
X445744Y54916D02*
X445492Y53484D01*
X444924D01*
X444683Y54916D01*
Y56162D01*
X445744D01*
Y54916D01*
D02*
G37*
G36*
X444028D02*
X443776Y53484D01*
X443219D01*
X442967Y54916D01*
Y56162D01*
X444028D01*
Y54916D01*
D02*
G37*
G36*
X382033D02*
X381781Y53484D01*
X381213D01*
X380972Y54916D01*
Y56162D01*
X382033D01*
Y54916D01*
D02*
G37*
G36*
X380317D02*
X380065Y53484D01*
X379508D01*
X379256Y54916D01*
Y56162D01*
X380317D01*
Y54916D01*
D02*
G37*
G36*
X426179Y48599D02*
X425294D01*
X423206Y54085D01*
X424168D01*
X425381Y50730D01*
X425457Y50511D01*
X425534Y50315D01*
X425589Y50129D01*
X425643Y49987D01*
X425676Y49856D01*
X425709Y49768D01*
X425720Y49713D01*
X425731Y49692D01*
X425796Y49899D01*
X425851Y50107D01*
X425917Y50293D01*
X425971Y50457D01*
X426015Y50599D01*
X426048Y50708D01*
X426059Y50741D01*
X426070Y50774D01*
X426081Y50785D01*
Y50796D01*
X427261Y54085D01*
X428245D01*
X426179Y48599D01*
D02*
G37*
G36*
X420342Y54195D02*
X420539Y54173D01*
X420725Y54140D01*
X420900Y54085D01*
X421064Y54031D01*
X421217Y53965D01*
X421359Y53900D01*
X421479Y53823D01*
X421599Y53758D01*
X421698Y53681D01*
X421785Y53615D01*
X421851Y53561D01*
X421905Y53506D01*
X421949Y53473D01*
X421971Y53452D01*
X421982Y53440D01*
X422102Y53288D01*
X422211Y53124D01*
X422310Y52960D01*
X422397Y52785D01*
X422463Y52599D01*
X422517Y52424D01*
X422605Y52074D01*
X422638Y51921D01*
X422659Y51768D01*
X422670Y51637D01*
X422681Y51517D01*
X422692Y51419D01*
Y51353D01*
Y51298D01*
Y51287D01*
X422681Y51047D01*
X422659Y50817D01*
X422627Y50599D01*
X422583Y50402D01*
X422528Y50216D01*
X422474Y50041D01*
X422408Y49888D01*
X422342Y49746D01*
X422277Y49626D01*
X422211Y49517D01*
X422157Y49429D01*
X422102Y49353D01*
X422058Y49287D01*
X422025Y49243D01*
X422004Y49222D01*
X421993Y49211D01*
X421851Y49079D01*
X421708Y48970D01*
X421556Y48872D01*
X421392Y48784D01*
X421239Y48719D01*
X421075Y48653D01*
X420768Y48566D01*
X420626Y48544D01*
X420495Y48522D01*
X420375Y48500D01*
X420277Y48489D01*
X420200Y48478D01*
X420080D01*
X419741Y48500D01*
X419435Y48555D01*
X419162Y48620D01*
X419053Y48664D01*
X418943Y48708D01*
X418845Y48752D01*
X418757Y48795D01*
X418692Y48828D01*
X418626Y48861D01*
X418582Y48894D01*
X418550Y48915D01*
X418528Y48937D01*
X418517D01*
X418298Y49134D01*
X418123Y49342D01*
X417971Y49560D01*
X417861Y49768D01*
X417774Y49954D01*
X417741Y50041D01*
X417708Y50107D01*
X417686Y50173D01*
X417675Y50216D01*
X417664Y50238D01*
Y50249D01*
X418626Y50369D01*
X418714Y50161D01*
X418812Y49987D01*
X418910Y49834D01*
X418998Y49713D01*
X419074Y49626D01*
X419140Y49560D01*
X419195Y49517D01*
X419206Y49506D01*
X419348Y49418D01*
X419490Y49353D01*
X419643Y49309D01*
X419774Y49276D01*
X419894Y49254D01*
X419992Y49243D01*
X420080D01*
X420211Y49254D01*
X420331Y49265D01*
X420550Y49320D01*
X420747Y49396D01*
X420922Y49484D01*
X421053Y49560D01*
X421151Y49637D01*
X421217Y49692D01*
X421228Y49713D01*
X421239D01*
X421392Y49910D01*
X421512Y50129D01*
X421599Y50369D01*
X421665Y50588D01*
X421698Y50785D01*
X421719Y50872D01*
X421730Y50949D01*
Y51014D01*
X421741Y51058D01*
Y51091D01*
Y51101D01*
X417643D01*
X417632Y51211D01*
Y51287D01*
Y51331D01*
Y51342D01*
X417643Y51593D01*
X417664Y51823D01*
X417697Y52042D01*
X417741Y52249D01*
X417796Y52435D01*
X417850Y52610D01*
X417916Y52763D01*
X417981Y52905D01*
X418047Y53036D01*
X418113Y53145D01*
X418167Y53233D01*
X418222Y53309D01*
X418266Y53375D01*
X418298Y53419D01*
X418320Y53440D01*
X418331Y53452D01*
X418462Y53583D01*
X418604Y53703D01*
X418757Y53801D01*
X418910Y53889D01*
X419064Y53965D01*
X419206Y54020D01*
X419359Y54075D01*
X419490Y54107D01*
X419632Y54140D01*
X419752Y54162D01*
X419861Y54184D01*
X419949Y54195D01*
X420025Y54206D01*
X420135D01*
X420342Y54195D01*
D02*
G37*
G36*
X411598D02*
X411839Y54151D01*
X412068Y54096D01*
X412254Y54042D01*
X412418Y53976D01*
X412484Y53943D01*
X412538Y53922D01*
X412582Y53900D01*
X412615Y53878D01*
X412637Y53867D01*
X412647D01*
X412855Y53736D01*
X413041Y53572D01*
X413194Y53408D01*
X413325Y53244D01*
X413424Y53102D01*
X413489Y52982D01*
X413511Y52938D01*
X413533Y52905D01*
X413544Y52883D01*
Y52872D01*
X413642Y52610D01*
X413708Y52348D01*
X413762Y52085D01*
X413795Y51845D01*
X413806Y51736D01*
X413817Y51637D01*
Y51550D01*
X413828Y51473D01*
Y51408D01*
Y51364D01*
Y51331D01*
Y51320D01*
X413817Y51069D01*
X413795Y50839D01*
X413762Y50610D01*
X413719Y50413D01*
X413675Y50216D01*
X413609Y50052D01*
X413555Y49888D01*
X413489Y49746D01*
X413424Y49626D01*
X413369Y49517D01*
X413303Y49418D01*
X413260Y49342D01*
X413216Y49287D01*
X413183Y49243D01*
X413161Y49222D01*
X413150Y49211D01*
X413019Y49079D01*
X412877Y48970D01*
X412735Y48872D01*
X412582Y48784D01*
X412429Y48719D01*
X412287Y48653D01*
X411992Y48566D01*
X411861Y48544D01*
X411740Y48522D01*
X411631Y48500D01*
X411533Y48489D01*
X411456Y48478D01*
X411347D01*
X411183Y48489D01*
X411019Y48500D01*
X410735Y48566D01*
X410472Y48642D01*
X410254Y48741D01*
X410166Y48795D01*
X410079Y48839D01*
X410003Y48883D01*
X409948Y48926D01*
X409904Y48959D01*
X409871Y48981D01*
X409850Y48992D01*
X409838Y49003D01*
X409729Y49112D01*
X409631Y49222D01*
X409456Y49462D01*
X409314Y49713D01*
X409215Y49943D01*
X409139Y50161D01*
X409117Y50249D01*
X409095Y50336D01*
X409084Y50402D01*
X409073Y50446D01*
X409062Y50479D01*
Y50489D01*
X409981Y50610D01*
X410024Y50369D01*
X410090Y50151D01*
X410177Y49976D01*
X410254Y49834D01*
X410330Y49713D01*
X410396Y49637D01*
X410429Y49582D01*
X410451Y49571D01*
X410593Y49462D01*
X410746Y49385D01*
X410899Y49320D01*
X411041Y49287D01*
X411161Y49265D01*
X411270Y49254D01*
X411336Y49243D01*
X411358D01*
X411478Y49254D01*
X411598Y49265D01*
X411817Y49320D01*
X412003Y49396D01*
X412167Y49495D01*
X412287Y49582D01*
X412385Y49659D01*
X412440Y49713D01*
X412462Y49735D01*
X412538Y49834D01*
X412604Y49954D01*
X412702Y50194D01*
X412779Y50468D01*
X412822Y50730D01*
X412855Y50970D01*
X412866Y51069D01*
Y51167D01*
X412877Y51233D01*
Y51298D01*
Y51331D01*
Y51342D01*
Y51539D01*
X412855Y51724D01*
X412833Y51899D01*
X412812Y52052D01*
X412779Y52194D01*
X412735Y52326D01*
X412702Y52446D01*
X412659Y52555D01*
X412615Y52643D01*
X412582Y52719D01*
X412538Y52785D01*
X412505Y52839D01*
X412484Y52883D01*
X412462Y52916D01*
X412440Y52927D01*
Y52938D01*
X412352Y53025D01*
X412265Y53102D01*
X412079Y53233D01*
X411882Y53320D01*
X411708Y53375D01*
X411544Y53419D01*
X411423Y53430D01*
X411369Y53440D01*
X411303D01*
X411139Y53430D01*
X410986Y53397D01*
X410855Y53353D01*
X410735Y53298D01*
X410647Y53244D01*
X410571Y53200D01*
X410527Y53167D01*
X410516Y53156D01*
X410407Y53047D01*
X410309Y52916D01*
X410221Y52774D01*
X410166Y52643D01*
X410112Y52522D01*
X410079Y52424D01*
X410068Y52359D01*
X410057Y52348D01*
Y52337D01*
X409150Y52479D01*
X409227Y52774D01*
X409336Y53025D01*
X409456Y53244D01*
X409576Y53419D01*
X409696Y53561D01*
X409795Y53659D01*
X409860Y53725D01*
X409871Y53747D01*
X409882D01*
X410112Y53900D01*
X410352Y54009D01*
X410593Y54096D01*
X410822Y54151D01*
X411030Y54184D01*
X411117Y54195D01*
X411183D01*
X411248Y54206D01*
X411336D01*
X411598Y54195D01*
D02*
G37*
G36*
X402712D02*
X402909Y54173D01*
X403095Y54140D01*
X403270Y54085D01*
X403434Y54031D01*
X403587Y53965D01*
X403729Y53900D01*
X403849Y53823D01*
X403969Y53758D01*
X404068Y53681D01*
X404155Y53615D01*
X404220Y53561D01*
X404275Y53506D01*
X404319Y53473D01*
X404341Y53452D01*
X404352Y53440D01*
X404472Y53288D01*
X404581Y53124D01*
X404680Y52960D01*
X404767Y52785D01*
X404833Y52599D01*
X404887Y52424D01*
X404975Y52074D01*
X405008Y51921D01*
X405029Y51768D01*
X405040Y51637D01*
X405051Y51517D01*
X405062Y51419D01*
Y51353D01*
Y51298D01*
Y51287D01*
X405051Y51047D01*
X405029Y50817D01*
X404996Y50599D01*
X404953Y50402D01*
X404898Y50216D01*
X404844Y50041D01*
X404778Y49888D01*
X404712Y49746D01*
X404647Y49626D01*
X404581Y49517D01*
X404527Y49429D01*
X404472Y49353D01*
X404428Y49287D01*
X404395Y49243D01*
X404374Y49222D01*
X404363Y49211D01*
X404220Y49079D01*
X404078Y48970D01*
X403925Y48872D01*
X403761Y48784D01*
X403608Y48719D01*
X403444Y48653D01*
X403138Y48566D01*
X402996Y48544D01*
X402865Y48522D01*
X402745Y48500D01*
X402647Y48489D01*
X402570Y48478D01*
X402450D01*
X402111Y48500D01*
X401805Y48555D01*
X401532Y48620D01*
X401422Y48664D01*
X401313Y48708D01*
X401215Y48752D01*
X401127Y48795D01*
X401062Y48828D01*
X400996Y48861D01*
X400952Y48894D01*
X400920Y48915D01*
X400898Y48937D01*
X400887D01*
X400668Y49134D01*
X400493Y49342D01*
X400340Y49560D01*
X400231Y49768D01*
X400144Y49954D01*
X400111Y50041D01*
X400078Y50107D01*
X400056Y50173D01*
X400045Y50216D01*
X400034Y50238D01*
Y50249D01*
X400996Y50369D01*
X401084Y50161D01*
X401182Y49987D01*
X401280Y49834D01*
X401368Y49713D01*
X401444Y49626D01*
X401510Y49560D01*
X401565Y49517D01*
X401576Y49506D01*
X401718Y49418D01*
X401860Y49353D01*
X402013Y49309D01*
X402144Y49276D01*
X402264Y49254D01*
X402362Y49243D01*
X402450D01*
X402581Y49254D01*
X402701Y49265D01*
X402920Y49320D01*
X403117Y49396D01*
X403292Y49484D01*
X403423Y49560D01*
X403521Y49637D01*
X403587Y49692D01*
X403597Y49713D01*
X403608D01*
X403761Y49910D01*
X403882Y50129D01*
X403969Y50369D01*
X404035Y50588D01*
X404068Y50785D01*
X404089Y50872D01*
X404100Y50949D01*
Y51014D01*
X404111Y51058D01*
Y51091D01*
Y51101D01*
X400012D01*
X400001Y51211D01*
Y51287D01*
Y51331D01*
Y51342D01*
X400012Y51593D01*
X400034Y51823D01*
X400067Y52042D01*
X400111Y52249D01*
X400166Y52435D01*
X400220Y52610D01*
X400286Y52763D01*
X400351Y52905D01*
X400417Y53036D01*
X400483Y53145D01*
X400537Y53233D01*
X400592Y53309D01*
X400635Y53375D01*
X400668Y53419D01*
X400690Y53440D01*
X400701Y53452D01*
X400832Y53583D01*
X400974Y53703D01*
X401127Y53801D01*
X401280Y53889D01*
X401433Y53965D01*
X401576Y54020D01*
X401728Y54075D01*
X401860Y54107D01*
X402002Y54140D01*
X402122Y54162D01*
X402231Y54184D01*
X402319Y54195D01*
X402395Y54206D01*
X402504D01*
X402712Y54195D01*
D02*
G37*
G36*
X390951D02*
X391148Y54173D01*
X391334Y54140D01*
X391509Y54085D01*
X391673Y54031D01*
X391826Y53965D01*
X391968Y53900D01*
X392088Y53823D01*
X392208Y53758D01*
X392307Y53681D01*
X392394Y53615D01*
X392460Y53561D01*
X392514Y53506D01*
X392558Y53473D01*
X392580Y53452D01*
X392591Y53440D01*
X392711Y53288D01*
X392821Y53124D01*
X392919Y52960D01*
X393006Y52785D01*
X393072Y52599D01*
X393127Y52424D01*
X393214Y52074D01*
X393247Y51921D01*
X393269Y51768D01*
X393280Y51637D01*
X393290Y51517D01*
X393302Y51419D01*
Y51353D01*
Y51298D01*
Y51287D01*
X393290Y51047D01*
X393269Y50817D01*
X393236Y50599D01*
X393192Y50402D01*
X393138Y50216D01*
X393083Y50041D01*
X393017Y49888D01*
X392952Y49746D01*
X392886Y49626D01*
X392821Y49517D01*
X392766Y49429D01*
X392711Y49353D01*
X392668Y49287D01*
X392635Y49243D01*
X392613Y49222D01*
X392602Y49211D01*
X392460Y49079D01*
X392318Y48970D01*
X392165Y48872D01*
X392001Y48784D01*
X391848Y48719D01*
X391684Y48653D01*
X391378Y48566D01*
X391236Y48544D01*
X391105Y48522D01*
X390984Y48500D01*
X390886Y48489D01*
X390809Y48478D01*
X390689D01*
X390350Y48500D01*
X390044Y48555D01*
X389771Y48620D01*
X389662Y48664D01*
X389552Y48708D01*
X389454Y48752D01*
X389367Y48795D01*
X389301Y48828D01*
X389235Y48861D01*
X389192Y48894D01*
X389159Y48915D01*
X389137Y48937D01*
X389126D01*
X388908Y49134D01*
X388733Y49342D01*
X388580Y49560D01*
X388470Y49768D01*
X388383Y49954D01*
X388350Y50041D01*
X388317Y50107D01*
X388296Y50173D01*
X388285Y50216D01*
X388274Y50238D01*
Y50249D01*
X389235Y50369D01*
X389323Y50161D01*
X389421Y49987D01*
X389520Y49834D01*
X389607Y49713D01*
X389684Y49626D01*
X389749Y49560D01*
X389804Y49517D01*
X389815Y49506D01*
X389957Y49418D01*
X390099Y49353D01*
X390252Y49309D01*
X390383Y49276D01*
X390503Y49254D01*
X390602Y49243D01*
X390689D01*
X390820Y49254D01*
X390941Y49265D01*
X391159Y49320D01*
X391356Y49396D01*
X391531Y49484D01*
X391662Y49560D01*
X391760Y49637D01*
X391826Y49692D01*
X391837Y49713D01*
X391848D01*
X392001Y49910D01*
X392121Y50129D01*
X392208Y50369D01*
X392274Y50588D01*
X392307Y50785D01*
X392329Y50872D01*
X392340Y50949D01*
Y51014D01*
X392351Y51058D01*
Y51091D01*
Y51101D01*
X388252D01*
X388241Y51211D01*
Y51287D01*
Y51331D01*
Y51342D01*
X388252Y51593D01*
X388274Y51823D01*
X388306Y52042D01*
X388350Y52249D01*
X388405Y52435D01*
X388459Y52610D01*
X388525Y52763D01*
X388591Y52905D01*
X388656Y53036D01*
X388722Y53145D01*
X388776Y53233D01*
X388831Y53309D01*
X388875Y53375D01*
X388908Y53419D01*
X388929Y53440D01*
X388940Y53452D01*
X389071Y53583D01*
X389214Y53703D01*
X389367Y53801D01*
X389520Y53889D01*
X389673Y53965D01*
X389815Y54020D01*
X389968Y54075D01*
X390099Y54107D01*
X390241Y54140D01*
X390361Y54162D01*
X390471Y54184D01*
X390558Y54195D01*
X390634Y54206D01*
X390744D01*
X390951Y54195D01*
D02*
G37*
G36*
X441492Y48599D02*
X440486D01*
Y56162D01*
X441492D01*
Y48599D01*
D02*
G37*
G36*
X435918D02*
X434988D01*
Y56162D01*
X435918D01*
Y48599D01*
D02*
G37*
G36*
X406374Y54195D02*
X406483Y54173D01*
X406592Y54140D01*
X406680Y54107D01*
X406745Y54075D01*
X406811Y54042D01*
X406844Y54020D01*
X406855Y54009D01*
X406953Y53922D01*
X407051Y53812D01*
X407150Y53681D01*
X407237Y53561D01*
X407325Y53440D01*
X407379Y53342D01*
X407423Y53266D01*
X407434Y53255D01*
Y54085D01*
X408276D01*
Y48599D01*
X407346D01*
Y51462D01*
X407336Y51681D01*
X407325Y51878D01*
X407303Y52063D01*
X407270Y52227D01*
X407237Y52359D01*
X407215Y52457D01*
X407204Y52522D01*
X407194Y52544D01*
X407150Y52665D01*
X407095Y52763D01*
X407041Y52850D01*
X406986Y52927D01*
X406931Y52982D01*
X406898Y53025D01*
X406866Y53047D01*
X406855Y53058D01*
X406767Y53124D01*
X406669Y53167D01*
X406570Y53200D01*
X406494Y53222D01*
X406418Y53233D01*
X406363Y53244D01*
X406308D01*
X406188Y53233D01*
X406068Y53211D01*
X405947Y53178D01*
X405849Y53145D01*
X405762Y53113D01*
X405696Y53080D01*
X405652Y53058D01*
X405641Y53047D01*
X405303Y53900D01*
X405488Y53998D01*
X405663Y54075D01*
X405816Y54129D01*
X405958Y54173D01*
X406079Y54195D01*
X406177Y54206D01*
X406253D01*
X406374Y54195D01*
D02*
G37*
G36*
X431513D02*
X431688Y54184D01*
X432026Y54107D01*
X432322Y54009D01*
X432453Y53954D01*
X432573Y53900D01*
X432682Y53845D01*
X432770Y53790D01*
X432857Y53736D01*
X432923Y53692D01*
X432977Y53648D01*
X433021Y53615D01*
X433043Y53605D01*
X433054Y53594D01*
X433207Y53452D01*
X433327Y53288D01*
X433447Y53113D01*
X433535Y52938D01*
X433622Y52752D01*
X433688Y52555D01*
X433743Y52369D01*
X433786Y52194D01*
X433830Y52020D01*
X433852Y51867D01*
X433874Y51714D01*
X433884Y51593D01*
Y51484D01*
X433895Y51408D01*
Y51364D01*
Y51342D01*
X433884Y51091D01*
X433863Y50850D01*
X433830Y50631D01*
X433786Y50424D01*
X433732Y50238D01*
X433677Y50063D01*
X433611Y49899D01*
X433546Y49757D01*
X433480Y49626D01*
X433415Y49517D01*
X433360Y49429D01*
X433305Y49353D01*
X433261Y49287D01*
X433229Y49243D01*
X433207Y49222D01*
X433196Y49211D01*
X433054Y49079D01*
X432912Y48970D01*
X432759Y48872D01*
X432606Y48784D01*
X432453Y48719D01*
X432289Y48653D01*
X431994Y48566D01*
X431862Y48544D01*
X431731Y48522D01*
X431622Y48500D01*
X431524Y48489D01*
X431436Y48478D01*
X431327D01*
X431065Y48489D01*
X430824Y48533D01*
X430595Y48588D01*
X430409Y48642D01*
X430245Y48708D01*
X430179Y48730D01*
X430125Y48752D01*
X430070Y48773D01*
X430037Y48795D01*
X430026Y48806D01*
X430015D01*
X429797Y48948D01*
X429611Y49101D01*
X429447Y49254D01*
X429316Y49407D01*
X429217Y49538D01*
X429141Y49648D01*
X429119Y49692D01*
X429097Y49724D01*
X429086Y49735D01*
Y49746D01*
X428977Y49998D01*
X428900Y50271D01*
X428835Y50544D01*
X428802Y50817D01*
X428780Y50938D01*
Y51047D01*
X428769Y51156D01*
X428758Y51244D01*
Y51320D01*
Y51375D01*
Y51408D01*
Y51419D01*
X428769Y51659D01*
X428791Y51878D01*
X428824Y52085D01*
X428868Y52282D01*
X428922Y52468D01*
X428988Y52632D01*
X429053Y52796D01*
X429119Y52927D01*
X429185Y53047D01*
X429250Y53156D01*
X429316Y53255D01*
X429370Y53331D01*
X429414Y53386D01*
X429447Y53430D01*
X429469Y53452D01*
X429480Y53462D01*
X429622Y53594D01*
X429764Y53703D01*
X429917Y53812D01*
X430070Y53889D01*
X430223Y53965D01*
X430376Y54020D01*
X430671Y54118D01*
X430813Y54140D01*
X430933Y54162D01*
X431043Y54184D01*
X431141Y54195D01*
X431218Y54206D01*
X431327D01*
X431513Y54195D01*
D02*
G37*
G36*
X385618Y54184D02*
X385749Y54173D01*
X385869Y54151D01*
X385967Y54129D01*
X386044Y54107D01*
X386088Y54096D01*
X386109Y54085D01*
X386241Y54042D01*
X386361Y53998D01*
X386459Y53954D01*
X386547Y53910D01*
X386612Y53878D01*
X386656Y53845D01*
X386689Y53834D01*
X386700Y53823D01*
X386809Y53747D01*
X386896Y53659D01*
X386973Y53561D01*
X387039Y53484D01*
X387093Y53408D01*
X387126Y53353D01*
X387148Y53309D01*
X387159Y53298D01*
X387213Y53178D01*
X387257Y53069D01*
X387279Y52949D01*
X387301Y52850D01*
X387312Y52752D01*
X387323Y52686D01*
Y52643D01*
Y52621D01*
X387312Y52468D01*
X387290Y52337D01*
X387257Y52205D01*
X387224Y52096D01*
X387192Y52009D01*
X387159Y51932D01*
X387137Y51889D01*
X387126Y51878D01*
X387039Y51757D01*
X386940Y51659D01*
X386842Y51572D01*
X386743Y51495D01*
X386656Y51440D01*
X386590Y51397D01*
X386547Y51375D01*
X386525Y51364D01*
X386448Y51331D01*
X386350Y51287D01*
X386131Y51211D01*
X385902Y51145D01*
X385661Y51069D01*
X385454Y51014D01*
X385355Y50981D01*
X385268Y50959D01*
X385202Y50938D01*
X385148Y50927D01*
X385115Y50916D01*
X385104D01*
X384962Y50883D01*
X384842Y50850D01*
X384732Y50817D01*
X384634Y50785D01*
X384546Y50763D01*
X384470Y50730D01*
X384339Y50686D01*
X384251Y50653D01*
X384197Y50621D01*
X384164Y50610D01*
X384153Y50599D01*
X384055Y50533D01*
X383989Y50446D01*
X383934Y50369D01*
X383902Y50293D01*
X383880Y50216D01*
X383869Y50161D01*
Y50118D01*
Y50107D01*
X383880Y49976D01*
X383913Y49866D01*
X383967Y49757D01*
X384022Y49670D01*
X384087Y49593D01*
X384131Y49538D01*
X384175Y49506D01*
X384186Y49495D01*
X384317Y49407D01*
X384459Y49353D01*
X384623Y49309D01*
X384776Y49276D01*
X384918Y49254D01*
X385027Y49243D01*
X385137D01*
X385366Y49254D01*
X385563Y49287D01*
X385727Y49331D01*
X385869Y49385D01*
X385978Y49440D01*
X386066Y49484D01*
X386109Y49517D01*
X386131Y49528D01*
X386252Y49648D01*
X386350Y49790D01*
X386416Y49932D01*
X386470Y50063D01*
X386514Y50183D01*
X386536Y50293D01*
X386558Y50358D01*
Y50369D01*
Y50380D01*
X387476Y50238D01*
X387399Y49932D01*
X387301Y49659D01*
X387181Y49440D01*
X387060Y49254D01*
X386951Y49101D01*
X386853Y49003D01*
X386787Y48937D01*
X386776Y48926D01*
X386765Y48915D01*
X386656Y48839D01*
X386536Y48773D01*
X386274Y48664D01*
X386000Y48588D01*
X385738Y48533D01*
X385618Y48511D01*
X385508Y48500D01*
X385399Y48489D01*
X385312D01*
X385235Y48478D01*
X385137D01*
X384896Y48489D01*
X384689Y48511D01*
X384492Y48544D01*
X384317Y48588D01*
X384175Y48631D01*
X384066Y48664D01*
X384000Y48686D01*
X383989Y48697D01*
X383978D01*
X383792Y48795D01*
X383639Y48894D01*
X383508Y49003D01*
X383388Y49101D01*
X383300Y49189D01*
X383246Y49265D01*
X383202Y49309D01*
X383191Y49331D01*
X383104Y49484D01*
X383038Y49648D01*
X382983Y49790D01*
X382951Y49921D01*
X382929Y50041D01*
X382918Y50129D01*
Y50183D01*
Y50205D01*
X382929Y50380D01*
X382951Y50533D01*
X382995Y50664D01*
X383027Y50785D01*
X383071Y50883D01*
X383115Y50949D01*
X383137Y50992D01*
X383148Y51003D01*
X383235Y51113D01*
X383333Y51211D01*
X383432Y51298D01*
X383530Y51364D01*
X383628Y51419D01*
X383694Y51451D01*
X383738Y51473D01*
X383760Y51484D01*
X383836Y51517D01*
X383924Y51550D01*
X384131Y51626D01*
X384361Y51703D01*
X384590Y51768D01*
X384798Y51834D01*
X384896Y51856D01*
X384973Y51878D01*
X385038Y51899D01*
X385093Y51910D01*
X385126Y51921D01*
X385137D01*
X385257Y51954D01*
X385366Y51987D01*
X385465Y52009D01*
X385552Y52042D01*
X385694Y52074D01*
X385804Y52107D01*
X385880Y52140D01*
X385924Y52151D01*
X385946Y52162D01*
X385957D01*
X386044Y52205D01*
X386120Y52238D01*
X386186Y52282D01*
X386230Y52315D01*
X386274Y52348D01*
X386295Y52380D01*
X386306Y52391D01*
X386317Y52402D01*
X386383Y52512D01*
X386416Y52621D01*
Y52665D01*
X386426Y52697D01*
Y52719D01*
Y52730D01*
X386416Y52829D01*
X386383Y52927D01*
X386339Y53014D01*
X386284Y53080D01*
X386241Y53145D01*
X386197Y53189D01*
X386164Y53211D01*
X386153Y53222D01*
X386033Y53298D01*
X385891Y53353D01*
X385738Y53386D01*
X385596Y53419D01*
X385454Y53430D01*
X385344Y53440D01*
X385235D01*
X385049Y53430D01*
X384874Y53408D01*
X384732Y53364D01*
X384623Y53320D01*
X384525Y53277D01*
X384459Y53233D01*
X384415Y53211D01*
X384404Y53200D01*
X384295Y53102D01*
X384219Y52992D01*
X384153Y52883D01*
X384098Y52785D01*
X384066Y52686D01*
X384044Y52610D01*
X384033Y52566D01*
Y52544D01*
X383126Y52665D01*
X383169Y52850D01*
X383213Y53014D01*
X383268Y53156D01*
X383322Y53288D01*
X383377Y53375D01*
X383421Y53452D01*
X383443Y53495D01*
X383453Y53506D01*
X383552Y53615D01*
X383661Y53714D01*
X383781Y53801D01*
X383902Y53878D01*
X384011Y53932D01*
X384098Y53976D01*
X384153Y53998D01*
X384164Y54009D01*
X384175D01*
X384361Y54075D01*
X384558Y54118D01*
X384743Y54162D01*
X384918Y54184D01*
X385082Y54195D01*
X385202Y54206D01*
X385465D01*
X385618Y54184D01*
D02*
G37*
G36*
X396635Y54195D02*
X396810Y54173D01*
X396963Y54140D01*
X397094Y54096D01*
X397203Y54053D01*
X397291Y54020D01*
X397335Y53998D01*
X397357Y53987D01*
X397488Y53900D01*
X397619Y53801D01*
X397728Y53703D01*
X397827Y53594D01*
X397914Y53506D01*
X397969Y53430D01*
X398012Y53386D01*
X398023Y53364D01*
Y54085D01*
X398865D01*
Y46500D01*
X397936D01*
Y49167D01*
X397848Y49058D01*
X397750Y48959D01*
X397641Y48872D01*
X397553Y48806D01*
X397466Y48741D01*
X397400Y48697D01*
X397346Y48675D01*
X397335Y48664D01*
X397193Y48599D01*
X397050Y48555D01*
X396908Y48522D01*
X396777Y48500D01*
X396668Y48489D01*
X396581Y48478D01*
X396504D01*
X396274Y48489D01*
X396045Y48533D01*
X395848Y48588D01*
X395662Y48653D01*
X395509Y48719D01*
X395400Y48773D01*
X395356Y48795D01*
X395323Y48817D01*
X395313Y48828D01*
X395302D01*
X395094Y48981D01*
X394919Y49145D01*
X394766Y49309D01*
X394646Y49473D01*
X394548Y49626D01*
X394471Y49746D01*
X394449Y49790D01*
X394427Y49823D01*
X394416Y49845D01*
Y49856D01*
X394318Y50118D01*
X394241Y50380D01*
X394187Y50631D01*
X394143Y50872D01*
X394121Y51069D01*
Y51156D01*
X394110Y51233D01*
Y51298D01*
Y51342D01*
Y51364D01*
Y51375D01*
X394121Y51659D01*
X394154Y51932D01*
X394198Y52173D01*
X394252Y52391D01*
X394307Y52566D01*
X394329Y52643D01*
X394351Y52708D01*
X394373Y52752D01*
X394384Y52785D01*
X394394Y52807D01*
Y52817D01*
X394504Y53047D01*
X394635Y53255D01*
X394766Y53430D01*
X394897Y53572D01*
X395018Y53681D01*
X395116Y53768D01*
X395181Y53812D01*
X395192Y53834D01*
X395203D01*
X395411Y53954D01*
X395619Y54053D01*
X395826Y54118D01*
X396023Y54162D01*
X396187Y54184D01*
X396264Y54195D01*
X396318Y54206D01*
X396438D01*
X396635Y54195D01*
D02*
G37*
G36*
X424716Y43069D02*
X424096D01*
Y43776D01*
X424716D01*
Y43069D01*
D02*
G37*
G36*
X393748D02*
X393128D01*
Y43776D01*
X393748D01*
Y43069D01*
D02*
G37*
G36*
X419620Y38731D02*
X419000D01*
Y40728D01*
X418993Y40881D01*
X418986Y41013D01*
X418971Y41129D01*
X418949Y41224D01*
X418927Y41297D01*
X418913Y41355D01*
X418906Y41385D01*
X418898Y41399D01*
X418855Y41486D01*
X418804Y41567D01*
X418745Y41632D01*
X418687Y41691D01*
X418636Y41734D01*
X418592Y41763D01*
X418563Y41785D01*
X418556Y41793D01*
X418461Y41844D01*
X418373Y41880D01*
X418286Y41902D01*
X418213Y41924D01*
X418140Y41931D01*
X418089Y41938D01*
X418045D01*
X417914Y41931D01*
X417798Y41902D01*
X417703Y41873D01*
X417623Y41829D01*
X417557Y41793D01*
X417513Y41756D01*
X417484Y41727D01*
X417477Y41720D01*
X417411Y41632D01*
X417360Y41523D01*
X417324Y41414D01*
X417295Y41304D01*
X417280Y41202D01*
X417273Y41122D01*
Y41093D01*
Y41071D01*
Y41056D01*
Y41049D01*
Y38731D01*
X416653D01*
Y41042D01*
X416660Y41231D01*
X416675Y41399D01*
X416697Y41537D01*
X416719Y41654D01*
X416741Y41749D01*
X416762Y41815D01*
X416777Y41851D01*
X416784Y41866D01*
X416843Y41968D01*
X416908Y42055D01*
X416981Y42128D01*
X417047Y42194D01*
X417112Y42245D01*
X417163Y42281D01*
X417200Y42303D01*
X417214Y42310D01*
X417331Y42361D01*
X417448Y42405D01*
X417564Y42434D01*
X417674Y42449D01*
X417768Y42463D01*
X417848Y42471D01*
X417914D01*
X418031Y42463D01*
X418147Y42449D01*
X418257Y42427D01*
X418359Y42390D01*
X418548Y42310D01*
X418629Y42267D01*
X418702Y42223D01*
X418767Y42172D01*
X418833Y42128D01*
X418884Y42084D01*
X418920Y42048D01*
X418957Y42011D01*
X418979Y41989D01*
X418993Y41975D01*
X419000Y41968D01*
Y43776D01*
X419620D01*
Y38731D01*
D02*
G37*
G36*
X406330Y42463D02*
X406454Y42441D01*
X406564Y42420D01*
X406658Y42390D01*
X406739Y42354D01*
X406797Y42332D01*
X406833Y42310D01*
X406848Y42303D01*
X406950Y42237D01*
X407037Y42164D01*
X407118Y42092D01*
X407183Y42019D01*
X407234Y41960D01*
X407278Y41909D01*
X407300Y41880D01*
X407307Y41866D01*
Y42390D01*
X407861D01*
Y38731D01*
X407242D01*
Y40626D01*
X407234Y40801D01*
X407227Y40954D01*
X407212Y41086D01*
X407191Y41195D01*
X407169Y41275D01*
X407154Y41333D01*
X407147Y41370D01*
X407139Y41385D01*
X407096Y41479D01*
X407045Y41559D01*
X406994Y41632D01*
X406943Y41691D01*
X406892Y41734D01*
X406855Y41763D01*
X406826Y41785D01*
X406819Y41793D01*
X406731Y41836D01*
X406651Y41873D01*
X406564Y41895D01*
X406491Y41917D01*
X406432Y41924D01*
X406381Y41931D01*
X406338D01*
X406214Y41924D01*
X406112Y41902D01*
X406024Y41866D01*
X405959Y41829D01*
X405907Y41785D01*
X405871Y41756D01*
X405849Y41727D01*
X405842Y41720D01*
X405791Y41632D01*
X405754Y41537D01*
X405725Y41436D01*
X405711Y41333D01*
X405696Y41246D01*
X405689Y41166D01*
Y41137D01*
Y41122D01*
Y41107D01*
Y41100D01*
Y38731D01*
X405069D01*
Y40852D01*
X405055Y41049D01*
X405025Y41217D01*
X404989Y41355D01*
X404938Y41472D01*
X404894Y41559D01*
X404850Y41618D01*
X404821Y41654D01*
X404814Y41669D01*
X404712Y41756D01*
X404603Y41822D01*
X404493Y41866D01*
X404391Y41902D01*
X404304Y41917D01*
X404231Y41924D01*
X404202Y41931D01*
X404165D01*
X404085Y41924D01*
X404019Y41917D01*
X403954Y41902D01*
X403903Y41880D01*
X403852Y41858D01*
X403823Y41844D01*
X403801Y41836D01*
X403793Y41829D01*
X403735Y41785D01*
X403691Y41742D01*
X403655Y41698D01*
X403626Y41654D01*
X403604Y41618D01*
X403589Y41589D01*
X403575Y41567D01*
Y41559D01*
X403553Y41494D01*
X403538Y41406D01*
X403531Y41319D01*
X403524Y41231D01*
X403516Y41151D01*
Y41086D01*
Y41042D01*
Y41034D01*
Y41027D01*
Y38731D01*
X402897D01*
Y41239D01*
Y41355D01*
X402911Y41457D01*
X402926Y41559D01*
X402941Y41647D01*
X402962Y41734D01*
X402991Y41807D01*
X403013Y41873D01*
X403043Y41938D01*
X403072Y41989D01*
X403094Y42041D01*
X403145Y42106D01*
X403174Y42150D01*
X403188Y42164D01*
X403305Y42267D01*
X403443Y42339D01*
X403582Y42398D01*
X403713Y42434D01*
X403837Y42456D01*
X403888Y42463D01*
X403939D01*
X403976Y42471D01*
X404027D01*
X404158Y42463D01*
X404275Y42441D01*
X404391Y42412D01*
X404501Y42369D01*
X404603Y42318D01*
X404697Y42267D01*
X404778Y42208D01*
X404858Y42150D01*
X404931Y42084D01*
X404989Y42026D01*
X405040Y41975D01*
X405084Y41924D01*
X405120Y41880D01*
X405142Y41851D01*
X405157Y41829D01*
X405164Y41822D01*
X405208Y41931D01*
X405266Y42026D01*
X405332Y42106D01*
X405390Y42172D01*
X405448Y42230D01*
X405492Y42267D01*
X405521Y42288D01*
X405536Y42296D01*
X405638Y42354D01*
X405747Y42398D01*
X405857Y42427D01*
X405966Y42449D01*
X406053Y42463D01*
X406134Y42471D01*
X406199D01*
X406330Y42463D01*
D02*
G37*
G36*
X431714Y38731D02*
X431043D01*
Y40481D01*
X430220Y41275D01*
X428426Y38731D01*
X427544D01*
X429753Y41727D01*
X427639Y43776D01*
X428550D01*
X431043Y41268D01*
Y43776D01*
X431714D01*
Y38731D01*
D02*
G37*
G36*
X410405Y42463D02*
X410559Y42449D01*
X410704Y42427D01*
X410821Y42405D01*
X410923Y42383D01*
X410996Y42361D01*
X411025Y42354D01*
X411047Y42347D01*
X411054Y42339D01*
X411062D01*
X411186Y42288D01*
X411295Y42223D01*
X411390Y42164D01*
X411470Y42106D01*
X411528Y42048D01*
X411572Y42004D01*
X411601Y41975D01*
X411608Y41968D01*
X411674Y41873D01*
X411732Y41771D01*
X411776Y41669D01*
X411812Y41574D01*
X411842Y41479D01*
X411864Y41414D01*
X411871Y41385D01*
Y41363D01*
X411878Y41355D01*
Y41348D01*
X411273Y41268D01*
X411229Y41399D01*
X411186Y41516D01*
X411134Y41610D01*
X411091Y41683D01*
X411047Y41742D01*
X411011Y41778D01*
X410981Y41800D01*
X410974Y41807D01*
X410887Y41858D01*
X410784Y41895D01*
X410675Y41924D01*
X410573Y41938D01*
X410471Y41953D01*
X410398Y41960D01*
X410325D01*
X410158Y41953D01*
X410012Y41931D01*
X409895Y41895D01*
X409793Y41858D01*
X409720Y41815D01*
X409662Y41785D01*
X409625Y41756D01*
X409618Y41749D01*
X409560Y41683D01*
X409516Y41603D01*
X409480Y41516D01*
X409458Y41428D01*
X409443Y41348D01*
X409436Y41275D01*
Y41231D01*
Y41224D01*
Y41217D01*
Y41202D01*
Y41173D01*
Y41122D01*
X409443Y41078D01*
Y41064D01*
Y41056D01*
X409516Y41034D01*
X409596Y41013D01*
X409764Y40969D01*
X409953Y40933D01*
X410128Y40896D01*
X410216Y40881D01*
X410296Y40874D01*
X410369Y40860D01*
X410427Y40852D01*
X410478Y40845D01*
X410515D01*
X410544Y40838D01*
X410551D01*
X410682Y40823D01*
X410792Y40801D01*
X410887Y40787D01*
X410959Y40772D01*
X411018Y40765D01*
X411062Y40750D01*
X411091Y40743D01*
X411098D01*
X411193Y40714D01*
X411273Y40685D01*
X411353Y40648D01*
X411419Y40619D01*
X411477Y40590D01*
X411514Y40561D01*
X411543Y40546D01*
X411550Y40539D01*
X411623Y40488D01*
X411681Y40429D01*
X411739Y40371D01*
X411783Y40313D01*
X411820Y40262D01*
X411849Y40218D01*
X411864Y40189D01*
X411871Y40182D01*
X411907Y40101D01*
X411936Y40014D01*
X411958Y39934D01*
X411973Y39854D01*
X411980Y39788D01*
X411987Y39737D01*
Y39708D01*
Y39693D01*
X411980Y39606D01*
X411973Y39533D01*
X411936Y39380D01*
X411885Y39256D01*
X411827Y39146D01*
X411769Y39059D01*
X411718Y38993D01*
X411681Y38957D01*
X411667Y38942D01*
X411535Y38848D01*
X411390Y38775D01*
X411229Y38724D01*
X411083Y38687D01*
X410952Y38665D01*
X410894Y38658D01*
X410843D01*
X410799Y38651D01*
X410741D01*
X410610Y38658D01*
X410478Y38673D01*
X410362Y38687D01*
X410260Y38709D01*
X410180Y38731D01*
X410114Y38753D01*
X410070Y38760D01*
X410055Y38767D01*
X409932Y38818D01*
X409815Y38884D01*
X409706Y38957D01*
X409596Y39022D01*
X409509Y39088D01*
X409443Y39139D01*
X409399Y39176D01*
X409392Y39190D01*
X409385D01*
X409370Y39095D01*
X409356Y39008D01*
X409341Y38928D01*
X409319Y38862D01*
X409297Y38804D01*
X409283Y38767D01*
X409275Y38738D01*
X409268Y38731D01*
X408619D01*
X408656Y38811D01*
X408692Y38891D01*
X408721Y38964D01*
X408736Y39030D01*
X408758Y39088D01*
X408765Y39132D01*
X408773Y39161D01*
Y39168D01*
X408780Y39219D01*
X408787Y39285D01*
Y39358D01*
X408794Y39438D01*
X408802Y39620D01*
Y39803D01*
X408809Y39977D01*
Y40058D01*
Y40123D01*
Y40182D01*
Y40225D01*
Y40255D01*
Y40262D01*
Y41093D01*
Y41231D01*
X408816Y41355D01*
X408823Y41450D01*
Y41530D01*
X408831Y41589D01*
X408838Y41632D01*
X408845Y41654D01*
Y41662D01*
X408867Y41756D01*
X408896Y41836D01*
X408926Y41902D01*
X408962Y41968D01*
X408991Y42011D01*
X409013Y42048D01*
X409028Y42070D01*
X409035Y42077D01*
X409093Y42135D01*
X409159Y42194D01*
X409232Y42237D01*
X409305Y42281D01*
X409370Y42310D01*
X409421Y42332D01*
X409458Y42347D01*
X409472Y42354D01*
X409589Y42390D01*
X409713Y42420D01*
X409837Y42441D01*
X409961Y42456D01*
X410070Y42463D01*
X410150Y42471D01*
X410230D01*
X410405Y42463D01*
D02*
G37*
G36*
X395607Y43294D02*
Y42390D01*
X396066D01*
Y41909D01*
X395607D01*
Y39795D01*
Y39693D01*
Y39606D01*
X395600Y39525D01*
X395592Y39445D01*
Y39380D01*
X395585Y39321D01*
X395570Y39227D01*
X395556Y39154D01*
X395548Y39103D01*
X395534Y39074D01*
Y39066D01*
X395505Y39001D01*
X395461Y38950D01*
X395417Y38899D01*
X395381Y38862D01*
X395337Y38826D01*
X395308Y38804D01*
X395286Y38789D01*
X395279Y38782D01*
X395198Y38745D01*
X395118Y38724D01*
X395031Y38702D01*
X394943Y38695D01*
X394870Y38687D01*
X394812Y38680D01*
X394754D01*
X394593Y38687D01*
X394513Y38695D01*
X394440Y38709D01*
X394375Y38716D01*
X394324Y38724D01*
X394295Y38731D01*
X394280D01*
X394360Y39278D01*
X394419Y39270D01*
X394477Y39263D01*
X394528D01*
X394564Y39256D01*
X394637D01*
X394732Y39263D01*
X394798Y39278D01*
X394834Y39292D01*
X394849Y39299D01*
X394900Y39336D01*
X394929Y39372D01*
X394951Y39402D01*
X394958Y39416D01*
X394965Y39453D01*
X394972Y39504D01*
X394980Y39620D01*
X394987Y39671D01*
Y39715D01*
Y39744D01*
Y39759D01*
Y41909D01*
X394360D01*
Y42390D01*
X394987D01*
Y43666D01*
X395607Y43294D01*
D02*
G37*
G36*
X401993Y40123D02*
Y39985D01*
X401986Y39861D01*
X401978Y39766D01*
X401971Y39679D01*
Y39620D01*
X401964Y39577D01*
X401956Y39547D01*
Y39540D01*
X401934Y39445D01*
X401905Y39358D01*
X401876Y39278D01*
X401840Y39212D01*
X401811Y39154D01*
X401789Y39117D01*
X401774Y39088D01*
X401767Y39081D01*
X401709Y39015D01*
X401643Y38957D01*
X401577Y38906D01*
X401504Y38862D01*
X401446Y38826D01*
X401395Y38796D01*
X401366Y38782D01*
X401351Y38775D01*
X401242Y38731D01*
X401140Y38702D01*
X401038Y38680D01*
X400943Y38665D01*
X400863Y38658D01*
X400797Y38651D01*
X400746D01*
X400615Y38658D01*
X400484Y38680D01*
X400367Y38709D01*
X400250Y38745D01*
X400148Y38796D01*
X400054Y38848D01*
X399966Y38899D01*
X399886Y38957D01*
X399813Y39015D01*
X399755Y39066D01*
X399704Y39125D01*
X399660Y39168D01*
X399623Y39205D01*
X399602Y39234D01*
X399587Y39256D01*
X399580Y39263D01*
Y38731D01*
X399026D01*
Y42390D01*
X399645D01*
Y40429D01*
X399653Y40262D01*
X399660Y40116D01*
X399675Y39992D01*
X399696Y39890D01*
X399718Y39810D01*
X399733Y39751D01*
X399740Y39722D01*
X399747Y39708D01*
X399791Y39620D01*
X399842Y39547D01*
X399901Y39482D01*
X399959Y39423D01*
X400010Y39380D01*
X400054Y39351D01*
X400083Y39329D01*
X400097Y39321D01*
X400192Y39278D01*
X400287Y39241D01*
X400374Y39219D01*
X400455Y39197D01*
X400520Y39190D01*
X400571Y39183D01*
X400622D01*
X400724Y39190D01*
X400812Y39205D01*
X400892Y39227D01*
X400958Y39256D01*
X401016Y39278D01*
X401052Y39299D01*
X401082Y39314D01*
X401089Y39321D01*
X401154Y39380D01*
X401205Y39438D01*
X401249Y39504D01*
X401286Y39562D01*
X401307Y39620D01*
X401322Y39664D01*
X401337Y39693D01*
Y39700D01*
X401351Y39781D01*
X401359Y39875D01*
X401366Y39985D01*
Y40094D01*
X401373Y40196D01*
Y40276D01*
Y40313D01*
Y40335D01*
Y40349D01*
Y40357D01*
Y42390D01*
X401993D01*
Y40123D01*
D02*
G37*
G36*
X425802Y42463D02*
X425875Y42449D01*
X425948Y42427D01*
X426006Y42405D01*
X426050Y42383D01*
X426093Y42361D01*
X426115Y42347D01*
X426123Y42339D01*
X426188Y42281D01*
X426254Y42208D01*
X426320Y42121D01*
X426378Y42041D01*
X426436Y41960D01*
X426473Y41895D01*
X426502Y41844D01*
X426509Y41836D01*
Y42390D01*
X427070D01*
Y38731D01*
X426451D01*
Y40641D01*
X426443Y40787D01*
X426436Y40918D01*
X426422Y41042D01*
X426400Y41151D01*
X426378Y41239D01*
X426363Y41304D01*
X426356Y41348D01*
X426349Y41363D01*
X426320Y41443D01*
X426283Y41508D01*
X426247Y41567D01*
X426210Y41618D01*
X426174Y41654D01*
X426152Y41683D01*
X426130Y41698D01*
X426123Y41705D01*
X426064Y41749D01*
X425999Y41778D01*
X425933Y41800D01*
X425882Y41815D01*
X425831Y41822D01*
X425795Y41829D01*
X425758D01*
X425678Y41822D01*
X425598Y41807D01*
X425518Y41785D01*
X425452Y41763D01*
X425394Y41742D01*
X425350Y41720D01*
X425321Y41705D01*
X425314Y41698D01*
X425087Y42267D01*
X425211Y42332D01*
X425328Y42383D01*
X425430Y42420D01*
X425525Y42449D01*
X425605Y42463D01*
X425671Y42471D01*
X425722D01*
X425802Y42463D01*
D02*
G37*
G36*
X424716Y38731D02*
X424096D01*
Y42390D01*
X424716D01*
Y38731D01*
D02*
G37*
G36*
X414123Y42463D02*
X414255Y42441D01*
X414371Y42412D01*
X414488Y42376D01*
X414590Y42332D01*
X414685Y42281D01*
X414772Y42223D01*
X414845Y42172D01*
X414918Y42114D01*
X414976Y42055D01*
X415027Y42004D01*
X415071Y41960D01*
X415100Y41924D01*
X415122Y41895D01*
X415137Y41873D01*
X415144Y41866D01*
Y42390D01*
X415698D01*
Y38731D01*
X415078D01*
Y40721D01*
Y40845D01*
X415064Y40969D01*
X415049Y41071D01*
X415035Y41166D01*
X415013Y41253D01*
X414991Y41333D01*
X414962Y41406D01*
X414932Y41465D01*
X414911Y41516D01*
X414882Y41559D01*
X414860Y41596D01*
X414838Y41625D01*
X414809Y41662D01*
X414794Y41676D01*
X414685Y41763D01*
X414568Y41822D01*
X414451Y41866D01*
X414349Y41902D01*
X414255Y41917D01*
X414182Y41924D01*
X414152Y41931D01*
X414116D01*
X414029Y41924D01*
X413941Y41917D01*
X413868Y41895D01*
X413810Y41873D01*
X413759Y41851D01*
X413715Y41836D01*
X413693Y41822D01*
X413686Y41815D01*
X413620Y41771D01*
X413562Y41720D01*
X413518Y41669D01*
X413482Y41625D01*
X413460Y41581D01*
X413438Y41545D01*
X413423Y41523D01*
Y41516D01*
X413402Y41436D01*
X413380Y41348D01*
X413365Y41253D01*
X413358Y41159D01*
X413351Y41078D01*
Y41013D01*
Y40962D01*
Y40954D01*
Y40947D01*
Y38731D01*
X412731D01*
Y40976D01*
Y41129D01*
X412738Y41253D01*
X412746Y41355D01*
Y41443D01*
X412753Y41501D01*
X412760Y41545D01*
X412767Y41574D01*
Y41581D01*
X412789Y41676D01*
X412826Y41763D01*
X412855Y41836D01*
X412884Y41909D01*
X412921Y41960D01*
X412942Y41997D01*
X412957Y42026D01*
X412964Y42033D01*
X413023Y42106D01*
X413088Y42164D01*
X413154Y42223D01*
X413227Y42267D01*
X413285Y42303D01*
X413336Y42325D01*
X413365Y42339D01*
X413380Y42347D01*
X413482Y42390D01*
X413591Y42420D01*
X413693Y42441D01*
X413788Y42456D01*
X413868Y42463D01*
X413927Y42471D01*
X413985D01*
X414123Y42463D01*
D02*
G37*
G36*
X396795D02*
X396868Y42449D01*
X396941Y42427D01*
X396999Y42405D01*
X397043Y42383D01*
X397087Y42361D01*
X397109Y42347D01*
X397116Y42339D01*
X397181Y42281D01*
X397247Y42208D01*
X397313Y42121D01*
X397371Y42041D01*
X397429Y41960D01*
X397466Y41895D01*
X397495Y41844D01*
X397502Y41836D01*
Y42390D01*
X398063D01*
Y38731D01*
X397444D01*
Y40641D01*
X397436Y40787D01*
X397429Y40918D01*
X397415Y41042D01*
X397393Y41151D01*
X397371Y41239D01*
X397356Y41304D01*
X397349Y41348D01*
X397342Y41363D01*
X397313Y41443D01*
X397276Y41508D01*
X397240Y41567D01*
X397203Y41618D01*
X397167Y41654D01*
X397145Y41683D01*
X397123Y41698D01*
X397116Y41705D01*
X397058Y41749D01*
X396992Y41778D01*
X396926Y41800D01*
X396875Y41815D01*
X396824Y41822D01*
X396788Y41829D01*
X396751D01*
X396671Y41822D01*
X396591Y41807D01*
X396511Y41785D01*
X396445Y41763D01*
X396387Y41742D01*
X396343Y41720D01*
X396314Y41705D01*
X396307Y41698D01*
X396081Y42267D01*
X396204Y42332D01*
X396321Y42383D01*
X396423Y42420D01*
X396518Y42449D01*
X396598Y42463D01*
X396664Y42471D01*
X396715D01*
X396795Y42463D01*
D02*
G37*
G36*
X393748Y38731D02*
X393128D01*
Y42390D01*
X393748D01*
Y38731D01*
D02*
G37*
G36*
X422157Y42456D02*
X422244Y42449D01*
X422325Y42434D01*
X422390Y42420D01*
X422441Y42405D01*
X422470Y42398D01*
X422485Y42390D01*
X422573Y42361D01*
X422653Y42332D01*
X422718Y42303D01*
X422777Y42274D01*
X422820Y42252D01*
X422850Y42230D01*
X422871Y42223D01*
X422879Y42215D01*
X422952Y42164D01*
X423010Y42106D01*
X423061Y42041D01*
X423105Y41989D01*
X423141Y41938D01*
X423163Y41902D01*
X423177Y41873D01*
X423185Y41866D01*
X423221Y41785D01*
X423250Y41712D01*
X423265Y41632D01*
X423280Y41567D01*
X423287Y41501D01*
X423294Y41457D01*
Y41428D01*
Y41414D01*
X423287Y41312D01*
X423272Y41224D01*
X423250Y41137D01*
X423229Y41064D01*
X423207Y41005D01*
X423185Y40954D01*
X423170Y40925D01*
X423163Y40918D01*
X423105Y40838D01*
X423039Y40772D01*
X422973Y40714D01*
X422908Y40663D01*
X422850Y40626D01*
X422806Y40597D01*
X422777Y40583D01*
X422762Y40575D01*
X422711Y40553D01*
X422645Y40524D01*
X422500Y40473D01*
X422346Y40429D01*
X422186Y40378D01*
X422048Y40342D01*
X421982Y40320D01*
X421924Y40306D01*
X421880Y40291D01*
X421843Y40284D01*
X421822Y40276D01*
X421814D01*
X421720Y40255D01*
X421639Y40233D01*
X421566Y40211D01*
X421501Y40189D01*
X421443Y40174D01*
X421391Y40152D01*
X421304Y40123D01*
X421246Y40101D01*
X421209Y40080D01*
X421187Y40072D01*
X421180Y40065D01*
X421114Y40021D01*
X421071Y39963D01*
X421034Y39912D01*
X421012Y39861D01*
X420998Y39810D01*
X420991Y39773D01*
Y39744D01*
Y39737D01*
X420998Y39649D01*
X421020Y39577D01*
X421056Y39504D01*
X421093Y39445D01*
X421136Y39394D01*
X421166Y39358D01*
X421195Y39336D01*
X421202Y39329D01*
X421289Y39270D01*
X421384Y39234D01*
X421493Y39205D01*
X421596Y39183D01*
X421690Y39168D01*
X421763Y39161D01*
X421836D01*
X421989Y39168D01*
X422121Y39190D01*
X422230Y39219D01*
X422325Y39256D01*
X422398Y39292D01*
X422456Y39321D01*
X422485Y39343D01*
X422500Y39351D01*
X422580Y39431D01*
X422645Y39525D01*
X422689Y39620D01*
X422726Y39708D01*
X422755Y39788D01*
X422769Y39861D01*
X422784Y39905D01*
Y39912D01*
Y39919D01*
X423396Y39824D01*
X423345Y39620D01*
X423280Y39438D01*
X423199Y39292D01*
X423119Y39168D01*
X423046Y39066D01*
X422981Y39001D01*
X422937Y38957D01*
X422930Y38950D01*
X422922Y38942D01*
X422850Y38891D01*
X422769Y38848D01*
X422594Y38775D01*
X422412Y38724D01*
X422237Y38687D01*
X422157Y38673D01*
X422084Y38665D01*
X422011Y38658D01*
X421953D01*
X421902Y38651D01*
X421836D01*
X421676Y38658D01*
X421537Y38673D01*
X421406Y38695D01*
X421289Y38724D01*
X421195Y38753D01*
X421122Y38775D01*
X421078Y38789D01*
X421071Y38796D01*
X421063D01*
X420939Y38862D01*
X420837Y38928D01*
X420750Y39001D01*
X420670Y39066D01*
X420611Y39125D01*
X420575Y39176D01*
X420546Y39205D01*
X420539Y39219D01*
X420480Y39321D01*
X420436Y39431D01*
X420400Y39525D01*
X420378Y39613D01*
X420364Y39693D01*
X420356Y39751D01*
Y39788D01*
Y39803D01*
X420364Y39919D01*
X420378Y40021D01*
X420407Y40109D01*
X420429Y40189D01*
X420458Y40255D01*
X420487Y40298D01*
X420502Y40327D01*
X420509Y40335D01*
X420568Y40408D01*
X420633Y40473D01*
X420699Y40532D01*
X420764Y40575D01*
X420830Y40612D01*
X420874Y40634D01*
X420903Y40648D01*
X420918Y40655D01*
X420969Y40677D01*
X421027Y40699D01*
X421166Y40750D01*
X421319Y40801D01*
X421472Y40845D01*
X421610Y40889D01*
X421676Y40903D01*
X421727Y40918D01*
X421771Y40933D01*
X421807Y40940D01*
X421829Y40947D01*
X421836D01*
X421916Y40969D01*
X421989Y40991D01*
X422055Y41005D01*
X422113Y41027D01*
X422208Y41049D01*
X422281Y41071D01*
X422332Y41093D01*
X422361Y41100D01*
X422376Y41107D01*
X422383D01*
X422441Y41137D01*
X422492Y41159D01*
X422536Y41188D01*
X422565Y41210D01*
X422594Y41231D01*
X422609Y41253D01*
X422616Y41260D01*
X422623Y41268D01*
X422667Y41341D01*
X422689Y41414D01*
Y41443D01*
X422696Y41465D01*
Y41479D01*
Y41486D01*
X422689Y41552D01*
X422667Y41618D01*
X422638Y41676D01*
X422602Y41720D01*
X422573Y41763D01*
X422543Y41793D01*
X422521Y41807D01*
X422514Y41815D01*
X422434Y41866D01*
X422339Y41902D01*
X422237Y41924D01*
X422142Y41946D01*
X422048Y41953D01*
X421975Y41960D01*
X421902D01*
X421778Y41953D01*
X421661Y41938D01*
X421566Y41909D01*
X421493Y41880D01*
X421428Y41851D01*
X421384Y41822D01*
X421355Y41807D01*
X421348Y41800D01*
X421275Y41734D01*
X421224Y41662D01*
X421180Y41589D01*
X421144Y41523D01*
X421122Y41457D01*
X421107Y41406D01*
X421100Y41377D01*
Y41363D01*
X420495Y41443D01*
X420524Y41567D01*
X420553Y41676D01*
X420590Y41771D01*
X420626Y41858D01*
X420662Y41917D01*
X420692Y41968D01*
X420706Y41997D01*
X420714Y42004D01*
X420779Y42077D01*
X420852Y42143D01*
X420932Y42201D01*
X421012Y42252D01*
X421085Y42288D01*
X421144Y42318D01*
X421180Y42332D01*
X421187Y42339D01*
X421195D01*
X421319Y42383D01*
X421450Y42412D01*
X421574Y42441D01*
X421690Y42456D01*
X421800Y42463D01*
X421880Y42471D01*
X422055D01*
X422157Y42456D01*
D02*
G37*
%LPC*%
G36*
X420189Y53440D02*
X420124D01*
X419992Y53430D01*
X419872Y53419D01*
X419643Y53353D01*
X419446Y53266D01*
X419282Y53167D01*
X419151Y53069D01*
X419053Y52982D01*
X418998Y52916D01*
X418976Y52905D01*
Y52894D01*
X418878Y52752D01*
X418790Y52588D01*
X418736Y52424D01*
X418681Y52249D01*
X418648Y52107D01*
X418626Y51976D01*
Y51932D01*
X418615Y51899D01*
Y51878D01*
Y51867D01*
X421687D01*
X421654Y52118D01*
X421588Y52348D01*
X421512Y52544D01*
X421424Y52697D01*
X421348Y52829D01*
X421271Y52927D01*
X421228Y52982D01*
X421206Y53003D01*
X421031Y53145D01*
X420856Y53255D01*
X420670Y53331D01*
X420495Y53386D01*
X420353Y53419D01*
X420233Y53430D01*
X420189Y53440D01*
D02*
G37*
G36*
X402559D02*
X402494D01*
X402362Y53430D01*
X402242Y53419D01*
X402013Y53353D01*
X401816Y53266D01*
X401652Y53167D01*
X401521Y53069D01*
X401422Y52982D01*
X401368Y52916D01*
X401346Y52905D01*
Y52894D01*
X401248Y52752D01*
X401160Y52588D01*
X401105Y52424D01*
X401051Y52249D01*
X401018Y52107D01*
X400996Y51976D01*
Y51932D01*
X400985Y51899D01*
Y51878D01*
Y51867D01*
X404057D01*
X404024Y52118D01*
X403958Y52348D01*
X403882Y52544D01*
X403794Y52697D01*
X403718Y52829D01*
X403641Y52927D01*
X403597Y52982D01*
X403576Y53003D01*
X403401Y53145D01*
X403226Y53255D01*
X403040Y53331D01*
X402865Y53386D01*
X402723Y53419D01*
X402603Y53430D01*
X402559Y53440D01*
D02*
G37*
G36*
X390798D02*
X390733D01*
X390602Y53430D01*
X390481Y53419D01*
X390252Y53353D01*
X390055Y53266D01*
X389891Y53167D01*
X389760Y53069D01*
X389662Y52982D01*
X389607Y52916D01*
X389585Y52905D01*
Y52894D01*
X389487Y52752D01*
X389399Y52588D01*
X389345Y52424D01*
X389290Y52249D01*
X389257Y52107D01*
X389235Y51976D01*
Y51932D01*
X389225Y51899D01*
Y51878D01*
Y51867D01*
X392296D01*
X392263Y52118D01*
X392197Y52348D01*
X392121Y52544D01*
X392034Y52697D01*
X391957Y52829D01*
X391880Y52927D01*
X391837Y52982D01*
X391815Y53003D01*
X391640Y53145D01*
X391465Y53255D01*
X391279Y53331D01*
X391105Y53386D01*
X390962Y53419D01*
X390842Y53430D01*
X390798Y53440D01*
D02*
G37*
G36*
X431392D02*
X431327D01*
X431196Y53430D01*
X431075Y53419D01*
X430857Y53364D01*
X430660Y53277D01*
X430496Y53178D01*
X430365Y53080D01*
X430267Y53003D01*
X430201Y52938D01*
X430179Y52927D01*
Y52916D01*
X430092Y52817D01*
X430026Y52697D01*
X429906Y52457D01*
X429819Y52194D01*
X429764Y51954D01*
X429731Y51724D01*
X429720Y51626D01*
Y51539D01*
X429709Y51473D01*
Y51419D01*
Y51386D01*
Y51375D01*
Y51178D01*
X429731Y50992D01*
X429753Y50828D01*
X429786Y50664D01*
X429819Y50522D01*
X429862Y50391D01*
X429895Y50271D01*
X429939Y50161D01*
X429983Y50074D01*
X430026Y49987D01*
X430070Y49921D01*
X430103Y49866D01*
X430135Y49823D01*
X430157Y49790D01*
X430168Y49779D01*
X430179Y49768D01*
X430267Y49681D01*
X430365Y49593D01*
X430551Y49462D01*
X430748Y49375D01*
X430923Y49309D01*
X431086Y49276D01*
X431207Y49254D01*
X431261Y49243D01*
X431327D01*
X431458Y49254D01*
X431578Y49265D01*
X431808Y49320D01*
X432005Y49407D01*
X432168Y49506D01*
X432300Y49593D01*
X432398Y49681D01*
X432464Y49735D01*
X432475Y49757D01*
X432485D01*
X432562Y49866D01*
X432639Y49976D01*
X432748Y50227D01*
X432835Y50489D01*
X432890Y50752D01*
X432923Y50981D01*
X432934Y51080D01*
Y51167D01*
X432945Y51244D01*
Y51298D01*
Y51331D01*
Y51342D01*
X432934Y51528D01*
X432923Y51714D01*
X432901Y51878D01*
X432868Y52031D01*
X432835Y52173D01*
X432802Y52304D01*
X432759Y52413D01*
X432715Y52522D01*
X432671Y52610D01*
X432628Y52697D01*
X432595Y52763D01*
X432562Y52817D01*
X432529Y52861D01*
X432507Y52894D01*
X432485Y52905D01*
Y52916D01*
X432398Y53003D01*
X432300Y53091D01*
X432114Y53222D01*
X431917Y53309D01*
X431731Y53375D01*
X431567Y53419D01*
X431447Y53430D01*
X431392Y53440D01*
D02*
G37*
G36*
X396581Y53473D02*
X396526D01*
X396416Y53462D01*
X396307Y53452D01*
X396111Y53397D01*
X395936Y53309D01*
X395783Y53211D01*
X395662Y53113D01*
X395575Y53036D01*
X395520Y52971D01*
X395498Y52960D01*
Y52949D01*
X395422Y52850D01*
X395356Y52730D01*
X395247Y52479D01*
X395170Y52227D01*
X395116Y51976D01*
X395083Y51746D01*
X395072Y51648D01*
Y51561D01*
X395061Y51484D01*
Y51429D01*
Y51397D01*
Y51386D01*
Y51189D01*
X395083Y51003D01*
X395105Y50828D01*
X395127Y50664D01*
X395160Y50522D01*
X395203Y50391D01*
X395247Y50260D01*
X395280Y50161D01*
X395323Y50063D01*
X395367Y49987D01*
X395400Y49910D01*
X395444Y49856D01*
X395466Y49812D01*
X395487Y49779D01*
X395509Y49768D01*
Y49757D01*
X395597Y49670D01*
X395684Y49593D01*
X395859Y49462D01*
X396034Y49375D01*
X396198Y49309D01*
X396351Y49276D01*
X396460Y49254D01*
X396504Y49243D01*
X396569D01*
X396679Y49254D01*
X396788Y49265D01*
X396985Y49320D01*
X397160Y49407D01*
X397313Y49495D01*
X397433Y49582D01*
X397520Y49670D01*
X397575Y49724D01*
X397597Y49746D01*
X397674Y49845D01*
X397739Y49954D01*
X397848Y50205D01*
X397914Y50457D01*
X397969Y50719D01*
X398001Y50949D01*
X398012Y51047D01*
Y51134D01*
X398023Y51211D01*
Y51266D01*
Y51298D01*
Y51309D01*
Y51506D01*
X398001Y51681D01*
X397979Y51845D01*
X397958Y52009D01*
X397914Y52151D01*
X397881Y52282D01*
X397837Y52402D01*
X397794Y52512D01*
X397761Y52599D01*
X397717Y52686D01*
X397674Y52752D01*
X397641Y52817D01*
X397619Y52861D01*
X397597Y52894D01*
X397575Y52905D01*
Y52916D01*
X397488Y53014D01*
X397400Y53102D01*
X397313Y53178D01*
X397214Y53244D01*
X397040Y53342D01*
X396876Y53408D01*
X396733Y53440D01*
X396624Y53462D01*
X396581Y53473D01*
D02*
G37*
G36*
X409443Y40568D02*
X409436D01*
X409443Y40335D01*
X409450Y40189D01*
X409458Y40065D01*
X409472Y39963D01*
X409494Y39875D01*
X409516Y39810D01*
X409531Y39759D01*
X409538Y39730D01*
X409545Y39722D01*
X409604Y39628D01*
X409662Y39540D01*
X409735Y39467D01*
X409800Y39409D01*
X409859Y39358D01*
X409910Y39321D01*
X409939Y39299D01*
X409953Y39292D01*
X410063Y39241D01*
X410172Y39205D01*
X410274Y39176D01*
X410376Y39161D01*
X410457Y39146D01*
X410529Y39139D01*
X410588D01*
X410719Y39146D01*
X410828Y39161D01*
X410923Y39190D01*
X411003Y39219D01*
X411062Y39248D01*
X411105Y39278D01*
X411134Y39292D01*
X411142Y39299D01*
X411200Y39365D01*
X411244Y39438D01*
X411280Y39504D01*
X411302Y39569D01*
X411317Y39628D01*
X411324Y39671D01*
Y39708D01*
Y39715D01*
X411317Y39773D01*
X411309Y39832D01*
X411295Y39875D01*
X411280Y39919D01*
X411266Y39956D01*
X411258Y39985D01*
X411244Y39999D01*
Y40007D01*
X411171Y40094D01*
X411083Y40152D01*
X411054Y40174D01*
X411025Y40189D01*
X411003Y40203D01*
X410996D01*
X410923Y40233D01*
X410843Y40255D01*
X410755Y40276D01*
X410668Y40291D01*
X410588Y40306D01*
X410515Y40320D01*
X410471Y40327D01*
X410457D01*
X410333Y40349D01*
X410216Y40364D01*
X410114Y40386D01*
X410012Y40408D01*
X409917Y40429D01*
X409837Y40451D01*
X409757Y40466D01*
X409691Y40488D01*
X409633Y40502D01*
X409582Y40517D01*
X409538Y40532D01*
X409502Y40546D01*
X409472Y40553D01*
X409450Y40561D01*
X409443Y40568D01*
D02*
G37*
%LPD*%
M02*
