%
M48
M72
T01C0.01600
%
T01
X40304Y40659
X30836Y45619
X17358Y76244
X11114Y85077
X11373Y117572
X9369Y128802
X22398Y157785
X25352Y168899
X49245Y189574
X56068Y198466
X85303Y202714
X86755Y208255
X94402Y208959
X98023Y213855
X128576Y210044
X141178Y210562
X167332Y194149
X178549Y190203
X180119Y172336
X196524Y164341
X205513Y155813
X211218Y125369
X215473Y114005
X208609Y83630
X207984Y72034
X189157Y46497
X183669Y35970
X156351Y20638
X147659Y13349
X115819Y10491
X111257Y14462
X105454Y7166
X74223Y17498
X63911Y18540
X111530Y62373
X116035Y92031
X106677Y92163
X104601Y103822
X111741Y105832
X106780Y110889
X111573Y115844
X116744Y110933
X118584Y118018
X127224Y122346
X130499Y115252
X118801Y103846
X104467Y117870
X97824Y124140
X93163Y116466
X90374Y106809
X123346Y147731
X111571Y159283
X142361Y148290
X149514Y102450
M30
